<?xml version="1.0" encoding="UTF-8" standalone="no"?><svg xmlns="http://www.w3.org/2000/svg" xmlns:xlink="http://www.w3.org/1999/xlink" contentScriptType="application/ecmascript" contentStyleType="text/css" height="502.4px" preserveAspectRatio="none" style="width:2436px;height:502px;" version="1.1" viewBox="0 0 2436 502" width="2436px" zoomAndPan="magnify"><defs><filter height="300%" id="f1cthge3a24xe5" width="300%" x="-1" y="-1"><feGaussianBlur result="blurOut" stdDeviation="1.6"/><feColorMatrix in="blurOut" result="blurOut2" type="matrix" values="0 0 0 0 0 0 0 0 0 0 0 0 0 0 0 0 0 0 .4 0"/><feOffset dx="3.2" dy="3.2" in="blurOut2" result="blurOut3"/><feBlend in="SourceGraphic" in2="blurOut3" mode="normal"/></filter></defs><g><!--MD5=[656b504e23380194a42f986724fc4125]
class RegistarFreelancerUI--><rect fill="#FEFECE" filter="url(#f1cthge3a24xe5)" height="38.4" id="RegistarFreelancerUI" style="stroke: #A80036; stroke-width: 1.2000000000000002;" width="120" x="4.8" y="228.8"/><ellipse cx="16.8" cy="241.6" fill="#ADD1B2" rx="8.8" ry="8.8" style="stroke: #A80036; stroke-width: 0.8;"/><path d="M18.7785,246.5145 Q18.3137,246.7535 17.8023,246.873 Q17.291,246.9926 16.7266,246.9926 Q14.7211,246.9926 13.6652,245.6711 Q12.6094,244.3496 12.6094,241.8527 Q12.6094,239.3492 13.6652,238.0277 Q14.7211,236.7063 16.7266,236.7063 Q17.291,236.7063 17.809,236.8258 Q18.327,236.9453 18.7785,237.1844 L18.7785,239.3625 Q18.2738,238.8977 17.799,238.6818 Q17.3242,238.466 16.8195,238.466 Q15.7438,238.466 15.1959,239.3193 Q14.648,240.1727 14.648,241.8527 Q14.648,243.5262 15.1959,244.3795 Q15.7438,245.2328 16.8195,245.2328 Q17.3242,245.2328 17.799,245.017 Q18.2738,244.8012 18.7785,244.3363 Z "/><text fill="#000000" font-family="sans-serif" font-size="9.6" lengthAdjust="spacingAndGlyphs" textLength="94.4" x="28" y="245.2281">RegistarFreelancerUI</text><line style="stroke: #A80036; stroke-width: 1.2000000000000002;" x1="5.6" x2="124" y1="254.4" y2="254.4"/><line style="stroke: #A80036; stroke-width: 1.2000000000000002;" x1="5.6" x2="124" y1="260.8" y2="260.8"/><!--MD5=[32c5f543cbb67cb9941cc985f78b5435]
class RegistarFreelancerController--><rect fill="#FEFECE" filter="url(#f1cthge3a24xe5)" height="90.2203" id="RegistarFreelancerController" style="stroke: #A80036; stroke-width: 1.2000000000000002;" width="308" x="173.6" y="202.8"/><ellipse cx="259" cy="215.6" fill="#ADD1B2" rx="8.8" ry="8.8" style="stroke: #A80036; stroke-width: 0.8;"/><path d="M260.9785,220.5145 Q260.5137,220.7535 260.0023,220.873 Q259.491,220.9926 258.9266,220.9926 Q256.9211,220.9926 255.8652,219.6711 Q254.8094,218.3496 254.8094,215.8527 Q254.8094,213.3492 255.8652,212.0277 Q256.9211,210.7063 258.9266,210.7063 Q259.491,210.7063 260.009,210.8258 Q260.527,210.9453 260.9785,211.1844 L260.9785,213.3625 Q260.4738,212.8977 259.999,212.6818 Q259.5242,212.466 259.0195,212.466 Q257.9438,212.466 257.3959,213.3193 Q256.848,214.1727 256.848,215.8527 Q256.848,217.5262 257.3959,218.3795 Q257.9438,219.2328 259.0195,219.2328 Q259.5242,219.2328 259.999,219.017 Q260.4738,218.8012 260.9785,218.3363 Z "/><text fill="#000000" font-family="sans-serif" font-size="9.6" lengthAdjust="spacingAndGlyphs" textLength="130.4" x="275.4" y="219.2281">RegistarFreelancerController</text><line style="stroke: #A80036; stroke-width: 1.2000000000000002;" x1="174.4" x2="480.8" y1="228.4" y2="228.4"/><line style="stroke: #A80036; stroke-width: 1.2000000000000002;" x1="174.4" x2="480.8" y1="234.8" y2="234.8"/><text fill="#000000" font-family="sans-serif" font-size="8.8" lengthAdjust="spacingAndGlyphs" textLength="202.4" x="178.4" y="246.5078">+novoFrelancer(nome, nif, endpost, tele, email)</text><text fill="#000000" font-family="sans-serif" font-size="8.8" lengthAdjust="spacingAndGlyphs" textLength="298.4" x="178.4" y="256.8719">+novaHabilitacaoAcademica(grau, descCurso, instituicao, medCurso)</text><text fill="#000000" font-family="sans-serif" font-size="8.8" lengthAdjust="spacingAndGlyphs" textLength="104.8" x="178.4" y="267.2359">+getListaCTComGraus()</text><text fill="#000000" font-family="sans-serif" font-size="8.8" lengthAdjust="spacingAndGlyphs" textLength="207.2" x="178.4" y="277.6">+novoReconhecimentoCT(data, codCT, valorGP)</text><text fill="#000000" font-family="sans-serif" font-size="8.8" lengthAdjust="spacingAndGlyphs" textLength="88" x="178.4" y="287.9641">+registaFreelancer()</text><!--MD5=[ecaed46f78f8cfe1e9ce18477649be18]
class Plataforma--><rect fill="#FEFECE" filter="url(#f1cthge3a24xe5)" height="90.2203" id="Plataforma" style="stroke: #A80036; stroke-width: 1.2000000000000002;" width="192.8" x="530.4" y="290.8"/><ellipse cx="598.6" cy="303.6" fill="#ADD1B2" rx="8.8" ry="8.8" style="stroke: #A80036; stroke-width: 0.8;"/><path d="M600.5785,308.5145 Q600.1137,308.7535 599.6023,308.873 Q599.091,308.9926 598.5266,308.9926 Q596.5211,308.9926 595.4652,307.6711 Q594.4094,306.3496 594.4094,303.8527 Q594.4094,301.3492 595.4652,300.0277 Q596.5211,298.7063 598.5266,298.7063 Q599.091,298.7063 599.609,298.8258 Q600.127,298.9453 600.5785,299.1844 L600.5785,301.3625 Q600.0738,300.8977 599.599,300.6818 Q599.1242,300.466 598.6195,300.466 Q597.5438,300.466 596.9959,301.3193 Q596.448,302.1727 596.448,303.8527 Q596.448,305.5262 596.9959,306.3795 Q597.5438,307.2328 598.6195,307.2328 Q599.1242,307.2328 599.599,307.017 Q600.0738,306.8012 600.5785,306.3363 Z "/><text fill="#000000" font-family="sans-serif" font-size="9.6" lengthAdjust="spacingAndGlyphs" textLength="49.6" x="615" y="307.2281">Plataforma</text><line style="stroke: #A80036; stroke-width: 1.2000000000000002;" x1="531.2" x2="722.4" y1="316.4" y2="316.4"/><text fill="#000000" font-family="sans-serif" font-size="8.8" lengthAdjust="spacingAndGlyphs" textLength="81.6" x="535.2" y="328.1078">-String designacao</text><line style="stroke: #A80036; stroke-width: 1.2000000000000002;" x1="531.2" x2="722.4" y1="333.1641" y2="333.1641"/><text fill="#000000" font-family="sans-serif" font-size="8.8" lengthAdjust="spacingAndGlyphs" textLength="183.2" x="535.2" y="344.8719">+RegistoFreelancer getRegistoFreelancer()</text><text fill="#000000" font-family="sans-serif" font-size="8.8" lengthAdjust="spacingAndGlyphs" textLength="117.6" x="535.2" y="355.2359">+RegistoCT getRegistoCT()</text><text fill="#000000" font-family="sans-serif" font-size="8.8" lengthAdjust="spacingAndGlyphs" textLength="122.4" x="535.2" y="365.6">+getAlgoritmoGeradorPwd()</text><text fill="#000000" font-family="sans-serif" font-size="8.8" lengthAdjust="spacingAndGlyphs" textLength="108.8" x="535.2" y="375.9641">+getAutorizacaoFacade()</text><!--MD5=[a3d2cd28087633b4d29ef730f7304c83]
class RegistoCT--><rect fill="#FEFECE" filter="url(#f1cthge3a24xe5)" height="59.1281" id="RegistoCT" style="stroke: #A80036; stroke-width: 1.2000000000000002;" width="114.4" x="1055.2" y="396"/><ellipse cx="1086.28" cy="408.8" fill="#ADD1B2" rx="8.8" ry="8.8" style="stroke: #A80036; stroke-width: 0.8;"/><path d="M1088.2585,413.7145 Q1087.7937,413.9535 1087.2823,414.073 Q1086.771,414.1926 1086.2066,414.1926 Q1084.2011,414.1926 1083.1452,412.8711 Q1082.0894,411.5496 1082.0894,409.0527 Q1082.0894,406.5492 1083.1452,405.2277 Q1084.2011,403.9063 1086.2066,403.9063 Q1086.771,403.9063 1087.289,404.0258 Q1087.807,404.1453 1088.2585,404.3844 L1088.2585,406.5625 Q1087.7538,406.0977 1087.279,405.8818 Q1086.8042,405.666 1086.2995,405.666 Q1085.2237,405.666 1084.6759,406.5193 Q1084.128,407.3727 1084.128,409.0527 Q1084.128,410.7262 1084.6759,411.5795 Q1085.2237,412.4328 1086.2995,412.4328 Q1086.8042,412.4328 1087.279,412.217 Q1087.7538,412.0012 1088.2585,411.5363 Z "/><text fill="#000000" font-family="sans-serif" font-size="9.6" lengthAdjust="spacingAndGlyphs" textLength="46.4" x="1101.72" y="412.4281">RegistoCT</text><line style="stroke: #A80036; stroke-width: 1.2000000000000002;" x1="1056" x2="1168.8" y1="421.6" y2="421.6"/><line style="stroke: #A80036; stroke-width: 1.2000000000000002;" x1="1056" x2="1168.8" y1="428" y2="428"/><text fill="#000000" font-family="sans-serif" font-size="8.8" lengthAdjust="spacingAndGlyphs" textLength="104.8" x="1060" y="439.7078">+getListaCTComGraus()</text><text fill="#000000" font-family="sans-serif" font-size="8.8" lengthAdjust="spacingAndGlyphs" textLength="67.2" x="1060" y="450.0719">+getCT(codCT)</text><!--MD5=[a322db5a7ec64d2ff8f2d6cf1831dcec]
class CompetenciaTecnica--><rect fill="#FEFECE" filter="url(#f1cthge3a24xe5)" height="79.8563" id="CompetenciaTecnica" style="stroke: #A80036; stroke-width: 1.2000000000000002;" width="140" x="1996.8" y="414.4"/><ellipse cx="2017.44" cy="427.2" fill="#ADD1B2" rx="8.8" ry="8.8" style="stroke: #A80036; stroke-width: 0.8;"/><path d="M2019.4185,432.1145 Q2018.9537,432.3535 2018.4423,432.473 Q2017.931,432.5926 2017.3666,432.5926 Q2015.3611,432.5926 2014.3052,431.2711 Q2013.2494,429.9496 2013.2494,427.4527 Q2013.2494,424.9492 2014.3052,423.6277 Q2015.3611,422.3063 2017.3666,422.3063 Q2017.931,422.3063 2018.449,422.4258 Q2018.967,422.5453 2019.4185,422.7844 L2019.4185,424.9625 Q2018.9138,424.4977 2018.439,424.2818 Q2017.9642,424.066 2017.4595,424.066 Q2016.3838,424.066 2015.8359,424.9193 Q2015.288,425.7727 2015.288,427.4527 Q2015.288,429.1262 2015.8359,429.9795 Q2016.3838,430.8328 2017.4595,430.8328 Q2017.9642,430.8328 2018.439,430.617 Q2018.9138,430.4012 2019.4185,429.9363 Z "/><text fill="#000000" font-family="sans-serif" font-size="9.6" lengthAdjust="spacingAndGlyphs" textLength="95.2" x="2030.56" y="430.8281">CompetenciaTecnica</text><line style="stroke: #A80036; stroke-width: 1.2000000000000002;" x1="1997.6" x2="2136" y1="440" y2="440"/><text fill="#000000" font-family="sans-serif" font-size="8.8" lengthAdjust="spacingAndGlyphs" textLength="62.4" x="2001.6" y="451.7078">-String codigo</text><text fill="#000000" font-family="sans-serif" font-size="8.8" lengthAdjust="spacingAndGlyphs" textLength="76" x="2001.6" y="462.0719">-String descBreve</text><text fill="#000000" font-family="sans-serif" font-size="8.8" lengthAdjust="spacingAndGlyphs" textLength="95.2" x="2001.6" y="472.4359">-String descDetalhada</text><line style="stroke: #A80036; stroke-width: 1.2000000000000002;" x1="1997.6" x2="2136" y1="477.4922" y2="477.4922"/><text fill="#000000" font-family="sans-serif" font-size="8.8" lengthAdjust="spacingAndGlyphs" textLength="130.4" x="2001.6" y="489.2">+getGrauProficiencia(valorGP)</text><!--MD5=[0d4fe674cc1d46ec0fc990086e50801a]
class GrauProficiencia--><rect fill="#FEFECE" filter="url(#f1cthge3a24xe5)" height="59.1281" id="GrauProficiencia" style="stroke: #A80036; stroke-width: 1.2000000000000002;" width="100" x="2327.2" y="383.2"/><ellipse cx="2339.2" cy="396" fill="#ADD1B2" rx="8.8" ry="8.8" style="stroke: #A80036; stroke-width: 0.8;"/><path d="M2341.1785,400.9145 Q2340.7137,401.1535 2340.2023,401.273 Q2339.691,401.3926 2339.1266,401.3926 Q2337.1211,401.3926 2336.0652,400.0711 Q2335.0094,398.7496 2335.0094,396.2527 Q2335.0094,393.7492 2336.0652,392.4277 Q2337.1211,391.1063 2339.1266,391.1063 Q2339.691,391.1063 2340.209,391.2258 Q2340.727,391.3453 2341.1785,391.5844 L2341.1785,393.7625 Q2340.6738,393.2977 2340.199,393.0818 Q2339.7242,392.866 2339.2195,392.866 Q2338.1438,392.866 2337.5959,393.7193 Q2337.048,394.5727 2337.048,396.2527 Q2337.048,397.9262 2337.5959,398.7795 Q2338.1438,399.6328 2339.2195,399.6328 Q2339.7242,399.6328 2340.199,399.417 Q2340.6738,399.2012 2341.1785,398.7363 Z "/><text fill="#000000" font-family="sans-serif" font-size="9.6" lengthAdjust="spacingAndGlyphs" textLength="74.4" x="2350.4" y="399.6281">GrauProficiencia</text><line style="stroke: #A80036; stroke-width: 1.2000000000000002;" x1="2328" x2="2426.4" y1="408.8" y2="408.8"/><text fill="#000000" font-family="sans-serif" font-size="8.8" lengthAdjust="spacingAndGlyphs" textLength="59.2" x="2332" y="420.5078">-Integer valor</text><text fill="#000000" font-family="sans-serif" font-size="8.8" lengthAdjust="spacingAndGlyphs" textLength="81.6" x="2332" y="430.8719">-String designacao</text><line style="stroke: #A80036; stroke-width: 1.2000000000000002;" x1="2328" x2="2426.4" y1="435.9281" y2="435.9281"/><!--MD5=[5989a2e3174efcfc62cf38168ac2ffc8]
class RegistoFreelancer--><rect fill="#FEFECE" filter="url(#f1cthge3a24xe5)" height="100.5844" id="RegistoFreelancer" style="stroke: #A80036; stroke-width: 1.2000000000000002;" width="259.2" x="772" y="104.8"/><ellipse cx="857.4" cy="117.6" fill="#ADD1B2" rx="8.8" ry="8.8" style="stroke: #A80036; stroke-width: 0.8;"/><path d="M859.3785,122.5145 Q858.9137,122.7535 858.4023,122.873 Q857.891,122.9926 857.3266,122.9926 Q855.3211,122.9926 854.2652,121.6711 Q853.2094,120.3496 853.2094,117.8527 Q853.2094,115.3492 854.2652,114.0277 Q855.3211,112.7063 857.3266,112.7063 Q857.891,112.7063 858.409,112.8258 Q858.927,112.9453 859.3785,113.1844 L859.3785,115.3625 Q858.8738,114.8977 858.399,114.6818 Q857.9242,114.466 857.4195,114.466 Q856.3438,114.466 855.7959,115.3193 Q855.248,116.1727 855.248,117.8527 Q855.248,119.5262 855.7959,120.3795 Q856.3438,121.2328 857.4195,121.2328 Q857.9242,121.2328 858.399,121.017 Q858.8738,120.8012 859.3785,120.3363 Z "/><text fill="#000000" font-family="sans-serif" font-size="9.6" lengthAdjust="spacingAndGlyphs" textLength="81.6" x="873.8" y="121.2281">RegistoFreelancer</text><line style="stroke: #A80036; stroke-width: 1.2000000000000002;" x1="772.8" x2="1030.4" y1="130.4" y2="130.4"/><line style="stroke: #A80036; stroke-width: 1.2000000000000002;" x1="772.8" x2="1030.4" y1="136.8" y2="136.8"/><text fill="#000000" font-family="sans-serif" font-size="8.8" lengthAdjust="spacingAndGlyphs" textLength="249.6" x="776.8" y="148.5078">+Freelancer novoFrelancer(nome, nif, endpost, tele, email)</text><text fill="#000000" font-family="sans-serif" font-size="8.8" lengthAdjust="spacingAndGlyphs" textLength="95.2" x="776.8" y="158.8719">+registaFreelancer(fr)</text><text fill="#000000" font-family="sans-serif" font-size="8.8" lengthAdjust="spacingAndGlyphs" textLength="88" x="776.8" y="169.2359">-validaFreelancer(fr)</text><text fill="#000000" font-family="sans-serif" font-size="8.8" lengthAdjust="spacingAndGlyphs" textLength="79.2" x="776.8" y="179.6">-addFreelancer(fr)</text><text fill="#000000" font-family="sans-serif" font-size="8.8" lengthAdjust="spacingAndGlyphs" textLength="152.8" x="776.8" y="189.9641">-registaFreelancerComoUtilizador()</text><text fill="#000000" font-family="sans-serif" font-size="8.8" lengthAdjust="spacingAndGlyphs" textLength="129.6" x="776.8" y="200.3281">-enviaEmail(nome, email, pwd)</text><!--MD5=[1f687b5315377fe49fca59b457947463]
class Freelancer--><rect fill="#FEFECE" filter="url(#f1cthge3a24xe5)" height="152.4047" id="Freelancer" style="stroke: #A80036; stroke-width: 1.2000000000000002;" width="308" x="1193.6" y="171.6"/><ellipse cx="1320.2" cy="184.4" fill="#ADD1B2" rx="8.8" ry="8.8" style="stroke: #A80036; stroke-width: 0.8;"/><path d="M1322.1785,189.3145 Q1321.7137,189.5535 1321.2023,189.673 Q1320.691,189.7926 1320.1266,189.7926 Q1318.1211,189.7926 1317.0652,188.4711 Q1316.0094,187.1496 1316.0094,184.6527 Q1316.0094,182.1492 1317.0652,180.8277 Q1318.1211,179.5063 1320.1266,179.5063 Q1320.691,179.5063 1321.209,179.6258 Q1321.727,179.7453 1322.1785,179.9844 L1322.1785,182.1625 Q1321.6738,181.6977 1321.199,181.4818 Q1320.7242,181.266 1320.2195,181.266 Q1319.1438,181.266 1318.5959,182.1193 Q1318.048,182.9727 1318.048,184.6527 Q1318.048,186.3262 1318.5959,187.1795 Q1319.1438,188.0328 1320.2195,188.0328 Q1320.7242,188.0328 1321.199,187.817 Q1321.6738,187.6012 1322.1785,187.1363 Z "/><text fill="#000000" font-family="sans-serif" font-size="9.6" lengthAdjust="spacingAndGlyphs" textLength="48" x="1336.6" y="188.0281">Freelancer</text><line style="stroke: #A80036; stroke-width: 1.2000000000000002;" x1="1194.4" x2="1500.8" y1="197.2" y2="197.2"/><text fill="#000000" font-family="sans-serif" font-size="8.8" lengthAdjust="spacingAndGlyphs" textLength="56.8" x="1198.4" y="208.9078">-String nome</text><text fill="#000000" font-family="sans-serif" font-size="8.8" lengthAdjust="spacingAndGlyphs" textLength="46.4" x="1198.4" y="219.2719">-String NIF</text><text fill="#000000" font-family="sans-serif" font-size="8.8" lengthAdjust="spacingAndGlyphs" textLength="67.2" x="1198.4" y="229.6359">-String telefone</text><text fill="#000000" font-family="sans-serif" font-size="8.8" lengthAdjust="spacingAndGlyphs" textLength="55.2" x="1198.4" y="240">-String email</text><line style="stroke: #A80036; stroke-width: 1.2000000000000002;" x1="1194.4" x2="1500.8" y1="245.0563" y2="245.0563"/><text fill="#000000" font-family="sans-serif" font-size="8.8" lengthAdjust="spacingAndGlyphs" textLength="185.6" x="1198.4" y="256.7641">+Freelancer(nome, nif, endpost, tele, email)</text><text fill="#000000" font-family="sans-serif" font-size="8.8" lengthAdjust="spacingAndGlyphs" textLength="298.4" x="1198.4" y="267.1281">+novaHabilitacaoAcademica(grau, descCurso, instituicao, medCurso)</text><text fill="#000000" font-family="sans-serif" font-size="8.8" lengthAdjust="spacingAndGlyphs" textLength="131.2" x="1198.4" y="277.4922">-addHabilitacaoAcademica(ha)</text><text fill="#000000" font-family="sans-serif" font-size="8.8" lengthAdjust="spacingAndGlyphs" textLength="272.8" x="1198.4" y="287.8563">+novoReconhecimentoCT(data, compTecnica, grauProficiencia)</text><text fill="#000000" font-family="sans-serif" font-size="8.8" lengthAdjust="spacingAndGlyphs" textLength="110.4" x="1198.4" y="298.2203">-addReconhecimento(rct)</text><text fill="#000000" font-family="sans-serif" font-size="8.8" lengthAdjust="spacingAndGlyphs" textLength="49.6" x="1198.4" y="308.5844">+getEmail()</text><text fill="#000000" font-family="sans-serif" font-size="8.8" lengthAdjust="spacingAndGlyphs" textLength="52" x="1198.4" y="318.9484">+getNome()</text><!--MD5=[87602f047bdeda361e6d6669da197818]
class HabilitacaoAcademica--><rect fill="#FEFECE" filter="url(#f1cthge3a24xe5)" height="90.2203" id="HabilitacaoAcademica" style="stroke: #A80036; stroke-width: 1.2000000000000002;" width="287.2" x="1604" y="213.2"/><ellipse cx="1693.4" cy="226" fill="#ADD1B2" rx="8.8" ry="8.8" style="stroke: #A80036; stroke-width: 0.8;"/><path d="M1695.3785,230.9145 Q1694.9137,231.1535 1694.4023,231.273 Q1693.891,231.3926 1693.3266,231.3926 Q1691.3211,231.3926 1690.2652,230.0711 Q1689.2094,228.7496 1689.2094,226.2527 Q1689.2094,223.7492 1690.2652,222.4277 Q1691.3211,221.1063 1693.3266,221.1063 Q1693.891,221.1063 1694.409,221.2258 Q1694.927,221.3453 1695.3785,221.5844 L1695.3785,223.7625 Q1694.8738,223.2977 1694.399,223.0818 Q1693.9242,222.866 1693.4195,222.866 Q1692.3438,222.866 1691.7959,223.7193 Q1691.248,224.5727 1691.248,226.2527 Q1691.248,227.9262 1691.7959,228.7795 Q1692.3438,229.6328 1693.4195,229.6328 Q1693.9242,229.6328 1694.399,229.417 Q1694.8738,229.2012 1695.3785,228.7363 Z "/><text fill="#000000" font-family="sans-serif" font-size="9.6" lengthAdjust="spacingAndGlyphs" textLength="101.6" x="1709.8" y="229.6281">HabilitacaoAcademica</text><line style="stroke: #A80036; stroke-width: 1.2000000000000002;" x1="1604.8" x2="1890.4" y1="238.8" y2="238.8"/><text fill="#000000" font-family="sans-serif" font-size="8.8" lengthAdjust="spacingAndGlyphs" textLength="52.8" x="1608.8" y="250.5078">-String grau</text><text fill="#000000" font-family="sans-serif" font-size="8.8" lengthAdjust="spacingAndGlyphs" textLength="81.6" x="1608.8" y="260.8719">-String designacao</text><text fill="#000000" font-family="sans-serif" font-size="8.8" lengthAdjust="spacingAndGlyphs" textLength="77.6" x="1608.8" y="271.2359">-String instituicao</text><text fill="#000000" font-family="sans-serif" font-size="8.8" lengthAdjust="spacingAndGlyphs" textLength="58.4" x="1608.8" y="281.6">-String media</text><line style="stroke: #A80036; stroke-width: 1.2000000000000002;" x1="1604.8" x2="1890.4" y1="286.6563" y2="286.6563"/><text fill="#000000" font-family="sans-serif" font-size="8.8" lengthAdjust="spacingAndGlyphs" textLength="277.6" x="1608.8" y="298.3641">+HabilitacaoAcademica(grau, descCurso, instituicao, medCurso)</text><!--MD5=[c4dc15e174088596c63903f5b5df879b]
class ReconhecimentoCompetenciaTecnica--><rect fill="#FEFECE" filter="url(#f1cthge3a24xe5)" height="79.8563" id="ReconhecimentoCompetenciaTecnica" style="stroke: #A80036; stroke-width: 1.2000000000000002;" width="260.8" x="1617.2" y="332"/><ellipse cx="1659" cy="344.8" fill="#ADD1B2" rx="8.8" ry="8.8" style="stroke: #A80036; stroke-width: 0.8;"/><path d="M1660.9785,349.7145 Q1660.5137,349.9535 1660.0023,350.073 Q1659.491,350.1926 1658.9266,350.1926 Q1656.9211,350.1926 1655.8652,348.8711 Q1654.8094,347.5496 1654.8094,345.0527 Q1654.8094,342.5492 1655.8652,341.2277 Q1656.9211,339.9063 1658.9266,339.9063 Q1659.491,339.9063 1660.009,340.0258 Q1660.527,340.1453 1660.9785,340.3844 L1660.9785,342.5625 Q1660.4738,342.0977 1659.999,341.8818 Q1659.5242,341.666 1659.0195,341.666 Q1657.9438,341.666 1657.3959,342.5193 Q1656.848,343.3727 1656.848,345.0527 Q1656.848,346.7262 1657.3959,347.5795 Q1657.9438,348.4328 1659.0195,348.4328 Q1659.5242,348.4328 1659.999,348.217 Q1660.4738,348.0012 1660.9785,347.5363 Z "/><text fill="#000000" font-family="sans-serif" font-size="9.6" lengthAdjust="spacingAndGlyphs" textLength="170.4" x="1675.4" y="348.4281">ReconhecimentoCompetenciaTecnica</text><line style="stroke: #A80036; stroke-width: 1.2000000000000002;" x1="1618" x2="1877.2" y1="357.6" y2="357.6"/><text fill="#000000" font-family="sans-serif" font-size="8.8" lengthAdjust="spacingAndGlyphs" textLength="51.2" x="1622" y="369.3078">-String data</text><text fill="#000000" font-family="sans-serif" font-size="8.8" lengthAdjust="spacingAndGlyphs" textLength="120" x="1622" y="379.6719">-String competenciaTecnica</text><text fill="#000000" font-family="sans-serif" font-size="8.8" lengthAdjust="spacingAndGlyphs" textLength="102.4" x="1622" y="390.0359">-String grauProficiencia</text><line style="stroke: #A80036; stroke-width: 1.2000000000000002;" x1="1618" x2="1877.2" y1="395.0922" y2="395.0922"/><text fill="#000000" font-family="sans-serif" font-size="8.8" lengthAdjust="spacingAndGlyphs" textLength="251.2" x="1622" y="406.8">+ReconhecimentoCT(data, compTecnica, grauProficiencia)</text><!--MD5=[dcda844062f930f807532403427d3023]
class EnderecoPostal--><rect fill="#FEFECE" filter="url(#f1cthge3a24xe5)" height="79.8563" id="EnderecoPostal" style="stroke: #A80036; stroke-width: 1.2000000000000002;" width="130.4" x="1682.4" y="104.8"/><ellipse cx="1709.88" cy="117.6" fill="#ADD1B2" rx="8.8" ry="8.8" style="stroke: #A80036; stroke-width: 0.8;"/><path d="M1711.8585,122.5145 Q1711.3937,122.7535 1710.8823,122.873 Q1710.371,122.9926 1709.8066,122.9926 Q1707.8011,122.9926 1706.7452,121.6711 Q1705.6894,120.3496 1705.6894,117.8527 Q1705.6894,115.3492 1706.7452,114.0277 Q1707.8011,112.7063 1709.8066,112.7063 Q1710.371,112.7063 1710.889,112.8258 Q1711.407,112.9453 1711.8585,113.1844 L1711.8585,115.3625 Q1711.3538,114.8977 1710.879,114.6818 Q1710.4042,114.466 1709.8995,114.466 Q1708.8238,114.466 1708.2759,115.3193 Q1707.728,116.1727 1707.728,117.8527 Q1707.728,119.5262 1708.2759,120.3795 Q1708.8238,121.2328 1709.8995,121.2328 Q1710.4042,121.2328 1710.879,121.017 Q1711.3538,120.8012 1711.8585,120.3363 Z "/><text fill="#000000" font-family="sans-serif" font-size="9.6" lengthAdjust="spacingAndGlyphs" textLength="70.4" x="1724.52" y="121.2281">EnderecoPostal</text><line style="stroke: #A80036; stroke-width: 1.2000000000000002;" x1="1683.2" x2="1812" y1="130.4" y2="130.4"/><text fill="#000000" font-family="sans-serif" font-size="8.8" lengthAdjust="spacingAndGlyphs" textLength="52.8" x="1687.2" y="142.1078">-String local</text><text fill="#000000" font-family="sans-serif" font-size="8.8" lengthAdjust="spacingAndGlyphs" textLength="74.4" x="1687.2" y="152.4719">-String codPostal</text><text fill="#000000" font-family="sans-serif" font-size="8.8" lengthAdjust="spacingAndGlyphs" textLength="76" x="1687.2" y="162.8359">-String localidade</text><line style="stroke: #A80036; stroke-width: 1.2000000000000002;" x1="1683.2" x2="1812" y1="167.8922" y2="167.8922"/><text fill="#000000" font-family="sans-serif" font-size="8.8" lengthAdjust="spacingAndGlyphs" textLength="120.8" x="1687.2" y="179.6">+EnderecoPostal(endPostal)</text><!--MD5=[5dd1d6732c071e710b9290b531f2fa3b]
class Utilizador--><rect fill="#FEFECE" filter="url(#f1cthge3a24xe5)" height="69.4922" id="Utilizador" style="stroke: #A80036; stroke-width: 1.2000000000000002;" width="84" x="1705.6" y="6.8"/><ellipse cx="1724.08" cy="19.6" fill="#ADD1B2" rx="8.8" ry="8.8" style="stroke: #A80036; stroke-width: 0.8;"/><path d="M1726.0585,24.5145 Q1725.5937,24.7535 1725.0823,24.873 Q1724.571,24.9926 1724.0066,24.9926 Q1722.0011,24.9926 1720.9452,23.6711 Q1719.8894,22.3496 1719.8894,19.8527 Q1719.8894,17.3492 1720.9452,16.0277 Q1722.0011,14.7063 1724.0066,14.7063 Q1724.571,14.7063 1725.089,14.8258 Q1725.607,14.9453 1726.0585,15.1844 L1726.0585,17.3625 Q1725.5538,16.8977 1725.079,16.6818 Q1724.6042,16.466 1724.0995,16.466 Q1723.0238,16.466 1722.4759,17.3193 Q1721.928,18.1727 1721.928,19.8527 Q1721.928,21.5262 1722.4759,22.3795 Q1723.0238,23.2328 1724.0995,23.2328 Q1724.6042,23.2328 1725.079,23.017 Q1725.5538,22.8012 1726.0585,22.3363 Z "/><text fill="#000000" font-family="sans-serif" font-size="9.6" lengthAdjust="spacingAndGlyphs" textLength="44" x="1736.72" y="23.2281">Utilizador</text><line style="stroke: #A80036; stroke-width: 1.2000000000000002;" x1="1706.4" x2="1788.8" y1="32.4" y2="32.4"/><text fill="#000000" font-family="sans-serif" font-size="8.8" lengthAdjust="spacingAndGlyphs" textLength="56.8" x="1710.4" y="44.1078">-String nome</text><text fill="#000000" font-family="sans-serif" font-size="8.8" lengthAdjust="spacingAndGlyphs" textLength="55.2" x="1710.4" y="54.4719">-String email</text><text fill="#000000" font-family="sans-serif" font-size="8.8" lengthAdjust="spacingAndGlyphs" textLength="74.4" x="1710.4" y="64.8359">-String password</text><line style="stroke: #A80036; stroke-width: 1.2000000000000002;" x1="1706.4" x2="1788.8" y1="69.8922" y2="69.8922"/><!--MD5=[ed5c6b4e01c9b1c9efc043b411d08420]
class AutorizacaoFacade--><rect fill="#FEFECE" filter="url(#f1cthge3a24xe5)" height="48.7641" id="AutorizacaoFacade" style="stroke: #A80036; stroke-width: 1.2000000000000002;" width="252.8" x="1221.2" y="94.8"/><ellipse cx="1300.6" cy="107.6" fill="#ADD1B2" rx="8.8" ry="8.8" style="stroke: #A80036; stroke-width: 0.8;"/><path d="M1302.5785,112.5145 Q1302.1137,112.7535 1301.6023,112.873 Q1301.091,112.9926 1300.5266,112.9926 Q1298.5211,112.9926 1297.4652,111.6711 Q1296.4094,110.3496 1296.4094,107.8527 Q1296.4094,105.3492 1297.4652,104.0277 Q1298.5211,102.7063 1300.5266,102.7063 Q1301.091,102.7063 1301.609,102.8258 Q1302.127,102.9453 1302.5785,103.1844 L1302.5785,105.3625 Q1302.0738,104.8977 1301.599,104.6818 Q1301.1242,104.466 1300.6195,104.466 Q1299.5438,104.466 1298.9959,105.3193 Q1298.448,106.1727 1298.448,107.8527 Q1298.448,109.5262 1298.9959,110.3795 Q1299.5438,111.2328 1300.6195,111.2328 Q1301.1242,111.2328 1301.599,111.017 Q1302.0738,110.8012 1302.5785,110.3363 Z "/><text fill="#000000" font-family="sans-serif" font-size="9.6" lengthAdjust="spacingAndGlyphs" textLength="87.2" x="1317" y="111.2281">AutorizacaoFacade</text><line style="stroke: #A80036; stroke-width: 1.2000000000000002;" x1="1222" x2="1473.2" y1="120.4" y2="120.4"/><line style="stroke: #A80036; stroke-width: 1.2000000000000002;" x1="1222" x2="1473.2" y1="126.8" y2="126.8"/><text fill="#000000" font-family="sans-serif" font-size="8.8" lengthAdjust="spacingAndGlyphs" textLength="243.2" x="1226" y="138.5078">+registaUtilizadorComPapeis(nome,email,pwd,listaPapel)</text><!--MD5=[37bf6c08f758502d5d1a5531d651ab43]
class AlgoritmoGeradorPasswords--><rect fill="#FEFECE" filter="url(#f1cthge3a24xe5)" height="53.7766" id="AlgoritmoGeradorPasswords" style="stroke: #A80036; stroke-width: 1.2000000000000002;" width="156.8" x="823.2" y="17.2"/><ellipse cx="835.2" cy="32.5063" fill="#B4A7E5" rx="8.8" ry="8.8" style="stroke: #A80036; stroke-width: 0.8;"/><path d="M832.3422,29.5184 L832.3422,27.7918 L838.2457,27.7918 L838.2457,29.5184 L836.2734,29.5184 L836.2734,35.9797 L838.2457,35.9797 L838.2457,37.7063 L832.3422,37.7063 L832.3422,35.9797 L834.3145,35.9797 L834.3145,29.5184 Z "/><text fill="#000000" font-family="sans-serif" font-size="9.6" font-style="italic" lengthAdjust="spacingAndGlyphs" textLength="49.6" x="887.2" y="30.4813">«interface»</text><text fill="#000000" font-family="sans-serif" font-size="9.6" font-style="italic" lengthAdjust="spacingAndGlyphs" textLength="131.2" x="846.4" y="41.7875">AlgoritmoGeradorPasswords</text><line style="stroke: #A80036; stroke-width: 1.2000000000000002;" x1="824" x2="979.2" y1="47.8125" y2="47.8125"/><line style="stroke: #A80036; stroke-width: 1.2000000000000002;" x1="824" x2="979.2" y1="54.2125" y2="54.2125"/><text fill="#000000" font-family="sans-serif" font-size="8.8" lengthAdjust="spacingAndGlyphs" textLength="122.4" x="828" y="65.9203">+geraPassword(nome,email)</text><!--MD5=[0d731ff285a62a08178b23be6cceb109]
link CompetenciaTecnica to GrauProficiencia--><path d="M2136.904,445.064 C2194.696,437.28 2275.616,426.376 2327.024,419.456 " fill="none" id="CompetenciaTecnica-GrauProficiencia" style="stroke: #A80036; stroke-width: 0.8;"/><text fill="#000000" font-family="sans-serif" font-size="10.4" lengthAdjust="spacingAndGlyphs" textLength="29.6" x="2237.6" y="422.8547">aplica</text><polygon fill="#000000" points="2269.6,417.7242,2274.4,420.1242,2269.6,422.5242,2269.6,417.7242" style="stroke: #000000; stroke-width: 0.8;"/><text fill="#000000" font-family="sans-serif" font-size="10.4" lengthAdjust="spacingAndGlyphs" textLength="6.4" x="2143.2036" y="454.8489">1</text><text fill="#000000" font-family="sans-serif" font-size="10.4" lengthAdjust="spacingAndGlyphs" textLength="4.8" x="2316.1449" y="430.9926">*</text><!--MD5=[95722b6f9a6b3365849ad4075c1dbfec]
link RegistarFreelancerUI to RegistarFreelancerController--><path d="M124.872,248 C138.536,248 153.712,248 169.424,248 " fill="none" id="RegistarFreelancerUI-&gt;RegistarFreelancerController" style="stroke: #A80036; stroke-width: 0.8; stroke-dasharray: 7.0,7.0;"/><polygon fill="#A80036" points="173.424,248,166.224,244.8,169.424,248,166.224,251.2,173.424,248" style="stroke: #A80036; stroke-width: 0.8;"/><!--MD5=[2e555ae67bb8df3432c2357bb816a845]
link RegistarFreelancerController to Plataforma--><path d="M481.344,293.224 C496.584,297.736 511.776,302.224 526.264,306.512 " fill="none" id="RegistarFreelancerController-&gt;Plataforma" style="stroke: #A80036; stroke-width: 0.8; stroke-dasharray: 7.0,7.0;"/><polygon fill="#A80036" points="530.336,307.712,524.334,302.6075,526.4991,306.5815,522.5251,308.7466,530.336,307.712" style="stroke: #A80036; stroke-width: 0.8;"/><!--MD5=[ee03eb1cbdd0170d11c65c5bf3ec29f4]
link RegistarFreelancerController to RegistoFreelancer--><path d="M481.792,223.128 C571.032,208.664 682.4,190.608 767.888,176.752 " fill="none" id="RegistarFreelancerController-&gt;RegistoFreelancer" style="stroke: #A80036; stroke-width: 0.8; stroke-dasharray: 7.0,7.0;"/><polygon fill="#A80036" points="771.936,176.088,764.3163,174.0829,767.9877,176.7289,765.3417,180.4003,771.936,176.088" style="stroke: #A80036; stroke-width: 0.8;"/><!--MD5=[6559eb636a96f7dfb00e6558ace09863]
link RegistarFreelancerController to Freelancer--><path d="M481.688,248 C672.472,248 996.6,248 1189.32,248 " fill="none" id="RegistarFreelancerController-&gt;Freelancer" style="stroke: #A80036; stroke-width: 0.8; stroke-dasharray: 7.0,7.0;"/><polygon fill="#A80036" points="1193.56,248,1186.36,244.8,1189.56,248,1186.36,251.2,1193.56,248" style="stroke: #A80036; stroke-width: 0.8;"/><!--MD5=[4f06741411320007e7f35449f94268cd]
link Plataforma to RegistoCT--><path d="M723.224,353.704 C820.616,371.736 968.68,399.144 1051.008,414.384 " fill="none" id="Plataforma-&gt;RegistoCT" style="stroke: #A80036; stroke-width: 0.8;"/><polygon fill="#A80036" points="1055.12,415.144,1048.6268,410.681,1051.1875,414.4124,1047.4562,416.9731,1055.12,415.144" style="stroke: #A80036; stroke-width: 0.8;"/><text fill="#000000" font-family="sans-serif" font-size="10.4" lengthAdjust="spacingAndGlyphs" textLength="6.4" x="729.6062" y="365.2909">1</text><text fill="#000000" font-family="sans-serif" font-size="10.4" lengthAdjust="spacingAndGlyphs" textLength="6.4" x="1042.483" y="424.7557">1</text><!--MD5=[957336f8f7652c1733534e96e2968a5f]
link Plataforma to RegistoFreelancer--><path d="M696.184,290.608 C734.088,265.528 781.36,234.248 820.92,208.064 " fill="none" id="Plataforma-&gt;RegistoFreelancer" style="stroke: #A80036; stroke-width: 0.8;"/><polygon fill="#A80036" points="824.48,205.712,816.709,207.0125,821.143,207.9176,820.2379,212.3516,824.48,205.712" style="stroke: #A80036; stroke-width: 0.8;"/><text fill="#000000" font-family="sans-serif" font-size="10.4" lengthAdjust="spacingAndGlyphs" textLength="6.4" x="698.2638" y="282.1055">1</text><text fill="#000000" font-family="sans-serif" font-size="10.4" lengthAdjust="spacingAndGlyphs" textLength="6.4" x="809.295" y="221.9731">1</text><!--MD5=[c2b02cfdb8aa70326365b04c36bb2b6f]
link RegistoCT to CompetenciaTecnica--><path d="M1169.952,427.312 C1334.096,432.28 1809.352,446.64 1992.672,452.184 " fill="none" id="RegistoCT-&gt;CompetenciaTecnica" style="stroke: #A80036; stroke-width: 0.8;"/><polygon fill="#A80036" points="1996.68,452.304,1989.5841,448.8794,1992.682,452.1783,1989.383,455.2762,1996.68,452.304" style="stroke: #A80036; stroke-width: 0.8;"/><text fill="#000000" font-family="sans-serif" font-size="10.4" lengthAdjust="spacingAndGlyphs" textLength="6.4" x="1175.9323" y="438.1416">1</text><text fill="#000000" font-family="sans-serif" font-size="10.4" lengthAdjust="spacingAndGlyphs" textLength="4.8" x="1985.6478" y="462.711">*</text><!--MD5=[95795e0b4ecb0b567ae2ce3910745252]
link RegistoFreelancer to Freelancer--><path d="M1031.24,182.104 C1080.696,192.432 1137.704,204.336 1189.536,215.16 " fill="none" id="RegistoFreelancer-&gt;Freelancer" style="stroke: #A80036; stroke-width: 0.8;"/><polygon fill="#A80036" points="1193.576,216,1187.1741,211.407,1189.659,215.1892,1185.8768,217.6741,1193.576,216" style="stroke: #A80036; stroke-width: 0.8;"/><text fill="#000000" font-family="sans-serif" font-size="10.4" lengthAdjust="spacingAndGlyphs" textLength="75.2" x="1074.8" y="185.2547">tem registados</text><text fill="#000000" font-family="sans-serif" font-size="10.4" lengthAdjust="spacingAndGlyphs" textLength="6.4" x="1037.6744" y="193.7637">1</text><text fill="#000000" font-family="sans-serif" font-size="10.4" lengthAdjust="spacingAndGlyphs" textLength="4.8" x="1182.1769" y="224.9714">*</text><!--MD5=[7a59ad2cb29ff6e914b8672ce881fef8]
link Freelancer to HabilitacaoAcademica--><path d="M1501.864,252.008 C1533.96,252.84 1567.728,253.728 1599.592,254.56 " fill="none" id="Freelancer-&gt;HabilitacaoAcademica" style="stroke: #A80036; stroke-width: 0.8;"/><polygon fill="#A80036" points="1603.872,254.672,1596.7566,251.288,1599.8733,254.5692,1596.5921,257.6859,1603.872,254.672" style="stroke: #A80036; stroke-width: 0.8;"/><text fill="#000000" font-family="sans-serif" font-size="10.4" lengthAdjust="spacingAndGlyphs" textLength="19.2" x="1543.2" y="250.8547">tem</text><text fill="#000000" font-family="sans-serif" font-size="10.4" lengthAdjust="spacingAndGlyphs" textLength="6.4" x="1508.0149" y="262.4662">1</text><text fill="#000000" font-family="sans-serif" font-size="10.4" lengthAdjust="spacingAndGlyphs" textLength="17.6" x="1579.8372" y="264.8316">0..*</text><!--MD5=[2bba5561b974fb2050139d5fa9c0f564]
link Freelancer to ReconhecimentoCompetenciaTecnica--><path d="M1501.864,295.768 C1538.872,307.28 1578.112,319.496 1614.08,330.696 " fill="none" id="Freelancer-&gt;ReconhecimentoCompetenciaTecnica" style="stroke: #A80036; stroke-width: 0.8;"/><polygon fill="#A80036" points="1618,331.912,1612.0725,326.7212,1614.1799,330.726,1610.175,332.8334,1618,331.912" style="stroke: #A80036; stroke-width: 0.8;"/><text fill="#000000" font-family="sans-serif" font-size="10.4" lengthAdjust="spacingAndGlyphs" textLength="45.6" x="1530" y="302.8547">recebe(u)</text><text fill="#000000" font-family="sans-serif" font-size="10.4" lengthAdjust="spacingAndGlyphs" textLength="6.4" x="1508.0149" y="307.9356">1</text><text fill="#000000" font-family="sans-serif" font-size="10.4" lengthAdjust="spacingAndGlyphs" textLength="17.6" x="1593.2638" y="327.6004">0..*</text><!--MD5=[b8422db8e85907663c841d4c41f19cc1]
link Freelancer to EnderecoPostal--><path d="M1501.864,208.248 C1562.736,192.48 1629.624,175.152 1678.104,162.592 " fill="none" id="Freelancer-&gt;EnderecoPostal" style="stroke: #A80036; stroke-width: 0.8;"/><polygon fill="#A80036" points="1682.152,161.544,1674.3825,160.2342,1678.2776,162.5383,1675.9735,166.4333,1682.152,161.544" style="stroke: #A80036; stroke-width: 0.8;"/><text fill="#000000" font-family="sans-serif" font-size="10.4" lengthAdjust="spacingAndGlyphs" textLength="19.2" x="1543.2" y="187.6547">tem</text><text fill="#000000" font-family="sans-serif" font-size="10.4" lengthAdjust="spacingAndGlyphs" textLength="6.4" x="1508.0149" y="216.9968">1</text><text fill="#000000" font-family="sans-serif" font-size="10.4" lengthAdjust="spacingAndGlyphs" textLength="6.4" x="1669.638" y="173.6418">1</text><!--MD5=[6a7c57800a31452a20aa2f5037e36afb]
link Freelancer to Utilizador--><path d="M1479.032,171.488 C1486.696,166.824 1494.256,162.168 1501.6,157.6 C1547.808,128.824 1555.104,114.32 1604,90.4 C1635.288,75.088 1672.6,62.52 1701.232,53.976 " fill="none" id="Freelancer-&gt;Utilizador" style="stroke: #A80036; stroke-width: 0.8;"/><polygon fill="#A80036" points="1705.392,52.744,1697.5803,51.7157,1701.556,53.8776,1699.3941,57.8533,1705.392,52.744" style="stroke: #A80036; stroke-width: 0.8;"/><text fill="#000000" font-family="sans-serif" font-size="10.4" lengthAdjust="spacingAndGlyphs" textLength="52.8" x="1526.4" y="101.2547">atua como</text><text fill="#000000" font-family="sans-serif" font-size="10.4" lengthAdjust="spacingAndGlyphs" textLength="19.2" x="1469.5405" y="162.9932">0..1</text><text fill="#000000" font-family="sans-serif" font-size="10.4" lengthAdjust="spacingAndGlyphs" textLength="6.4" x="1692.8903" y="65.1263">1</text><!--MD5=[a3b528a7f654e905d831144439d7cdb8]
link ReconhecimentoCompetenciaTecnica to CompetenciaTecnica--><path d="M1878.04,405.632 C1917.184,415.792 1958.768,426.576 1992.848,435.424 " fill="none" id="ReconhecimentoCompetenciaTecnica-&gt;CompetenciaTecnica" style="stroke: #A80036; stroke-width: 0.8;"/><polygon fill="#A80036" points="1996.76,436.432,1990.595,431.5256,1992.8883,435.427,1988.9869,437.7203,1996.76,436.432" style="stroke: #A80036; stroke-width: 0.8;"/><text fill="#000000" font-family="sans-serif" font-size="10.4" lengthAdjust="spacingAndGlyphs" textLength="45.6" x="1916" y="412.4547">relativa a</text><polygon fill="#000000" points="1964,407.3242,1968.8,409.7242,1964,412.1242,1964,407.3242" style="stroke: #000000; stroke-width: 0.8;"/><text fill="#000000" font-family="sans-serif" font-size="10.4" lengthAdjust="spacingAndGlyphs" textLength="4.8" x="1884.4744" y="417.6159">*</text><text fill="#000000" font-family="sans-serif" font-size="10.4" lengthAdjust="spacingAndGlyphs" textLength="6.4" x="1984.0659" y="445.475">1</text><!--MD5=[156fd9ccca59e4538aad30e9a9b012b9]
link ReconhecimentoCompetenciaTecnica to GrauProficiencia--><path d="M1878.16,375.312 C1990.776,379.04 2158.08,386.664 2303.2,401.6 C2309.552,402.256 2316.2,403.08 2322.784,403.976 " fill="none" id="ReconhecimentoCompetenciaTecnica-&gt;GrauProficiencia" style="stroke: #A80036; stroke-width: 0.8;"/><polygon fill="#A80036" points="2326.872,404.544,2320.1784,400.3876,2322.9097,403.9959,2319.3014,406.7272,2326.872,404.544" style="stroke: #A80036; stroke-width: 0.8;"/><text fill="#000000" font-family="sans-serif" font-size="10.4" lengthAdjust="spacingAndGlyphs" textLength="40" x="2161.6" y="386.8547">reconhe</text><polygon fill="#000000" points="2204,381.7242,2208.8,384.1242,2204,386.5242,2204,381.7242" style="stroke: #000000; stroke-width: 0.8;"/><text fill="#000000" font-family="sans-serif" font-size="10.4" lengthAdjust="spacingAndGlyphs" textLength="4.8" x="1884.6003" y="385.8272">*</text><text fill="#000000" font-family="sans-serif" font-size="10.4" lengthAdjust="spacingAndGlyphs" textLength="6.4" x="2314.2828" y="414.3564">1</text><!--MD5=[4aa6a936df4ad7b844bdcf1457a2ad73]
link AlgoritmoGeradorPasswords to Utilizador--><path d="M980.328,43.776 C1154.968,43.28 1572.784,42.096 1705.552,41.72 " fill="none" id="AlgoritmoGeradorPasswords-Utilizador" style="stroke: #A80036; stroke-width: 0.8;"/><text fill="#000000" font-family="sans-serif" font-size="10.4" lengthAdjust="spacingAndGlyphs" textLength="72.8" x="1306" y="39.6547">gera password</text><polygon fill="#000000" points="1381.2,34.5242,1386,36.9242,1381.2,39.3242,1381.2,34.5242" style="stroke: #000000; stroke-width: 0.8;"/><text fill="#000000" font-family="sans-serif" font-size="10.4" lengthAdjust="spacingAndGlyphs" textLength="6.4" x="986.3446" y="54.2575">1</text><text fill="#000000" font-family="sans-serif" font-size="10.4" lengthAdjust="spacingAndGlyphs" textLength="17.6" x="1681.7549" y="39.0798">0..*</text><!--MD5=[15cec896389339cd2d2fcfdb697eb13d]
link RegistoFreelancer to AutorizacaoFacade--><path d="M1031.24,144.76 C1089.56,140.04 1158.368,134.464 1216.824,129.728 " fill="none" id="RegistoFreelancer-&gt;AutorizacaoFacade" style="stroke: #A80036; stroke-width: 0.8; stroke-dasharray: 7.0,7.0;"/><polygon fill="#A80036" points="1221.008,129.392,1213.5751,126.778,1217.0208,129.7119,1214.087,133.1576,1221.008,129.392" style="stroke: #A80036; stroke-width: 0.8;"/><!--MD5=[da4b048eddb7144ff25fffb22664bc52]
link AutorizacaoFacade to Utilizador--><path d="M1473.912,94.752 C1551.376,79.664 1646.16,61.2 1701.184,50.488 " fill="none" id="AutorizacaoFacade-&gt;Utilizador" style="stroke: #A80036; stroke-width: 0.8; stroke-dasharray: 7.0,7.0;"/><polygon fill="#A80036" points="1705.408,49.664,1697.7281,47.9037,1701.4822,50.4308,1698.955,54.185,1705.408,49.664" style="stroke: #A80036; stroke-width: 0.8;"/><!--MD5=[a9a9a98efa352b54062b67c9e059a2e5]
reverse link AlgoritmoGeradorPasswords to RegistoFreelancer--><path d="M901.6,75.184 C901.6,84.992 901.6,94.792 901.6,104.592 " fill="none" id="AlgoritmoGeradorPasswords&lt;-RegistoFreelancer" style="stroke: #A80036; stroke-width: 0.8; stroke-dasharray: 7.0,7.0;"/><polygon fill="#A80036" points="901.6,70.984,898.4,78.184,901.6,74.984,904.8,78.184,901.6,70.984" style="stroke: #A80036; stroke-width: 0.8;"/><!--MD5=[3009aa453bd54754390453ea8e07b878]
@startuml
skinparam classAttributeIconSize 0

left to right direction

class RegistarFreelancerUI {
    
}

class RegistarFreelancerController {
    
  +novoFrelancer(nome, nif, endpost, tele, email)
  +novaHabilitacaoAcademica(grau, descCurso, instituicao, medCurso)
  +getListaCTComGraus()
  +novoReconhecimentoCT(data, codCT, valorGP)
  +registaFreelancer()  
}

class Plataforma {
  -String designacao
  
  +RegistoFreelancer getRegistoFreelancer()
  +RegistoCT getRegistoCT()
  +getAlgoritmoGeradorPwd()
  +getAutorizacaoFacade()
}

class RegistoCT {
    +getListaCTComGraus()
    +getCT(codCT)
}

class CompetenciaTecnica {
  -String codigo
  -String descBreve
  -String descDetalhada

  +getGrauProficiencia(valorGP)
}

class GrauProficiencia {
  -Integer valor
  -String designacao
}

class RegistoFreelancer {
    
  +Freelancer novoFrelancer(nome, nif, endpost, tele, email)
  +registaFreelancer(fr)
  -validaFreelancer(fr)
  -addFreelancer(fr)
  -registaFreelancerComoUtilizador()
  -enviaEmail(nome, email, pwd)
  
}

class Freelancer {
  -String nome
  -String NIF
  -String telefone
  -String email

   +Freelancer(nome, nif, endpost, tele, email)
   +novaHabilitacaoAcademica(grau, descCurso, instituicao, medCurso)
   -addHabilitacaoAcademica(ha)
   +novoReconhecimentoCT(data, compTecnica, grauProficiencia)
   -addReconhecimento(rct)
   +getEmail()
   +getNome()
}

class HabilitacaoAcademica {
  -String grau
  -String designacao 
  -String instituicao 
  -String media

  +HabilitacaoAcademica(grau, descCurso, instituicao, medCurso)
}

class ReconhecimentoCompetenciaTecnica {
  -String data
  -String competenciaTecnica
  -String grauProficiencia
  
  +ReconhecimentoCT(data, compTecnica, grauProficiencia)
}

class EnderecoPostal {
  -String local
  -String codPostal
  -String localidade
  
  +EnderecoPostal(endPostal)
}


class Utilizador {
  -String nome
  -String email
  -String password
}

class AutorizacaoFacade {
   +registaUtilizadorComPapeis(nome,email,pwd,listaPapel)
}

interface AlgoritmoGeradorPasswords  <<interface>>{
  +geraPassword(nome,email)
}

CompetenciaTecnica "1" - - - "*" GrauProficiencia : aplica  >

RegistarFreelancerUI ..> RegistarFreelancerController
RegistarFreelancerController ..> Plataforma
RegistarFreelancerController ..> RegistoFreelancer
RegistarFreelancerController ..> Freelancer
Plataforma  "1" - -> "1" RegistoCT
Plataforma  "1" - -> "1" RegistoFreelancer

RegistoCT "1" - -> "*" CompetenciaTecnica

RegistoFreelancer "1" - -> "*" Freelancer : tem registados
Freelancer "1" - -> "0..*" HabilitacaoAcademica: tem 
Freelancer "1" - -> "0..*" ReconhecimentoCompetenciaTecnica: recebe(u) 
Freelancer "1" - -> "1" EnderecoPostal: tem 
Freelancer "0..1" - -> "1" Utilizador: atua como


ReconhecimentoCompetenciaTecnica "*" - -> "1" CompetenciaTecnica: relativa a >
ReconhecimentoCompetenciaTecnica "*" - -> "1" GrauProficiencia: reconhe >

AlgoritmoGeradorPasswords "1" - - "0..*" Utilizador: gera password >
RegistoFreelancer ..> AutorizacaoFacade
AutorizacaoFacade ..> Utilizador
AlgoritmoGeradorPasswords <.l. RegistoFreelancer



@enduml

PlantUML version 1.2020.03beta6(Unknown compile time)
(GPL source distribution)
Java Runtime: OpenJDK Runtime Environment
JVM: OpenJDK 64-Bit Server VM
Java Version: 11.0.5+10-b520.38
Operating System: Mac OS X
Default Encoding: UTF-8
Language: en
Country: PT
--></g></svg>