<?xml version="1.0" encoding="UTF-8" standalone="no"?><svg xmlns="http://www.w3.org/2000/svg" xmlns:xlink="http://www.w3.org/1999/xlink" contentScriptType="application/ecmascript" contentStyleType="text/css" height="361.8px" preserveAspectRatio="none" style="width:1013px;height:361px;" version="1.1" viewBox="0 0 1013 361" width="1013.4px" zoomAndPan="magnify"><defs><filter height="300%" id="fru2hjwbmlavp" width="300%" x="-1" y="-1"><feGaussianBlur result="blurOut" stdDeviation="1.2"/><feColorMatrix in="blurOut" result="blurOut2" type="matrix" values="0 0 0 0 0 0 0 0 0 0 0 0 0 0 0 0 0 0 .4 0"/><feOffset dx="2.4" dy="2.4" in="blurOut2" result="blurOut3"/><feBlend in="SourceGraphic" in2="blurOut3" mode="normal"/></filter></defs><g><!--MD5=[ecaed46f78f8cfe1e9ce18477649be18]
class Plataforma--><rect fill="#FEFECE" filter="url(#fru2hjwbmlavp)" height="31.773" id="Plataforma" style="stroke: #A80036; stroke-width: 0.8999999999999999;" width="68.4" x="3.6" y="239.7"/><ellipse cx="18" cy="249.3" fill="#ADD1B2" rx="6.6" ry="6.6" style="stroke: #A80036; stroke-width: 0.6;"/><path d="M19.4839,252.9858 Q19.1353,253.1651 18.7518,253.2548 Q18.3683,253.3444 17.9449,253.3444 Q16.4408,253.3444 15.6489,252.3533 Q14.857,251.3622 14.857,249.4896 Q14.857,247.6119 15.6489,246.6208 Q16.4408,245.6297 17.9449,245.6297 Q18.3683,245.6297 18.7567,245.7193 Q19.1452,245.809 19.4839,245.9883 L19.4839,247.6219 Q19.1054,247.2732 18.7493,247.1114 Q18.3932,246.9495 18.0146,246.9495 Q17.2078,246.9495 16.7969,247.5895 Q16.386,248.2295 16.386,249.4896 Q16.386,250.7446 16.7969,251.3846 Q17.2078,252.0246 18.0146,252.0246 Q18.3932,252.0246 18.7493,251.8627 Q19.1054,251.7009 19.4839,251.3522 Z "/><text fill="#000000" font-family="sans-serif" font-size="7.2" lengthAdjust="spacingAndGlyphs" textLength="37.2" x="27.6" y="252.0211">Plataforma</text><line style="stroke: #A80036; stroke-width: 0.8999999999999999;" x1="4.2" x2="71.4" y1="258.9" y2="258.9"/><text fill="#000000" font-family="sans-serif" font-size="6.6" lengthAdjust="spacingAndGlyphs" textLength="61.2" x="7.2" y="267.6809">-String designacao</text><!--MD5=[807977ceb130c090ed5febfb6de2bdea]
class Organizacao--><rect fill="#FEFECE" filter="url(#fru2hjwbmlavp)" height="62.8652" id="Organizacao" style="stroke: #A80036; stroke-width: 0.8999999999999999;" width="62.4" x="281.4" y="5.1"/><ellipse cx="290.4" cy="14.7" fill="#ADD1B2" rx="6.6" ry="6.6" style="stroke: #A80036; stroke-width: 0.6;"/><path d="M291.8839,18.3858 Q291.5353,18.5651 291.1518,18.6548 Q290.7683,18.7444 290.3449,18.7444 Q288.8408,18.7444 288.0489,17.7533 Q287.257,16.7622 287.257,14.8896 Q287.257,13.0119 288.0489,12.0208 Q288.8408,11.0297 290.3449,11.0297 Q290.7683,11.0297 291.1567,11.1193 Q291.5452,11.209 291.8839,11.3883 L291.8839,13.0219 Q291.5054,12.6732 291.1493,12.5114 Q290.7932,12.3495 290.4146,12.3495 Q289.6078,12.3495 289.1969,12.9895 Q288.786,13.6295 288.786,14.8896 Q288.786,16.1446 289.1969,16.7846 Q289.6078,17.4246 290.4146,17.4246 Q290.7932,17.4246 291.1493,17.2627 Q291.5054,17.1009 291.8839,16.7522 Z "/><text fill="#000000" font-family="sans-serif" font-size="7.2" lengthAdjust="spacingAndGlyphs" textLength="43.2" x="298.8" y="17.4211">Organizacao</text><line style="stroke: #A80036; stroke-width: 0.8999999999999999;" x1="282" x2="343.2" y1="24.3" y2="24.3"/><text fill="#000000" font-family="sans-serif" font-size="6.6" lengthAdjust="spacingAndGlyphs" textLength="42.6" x="285" y="33.0809">-String nome</text><text fill="#000000" font-family="sans-serif" font-size="6.6" lengthAdjust="spacingAndGlyphs" textLength="34.8" x="285" y="40.8539">-String NIF</text><text fill="#000000" font-family="sans-serif" font-size="6.6" lengthAdjust="spacingAndGlyphs" textLength="48.6" x="285" y="48.627">-String website</text><text fill="#000000" font-family="sans-serif" font-size="6.6" lengthAdjust="spacingAndGlyphs" textLength="50.4" x="285" y="56.4">-String telefone</text><text fill="#000000" font-family="sans-serif" font-size="6.6" lengthAdjust="spacingAndGlyphs" textLength="41.4" x="285" y="64.173">-String email</text><!--MD5=[ac8682ea5466d223e49472789fb200d2]
class Colaborador--><rect fill="#FEFECE" filter="url(#fru2hjwbmlavp)" height="55.0922" id="Colaborador" style="stroke: #A80036; stroke-width: 0.8999999999999999;" width="62.4" x="610.2" y="57.6"/><ellipse cx="619.2" cy="67.2" fill="#ADD1B2" rx="6.6" ry="6.6" style="stroke: #A80036; stroke-width: 0.6;"/><path d="M620.6839,70.8858 Q620.3353,71.0651 619.9518,71.1548 Q619.5683,71.2444 619.1449,71.2444 Q617.6408,71.2444 616.8489,70.2533 Q616.057,69.2622 616.057,67.3896 Q616.057,65.5119 616.8489,64.5208 Q617.6408,63.5297 619.1449,63.5297 Q619.5683,63.5297 619.9567,63.6193 Q620.3452,63.709 620.6839,63.8883 L620.6839,65.5219 Q620.3054,65.1732 619.9493,65.0114 Q619.5932,64.8495 619.2146,64.8495 Q618.4078,64.8495 617.9969,65.4895 Q617.586,66.1295 617.586,67.3896 Q617.586,68.6446 617.9969,69.2846 Q618.4078,69.9246 619.2146,69.9246 Q619.5932,69.9246 619.9493,69.7627 Q620.3054,69.6009 620.6839,69.2522 Z "/><text fill="#000000" font-family="sans-serif" font-size="7.2" lengthAdjust="spacingAndGlyphs" textLength="43.2" x="627.6" y="69.9211">Colaborador</text><line style="stroke: #A80036; stroke-width: 0.8999999999999999;" x1="610.8" x2="672" y1="76.8" y2="76.8"/><text fill="#000000" font-family="sans-serif" font-size="6.6" lengthAdjust="spacingAndGlyphs" textLength="42.6" x="613.8" y="85.5809">-String nome</text><text fill="#000000" font-family="sans-serif" font-size="6.6" lengthAdjust="spacingAndGlyphs" textLength="46.8" x="613.8" y="93.3539">-String funcao</text><text fill="#000000" font-family="sans-serif" font-size="6.6" lengthAdjust="spacingAndGlyphs" textLength="50.4" x="613.8" y="101.127">-String telefone</text><text fill="#000000" font-family="sans-serif" font-size="6.6" lengthAdjust="spacingAndGlyphs" textLength="41.4" x="613.8" y="108.9">-String email</text><!--MD5=[d0e9f237fb3c72e1245c36c562ad52c4]
class TipoRegimento--><rect fill="#FEFECE" filter="url(#fru2hjwbmlavp)" height="39.5461" id="TipoRegimento" style="stroke: #A80036; stroke-width: 0.8999999999999999;" width="85.2" x="598.8" y="243.6"/><ellipse cx="614.01" cy="253.2" fill="#ADD1B2" rx="6.6" ry="6.6" style="stroke: #A80036; stroke-width: 0.6;"/><path d="M615.4939,256.8858 Q615.1453,257.0651 614.7618,257.1548 Q614.3783,257.2444 613.9549,257.2444 Q612.4508,257.2444 611.6589,256.2533 Q610.867,255.2622 610.867,253.3896 Q610.867,251.5119 611.6589,250.5208 Q612.4508,249.5297 613.9549,249.5297 Q614.3783,249.5297 614.7667,249.6193 Q615.1552,249.709 615.4939,249.8883 L615.4939,251.5219 Q615.1154,251.1732 614.7593,251.0114 Q614.4032,250.8495 614.0246,250.8495 Q613.2178,250.8495 612.8069,251.4895 Q612.396,252.1295 612.396,253.3896 Q612.396,254.6446 612.8069,255.2846 Q613.2178,255.9246 614.0246,255.9246 Q614.4032,255.9246 614.7593,255.7627 Q615.1154,255.6009 615.4939,255.2522 Z "/><text fill="#000000" font-family="sans-serif" font-size="7.2" lengthAdjust="spacingAndGlyphs" textLength="52.2" x="623.79" y="255.9211">TipoRegimento</text><line style="stroke: #A80036; stroke-width: 0.8999999999999999;" x1="599.4" x2="683.4" y1="262.8" y2="262.8"/><text fill="#000000" font-family="sans-serif" font-size="6.6" lengthAdjust="spacingAndGlyphs" textLength="61.2" x="602.4" y="271.5809">-String designacao</text><text fill="#000000" font-family="sans-serif" font-size="6.6" lengthAdjust="spacingAndGlyphs" textLength="78" x="602.4" y="279.3539">-String descricaoRegras</text><!--MD5=[1f687b5315377fe49fca59b457947463]
class Freelancer--><rect fill="#FEFECE" filter="url(#fru2hjwbmlavp)" height="55.0922" id="Freelancer" style="stroke: #A80036; stroke-width: 0.8999999999999999;" width="57.6" x="949.2" y="300.6"/><ellipse cx="959.28" cy="310.2" fill="#ADD1B2" rx="6.6" ry="6.6" style="stroke: #A80036; stroke-width: 0.6;"/><path d="M960.7639,313.8858 Q960.4153,314.0651 960.0318,314.1548 Q959.6483,314.2444 959.2249,314.2444 Q957.7208,314.2444 956.9289,313.2533 Q956.137,312.2622 956.137,310.3896 Q956.137,308.5119 956.9289,307.5208 Q957.7208,306.5297 959.2249,306.5297 Q959.6483,306.5297 960.0367,306.6193 Q960.4252,306.709 960.7639,306.8883 L960.7639,308.5219 Q960.3854,308.1732 960.0293,308.0114 Q959.6732,307.8495 959.2946,307.8495 Q958.4878,307.8495 958.0769,308.4895 Q957.666,309.1295 957.666,310.3896 Q957.666,311.6446 958.0769,312.2846 Q958.4878,312.9246 959.2946,312.9246 Q959.6732,312.9246 960.0293,312.7627 Q960.3854,312.6009 960.7639,312.2522 Z "/><text fill="#000000" font-family="sans-serif" font-size="7.2" lengthAdjust="spacingAndGlyphs" textLength="36" x="967.92" y="312.9211">Freelancer</text><line style="stroke: #A80036; stroke-width: 0.8999999999999999;" x1="949.8" x2="1006.2" y1="319.8" y2="319.8"/><text fill="#000000" font-family="sans-serif" font-size="6.6" lengthAdjust="spacingAndGlyphs" textLength="42.6" x="952.8" y="328.5809">-String nome</text><text fill="#000000" font-family="sans-serif" font-size="6.6" lengthAdjust="spacingAndGlyphs" textLength="34.8" x="952.8" y="336.3539">-String NIF</text><text fill="#000000" font-family="sans-serif" font-size="6.6" lengthAdjust="spacingAndGlyphs" textLength="50.4" x="952.8" y="344.127">-String telefone</text><text fill="#000000" font-family="sans-serif" font-size="6.6" lengthAdjust="spacingAndGlyphs" textLength="41.4" x="952.8" y="351.9">-String email</text><!--MD5=[19db0db7353a4bf63eefc676e5ba9b80]
class Anuncio--><rect fill="#FEFECE" filter="url(#fru2hjwbmlavp)" height="70.6383" id="Anuncio" style="stroke: #A80036; stroke-width: 0.8999999999999999;" width="90.6" x="172.8" y="172.8"/><ellipse cx="202.05" cy="182.4" fill="#ADD1B2" rx="6.6" ry="6.6" style="stroke: #A80036; stroke-width: 0.6;"/><path d="M203.5339,186.0858 Q203.1853,186.2651 202.8018,186.3548 Q202.4183,186.4444 201.9949,186.4444 Q200.4908,186.4444 199.6989,185.4533 Q198.907,184.4622 198.907,182.5896 Q198.907,180.7119 199.6989,179.7208 Q200.4908,178.7297 201.9949,178.7297 Q202.4183,178.7297 202.8067,178.8193 Q203.1952,178.909 203.5339,179.0883 L203.5339,180.7219 Q203.1554,180.3732 202.7993,180.2114 Q202.4432,180.0495 202.0646,180.0495 Q201.2578,180.0495 200.8469,180.6895 Q200.436,181.3295 200.436,182.5896 Q200.436,183.8446 200.8469,184.4846 Q201.2578,185.1246 202.0646,185.1246 Q202.4432,185.1246 202.7993,184.9627 Q203.1554,184.8009 203.5339,184.4522 Z "/><text fill="#000000" font-family="sans-serif" font-size="7.2" lengthAdjust="spacingAndGlyphs" textLength="27" x="214.35" y="185.1211">Anuncio</text><line style="stroke: #A80036; stroke-width: 0.8999999999999999;" x1="173.4" x2="262.8" y1="192" y2="192"/><text fill="#000000" font-family="sans-serif" font-size="6.6" lengthAdjust="spacingAndGlyphs" textLength="82.2" x="176.4" y="200.7809">-Date dtInicioPublicitacao</text><text fill="#000000" font-family="sans-serif" font-size="6.6" lengthAdjust="spacingAndGlyphs" textLength="76.2" x="176.4" y="208.5539">-Date dtFimPublicitacao</text><text fill="#000000" font-family="sans-serif" font-size="6.6" lengthAdjust="spacingAndGlyphs" textLength="83.4" x="176.4" y="216.327">-Date dtInicioCandidatura</text><text fill="#000000" font-family="sans-serif" font-size="6.6" lengthAdjust="spacingAndGlyphs" textLength="77.4" x="176.4" y="224.1">-Date dtFimCandidatura</text><text fill="#000000" font-family="sans-serif" font-size="6.6" lengthAdjust="spacingAndGlyphs" textLength="70.8" x="176.4" y="231.873">-Date dtInicioSeriacao</text><text fill="#000000" font-family="sans-serif" font-size="6.6" lengthAdjust="spacingAndGlyphs" textLength="64.8" x="176.4" y="239.6461">-Date dtFimSeriacao</text><!--MD5=[475c5b924ed41035684e2831311827d2]
class Candidatura--><rect fill="#FEFECE" filter="url(#fru2hjwbmlavp)" height="62.8652" id="Candidatura" style="stroke: #A80036; stroke-width: 0.8999999999999999;" width="86.4" x="769.2" y="180.3"/><ellipse cx="789.27" cy="189.9" fill="#ADD1B2" rx="6.6" ry="6.6" style="stroke: #A80036; stroke-width: 0.6;"/><path d="M790.7539,193.5858 Q790.4053,193.7651 790.0218,193.8548 Q789.6383,193.9444 789.2149,193.9444 Q787.7108,193.9444 786.9189,192.9533 Q786.127,191.9622 786.127,190.0896 Q786.127,188.2119 786.9189,187.2208 Q787.7108,186.2297 789.2149,186.2297 Q789.6383,186.2297 790.0267,186.3193 Q790.4152,186.409 790.7539,186.5883 L790.7539,188.2219 Q790.3754,187.8732 790.0193,187.7114 Q789.6632,187.5495 789.2846,187.5495 Q788.4778,187.5495 788.0669,188.1895 Q787.656,188.8295 787.656,190.0896 Q787.656,191.3446 788.0669,191.9846 Q788.4778,192.6246 789.2846,192.6246 Q789.6632,192.6246 790.0193,192.4627 Q790.3754,192.3009 790.7539,191.9522 Z "/><text fill="#000000" font-family="sans-serif" font-size="7.2" lengthAdjust="spacingAndGlyphs" textLength="42.6" x="800.13" y="192.6211">Candidatura</text><line style="stroke: #A80036; stroke-width: 0.8999999999999999;" x1="769.8" x2="855" y1="199.5" y2="199.5"/><text fill="#000000" font-family="sans-serif" font-size="6.6" lengthAdjust="spacingAndGlyphs" textLength="73.2" x="772.8" y="208.2809">-Date dataCandidatura</text><text fill="#000000" font-family="sans-serif" font-size="6.6" lengthAdjust="spacingAndGlyphs" textLength="79.2" x="772.8" y="216.0539">-Double valorPretendido</text><text fill="#000000" font-family="sans-serif" font-size="6.6" lengthAdjust="spacingAndGlyphs" textLength="49.2" x="772.8" y="223.827">-Integer nrDias</text><text fill="#000000" font-family="sans-serif" font-size="6.6" lengthAdjust="spacingAndGlyphs" textLength="78" x="772.8" y="231.6">-String txtApresentacao</text><text fill="#000000" font-family="sans-serif" font-size="6.6" lengthAdjust="spacingAndGlyphs" textLength="66" x="772.8" y="239.373">-String txtMotivacao</text><!--MD5=[716bba0e94eea125d5a66a891f2c3c34]
class Classificacao--><rect fill="#FEFECE" filter="url(#fru2hjwbmlavp)" height="31.773" id="Classificacao" style="stroke: #A80036; stroke-width: 0.8999999999999999;" width="63" x="609.9" y="140.7"/><ellipse cx="618.9" cy="150.3" fill="#ADD1B2" rx="6.6" ry="6.6" style="stroke: #A80036; stroke-width: 0.6;"/><path d="M620.3839,153.9858 Q620.0353,154.1651 619.6518,154.2548 Q619.2683,154.3444 618.8449,154.3444 Q617.3408,154.3444 616.5489,153.3533 Q615.757,152.3622 615.757,150.4896 Q615.757,148.6119 616.5489,147.6208 Q617.3408,146.6297 618.8449,146.6297 Q619.2683,146.6297 619.6567,146.7193 Q620.0452,146.809 620.3839,146.9883 L620.3839,148.6219 Q620.0054,148.2732 619.6493,148.1114 Q619.2932,147.9495 618.9146,147.9495 Q618.1078,147.9495 617.6969,148.5895 Q617.286,149.2295 617.286,150.4896 Q617.286,151.7446 617.6969,152.3846 Q618.1078,153.0246 618.9146,153.0246 Q619.2932,153.0246 619.6493,152.8627 Q620.0054,152.7009 620.3839,152.3522 Z "/><text fill="#000000" font-family="sans-serif" font-size="7.2" lengthAdjust="spacingAndGlyphs" textLength="43.8" x="627.3" y="153.0211">Classificacao</text><line style="stroke: #A80036; stroke-width: 0.8999999999999999;" x1="610.5" x2="672.3" y1="159.9" y2="159.9"/><text fill="#000000" font-family="sans-serif" font-size="6.6" lengthAdjust="spacingAndGlyphs" textLength="45" x="613.5" y="168.6809">-Integer lugar</text><!--MD5=[aca0f236260d30190baee83e33cc7802]
class ProcessoSeriacao--><rect fill="#FEFECE" filter="url(#fru2hjwbmlavp)" height="31.773" id="ProcessoSeriacao" style="stroke: #A80036; stroke-width: 0.8999999999999999;" width="78.6" x="361.8" y="135.9"/><ellipse cx="370.8" cy="145.5" fill="#ADD1B2" rx="6.6" ry="6.6" style="stroke: #A80036; stroke-width: 0.6;"/><path d="M372.2839,149.1858 Q371.9353,149.3651 371.5518,149.4548 Q371.1683,149.5444 370.7449,149.5444 Q369.2408,149.5444 368.4489,148.5533 Q367.657,147.5622 367.657,145.6896 Q367.657,143.8119 368.4489,142.8208 Q369.2408,141.8297 370.7449,141.8297 Q371.1683,141.8297 371.5567,141.9193 Q371.9452,142.009 372.2839,142.1883 L372.2839,143.8219 Q371.9054,143.4732 371.5493,143.3114 Q371.1932,143.1495 370.8146,143.1495 Q370.0078,143.1495 369.5969,143.7895 Q369.186,144.4295 369.186,145.6896 Q369.186,146.9446 369.5969,147.5846 Q370.0078,148.2246 370.8146,148.2246 Q371.1932,148.2246 371.5493,148.0627 Q371.9054,147.9009 372.2839,147.5522 Z "/><text fill="#000000" font-family="sans-serif" font-size="7.2" lengthAdjust="spacingAndGlyphs" textLength="59.4" x="379.2" y="148.2211">ProcessoSeriacao</text><line style="stroke: #A80036; stroke-width: 0.8999999999999999;" x1="362.4" x2="439.8" y1="155.1" y2="155.1"/><text fill="#000000" font-family="sans-serif" font-size="6.6" lengthAdjust="spacingAndGlyphs" textLength="67.2" x="365.4" y="163.8809">-Date dataRealizacao</text><!--MD5=[1c2ad462e362697fcdc859a6327d55c7]
link Plataforma to Organizacao--><path d="M55.572,239.688 C65.49,230.634 78.282,219.192 90,209.4 C156.726,153.672 237.99,91.896 281.316,59.43 " fill="none" id="Plataforma-Organizacao" style="stroke: #A80036; stroke-width: 0.6;"/><text fill="#000000" font-family="sans-serif" font-size="7.8" lengthAdjust="spacingAndGlyphs" textLength="55.8" x="90.6" y="155.141">tem registadas</text><polygon fill="#000000" points="148.2,151.2932,151.8,153.0932,148.2,154.8932,148.2,151.2932" style="stroke: #000000; stroke-width: 0.6;"/><text fill="#000000" font-family="sans-serif" font-size="7.8" lengthAdjust="spacingAndGlyphs" textLength="4.8" x="54.5189" y="233.2796">1</text><text fill="#000000" font-family="sans-serif" font-size="7.8" lengthAdjust="spacingAndGlyphs" textLength="3.6" x="273.0636" y="70.8369">*</text><!--MD5=[956ecced288de5de0c5f024757c210bf]
link Plataforma to TipoRegimento--><path d="M72.15,256.506 C143.466,258.366 314.73,262.566 458.4,264 C512.796,264.546 526.398,264.27 580.8,264 C586.584,263.97 592.674,263.928 598.674,263.874 " fill="none" id="Plataforma-TipoRegimento" style="stroke: #A80036; stroke-width: 0.6;"/><text fill="#000000" font-family="sans-serif" font-size="7.8" lengthAdjust="spacingAndGlyphs" textLength="28.8" x="294.3" y="258.941">suporta</text><polygon fill="#000000" points="324.9,255.0932,328.5,256.8932,324.9,258.6932,324.9,255.0932" style="stroke: #000000; stroke-width: 0.6;"/><text fill="#000000" font-family="sans-serif" font-size="7.8" lengthAdjust="spacingAndGlyphs" textLength="4.8" x="76.8586" y="264.7533">1</text><text fill="#000000" font-family="sans-serif" font-size="7.8" lengthAdjust="spacingAndGlyphs" textLength="3.6" x="590.4823" y="271.9403">*</text><!--MD5=[3d9e8e0d764359bffb897b36dc4b633a]
link Plataforma to Anuncio--><path d="M72.09,246.684 C100.56,239.148 141.582,228.294 172.8,220.032 " fill="none" id="Plataforma-Anuncio" style="stroke: #A80036; stroke-width: 0.6;"/><text fill="#000000" font-family="sans-serif" font-size="7.8" lengthAdjust="spacingAndGlyphs" textLength="33" x="102" y="222.341">publicita</text><polygon fill="#000000" points="136.8,218.4932,140.4,220.2932,136.8,222.0932,136.8,218.4932" style="stroke: #000000; stroke-width: 0.6;"/><text fill="#000000" font-family="sans-serif" font-size="7.8" lengthAdjust="spacingAndGlyphs" textLength="4.8" x="76.7909" y="253.6729">1</text><text fill="#000000" font-family="sans-serif" font-size="7.8" lengthAdjust="spacingAndGlyphs" textLength="3.6" x="164.3428" y="229.2752">*</text><!--MD5=[39c0de7668d8063a4eb96c23050b3de2]
link Plataforma to Freelancer--><path d="M56.238,271.692 C86.856,297.576 152.424,345.6 217.5,345.6 C217.5,345.6 217.5,345.6 813,345.6 C860.928,345.6 916.29,338.196 948.984,333.048 " fill="none" id="Plataforma-Freelancer" style="stroke: #A80036; stroke-width: 0.6;"/><text fill="#000000" font-family="sans-serif" font-size="7.8" lengthAdjust="spacingAndGlyphs" textLength="31.8" x="499.8" y="343.541">tem/usa</text><polygon fill="#000000" points="533.4,339.6932,537,341.4932,533.4,343.2932,533.4,339.6932" style="stroke: #000000; stroke-width: 0.6;"/><text fill="#000000" font-family="sans-serif" font-size="7.8" lengthAdjust="spacingAndGlyphs" textLength="4.8" x="54.9463" y="283.7608">1</text><text fill="#000000" font-family="sans-serif" font-size="7.8" lengthAdjust="spacingAndGlyphs" textLength="3.6" x="940.8579" y="341.9836">*</text><!--MD5=[567db691f9836c63f305bad1024cbc66]
link Organizacao to Colaborador--><path d="M343.902,39.06 C393.864,43.362 495.738,53.37 580.8,69.6 C590.418,71.436 600.786,73.938 610.146,76.398 " fill="none" id="Organizacao-Colaborador" style="stroke: #A80036; stroke-width: 0.6;"/><text fill="#000000" font-family="sans-serif" font-size="7.8" lengthAdjust="spacingAndGlyphs" textLength="14.4" x="390" y="38.741">tem</text><polygon fill="#000000" points="406.2,34.8932,409.8,36.6932,406.2,38.4932,406.2,34.8932" style="stroke: #000000; stroke-width: 0.6;"/><text fill="#000000" font-family="sans-serif" font-size="7.8" lengthAdjust="spacingAndGlyphs" textLength="4.8" x="348.6413" y="47.6023">1</text><text fill="#000000" font-family="sans-serif" font-size="7.8" lengthAdjust="spacingAndGlyphs" textLength="13.2" x="592.096" y="73.2535">1..*</text><!--MD5=[3fb03004f687adcfc695220fdd65ad26]
link Anuncio to TipoRegimento--><path d="M263.424,220.008 C269.442,221.394 275.556,222.708 281.4,223.8 C395.088,245.076 531.3,256.242 598.722,260.826 " fill="none" id="Anuncio-TipoRegimento" style="stroke: #A80036; stroke-width: 0.6;"/><text fill="#000000" font-family="sans-serif" font-size="7.8" lengthAdjust="spacingAndGlyphs" textLength="44.4" x="375" y="234.341">rege-se por</text><polygon fill="#000000" points="421.2,230.4932,424.8,232.2932,421.2,234.0932,421.2,230.4932" style="stroke: #000000; stroke-width: 0.6;"/><text fill="#000000" font-family="sans-serif" font-size="7.8" lengthAdjust="spacingAndGlyphs" textLength="3.6" x="268.2837" y="229.2487">*</text><text fill="#000000" font-family="sans-serif" font-size="7.8" lengthAdjust="spacingAndGlyphs" textLength="4.8" x="589.2733" y="258.6499">1</text><!--MD5=[0a535575571876f6213287bf563a867d]
link Anuncio to Colaborador--><path d="M256.614,172.764 C264.456,166.47 272.922,160.35 281.4,155.4 C389.826,92.088 544.866,84.684 610.062,84.606 " fill="none" id="Anuncio-Colaborador" style="stroke: #A80036; stroke-width: 0.6;"/><text fill="#000000" font-family="sans-serif" font-size="7.8" lengthAdjust="spacingAndGlyphs" textLength="52.2" x="371.1" y="98.741">publicado por</text><polygon fill="#000000" points="425.1,94.8932,428.7,96.6932,425.1,98.4932,425.1,94.8932" style="stroke: #000000; stroke-width: 0.6;"/><text fill="#000000" font-family="sans-serif" font-size="7.8" lengthAdjust="spacingAndGlyphs" textLength="3.6" x="257.4885" y="166.459">*</text><text fill="#000000" font-family="sans-serif" font-size="7.8" lengthAdjust="spacingAndGlyphs" textLength="4.8" x="600.5176" y="92.717">1</text><!--MD5=[27b52c98fcb5387c047ce09b42fcb62d]
link Anuncio to Candidatura--><path d="M263.532,210.096 C311.676,212.028 390.438,214.896 458.4,216 C512.79,216.882 526.404,216.492 580.8,216 C646.476,215.4 722.646,213.852 769.014,212.808 " fill="none" id="Anuncio-Candidatura" style="stroke: #A80036; stroke-width: 0.6;"/><text fill="#000000" font-family="sans-serif" font-size="7.8" lengthAdjust="spacingAndGlyphs" textLength="24.6" x="503.4" y="213.941">recebe</text><polygon fill="#000000" points="529.8,210.0932,533.4,211.8932,529.8,213.6932,529.8,210.0932" style="stroke: #000000; stroke-width: 0.6;"/><text fill="#000000" font-family="sans-serif" font-size="7.8" lengthAdjust="spacingAndGlyphs" textLength="4.8" x="268.2405" y="218.2838">1</text><text fill="#000000" font-family="sans-serif" font-size="7.8" lengthAdjust="spacingAndGlyphs" textLength="3.6" x="760.7542" y="220.9336">*</text><!--MD5=[02d330b3691aaed85c2b7230cc23c1df]
link Anuncio to ProcessoSeriacao--><path d="M263.406,194.328 C293.526,184.986 332.868,172.782 361.674,163.848 " fill="none" id="Anuncio-ProcessoSeriacao" style="stroke: #A80036; stroke-width: 0.6;"/><text fill="#000000" font-family="sans-serif" font-size="7.8" lengthAdjust="spacingAndGlyphs" textLength="31.8" x="292.8" y="168.341">espoleta</text><polygon fill="#000000" points="326.4,164.4932,330,166.2932,326.4,168.0932,326.4,164.4932" style="stroke: #000000; stroke-width: 0.6;"/><text fill="#000000" font-family="sans-serif" font-size="7.8" lengthAdjust="spacingAndGlyphs" textLength="4.8" x="268.3257" y="200.9205">1</text><text fill="#000000" font-family="sans-serif" font-size="7.8" lengthAdjust="spacingAndGlyphs" textLength="14.4" x="342.4657" y="173.1065">0..1</text><!--MD5=[a66e767a4304f5fa76db98d7839a7a61]
link Candidatura to Freelancer--><path d="M855.768,242.076 C885.162,262.896 923.382,289.95 949.062,308.136 " fill="none" id="Candidatura-Freelancer" style="stroke: #A80036; stroke-width: 0.6;"/><text fill="#000000" font-family="sans-serif" font-size="7.8" lengthAdjust="spacingAndGlyphs" textLength="48.6" x="874.2" y="253.541">realizada por</text><polygon fill="#000000" points="924.6,249.6932,928.2,251.4932,924.6,253.2932,924.6,249.6932" style="stroke: #000000; stroke-width: 0.6;"/><text fill="#000000" font-family="sans-serif" font-size="7.8" lengthAdjust="spacingAndGlyphs" textLength="3.6" x="860.426" y="253.2198">*</text><text fill="#000000" font-family="sans-serif" font-size="7.8" lengthAdjust="spacingAndGlyphs" textLength="4.8" x="939.6592" y="313.4127">1</text><!--MD5=[577fefe1351fe0f89ea5388d9641a019]
link ProcessoSeriacao to TipoRegimento--><path d="M440.472,164.928 C446.454,166.836 452.58,168.72 458.4,170.4 C512.274,185.952 532.278,172.896 580.8,201 C599.136,211.62 615.474,229.47 626.454,243.366 " fill="none" id="ProcessoSeriacao-TipoRegimento" style="stroke: #A80036; stroke-width: 0.6;"/><text fill="#000000" font-family="sans-serif" font-size="7.8" lengthAdjust="spacingAndGlyphs" textLength="113.4" x="459" y="168.341">decorre em concordância com</text><polygon fill="#000000" points="574.2,164.4932,577.8,166.2932,574.2,168.0932,574.2,164.4932" style="stroke: #000000; stroke-width: 0.6;"/><text fill="#000000" font-family="sans-serif" font-size="7.8" lengthAdjust="spacingAndGlyphs" textLength="3.6" x="445.2325" y="174.5196">*</text><text fill="#000000" font-family="sans-serif" font-size="7.8" lengthAdjust="spacingAndGlyphs" textLength="4.8" x="618.239" y="237.1005">1</text><!--MD5=[d8cba5363504d1c2665cc78c5e9b9c32]
link ProcessoSeriacao to Colaborador--><path d="M440.406,142.26 C446.424,140.814 452.58,139.35 458.4,138 C512.67,125.412 527.772,128.082 580.8,111 C590.514,107.874 600.816,103.752 610.086,99.732 " fill="none" id="ProcessoSeriacao-Colaborador" style="stroke: #A80036; stroke-width: 0.6;"/><text fill="#000000" font-family="sans-serif" font-size="7.8" lengthAdjust="spacingAndGlyphs" textLength="49.2" x="491.1" y="108.941">realizado por</text><polygon fill="#000000" points="542.1,105.0932,545.7,106.8932,542.1,108.6932,542.1,105.0932" style="stroke: #000000; stroke-width: 0.6;"/><text fill="#000000" font-family="sans-serif" font-size="7.8" lengthAdjust="spacingAndGlyphs" textLength="4.8" x="445.2283" y="149.2306">1</text><text fill="#000000" font-family="sans-serif" font-size="7.8" lengthAdjust="spacingAndGlyphs" textLength="13.2" x="592.2652" y="109.6105">1..*</text><!--MD5=[52bd50d7906bad09d4dfcc260d1229dc]
link ProcessoSeriacao to Classificacao--><path d="M440.646,152.58 C487.89,153.528 566.562,155.112 609.864,155.976 " fill="none" id="ProcessoSeriacao-Classificacao" style="stroke: #A80036; stroke-width: 0.6;"/><text fill="#000000" font-family="sans-serif" font-size="7.8" lengthAdjust="spacingAndGlyphs" textLength="25.8" x="502.8" y="150.941">resulta</text><polygon fill="#000000" points="530.4,147.0932,534,148.8932,530.4,150.6932,530.4,147.0932" style="stroke: #000000; stroke-width: 0.6;"/><text fill="#000000" font-family="sans-serif" font-size="7.8" lengthAdjust="spacingAndGlyphs" textLength="4.8" x="445.2338" y="160.7102">1</text><text fill="#000000" font-family="sans-serif" font-size="7.8" lengthAdjust="spacingAndGlyphs" textLength="3.6" x="601.5761" y="164.0771">*</text><!--MD5=[471b8c6ff5fcf31b4b6fb9b4f947344d]
link Classificacao to Candidatura--><path d="M672.948,166.662 C699.876,175.416 739.164,188.19 769.086,197.916 " fill="none" id="Classificacao-Candidatura" style="stroke: #A80036; stroke-width: 0.6;"/><text fill="#000000" font-family="sans-serif" font-size="7.8" lengthAdjust="spacingAndGlyphs" textLength="40.2" x="702.6" y="175.541">referente a</text><polygon fill="#000000" points="744.6,171.6932,748.2,173.4932,744.6,175.2932,744.6,171.6932" style="stroke: #000000; stroke-width: 0.6;"/><text fill="#000000" font-family="sans-serif" font-size="7.8" lengthAdjust="spacingAndGlyphs" textLength="14.4" x="677.6704" y="175.9908">0..1</text><text fill="#000000" font-family="sans-serif" font-size="7.8" lengthAdjust="spacingAndGlyphs" textLength="4.8" x="759.5717" y="204.5058">1</text><!--MD5=[d22d6eaaf9591edb2364be0b5b08af24]
@startuml

skinparam classAttributeIconSize 0
hide methods
left to right direction

class Plataforma {
  -String designacao
}

class Organizacao {
  -String nome
  -String NIF
  -String website
  -String telefone
  -String email
}

class Colaborador {
  -String nome
  -String funcao
  -String telefone
  -String email
}

class TipoRegimento
{
    -String designacao
    -String descricaoRegras
}


class Freelancer {
    -String nome
    -String NIF
    -String telefone
    -String email
}

class Anuncio
{
    -Date dtInicioPublicitacao
    -Date dtFimPublicitacao
    -Date dtInicioCandidatura
    -Date dtFimCandidatura
    -Date dtInicioSeriacao
    -Date dtFimSeriacao
}

class Candidatura
{
    -Date dataCandidatura
    -Double valorPretendido
    -Integer nrDias
    -String txtApresentacao
    -String txtMotivacao
}

class Classificacao
{
    -Integer lugar
}

class ProcessoSeriacao
{
    -Date dataRealizacao
}


Plataforma "1" - - "*" Organizacao : tem registadas >
Plataforma "1" - - "*" TipoRegimento : suporta >
Plataforma "1" - - "*" Anuncio : publicita >
Plataforma "1" - - "*" Freelancer : tem/usa  >

Organizacao "1" - - "1..*" Colaborador: tem >

Anuncio "*" - - "1" TipoRegimento: rege-se por >
Anuncio "*" - - "1" Colaborador: publicado por >
Anuncio "1" - - "*" Candidatura: recebe >
Anuncio "1" - - "0..1" ProcessoSeriacao: espoleta >

Candidatura "*" - - "1"  Freelancer: realizada por >

ProcessoSeriacao "*" - - "1" TipoRegimento: decorre em concordância com >
ProcessoSeriacao "1" - - "1..*" Colaborador: realizado por >
ProcessoSeriacao "1" - - "*" Classificacao: resulta >

Classificacao "0..1" - - "1" Candidatura: referente a >


@enduml

PlantUML version 1.2020.07(Sun Apr 19 12:42:40 WEST 2020)
(GPL source distribution)
Java Runtime: OpenJDK Runtime Environment
JVM: OpenJDK 64-Bit Server VM
Java Version: 11.0.6+8-b765.25
Operating System: Mac OS X
Default Encoding: UTF-8
Language: en
Country: PT
--></g></svg>