<?xml version="1.0" encoding="UTF-8" standalone="no"?><svg xmlns="http://www.w3.org/2000/svg" xmlns:xlink="http://www.w3.org/1999/xlink" contentScriptType="application/ecmascript" contentStyleType="text/css" height="699.6px" preserveAspectRatio="none" style="width:585px;height:699px;" version="1.1" viewBox="0 0 585 699" width="585.6px" zoomAndPan="magnify"><defs><filter height="300%" id="f1f4gjab1ktqyi" width="300%" x="-1" y="-1"><feGaussianBlur result="blurOut" stdDeviation="1.2"/><feColorMatrix in="blurOut" result="blurOut2" type="matrix" values="0 0 0 0 0 0 0 0 0 0 0 0 0 0 0 0 0 0 .4 0"/><feOffset dx="2.4" dy="2.4" in="blurOut2" result="blurOut3"/><feBlend in="SourceGraphic" in2="blurOut3" mode="normal"/></filter></defs><g><!--MD5=[380d12a68ed0046a60f31008a02875d0]
class AplicacaoPOT--><rect fill="#FEFECE" filter="url(#f1f4gjab1ktqyi)" height="44.3461" id="AplicacaoPOT" style="stroke: #A80036; stroke-width: 0.8999999999999999;" width="73.8" x="408.3" y="162.9"/><ellipse cx="420.54" cy="172.5" fill="#ADD1B2" rx="6.6" ry="6.6" style="stroke: #A80036; stroke-width: 0.6;"/><path d="M422.0239,176.1858 Q421.6753,176.3651 421.2918,176.4548 Q420.9083,176.5444 420.4849,176.5444 Q418.9808,176.5444 418.1889,175.5533 Q417.397,174.5622 417.397,172.6896 Q417.397,170.8119 418.1889,169.8208 Q418.9808,168.8297 420.4849,168.8297 Q420.9083,168.8297 421.2967,168.9193 Q421.6852,169.009 422.0239,169.1883 L422.0239,170.8219 Q421.6454,170.4732 421.2893,170.3114 Q420.9332,170.1495 420.5546,170.1495 Q419.7478,170.1495 419.3369,170.7895 Q418.926,171.4295 418.926,172.6896 Q418.926,173.9446 419.3369,174.5846 Q419.7478,175.2246 420.5546,175.2246 Q420.9332,175.2246 421.2893,175.0627 Q421.6454,174.9009 422.0239,174.5522 Z "/><text fill="#000000" font-family="sans-serif" font-size="7.2" lengthAdjust="spacingAndGlyphs" textLength="47.4" x="429.66" y="175.2211">AplicacaoPOT</text><line style="stroke: #A80036; stroke-width: 0.8999999999999999;" x1="408.9" x2="481.5" y1="182.1" y2="182.1"/><line style="stroke: #A80036; stroke-width: 0.8999999999999999;" x1="408.9" x2="481.5" y1="186.9" y2="186.9"/><text fill="#000000" font-family="sans-serif" font-size="6.6" lengthAdjust="spacingAndGlyphs" textLength="66.6" x="411.9" y="195.6809">+static getInstance()</text><text fill="#000000" font-family="sans-serif" font-size="6.6" lengthAdjust="spacingAndGlyphs" textLength="59.4" x="411.9" y="203.4539">+getSessaoAtual()</text><!--MD5=[1e13576e8c070e32200b62ceaa1f39ec]
class SessaoUtilizador--><rect fill="#FEFECE" filter="url(#f1f4gjab1ktqyi)" height="36.573" id="SessaoUtilizador" style="stroke: #A80036; stroke-width: 0.8999999999999999;" width="75.6" x="503.4" y="166.8"/><ellipse cx="512.4" cy="176.4" fill="#ADD1B2" rx="6.6" ry="6.6" style="stroke: #A80036; stroke-width: 0.6;"/><path d="M513.8839,180.0858 Q513.5353,180.2651 513.1518,180.3548 Q512.7683,180.4444 512.3449,180.4444 Q510.8408,180.4444 510.0489,179.4533 Q509.257,178.4622 509.257,176.5896 Q509.257,174.7119 510.0489,173.7208 Q510.8408,172.7297 512.3449,172.7297 Q512.7683,172.7297 513.1567,172.8193 Q513.5452,172.909 513.8839,173.0883 L513.8839,174.7219 Q513.5054,174.3732 513.1493,174.2114 Q512.7932,174.0495 512.4146,174.0495 Q511.6078,174.0495 511.1969,174.6895 Q510.786,175.3295 510.786,176.5896 Q510.786,177.8446 511.1969,178.4846 Q511.6078,179.1246 512.4146,179.1246 Q512.7932,179.1246 513.1493,178.9627 Q513.5054,178.8009 513.8839,178.4522 Z "/><text fill="#000000" font-family="sans-serif" font-size="7.2" lengthAdjust="spacingAndGlyphs" textLength="56.4" x="520.8" y="179.1211">SessaoUtilizador</text><line style="stroke: #A80036; stroke-width: 0.8999999999999999;" x1="504" x2="578.4" y1="186" y2="186"/><line style="stroke: #A80036; stroke-width: 0.8999999999999999;" x1="504" x2="578.4" y1="190.8" y2="190.8"/><text fill="#000000" font-family="sans-serif" font-size="6.6" lengthAdjust="spacingAndGlyphs" textLength="68.4" x="507" y="199.5809">+getEmailUtilizador()</text><!--MD5=[27c2d4bbe9f7b9d3b0ea2797cc54308a]
class Tarefa--><rect fill="#FEFECE" filter="url(#f1f4gjab1ktqyi)" height="83.2113" id="Tarefa" style="stroke: #A80036; stroke-width: 0.8999999999999999;" width="183" x="38.1" y="610.2"/><ellipse cx="115.65" cy="619.8" fill="#ADD1B2" rx="6.6" ry="6.6" style="stroke: #A80036; stroke-width: 0.6;"/><path d="M117.1339,623.4858 Q116.7853,623.6651 116.4018,623.7548 Q116.0183,623.8444 115.5949,623.8444 Q114.0908,623.8444 113.2989,622.8533 Q112.507,621.8622 112.507,619.9896 Q112.507,618.1119 113.2989,617.1208 Q114.0908,616.1297 115.5949,616.1297 Q116.0183,616.1297 116.4067,616.2193 Q116.7952,616.309 117.1339,616.4883 L117.1339,618.1219 Q116.7554,617.7732 116.3993,617.6114 Q116.0432,617.4495 115.6646,617.4495 Q114.8578,617.4495 114.4469,618.0895 Q114.036,618.7295 114.036,619.9896 Q114.036,621.2446 114.4469,621.8846 Q114.8578,622.5246 115.6646,622.5246 Q116.0432,622.5246 116.3993,622.3627 Q116.7554,622.2009 117.1339,621.8522 Z "/><text fill="#000000" font-family="sans-serif" font-size="7.2" lengthAdjust="spacingAndGlyphs" textLength="22.8" x="127.95" y="622.5211">Tarefa</text><line style="stroke: #A80036; stroke-width: 0.8999999999999999;" x1="38.7" x2="220.5" y1="629.4" y2="629.4"/><text fill="#000000" font-family="sans-serif" font-size="6.6" lengthAdjust="spacingAndGlyphs" textLength="57" x="41.7" y="638.1809">-String referencia</text><text fill="#000000" font-family="sans-serif" font-size="6.6" lengthAdjust="spacingAndGlyphs" textLength="61.2" x="41.7" y="645.9539">-String designacao</text><text fill="#000000" font-family="sans-serif" font-size="6.6" lengthAdjust="spacingAndGlyphs" textLength="66.6" x="41.7" y="653.727">-String descInformal</text><text fill="#000000" font-family="sans-serif" font-size="6.6" lengthAdjust="spacingAndGlyphs" textLength="64.2" x="41.7" y="661.5">-String descTecnica</text><text fill="#000000" font-family="sans-serif" font-size="6.6" lengthAdjust="spacingAndGlyphs" textLength="64.2" x="41.7" y="669.273">-Integer duracaoEst</text><text fill="#000000" font-family="sans-serif" font-size="6.6" lengthAdjust="spacingAndGlyphs" textLength="55.8" x="41.7" y="677.0461">-Double custoEst</text><line style="stroke: #A80036; stroke-width: 0.8999999999999999;" x1="38.7" x2="220.5" y1="680.8383" y2="680.8383"/><text fill="#000000" font-family="sans-serif" font-size="6.6" lengthAdjust="spacingAndGlyphs" textLength="175.8" x="41.7" y="689.6191">+Tarefa(ref, dsig, dsInf, dsTec, duracEst, custoEst, cat)</text><!--MD5=[7e1ce8ab2bf669717f28e918f4971b9a]
class Categoria--><rect fill="#FEFECE" filter="url(#f1f4gjab1ktqyi)" height="44.3461" id="Categoria" style="stroke: #A80036; stroke-width: 0.8999999999999999;" width="63" x="305.1" y="629.7"/><ellipse cx="318.96" cy="639.3" fill="#ADD1B2" rx="6.6" ry="6.6" style="stroke: #A80036; stroke-width: 0.6;"/><path d="M320.4439,642.9858 Q320.0953,643.1651 319.7118,643.2548 Q319.3283,643.3444 318.9049,643.3444 Q317.4008,643.3444 316.6089,642.3533 Q315.817,641.3622 315.817,639.4896 Q315.817,637.6119 316.6089,636.6208 Q317.4008,635.6297 318.9049,635.6297 Q319.3283,635.6297 319.7167,635.7193 Q320.1052,635.809 320.4439,635.9883 L320.4439,637.6219 Q320.0654,637.2732 319.7093,637.1114 Q319.3532,636.9495 318.9746,636.9495 Q318.1678,636.9495 317.7569,637.5895 Q317.346,638.2295 317.346,639.4896 Q317.346,640.7446 317.7569,641.3846 Q318.1678,642.0246 318.9746,642.0246 Q319.3532,642.0246 319.7093,641.8627 Q320.0654,641.7009 320.4439,641.3522 Z "/><text fill="#000000" font-family="sans-serif" font-size="7.2" lengthAdjust="spacingAndGlyphs" textLength="33" x="328.44" y="642.0211">Categoria</text><line style="stroke: #A80036; stroke-width: 0.8999999999999999;" x1="305.7" x2="367.5" y1="648.9" y2="648.9"/><text fill="#000000" font-family="sans-serif" font-size="6.6" lengthAdjust="spacingAndGlyphs" textLength="30.6" x="308.7" y="657.6809">-String id</text><text fill="#000000" font-family="sans-serif" font-size="6.6" lengthAdjust="spacingAndGlyphs" textLength="55.8" x="308.7" y="665.4539">-String descricao</text><line style="stroke: #A80036; stroke-width: 0.8999999999999999;" x1="305.7" x2="367.5" y1="669.2461" y2="669.2461"/><!--MD5=[807977ceb130c090ed5febfb6de2bdea]
class Organizacao--><rect fill="#FEFECE" filter="url(#f1f4gjab1ktqyi)" height="83.2113" id="Organizacao" style="stroke: #A80036; stroke-width: 0.8999999999999999;" width="266.4" x="35.4" y="374.4"/><ellipse cx="144.45" cy="384" fill="#ADD1B2" rx="6.6" ry="6.6" style="stroke: #A80036; stroke-width: 0.6;"/><path d="M145.9339,387.6858 Q145.5853,387.8651 145.2018,387.9548 Q144.8183,388.0444 144.3949,388.0444 Q142.8908,388.0444 142.0989,387.0533 Q141.307,386.0622 141.307,384.1896 Q141.307,382.3119 142.0989,381.3208 Q142.8908,380.3297 144.3949,380.3297 Q144.8183,380.3297 145.2067,380.4193 Q145.5952,380.509 145.9339,380.6883 L145.9339,382.3219 Q145.5554,381.9732 145.1993,381.8114 Q144.8432,381.6495 144.4646,381.6495 Q143.6578,381.6495 143.2469,382.2895 Q142.836,382.9295 142.836,384.1896 Q142.836,385.4446 143.2469,386.0846 Q143.6578,386.7246 144.4646,386.7246 Q144.8432,386.7246 145.1993,386.5627 Q145.5554,386.4009 145.9339,386.0522 Z "/><text fill="#000000" font-family="sans-serif" font-size="7.2" lengthAdjust="spacingAndGlyphs" textLength="43.2" x="156.75" y="386.7211">Organizacao</text><line style="stroke: #A80036; stroke-width: 0.8999999999999999;" x1="36" x2="301.2" y1="393.6" y2="393.6"/><text fill="#000000" font-family="sans-serif" font-size="6.6" lengthAdjust="spacingAndGlyphs" textLength="42.6" x="39" y="402.3809">-String nome</text><text fill="#000000" font-family="sans-serif" font-size="6.6" lengthAdjust="spacingAndGlyphs" textLength="34.8" x="39" y="410.1539">-String NIF</text><text fill="#000000" font-family="sans-serif" font-size="6.6" lengthAdjust="spacingAndGlyphs" textLength="48.6" x="39" y="417.927">-String website</text><text fill="#000000" font-family="sans-serif" font-size="6.6" lengthAdjust="spacingAndGlyphs" textLength="50.4" x="39" y="425.7">-String telefone</text><text fill="#000000" font-family="sans-serif" font-size="6.6" lengthAdjust="spacingAndGlyphs" textLength="41.4" x="39" y="433.473">-String email</text><line style="stroke: #A80036; stroke-width: 0.8999999999999999;" x1="36" x2="301.2" y1="437.2652" y2="437.2652"/><text fill="#000000" font-family="sans-serif" font-size="6.6" lengthAdjust="spacingAndGlyphs" textLength="259.2" x="39" y="446.0461">+Organizacao(nome, NIF, webSite, telefone, email, endereco, gestorColaborador)</text><text fill="#000000" font-family="sans-serif" font-size="6.6" lengthAdjust="spacingAndGlyphs" textLength="100.2" x="39" y="453.8191">+ListaTarefas getListaTarefas()</text><!--MD5=[0b8c11e89e8561660fecfc719ed33ad4]
class ListaTarefas--><rect fill="#FEFECE" filter="url(#f1f4gjab1ktqyi)" height="59.8922" id="ListaTarefas" style="stroke: #A80036; stroke-width: 0.8999999999999999;" width="198.6" x="61.5" y="504"/><ellipse cx="137.25" cy="513.6" fill="#ADD1B2" rx="6.6" ry="6.6" style="stroke: #A80036; stroke-width: 0.6;"/><path d="M138.7339,517.2858 Q138.3853,517.4651 138.0018,517.5548 Q137.6183,517.6444 137.1949,517.6444 Q135.6908,517.6444 134.8989,516.6533 Q134.107,515.6622 134.107,513.7896 Q134.107,511.9119 134.8989,510.9208 Q135.6908,509.9297 137.1949,509.9297 Q137.6183,509.9297 138.0067,510.0193 Q138.3952,510.109 138.7339,510.2883 L138.7339,511.9219 Q138.3554,511.5732 137.9993,511.4114 Q137.6432,511.2495 137.2646,511.2495 Q136.4578,511.2495 136.0469,511.8895 Q135.636,512.5295 135.636,513.7896 Q135.636,515.0446 136.0469,515.6846 Q136.4578,516.3246 137.2646,516.3246 Q137.6432,516.3246 137.9993,516.1627 Q138.3554,516.0009 138.7339,515.6522 Z "/><text fill="#000000" font-family="sans-serif" font-size="7.2" lengthAdjust="spacingAndGlyphs" textLength="42" x="149.55" y="516.3211">ListaTarefas</text><line style="stroke: #A80036; stroke-width: 0.8999999999999999;" x1="62.1" x2="259.5" y1="523.2" y2="523.2"/><line style="stroke: #A80036; stroke-width: 0.8999999999999999;" x1="62.1" x2="259.5" y1="528" y2="528"/><text fill="#000000" font-family="sans-serif" font-size="6.6" lengthAdjust="spacingAndGlyphs" textLength="191.4" x="65.1" y="536.7809">+novaTarefa(ref, dsig, dsInf, dsTec, duracEst, custoEst, cat)</text><text fill="#000000" font-family="sans-serif" font-size="6.6" lengthAdjust="spacingAndGlyphs" textLength="71.4" x="65.1" y="544.5539">+registaTarefa(tarefa)</text><text fill="#000000" font-family="sans-serif" font-size="6.6" lengthAdjust="spacingAndGlyphs" textLength="59.4" x="65.1" y="552.327">-addTarefa(tarefa)</text><text fill="#000000" font-family="sans-serif" font-size="6.6" lengthAdjust="spacingAndGlyphs" textLength="66" x="65.1" y="560.1">-validaTarefa(tarefa)</text><!--MD5=[ecaed46f78f8cfe1e9ce18477649be18]
class Plataforma--><rect fill="#FEFECE" filter="url(#f1f4gjab1ktqyi)" height="52.1191" id="Plataforma" style="stroke: #A80036; stroke-width: 0.8999999999999999;" width="159" x="185.1" y="159"/><ellipse cx="243.45" cy="168.6" fill="#ADD1B2" rx="6.6" ry="6.6" style="stroke: #A80036; stroke-width: 0.6;"/><path d="M244.9339,172.2858 Q244.5853,172.4651 244.2018,172.5548 Q243.8183,172.6444 243.3949,172.6444 Q241.8908,172.6444 241.0989,171.6533 Q240.307,170.6622 240.307,168.7896 Q240.307,166.9119 241.0989,165.9208 Q241.8908,164.9297 243.3949,164.9297 Q243.8183,164.9297 244.2067,165.0193 Q244.5952,165.109 244.9339,165.2883 L244.9339,166.9219 Q244.5554,166.5732 244.1993,166.4114 Q243.8432,166.2495 243.4646,166.2495 Q242.6578,166.2495 242.2469,166.8895 Q241.836,167.5295 241.836,168.7896 Q241.836,170.0446 242.2469,170.6846 Q242.6578,171.3246 243.4646,171.3246 Q243.8432,171.3246 244.1993,171.1627 Q244.5554,171.0009 244.9339,170.6522 Z "/><text fill="#000000" font-family="sans-serif" font-size="7.2" lengthAdjust="spacingAndGlyphs" textLength="37.2" x="255.75" y="171.3211">Plataforma</text><line style="stroke: #A80036; stroke-width: 0.8999999999999999;" x1="185.7" x2="343.5" y1="178.2" y2="178.2"/><text fill="#000000" font-family="sans-serif" font-size="6.6" lengthAdjust="spacingAndGlyphs" textLength="61.2" x="188.7" y="186.9809">-String designacao</text><line style="stroke: #A80036; stroke-width: 0.8999999999999999;" x1="185.7" x2="343.5" y1="190.773" y2="190.773"/><text fill="#000000" font-family="sans-serif" font-size="6.6" lengthAdjust="spacingAndGlyphs" textLength="139.8" x="188.7" y="199.5539">+RegistoCategorias getRegistoCategorias()</text><text fill="#000000" font-family="sans-serif" font-size="6.6" lengthAdjust="spacingAndGlyphs" textLength="151.8" x="188.7" y="207.327">+RegistoOrganizacao getRegistoOrganizacao()</text><!--MD5=[011eac86698250363ba056a5277fb87d]
class RegistoCategorias--><rect fill="#FEFECE" filter="url(#f1f4gjab1ktqyi)" height="44.3461" id="RegistoCategorias" style="stroke: #A80036; stroke-width: 0.8999999999999999;" width="87.6" x="274.8" y="312"/><ellipse cx="286.77" cy="321.6" fill="#ADD1B2" rx="6.6" ry="6.6" style="stroke: #A80036; stroke-width: 0.6;"/><path d="M288.2539,325.2858 Q287.9053,325.4651 287.5218,325.5548 Q287.1383,325.6444 286.7149,325.6444 Q285.2108,325.6444 284.4189,324.6533 Q283.627,323.6622 283.627,321.7896 Q283.627,319.9119 284.4189,318.9208 Q285.2108,317.9297 286.7149,317.9297 Q287.1383,317.9297 287.5267,318.0193 Q287.9152,318.109 288.2539,318.2883 L288.2539,319.9219 Q287.8754,319.5732 287.5193,319.4114 Q287.1632,319.2495 286.7846,319.2495 Q285.9778,319.2495 285.5669,319.8895 Q285.156,320.5295 285.156,321.7896 Q285.156,323.0446 285.5669,323.6846 Q285.9778,324.3246 286.7846,324.3246 Q287.1632,324.3246 287.5193,324.1627 Q287.8754,324.0009 288.2539,323.6522 Z "/><text fill="#000000" font-family="sans-serif" font-size="7.2" lengthAdjust="spacingAndGlyphs" textLength="61.8" x="295.83" y="324.3211">RegistoCategorias</text><line style="stroke: #A80036; stroke-width: 0.8999999999999999;" x1="275.4" x2="361.8" y1="331.2" y2="331.2"/><line style="stroke: #A80036; stroke-width: 0.8999999999999999;" x1="275.4" x2="361.8" y1="336" y2="336"/><text fill="#000000" font-family="sans-serif" font-size="6.6" lengthAdjust="spacingAndGlyphs" textLength="55.2" x="278.4" y="344.7809">+getCategorias()</text><text fill="#000000" font-family="sans-serif" font-size="6.6" lengthAdjust="spacingAndGlyphs" textLength="80.4" x="278.4" y="352.5539">+getCategoriaById(catId)</text><!--MD5=[548bd8e9f0dc9261535ca7b7174ac939]
class RegistoOrganizacoes--><rect fill="#FEFECE" filter="url(#f1f4gjab1ktqyi)" height="36.573" id="RegistoOrganizacoes" style="stroke: #A80036; stroke-width: 0.8999999999999999;" width="140.4" x="154.2" y="257.4"/><ellipse cx="185.85" cy="267" fill="#ADD1B2" rx="6.6" ry="6.6" style="stroke: #A80036; stroke-width: 0.6;"/><path d="M187.3339,270.6858 Q186.9853,270.8651 186.6018,270.9548 Q186.2183,271.0444 185.7949,271.0444 Q184.2908,271.0444 183.4989,270.0533 Q182.707,269.0622 182.707,267.1896 Q182.707,265.3119 183.4989,264.3208 Q184.2908,263.3297 185.7949,263.3297 Q186.2183,263.3297 186.6067,263.4193 Q186.9952,263.509 187.3339,263.6883 L187.3339,265.3219 Q186.9554,264.9732 186.5993,264.8114 Q186.2432,264.6495 185.8646,264.6495 Q185.0578,264.6495 184.6469,265.2895 Q184.236,265.9295 184.236,267.1896 Q184.236,268.4446 184.6469,269.0846 Q185.0578,269.7246 185.8646,269.7246 Q186.2432,269.7246 186.5993,269.5627 Q186.9554,269.4009 187.3339,269.0522 Z "/><text fill="#000000" font-family="sans-serif" font-size="7.2" lengthAdjust="spacingAndGlyphs" textLength="72" x="198.15" y="269.7211">RegistoOrganizacoes</text><line style="stroke: #A80036; stroke-width: 0.8999999999999999;" x1="154.8" x2="294" y1="276.6" y2="276.6"/><line style="stroke: #A80036; stroke-width: 0.8999999999999999;" x1="154.8" x2="294" y1="281.4" y2="281.4"/><text fill="#000000" font-family="sans-serif" font-size="6.6" lengthAdjust="spacingAndGlyphs" textLength="133.2" x="157.8" y="290.1809">+getOrganizacaoByEmailUtilizador(email)</text><!--MD5=[94150fb2341829ef7e29c5b8b7a9ec09]
class EspecificarTarefaController--><rect fill="#FEFECE" filter="url(#f1f4gjab1ktqyi)" height="52.1191" id="EspecificarTarefaController" style="stroke: #A80036; stroke-width: 0.8999999999999999;" width="184.8" x="255.6" y="70.2"/><ellipse cx="298.65" cy="79.8" fill="#ADD1B2" rx="6.6" ry="6.6" style="stroke: #A80036; stroke-width: 0.6;"/><path d="M300.1339,83.4858 Q299.7853,83.6651 299.4018,83.7548 Q299.0183,83.8444 298.5949,83.8444 Q297.0908,83.8444 296.2989,82.8533 Q295.507,81.8622 295.507,79.9896 Q295.507,78.1119 296.2989,77.1208 Q297.0908,76.1297 298.5949,76.1297 Q299.0183,76.1297 299.4067,76.2193 Q299.7952,76.309 300.1339,76.4883 L300.1339,78.1219 Q299.7554,77.7732 299.3993,77.6114 Q299.0432,77.4495 298.6646,77.4495 Q297.8578,77.4495 297.4469,78.0895 Q297.036,78.7295 297.036,79.9896 Q297.036,81.2446 297.4469,81.8846 Q297.8578,82.5246 298.6646,82.5246 Q299.0432,82.5246 299.3993,82.3627 Q299.7554,82.2009 300.1339,81.8522 Z "/><text fill="#000000" font-family="sans-serif" font-size="7.2" lengthAdjust="spacingAndGlyphs" textLength="93.6" x="310.95" y="82.5211">EspecificarTarefaController</text><line style="stroke: #A80036; stroke-width: 0.8999999999999999;" x1="256.2" x2="439.8" y1="89.4" y2="89.4"/><line style="stroke: #A80036; stroke-width: 0.8999999999999999;" x1="256.2" x2="439.8" y1="94.2" y2="94.2"/><text fill="#000000" font-family="sans-serif" font-size="6.6" lengthAdjust="spacingAndGlyphs" textLength="55.2" x="259.2" y="102.9809">+getCategorias()</text><text fill="#000000" font-family="sans-serif" font-size="6.6" lengthAdjust="spacingAndGlyphs" textLength="177.6" x="259.2" y="110.7539">+novaTarefa(ref, dsig, dsTec, duracEst, custoEst, catId)</text><text fill="#000000" font-family="sans-serif" font-size="6.6" lengthAdjust="spacingAndGlyphs" textLength="52.8" x="259.2" y="118.527">+registaTarefa()</text><!--MD5=[d165d8d60460acd89e6c0912e03cbc92]
class EspecificarTarefaUI--><rect fill="#FEFECE" filter="url(#f1f4gjab1ktqyi)" height="28.8" id="EspecificarTarefaUI" style="stroke: #A80036; stroke-width: 0.8999999999999999;" width="85.8" x="305.1" y="4.8"/><ellipse cx="314.1" cy="14.4" fill="#ADD1B2" rx="6.6" ry="6.6" style="stroke: #A80036; stroke-width: 0.6;"/><path d="M315.5839,18.0858 Q315.2353,18.2651 314.8518,18.3548 Q314.4683,18.4444 314.0449,18.4444 Q312.5408,18.4444 311.7489,17.4533 Q310.957,16.4622 310.957,14.5896 Q310.957,12.7119 311.7489,11.7208 Q312.5408,10.7297 314.0449,10.7297 Q314.4683,10.7297 314.8567,10.8193 Q315.2452,10.909 315.5839,11.0883 L315.5839,12.7219 Q315.2054,12.3732 314.8493,12.2114 Q314.4932,12.0495 314.1146,12.0495 Q313.3078,12.0495 312.8969,12.6895 Q312.486,13.3295 312.486,14.5896 Q312.486,15.8446 312.8969,16.4846 Q313.3078,17.1246 314.1146,17.1246 Q314.4932,17.1246 314.8493,16.9627 Q315.2054,16.8009 315.5839,16.4522 Z "/><text fill="#000000" font-family="sans-serif" font-size="7.2" lengthAdjust="spacingAndGlyphs" textLength="66.6" x="322.5" y="17.1211">EspecificarTarefaUI</text><line style="stroke: #A80036; stroke-width: 0.8999999999999999;" x1="305.7" x2="390.3" y1="24" y2="24"/><line style="stroke: #A80036; stroke-width: 0.8999999999999999;" x1="305.7" x2="390.3" y1="28.8" y2="28.8"/><!--MD5=[05a699340a7c11c92956af905b9d914a]
link EspecificarTarefaUI to EspecificarTarefaController--><path d="M348,33.72 C348,43.032 348,55.62 348,67.02 " fill="none" id="EspecificarTarefaUI-&gt;EspecificarTarefaController" style="stroke: #A80036; stroke-width: 0.6; stroke-dasharray: 7.0,7.0;"/><polygon fill="#A80036" points="348,70.2,350.4,64.8,348,67.2,345.6,64.8,348,70.2" style="stroke: #A80036; stroke-width: 0.6;"/><!--MD5=[e3097efa8520120091b2f8f83ceb3138]
link EspecificarTarefaController to Plataforma--><path d="M323.652,122.472 C313.422,133.218 301.494,145.752 291.048,156.72 " fill="none" id="EspecificarTarefaController-&gt;Plataforma" style="stroke: #A80036; stroke-width: 0.6; stroke-dasharray: 7.0,7.0;"/><polygon fill="#A80036" points="288.978,158.898,294.4403,156.6434,291.0472,156.7258,290.9648,153.3327,288.978,158.898" style="stroke: #A80036; stroke-width: 0.6;"/><!--MD5=[8c1323afb0189c761487270c894887cb]
link EspecificarTarefaController to Categoria--><path d="M360.864,122.466 C368.298,139.578 376.2,162.852 376.2,184.5 C376.2,184.5 376.2,184.5 376.2,534.6 C376.2,567.906 361.554,603.858 350.082,626.922 " fill="none" id="EspecificarTarefaController-&gt;Categoria" style="stroke: #A80036; stroke-width: 0.6; stroke-dasharray: 7.0,7.0;"/><polygon fill="#A80036" points="348.696,629.67,353.2672,625.9251,350.0445,626.9902,348.9794,623.7675,348.696,629.67" style="stroke: #A80036; stroke-width: 0.6;"/><!--MD5=[620cba3c85ccf940fb304a6a59f8b3fa]
link EspecificarTarefaController to Tarefa--><path d="M255.48,102.33 C153.468,110.922 3.6,132.408 3.6,184.5 C3.6,184.5 3.6,184.5 3.6,534.6 C3.6,564.804 23.334,589.38 47.178,608.052 " fill="none" id="EspecificarTarefaController-&gt;Tarefa" style="stroke: #A80036; stroke-width: 0.6; stroke-dasharray: 7.0,7.0;"/><polygon fill="#A80036" points="49.8,610.068,46.994,604.8674,47.426,608.2339,44.0594,608.6659,49.8,610.068" style="stroke: #A80036; stroke-width: 0.6;"/><!--MD5=[6eb4a6f4cc5b833adb71bf132ec7c56c]
link EspecificarTarefaController to Organizacao--><path d="M255.552,113.094 C226.386,122.268 196.182,136.608 174.6,159 C120.624,215.004 137.49,313.956 153.672,371.202 " fill="none" id="EspecificarTarefaController-&gt;Organizacao" style="stroke: #A80036; stroke-width: 0.6; stroke-dasharray: 7.0,7.0;"/><polygon fill="#A80036" points="154.536,374.232,155.3602,368.3804,153.7118,371.3474,150.7448,369.6991,154.536,374.232" style="stroke: #A80036; stroke-width: 0.6;"/><!--MD5=[14725f62bbb0dfe4afcd43c22b93cbbf]
link EspecificarTarefaController to AplicacaoPOT--><path d="M376.374,122.472 C389.832,134.598 405.804,148.992 418.968,160.86 " fill="none" id="EspecificarTarefaController-&gt;AplicacaoPOT" style="stroke: #A80036; stroke-width: 0.6; stroke-dasharray: 7.0,7.0;"/><polygon fill="#A80036" points="421.224,162.894,418.8157,157.4977,418.9941,160.8871,415.6047,161.0655,421.224,162.894" style="stroke: #A80036; stroke-width: 0.6;"/><!--MD5=[59805cf69ed9e18883a36abb426031fc]
link EspecificarTarefaController to SessaoUtilizador--><path d="M410.394,122.448 C436.062,133.278 465.96,146.316 492.6,159 C496.806,161.004 501.174,163.17 505.494,165.366 " fill="none" id="EspecificarTarefaController-&gt;SessaoUtilizador" style="stroke: #A80036; stroke-width: 0.6; stroke-dasharray: 7.0,7.0;"/><polygon fill="#A80036" points="508.17,166.734,504.4601,162.1343,505.5005,165.3651,502.2698,166.4055,508.17,166.734" style="stroke: #A80036; stroke-width: 0.6;"/><!--MD5=[cc2561a0285988b367253361d2d1973d]
link Tarefa to Categoria--><path d="M221.148,651.9 C249.72,651.9 279.522,651.9 301.692,651.9 " fill="none" id="Tarefa-&gt;Categoria" style="stroke: #A80036; stroke-width: 0.6;"/><polygon fill="#A80036" points="304.908,651.9,299.508,649.5,301.908,651.9,299.508,654.3,304.908,651.9" style="stroke: #A80036; stroke-width: 0.6;"/><text fill="#000000" font-family="sans-serif" font-size="7.8" lengthAdjust="spacingAndGlyphs" textLength="61.8" x="232.2" y="648.041">enquadra-se em</text><text fill="#000000" font-family="sans-serif" font-size="7.8" lengthAdjust="spacingAndGlyphs" textLength="3.6" x="225.9613" y="650.2187">*</text><text fill="#000000" font-family="sans-serif" font-size="7.8" lengthAdjust="spacingAndGlyphs" textLength="4.8" x="295.5269" y="649.8525">1</text><!--MD5=[02f9e17834c31cd5073a7dac20ea5e44]
link Plataforma to RegistoCategorias--><path d="M281.676,211.26 C289.812,224.52 299.01,241.284 304.8,257.4 C310.764,273.996 314.238,293.592 316.212,308.754 " fill="none" id="Plataforma-&gt;RegistoCategorias" style="stroke: #A80036; stroke-width: 0.6;"/><polygon fill="#A80036" points="316.608,311.916,318.3096,306.257,316.2306,308.9398,313.5478,306.8608,316.608,311.916" style="stroke: #A80036; stroke-width: 0.6;"/><text fill="#000000" font-family="sans-serif" font-size="7.8" lengthAdjust="spacingAndGlyphs" textLength="25.2" x="297.6" y="237.341">possui</text><text fill="#000000" font-family="sans-serif" font-size="7.8" lengthAdjust="spacingAndGlyphs" textLength="4.8" x="279.1233" y="223.5163">1</text><text fill="#000000" font-family="sans-serif" font-size="7.8" lengthAdjust="spacingAndGlyphs" textLength="4.8" x="310.9982" y="305.5409">1</text><!--MD5=[f474418f0299e5a3deeeaebedb6f44d3]
link Plataforma to RegistoOrganizacoes--><path d="M253.08,211.32 C246.954,224.94 239.52,241.476 233.754,254.298 " fill="none" id="Plataforma-&gt;RegistoOrganizacoes" style="stroke: #A80036; stroke-width: 0.6;"/><polygon fill="#A80036" points="232.476,257.136,236.8749,253.1902,233.7032,254.3985,232.4949,251.2267,232.476,257.136" style="stroke: #A80036; stroke-width: 0.6;"/><text fill="#000000" font-family="sans-serif" font-size="7.8" lengthAdjust="spacingAndGlyphs" textLength="25.2" x="245.4" y="237.341">possui</text><text fill="#000000" font-family="sans-serif" font-size="7.8" lengthAdjust="spacingAndGlyphs" textLength="4.8" x="246.2355" y="223.3926">1</text><text fill="#000000" font-family="sans-serif" font-size="7.8" lengthAdjust="spacingAndGlyphs" textLength="4.8" x="228.8467" y="250.9421">1</text><!--MD5=[9e16af19542585777eaa8869a15e5907]
link RegistoCategorias to Categoria--><path d="M319.836,356.556 C323.07,413.424 331.764,566.28 335.19,626.46 " fill="none" id="RegistoCategorias-&gt;Categoria" style="stroke: #A80036; stroke-width: 0.6;"/><polygon fill="#A80036" points="335.364,629.604,337.452,624.0759,335.1929,626.6089,332.6598,624.3497,335.364,629.604" style="stroke: #A80036; stroke-width: 0.6;"/><text fill="#000000" font-family="sans-serif" font-size="7.8" lengthAdjust="spacingAndGlyphs" textLength="25.2" x="328.2" y="483.941">possui</text><text fill="#000000" font-family="sans-serif" font-size="7.8" lengthAdjust="spacingAndGlyphs" textLength="4.8" x="314.8359" y="368.7335">1</text><text fill="#000000" font-family="sans-serif" font-size="7.8" lengthAdjust="spacingAndGlyphs" textLength="3.6" x="331.2042" y="623.2266">*</text><!--MD5=[7846c904d139ffad2e5d1ca294d8e188]
link RegistoOrganizacoes to Organizacao--><path d="M217.218,294.21 C209.436,313.626 196.728,345.33 186.258,371.454 " fill="none" id="RegistoOrganizacoes-&gt;Organizacao" style="stroke: #A80036; stroke-width: 0.6;"/><polygon fill="#A80036" points="185.124,374.286,189.3688,370.1748,186.2455,371.5035,184.9168,368.3803,185.124,374.286" style="stroke: #A80036; stroke-width: 0.6;"/><text fill="#000000" font-family="sans-serif" font-size="7.8" lengthAdjust="spacingAndGlyphs" textLength="25.2" x="210.6" y="337.241">possui</text><text fill="#000000" font-family="sans-serif" font-size="7.8" lengthAdjust="spacingAndGlyphs" textLength="4.8" x="210.5315" y="306.3021">1</text><text fill="#000000" font-family="sans-serif" font-size="7.8" lengthAdjust="spacingAndGlyphs" textLength="3.6" x="183.0424" y="368.0702">*</text><!--MD5=[fe36d68e6ccc9fbcf1b4b1ecbcfd2a3f]
link Organizacao to ListaTarefas--><path d="M165.852,457.842 C164.91,471.936 163.866,487.506 162.978,500.826 " fill="none" id="Organizacao-&gt;ListaTarefas" style="stroke: #A80036; stroke-width: 0.6;"/><polygon fill="#A80036" points="162.768,503.982,165.5169,498.751,162.9647,500.9885,160.7273,498.4362,162.768,503.982" style="stroke: #A80036; stroke-width: 0.6;"/><text fill="#000000" font-family="sans-serif" font-size="7.8" lengthAdjust="spacingAndGlyphs" textLength="25.2" x="165.6" y="483.941">possui</text><text fill="#000000" font-family="sans-serif" font-size="7.8" lengthAdjust="spacingAndGlyphs" textLength="4.8" x="160.5452" y="469.9534">1</text><text fill="#000000" font-family="sans-serif" font-size="7.8" lengthAdjust="spacingAndGlyphs" textLength="4.8" x="157.9045" y="497.4748">1</text><!--MD5=[d258da2d5a47e4c990d61ccbbbe86ed7]
link ListaTarefas to Tarefa--><path d="M152.928,564.048 C149.436,577.098 145.26,592.728 141.408,607.128 " fill="none" id="ListaTarefas-&gt;Tarefa" style="stroke: #A80036; stroke-width: 0.6;"/><polygon fill="#A80036" points="140.592,610.182,144.3006,605.5814,141.3639,607.283,139.6623,604.3463,140.592,610.182" style="stroke: #A80036; stroke-width: 0.6;"/><text fill="#000000" font-family="sans-serif" font-size="7.8" lengthAdjust="spacingAndGlyphs" textLength="25.2" x="148.8" y="590.141">possui</text><text fill="#000000" font-family="sans-serif" font-size="7.8" lengthAdjust="spacingAndGlyphs" textLength="4.8" x="146.7477" y="576.2512">1</text><text fill="#000000" font-family="sans-serif" font-size="7.8" lengthAdjust="spacingAndGlyphs" textLength="3.6" x="137.9974" y="603.6884">*</text><!--MD5=[3785f270db34999707be8de759cad904]
@startuml
skinparam classAttributeIconSize 0

class AplicacaoPOT
{
  +static getInstance()
  +getSessaoAtual()
}

class SessaoUtilizador
{
  +getEmailUtilizador()
}

class Tarefa {
  -String referencia
  -String designacao
  -String descInformal
  -String descTecnica
  -Integer duracaoEst
  -Double custoEst
  +Tarefa(ref, dsig, dsInf, dsTec, duracEst, custoEst, cat)
}

class Categoria {
  -String id
  -String descricao
}

class Organizacao {
  -String nome
  -String NIF
  -String website
  -String telefone
  -String email
  +Organizacao(nome, NIF, webSite, telefone, email, endereco, gestorColaborador)
  +ListaTarefas getListaTarefas()
}

class ListaTarefas {
  +novaTarefa(ref, dsig, dsInf, dsTec, duracEst, custoEst, cat)
  +registaTarefa(tarefa)
  -addTarefa(tarefa)
  -validaTarefa(tarefa)
}

class Plataforma {
  -String designacao
  +RegistoCategorias getRegistoCategorias()
  +RegistoOrganizacao getRegistoOrganizacao()
}

class RegistoCategorias {
  +getCategorias()
  +getCategoriaById(catId)
}

class RegistoOrganizacoes {
  +getOrganizacaoByEmailUtilizador(email)
}

class EspecificarTarefaController {
  +getCategorias()
  +novaTarefa(ref, dsig, dsTec, duracEst, custoEst, catId)
  +registaTarefa()
}

class EspecificarTarefaUI {

}

EspecificarTarefaUI ..> EspecificarTarefaController
EspecificarTarefaController ..> Plataforma
EspecificarTarefaController ..> Categoria
EspecificarTarefaController ..> Tarefa
EspecificarTarefaController ..> Organizacao
EspecificarTarefaController ..> AplicacaoPOT
EspecificarTarefaController ..> SessaoUtilizador
Tarefa "*" -> "1" Categoria : enquadra-se em
Plataforma "1" - -> "1" RegistoCategorias : possui
Plataforma "1" - -> "1" RegistoOrganizacoes : possui

RegistoCategorias "1" - -> "*" Categoria : possui
RegistoOrganizacoes "1" - -> "*" Organizacao : possui
Organizacao "1" - -> "1" ListaTarefas : possui
ListaTarefas "1" - -> "*" Tarefa : possui


@enduml

PlantUML version 1.2020.03beta6(Unknown compile time)
(GPL source distribution)
Java Runtime: OpenJDK Runtime Environment
JVM: OpenJDK 64-Bit Server VM
Java Version: 11.0.5+10-b520.38
Operating System: Mac OS X
Default Encoding: UTF-8
Language: en
Country: PT
--></g></svg>