<?xml version="1.0" encoding="UTF-8" standalone="no"?><svg xmlns="http://www.w3.org/2000/svg" xmlns:xlink="http://www.w3.org/1999/xlink" contentScriptType="application/ecmascript" contentStyleType="text/css" height="314px" preserveAspectRatio="none" style="width:1121px;height:314px;" version="1.1" viewBox="0 0 1121 314" width="1121px" zoomAndPan="magnify">
    <defs>
        <filter height="300%" id="f1qfnnjvxiklbh" width="300%" x="-1" y="-1">
            <feGaussianBlur result="blurOut" stdDeviation="2.0" />
            <feColorMatrix in="blurOut" result="blurOut2" type="matrix" values="0 0 0 0 0 0 0 0 0 0 0 0 0 0 0 0 0 0 .4 0" />
            <feOffset dx="4.0" dy="4.0" in="blurOut2" result="blurOut3" />
            <feBlend in="SourceGraphic" in2="blurOut3" mode="normal" />
        </filter>
    </defs>
    <g>
        <!--MD5=[ecaed46f78f8cfe1e9ce18477649be18]
class Plataforma-->
        <rect fill="#FEFECE" filter="url(#f1qfnnjvxiklbh)" height="53.8359" id="Plataforma" style="stroke: #A80036; stroke-width: 1.5;" width="103" x="6" y="234" />
        <ellipse cx="25.95" cy="250" fill="#ADD1B2" rx="11" ry="11" style="stroke: #A80036; stroke-width: 1.0;" />
        <path d="M28.7156,245.875 Q28.8719,245.6563 29.0594,245.5469 Q29.2469,245.4375 29.4656,245.4375 Q29.8406,245.4375 30.075,245.7031 Q30.3094,245.9531 30.3094,246.5625 L30.3094,248.0156 Q30.3094,248.625 30.075,248.8906 Q29.8406,249.1563 29.4656,249.1563 Q29.1219,249.1563 28.9188,248.9531 Q28.7156,248.7656 28.6063,248.25 Q28.5594,247.8906 28.3719,247.7031 Q28.0438,247.3281 27.4344,247.1094 Q26.825,246.8906 26.2,246.8906 Q25.4344,246.8906 24.7938,247.2188 Q24.1688,247.5469 23.6688,248.2969 Q23.1844,249.0469 23.1844,250.0781 L23.1844,251.1719 Q23.1844,252.4063 24.075,253.2344 Q24.9656,254.0469 26.5594,254.0469 Q27.4969,254.0469 28.1531,253.7969 Q28.5438,253.6406 28.9656,253.2031 Q29.2313,252.9375 29.3719,252.8594 Q29.5281,252.7813 29.7313,252.7813 Q30.0594,252.7813 30.3094,253.0469 Q30.575,253.2969 30.575,253.6406 Q30.575,253.9844 30.2313,254.3906 Q29.7313,254.9688 28.9344,255.2969 Q27.8563,255.75 26.5594,255.75 Q25.0438,255.75 23.8406,255.125 Q22.8563,254.625 22.1688,253.5625 Q21.4813,252.4844 21.4813,251.2031 L21.4813,250.0469 Q21.4813,248.7188 22.0906,247.5781 Q22.7156,246.4219 23.8094,245.8125 Q24.9031,245.1875 26.1375,245.1875 Q26.8719,245.1875 27.5125,245.3594 Q28.1688,245.5156 28.7156,245.875 Z " /><text fill="#000000" font-family="sans-serif" font-size="12" lengthAdjust="spacingAndGlyphs" textLength="60" x="41.05" y="254.9102">Plataforma</text>
        <line style="stroke: #A80036; stroke-width: 1.5;" x1="7" x2="108" y1="266" y2="266" /><text fill="#000000" font-family="sans-serif" font-size="11" lengthAdjust="spacingAndGlyphs" textLength="91" x="12" y="281.4189">-String designacao</text>
        <!--MD5=[807977ceb130c090ed5febfb6de2bdea]
class Organizacao-->
        <rect fill="#FEFECE" filter="url(#f1qfnnjvxiklbh)" height="109.1797" id="Organizacao" style="stroke: #A80036; stroke-width: 1.5;" width="101" x="270" y="138.5" />
        <ellipse cx="285" cy="154.5" fill="#ADD1B2" rx="11" ry="11" style="stroke: #A80036; stroke-width: 1.0;" />
        <path d="M287.7656,150.375 Q287.9219,150.1563 288.1094,150.0469 Q288.2969,149.9375 288.5156,149.9375 Q288.8906,149.9375 289.125,150.2031 Q289.3594,150.4531 289.3594,151.0625 L289.3594,152.5156 Q289.3594,153.125 289.125,153.3906 Q288.8906,153.6563 288.5156,153.6563 Q288.1719,153.6563 287.9688,153.4531 Q287.7656,153.2656 287.6563,152.75 Q287.6094,152.3906 287.4219,152.2031 Q287.0938,151.8281 286.4844,151.6094 Q285.875,151.3906 285.25,151.3906 Q284.4844,151.3906 283.8438,151.7188 Q283.2188,152.0469 282.7188,152.7969 Q282.2344,153.5469 282.2344,154.5781 L282.2344,155.6719 Q282.2344,156.9063 283.125,157.7344 Q284.0156,158.5469 285.6094,158.5469 Q286.5469,158.5469 287.2031,158.2969 Q287.5938,158.1406 288.0156,157.7031 Q288.2813,157.4375 288.4219,157.3594 Q288.5781,157.2813 288.7813,157.2813 Q289.1094,157.2813 289.3594,157.5469 Q289.625,157.7969 289.625,158.1406 Q289.625,158.4844 289.2813,158.8906 Q288.7813,159.4688 287.9844,159.7969 Q286.9063,160.25 285.6094,160.25 Q284.0938,160.25 282.8906,159.625 Q281.9063,159.125 281.2188,158.0625 Q280.5313,156.9844 280.5313,155.7031 L280.5313,154.5469 Q280.5313,153.2188 281.1406,152.0781 Q281.7656,150.9219 282.8594,150.3125 Q283.9531,149.6875 285.1875,149.6875 Q285.9219,149.6875 286.5625,149.8594 Q287.2188,150.0156 287.7656,150.375 Z " /><text fill="#000000" font-family="sans-serif" font-size="12" lengthAdjust="spacingAndGlyphs" textLength="69" x="299" y="159.4102">Organizacao</text>
        <line style="stroke: #A80036; stroke-width: 1.5;" x1="271" x2="370" y1="170.5" y2="170.5" /><text fill="#000000" font-family="sans-serif" font-size="11" lengthAdjust="spacingAndGlyphs" textLength="61" x="276" y="185.9189">-String nome</text><text fill="#000000" font-family="sans-serif" font-size="11" lengthAdjust="spacingAndGlyphs" textLength="50" x="276" y="199.7549">-String NIF</text><text fill="#000000" font-family="sans-serif" font-size="11" lengthAdjust="spacingAndGlyphs" textLength="74" x="276" y="213.5908">-String website</text><text fill="#000000" font-family="sans-serif" font-size="11" lengthAdjust="spacingAndGlyphs" textLength="74" x="276" y="227.4268">-String telefone</text><text fill="#000000" font-family="sans-serif" font-size="11" lengthAdjust="spacingAndGlyphs" textLength="59" x="276" y="241.2627">-String email</text>
        <!--MD5=[27c2d4bbe9f7b9d3b0ea2797cc54308a]
class Tarefa-->
        <rect fill="#FEFECE" filter="url(#f1qfnnjvxiklbh)" height="123.0156" id="Tarefa" style="stroke: #A80036; stroke-width: 1.5;" width="109" x="738" y="8.5" />
        <ellipse cx="771.9" cy="24.5" fill="#ADD1B2" rx="11" ry="11" style="stroke: #A80036; stroke-width: 1.0;" />
        <path d="M774.6656,20.375 Q774.8219,20.1563 775.0094,20.0469 Q775.1969,19.9375 775.4156,19.9375 Q775.7906,19.9375 776.025,20.2031 Q776.2594,20.4531 776.2594,21.0625 L776.2594,22.5156 Q776.2594,23.125 776.025,23.3906 Q775.7906,23.6563 775.4156,23.6563 Q775.0719,23.6563 774.8688,23.4531 Q774.6656,23.2656 774.5563,22.75 Q774.5094,22.3906 774.3219,22.2031 Q773.9938,21.8281 773.3844,21.6094 Q772.775,21.3906 772.15,21.3906 Q771.3844,21.3906 770.7438,21.7188 Q770.1188,22.0469 769.6188,22.7969 Q769.1344,23.5469 769.1344,24.5781 L769.1344,25.6719 Q769.1344,26.9063 770.025,27.7344 Q770.9156,28.5469 772.5094,28.5469 Q773.4469,28.5469 774.1031,28.2969 Q774.4938,28.1406 774.9156,27.7031 Q775.1813,27.4375 775.3219,27.3594 Q775.4781,27.2813 775.6813,27.2813 Q776.0094,27.2813 776.2594,27.5469 Q776.525,27.7969 776.525,28.1406 Q776.525,28.4844 776.1813,28.8906 Q775.6813,29.4688 774.8844,29.7969 Q773.8063,30.25 772.5094,30.25 Q770.9938,30.25 769.7906,29.625 Q768.8063,29.125 768.1188,28.0625 Q767.4313,26.9844 767.4313,25.7031 L767.4313,24.5469 Q767.4313,23.2188 768.0406,22.0781 Q768.6656,20.9219 769.7594,20.3125 Q770.8531,19.6875 772.0875,19.6875 Q772.8219,19.6875 773.4625,19.8594 Q774.1188,20.0156 774.6656,20.375 Z " /><text fill="#000000" font-family="sans-serif" font-size="12" lengthAdjust="spacingAndGlyphs" textLength="35" x="790.1" y="29.4102">Tarefa</text>
        <line style="stroke: #A80036; stroke-width: 1.5;" x1="739" x2="846" y1="40.5" y2="40.5" /><text fill="#000000" font-family="sans-serif" font-size="11" lengthAdjust="spacingAndGlyphs" textLength="85" x="744" y="55.9189">-String referencia</text><text fill="#000000" font-family="sans-serif" font-size="11" lengthAdjust="spacingAndGlyphs" textLength="85" x="744" y="69.7549">-String designcao</text><text fill="#000000" font-family="sans-serif" font-size="11" lengthAdjust="spacingAndGlyphs" textLength="97" x="744" y="83.5908">-String descInformal</text><text fill="#000000" font-family="sans-serif" font-size="11" lengthAdjust="spacingAndGlyphs" textLength="97" x="744" y="97.4268">-String descTecnica</text><text fill="#000000" font-family="sans-serif" font-size="11" lengthAdjust="spacingAndGlyphs" textLength="95" x="744" y="111.2627">-Integer duracaoEst</text><text fill="#000000" font-family="sans-serif" font-size="11" lengthAdjust="spacingAndGlyphs" textLength="82" x="744" y="125.0986">-Double custoEst</text>
        <!--MD5=[7e1ce8ab2bf669717f28e918f4971b9a]
class Categoria-->
        <rect fill="#FEFECE" filter="url(#f1qfnnjvxiklbh)" height="67.6719" id="Categoria" style="stroke: #A80036; stroke-width: 1.5;" width="95" x="1015" y="196" />
        <ellipse cx="1034.05" cy="212" fill="#ADD1B2" rx="11" ry="11" style="stroke: #A80036; stroke-width: 1.0;" />
        <path d="M1036.8156,207.875 Q1036.9719,207.6563 1037.1594,207.5469 Q1037.3469,207.4375 1037.5656,207.4375 Q1037.9406,207.4375 1038.175,207.7031 Q1038.4094,207.9531 1038.4094,208.5625 L1038.4094,210.0156 Q1038.4094,210.625 1038.175,210.8906 Q1037.9406,211.1563 1037.5656,211.1563 Q1037.2219,211.1563 1037.0188,210.9531 Q1036.8156,210.7656 1036.7063,210.25 Q1036.6594,209.8906 1036.4719,209.7031 Q1036.1438,209.3281 1035.5344,209.1094 Q1034.925,208.8906 1034.3,208.8906 Q1033.5344,208.8906 1032.8938,209.2188 Q1032.2688,209.5469 1031.7688,210.2969 Q1031.2844,211.0469 1031.2844,212.0781 L1031.2844,213.1719 Q1031.2844,214.4063 1032.175,215.2344 Q1033.0656,216.0469 1034.6594,216.0469 Q1035.5969,216.0469 1036.2531,215.7969 Q1036.6438,215.6406 1037.0656,215.2031 Q1037.3313,214.9375 1037.4719,214.8594 Q1037.6281,214.7813 1037.8313,214.7813 Q1038.1594,214.7813 1038.4094,215.0469 Q1038.675,215.2969 1038.675,215.6406 Q1038.675,215.9844 1038.3313,216.3906 Q1037.8313,216.9688 1037.0344,217.2969 Q1035.9563,217.75 1034.6594,217.75 Q1033.1438,217.75 1031.9406,217.125 Q1030.9563,216.625 1030.2688,215.5625 Q1029.5813,214.4844 1029.5813,213.2031 L1029.5813,212.0469 Q1029.5813,210.7188 1030.1906,209.5781 Q1030.8156,208.4219 1031.9094,207.8125 Q1033.0031,207.1875 1034.2375,207.1875 Q1034.9719,207.1875 1035.6125,207.3594 Q1036.2688,207.5156 1036.8156,207.875 Z " /><text fill="#000000" font-family="sans-serif" font-size="12" lengthAdjust="spacingAndGlyphs" textLength="54" x="1048.95" y="216.9102">Categoria</text>
        <line style="stroke: #A80036; stroke-width: 1.5;" x1="1016" x2="1109" y1="228" y2="228" /><text fill="#000000" font-family="sans-serif" font-size="11" lengthAdjust="spacingAndGlyphs" textLength="43" x="1021" y="243.4189">-String id</text><text fill="#000000" font-family="sans-serif" font-size="11" lengthAdjust="spacingAndGlyphs" textLength="83" x="1021" y="257.2549">-String descricao</text>
        <!--MD5=[ac8682ea5466d223e49472789fb200d2]
class Colaborador-->
        <rect fill="#FEFECE" filter="url(#f1qfnnjvxiklbh)" height="95.3438" id="Colaborador" style="stroke: #A80036; stroke-width: 1.5;" width="101" x="468" y="145.5" />
        <ellipse cx="483" cy="161.5" fill="#ADD1B2" rx="11" ry="11" style="stroke: #A80036; stroke-width: 1.0;" />
        <path d="M485.7656,157.375 Q485.9219,157.1563 486.1094,157.0469 Q486.2969,156.9375 486.5156,156.9375 Q486.8906,156.9375 487.125,157.2031 Q487.3594,157.4531 487.3594,158.0625 L487.3594,159.5156 Q487.3594,160.125 487.125,160.3906 Q486.8906,160.6563 486.5156,160.6563 Q486.1719,160.6563 485.9688,160.4531 Q485.7656,160.2656 485.6563,159.75 Q485.6094,159.3906 485.4219,159.2031 Q485.0938,158.8281 484.4844,158.6094 Q483.875,158.3906 483.25,158.3906 Q482.4844,158.3906 481.8438,158.7188 Q481.2188,159.0469 480.7188,159.7969 Q480.2344,160.5469 480.2344,161.5781 L480.2344,162.6719 Q480.2344,163.9063 481.125,164.7344 Q482.0156,165.5469 483.6094,165.5469 Q484.5469,165.5469 485.2031,165.2969 Q485.5938,165.1406 486.0156,164.7031 Q486.2813,164.4375 486.4219,164.3594 Q486.5781,164.2813 486.7813,164.2813 Q487.1094,164.2813 487.3594,164.5469 Q487.625,164.7969 487.625,165.1406 Q487.625,165.4844 487.2813,165.8906 Q486.7813,166.4688 485.9844,166.7969 Q484.9063,167.25 483.6094,167.25 Q482.0938,167.25 480.8906,166.625 Q479.9063,166.125 479.2188,165.0625 Q478.5313,163.9844 478.5313,162.7031 L478.5313,161.5469 Q478.5313,160.2188 479.1406,159.0781 Q479.7656,157.9219 480.8594,157.3125 Q481.9531,156.6875 483.1875,156.6875 Q483.9219,156.6875 484.5625,156.8594 Q485.2188,157.0156 485.7656,157.375 Z " /><text fill="#000000" font-family="sans-serif" font-size="12" lengthAdjust="spacingAndGlyphs" textLength="69" x="497" y="166.4102">Colaborador</text>
        <line style="stroke: #A80036; stroke-width: 1.5;" x1="469" x2="568" y1="177.5" y2="177.5" /><text fill="#000000" font-family="sans-serif" font-size="11" lengthAdjust="spacingAndGlyphs" textLength="61" x="474" y="192.9189">-String nome</text><text fill="#000000" font-family="sans-serif" font-size="11" lengthAdjust="spacingAndGlyphs" textLength="69" x="474" y="206.7549">-String funcao</text><text fill="#000000" font-family="sans-serif" font-size="11" lengthAdjust="spacingAndGlyphs" textLength="74" x="474" y="220.5908">-String telefone</text><text fill="#000000" font-family="sans-serif" font-size="11" lengthAdjust="spacingAndGlyphs" textLength="59" x="474" y="234.4268">-String email</text>
        <!--MD5=[5dd1d6732c071e710b9290b531f2fa3b]
class Utilizador-->
        <rect fill="#FEFECE" filter="url(#f1qfnnjvxiklbh)" height="81.5078" id="Utilizador" style="stroke: #A80036; stroke-width: 1.5;" width="97" x="744" y="167" />
        <ellipse cx="765.3" cy="183" fill="#ADD1B2" rx="11" ry="11" style="stroke: #A80036; stroke-width: 1.0;" />
        <path d="M768.0656,178.875 Q768.2219,178.6563 768.4094,178.5469 Q768.5969,178.4375 768.8156,178.4375 Q769.1906,178.4375 769.425,178.7031 Q769.6594,178.9531 769.6594,179.5625 L769.6594,181.0156 Q769.6594,181.625 769.425,181.8906 Q769.1906,182.1563 768.8156,182.1563 Q768.4719,182.1563 768.2688,181.9531 Q768.0656,181.7656 767.9563,181.25 Q767.9094,180.8906 767.7219,180.7031 Q767.3938,180.3281 766.7844,180.1094 Q766.175,179.8906 765.55,179.8906 Q764.7844,179.8906 764.1438,180.2188 Q763.5188,180.5469 763.0188,181.2969 Q762.5344,182.0469 762.5344,183.0781 L762.5344,184.1719 Q762.5344,185.4063 763.425,186.2344 Q764.3156,187.0469 765.9094,187.0469 Q766.8469,187.0469 767.5031,186.7969 Q767.8938,186.6406 768.3156,186.2031 Q768.5813,185.9375 768.7219,185.8594 Q768.8781,185.7813 769.0813,185.7813 Q769.4094,185.7813 769.6594,186.0469 Q769.925,186.2969 769.925,186.6406 Q769.925,186.9844 769.5813,187.3906 Q769.0813,187.9688 768.2844,188.2969 Q767.2063,188.75 765.9094,188.75 Q764.3938,188.75 763.1906,188.125 Q762.2063,187.625 761.5188,186.5625 Q760.8313,185.4844 760.8313,184.2031 L760.8313,183.0469 Q760.8313,181.7188 761.4406,180.5781 Q762.0656,179.4219 763.1594,178.8125 Q764.2531,178.1875 765.4875,178.1875 Q766.2219,178.1875 766.8625,178.3594 Q767.5188,178.5156 768.0656,178.875 Z " /><text fill="#000000" font-family="sans-serif" font-size="12" lengthAdjust="spacingAndGlyphs" textLength="51" x="780.7" y="187.9102">Utilizador</text>
        <line style="stroke: #A80036; stroke-width: 1.5;" x1="745" x2="840" y1="199" y2="199" /><text fill="#000000" font-family="sans-serif" font-size="11" lengthAdjust="spacingAndGlyphs" textLength="61" x="750" y="214.4189">-String nome</text><text fill="#000000" font-family="sans-serif" font-size="11" lengthAdjust="spacingAndGlyphs" textLength="59" x="750" y="228.2549">-String email</text><text fill="#000000" font-family="sans-serif" font-size="11" lengthAdjust="spacingAndGlyphs" textLength="85" x="750" y="242.0908">-String password</text>
        <!--MD5=[1c2ad462e362697fcdc859a6327d55c7]
link Plataforma to Organizacao-->
        <path d="M109.133,247.8083 C155.533,235.7194 223.82,217.928 269.894,205.9242 " fill="none" id="Plataforma-Organizacao" style="stroke: #A80036; stroke-width: 1.0;" /><text fill="#000000" font-family="sans-serif" font-size="13" lengthAdjust="spacingAndGlyphs" textLength="86" x="140" y="210.4951">tem registadas</text>
        <polygon fill="#000000" points="229,203.6758,235,206.6758,229,209.6758,229,203.6758" style="stroke: #000000; stroke-width: 1.0;" /><text fill="#000000" font-family="sans-serif" font-size="13" lengthAdjust="spacingAndGlyphs" textLength="7" x="116.8861" y="260.6096">1</text><text fill="#000000" font-family="sans-serif" font-size="13" lengthAdjust="spacingAndGlyphs" textLength="5" x="257.0941" y="222.5052">*</text>
        <!--MD5=[cb8556493ec2c94f9603162dd119feba]
link Plataforma to Categoria-->
        <path d="M109.142,273.7479 C161.46,285.7836 245.652,302 319.5,302 C319.5,302 319.5,302 793.5,302 C873.234,302 961.883,271.9082 1014.6,250.6323 " fill="none" id="Plataforma-Categoria" style="stroke: #A80036; stroke-width: 1.0;" /><text fill="#000000" font-family="sans-serif" font-size="13" lengthAdjust="spacingAndGlyphs" textLength="38" x="493" y="298.4951">possui</text>
        <polygon fill="#000000" points="534,291.6758,540,294.6758,534,297.6758,534,291.6758" style="stroke: #000000; stroke-width: 1.0;" /><text fill="#000000" font-family="sans-serif" font-size="13" lengthAdjust="spacingAndGlyphs" textLength="7" x="116.8963" y="290.1969">1</text><text fill="#000000" font-family="sans-serif" font-size="13" lengthAdjust="spacingAndGlyphs" textLength="5" x="1001.8825" y="268.5638">*</text>
        <!--MD5=[cf2deab2ed1f09cef5b70f58ef028e55]
link Organizacao to Tarefa-->
        <path d="M371.193,168.518 C399.177,155.352 435.03,139.506 468,128 C524.792,108.181 539.92,105.3 599,94 C645.476,85.11 698.921,78.75 737.686,74.819 " fill="none" id="Organizacao-Tarefa" style="stroke: #A80036; stroke-width: 1.0;" /><text fill="#000000" font-family="sans-serif" font-size="13" lengthAdjust="spacingAndGlyphs" textLength="38" x="493" y="95.4951">possui</text>
        <polygon fill="#000000" points="534,88.6758,540,91.6758,534,94.6758,534,88.6758" style="stroke: #000000; stroke-width: 1.0;" /><text fill="#000000" font-family="sans-serif" font-size="13" lengthAdjust="spacingAndGlyphs" textLength="7" x="379.1526" y="179.6049">1</text><text fill="#000000" font-family="sans-serif" font-size="13" lengthAdjust="spacingAndGlyphs" textLength="5" x="724.9844" y="90.0592">*</text>
        <!--MD5=[adb361c9f58e7cbfc456d56136f96fa3]
link Colaborador to Tarefa-->
        <path d="M569.396,174.434 C607.792,159.714 661.908,138.019 708,116 C717.707,111.363 727.868,106.115 737.626,100.865 " fill="none" id="Colaborador-Tarefa" style="stroke: #A80036; stroke-width: 1.0;" />
        <polygon fill="#000000" points="607,105.6758,601,108.6758,607,111.6758,607,105.6758" style="stroke: #000000; stroke-width: 1.0;" /><text fill="#000000" font-family="sans-serif" font-size="13" lengthAdjust="spacingAndGlyphs" textLength="94" x="613" y="112.4951">especificada por</text><text fill="#000000" font-family="sans-serif" font-size="13" lengthAdjust="spacingAndGlyphs" textLength="7" x="577.0454" y="186.4438">1</text><text fill="#000000" font-family="sans-serif" font-size="13" lengthAdjust="spacingAndGlyphs" textLength="5" x="724.9164" y="119.6052">*</text>
        <!--MD5=[bcb5794e8184ce78d304f04a5beabbc0]
link Colaborador to Utilizador-->
        <path d="M569.073,195.734 C618.719,198.472 694.603,202.6564 743.637,205.3605 " fill="none" id="Colaborador-Utilizador" style="stroke: #A80036; stroke-width: 1.0;" /><text fill="#000000" font-family="sans-serif" font-size="13" lengthAdjust="spacingAndGlyphs" textLength="61" x="616.5" y="193.4951">atua como</text>
        <polygon fill="#000000" points="680.5,186.6758,686.5,189.6758,680.5,192.6758,680.5,186.6758" style="stroke: #000000; stroke-width: 1.0;" /><text fill="#000000" font-family="sans-serif" font-size="13" lengthAdjust="spacingAndGlyphs" textLength="22" x="576.962" y="210.6049">0..1</text><text fill="#000000" font-family="sans-serif" font-size="13" lengthAdjust="spacingAndGlyphs" textLength="7" x="728.9462" y="219.7049">1</text>
        <!--MD5=[cc2561a0285988b367253361d2d1973d]
link Tarefa to Categoria-->
        <path d="M847.09,101.994 C896.123,131.268 967.952,174.15 1014.72,202.0708 " fill="none" id="Tarefa-Categoria" style="stroke: #A80036; stroke-width: 1.0;" /><text fill="#000000" font-family="sans-serif" font-size="13" lengthAdjust="spacingAndGlyphs" textLength="93" x="878" y="117.4951">enquadra-se em</text>
        <polygon fill="#000000" points="974,110.6758,980,113.6758,974,116.6758,974,110.6758" style="stroke: #000000; stroke-width: 1.0;" /><text fill="#000000" font-family="sans-serif" font-size="13" lengthAdjust="spacingAndGlyphs" textLength="5" x="855.1183" y="121.1369">*</text><text fill="#000000" font-family="sans-serif" font-size="13" lengthAdjust="spacingAndGlyphs" textLength="7" x="999.8678" y="212.5663">1</text>
        <!--MD5=[567db691f9836c63f305bad1024cbc66]
link Organizacao to Colaborador-->
        <path d="M371.212,193 C400.813,193 438.249,193 467.841,193 " fill="none" id="Organizacao-Colaborador" style="stroke: #A80036; stroke-width: 1.0;" /><text fill="#000000" font-family="sans-serif" font-size="13" lengthAdjust="spacingAndGlyphs" textLength="22" x="402" y="189.4951">tem</text>
        <polygon fill="#000000" points="427,182.6758,433,185.6758,427,188.6758,427,182.6758" style="stroke: #000000; stroke-width: 1.0;" /><text fill="#000000" font-family="sans-serif" font-size="13" lengthAdjust="spacingAndGlyphs" textLength="7" x="378.8356" y="207.6322">1</text><text fill="#000000" font-family="sans-serif" font-size="13" lengthAdjust="spacingAndGlyphs" textLength="20" x="440.0691" y="207.5206">1..*</text>
        <!--MD5=[c2af8e23a716810a3263ae26cfea7be4]
@startuml
hide methods
left to right direction
skinparam classAttributeIconSize 0


class Plataforma {
  -String designacao
}

class Organizacao {
  -String nome
  -String NIF
  -String website
  -String telefone
  -String email
}

class Tarefa {
  -String referencia
  -String designcao
  -String descInformal
  -String descTecnica
  -Integer duracaoEst
  -Double custoEst
}

class Categoria {
  -String id
  -String descricao
}

class Colaborador {
  -String nome
  -String funcao
  -String telefone
  -String email
}

class Utilizador {
  -String nome
  -String email
  -String password
}

Plataforma "1" - - "*" Organizacao : tem registadas >
Plataforma "1" - - "*" Categoria : possui >
Organizacao "1" - - "*" Tarefa: possui >
Colaborador "1" - - "*" Tarefa: especificada por <
Colaborador "0..1" - - "1" Utilizador: atua como >
Tarefa "*" - - "1" Categoria: enquadra-se em >
Organizacao "1" - - "1..*" Colaborador : tem >


@enduml

PlantUML version 1.2020.01(Sun Feb 16 17:40:32 WET 2020)
(GPL source distribution)
Java Runtime: Java(TM) SE Runtime Environment
JVM: Java HotSpot(TM) 64-Bit Server VM
Java Version: 13.0.2+8
Operating System: Windows 10
Default Encoding: Cp1252
Language: pt
Country: PT
-->
    </g>
</svg>