<?xml version="1.0" encoding="UTF-8"?><svg xmlns="http://www.w3.org/2000/svg" xmlns:xlink="http://www.w3.org/1999/xlink" contentScriptType="application/ecmascript" contentStyleType="text/css" height="697px" preserveAspectRatio="none" style="width:609px;height:697px;" version="1.1" viewBox="0 0 609 697" width="609px" zoomAndPan="magnify">
    <defs>
        <filter height="300%" id="f1b4jt4vaq1qen" width="300%" x="-1" y="-1">
            <feGaussianBlur result="blurOut" stdDeviation="2.0"/>
            <feColorMatrix in="blurOut" result="blurOut2" type="matrix" values="0 0 0 0 0 0 0 0 0 0 0 0 0 0 0 0 0 0 .4 0"/>
            <feOffset dx="4.0" dy="4.0" in="blurOut2" result="blurOut3"/>
            <feBlend in="SourceGraphic" in2="blurOut3" mode="normal"/>
        </filter>
    </defs>
    <g>
        <ellipse cx="433.4756" cy="657.3951" fill="#FEFECE" filter="url(#f1b4jt4vaq1qen)" rx="107.4756" ry="23.8951" style="stroke: #A80036; stroke-width: 1.5;"/>
        <text fill="#000000" font-family="sans-serif" font-size="14" lengthAdjust="spacingAndGlyphs" textLength="192" x="337.4756" y="662.1393">UC1 - Registar Organização</text>
        <ellipse cx="433.5991" cy="382.6198" fill="#FEFECE" filter="url(#f1b4jt4vaq1qen)" rx="118.5991" ry="26.1198" style="stroke: #A80036; stroke-width: 1.5;"/>
        <text fill="#000000" font-family="sans-serif" font-size="14" lengthAdjust="spacingAndGlyphs" textLength="216" x="325.5991" y="387.364">UC2 - Definir Área de Atividade</text>
        <ellipse cx="433.3554" cy="472.4711" fill="#FEFECE" filter="url(#f1b4jt4vaq1qen)" rx="130.3554" ry="28.4711" style="stroke: #A80036; stroke-width: 1.5;"/>
        <text fill="#000000" font-family="sans-serif" font-size="14" lengthAdjust="spacingAndGlyphs" textLength="241" x="312.8554" y="477.2152">UC3 - Definir Categoria (de Tarefa)</text>
        <ellipse cx="433.6968" cy="567.5394" fill="#FEFECE" filter="url(#f1b4jt4vaq1qen)" rx="143.1968" ry="31.0394" style="stroke: #A80036; stroke-width: 1.5;"/>
        <text fill="#000000" font-family="sans-serif" font-size="14" lengthAdjust="spacingAndGlyphs" textLength="268" x="299.6968" y="572.2835">UC4 - Especificar Competência Técnica</text>
        <ellipse cx="433.7088" cy="285.6418" fill="#FEFECE" filter="url(#f1b4jt4vaq1qen)" rx="168.7088" ry="36.1418" style="stroke: #A80036; stroke-width: 1.5;"/>
        <text fill="#000000" font-family="sans-serif" font-size="14" lengthAdjust="spacingAndGlyphs" textLength="321" x="273.2088" y="290.3859">UC5 - Especificar Colaborador de Organização</text>
        <ellipse cx="433.6723" cy="167.5345" fill="#FEFECE" filter="url(#f1b4jt4vaq1qen)" rx="95.6723" ry="21.5345" style="stroke: #A80036; stroke-width: 1.5;"/>
        <text fill="#000000" font-family="sans-serif" font-size="14" lengthAdjust="spacingAndGlyphs" textLength="166" x="350.6723" y="172.2786">UC6 - Especificar Tarefa</text>
        <!--entity UNR-->
        <ellipse cx="105.5" cy="626" fill="#FEFECE" filter="url(#f1b4jt4vaq1qen)" rx="8" ry="8" style="stroke: #A80036; stroke-width: 2.0;"/>
        <path d="M105.5,634 L105.5,661 M92.5,642 L118.5,642 M105.5,661 L92.5,676 M105.5,661 L118.5,676 " fill="#FEFECE" filter="url(#f1b4jt4vaq1qen)" style="stroke: #A80036; stroke-width: 2.0;"/>
        <text fill="#000000" font-family="sans-serif" font-size="14" lengthAdjust="spacingAndGlyphs" textLength="170" x="20.5" y="696.5352">Utilizador Não Registado</text>
        <!--entity ADM-->
        <ellipse cx="105.5" cy="441" fill="#FEFECE" filter="url(#f1b4jt4vaq1qen)" rx="8" ry="8" style="stroke: #A80036; stroke-width: 2.0;"/>
        <path d="M105.5,449 L105.5,476 M92.5,457 L118.5,457 M105.5,476 L92.5,491 M105.5,476 L118.5,491 " fill="#FEFECE" filter="url(#f1b4jt4vaq1qen)" style="stroke: #A80036; stroke-width: 2.0;"/>
        <text fill="#000000" font-family="sans-serif" font-size="14" lengthAdjust="spacingAndGlyphs" textLength="100" x="55.5" y="511.5352">Administrativo</text>
        <!--entity GO-->
        <ellipse cx="105.5" cy="254" fill="#FEFECE" filter="url(#f1b4jt4vaq1qen)" rx="8" ry="8" style="stroke: #A80036; stroke-width: 2.0;"/>
        <path d="M105.5,262 L105.5,289 M92.5,270 L118.5,270 M105.5,289 L92.5,304 M105.5,289 L118.5,304 " fill="#FEFECE" filter="url(#f1b4jt4vaq1qen)" style="stroke: #A80036; stroke-width: 2.0;"/>
        <text fill="#000000" font-family="sans-serif" font-size="14" lengthAdjust="spacingAndGlyphs" textLength="157" x="27" y="324.5352">Gestor de Organização</text>
        <!--entity CO-->
        <ellipse cx="105.5" cy="136" fill="#FEFECE" filter="url(#f1b4jt4vaq1qen)" rx="8" ry="8" style="stroke: #A80036; stroke-width: 2.0;"/>
        <path d="M105.5,144 L105.5,171 M92.5,152 L118.5,152 M105.5,171 L92.5,186 M105.5,171 L118.5,186 " fill="#FEFECE" filter="url(#f1b4jt4vaq1qen)" style="stroke: #A80036; stroke-width: 2.0;"/>
        <text fill="#000000" font-family="sans-serif" font-size="14" lengthAdjust="spacingAndGlyphs" textLength="199" x="6" y="206.5352">Colaborador de Organização</text>
        <!--entity FRL-->
        <ellipse cx="105.5" cy="18" fill="#FEFECE" filter="url(#f1b4jt4vaq1qen)" rx="8" ry="8" style="stroke: #A80036; stroke-width: 2.0;"/>
        <path d="M105.5,26 L105.5,53 M92.5,34 L118.5,34 M105.5,53 L92.5,68 M105.5,53 L118.5,68 " fill="#FEFECE" filter="url(#f1b4jt4vaq1qen)" style="stroke: #A80036; stroke-width: 2.0;"/>
        <text fill="#000000" font-family="sans-serif" font-size="14" lengthAdjust="spacingAndGlyphs" textLength="72" x="69.5" y="88.5352">Freelancer</text>
        <polygon fill="#FBFB77" filter="url(#f1b4jt4vaq1qen)" points="334,29,334,69.6211,533,69.6211,533,39,523,29,334,29" style="stroke: #A80036; stroke-width: 1.0;"/>
        <polygon fill="#FBFB77" points="334,29,334,45.5,141.7,49.5,334,53.5,334,69.6211,533,69.6211,533,39,523,29,334,29" style="stroke: #A80036; stroke-width: 1.0;"/>
        <line style="stroke: #A80036; stroke-width: 1.0;" x1="523" x2="523" y1="29" y2="39"/>
        <line style="stroke: #A80036; stroke-width: 1.0;" x1="533" x2="523" y1="39" y2="39"/>
        <text fill="#000000" font-family="sans-serif" font-size="13" lengthAdjust="spacingAndGlyphs" textLength="174" x="340" y="46.5684">Ator identificado mas ainda</text>
        <text fill="#000000" font-family="sans-serif" font-size="13" lengthAdjust="spacingAndGlyphs" textLength="178" x="340" y="61.8789">sem casos de uso concretos</text>
        <path d="M190.88,657.5 C230.49,657.5 278.25,657.5 320.81,657.5 " fill="none" style="stroke: #A80036; stroke-width: 1.0;"/>
        <polygon fill="#A80036" points="325.97,657.5,316.97,653.5,320.97,657.5,316.97,661.5,325.97,657.5" style="stroke: #A80036; stroke-width: 1.0;"/>
        <path d="M155.67,457.88 C186.92,448.67 228.27,436.65 265,426.5 C292.83,418.81 323.35,410.7 350.62,403.56 " fill="none" style="stroke: #A80036; stroke-width: 1.0;"/>
        <polygon fill="#A80036" points="355.67,402.24,345.9493,400.6565,350.8339,403.5097,347.9807,408.3943,355.67,402.24" style="stroke: #A80036; stroke-width: 1.0;"/>
        <path d="M155.66,472.5 C193.41,472.5 247.42,472.5 297.73,472.5 " fill="none" style="stroke: #A80036; stroke-width: 1.0;"/>
        <polygon fill="#A80036" points="302.9,472.5,293.9,468.5,297.9,472.5,293.9,476.5,302.9,472.5" style="stroke: #A80036; stroke-width: 1.0;"/>
        <path d="M155.66,486.83 C204.97,501.19 282.03,523.65 342.35,541.23 " fill="none" style="stroke: #A80036; stroke-width: 1.0;"/>
        <polygon fill="#A80036" points="347.39,542.7,339.87,536.34,342.59,541.3,337.63,544.02,347.39,542.7" style="stroke: #A80036; stroke-width: 1.0;"/>
        <path d="M184.17,285.5 C207.12,285.5 233.22,285.5 259.66,285.5 " fill="none" style="stroke: #A80036; stroke-width: 1.0;"/>
        <polygon fill="#A80036" points="264.95,285.5,255.95,281.5,259.95,285.5,255.95,289.5,264.95,285.5" style="stroke: #A80036; stroke-width: 1.0;"/>
        <path d="M205.2,167.5 C245.46,167.5 291.96,167.5 332.37,167.5 " fill="none" style="stroke: #A80036; stroke-width: 1.0;"/>
        <polygon fill="#A80036" points="337.77,167.5,328.77,163.5,332.77,167.5,328.77,171.5,337.77,167.5" style="stroke: #A80036; stroke-width: 1.0;"/>
        <!--
@startuml

usecase UC1 as "UC1 - Registar Organização"
usecase UC2 as "UC2 - Definir Área de Atividade"
usecase UC3 as "UC3 - Definir Categoria (de Tarefa)"
usecase UC4 as "UC4 - Especificar Competência Técnica"
usecase UC5 as "UC5 - Especificar Colaborador de Organização"
usecase UC6 as "UC6 - Especificar Tarefa"

actor "Utilizador Não Registado" as UNR
actor "Administrativo" as ADM
actor "Gestor de Organização" as GO
actor "Colaborador de Organização" as CO
actor "Freelancer" as FRL

left to right direction
UNR - ->(UC1)

ADM - ->(UC2)
ADM - ->(UC3)
ADM - ->(UC4)

GO - ->(UC5)

CO - -> (UC6)

note right of (FRL)
  Ator identificado mas ainda
  sem casos de uso concretos
end note

@enduml

PlantUML version 2017.11(Wed Apr 19 17:18:59 WEST 2017)
(GPL source distribution)
Java Runtime: Java(TM) SE Runtime Environment
JVM: Java HotSpot(TM) 64-Bit Server VM
Java Version: 1.8.0_112-b16
Operating System: Mac OS X
OS Version: 10.13.6
Default Encoding: UTF-8
Language: en
Country: US
-->
    </g>
</svg>
