<?xml version="1.0" encoding="UTF-8" standalone="no"?><svg xmlns="http://www.w3.org/2000/svg" xmlns:xlink="http://www.w3.org/1999/xlink" contentScriptType="application/ecmascript" contentStyleType="text/css" height="810px" preserveAspectRatio="none" style="width:1744px;height:810px;" version="1.1" viewBox="0 0 1744 810" width="1744px" zoomAndPan="magnify">
    <defs>
        <filter height="300%" id="f1xn9b985gcvh4" width="300%" x="-1" y="-1">
            <feGaussianBlur result="blurOut" stdDeviation="2.0" />
            <feColorMatrix in="blurOut" result="blurOut2" type="matrix" values="0 0 0 0 0 0 0 0 0 0 0 0 0 0 0 0 0 0 .4 0" />
            <feOffset dx="4.0" dy="4.0" in="blurOut2" result="blurOut3" />
            <feBlend in="SourceGraphic" in2="blurOut3" mode="normal" />
        </filter>
    </defs>
    <g>
        <!--MD5=[ecaed46f78f8cfe1e9ce18477649be18]
class Plataforma-->
        <rect fill="#FEFECE" filter="url(#f1xn9b985gcvh4)" height="53.8359" id="Plataforma" style="stroke: #A80036; stroke-width: 1.5;" width="103" x="6" y="226" />
        <ellipse cx="25.95" cy="242" fill="#ADD1B2" rx="11" ry="11" style="stroke: #A80036; stroke-width: 1.0;" />
        <path d="M28.7156,237.875 Q28.8719,237.6563 29.0594,237.5469 Q29.2469,237.4375 29.4656,237.4375 Q29.8406,237.4375 30.075,237.7031 Q30.3094,237.9531 30.3094,238.5625 L30.3094,240.0156 Q30.3094,240.625 30.075,240.8906 Q29.8406,241.1563 29.4656,241.1563 Q29.1219,241.1563 28.9188,240.9531 Q28.7156,240.7656 28.6063,240.25 Q28.5594,239.8906 28.3719,239.7031 Q28.0438,239.3281 27.4344,239.1094 Q26.825,238.8906 26.2,238.8906 Q25.4344,238.8906 24.7938,239.2188 Q24.1688,239.5469 23.6688,240.2969 Q23.1844,241.0469 23.1844,242.0781 L23.1844,243.1719 Q23.1844,244.4063 24.075,245.2344 Q24.9656,246.0469 26.5594,246.0469 Q27.4969,246.0469 28.1531,245.7969 Q28.5438,245.6406 28.9656,245.2031 Q29.2313,244.9375 29.3719,244.8594 Q29.5281,244.7813 29.7313,244.7813 Q30.0594,244.7813 30.3094,245.0469 Q30.575,245.2969 30.575,245.6406 Q30.575,245.9844 30.2313,246.3906 Q29.7313,246.9688 28.9344,247.2969 Q27.8563,247.75 26.5594,247.75 Q25.0438,247.75 23.8406,247.125 Q22.8563,246.625 22.1688,245.5625 Q21.4813,244.4844 21.4813,243.2031 L21.4813,242.0469 Q21.4813,240.7188 22.0906,239.5781 Q22.7156,238.4219 23.8094,237.8125 Q24.9031,237.1875 26.1375,237.1875 Q26.8719,237.1875 27.5125,237.3594 Q28.1688,237.5156 28.7156,237.875 Z " /><text fill="#000000" font-family="sans-serif" font-size="12" lengthAdjust="spacingAndGlyphs" textLength="60" x="41.05" y="246.9102">Plataforma</text>
        <line style="stroke: #A80036; stroke-width: 1.5;" x1="7" x2="108" y1="258" y2="258" /><text fill="#000000" font-family="sans-serif" font-size="11" lengthAdjust="spacingAndGlyphs" textLength="91" x="12" y="273.4189">-String designacao</text>
        <!--MD5=[02456e6632d968d6f68141e5893c6991]
class AreaAtividade-->
        <rect fill="#FEFECE" filter="url(#f1xn9b985gcvh4)" height="81.5078" id="AreaAtividade" style="stroke: #A80036; stroke-width: 1.5;" width="119" x="1614" y="97" />
        <ellipse cx="1634.85" cy="113" fill="#ADD1B2" rx="11" ry="11" style="stroke: #A80036; stroke-width: 1.0;" />
        <path d="M1637.6156,108.875 Q1637.7719,108.6563 1637.9594,108.5469 Q1638.1469,108.4375 1638.3656,108.4375 Q1638.7406,108.4375 1638.975,108.7031 Q1639.2094,108.9531 1639.2094,109.5625 L1639.2094,111.0156 Q1639.2094,111.625 1638.975,111.8906 Q1638.7406,112.1563 1638.3656,112.1563 Q1638.0219,112.1563 1637.8188,111.9531 Q1637.6156,111.7656 1637.5063,111.25 Q1637.4594,110.8906 1637.2719,110.7031 Q1636.9438,110.3281 1636.3344,110.1094 Q1635.725,109.8906 1635.1,109.8906 Q1634.3344,109.8906 1633.6938,110.2188 Q1633.0688,110.5469 1632.5688,111.2969 Q1632.0844,112.0469 1632.0844,113.0781 L1632.0844,114.1719 Q1632.0844,115.4063 1632.975,116.2344 Q1633.8656,117.0469 1635.4594,117.0469 Q1636.3969,117.0469 1637.0531,116.7969 Q1637.4438,116.6406 1637.8656,116.2031 Q1638.1313,115.9375 1638.2719,115.8594 Q1638.4281,115.7813 1638.6313,115.7813 Q1638.9594,115.7813 1639.2094,116.0469 Q1639.475,116.2969 1639.475,116.6406 Q1639.475,116.9844 1639.1313,117.3906 Q1638.6313,117.9688 1637.8344,118.2969 Q1636.7563,118.75 1635.4594,118.75 Q1633.9438,118.75 1632.7406,118.125 Q1631.7563,117.625 1631.0688,116.5625 Q1630.3813,115.4844 1630.3813,114.2031 L1630.3813,113.0469 Q1630.3813,111.7188 1630.9906,110.5781 Q1631.6156,109.4219 1632.7094,108.8125 Q1633.8031,108.1875 1635.0375,108.1875 Q1635.7719,108.1875 1636.4125,108.3594 Q1637.0688,108.5156 1637.6156,108.875 Z " /><text fill="#000000" font-family="sans-serif" font-size="12" lengthAdjust="spacingAndGlyphs" textLength="74" x="1650.15" y="117.9102">AreaAtividade</text>
        <line style="stroke: #A80036; stroke-width: 1.5;" x1="1615" x2="1732" y1="129" y2="129" /><text fill="#000000" font-family="sans-serif" font-size="11" lengthAdjust="spacingAndGlyphs" textLength="67" x="1620" y="144.4189">-String codigo</text><text fill="#000000" font-family="sans-serif" font-size="11" lengthAdjust="spacingAndGlyphs" textLength="88" x="1620" y="158.2549">-String descBreve</text><text fill="#000000" font-family="sans-serif" font-size="11" lengthAdjust="spacingAndGlyphs" textLength="107" x="1620" y="172.0908">-String descDetalhada</text>
        <!--MD5=[a322db5a7ec64d2ff8f2d6cf1831dcec]
class CompetenciaTecnica-->
        <rect fill="#FEFECE" filter="url(#f1xn9b985gcvh4)" height="81.5078" id="CompetenciaTecnica" style="stroke: #A80036; stroke-width: 1.5;" width="149" x="1329" y="97" />
        <ellipse cx="1344" cy="113" fill="#ADD1B2" rx="11" ry="11" style="stroke: #A80036; stroke-width: 1.0;" />
        <path d="M1346.7656,108.875 Q1346.9219,108.6563 1347.1094,108.5469 Q1347.2969,108.4375 1347.5156,108.4375 Q1347.8906,108.4375 1348.125,108.7031 Q1348.3594,108.9531 1348.3594,109.5625 L1348.3594,111.0156 Q1348.3594,111.625 1348.125,111.8906 Q1347.8906,112.1563 1347.5156,112.1563 Q1347.1719,112.1563 1346.9688,111.9531 Q1346.7656,111.7656 1346.6563,111.25 Q1346.6094,110.8906 1346.4219,110.7031 Q1346.0938,110.3281 1345.4844,110.1094 Q1344.875,109.8906 1344.25,109.8906 Q1343.4844,109.8906 1342.8438,110.2188 Q1342.2188,110.5469 1341.7188,111.2969 Q1341.2344,112.0469 1341.2344,113.0781 L1341.2344,114.1719 Q1341.2344,115.4063 1342.125,116.2344 Q1343.0156,117.0469 1344.6094,117.0469 Q1345.5469,117.0469 1346.2031,116.7969 Q1346.5938,116.6406 1347.0156,116.2031 Q1347.2813,115.9375 1347.4219,115.8594 Q1347.5781,115.7813 1347.7813,115.7813 Q1348.1094,115.7813 1348.3594,116.0469 Q1348.625,116.2969 1348.625,116.6406 Q1348.625,116.9844 1348.2813,117.3906 Q1347.7813,117.9688 1346.9844,118.2969 Q1345.9063,118.75 1344.6094,118.75 Q1343.0938,118.75 1341.8906,118.125 Q1340.9063,117.625 1340.2188,116.5625 Q1339.5313,115.4844 1339.5313,114.2031 L1339.5313,113.0469 Q1339.5313,111.7188 1340.1406,110.5781 Q1340.7656,109.4219 1341.8594,108.8125 Q1342.9531,108.1875 1344.1875,108.1875 Q1344.9219,108.1875 1345.5625,108.3594 Q1346.2188,108.5156 1346.7656,108.875 Z " /><text fill="#000000" font-family="sans-serif" font-size="12" lengthAdjust="spacingAndGlyphs" textLength="117" x="1358" y="117.9102">CompetenciaTecnica</text>
        <line style="stroke: #A80036; stroke-width: 1.5;" x1="1330" x2="1477" y1="129" y2="129" /><text fill="#000000" font-family="sans-serif" font-size="11" lengthAdjust="spacingAndGlyphs" textLength="67" x="1335" y="144.4189">-String codigo</text><text fill="#000000" font-family="sans-serif" font-size="11" lengthAdjust="spacingAndGlyphs" textLength="88" x="1335" y="158.2549">-String descBreve</text><text fill="#000000" font-family="sans-serif" font-size="11" lengthAdjust="spacingAndGlyphs" textLength="107" x="1335" y="172.0908">-String descDetalhada</text>
        <!--MD5=[7e1ce8ab2bf669717f28e918f4971b9a]
class Categoria-->
        <rect fill="#FEFECE" filter="url(#f1xn9b985gcvh4)" height="67.6719" id="Categoria" style="stroke: #A80036; stroke-width: 1.5;" width="95" x="818" y="265" />
        <ellipse cx="837.05" cy="281" fill="#ADD1B2" rx="11" ry="11" style="stroke: #A80036; stroke-width: 1.0;" />
        <path d="M839.8156,276.875 Q839.9719,276.6563 840.1594,276.5469 Q840.3469,276.4375 840.5656,276.4375 Q840.9406,276.4375 841.175,276.7031 Q841.4094,276.9531 841.4094,277.5625 L841.4094,279.0156 Q841.4094,279.625 841.175,279.8906 Q840.9406,280.1563 840.5656,280.1563 Q840.2219,280.1563 840.0188,279.9531 Q839.8156,279.7656 839.7063,279.25 Q839.6594,278.8906 839.4719,278.7031 Q839.1438,278.3281 838.5344,278.1094 Q837.925,277.8906 837.3,277.8906 Q836.5344,277.8906 835.8938,278.2188 Q835.2688,278.5469 834.7688,279.2969 Q834.2844,280.0469 834.2844,281.0781 L834.2844,282.1719 Q834.2844,283.4063 835.175,284.2344 Q836.0656,285.0469 837.6594,285.0469 Q838.5969,285.0469 839.2531,284.7969 Q839.6438,284.6406 840.0656,284.2031 Q840.3313,283.9375 840.4719,283.8594 Q840.6281,283.7813 840.8313,283.7813 Q841.1594,283.7813 841.4094,284.0469 Q841.675,284.2969 841.675,284.6406 Q841.675,284.9844 841.3313,285.3906 Q840.8313,285.9688 840.0344,286.2969 Q838.9563,286.75 837.6594,286.75 Q836.1438,286.75 834.9406,286.125 Q833.9563,285.625 833.2688,284.5625 Q832.5813,283.4844 832.5813,282.2031 L832.5813,281.0469 Q832.5813,279.7188 833.1906,278.5781 Q833.8156,277.4219 834.9094,276.8125 Q836.0031,276.1875 837.2375,276.1875 Q837.9719,276.1875 838.6125,276.3594 Q839.2688,276.5156 839.8156,276.875 Z " /><text fill="#000000" font-family="sans-serif" font-size="12" lengthAdjust="spacingAndGlyphs" textLength="54" x="851.95" y="285.9102">Categoria</text>
        <line style="stroke: #A80036; stroke-width: 1.5;" x1="819" x2="912" y1="297" y2="297" /><text fill="#000000" font-family="sans-serif" font-size="11" lengthAdjust="spacingAndGlyphs" textLength="43" x="824" y="312.4189">-String id</text><text fill="#000000" font-family="sans-serif" font-size="11" lengthAdjust="spacingAndGlyphs" textLength="83" x="824" y="326.2549">-String descricao</text>
        <!--MD5=[807977ceb130c090ed5febfb6de2bdea]
class Organizacao-->
        <rect fill="#FEFECE" filter="url(#f1xn9b985gcvh4)" height="109.1797" id="Organizacao" style="stroke: #A80036; stroke-width: 1.5;" width="101" x="270" y="360.5" />
        <ellipse cx="285" cy="376.5" fill="#ADD1B2" rx="11" ry="11" style="stroke: #A80036; stroke-width: 1.0;" />
        <path d="M287.7656,372.375 Q287.9219,372.1563 288.1094,372.0469 Q288.2969,371.9375 288.5156,371.9375 Q288.8906,371.9375 289.125,372.2031 Q289.3594,372.4531 289.3594,373.0625 L289.3594,374.5156 Q289.3594,375.125 289.125,375.3906 Q288.8906,375.6563 288.5156,375.6563 Q288.1719,375.6563 287.9688,375.4531 Q287.7656,375.2656 287.6563,374.75 Q287.6094,374.3906 287.4219,374.2031 Q287.0938,373.8281 286.4844,373.6094 Q285.875,373.3906 285.25,373.3906 Q284.4844,373.3906 283.8438,373.7188 Q283.2188,374.0469 282.7188,374.7969 Q282.2344,375.5469 282.2344,376.5781 L282.2344,377.6719 Q282.2344,378.9063 283.125,379.7344 Q284.0156,380.5469 285.6094,380.5469 Q286.5469,380.5469 287.2031,380.2969 Q287.5938,380.1406 288.0156,379.7031 Q288.2813,379.4375 288.4219,379.3594 Q288.5781,379.2813 288.7813,379.2813 Q289.1094,379.2813 289.3594,379.5469 Q289.625,379.7969 289.625,380.1406 Q289.625,380.4844 289.2813,380.8906 Q288.7813,381.4688 287.9844,381.7969 Q286.9063,382.25 285.6094,382.25 Q284.0938,382.25 282.8906,381.625 Q281.9063,381.125 281.2188,380.0625 Q280.5313,378.9844 280.5313,377.7031 L280.5313,376.5469 Q280.5313,375.2188 281.1406,374.0781 Q281.7656,372.9219 282.8594,372.3125 Q283.9531,371.6875 285.1875,371.6875 Q285.9219,371.6875 286.5625,371.8594 Q287.2188,372.0156 287.7656,372.375 Z " /><text fill="#000000" font-family="sans-serif" font-size="12" lengthAdjust="spacingAndGlyphs" textLength="69" x="299" y="381.4102">Organizacao</text>
        <line style="stroke: #A80036; stroke-width: 1.5;" x1="271" x2="370" y1="392.5" y2="392.5" /><text fill="#000000" font-family="sans-serif" font-size="11" lengthAdjust="spacingAndGlyphs" textLength="61" x="276" y="407.9189">-String nome</text><text fill="#000000" font-family="sans-serif" font-size="11" lengthAdjust="spacingAndGlyphs" textLength="50" x="276" y="421.7549">-String NIF</text><text fill="#000000" font-family="sans-serif" font-size="11" lengthAdjust="spacingAndGlyphs" textLength="74" x="276" y="435.5908">-String website</text><text fill="#000000" font-family="sans-serif" font-size="11" lengthAdjust="spacingAndGlyphs" textLength="74" x="276" y="449.4268">-String telefone</text><text fill="#000000" font-family="sans-serif" font-size="11" lengthAdjust="spacingAndGlyphs" textLength="59" x="276" y="463.2627">-String email</text>
        <!--MD5=[ac8682ea5466d223e49472789fb200d2]
class Colaborador-->
        <rect fill="#FEFECE" filter="url(#f1xn9b985gcvh4)" height="95.3438" id="Colaborador" style="stroke: #A80036; stroke-width: 1.5;" width="101" x="815" y="411.5" />
        <ellipse cx="830" cy="427.5" fill="#ADD1B2" rx="11" ry="11" style="stroke: #A80036; stroke-width: 1.0;" />
        <path d="M832.7656,423.375 Q832.9219,423.1563 833.1094,423.0469 Q833.2969,422.9375 833.5156,422.9375 Q833.8906,422.9375 834.125,423.2031 Q834.3594,423.4531 834.3594,424.0625 L834.3594,425.5156 Q834.3594,426.125 834.125,426.3906 Q833.8906,426.6563 833.5156,426.6563 Q833.1719,426.6563 832.9688,426.4531 Q832.7656,426.2656 832.6563,425.75 Q832.6094,425.3906 832.4219,425.2031 Q832.0938,424.8281 831.4844,424.6094 Q830.875,424.3906 830.25,424.3906 Q829.4844,424.3906 828.8438,424.7188 Q828.2188,425.0469 827.7188,425.7969 Q827.2344,426.5469 827.2344,427.5781 L827.2344,428.6719 Q827.2344,429.9063 828.125,430.7344 Q829.0156,431.5469 830.6094,431.5469 Q831.5469,431.5469 832.2031,431.2969 Q832.5938,431.1406 833.0156,430.7031 Q833.2813,430.4375 833.4219,430.3594 Q833.5781,430.2813 833.7813,430.2813 Q834.1094,430.2813 834.3594,430.5469 Q834.625,430.7969 834.625,431.1406 Q834.625,431.4844 834.2813,431.8906 Q833.7813,432.4688 832.9844,432.7969 Q831.9063,433.25 830.6094,433.25 Q829.0938,433.25 827.8906,432.625 Q826.9063,432.125 826.2188,431.0625 Q825.5313,429.9844 825.5313,428.7031 L825.5313,427.5469 Q825.5313,426.2188 826.1406,425.0781 Q826.7656,423.9219 827.8594,423.3125 Q828.9531,422.6875 830.1875,422.6875 Q830.9219,422.6875 831.5625,422.8594 Q832.2188,423.0156 832.7656,423.375 Z " /><text fill="#000000" font-family="sans-serif" font-size="12" lengthAdjust="spacingAndGlyphs" textLength="69" x="844" y="432.4102">Colaborador</text>
        <line style="stroke: #A80036; stroke-width: 1.5;" x1="816" x2="915" y1="443.5" y2="443.5" /><text fill="#000000" font-family="sans-serif" font-size="11" lengthAdjust="spacingAndGlyphs" textLength="61" x="821" y="458.9189">-String nome</text><text fill="#000000" font-family="sans-serif" font-size="11" lengthAdjust="spacingAndGlyphs" textLength="69" x="821" y="472.7549">-String funcao</text><text fill="#000000" font-family="sans-serif" font-size="11" lengthAdjust="spacingAndGlyphs" textLength="74" x="821" y="486.5908">-String telefone</text><text fill="#000000" font-family="sans-serif" font-size="11" lengthAdjust="spacingAndGlyphs" textLength="59" x="821" y="500.4268">-String email</text>
        <!--MD5=[dcda844062f930f807532403427d3023]
class EnderecoPostal-->
        <rect fill="#FEFECE" filter="url(#f1xn9b985gcvh4)" height="81.5078" id="EnderecoPostal" style="stroke: #A80036; stroke-width: 1.5;" width="120" x="526" y="573" />
        <ellipse cx="541" cy="589" fill="#ADD1B2" rx="11" ry="11" style="stroke: #A80036; stroke-width: 1.0;" />
        <path d="M543.7656,584.875 Q543.9219,584.6563 544.1094,584.5469 Q544.2969,584.4375 544.5156,584.4375 Q544.8906,584.4375 545.125,584.7031 Q545.3594,584.9531 545.3594,585.5625 L545.3594,587.0156 Q545.3594,587.625 545.125,587.8906 Q544.8906,588.1563 544.5156,588.1563 Q544.1719,588.1563 543.9688,587.9531 Q543.7656,587.7656 543.6563,587.25 Q543.6094,586.8906 543.4219,586.7031 Q543.0938,586.3281 542.4844,586.1094 Q541.875,585.8906 541.25,585.8906 Q540.4844,585.8906 539.8438,586.2188 Q539.2188,586.5469 538.7188,587.2969 Q538.2344,588.0469 538.2344,589.0781 L538.2344,590.1719 Q538.2344,591.4063 539.125,592.2344 Q540.0156,593.0469 541.6094,593.0469 Q542.5469,593.0469 543.2031,592.7969 Q543.5938,592.6406 544.0156,592.2031 Q544.2813,591.9375 544.4219,591.8594 Q544.5781,591.7813 544.7813,591.7813 Q545.1094,591.7813 545.3594,592.0469 Q545.625,592.2969 545.625,592.6406 Q545.625,592.9844 545.2813,593.3906 Q544.7813,593.9688 543.9844,594.2969 Q542.9063,594.75 541.6094,594.75 Q540.0938,594.75 538.8906,594.125 Q537.9063,593.625 537.2188,592.5625 Q536.5313,591.4844 536.5313,590.2031 L536.5313,589.0469 Q536.5313,587.7188 537.1406,586.5781 Q537.7656,585.4219 538.8594,584.8125 Q539.9531,584.1875 541.1875,584.1875 Q541.9219,584.1875 542.5625,584.3594 Q543.2188,584.5156 543.7656,584.875 Z " /><text fill="#000000" font-family="sans-serif" font-size="12" lengthAdjust="spacingAndGlyphs" textLength="88" x="555" y="593.9102">EnderecoPostal</text>
        <line style="stroke: #A80036; stroke-width: 1.5;" x1="527" x2="645" y1="605" y2="605" /><text fill="#000000" font-family="sans-serif" font-size="11" lengthAdjust="spacingAndGlyphs" textLength="57" x="532" y="620.4189">-String local</text><text fill="#000000" font-family="sans-serif" font-size="11" lengthAdjust="spacingAndGlyphs" textLength="82" x="532" y="634.2549">-String codPostal</text><text fill="#000000" font-family="sans-serif" font-size="11" lengthAdjust="spacingAndGlyphs" textLength="83" x="532" y="648.0908">-String localidade</text>
        <!--MD5=[b0f240be72c8ea8a063442502d85fc08]
class CaraterCT-->
        <rect fill="#FEFECE" filter="url(#f1xn9b985gcvh4)" height="53.8359" id="CaraterCT" style="stroke: #A80036; stroke-width: 1.5;" width="109" x="1052" y="206" />
        <ellipse cx="1076" cy="222" fill="#ADD1B2" rx="11" ry="11" style="stroke: #A80036; stroke-width: 1.0;" />
        <path d="M1078.7656,217.875 Q1078.9219,217.6563 1079.1094,217.5469 Q1079.2969,217.4375 1079.5156,217.4375 Q1079.8906,217.4375 1080.125,217.7031 Q1080.3594,217.9531 1080.3594,218.5625 L1080.3594,220.0156 Q1080.3594,220.625 1080.125,220.8906 Q1079.8906,221.1563 1079.5156,221.1563 Q1079.1719,221.1563 1078.9688,220.9531 Q1078.7656,220.7656 1078.6563,220.25 Q1078.6094,219.8906 1078.4219,219.7031 Q1078.0938,219.3281 1077.4844,219.1094 Q1076.875,218.8906 1076.25,218.8906 Q1075.4844,218.8906 1074.8438,219.2188 Q1074.2188,219.5469 1073.7188,220.2969 Q1073.2344,221.0469 1073.2344,222.0781 L1073.2344,223.1719 Q1073.2344,224.4063 1074.125,225.2344 Q1075.0156,226.0469 1076.6094,226.0469 Q1077.5469,226.0469 1078.2031,225.7969 Q1078.5938,225.6406 1079.0156,225.2031 Q1079.2813,224.9375 1079.4219,224.8594 Q1079.5781,224.7813 1079.7813,224.7813 Q1080.1094,224.7813 1080.3594,225.0469 Q1080.625,225.2969 1080.625,225.6406 Q1080.625,225.9844 1080.2813,226.3906 Q1079.7813,226.9688 1078.9844,227.2969 Q1077.9063,227.75 1076.6094,227.75 Q1075.0938,227.75 1073.8906,227.125 Q1072.9063,226.625 1072.2188,225.5625 Q1071.5313,224.4844 1071.5313,223.2031 L1071.5313,222.0469 Q1071.5313,220.7188 1072.1406,219.5781 Q1072.7656,218.4219 1073.8594,217.8125 Q1074.9531,217.1875 1076.1875,217.1875 Q1076.9219,217.1875 1077.5625,217.3594 Q1078.2188,217.5156 1078.7656,217.875 Z " /><text fill="#000000" font-family="sans-serif" font-size="12" lengthAdjust="spacingAndGlyphs" textLength="57" x="1092" y="226.9102">CaraterCT</text>
        <line style="stroke: #A80036; stroke-width: 1.5;" x1="1053" x2="1160" y1="238" y2="238" /><text fill="#000000" font-family="sans-serif" font-size="11" lengthAdjust="spacingAndGlyphs" textLength="97" x="1058" y="253.4189">-Boolean obrigatoria</text>
        <!--MD5=[27c2d4bbe9f7b9d3b0ea2797cc54308a]
class Tarefa-->
        <rect fill="#FEFECE" filter="url(#f1xn9b985gcvh4)" height="123.0156" id="Tarefa" style="stroke: #A80036; stroke-width: 1.5;" width="109" x="531.5" y="238.5" />
        <ellipse cx="565.4" cy="254.5" fill="#ADD1B2" rx="11" ry="11" style="stroke: #A80036; stroke-width: 1.0;" />
        <path d="M568.1656,250.375 Q568.3219,250.1563 568.5094,250.0469 Q568.6969,249.9375 568.9156,249.9375 Q569.2906,249.9375 569.525,250.2031 Q569.7594,250.4531 569.7594,251.0625 L569.7594,252.5156 Q569.7594,253.125 569.525,253.3906 Q569.2906,253.6563 568.9156,253.6563 Q568.5719,253.6563 568.3688,253.4531 Q568.1656,253.2656 568.0563,252.75 Q568.0094,252.3906 567.8219,252.2031 Q567.4938,251.8281 566.8844,251.6094 Q566.275,251.3906 565.65,251.3906 Q564.8844,251.3906 564.2438,251.7188 Q563.6188,252.0469 563.1188,252.7969 Q562.6344,253.5469 562.6344,254.5781 L562.6344,255.6719 Q562.6344,256.9063 563.525,257.7344 Q564.4156,258.5469 566.0094,258.5469 Q566.9469,258.5469 567.6031,258.2969 Q567.9938,258.1406 568.4156,257.7031 Q568.6813,257.4375 568.8219,257.3594 Q568.9781,257.2813 569.1813,257.2813 Q569.5094,257.2813 569.7594,257.5469 Q570.025,257.7969 570.025,258.1406 Q570.025,258.4844 569.6813,258.8906 Q569.1813,259.4688 568.3844,259.7969 Q567.3063,260.25 566.0094,260.25 Q564.4938,260.25 563.2906,259.625 Q562.3063,259.125 561.6188,258.0625 Q560.9313,256.9844 560.9313,255.7031 L560.9313,254.5469 Q560.9313,253.2188 561.5406,252.0781 Q562.1656,250.9219 563.2594,250.3125 Q564.3531,249.6875 565.5875,249.6875 Q566.3219,249.6875 566.9625,249.8594 Q567.6188,250.0156 568.1656,250.375 Z " /><text fill="#000000" font-family="sans-serif" font-size="12" lengthAdjust="spacingAndGlyphs" textLength="35" x="583.6" y="259.4102">Tarefa</text>
        <line style="stroke: #A80036; stroke-width: 1.5;" x1="532.5" x2="639.5" y1="270.5" y2="270.5" /><text fill="#000000" font-family="sans-serif" font-size="11" lengthAdjust="spacingAndGlyphs" textLength="85" x="537.5" y="285.9189">-String referencia</text><text fill="#000000" font-family="sans-serif" font-size="11" lengthAdjust="spacingAndGlyphs" textLength="91" x="537.5" y="299.7549">-String designacao</text><text fill="#000000" font-family="sans-serif" font-size="11" lengthAdjust="spacingAndGlyphs" textLength="97" x="537.5" y="313.5908">-String descInformal</text><text fill="#000000" font-family="sans-serif" font-size="11" lengthAdjust="spacingAndGlyphs" textLength="97" x="537.5" y="327.4268">-String descTecnica</text><text fill="#000000" font-family="sans-serif" font-size="11" lengthAdjust="spacingAndGlyphs" textLength="95" x="537.5" y="341.2627">-Integer duracaoEst</text><text fill="#000000" font-family="sans-serif" font-size="11" lengthAdjust="spacingAndGlyphs" textLength="82" x="537.5" y="355.0986">-Double custoEst</text>
        <!--MD5=[1f687b5315377fe49fca59b457947463]
class Freelancer-->
        <rect fill="#FEFECE" filter="url(#f1xn9b985gcvh4)" height="40" id="Freelancer" style="stroke: #A80036; stroke-width: 1.5;" width="91" x="403" y="671" />
        <ellipse cx="418" cy="687" fill="#ADD1B2" rx="11" ry="11" style="stroke: #A80036; stroke-width: 1.0;" />
        <path d="M420.7656,682.875 Q420.9219,682.6563 421.1094,682.5469 Q421.2969,682.4375 421.5156,682.4375 Q421.8906,682.4375 422.125,682.7031 Q422.3594,682.9531 422.3594,683.5625 L422.3594,685.0156 Q422.3594,685.625 422.125,685.8906 Q421.8906,686.1563 421.5156,686.1563 Q421.1719,686.1563 420.9688,685.9531 Q420.7656,685.7656 420.6563,685.25 Q420.6094,684.8906 420.4219,684.7031 Q420.0938,684.3281 419.4844,684.1094 Q418.875,683.8906 418.25,683.8906 Q417.4844,683.8906 416.8438,684.2188 Q416.2188,684.5469 415.7188,685.2969 Q415.2344,686.0469 415.2344,687.0781 L415.2344,688.1719 Q415.2344,689.4063 416.125,690.2344 Q417.0156,691.0469 418.6094,691.0469 Q419.5469,691.0469 420.2031,690.7969 Q420.5938,690.6406 421.0156,690.2031 Q421.2813,689.9375 421.4219,689.8594 Q421.5781,689.7813 421.7813,689.7813 Q422.1094,689.7813 422.3594,690.0469 Q422.625,690.2969 422.625,690.6406 Q422.625,690.9844 422.2813,691.3906 Q421.7813,691.9688 420.9844,692.2969 Q419.9063,692.75 418.6094,692.75 Q417.0938,692.75 415.8906,692.125 Q414.9063,691.625 414.2188,690.5625 Q413.5313,689.4844 413.5313,688.2031 L413.5313,687.0469 Q413.5313,685.7188 414.1406,684.5781 Q414.7656,683.4219 415.8594,682.8125 Q416.9531,682.1875 418.1875,682.1875 Q418.9219,682.1875 419.5625,682.3594 Q420.2188,682.5156 420.7656,682.875 Z " /><text fill="#000000" font-family="sans-serif" font-size="12" lengthAdjust="spacingAndGlyphs" textLength="59" x="432" y="691.9102">Freelancer</text>
        <line style="stroke: #A80036; stroke-width: 1.5;" x1="404" x2="493" y1="703" y2="703" />
        <!--MD5=[7bb95b5cb1c5d9061d1eedf13c97b467]
class Administrativo-->
        <rect fill="#FEFECE" filter="url(#f1xn9b985gcvh4)" height="40" id="Administrativo" style="stroke: #A80036; stroke-width: 1.5;" width="109" x="676" y="759" />
        <ellipse cx="691" cy="775" fill="#ADD1B2" rx="11" ry="11" style="stroke: #A80036; stroke-width: 1.0;" />
        <path d="M693.7656,770.875 Q693.9219,770.6563 694.1094,770.5469 Q694.2969,770.4375 694.5156,770.4375 Q694.8906,770.4375 695.125,770.7031 Q695.3594,770.9531 695.3594,771.5625 L695.3594,773.0156 Q695.3594,773.625 695.125,773.8906 Q694.8906,774.1563 694.5156,774.1563 Q694.1719,774.1563 693.9688,773.9531 Q693.7656,773.7656 693.6563,773.25 Q693.6094,772.8906 693.4219,772.7031 Q693.0938,772.3281 692.4844,772.1094 Q691.875,771.8906 691.25,771.8906 Q690.4844,771.8906 689.8438,772.2188 Q689.2188,772.5469 688.7188,773.2969 Q688.2344,774.0469 688.2344,775.0781 L688.2344,776.1719 Q688.2344,777.4063 689.125,778.2344 Q690.0156,779.0469 691.6094,779.0469 Q692.5469,779.0469 693.2031,778.7969 Q693.5938,778.6406 694.0156,778.2031 Q694.2813,777.9375 694.4219,777.8594 Q694.5781,777.7813 694.7813,777.7813 Q695.1094,777.7813 695.3594,778.0469 Q695.625,778.2969 695.625,778.6406 Q695.625,778.9844 695.2813,779.3906 Q694.7813,779.9688 693.9844,780.2969 Q692.9063,780.75 691.6094,780.75 Q690.0938,780.75 688.8906,780.125 Q687.9063,779.625 687.2188,778.5625 Q686.5313,777.4844 686.5313,776.2031 L686.5313,775.0469 Q686.5313,773.7188 687.1406,772.5781 Q687.7656,771.4219 688.8594,770.8125 Q689.9531,770.1875 691.1875,770.1875 Q691.9219,770.1875 692.5625,770.3594 Q693.2188,770.5156 693.7656,770.875 Z " /><text fill="#000000" font-family="sans-serif" font-size="12" lengthAdjust="spacingAndGlyphs" textLength="77" x="705" y="779.9102">Administrativo</text>
        <line style="stroke: #A80036; stroke-width: 1.5;" x1="677" x2="784" y1="791" y2="791" />
        <!--MD5=[5dd1d6732c071e710b9290b531f2fa3b]
class Utilizador-->
        <rect fill="#FEFECE" filter="url(#f1xn9b985gcvh4)" height="81.5078" id="Utilizador" style="stroke: #A80036; stroke-width: 1.5;" width="97" x="1058" y="667" />
        <ellipse cx="1079.3" cy="683" fill="#ADD1B2" rx="11" ry="11" style="stroke: #A80036; stroke-width: 1.0;" />
        <path d="M1082.0656,678.875 Q1082.2219,678.6563 1082.4094,678.5469 Q1082.5969,678.4375 1082.8156,678.4375 Q1083.1906,678.4375 1083.425,678.7031 Q1083.6594,678.9531 1083.6594,679.5625 L1083.6594,681.0156 Q1083.6594,681.625 1083.425,681.8906 Q1083.1906,682.1563 1082.8156,682.1563 Q1082.4719,682.1563 1082.2688,681.9531 Q1082.0656,681.7656 1081.9563,681.25 Q1081.9094,680.8906 1081.7219,680.7031 Q1081.3938,680.3281 1080.7844,680.1094 Q1080.175,679.8906 1079.55,679.8906 Q1078.7844,679.8906 1078.1438,680.2188 Q1077.5188,680.5469 1077.0188,681.2969 Q1076.5344,682.0469 1076.5344,683.0781 L1076.5344,684.1719 Q1076.5344,685.4063 1077.425,686.2344 Q1078.3156,687.0469 1079.9094,687.0469 Q1080.8469,687.0469 1081.5031,686.7969 Q1081.8938,686.6406 1082.3156,686.2031 Q1082.5813,685.9375 1082.7219,685.8594 Q1082.8781,685.7813 1083.0813,685.7813 Q1083.4094,685.7813 1083.6594,686.0469 Q1083.925,686.2969 1083.925,686.6406 Q1083.925,686.9844 1083.5813,687.3906 Q1083.0813,687.9688 1082.2844,688.2969 Q1081.2063,688.75 1079.9094,688.75 Q1078.3938,688.75 1077.1906,688.125 Q1076.2063,687.625 1075.5188,686.5625 Q1074.8313,685.4844 1074.8313,684.2031 L1074.8313,683.0469 Q1074.8313,681.7188 1075.4406,680.5781 Q1076.0656,679.4219 1077.1594,678.8125 Q1078.2531,678.1875 1079.4875,678.1875 Q1080.2219,678.1875 1080.8625,678.3594 Q1081.5188,678.5156 1082.0656,678.875 Z " /><text fill="#000000" font-family="sans-serif" font-size="12" lengthAdjust="spacingAndGlyphs" textLength="51" x="1094.7" y="687.9102">Utilizador</text>
        <line style="stroke: #A80036; stroke-width: 1.5;" x1="1059" x2="1154" y1="699" y2="699" /><text fill="#000000" font-family="sans-serif" font-size="11" lengthAdjust="spacingAndGlyphs" textLength="61" x="1064" y="714.4189">-String nome</text><text fill="#000000" font-family="sans-serif" font-size="11" lengthAdjust="spacingAndGlyphs" textLength="59" x="1064" y="728.2549">-String email</text><text fill="#000000" font-family="sans-serif" font-size="11" lengthAdjust="spacingAndGlyphs" textLength="85" x="1064" y="742.0908">-String password</text>
        <ellipse cx="1106.5" cy="169" fill="#000000" rx="2" ry="2" style="stroke: none; stroke-width: 1.0;" />
        <!--MD5=[718b46c9a1975c175f4073d63ce5ccba]
link Plataforma to AreaAtividade-->
        <path d="M73.0051,225.618 C107.193,165.243 199.094,26 319.5,26 C319.5,26 319.5,26 1404.5,26 C1481.28,26 1561.52,65.614 1613.95,97.724 " fill="none" id="Plataforma-AreaAtividade" style="stroke: #A80036; stroke-width: 1.0;" /><text fill="#000000" font-family="sans-serif" font-size="13" lengthAdjust="spacingAndGlyphs" textLength="38" x="840" y="22.4951">possui</text>
        <polygon fill="#000000" points="881,15.6758,887,18.6758,881,21.6758,881,15.6758" style="stroke: #000000; stroke-width: 1.0;" /><text fill="#000000" font-family="sans-serif" font-size="13" lengthAdjust="spacingAndGlyphs" textLength="7" x="68.7813" y="214.9906">1</text><text fill="#000000" font-family="sans-serif" font-size="13" lengthAdjust="spacingAndGlyphs" textLength="5" x="1600.9998" y="107.1378">*</text>
        <!--MD5=[a77d152358ce76c19672aacd9fb0ada1]
link Plataforma to CompetenciaTecnica-->
        <path d="M86.7762,225.869 C132.041,185.418 225.295,114 319.5,114 C319.5,114 319.5,114 1107.5,114 C1183.16,114 1269.39,121.94 1328.99,128.687 " fill="none" id="Plataforma-CompetenciaTecnica" style="stroke: #A80036; stroke-width: 1.0;" /><text fill="#000000" font-family="sans-serif" font-size="13" lengthAdjust="spacingAndGlyphs" textLength="38" x="705" y="110.4951">possui</text>
        <polygon fill="#000000" points="746,103.6758,752,106.6758,746,109.6758,746,103.6758" style="stroke: #000000; stroke-width: 1.0;" /><text fill="#000000" font-family="sans-serif" font-size="13" lengthAdjust="spacingAndGlyphs" textLength="7" x="85.7369" y="215.2997">1</text><text fill="#000000" font-family="sans-serif" font-size="13" lengthAdjust="spacingAndGlyphs" textLength="5" x="1316.0483" y="142.0902">*</text>
        <!--MD5=[1c2ad462e362697fcdc859a6327d55c7]
link Plataforma to Organizacao-->
        <path d="M102.1855,280.115 C148.478,308.848 221.445,354.138 269.877,384.199 " fill="none" id="Plataforma-Organizacao" style="stroke: #A80036; stroke-width: 1.0;" /><text fill="#000000" font-family="sans-serif" font-size="13" lengthAdjust="spacingAndGlyphs" textLength="86" x="140" y="301.4951">tem registadas</text>
        <polygon fill="#000000" points="229,294.6758,235,297.6758,229,300.6758,229,294.6758" style="stroke: #000000; stroke-width: 1.0;" /><text fill="#000000" font-family="sans-serif" font-size="13" lengthAdjust="spacingAndGlyphs" textLength="7" x="104.1948" y="301.3479">1</text><text fill="#000000" font-family="sans-serif" font-size="13" lengthAdjust="spacingAndGlyphs" textLength="5" x="257.0746" y="394.3578">*</text>
        <!--MD5=[39c0de7668d8063a4eb96c23050b3de2]
link Plataforma to Freelancer-->
        <path d="M72.042,280.179 C86.7047,308.413 111.686,353.242 139,388 C231.77,506.054 367.881,624.585 422.989,670.793 " fill="none" id="Plataforma-Freelancer" style="stroke: #A80036; stroke-width: 1.0;" /><text fill="#000000" font-family="sans-serif" font-size="13" lengthAdjust="spacingAndGlyphs" textLength="47" x="159.5" y="384.4951">tem/usa</text>
        <polygon fill="#000000" points="178.5,393.3516,181.5,399.3516,184.5,393.3516,178.5,393.3516" style="stroke: #000000; stroke-width: 1.0;" /><text fill="#000000" font-family="sans-serif" font-size="13" lengthAdjust="spacingAndGlyphs" textLength="7" x="67.4574" y="301.4259">1</text><text fill="#000000" font-family="sans-serif" font-size="13" lengthAdjust="spacingAndGlyphs" textLength="5" x="409.7608" y="660.0539">*</text>
        <!--MD5=[b585ec1f109bee2e6a0accf9e50b3199]
link Plataforma to Administrativo-->
        <path d="M63.2855,280.177 C72.528,327.959 95.834,429.05 139,504 C182.345,579.26 203.137,593.572 270,649 C322.521,692.538 336.907,705.6302 401,729 C493.813,762.8421 609.452,773.7816 675.846,777.3157 " fill="none" id="Plataforma-Administrativo" style="stroke: #A80036; stroke-width: 1.0;" /><text fill="#000000" font-family="sans-serif" font-size="13" lengthAdjust="spacingAndGlyphs" textLength="22" x="303" y="645.4951">tem</text>
        <polygon fill="#000000" points="328,638.6758,334,641.6758,328,644.6758,328,638.6758" style="stroke: #000000; stroke-width: 1.0;" /><text fill="#000000" font-family="sans-serif" font-size="13" lengthAdjust="spacingAndGlyphs" textLength="7" x="56.7855" y="301.4235">1</text><text fill="#000000" font-family="sans-serif" font-size="13" lengthAdjust="spacingAndGlyphs" textLength="5" x="663.1659" y="791.6831">*</text>
        <!--MD5=[cb8556493ec2c94f9603162dd119feba]
link Plataforma to Categoria-->
        <path d="M109.243,242.627 C211.589,223.373 449.732,187.018 646,221 C707.318,231.617 774.208,257.829 817.61,276.945 " fill="none" id="Plataforma-Categoria" style="stroke: #A80036; stroke-width: 1.0;" /><text fill="#000000" font-family="sans-serif" font-size="13" lengthAdjust="spacingAndGlyphs" textLength="38" x="423" y="203.4951">possui</text>
        <polygon fill="#000000" points="464,196.6758,470,199.6758,464,202.6758,464,196.6758" style="stroke: #000000; stroke-width: 1.0;" /><text fill="#000000" font-family="sans-serif" font-size="13" lengthAdjust="spacingAndGlyphs" textLength="7" x="117.0115" y="255.8247">1</text><text fill="#000000" font-family="sans-serif" font-size="13" lengthAdjust="spacingAndGlyphs" textLength="5" x="804.894" y="288.34">*</text>
        <!--MD5=[567db691f9836c63f305bad1024cbc66]
link Organizacao to Colaborador-->
        <path d="M371.39,434.577 C412.22,449.446 471.861,468.563 526,476 C628.015,490.013 748.737,476.923 814.919,467.237 " fill="none" id="Organizacao-Colaborador" style="stroke: #A80036; stroke-width: 1.0;" /><text fill="#000000" font-family="sans-serif" font-size="13" lengthAdjust="spacingAndGlyphs" textLength="22" x="568.5" y="472.4951">tem</text>
        <polygon fill="#000000" points="593.5,465.6758,599.5,468.6758,593.5,471.6758,593.5,465.6758" style="stroke: #000000; stroke-width: 1.0;" /><text fill="#000000" font-family="sans-serif" font-size="13" lengthAdjust="spacingAndGlyphs" textLength="7" x="379.0386" y="451.9622">1</text><text fill="#000000" font-family="sans-serif" font-size="13" lengthAdjust="spacingAndGlyphs" textLength="20" x="787.1571" y="482.813">1..*</text>
        <!--MD5=[567db691f9836c63f305bad1024cbc66]
link Organizacao to Colaborador-->
        <path d="M371.281,418.147 C456.22,423.653 634.561,435.81 785,450 C794.68,450.913 805.011,452 814.912,453.097 " fill="none" id="Organizacao-Colaborador-1" style="stroke: #A80036; stroke-width: 1.0;" /><text fill="#000000" font-family="sans-serif" font-size="13" lengthAdjust="spacingAndGlyphs" textLength="62" x="548.5" y="424.4951">tem gestor</text>
        <polygon fill="#000000" points="613.5,417.6758,619.5,420.6758,613.5,423.6758,613.5,417.6758" style="stroke: #000000; stroke-width: 1.0;" /><text fill="#000000" font-family="sans-serif" font-size="13" lengthAdjust="spacingAndGlyphs" textLength="7" x="378.9143" y="433.2217">1</text><text fill="#000000" font-family="sans-serif" font-size="13" lengthAdjust="spacingAndGlyphs" textLength="7" x="799.9678" y="448.5507">1</text>
        <!--MD5=[ca49ec1e86bb5e8c049c02c54bfc3088]
link Organizacao to EnderecoPostal-->
        <path d="M343.826,469.57 C357.044,496.059 376.117,526.506 401,547 C436.952,576.609 487.12,593.716 525.992,603.221 " fill="none" id="Organizacao-EnderecoPostal" style="stroke: #A80036; stroke-width: 1.0;" /><text fill="#000000" font-family="sans-serif" font-size="13" lengthAdjust="spacingAndGlyphs" textLength="80" x="402" y="543.4951">localizada em</text>
        <polygon fill="#000000" points="485,536.6758,491,539.6758,485,542.6758,485,536.6758" style="stroke: #000000; stroke-width: 1.0;" /><text fill="#000000" font-family="sans-serif" font-size="13" lengthAdjust="spacingAndGlyphs" textLength="7" x="339.3662" y="491.0929">1</text><text fill="#000000" font-family="sans-serif" font-size="13" lengthAdjust="spacingAndGlyphs" textLength="7" x="510.855" y="616.4141">1</text>
        <!--MD5=[cf2deab2ed1f09cef5b70f58ef028e55]
link Organizacao to Tarefa-->
        <path d="M371.062,393.369 C416.681,373.46 484.188,343.998 531.126,323.513 " fill="none" id="Organizacao-Tarefa" style="stroke: #A80036; stroke-width: 1.0;" /><text fill="#000000" font-family="sans-serif" font-size="13" lengthAdjust="spacingAndGlyphs" textLength="38" x="423" y="336.4951">possui</text>
        <polygon fill="#000000" points="464,329.6758,470,332.6758,464,335.6758,464,329.6758" style="stroke: #000000; stroke-width: 1.0;" /><text fill="#000000" font-family="sans-serif" font-size="13" lengthAdjust="spacingAndGlyphs" textLength="7" x="379.0024" y="404.8747">1</text><text fill="#000000" font-family="sans-serif" font-size="13" lengthAdjust="spacingAndGlyphs" textLength="5" x="518.4164" y="341.2652">*</text>
        <!--MD5=[e538c9efa8de58386edc6206f3c58807]
link CompetenciaTecnica to AreaAtividade-->
        <path d="M1478.09,138 C1520.86,138 1574.01,138 1613.92,138 " fill="none" id="CompetenciaTecnica-AreaAtividade" style="stroke: #A80036; stroke-width: 1.0;" /><text fill="#000000" font-family="sans-serif" font-size="13" lengthAdjust="spacingAndGlyphs" textLength="61" x="1509" y="134.4951">referente a</text>
        <polygon fill="#000000" points="1573,127.6758,1579,130.6758,1573,133.6758,1573,127.6758" style="stroke: #000000; stroke-width: 1.0;" /><text fill="#000000" font-family="sans-serif" font-size="13" lengthAdjust="spacingAndGlyphs" textLength="5" x="1486.0399" y="152.3636">*</text><text fill="#000000" font-family="sans-serif" font-size="13" lengthAdjust="spacingAndGlyphs" textLength="7" x="1598.8379" y="152.5742">1</text>
        <!--MD5=[333932e5e4606ec9852f0cecc179b212]
link Categoria to AreaAtividade-->
        <path d="M913.214,298.243 C971.544,296.709 1074.22,292.064 1161,278 C1304.54,254.735 1337.94,236.115 1478,197 C1523.88,184.186 1575.46,168.479 1613.97,156.494 " fill="none" id="Categoria-AreaAtividade" style="stroke: #A80036; stroke-width: 1.0;" /><text fill="#000000" font-family="sans-serif" font-size="13" lengthAdjust="spacingAndGlyphs" textLength="93" x="1192" y="245.4951">enquadra-se em</text>
        <polygon fill="#000000" points="1288,238.6758,1294,241.6758,1288,244.6758,1288,238.6758" style="stroke: #000000; stroke-width: 1.0;" /><text fill="#000000" font-family="sans-serif" font-size="13" lengthAdjust="spacingAndGlyphs" textLength="7" x="921.0561" y="312.8992">1</text><text fill="#000000" font-family="sans-serif" font-size="13" lengthAdjust="spacingAndGlyphs" textLength="7" x="1598.8943" y="173.4377">1</text>
        <!--MD5=[c5c13fe1e461ef13be63c593985f8b89]
link Categoria to apoint27-->
        <path d="M913.263,268.115 C950.024,244.619 1003.032,212.443 1052,189 C1072.03,179.409 1097.97,171.29 1104.14,169.41 " fill="none" id="Categoria-apoint27" style="stroke: #A80036; stroke-width: 1.0;" /><text fill="#000000" font-family="sans-serif" font-size="13" lengthAdjust="spacingAndGlyphs" textLength="36" x="959.5" y="200.4951">requer</text>
        <polygon fill="#000000" points="998.5,193.6758,1004.5,196.6758,998.5,199.6758,998.5,193.6758" style="stroke: #000000; stroke-width: 1.0;" /><text fill="#000000" font-family="sans-serif" font-size="13" lengthAdjust="spacingAndGlyphs" textLength="5" x="920.9595" y="278.1579">*</text>
        <!--MD5=[0178ccf738ae66c975cb3a0705698aab]
link apoint27 to CompetenciaTecnica-->
        <path d="M1108.57,168.888 C1121.35,167.544 1246.06,154.439 1328.88,145.736 " fill="none" id="apoint27-CompetenciaTecnica" style="stroke: #A80036; stroke-width: 1.0;" /><text fill="#000000" font-family="sans-serif" font-size="13" lengthAdjust="spacingAndGlyphs" textLength="5" x="1315.927" y="160.8974">*</text>
        <!--MD5=[f8d921d8c2f9a0182dd21970956c5cb8]
link apoint27 to CaraterCT-->
        <path d="M1106.5,171.281 C1106.5,182.687 1106.5,194.094 1106.5,205.5 " fill="none" id="apoint27-CaraterCT" style="stroke: #A80036; stroke-width: 1.0; stroke-dasharray: 7.0,7.0;" />
        <!--MD5=[cc2561a0285988b367253361d2d1973d]
link Tarefa to Categoria-->
        <path d="M640.505,299.807 C691.849,299.622 768.619,299.346 817.622,299.169 " fill="none" id="Tarefa-Categoria" style="stroke: #A80036; stroke-width: 1.0;" /><text fill="#000000" font-family="sans-serif" font-size="13" lengthAdjust="spacingAndGlyphs" textLength="93" x="677.5" y="295.4951">enquadra-se em</text>
        <polygon fill="#000000" points="773.5,288.6758,779.5,291.6758,773.5,294.6758,773.5,288.6758" style="stroke: #000000; stroke-width: 1.0;" /><text fill="#000000" font-family="sans-serif" font-size="13" lengthAdjust="spacingAndGlyphs" textLength="5" x="648.5213" y="314.4236">*</text><text fill="#000000" font-family="sans-serif" font-size="13" lengthAdjust="spacingAndGlyphs" textLength="7" x="803.0759" y="313.9139">1</text>
        <!--MD5=[ebe0b2adceebb6ee2636cb1948c7c8a9]
link Tarefa to Colaborador-->
        <path d="M640.784,322.246 C681.589,340.024 738.414,366.742 785,396 C794.992,402.275 805.199,409.581 814.824,416.948 " fill="none" id="Tarefa-Colaborador" style="stroke: #A80036; stroke-width: 1.0;" /><text fill="#000000" font-family="sans-serif" font-size="13" lengthAdjust="spacingAndGlyphs" textLength="94" x="677" y="335.4951">especificada por</text>
        <polygon fill="#000000" points="774,328.6758,780,331.6758,774,334.6758,774,328.6758" style="stroke: #000000; stroke-width: 1.0;" /><text fill="#000000" font-family="sans-serif" font-size="13" lengthAdjust="spacingAndGlyphs" textLength="5" x="648.4815" y="339.828">*</text><text fill="#000000" font-family="sans-serif" font-size="13" lengthAdjust="spacingAndGlyphs" textLength="7" x="799.8669" y="425.4423">1</text>
        <!--MD5=[6a7c57800a31452a20aa2f5037e36afb]
link Freelancer to Utilizador-->
        <path d="M494.074,692.155 C612.74,695.23 935.611,703.5974 1057.79,706.7636 " fill="none" id="Freelancer-Utilizador" style="stroke: #A80036; stroke-width: 1.0;" /><text fill="#000000" font-family="sans-serif" font-size="13" lengthAdjust="spacingAndGlyphs" textLength="61" x="693.5" y="692.4951">atua como</text>
        <polygon fill="#000000" points="757.5,685.6758,763.5,688.6758,757.5,691.6758,757.5,685.6758" style="stroke: #000000; stroke-width: 1.0;" /><text fill="#000000" font-family="sans-serif" font-size="13" lengthAdjust="spacingAndGlyphs" textLength="22" x="502.0297" y="706.9623">0..1</text><text fill="#000000" font-family="sans-serif" font-size="13" lengthAdjust="spacingAndGlyphs" textLength="7" x="1043.1217" y="721.3141">1</text>
        <!--MD5=[83793280d21cff2204dcf19c1386ed48]
link Administrativo to Utilizador-->
        <path d="M785.015,773.356 C843.687,766.5565 940.355,753.5508 1022,734 C1033.66,731.2067 1046.08,727.6615 1057.68,724.0943 " fill="none" id="Administrativo-Utilizador" style="stroke: #A80036; stroke-width: 1.0;" /><text fill="#000000" font-family="sans-serif" font-size="13" lengthAdjust="spacingAndGlyphs" textLength="61" x="828.5" y="751.4951">atua como</text>
        <polygon fill="#000000" points="892.5,744.6758,898.5,747.6758,892.5,750.6758,892.5,744.6758" style="stroke: #000000; stroke-width: 1.0;" /><text fill="#000000" font-family="sans-serif" font-size="13" lengthAdjust="spacingAndGlyphs" textLength="22" x="792.9996" y="787.1597">0..1</text><text fill="#000000" font-family="sans-serif" font-size="13" lengthAdjust="spacingAndGlyphs" textLength="7" x="1042.9955" y="741.1902">1</text>
        <!--MD5=[bcb5794e8184ce78d304f04a5beabbc0]
link Colaborador to Utilizador-->
        <path d="M912.299,506.715 C956.757,553.033 1023.54,622.614 1065.8,666.643 " fill="none" id="Colaborador-Utilizador" style="stroke: #A80036; stroke-width: 1.0;" /><text fill="#000000" font-family="sans-serif" font-size="13" lengthAdjust="spacingAndGlyphs" textLength="61" x="947" y="542.4951">atua como</text>
        <polygon fill="#000000" points="973,551.3516,976,557.3516,979,551.3516,973,551.3516" style="stroke: #000000; stroke-width: 1.0;" /><text fill="#000000" font-family="sans-serif" font-size="13" lengthAdjust="spacingAndGlyphs" textLength="22" x="895.557" y="528.3938">0..1</text><text fill="#000000" font-family="sans-serif" font-size="13" lengthAdjust="spacingAndGlyphs" textLength="7" x="1051.4794" y="656.0332">1</text>
        <!--MD5=[6b8c2a8006fa7888ba42820dab0dbf41]
@startuml
skinparam classAttributeIconSize 0
hide methods
left to right direction

class Plataforma {
  -String designacao
}

class AreaAtividade {
  -String codigo
  -String descBreve
  -String descDetalhada

}

class CompetenciaTecnica {
  -String codigo
  -String descBreve
  -String descDetalhada
}

class Categoria {
  -String id
  -String descricao
}

class Organizacao {
  -String nome
  -String NIF
  -String website
  -String telefone
  -String email
}

class Colaborador {
  -String nome
  -String funcao
  -String telefone
  -String email
}

class EnderecoPostal {
  -String local
  -String codPostal
  -String localidade
}

class CaraterCT {
  -Boolean obrigatoria
}

class Tarefa {
  -String referencia
  -String designacao
  -String descInformal
  -String descTecnica
  -Integer duracaoEst
  -Double custoEst
}

class Freelancer {

}

class Administrativo {

}

class Utilizador {
  -String nome
  -String email
  -String password
}

Plataforma "1" - - "*" AreaAtividade : possui >
Plataforma "1" - - "*" CompetenciaTecnica : possui >
Plataforma "1" - - "*" Organizacao : tem registadas >
Plataforma "1" - - "*" Freelancer : tem/usa  >
Plataforma "1" - - "*" Administrativo : tem  >
Plataforma "1" - - "*" Categoria : possui >

Organizacao "1" - - "1..*" Colaborador: tem >
Organizacao "1" - - "1" Colaborador: tem gestor >
Organizacao "1" - - "1" EnderecoPostal: localizada em >
Organizacao "1" - - "*" Tarefa: possui >

CompetenciaTecnica "*" - - "1" AreaAtividade : referente a >

Categoria "1" - - "1" AreaAtividade: enquadra-se em >
Categoria "*" - - "*" CompetenciaTecnica: requer >
(Categoria, CompetenciaTecnica) .. CaraterCT

Tarefa "*" - - "1" Categoria: enquadra-se em >
Tarefa "*" - - "1" Colaborador: especificada por >

Freelancer "0..1" - - "1" Utilizador: atua como >
Administrativo "0..1" - - "1" Utilizador: atua como >
Colaborador "0..1" - - "1" Utilizador: atua como >

@enduml

PlantUML version 1.2020.01(Sun Feb 16 17:40:32 WET 2020)
(GPL source distribution)
Java Runtime: Java(TM) SE Runtime Environment
JVM: Java HotSpot(TM) 64-Bit Server VM
Java Version: 13.0.2+8
Operating System: Windows 10
Default Encoding: Cp1252
Language: pt
Country: PT
-->
    </g>
</svg>