<?xml version="1.0" encoding="UTF-8" standalone="no"?><svg xmlns="http://www.w3.org/2000/svg" xmlns:xlink="http://www.w3.org/1999/xlink" contentScriptType="application/ecmascript" contentStyleType="text/css" height="793px" preserveAspectRatio="none" style="width:1965px;height:793px;" version="1.1" viewBox="0 0 1965 793" width="1965px" zoomAndPan="magnify">
    <defs>
        <filter height="300%" id="f1scwv689esfgs" width="300%" x="-1" y="-1">
            <feGaussianBlur result="blurOut" stdDeviation="2.0" />
            <feColorMatrix in="blurOut" result="blurOut2" type="matrix" values="0 0 0 0 0 0 0 0 0 0 0 0 0 0 0 0 0 0 .4 0" />
            <feOffset dx="4.0" dy="4.0" in="blurOut2" result="blurOut3" />
            <feBlend in="SourceGraphic" in2="blurOut3" mode="normal" />
        </filter>
    </defs>
    <g>
        <!--MD5=[ecaed46f78f8cfe1e9ce18477649be18]
class Plataforma-->
        <rect fill="#FEFECE" filter="url(#f1scwv689esfgs)" height="53.8359" id="Plataforma" style="stroke: #A80036; stroke-width: 1.5;" width="103" x="6" y="209" />
        <ellipse cx="25.95" cy="225" fill="#ADD1B2" rx="11" ry="11" style="stroke: #A80036; stroke-width: 1.0;" />
        <path d="M28.7156,220.875 Q28.8719,220.6563 29.0594,220.5469 Q29.2469,220.4375 29.4656,220.4375 Q29.8406,220.4375 30.075,220.7031 Q30.3094,220.9531 30.3094,221.5625 L30.3094,223.0156 Q30.3094,223.625 30.075,223.8906 Q29.8406,224.1563 29.4656,224.1563 Q29.1219,224.1563 28.9188,223.9531 Q28.7156,223.7656 28.6063,223.25 Q28.5594,222.8906 28.3719,222.7031 Q28.0438,222.3281 27.4344,222.1094 Q26.825,221.8906 26.2,221.8906 Q25.4344,221.8906 24.7938,222.2188 Q24.1688,222.5469 23.6688,223.2969 Q23.1844,224.0469 23.1844,225.0781 L23.1844,226.1719 Q23.1844,227.4063 24.075,228.2344 Q24.9656,229.0469 26.5594,229.0469 Q27.4969,229.0469 28.1531,228.7969 Q28.5438,228.6406 28.9656,228.2031 Q29.2313,227.9375 29.3719,227.8594 Q29.5281,227.7813 29.7313,227.7813 Q30.0594,227.7813 30.3094,228.0469 Q30.575,228.2969 30.575,228.6406 Q30.575,228.9844 30.2313,229.3906 Q29.7313,229.9688 28.9344,230.2969 Q27.8563,230.75 26.5594,230.75 Q25.0438,230.75 23.8406,230.125 Q22.8563,229.625 22.1688,228.5625 Q21.4813,227.4844 21.4813,226.2031 L21.4813,225.0469 Q21.4813,223.7188 22.0906,222.5781 Q22.7156,221.4219 23.8094,220.8125 Q24.9031,220.1875 26.1375,220.1875 Q26.8719,220.1875 27.5125,220.3594 Q28.1688,220.5156 28.7156,220.875 Z " /><text fill="#000000" font-family="sans-serif" font-size="12" lengthAdjust="spacingAndGlyphs" textLength="60" x="41.05" y="229.9102">Plataforma</text>
        <line style="stroke: #A80036; stroke-width: 1.5;" x1="7" x2="108" y1="241" y2="241" /><text fill="#000000" font-family="sans-serif" font-size="11" lengthAdjust="spacingAndGlyphs" textLength="91" x="12" y="256.4189">-String designacao</text>
        <!--MD5=[02456e6632d968d6f68141e5893c6991]
class AreaAtividade-->
        <rect fill="#FEFECE" filter="url(#f1scwv689esfgs)" height="81.5078" id="AreaAtividade" style="stroke: #A80036; stroke-width: 1.5;" width="119" x="1835" y="101" />
        <ellipse cx="1855.85" cy="117" fill="#ADD1B2" rx="11" ry="11" style="stroke: #A80036; stroke-width: 1.0;" />
        <path d="M1858.6156,112.875 Q1858.7719,112.6563 1858.9594,112.5469 Q1859.1469,112.4375 1859.3656,112.4375 Q1859.7406,112.4375 1859.975,112.7031 Q1860.2094,112.9531 1860.2094,113.5625 L1860.2094,115.0156 Q1860.2094,115.625 1859.975,115.8906 Q1859.7406,116.1563 1859.3656,116.1563 Q1859.0219,116.1563 1858.8188,115.9531 Q1858.6156,115.7656 1858.5063,115.25 Q1858.4594,114.8906 1858.2719,114.7031 Q1857.9438,114.3281 1857.3344,114.1094 Q1856.725,113.8906 1856.1,113.8906 Q1855.3344,113.8906 1854.6938,114.2188 Q1854.0688,114.5469 1853.5688,115.2969 Q1853.0844,116.0469 1853.0844,117.0781 L1853.0844,118.1719 Q1853.0844,119.4063 1853.975,120.2344 Q1854.8656,121.0469 1856.4594,121.0469 Q1857.3969,121.0469 1858.0531,120.7969 Q1858.4438,120.6406 1858.8656,120.2031 Q1859.1313,119.9375 1859.2719,119.8594 Q1859.4281,119.7813 1859.6313,119.7813 Q1859.9594,119.7813 1860.2094,120.0469 Q1860.475,120.2969 1860.475,120.6406 Q1860.475,120.9844 1860.1313,121.3906 Q1859.6313,121.9688 1858.8344,122.2969 Q1857.7563,122.75 1856.4594,122.75 Q1854.9438,122.75 1853.7406,122.125 Q1852.7563,121.625 1852.0688,120.5625 Q1851.3813,119.4844 1851.3813,118.2031 L1851.3813,117.0469 Q1851.3813,115.7188 1851.9906,114.5781 Q1852.6156,113.4219 1853.7094,112.8125 Q1854.8031,112.1875 1856.0375,112.1875 Q1856.7719,112.1875 1857.4125,112.3594 Q1858.0688,112.5156 1858.6156,112.875 Z " /><text fill="#000000" font-family="sans-serif" font-size="12" lengthAdjust="spacingAndGlyphs" textLength="74" x="1871.15" y="121.9102">AreaAtividade</text>
        <line style="stroke: #A80036; stroke-width: 1.5;" x1="1836" x2="1953" y1="133" y2="133" /><text fill="#000000" font-family="sans-serif" font-size="11" lengthAdjust="spacingAndGlyphs" textLength="67" x="1841" y="148.4189">-String codigo</text><text fill="#000000" font-family="sans-serif" font-size="11" lengthAdjust="spacingAndGlyphs" textLength="88" x="1841" y="162.2549">-String descBreve</text><text fill="#000000" font-family="sans-serif" font-size="11" lengthAdjust="spacingAndGlyphs" textLength="107" x="1841" y="176.0908">-String descDetalhada</text>
        <!--MD5=[a322db5a7ec64d2ff8f2d6cf1831dcec]
class CompetenciaTecnica-->
        <rect fill="#FEFECE" filter="url(#f1scwv689esfgs)" height="81.5078" id="CompetenciaTecnica" style="stroke: #A80036; stroke-width: 1.5;" width="149" x="1550" y="101" />
        <ellipse cx="1565" cy="117" fill="#ADD1B2" rx="11" ry="11" style="stroke: #A80036; stroke-width: 1.0;" />
        <path d="M1567.7656,112.875 Q1567.9219,112.6563 1568.1094,112.5469 Q1568.2969,112.4375 1568.5156,112.4375 Q1568.8906,112.4375 1569.125,112.7031 Q1569.3594,112.9531 1569.3594,113.5625 L1569.3594,115.0156 Q1569.3594,115.625 1569.125,115.8906 Q1568.8906,116.1563 1568.5156,116.1563 Q1568.1719,116.1563 1567.9688,115.9531 Q1567.7656,115.7656 1567.6563,115.25 Q1567.6094,114.8906 1567.4219,114.7031 Q1567.0938,114.3281 1566.4844,114.1094 Q1565.875,113.8906 1565.25,113.8906 Q1564.4844,113.8906 1563.8438,114.2188 Q1563.2188,114.5469 1562.7188,115.2969 Q1562.2344,116.0469 1562.2344,117.0781 L1562.2344,118.1719 Q1562.2344,119.4063 1563.125,120.2344 Q1564.0156,121.0469 1565.6094,121.0469 Q1566.5469,121.0469 1567.2031,120.7969 Q1567.5938,120.6406 1568.0156,120.2031 Q1568.2813,119.9375 1568.4219,119.8594 Q1568.5781,119.7813 1568.7813,119.7813 Q1569.1094,119.7813 1569.3594,120.0469 Q1569.625,120.2969 1569.625,120.6406 Q1569.625,120.9844 1569.2813,121.3906 Q1568.7813,121.9688 1567.9844,122.2969 Q1566.9063,122.75 1565.6094,122.75 Q1564.0938,122.75 1562.8906,122.125 Q1561.9063,121.625 1561.2188,120.5625 Q1560.5313,119.4844 1560.5313,118.2031 L1560.5313,117.0469 Q1560.5313,115.7188 1561.1406,114.5781 Q1561.7656,113.4219 1562.8594,112.8125 Q1563.9531,112.1875 1565.1875,112.1875 Q1565.9219,112.1875 1566.5625,112.3594 Q1567.2188,112.5156 1567.7656,112.875 Z " /><text fill="#000000" font-family="sans-serif" font-size="12" lengthAdjust="spacingAndGlyphs" textLength="117" x="1579" y="121.9102">CompetenciaTecnica</text>
        <line style="stroke: #A80036; stroke-width: 1.5;" x1="1551" x2="1698" y1="133" y2="133" /><text fill="#000000" font-family="sans-serif" font-size="11" lengthAdjust="spacingAndGlyphs" textLength="67" x="1556" y="148.4189">-String codigo</text><text fill="#000000" font-family="sans-serif" font-size="11" lengthAdjust="spacingAndGlyphs" textLength="88" x="1556" y="162.2549">-String descBreve</text><text fill="#000000" font-family="sans-serif" font-size="11" lengthAdjust="spacingAndGlyphs" textLength="107" x="1556" y="176.0908">-String descDetalhada</text>
        <!--MD5=[7e1ce8ab2bf669717f28e918f4971b9a]
class Categoria-->
        <rect fill="#FEFECE" filter="url(#f1scwv689esfgs)" height="67.6719" id="Categoria" style="stroke: #A80036; stroke-width: 1.5;" width="95" x="818" y="175" />
        <ellipse cx="837.05" cy="191" fill="#ADD1B2" rx="11" ry="11" style="stroke: #A80036; stroke-width: 1.0;" />
        <path d="M839.8156,186.875 Q839.9719,186.6563 840.1594,186.5469 Q840.3469,186.4375 840.5656,186.4375 Q840.9406,186.4375 841.175,186.7031 Q841.4094,186.9531 841.4094,187.5625 L841.4094,189.0156 Q841.4094,189.625 841.175,189.8906 Q840.9406,190.1563 840.5656,190.1563 Q840.2219,190.1563 840.0188,189.9531 Q839.8156,189.7656 839.7063,189.25 Q839.6594,188.8906 839.4719,188.7031 Q839.1438,188.3281 838.5344,188.1094 Q837.925,187.8906 837.3,187.8906 Q836.5344,187.8906 835.8938,188.2188 Q835.2688,188.5469 834.7688,189.2969 Q834.2844,190.0469 834.2844,191.0781 L834.2844,192.1719 Q834.2844,193.4063 835.175,194.2344 Q836.0656,195.0469 837.6594,195.0469 Q838.5969,195.0469 839.2531,194.7969 Q839.6438,194.6406 840.0656,194.2031 Q840.3313,193.9375 840.4719,193.8594 Q840.6281,193.7813 840.8313,193.7813 Q841.1594,193.7813 841.4094,194.0469 Q841.675,194.2969 841.675,194.6406 Q841.675,194.9844 841.3313,195.3906 Q840.8313,195.9688 840.0344,196.2969 Q838.9563,196.75 837.6594,196.75 Q836.1438,196.75 834.9406,196.125 Q833.9563,195.625 833.2688,194.5625 Q832.5813,193.4844 832.5813,192.2031 L832.5813,191.0469 Q832.5813,189.7188 833.1906,188.5781 Q833.8156,187.4219 834.9094,186.8125 Q836.0031,186.1875 837.2375,186.1875 Q837.9719,186.1875 838.6125,186.3594 Q839.2688,186.5156 839.8156,186.875 Z " /><text fill="#000000" font-family="sans-serif" font-size="12" lengthAdjust="spacingAndGlyphs" textLength="54" x="851.95" y="195.9102">Categoria</text>
        <line style="stroke: #A80036; stroke-width: 1.5;" x1="819" x2="912" y1="207" y2="207" /><text fill="#000000" font-family="sans-serif" font-size="11" lengthAdjust="spacingAndGlyphs" textLength="43" x="824" y="222.4189">-String id</text><text fill="#000000" font-family="sans-serif" font-size="11" lengthAdjust="spacingAndGlyphs" textLength="83" x="824" y="236.2549">-String descricao</text>
        <!--MD5=[807977ceb130c090ed5febfb6de2bdea]
class Organizacao-->
        <rect fill="#FEFECE" filter="url(#f1scwv689esfgs)" height="109.1797" id="Organizacao" style="stroke: #A80036; stroke-width: 1.5;" width="101" x="270" y="343.5" />
        <ellipse cx="285" cy="359.5" fill="#ADD1B2" rx="11" ry="11" style="stroke: #A80036; stroke-width: 1.0;" />
        <path d="M287.7656,355.375 Q287.9219,355.1563 288.1094,355.0469 Q288.2969,354.9375 288.5156,354.9375 Q288.8906,354.9375 289.125,355.2031 Q289.3594,355.4531 289.3594,356.0625 L289.3594,357.5156 Q289.3594,358.125 289.125,358.3906 Q288.8906,358.6563 288.5156,358.6563 Q288.1719,358.6563 287.9688,358.4531 Q287.7656,358.2656 287.6563,357.75 Q287.6094,357.3906 287.4219,357.2031 Q287.0938,356.8281 286.4844,356.6094 Q285.875,356.3906 285.25,356.3906 Q284.4844,356.3906 283.8438,356.7188 Q283.2188,357.0469 282.7188,357.7969 Q282.2344,358.5469 282.2344,359.5781 L282.2344,360.6719 Q282.2344,361.9063 283.125,362.7344 Q284.0156,363.5469 285.6094,363.5469 Q286.5469,363.5469 287.2031,363.2969 Q287.5938,363.1406 288.0156,362.7031 Q288.2813,362.4375 288.4219,362.3594 Q288.5781,362.2813 288.7813,362.2813 Q289.1094,362.2813 289.3594,362.5469 Q289.625,362.7969 289.625,363.1406 Q289.625,363.4844 289.2813,363.8906 Q288.7813,364.4688 287.9844,364.7969 Q286.9063,365.25 285.6094,365.25 Q284.0938,365.25 282.8906,364.625 Q281.9063,364.125 281.2188,363.0625 Q280.5313,361.9844 280.5313,360.7031 L280.5313,359.5469 Q280.5313,358.2188 281.1406,357.0781 Q281.7656,355.9219 282.8594,355.3125 Q283.9531,354.6875 285.1875,354.6875 Q285.9219,354.6875 286.5625,354.8594 Q287.2188,355.0156 287.7656,355.375 Z " /><text fill="#000000" font-family="sans-serif" font-size="12" lengthAdjust="spacingAndGlyphs" textLength="69" x="299" y="364.4102">Organizacao</text>
        <line style="stroke: #A80036; stroke-width: 1.5;" x1="271" x2="370" y1="375.5" y2="375.5" /><text fill="#000000" font-family="sans-serif" font-size="11" lengthAdjust="spacingAndGlyphs" textLength="61" x="276" y="390.9189">-String nome</text><text fill="#000000" font-family="sans-serif" font-size="11" lengthAdjust="spacingAndGlyphs" textLength="50" x="276" y="404.7549">-String NIF</text><text fill="#000000" font-family="sans-serif" font-size="11" lengthAdjust="spacingAndGlyphs" textLength="74" x="276" y="418.5908">-String website</text><text fill="#000000" font-family="sans-serif" font-size="11" lengthAdjust="spacingAndGlyphs" textLength="74" x="276" y="432.4268">-String telefone</text><text fill="#000000" font-family="sans-serif" font-size="11" lengthAdjust="spacingAndGlyphs" textLength="59" x="276" y="446.2627">-String email</text>
        <!--MD5=[ac8682ea5466d223e49472789fb200d2]
class Colaborador-->
        <rect fill="#FEFECE" filter="url(#f1scwv689esfgs)" height="95.3438" id="Colaborador" style="stroke: #A80036; stroke-width: 1.5;" width="101" x="815" y="394.5" />
        <ellipse cx="830" cy="410.5" fill="#ADD1B2" rx="11" ry="11" style="stroke: #A80036; stroke-width: 1.0;" />
        <path d="M832.7656,406.375 Q832.9219,406.1563 833.1094,406.0469 Q833.2969,405.9375 833.5156,405.9375 Q833.8906,405.9375 834.125,406.2031 Q834.3594,406.4531 834.3594,407.0625 L834.3594,408.5156 Q834.3594,409.125 834.125,409.3906 Q833.8906,409.6563 833.5156,409.6563 Q833.1719,409.6563 832.9688,409.4531 Q832.7656,409.2656 832.6563,408.75 Q832.6094,408.3906 832.4219,408.2031 Q832.0938,407.8281 831.4844,407.6094 Q830.875,407.3906 830.25,407.3906 Q829.4844,407.3906 828.8438,407.7188 Q828.2188,408.0469 827.7188,408.7969 Q827.2344,409.5469 827.2344,410.5781 L827.2344,411.6719 Q827.2344,412.9063 828.125,413.7344 Q829.0156,414.5469 830.6094,414.5469 Q831.5469,414.5469 832.2031,414.2969 Q832.5938,414.1406 833.0156,413.7031 Q833.2813,413.4375 833.4219,413.3594 Q833.5781,413.2813 833.7813,413.2813 Q834.1094,413.2813 834.3594,413.5469 Q834.625,413.7969 834.625,414.1406 Q834.625,414.4844 834.2813,414.8906 Q833.7813,415.4688 832.9844,415.7969 Q831.9063,416.25 830.6094,416.25 Q829.0938,416.25 827.8906,415.625 Q826.9063,415.125 826.2188,414.0625 Q825.5313,412.9844 825.5313,411.7031 L825.5313,410.5469 Q825.5313,409.2188 826.1406,408.0781 Q826.7656,406.9219 827.8594,406.3125 Q828.9531,405.6875 830.1875,405.6875 Q830.9219,405.6875 831.5625,405.8594 Q832.2188,406.0156 832.7656,406.375 Z " /><text fill="#000000" font-family="sans-serif" font-size="12" lengthAdjust="spacingAndGlyphs" textLength="69" x="844" y="415.4102">Colaborador</text>
        <line style="stroke: #A80036; stroke-width: 1.5;" x1="816" x2="915" y1="426.5" y2="426.5" /><text fill="#000000" font-family="sans-serif" font-size="11" lengthAdjust="spacingAndGlyphs" textLength="61" x="821" y="441.9189">-String nome</text><text fill="#000000" font-family="sans-serif" font-size="11" lengthAdjust="spacingAndGlyphs" textLength="69" x="821" y="455.7549">-String funcao</text><text fill="#000000" font-family="sans-serif" font-size="11" lengthAdjust="spacingAndGlyphs" textLength="74" x="821" y="469.5908">-String telefone</text><text fill="#000000" font-family="sans-serif" font-size="11" lengthAdjust="spacingAndGlyphs" textLength="59" x="821" y="483.4268">-String email</text>
        <!--MD5=[dcda844062f930f807532403427d3023]
class EnderecoPostal-->
        <rect fill="#FEFECE" filter="url(#f1scwv689esfgs)" height="81.5078" id="EnderecoPostal" style="stroke: #A80036; stroke-width: 1.5;" width="120" x="526" y="556" />
        <ellipse cx="541" cy="572" fill="#ADD1B2" rx="11" ry="11" style="stroke: #A80036; stroke-width: 1.0;" />
        <path d="M543.7656,567.875 Q543.9219,567.6563 544.1094,567.5469 Q544.2969,567.4375 544.5156,567.4375 Q544.8906,567.4375 545.125,567.7031 Q545.3594,567.9531 545.3594,568.5625 L545.3594,570.0156 Q545.3594,570.625 545.125,570.8906 Q544.8906,571.1563 544.5156,571.1563 Q544.1719,571.1563 543.9688,570.9531 Q543.7656,570.7656 543.6563,570.25 Q543.6094,569.8906 543.4219,569.7031 Q543.0938,569.3281 542.4844,569.1094 Q541.875,568.8906 541.25,568.8906 Q540.4844,568.8906 539.8438,569.2188 Q539.2188,569.5469 538.7188,570.2969 Q538.2344,571.0469 538.2344,572.0781 L538.2344,573.1719 Q538.2344,574.4063 539.125,575.2344 Q540.0156,576.0469 541.6094,576.0469 Q542.5469,576.0469 543.2031,575.7969 Q543.5938,575.6406 544.0156,575.2031 Q544.2813,574.9375 544.4219,574.8594 Q544.5781,574.7813 544.7813,574.7813 Q545.1094,574.7813 545.3594,575.0469 Q545.625,575.2969 545.625,575.6406 Q545.625,575.9844 545.2813,576.3906 Q544.7813,576.9688 543.9844,577.2969 Q542.9063,577.75 541.6094,577.75 Q540.0938,577.75 538.8906,577.125 Q537.9063,576.625 537.2188,575.5625 Q536.5313,574.4844 536.5313,573.2031 L536.5313,572.0469 Q536.5313,570.7188 537.1406,569.5781 Q537.7656,568.4219 538.8594,567.8125 Q539.9531,567.1875 541.1875,567.1875 Q541.9219,567.1875 542.5625,567.3594 Q543.2188,567.5156 543.7656,567.875 Z " /><text fill="#000000" font-family="sans-serif" font-size="12" lengthAdjust="spacingAndGlyphs" textLength="88" x="555" y="576.9102">EnderecoPostal</text>
        <line style="stroke: #A80036; stroke-width: 1.5;" x1="527" x2="645" y1="588" y2="588" /><text fill="#000000" font-family="sans-serif" font-size="11" lengthAdjust="spacingAndGlyphs" textLength="57" x="532" y="603.4189">-String local</text><text fill="#000000" font-family="sans-serif" font-size="11" lengthAdjust="spacingAndGlyphs" textLength="82" x="532" y="617.2549">-String codPostal</text><text fill="#000000" font-family="sans-serif" font-size="11" lengthAdjust="spacingAndGlyphs" textLength="83" x="532" y="631.0908">-String localidade</text>
        <!--MD5=[7fcf9c51ac01cf798ccb0f9409ec5fba]
class ListaCTRequeridas-->
        <rect fill="#FEFECE" filter="url(#f1scwv689esfgs)" height="40" id="ListaCTRequeridas" style="stroke: #A80036; stroke-width: 1.5;" width="140" x="1052" y="162" />
        <ellipse cx="1067" cy="178" fill="#ADD1B2" rx="11" ry="11" style="stroke: #A80036; stroke-width: 1.0;" />
        <path d="M1069.7656,173.875 Q1069.9219,173.6563 1070.1094,173.5469 Q1070.2969,173.4375 1070.5156,173.4375 Q1070.8906,173.4375 1071.125,173.7031 Q1071.3594,173.9531 1071.3594,174.5625 L1071.3594,176.0156 Q1071.3594,176.625 1071.125,176.8906 Q1070.8906,177.1563 1070.5156,177.1563 Q1070.1719,177.1563 1069.9688,176.9531 Q1069.7656,176.7656 1069.6563,176.25 Q1069.6094,175.8906 1069.4219,175.7031 Q1069.0938,175.3281 1068.4844,175.1094 Q1067.875,174.8906 1067.25,174.8906 Q1066.4844,174.8906 1065.8438,175.2188 Q1065.2188,175.5469 1064.7188,176.2969 Q1064.2344,177.0469 1064.2344,178.0781 L1064.2344,179.1719 Q1064.2344,180.4063 1065.125,181.2344 Q1066.0156,182.0469 1067.6094,182.0469 Q1068.5469,182.0469 1069.2031,181.7969 Q1069.5938,181.6406 1070.0156,181.2031 Q1070.2813,180.9375 1070.4219,180.8594 Q1070.5781,180.7813 1070.7813,180.7813 Q1071.1094,180.7813 1071.3594,181.0469 Q1071.625,181.2969 1071.625,181.6406 Q1071.625,181.9844 1071.2813,182.3906 Q1070.7813,182.9688 1069.9844,183.2969 Q1068.9063,183.75 1067.6094,183.75 Q1066.0938,183.75 1064.8906,183.125 Q1063.9063,182.625 1063.2188,181.5625 Q1062.5313,180.4844 1062.5313,179.2031 L1062.5313,178.0469 Q1062.5313,176.7188 1063.1406,175.5781 Q1063.7656,174.4219 1064.8594,173.8125 Q1065.9531,173.1875 1067.1875,173.1875 Q1067.9219,173.1875 1068.5625,173.3594 Q1069.2188,173.5156 1069.7656,173.875 Z " /><text fill="#000000" font-family="sans-serif" font-size="12" lengthAdjust="spacingAndGlyphs" textLength="108" x="1081" y="182.9102">ListaCTRequeridas</text>
        <line style="stroke: #A80036; stroke-width: 1.5;" x1="1053" x2="1191" y1="194" y2="194" />
        <!--MD5=[b0f240be72c8ea8a063442502d85fc08]
class CaraterCT-->
        <rect fill="#FEFECE" filter="url(#f1scwv689esfgs)" height="53.8359" id="CaraterCT" style="stroke: #A80036; stroke-width: 1.5;" width="109" x="1305" y="150" />
        <ellipse cx="1329" cy="166" fill="#ADD1B2" rx="11" ry="11" style="stroke: #A80036; stroke-width: 1.0;" />
        <path d="M1331.7656,161.875 Q1331.9219,161.6563 1332.1094,161.5469 Q1332.2969,161.4375 1332.5156,161.4375 Q1332.8906,161.4375 1333.125,161.7031 Q1333.3594,161.9531 1333.3594,162.5625 L1333.3594,164.0156 Q1333.3594,164.625 1333.125,164.8906 Q1332.8906,165.1563 1332.5156,165.1563 Q1332.1719,165.1563 1331.9688,164.9531 Q1331.7656,164.7656 1331.6563,164.25 Q1331.6094,163.8906 1331.4219,163.7031 Q1331.0938,163.3281 1330.4844,163.1094 Q1329.875,162.8906 1329.25,162.8906 Q1328.4844,162.8906 1327.8438,163.2188 Q1327.2188,163.5469 1326.7188,164.2969 Q1326.2344,165.0469 1326.2344,166.0781 L1326.2344,167.1719 Q1326.2344,168.4063 1327.125,169.2344 Q1328.0156,170.0469 1329.6094,170.0469 Q1330.5469,170.0469 1331.2031,169.7969 Q1331.5938,169.6406 1332.0156,169.2031 Q1332.2813,168.9375 1332.4219,168.8594 Q1332.5781,168.7813 1332.7813,168.7813 Q1333.1094,168.7813 1333.3594,169.0469 Q1333.625,169.2969 1333.625,169.6406 Q1333.625,169.9844 1333.2813,170.3906 Q1332.7813,170.9688 1331.9844,171.2969 Q1330.9063,171.75 1329.6094,171.75 Q1328.0938,171.75 1326.8906,171.125 Q1325.9063,170.625 1325.2188,169.5625 Q1324.5313,168.4844 1324.5313,167.2031 L1324.5313,166.0469 Q1324.5313,164.7188 1325.1406,163.5781 Q1325.7656,162.4219 1326.8594,161.8125 Q1327.9531,161.1875 1329.1875,161.1875 Q1329.9219,161.1875 1330.5625,161.3594 Q1331.2188,161.5156 1331.7656,161.875 Z " /><text fill="#000000" font-family="sans-serif" font-size="12" lengthAdjust="spacingAndGlyphs" textLength="57" x="1345" y="170.9102">CaraterCT</text>
        <line style="stroke: #A80036; stroke-width: 1.5;" x1="1306" x2="1413" y1="182" y2="182" /><text fill="#000000" font-family="sans-serif" font-size="11" lengthAdjust="spacingAndGlyphs" textLength="97" x="1311" y="197.4189">-Boolean obrigatoria</text>
        <!--MD5=[27c2d4bbe9f7b9d3b0ea2797cc54308a]
class Tarefa-->
        <rect fill="#FEFECE" filter="url(#f1scwv689esfgs)" height="123.0156" id="Tarefa" style="stroke: #A80036; stroke-width: 1.5;" width="109" x="531.5" y="221.5" />
        <ellipse cx="565.4" cy="237.5" fill="#ADD1B2" rx="11" ry="11" style="stroke: #A80036; stroke-width: 1.0;" />
        <path d="M568.1656,233.375 Q568.3219,233.1563 568.5094,233.0469 Q568.6969,232.9375 568.9156,232.9375 Q569.2906,232.9375 569.525,233.2031 Q569.7594,233.4531 569.7594,234.0625 L569.7594,235.5156 Q569.7594,236.125 569.525,236.3906 Q569.2906,236.6563 568.9156,236.6563 Q568.5719,236.6563 568.3688,236.4531 Q568.1656,236.2656 568.0563,235.75 Q568.0094,235.3906 567.8219,235.2031 Q567.4938,234.8281 566.8844,234.6094 Q566.275,234.3906 565.65,234.3906 Q564.8844,234.3906 564.2438,234.7188 Q563.6188,235.0469 563.1188,235.7969 Q562.6344,236.5469 562.6344,237.5781 L562.6344,238.6719 Q562.6344,239.9063 563.525,240.7344 Q564.4156,241.5469 566.0094,241.5469 Q566.9469,241.5469 567.6031,241.2969 Q567.9938,241.1406 568.4156,240.7031 Q568.6813,240.4375 568.8219,240.3594 Q568.9781,240.2813 569.1813,240.2813 Q569.5094,240.2813 569.7594,240.5469 Q570.025,240.7969 570.025,241.1406 Q570.025,241.4844 569.6813,241.8906 Q569.1813,242.4688 568.3844,242.7969 Q567.3063,243.25 566.0094,243.25 Q564.4938,243.25 563.2906,242.625 Q562.3063,242.125 561.6188,241.0625 Q560.9313,239.9844 560.9313,238.7031 L560.9313,237.5469 Q560.9313,236.2188 561.5406,235.0781 Q562.1656,233.9219 563.2594,233.3125 Q564.3531,232.6875 565.5875,232.6875 Q566.3219,232.6875 566.9625,232.8594 Q567.6188,233.0156 568.1656,233.375 Z " /><text fill="#000000" font-family="sans-serif" font-size="12" lengthAdjust="spacingAndGlyphs" textLength="35" x="583.6" y="242.4102">Tarefa</text>
        <line style="stroke: #A80036; stroke-width: 1.5;" x1="532.5" x2="639.5" y1="253.5" y2="253.5" /><text fill="#000000" font-family="sans-serif" font-size="11" lengthAdjust="spacingAndGlyphs" textLength="85" x="537.5" y="268.9189">-String referencia</text><text fill="#000000" font-family="sans-serif" font-size="11" lengthAdjust="spacingAndGlyphs" textLength="91" x="537.5" y="282.7549">-String designacao</text><text fill="#000000" font-family="sans-serif" font-size="11" lengthAdjust="spacingAndGlyphs" textLength="97" x="537.5" y="296.5908">-String descInformal</text><text fill="#000000" font-family="sans-serif" font-size="11" lengthAdjust="spacingAndGlyphs" textLength="97" x="537.5" y="310.4268">-String descTecnica</text><text fill="#000000" font-family="sans-serif" font-size="11" lengthAdjust="spacingAndGlyphs" textLength="95" x="537.5" y="324.2627">-Integer duracaoEst</text><text fill="#000000" font-family="sans-serif" font-size="11" lengthAdjust="spacingAndGlyphs" textLength="82" x="537.5" y="338.0986">-Double custoEst</text>
        <!--MD5=[1f687b5315377fe49fca59b457947463]
class Freelancer-->
        <rect fill="#FEFECE" filter="url(#f1scwv689esfgs)" height="40" id="Freelancer" style="stroke: #A80036; stroke-width: 1.5;" width="91" x="403" y="654" />
        <ellipse cx="418" cy="670" fill="#ADD1B2" rx="11" ry="11" style="stroke: #A80036; stroke-width: 1.0;" />
        <path d="M420.7656,665.875 Q420.9219,665.6563 421.1094,665.5469 Q421.2969,665.4375 421.5156,665.4375 Q421.8906,665.4375 422.125,665.7031 Q422.3594,665.9531 422.3594,666.5625 L422.3594,668.0156 Q422.3594,668.625 422.125,668.8906 Q421.8906,669.1563 421.5156,669.1563 Q421.1719,669.1563 420.9688,668.9531 Q420.7656,668.7656 420.6563,668.25 Q420.6094,667.8906 420.4219,667.7031 Q420.0938,667.3281 419.4844,667.1094 Q418.875,666.8906 418.25,666.8906 Q417.4844,666.8906 416.8438,667.2188 Q416.2188,667.5469 415.7188,668.2969 Q415.2344,669.0469 415.2344,670.0781 L415.2344,671.1719 Q415.2344,672.4063 416.125,673.2344 Q417.0156,674.0469 418.6094,674.0469 Q419.5469,674.0469 420.2031,673.7969 Q420.5938,673.6406 421.0156,673.2031 Q421.2813,672.9375 421.4219,672.8594 Q421.5781,672.7813 421.7813,672.7813 Q422.1094,672.7813 422.3594,673.0469 Q422.625,673.2969 422.625,673.6406 Q422.625,673.9844 422.2813,674.3906 Q421.7813,674.9688 420.9844,675.2969 Q419.9063,675.75 418.6094,675.75 Q417.0938,675.75 415.8906,675.125 Q414.9063,674.625 414.2188,673.5625 Q413.5313,672.4844 413.5313,671.2031 L413.5313,670.0469 Q413.5313,668.7188 414.1406,667.5781 Q414.7656,666.4219 415.8594,665.8125 Q416.9531,665.1875 418.1875,665.1875 Q418.9219,665.1875 419.5625,665.3594 Q420.2188,665.5156 420.7656,665.875 Z " /><text fill="#000000" font-family="sans-serif" font-size="12" lengthAdjust="spacingAndGlyphs" textLength="59" x="432" y="674.9102">Freelancer</text>
        <line style="stroke: #A80036; stroke-width: 1.5;" x1="404" x2="493" y1="686" y2="686" />
        <!--MD5=[7bb95b5cb1c5d9061d1eedf13c97b467]
class Administrativo-->
        <rect fill="#FEFECE" filter="url(#f1scwv689esfgs)" height="40" id="Administrativo" style="stroke: #A80036; stroke-width: 1.5;" width="109" x="676" y="742" />
        <ellipse cx="691" cy="758" fill="#ADD1B2" rx="11" ry="11" style="stroke: #A80036; stroke-width: 1.0;" />
        <path d="M693.7656,753.875 Q693.9219,753.6563 694.1094,753.5469 Q694.2969,753.4375 694.5156,753.4375 Q694.8906,753.4375 695.125,753.7031 Q695.3594,753.9531 695.3594,754.5625 L695.3594,756.0156 Q695.3594,756.625 695.125,756.8906 Q694.8906,757.1563 694.5156,757.1563 Q694.1719,757.1563 693.9688,756.9531 Q693.7656,756.7656 693.6563,756.25 Q693.6094,755.8906 693.4219,755.7031 Q693.0938,755.3281 692.4844,755.1094 Q691.875,754.8906 691.25,754.8906 Q690.4844,754.8906 689.8438,755.2188 Q689.2188,755.5469 688.7188,756.2969 Q688.2344,757.0469 688.2344,758.0781 L688.2344,759.1719 Q688.2344,760.4063 689.125,761.2344 Q690.0156,762.0469 691.6094,762.0469 Q692.5469,762.0469 693.2031,761.7969 Q693.5938,761.6406 694.0156,761.2031 Q694.2813,760.9375 694.4219,760.8594 Q694.5781,760.7813 694.7813,760.7813 Q695.1094,760.7813 695.3594,761.0469 Q695.625,761.2969 695.625,761.6406 Q695.625,761.9844 695.2813,762.3906 Q694.7813,762.9688 693.9844,763.2969 Q692.9063,763.75 691.6094,763.75 Q690.0938,763.75 688.8906,763.125 Q687.9063,762.625 687.2188,761.5625 Q686.5313,760.4844 686.5313,759.2031 L686.5313,758.0469 Q686.5313,756.7188 687.1406,755.5781 Q687.7656,754.4219 688.8594,753.8125 Q689.9531,753.1875 691.1875,753.1875 Q691.9219,753.1875 692.5625,753.3594 Q693.2188,753.5156 693.7656,753.875 Z " /><text fill="#000000" font-family="sans-serif" font-size="12" lengthAdjust="spacingAndGlyphs" textLength="77" x="705" y="762.9102">Administrativo</text>
        <line style="stroke: #A80036; stroke-width: 1.5;" x1="677" x2="784" y1="774" y2="774" />
        <!--MD5=[5dd1d6732c071e710b9290b531f2fa3b]
class Utilizador-->
        <rect fill="#FEFECE" filter="url(#f1scwv689esfgs)" height="81.5078" id="Utilizador" style="stroke: #A80036; stroke-width: 1.5;" width="97" x="1073.5" y="650" />
        <ellipse cx="1094.8" cy="666" fill="#ADD1B2" rx="11" ry="11" style="stroke: #A80036; stroke-width: 1.0;" />
        <path d="M1097.5656,661.875 Q1097.7219,661.6563 1097.9094,661.5469 Q1098.0969,661.4375 1098.3156,661.4375 Q1098.6906,661.4375 1098.925,661.7031 Q1099.1594,661.9531 1099.1594,662.5625 L1099.1594,664.0156 Q1099.1594,664.625 1098.925,664.8906 Q1098.6906,665.1563 1098.3156,665.1563 Q1097.9719,665.1563 1097.7688,664.9531 Q1097.5656,664.7656 1097.4563,664.25 Q1097.4094,663.8906 1097.2219,663.7031 Q1096.8938,663.3281 1096.2844,663.1094 Q1095.675,662.8906 1095.05,662.8906 Q1094.2844,662.8906 1093.6438,663.2188 Q1093.0188,663.5469 1092.5188,664.2969 Q1092.0344,665.0469 1092.0344,666.0781 L1092.0344,667.1719 Q1092.0344,668.4063 1092.925,669.2344 Q1093.8156,670.0469 1095.4094,670.0469 Q1096.3469,670.0469 1097.0031,669.7969 Q1097.3938,669.6406 1097.8156,669.2031 Q1098.0813,668.9375 1098.2219,668.8594 Q1098.3781,668.7813 1098.5813,668.7813 Q1098.9094,668.7813 1099.1594,669.0469 Q1099.425,669.2969 1099.425,669.6406 Q1099.425,669.9844 1099.0813,670.3906 Q1098.5813,670.9688 1097.7844,671.2969 Q1096.7063,671.75 1095.4094,671.75 Q1093.8938,671.75 1092.6906,671.125 Q1091.7063,670.625 1091.0188,669.5625 Q1090.3313,668.4844 1090.3313,667.2031 L1090.3313,666.0469 Q1090.3313,664.7188 1090.9406,663.5781 Q1091.5656,662.4219 1092.6594,661.8125 Q1093.7531,661.1875 1094.9875,661.1875 Q1095.7219,661.1875 1096.3625,661.3594 Q1097.0188,661.5156 1097.5656,661.875 Z " /><text fill="#000000" font-family="sans-serif" font-size="12" lengthAdjust="spacingAndGlyphs" textLength="51" x="1110.2" y="670.9102">Utilizador</text>
        <line style="stroke: #A80036; stroke-width: 1.5;" x1="1074.5" x2="1169.5" y1="682" y2="682" /><text fill="#000000" font-family="sans-serif" font-size="11" lengthAdjust="spacingAndGlyphs" textLength="61" x="1079.5" y="697.4189">-String nome</text><text fill="#000000" font-family="sans-serif" font-size="11" lengthAdjust="spacingAndGlyphs" textLength="59" x="1079.5" y="711.2549">-String email</text><text fill="#000000" font-family="sans-serif" font-size="11" lengthAdjust="spacingAndGlyphs" textLength="85" x="1079.5" y="725.0908">-String password</text>
        <!--MD5=[718b46c9a1975c175f4073d63ce5ccba]
link Plataforma to AreaAtividade-->
        <path d="M70.9728,208.953 C84.5243,182.005 108.396,140.873 139,114 C206.063,55.112 230.252,26 319.5,26 C319.5,26 319.5,26 1625.5,26 C1703.2,26 1783.91,67.57 1836.19,100.939 " fill="none" id="Plataforma-AreaAtividade" style="stroke: #A80036; stroke-width: 1.0;" /><text fill="#000000" font-family="sans-serif" font-size="13" lengthAdjust="spacingAndGlyphs" textLength="38" x="958.5" y="22.4951">possui</text>
        <polygon fill="#000000" points="999.5,15.6758,1005.5,18.6758,999.5,21.6758,999.5,15.6758" style="stroke: #000000; stroke-width: 1.0;" /><text fill="#000000" font-family="sans-serif" font-size="13" lengthAdjust="spacingAndGlyphs" textLength="7" x="66.4037" y="197.9683">1</text><text fill="#000000" font-family="sans-serif" font-size="13" lengthAdjust="spacingAndGlyphs" textLength="5" x="1821.8785" y="90.9863">*</text>
        <!--MD5=[a77d152358ce76c19672aacd9fb0ada1]
link Plataforma to CompetenciaTecnica-->
        <path d="M86.7762,208.869 C132.041,168.418 225.295,97 319.5,97 C319.5,97 319.5,97 1360.5,97 C1425.12,97 1497.41,110.362 1549.82,122.524 " fill="none" id="Plataforma-CompetenciaTecnica" style="stroke: #A80036; stroke-width: 1.0;" /><text fill="#000000" font-family="sans-serif" font-size="13" lengthAdjust="spacingAndGlyphs" textLength="38" x="840" y="93.4951">possui</text>
        <polygon fill="#000000" points="881,86.6758,887,89.6758,881,92.6758,881,86.6758" style="stroke: #000000; stroke-width: 1.0;" /><text fill="#000000" font-family="sans-serif" font-size="13" lengthAdjust="spacingAndGlyphs" textLength="7" x="85.7369" y="198.2997">1</text><text fill="#000000" font-family="sans-serif" font-size="13" lengthAdjust="spacingAndGlyphs" textLength="5" x="1536.8608" y="134.8792">*</text>
        <!--MD5=[1c2ad462e362697fcdc859a6327d55c7]
link Plataforma to Organizacao-->
        <path d="M102.1855,263.115 C148.478,291.848 221.445,337.138 269.877,367.199 " fill="none" id="Plataforma-Organizacao" style="stroke: #A80036; stroke-width: 1.0;" /><text fill="#000000" font-family="sans-serif" font-size="13" lengthAdjust="spacingAndGlyphs" textLength="86" x="140" y="284.4951">tem registadas</text>
        <polygon fill="#000000" points="229,277.6758,235,280.6758,229,283.6758,229,277.6758" style="stroke: #000000; stroke-width: 1.0;" /><text fill="#000000" font-family="sans-serif" font-size="13" lengthAdjust="spacingAndGlyphs" textLength="7" x="104.1948" y="284.3479">1</text><text fill="#000000" font-family="sans-serif" font-size="13" lengthAdjust="spacingAndGlyphs" textLength="5" x="257.0746" y="377.3578">*</text>
        <!--MD5=[39c0de7668d8063a4eb96c23050b3de2]
link Plataforma to Freelancer-->
        <path d="M72.042,263.179 C86.7047,291.413 111.686,336.242 139,371 C231.77,489.054 367.881,607.585 422.989,653.793 " fill="none" id="Plataforma-Freelancer" style="stroke: #A80036; stroke-width: 1.0;" /><text fill="#000000" font-family="sans-serif" font-size="13" lengthAdjust="spacingAndGlyphs" textLength="47" x="159.5" y="367.4951">tem/usa</text>
        <polygon fill="#000000" points="178.5,376.3516,181.5,382.3516,184.5,376.3516,178.5,376.3516" style="stroke: #000000; stroke-width: 1.0;" /><text fill="#000000" font-family="sans-serif" font-size="13" lengthAdjust="spacingAndGlyphs" textLength="7" x="67.4574" y="284.4259">1</text><text fill="#000000" font-family="sans-serif" font-size="13" lengthAdjust="spacingAndGlyphs" textLength="5" x="409.7608" y="643.0539">*</text>
        <!--MD5=[b585ec1f109bee2e6a0accf9e50b3199]
link Plataforma to Administrativo-->
        <path d="M63.2855,263.177 C72.528,310.959 95.834,412.05 139,487 C182.345,562.26 203.137,576.572 270,632 C322.521,675.538 336.907,688.6302 401,712 C493.813,745.8421 609.452,756.7816 675.846,760.3157 " fill="none" id="Plataforma-Administrativo" style="stroke: #A80036; stroke-width: 1.0;" /><text fill="#000000" font-family="sans-serif" font-size="13" lengthAdjust="spacingAndGlyphs" textLength="22" x="303" y="628.4951">tem</text>
        <polygon fill="#000000" points="328,621.6758,334,624.6758,328,627.6758,328,621.6758" style="stroke: #000000; stroke-width: 1.0;" /><text fill="#000000" font-family="sans-serif" font-size="13" lengthAdjust="spacingAndGlyphs" textLength="7" x="56.7855" y="284.4235">1</text><text fill="#000000" font-family="sans-serif" font-size="13" lengthAdjust="spacingAndGlyphs" textLength="5" x="663.1659" y="774.6831">*</text>
        <!--MD5=[cb8556493ec2c94f9603162dd119feba]
link Plataforma to Categoria-->
        <path d="M109.288,231.382 C195.069,223.837 374.162,209.191 526,204 C641.044,200.067 669.946,200.386 785,204 C795.643,204.334 807.076,204.92 817.861,205.575 " fill="none" id="Plataforma-Categoria" style="stroke: #A80036; stroke-width: 1.0;" /><text fill="#000000" font-family="sans-serif" font-size="13" lengthAdjust="spacingAndGlyphs" textLength="38" x="423" y="201.4951">possui</text>
        <polygon fill="#000000" points="464,194.6758,470,197.6758,464,200.6758,464,194.6758" style="stroke: #000000; stroke-width: 1.0;" /><text fill="#000000" font-family="sans-serif" font-size="13" lengthAdjust="spacingAndGlyphs" textLength="7" x="117.0629" y="245.389">1</text><text fill="#000000" font-family="sans-serif" font-size="13" lengthAdjust="spacingAndGlyphs" textLength="5" x="804.8701" y="201.3034">*</text>
        <!--MD5=[567db691f9836c63f305bad1024cbc66]
link Organizacao to Colaborador-->
        <path d="M371.127,402.021 C474.41,410.391 711.439,429.597 814.792,437.972 " fill="none" id="Organizacao-Colaborador" style="stroke: #A80036; stroke-width: 1.0;" /><text fill="#000000" font-family="sans-serif" font-size="13" lengthAdjust="spacingAndGlyphs" textLength="22" x="568.5" y="410.4951">tem</text>
        <polygon fill="#000000" points="593.5,403.6758,599.5,406.6758,593.5,409.6758,593.5,403.6758" style="stroke: #000000; stroke-width: 1.0;" /><text fill="#000000" font-family="sans-serif" font-size="13" lengthAdjust="spacingAndGlyphs" textLength="7" x="379.0769" y="417.2943">1</text><text fill="#000000" font-family="sans-serif" font-size="13" lengthAdjust="spacingAndGlyphs" textLength="20" x="787.0138" y="433.9265">1..*</text>
        <!--MD5=[567db691f9836c63f305bad1024cbc66]
link Organizacao to Colaborador-->
        <path d="M371.032,412.053 C380.938,414.766 391.285,417.53 401,420 C456.273,434.053 469.339,442.513 526,449 C578.987,455.066 592.674,449.854 646,449 C703.872,448.073 770.332,445.767 814.612,444.053 " fill="none" id="Organizacao-Colaborador-1" style="stroke: #A80036; stroke-width: 1.0;" /><text fill="#000000" font-family="sans-serif" font-size="13" lengthAdjust="spacingAndGlyphs" textLength="62" x="548.5" y="445.4951">tem gestor</text>
        <polygon fill="#000000" points="613.5,438.6758,619.5,441.6758,613.5,444.6758,613.5,438.6758" style="stroke: #000000; stroke-width: 1.0;" /><text fill="#000000" font-family="sans-serif" font-size="13" lengthAdjust="spacingAndGlyphs" textLength="7" x="378.968" y="428.7998">1</text><text fill="#000000" font-family="sans-serif" font-size="13" lengthAdjust="spacingAndGlyphs" textLength="7" x="799.9637" y="458.9624">1</text>
        <!--MD5=[ca49ec1e86bb5e8c049c02c54bfc3088]
link Organizacao to EnderecoPostal-->
        <path d="M343.826,452.57 C357.044,479.059 376.117,509.506 401,530 C436.952,559.609 487.12,576.716 525.992,586.221 " fill="none" id="Organizacao-EnderecoPostal" style="stroke: #A80036; stroke-width: 1.0;" /><text fill="#000000" font-family="sans-serif" font-size="13" lengthAdjust="spacingAndGlyphs" textLength="80" x="402" y="526.4951">localizada em</text>
        <polygon fill="#000000" points="485,519.6758,491,522.6758,485,525.6758,485,519.6758" style="stroke: #000000; stroke-width: 1.0;" /><text fill="#000000" font-family="sans-serif" font-size="13" lengthAdjust="spacingAndGlyphs" textLength="7" x="339.3662" y="474.0929">1</text><text fill="#000000" font-family="sans-serif" font-size="13" lengthAdjust="spacingAndGlyphs" textLength="7" x="510.855" y="599.4141">1</text>
        <!--MD5=[cf2deab2ed1f09cef5b70f58ef028e55]
link Organizacao to Tarefa-->
        <path d="M371.062,376.369 C416.681,356.46 484.188,326.998 531.126,306.513 " fill="none" id="Organizacao-Tarefa" style="stroke: #A80036; stroke-width: 1.0;" /><text fill="#000000" font-family="sans-serif" font-size="13" lengthAdjust="spacingAndGlyphs" textLength="38" x="423" y="319.4951">possui</text>
        <polygon fill="#000000" points="464,312.6758,470,315.6758,464,318.6758,464,312.6758" style="stroke: #000000; stroke-width: 1.0;" /><text fill="#000000" font-family="sans-serif" font-size="13" lengthAdjust="spacingAndGlyphs" textLength="7" x="379.0024" y="387.8747">1</text><text fill="#000000" font-family="sans-serif" font-size="13" lengthAdjust="spacingAndGlyphs" textLength="5" x="518.4164" y="324.2652">*</text>
        <!--MD5=[e538c9efa8de58386edc6206f3c58807]
link CompetenciaTecnica to AreaAtividade-->
        <path d="M1699.09,142 C1741.86,142 1795.01,142 1834.92,142 " fill="none" id="CompetenciaTecnica-AreaAtividade" style="stroke: #A80036; stroke-width: 1.0;" /><text fill="#000000" font-family="sans-serif" font-size="13" lengthAdjust="spacingAndGlyphs" textLength="61" x="1730" y="138.4951">referente a</text>
        <polygon fill="#000000" points="1794,131.6758,1800,134.6758,1794,137.6758,1794,131.6758" style="stroke: #000000; stroke-width: 1.0;" /><text fill="#000000" font-family="sans-serif" font-size="13" lengthAdjust="spacingAndGlyphs" textLength="5" x="1707.0399" y="156.3636">*</text><text fill="#000000" font-family="sans-serif" font-size="13" lengthAdjust="spacingAndGlyphs" textLength="7" x="1819.8379" y="156.5742">1</text>
        <!--MD5=[333932e5e4606ec9852f0cecc179b212]
link Categoria to AreaAtividade-->
        <path d="M913.376,223.272 C964.063,237.421 1047.49,257 1121,257 C1121,257 1121,257 1625.5,257 C1702.84,257 1783.3,216.057 1835.62,183.031 " fill="none" id="Categoria-AreaAtividade" style="stroke: #A80036; stroke-width: 1.0;" /><text fill="#000000" font-family="sans-serif" font-size="13" lengthAdjust="spacingAndGlyphs" textLength="93" x="1306.5" y="253.4951">enquadra-se em</text>
        <polygon fill="#000000" points="1402.5,246.6758,1408.5,249.6758,1402.5,252.6758,1402.5,246.6758" style="stroke: #000000; stroke-width: 1.0;" /><text fill="#000000" font-family="sans-serif" font-size="13" lengthAdjust="spacingAndGlyphs" textLength="7" x="920.9219" y="240.0882">1</text><text fill="#000000" font-family="sans-serif" font-size="13" lengthAdjust="spacingAndGlyphs" textLength="7" x="1819.8478" y="203.4804">1</text>
        <!--MD5=[d2861110f88fc96a0e294c99a2549543]
link Categoria to ListaCTRequeridas-->
        <path d="M913.179,204.048 C951.924,199.937 1007.6,194.031 1051.57,189.366 " fill="none" id="Categoria-ListaCTRequeridas" style="stroke: #A80036; stroke-width: 1.0;" /><text fill="#000000" font-family="sans-serif" font-size="13" lengthAdjust="spacingAndGlyphs" textLength="22" x="966.5" y="189.4951">tem</text>
        <polygon fill="#000000" points="991.5,182.6758,997.5,185.6758,991.5,188.6758,991.5,182.6758" style="stroke: #000000; stroke-width: 1.0;" /><text fill="#000000" font-family="sans-serif" font-size="13" lengthAdjust="spacingAndGlyphs" textLength="7" x="921.0158" y="218.0619">1</text><text fill="#000000" font-family="sans-serif" font-size="13" lengthAdjust="spacingAndGlyphs" textLength="7" x="1036.946" y="204.4639">1</text>
        <!--MD5=[31002d646396ec4783fb010881d737e9]
link ListaCTRequeridas to CaraterCT-->
        <path d="M1192.07,180.534 C1228.03,179.77 1271.35,178.85 1304.78,178.141 " fill="none" id="ListaCTRequeridas-CaraterCT" style="stroke: #A80036; stroke-width: 1.0;" /><text fill="#000000" font-family="sans-serif" font-size="13" lengthAdjust="spacingAndGlyphs" textLength="38" x="1223" y="174.4951">possui</text>
        <polygon fill="#000000" points="1264,167.6758,1270,170.6758,1264,173.6758,1264,167.6758" style="stroke: #000000; stroke-width: 1.0;" /><text fill="#000000" font-family="sans-serif" font-size="13" lengthAdjust="spacingAndGlyphs" textLength="7" x="1200.1167" y="194.763">1</text><text fill="#000000" font-family="sans-serif" font-size="13" lengthAdjust="spacingAndGlyphs" textLength="5" x="1292.0911" y="192.8991">*</text>
        <!--MD5=[c75634cbdcfa2b68969b4225848e5f92]
link CaraterCT to CompetenciaTecnica-->
        <path d="M1414.04,169.875 C1453.09,164.678 1506.49,157.571 1549.6,151.834 " fill="none" id="CaraterCT-CompetenciaTecnica" style="stroke: #A80036; stroke-width: 1.0;" /><text fill="#000000" font-family="sans-serif" font-size="13" lengthAdjust="spacingAndGlyphs" textLength="61" x="1445" y="152.4951">referente a</text>
        <polygon fill="#000000" points="1509,145.6758,1515,148.6758,1509,151.6758,1509,145.6758" style="stroke: #000000; stroke-width: 1.0;" /><text fill="#000000" font-family="sans-serif" font-size="13" lengthAdjust="spacingAndGlyphs" textLength="5" x="1422.0613" y="183.5294">*</text><text fill="#000000" font-family="sans-serif" font-size="13" lengthAdjust="spacingAndGlyphs" textLength="7" x="1534.8825" y="167.1262">1</text>
        <!--MD5=[cc2561a0285988b367253361d2d1973d]
link Tarefa to Categoria-->
        <path d="M640.505,268.732 C691.849,255.04 768.619,234.568 817.622,221.501 " fill="none" id="Tarefa-Categoria" style="stroke: #A80036; stroke-width: 1.0;" /><text fill="#000000" font-family="sans-serif" font-size="13" lengthAdjust="spacingAndGlyphs" textLength="93" x="677.5" y="226.4951">enquadra-se em</text>
        <polygon fill="#000000" points="773.5,219.6758,779.5,222.6758,773.5,225.6758,773.5,219.6758" style="stroke: #000000; stroke-width: 1.0;" /><text fill="#000000" font-family="sans-serif" font-size="13" lengthAdjust="spacingAndGlyphs" textLength="5" x="648.5213" y="281.3693">*</text><text fill="#000000" font-family="sans-serif" font-size="13" lengthAdjust="spacingAndGlyphs" textLength="7" x="803.0759" y="238.0571">1</text>
        <!--MD5=[ebe0b2adceebb6ee2636cb1948c7c8a9]
link Tarefa to Colaborador-->
        <path d="M640.907,302.161 C682.033,317.957 739.215,342.512 785,372 C795.204,378.572 805.431,386.408 814.99,394.419 " fill="none" id="Tarefa-Colaborador" style="stroke: #A80036; stroke-width: 1.0;" /><text fill="#000000" font-family="sans-serif" font-size="13" lengthAdjust="spacingAndGlyphs" textLength="94" x="677" y="314.4951">especificada por</text>
        <polygon fill="#000000" points="774,307.6758,780,310.6758,774,313.6758,774,307.6758" style="stroke: #000000; stroke-width: 1.0;" /><text fill="#000000" font-family="sans-serif" font-size="13" lengthAdjust="spacingAndGlyphs" textLength="5" x="648.6211" y="319.3284">*</text><text fill="#000000" font-family="sans-serif" font-size="13" lengthAdjust="spacingAndGlyphs" textLength="7" x="800.0573" y="402.1012">1</text>
        <!--MD5=[6a7c57800a31452a20aa2f5037e36afb]
link Freelancer to Utilizador-->
        <path d="M494.079,675.129 C615.056,678.191 948.781,686.64 1073.32,689.7928 " fill="none" id="Freelancer-Utilizador" style="stroke: #A80036; stroke-width: 1.0;" /><text fill="#000000" font-family="sans-serif" font-size="13" lengthAdjust="spacingAndGlyphs" textLength="61" x="693.5" y="675.4951">atua como</text>
        <polygon fill="#000000" points="757.5,668.6758,763.5,671.6758,757.5,674.6758,757.5,668.6758" style="stroke: #000000; stroke-width: 1.0;" /><text fill="#000000" font-family="sans-serif" font-size="13" lengthAdjust="spacingAndGlyphs" textLength="22" x="502.0354" y="689.9326">0..1</text><text fill="#000000" font-family="sans-serif" font-size="13" lengthAdjust="spacingAndGlyphs" textLength="7" x="1058.6561" y="704.3476">1</text>
        <!--MD5=[83793280d21cff2204dcf19c1386ed48]
link Administrativo to Utilizador-->
        <path d="M785.121,755.6158 C843.681,748.1978 940.06,734.6806 1022,717 C1038.85,713.3643 1057.14,708.751 1073.37,704.4228 " fill="none" id="Administrativo-Utilizador" style="stroke: #A80036; stroke-width: 1.0;" /><text fill="#000000" font-family="sans-serif" font-size="13" lengthAdjust="spacingAndGlyphs" textLength="61" x="828.5" y="733.4951">atua como</text>
        <polygon fill="#000000" points="892.5,726.6758,898.5,729.6758,892.5,732.6758,892.5,726.6758" style="stroke: #000000; stroke-width: 1.0;" /><text fill="#000000" font-family="sans-serif" font-size="13" lengthAdjust="spacingAndGlyphs" textLength="22" x="793.1186" y="769.3293">0..1</text><text fill="#000000" font-family="sans-serif" font-size="13" lengthAdjust="spacingAndGlyphs" textLength="7" x="1058.3876" y="721.2629">1</text>
        <!--MD5=[bcb5794e8184ce78d304f04a5beabbc0]
link Colaborador to Utilizador-->
        <path d="M915.269,489.715 C962.61,536.033 1033.73,605.614 1078.73,649.643 " fill="none" id="Colaborador-Utilizador" style="stroke: #A80036; stroke-width: 1.0;" /><text fill="#000000" font-family="sans-serif" font-size="13" lengthAdjust="spacingAndGlyphs" textLength="61" x="947" y="518.4951">atua como</text>
        <polygon fill="#000000" points="1011,511.6758,1017,514.6758,1011,517.6758,1011,511.6758" style="stroke: #000000; stroke-width: 1.0;" /><text fill="#000000" font-family="sans-serif" font-size="13" lengthAdjust="spacingAndGlyphs" textLength="22" x="898.9632" y="511.3938">0..1</text><text fill="#000000" font-family="sans-serif" font-size="13" lengthAdjust="spacingAndGlyphs" textLength="7" x="1063.9837" y="639.0332">1</text>
        <!--MD5=[14b8005500607290e4de45354c88e62e]
@startuml
skinparam classAttributeIconSize 0
hide methods
left to right direction

class Plataforma {
  -String designacao
}

class AreaAtividade {
  -String codigo
  -String descBreve
  -String descDetalhada

}

class CompetenciaTecnica {
  -String codigo
  -String descBreve
  -String descDetalhada
}

class Categoria {
  -String id
  -String descricao
}

class Organizacao {
  -String nome
  -String NIF
  -String website
  -String telefone
  -String email
}

class Colaborador {
  -String nome
  -String funcao
  -String telefone
  -String email
}

class EnderecoPostal {
  -String local
  -String codPostal
  -String localidade
}

class ListaCTRequeridas
{
}

class CaraterCT {
  -Boolean obrigatoria
}

class Tarefa {
  -String referencia
  -String designacao
  -String descInformal
  -String descTecnica
  -Integer duracaoEst
  -Double custoEst
}

class Freelancer {

}

class Administrativo {

}

class Utilizador {
  -String nome
  -String email
  -String password
}

Plataforma "1" - - "*" AreaAtividade : possui >
Plataforma "1" - - "*" CompetenciaTecnica : possui >
Plataforma "1" - - "*" Organizacao : tem registadas >
Plataforma "1" - - "*" Freelancer : tem/usa  >
Plataforma "1" - - "*" Administrativo : tem  >
Plataforma "1" - - "*" Categoria : possui >

Organizacao "1" - - "1..*" Colaborador: tem >
Organizacao "1" - - "1" Colaborador: tem gestor >
Organizacao "1" - - "1" EnderecoPostal: localizada em >
Organizacao "1" - - "*" Tarefa: possui >

CompetenciaTecnica "*" - - "1" AreaAtividade : referente a >

Categoria "1" - - "1" AreaAtividade: enquadra-se em >
Categoria "1" - - "1" ListaCTRequeridas : tem >
ListaCTRequeridas "1" - - "*" CaraterCT: possui >
CaraterCT "*" - - "1" CompetenciaTecnica : referente a >

Tarefa "*" - - "1" Categoria: enquadra-se em >
Tarefa "*" - - "1" Colaborador: especificada por >

Freelancer "0..1" - - "1" Utilizador: atua como >
Administrativo "0..1" - - "1" Utilizador: atua como >
Colaborador "0..1" - - "1" Utilizador: atua como >

@enduml

PlantUML version 1.2020.01(Sun Feb 16 17:40:32 WET 2020)
(GPL source distribution)
Java Runtime: Java(TM) SE Runtime Environment
JVM: Java HotSpot(TM) 64-Bit Server VM
Java Version: 13.0.2+8
Operating System: Windows 10
Default Encoding: Cp1252
Language: pt
Country: PT
-->
    </g>
</svg>