<?xml version="1.0" encoding="UTF-8" standalone="no"?><svg xmlns="http://www.w3.org/2000/svg" xmlns:xlink="http://www.w3.org/1999/xlink" contentScriptType="application/ecmascript" contentStyleType="text/css" height="833px" preserveAspectRatio="none" style="width:1260px;height:833px;" version="1.1" viewBox="0 0 1260 833" width="1260px" zoomAndPan="magnify"><defs><filter height="300%" id="f1glgvyi2k0dfd" width="300%" x="-1" y="-1"><feGaussianBlur result="blurOut" stdDeviation="2.0"/><feColorMatrix in="blurOut" result="blurOut2" type="matrix" values="0 0 0 0 0 0 0 0 0 0 0 0 0 0 0 0 0 0 .4 0"/><feOffset dx="4.0" dy="4.0" in="blurOut2" result="blurOut3"/><feBlend in="SourceGraphic" in2="blurOut3" mode="normal"/></filter></defs><g><!--MD5=[ac8682ea5466d223e49472789fb200d2]
class Colaborador--><rect fill="#FEFECE" filter="url(#f1glgvyi2k0dfd)" height="138.6855" id="Colaborador" style="stroke: #A80036; stroke-width: 1.5;" width="215" x="387.5" y="684"/><ellipse cx="454.75" cy="700" fill="#ADD1B2" rx="11" ry="11" style="stroke: #A80036; stroke-width: 1.0;"/><path d="M457.2231,706.1431 Q456.6421,706.4419 456.0029,706.5913 Q455.3638,706.7407 454.6582,706.7407 Q452.1514,706.7407 450.8315,705.0889 Q449.5117,703.437 449.5117,700.3159 Q449.5117,697.1865 450.8315,695.5347 Q452.1514,693.8828 454.6582,693.8828 Q455.3638,693.8828 456.0112,694.0322 Q456.6587,694.1816 457.2231,694.4805 L457.2231,697.2031 Q456.5923,696.6221 455.9988,696.3523 Q455.4053,696.0825 454.7744,696.0825 Q453.4297,696.0825 452.7449,697.1492 Q452.0601,698.2158 452.0601,700.3159 Q452.0601,702.4077 452.7449,703.4744 Q453.4297,704.541 454.7744,704.541 Q455.4053,704.541 455.9988,704.2712 Q456.5923,704.0015 457.2231,703.4204 Z "/><text fill="#000000" font-family="sans-serif" font-size="12" lengthAdjust="spacingAndGlyphs" textLength="72" x="475.25" y="704.5352">Colaborador</text><line style="stroke: #A80036; stroke-width: 1.5;" x1="388.5" x2="601.5" y1="716" y2="716"/><text fill="#000000" font-family="sans-serif" font-size="11" lengthAdjust="spacingAndGlyphs" textLength="71" x="393.5" y="730.6348">-String nome</text><text fill="#000000" font-family="sans-serif" font-size="11" lengthAdjust="spacingAndGlyphs" textLength="78" x="393.5" y="743.5898">-String funcao</text><text fill="#000000" font-family="sans-serif" font-size="11" lengthAdjust="spacingAndGlyphs" textLength="84" x="393.5" y="756.5449">-String telefone</text><text fill="#000000" font-family="sans-serif" font-size="11" lengthAdjust="spacingAndGlyphs" textLength="69" x="393.5" y="769.5">-String email</text><line style="stroke: #A80036; stroke-width: 1.5;" x1="388.5" x2="601.5" y1="775.8203" y2="775.8203"/><text fill="#000000" font-family="sans-serif" font-size="11" lengthAdjust="spacingAndGlyphs" textLength="203" x="393.5" y="790.4551">+Colaborador(nome,função,tlf, email)</text><text fill="#000000" font-family="sans-serif" font-size="11" lengthAdjust="spacingAndGlyphs" textLength="100" x="393.5" y="803.4102">+String getNome()</text><text fill="#000000" font-family="sans-serif" font-size="11" lengthAdjust="spacingAndGlyphs" textLength="97" x="393.5" y="816.3652">+String getEmail()</text><!--MD5=[dcda844062f930f807532403427d3023]
class EnderecoPostal--><rect fill="#FEFECE" filter="url(#f1glgvyi2k0dfd)" height="99.8203" id="EnderecoPostal" style="stroke: #A80036; stroke-width: 1.5;" width="248" x="844" y="703.5"/><ellipse cx="919.75" cy="719.5" fill="#ADD1B2" rx="11" ry="11" style="stroke: #A80036; stroke-width: 1.0;"/><path d="M922.2231,725.6431 Q921.6421,725.9419 921.0029,726.0913 Q920.3638,726.2407 919.6582,726.2407 Q917.1514,726.2407 915.8315,724.5889 Q914.5117,722.937 914.5117,719.8159 Q914.5117,716.6865 915.8315,715.0347 Q917.1514,713.3828 919.6582,713.3828 Q920.3638,713.3828 921.0112,713.5322 Q921.6587,713.6816 922.2231,713.9805 L922.2231,716.7031 Q921.5923,716.1221 920.9988,715.8523 Q920.4053,715.5825 919.7744,715.5825 Q918.4297,715.5825 917.7449,716.6492 Q917.0601,717.7158 917.0601,719.8159 Q917.0601,721.9077 917.7449,722.9744 Q918.4297,724.041 919.7744,724.041 Q920.4053,724.041 920.9988,723.7712 Q921.5923,723.5015 922.2231,722.9204 Z "/><text fill="#000000" font-family="sans-serif" font-size="12" lengthAdjust="spacingAndGlyphs" textLength="88" x="940.25" y="724.0352">EnderecoPostal</text><line style="stroke: #A80036; stroke-width: 1.5;" x1="845" x2="1091" y1="735.5" y2="735.5"/><text fill="#000000" font-family="sans-serif" font-size="11" lengthAdjust="spacingAndGlyphs" textLength="66" x="850" y="750.1348">-String local</text><text fill="#000000" font-family="sans-serif" font-size="11" lengthAdjust="spacingAndGlyphs" textLength="93" x="850" y="763.0898">-String codPostal</text><text fill="#000000" font-family="sans-serif" font-size="11" lengthAdjust="spacingAndGlyphs" textLength="95" x="850" y="776.0449">-String localidade</text><line style="stroke: #A80036; stroke-width: 1.5;" x1="845" x2="1091" y1="782.3652" y2="782.3652"/><text fill="#000000" font-family="sans-serif" font-size="11" lengthAdjust="spacingAndGlyphs" textLength="236" x="850" y="797">+EnderecoPostal(local,codPostal,localidade)</text><!--MD5=[807977ceb130c090ed5febfb6de2bdea]
class Organizacao--><rect fill="#FEFECE" filter="url(#f1glgvyi2k0dfd)" height="151.6406" id="Organizacao" style="stroke: #A80036; stroke-width: 1.5;" width="432" x="389" y="455"/><ellipse cx="564.75" cy="471" fill="#ADD1B2" rx="11" ry="11" style="stroke: #A80036; stroke-width: 1.0;"/><path d="M567.2231,477.1431 Q566.6421,477.4419 566.0029,477.5913 Q565.3638,477.7407 564.6582,477.7407 Q562.1514,477.7407 560.8315,476.0889 Q559.5117,474.437 559.5117,471.3159 Q559.5117,468.1865 560.8315,466.5347 Q562.1514,464.8828 564.6582,464.8828 Q565.3638,464.8828 566.0112,465.0322 Q566.6587,465.1816 567.2231,465.4805 L567.2231,468.2031 Q566.5923,467.6221 565.9988,467.3523 Q565.4053,467.0825 564.7744,467.0825 Q563.4297,467.0825 562.7449,468.1492 Q562.0601,469.2158 562.0601,471.3159 Q562.0601,473.4077 562.7449,474.4744 Q563.4297,475.541 564.7744,475.541 Q565.4053,475.541 565.9988,475.2712 Q566.5923,475.0015 567.2231,474.4204 Z "/><text fill="#000000" font-family="sans-serif" font-size="12" lengthAdjust="spacingAndGlyphs" textLength="72" x="585.25" y="475.5352">Organizacao</text><line style="stroke: #A80036; stroke-width: 1.5;" x1="390" x2="820" y1="487" y2="487"/><text fill="#000000" font-family="sans-serif" font-size="11" lengthAdjust="spacingAndGlyphs" textLength="71" x="395" y="501.6348">-String nome</text><text fill="#000000" font-family="sans-serif" font-size="11" lengthAdjust="spacingAndGlyphs" textLength="58" x="395" y="514.5898">-String NIF</text><text fill="#000000" font-family="sans-serif" font-size="11" lengthAdjust="spacingAndGlyphs" textLength="81" x="395" y="527.5449">-String website</text><text fill="#000000" font-family="sans-serif" font-size="11" lengthAdjust="spacingAndGlyphs" textLength="84" x="395" y="540.5">-String telefone</text><text fill="#000000" font-family="sans-serif" font-size="11" lengthAdjust="spacingAndGlyphs" textLength="69" x="395" y="553.4551">-String email</text><line style="stroke: #A80036; stroke-width: 1.5;" x1="390" x2="820" y1="559.7754" y2="559.7754"/><text fill="#000000" font-family="sans-serif" font-size="11" lengthAdjust="spacingAndGlyphs" textLength="420" x="395" y="574.4102">+Organizacao(nome, NIF,webSite,telefone, email,endereco,gestorColaborador)</text><text fill="#000000" font-family="sans-serif" font-size="11" lengthAdjust="spacingAndGlyphs" text-decoration="underline" textLength="316" x="395" y="587.3652">+EnderecoPostal novoEndereco(local,codPostal,localidade)</text><text fill="#000000" font-family="sans-serif" font-size="11" lengthAdjust="spacingAndGlyphs" text-decoration="underline" textLength="301" x="395" y="600.3203">+Colaborador novoColaborador(nome,funcao,tlf, email)</text><!--MD5=[ecaed46f78f8cfe1e9ce18477649be18]
class Plataforma--><rect fill="#FEFECE" filter="url(#f1glgvyi2k0dfd)" height="125.7305" id="Plataforma" style="stroke: #A80036; stroke-width: 1.5;" width="371" x="419.5" y="252"/><ellipse cx="569.75" cy="268" fill="#ADD1B2" rx="11" ry="11" style="stroke: #A80036; stroke-width: 1.0;"/><path d="M572.2231,274.1431 Q571.6421,274.4419 571.0029,274.5913 Q570.3638,274.7407 569.6582,274.7407 Q567.1514,274.7407 565.8315,273.0889 Q564.5117,271.437 564.5117,268.3159 Q564.5117,265.1865 565.8315,263.5347 Q567.1514,261.8828 569.6582,261.8828 Q570.3638,261.8828 571.0112,262.0322 Q571.6587,262.1816 572.2231,262.4805 L572.2231,265.2031 Q571.5923,264.6221 570.9988,264.3523 Q570.4053,264.0825 569.7744,264.0825 Q568.4297,264.0825 567.7449,265.1492 Q567.0601,266.2158 567.0601,268.3159 Q567.0601,270.4077 567.7449,271.4744 Q568.4297,272.541 569.7744,272.541 Q570.4053,272.541 570.9988,272.2712 Q571.5923,272.0015 572.2231,271.4204 Z "/><text fill="#000000" font-family="sans-serif" font-size="12" lengthAdjust="spacingAndGlyphs" textLength="62" x="590.25" y="272.5352">Plataforma</text><line style="stroke: #A80036; stroke-width: 1.5;" x1="420.5" x2="789.5" y1="284" y2="284"/><text fill="#000000" font-family="sans-serif" font-size="11" lengthAdjust="spacingAndGlyphs" textLength="102" x="425.5" y="298.6348">-String designacao</text><line style="stroke: #A80036; stroke-width: 1.5;" x1="420.5" x2="789.5" y1="304.9551" y2="304.9551"/><text fill="#000000" font-family="sans-serif" font-size="11" lengthAdjust="spacingAndGlyphs" textLength="359" x="425.5" y="319.5898">+Organizacao novaOrganizacao(nome,NIF,endLocal,endCodPostal,</text><text fill="#000000" font-family="sans-serif" font-size="11" lengthAdjust="spacingAndGlyphs" textLength="293" x="425.5" y="332.5449">endLocalidade,tlf,site,email,nomeG,função,tlfG, emailG)</text><text fill="#000000" font-family="sans-serif" font-size="11" lengthAdjust="spacingAndGlyphs" textLength="234" x="425.5" y="345.5">+validaOrganizacao(Organizacao org, pwd)</text><text fill="#000000" font-family="sans-serif" font-size="11" lengthAdjust="spacingAndGlyphs" textLength="247" x="425.5" y="358.4551">+registaAreaAtividade(Organizacao org, pwd)</text><text fill="#000000" font-family="sans-serif" font-size="11" lengthAdjust="spacingAndGlyphs" textLength="192" x="425.5" y="371.4102">-addOrganizacao(Organizacao org)</text><!--MD5=[ed5c6b4e01c9b1c9efc043b411d08420]
class AutorizacaoFacade--><rect fill="#FEFECE" filter="url(#f1glgvyi2k0dfd)" height="60.9551" id="AutorizacaoFacade" style="stroke: #A80036; stroke-width: 1.5;" width="332" x="856" y="500.5"/><ellipse cx="963.25" cy="516.5" fill="#ADD1B2" rx="11" ry="11" style="stroke: #A80036; stroke-width: 1.0;"/><path d="M965.7231,522.6431 Q965.1421,522.9419 964.5029,523.0913 Q963.8638,523.2407 963.1582,523.2407 Q960.6514,523.2407 959.3315,521.5889 Q958.0117,519.937 958.0117,516.8159 Q958.0117,513.6865 959.3315,512.0347 Q960.6514,510.3828 963.1582,510.3828 Q963.8638,510.3828 964.5112,510.5322 Q965.1587,510.6816 965.7231,510.9805 L965.7231,513.7031 Q965.0923,513.1221 964.4988,512.8523 Q963.9053,512.5825 963.2744,512.5825 Q961.9297,512.5825 961.2449,513.6492 Q960.5601,514.7158 960.5601,516.8159 Q960.5601,518.9077 961.2449,519.9744 Q961.9297,521.041 963.2744,521.041 Q963.9053,521.041 964.4988,520.7712 Q965.0923,520.5015 965.7231,519.9204 Z "/><text fill="#000000" font-family="sans-serif" font-size="12" lengthAdjust="spacingAndGlyphs" textLength="109" x="983.75" y="521.0352">AutorizacaoFacade</text><line style="stroke: #A80036; stroke-width: 1.5;" x1="857" x2="1187" y1="532.5" y2="532.5"/><line style="stroke: #A80036; stroke-width: 1.5;" x1="857" x2="1187" y1="540.5" y2="540.5"/><text fill="#000000" font-family="sans-serif" font-size="11" lengthAdjust="spacingAndGlyphs" textLength="320" x="862" y="555.1348">+registaUtilizadorComPapeis(nomeG,emailG,pwd,listaPapel)</text><!--MD5=[dd5ad71b12dabe0adbc098c60a8c9669]
class RegistarOrganizacaoController--><rect fill="#FEFECE" filter="url(#f1glgvyi2k0dfd)" height="73.9102" id="RegistarOrganizacaoController" style="stroke: #A80036; stroke-width: 1.5;" width="618" x="6" y="117"/><ellipse cx="223.25" cy="133" fill="#ADD1B2" rx="11" ry="11" style="stroke: #A80036; stroke-width: 1.0;"/><path d="M225.7231,139.1431 Q225.1421,139.4419 224.5029,139.5913 Q223.8638,139.7407 223.1582,139.7407 Q220.6514,139.7407 219.3315,138.0889 Q218.0117,136.437 218.0117,133.3159 Q218.0117,130.1865 219.3315,128.5347 Q220.6514,126.8828 223.1582,126.8828 Q223.8638,126.8828 224.5112,127.0322 Q225.1587,127.1816 225.7231,127.4805 L225.7231,130.2031 Q225.0923,129.6221 224.4988,129.3523 Q223.9053,129.0825 223.2744,129.0825 Q221.9297,129.0825 221.2449,130.1492 Q220.5601,131.2158 220.5601,133.3159 Q220.5601,135.4077 221.2449,136.4744 Q221.9297,137.541 223.2744,137.541 Q223.9053,137.541 224.4988,137.2712 Q225.0923,137.0015 225.7231,136.4204 Z "/><text fill="#000000" font-family="sans-serif" font-size="12" lengthAdjust="spacingAndGlyphs" textLength="175" x="243.75" y="137.5352">RegistarOrganizacaoController</text><line style="stroke: #A80036; stroke-width: 1.5;" x1="7" x2="623" y1="149" y2="149"/><line style="stroke: #A80036; stroke-width: 1.5;" x1="7" x2="623" y1="157" y2="157"/><text fill="#000000" font-family="sans-serif" font-size="11" lengthAdjust="spacingAndGlyphs" textLength="606" x="12" y="171.6348">+novaOrganizacao(nome,NIF,endLocal,endCodPostal,endLocalidade,tlf,site,email,nomeG,função,tlfG, emailG,pwd)</text><text fill="#000000" font-family="sans-serif" font-size="11" lengthAdjust="spacingAndGlyphs" textLength="122" x="12" y="184.5898">+registaOrganizacao()</text><!--MD5=[26c5f3be5170126d62449270b7dc8f97]
class RegistarOrganizacaoUI--><rect fill="#FEFECE" filter="url(#f1glgvyi2k0dfd)" height="48" id="RegistarOrganizacaoUI" style="stroke: #A80036; stroke-width: 1.5;" width="162" x="234" y="8"/><ellipse cx="249" cy="24" fill="#ADD1B2" rx="11" ry="11" style="stroke: #A80036; stroke-width: 1.0;"/><path d="M251.4731,30.1431 Q250.8921,30.4419 250.2529,30.5913 Q249.6138,30.7407 248.9082,30.7407 Q246.4014,30.7407 245.0815,29.0889 Q243.7617,27.437 243.7617,24.3159 Q243.7617,21.1865 245.0815,19.5347 Q246.4014,17.8828 248.9082,17.8828 Q249.6138,17.8828 250.2612,18.0322 Q250.9087,18.1816 251.4731,18.4805 L251.4731,21.2031 Q250.8423,20.6221 250.2488,20.3523 Q249.6553,20.0825 249.0244,20.0825 Q247.6797,20.0825 246.9949,21.1492 Q246.3101,22.2158 246.3101,24.3159 Q246.3101,26.4077 246.9949,27.4744 Q247.6797,28.541 249.0244,28.541 Q249.6553,28.541 250.2488,28.2712 Q250.8423,28.0015 251.4731,27.4204 Z "/><text fill="#000000" font-family="sans-serif" font-size="12" lengthAdjust="spacingAndGlyphs" textLength="130" x="263" y="28.5352">RegistarOrganizacaoUI</text><line style="stroke: #A80036; stroke-width: 1.5;" x1="235" x2="395" y1="40" y2="40"/><line style="stroke: #A80036; stroke-width: 1.5;" x1="235" x2="395" y1="48" y2="48"/><!--MD5=[5968e6aa320025ed2619ac26e0f01233]
link RegistarOrganizacaoUI to RegistarOrganizacaoController--><path d="M315,56.14 C315,71.83 315,93 315,111.55 " fill="none" id="RegistarOrganizacaoUI-&gt;RegistarOrganizacaoController" style="stroke: #A80036; stroke-width: 1.0; stroke-dasharray: 7.0,7.0;"/><polygon fill="#A80036" points="315,116.71,319,107.71,315,111.71,311,107.71,315,116.71" style="stroke: #A80036; stroke-width: 1.0;"/><!--MD5=[070ebfe6f744f37053d6e1e171d02a8b]
link RegistarOrganizacaoController to Plataforma--><path d="M380.81,191.08 C412.28,208.34 450.94,229.53 487.23,249.43 " fill="none" id="RegistarOrganizacaoController-&gt;Plataforma" style="stroke: #A80036; stroke-width: 1.0; stroke-dasharray: 7.0,7.0;"/><polygon fill="#A80036" points="491.65,251.85,485.6751,244.0206,487.2638,249.4497,481.8346,251.0385,491.65,251.85" style="stroke: #A80036; stroke-width: 1.0;"/><!--MD5=[989fd8e1df01efc14a26ec70914d6dfa]
link RegistarOrganizacaoController to Organizacao--><path d="M322.59,191.26 C333.77,238.1 358.24,320.44 402,378 C422.89,405.48 450.02,430.38 477.61,451.71 " fill="none" id="RegistarOrganizacaoController-&gt;Organizacao" style="stroke: #A80036; stroke-width: 1.0; stroke-dasharray: 7.0,7.0;"/><polygon fill="#A80036" points="481.69,454.83,476.9787,446.1811,477.721,451.789,472.1131,452.5314,481.69,454.83" style="stroke: #A80036; stroke-width: 1.0;"/><!--MD5=[2515147de0c32f839eb301d34face28c]
link Plataforma to Colaborador--><path d="M449.72,378.01 C418.68,397.83 390.08,423.15 372,455 C338.64,513.74 348.78,543.56 372,607 C381.69,633.46 398.55,658.43 416.74,679.96 " fill="none" id="Plataforma-&gt;Colaborador" style="stroke: #A80036; stroke-width: 1.0; stroke-dasharray: 7.0,7.0;"/><polygon fill="#A80036" points="420.15,683.94,417.3123,674.5088,416.889,680.1498,411.248,679.7264,420.15,683.94" style="stroke: #A80036; stroke-width: 1.0;"/><!--MD5=[7e148641835dad6e4592b067083a4cd4]
link Plataforma to EnderecoPostal--><path d="M790.76,333.87 C947.61,353.26 1154.68,390.45 1206,455 C1248.04,507.88 1239.04,548.08 1206,607 C1181.89,650 1139.32,681.81 1096.79,704.53 " fill="none" id="Plataforma-&gt;EnderecoPostal" style="stroke: #A80036; stroke-width: 1.0; stroke-dasharray: 7.0,7.0;"/><polygon fill="#A80036" points="1092.14,706.97,1101.9675,706.3219,1096.5655,704.643,1098.2444,699.241,1092.14,706.97" style="stroke: #A80036; stroke-width: 1.0;"/><!--MD5=[a94ee58fb5d9ea3321f471566b02335d]
link Plataforma to AutorizacaoFacade--><path d="M725.89,378.04 C802.42,417.32 898.2,466.47 959.74,498.05 " fill="none" id="Plataforma-&gt;AutorizacaoFacade" style="stroke: #A80036; stroke-width: 1.0; stroke-dasharray: 7.0,7.0;"/><polygon fill="#A80036" points="964.48,500.48,958.2969,492.8139,960.0309,498.1984,954.6464,499.9324,964.48,500.48" style="stroke: #A80036; stroke-width: 1.0;"/><!--MD5=[1c2ad462e362697fcdc859a6327d55c7]
link Plataforma to Organizacao--><path d="M605,378.19 C605,400.54 605,426.07 605,449.74 " fill="none" id="Plataforma-&gt;Organizacao" style="stroke: #A80036; stroke-width: 1.0;"/><polygon fill="#A80036" points="605,454.76,609,445.76,605,449.76,601,445.76,605,454.76" style="stroke: #A80036; stroke-width: 1.0;"/><text fill="#000000" font-family="sans-serif" font-size="13" lengthAdjust="spacingAndGlyphs" textLength="93" x="606" y="421.5684">tem registadas</text><text fill="#000000" font-family="sans-serif" font-size="13" lengthAdjust="spacingAndGlyphs" textLength="8" x="596.5875" y="398.0782">1</text><text fill="#000000" font-family="sans-serif" font-size="13" lengthAdjust="spacingAndGlyphs" textLength="6" x="598.7141" y="444.3788">*</text><!--MD5=[567db691f9836c63f305bad1024cbc66]
link Organizacao to Colaborador--><path d="M585.12,607.03 C579.79,622.91 573.41,639.31 566,654 C561.76,662.42 556.83,670.9 551.59,679.17 " fill="none" id="Organizacao-&gt;Colaborador" style="stroke: #A80036; stroke-width: 1.0;"/><polygon fill="#A80036" points="548.64,683.74,556.8715,678.3324,551.3438,679.5341,550.1421,674.0064,548.64,683.74" style="stroke: #A80036; stroke-width: 1.0;"/><text fill="#000000" font-family="sans-serif" font-size="13" lengthAdjust="spacingAndGlyphs" textLength="24" x="574" y="650.5684">tem</text><text fill="#000000" font-family="sans-serif" font-size="13" lengthAdjust="spacingAndGlyphs" textLength="8" x="574.9186" y="627.3297">1</text><text fill="#000000" font-family="sans-serif" font-size="13" lengthAdjust="spacingAndGlyphs" textLength="22" x="531.0373" y="673.3731">1..*</text><!--MD5=[567db691f9836c63f305bad1024cbc66]
link Organizacao to Colaborador--><path d="M506.47,607.18 C499.11,616.44 492.73,626.41 488,637 C482.24,649.91 480.18,664.44 480.21,678.74 " fill="none" id="Organizacao-&gt;Colaborador-1" style="stroke: #A80036; stroke-width: 1.0;"/><polygon fill="#A80036" points="480.31,683.99,484.1292,674.9118,480.21,678.991,476.1308,675.0718,480.31,683.99" style="stroke: #A80036; stroke-width: 1.0;"/><text fill="#000000" font-family="sans-serif" font-size="13" lengthAdjust="spacingAndGlyphs" textLength="68" x="489" y="650.5684">tem gestor</text><text fill="#000000" font-family="sans-serif" font-size="13" lengthAdjust="spacingAndGlyphs" textLength="8" x="489.3384" y="627.2309">1</text><text fill="#000000" font-family="sans-serif" font-size="13" lengthAdjust="spacingAndGlyphs" textLength="8" x="470.2658" y="673.1696">1</text><!--MD5=[ca49ec1e86bb5e8c049c02c54bfc3088]
link Organizacao to EnderecoPostal--><path d="M728.66,607.11 C779.41,637.94 836.91,672.87 882.82,700.76 " fill="none" id="Organizacao-&gt;EnderecoPostal" style="stroke: #A80036; stroke-width: 1.0;"/><polygon fill="#A80036" points="887.23,703.44,881.5903,695.3657,882.9488,700.857,877.4575,702.2156,887.23,703.44" style="stroke: #A80036; stroke-width: 1.0;"/><text fill="#000000" font-family="sans-serif" font-size="13" lengthAdjust="spacingAndGlyphs" textLength="86" x="798" y="650.5684">localizada em</text><text fill="#000000" font-family="sans-serif" font-size="13" lengthAdjust="spacingAndGlyphs" textLength="8" x="731.3172" y="627.1547">1</text><text fill="#000000" font-family="sans-serif" font-size="13" lengthAdjust="spacingAndGlyphs" textLength="8" x="866.7794" y="692.5902">1</text><!--MD5=[0d416f7bf882ea44267b99a983533f94]
@startuml
skinparam classAttributeIconSize 0

class Colaborador {
  -String nome
  -String funcao
  -String telefone
  -String email
  +Colaborador(nome,função,tlf, email)
  +String getNome()
  +String getEmail()
}

class EnderecoPostal {
  -String local
  -String codPostal
  -String localidade
  +EnderecoPostal(local,codPostal,localidade)
}

class Organizacao {
  -String nome
  -String NIF
  -String website
  -String telefone
  -String email
  +Organizacao(nome, NIF,webSite,telefone, email,endereco,gestorColaborador)
  +{static} EnderecoPostal novoEndereco(local,codPostal,localidade)
  +{static} Colaborador novoColaborador(nome,funcao,tlf, email)
}

class Plataforma {
  -String designacao
  
  +Organizacao novaOrganizacao(nome,NIF,endLocal,endCodPostal,\nendLocalidade,tlf,site,email,nomeG,função,tlfG, emailG)
  +validaOrganizacao(Organizacao org, pwd)
  +registaAreaAtividade(Organizacao org, pwd)
  -addOrganizacao(Organizacao org)
}

class AutorizacaoFacade {
   +registaUtilizadorComPapeis(nomeG,emailG,pwd,listaPapel)
}

class RegistarOrganizacaoController {
    +novaOrganizacao(nome,NIF,endLocal,endCodPostal,endLocalidade,tlf,site,email,nomeG,função,tlfG, emailG,pwd)
    +registaOrganizacao()
}

class RegistarOrganizacaoUI {
}

RegistarOrganizacaoUI ..> RegistarOrganizacaoController
RegistarOrganizacaoController ..> Plataforma
RegistarOrganizacaoController ..> Organizacao
Plataforma ..> Colaborador
Plataforma ..> EnderecoPostal
Plataforma ..> AutorizacaoFacade
Plataforma "1" - -> "*" Organizacao : tem registadas
Organizacao "1" - -> "1..*" Colaborador: tem 
Organizacao "1" - -> "1" Colaborador: tem gestor
Organizacao "1" - -> "1" EnderecoPostal: localizada em

@enduml

PlantUML version 1.2020.03beta6(Unknown compile time)
(GPL source distribution)
Java Runtime: OpenJDK Runtime Environment
JVM: OpenJDK 64-Bit Server VM
Java Version: 11.0.5+10-b520.38
Operating System: Mac OS X
Default Encoding: UTF-8
Language: en
Country: PT
--></g></svg>