<?xml version="1.0" encoding="UTF-8" standalone="no"?><svg xmlns="http://www.w3.org/2000/svg" xmlns:xlink="http://www.w3.org/1999/xlink" contentScriptType="application/ecmascript" contentStyleType="text/css" height="552px" preserveAspectRatio="none" style="width:638px;height:552px;" version="1.1" viewBox="0 0 638 552" width="638px" zoomAndPan="magnify"><defs><filter height="300%" id="f41t2w1lm1ll9" width="300%" x="-1" y="-1"><feGaussianBlur result="blurOut" stdDeviation="2.0"/><feColorMatrix in="blurOut" result="blurOut2" type="matrix" values="0 0 0 0 0 0 0 0 0 0 0 0 0 0 0 0 0 0 .4 0"/><feOffset dx="4.0" dy="4.0" in="blurOut2" result="blurOut3"/><feBlend in="SourceGraphic" in2="blurOut3" mode="normal"/></filter></defs><g><!--MD5=[02456e6632d968d6f68141e5893c6991]
class AreaAtividade--><rect fill="#FEFECE" filter="url(#f41t2w1lm1ll9)" height="99.8203" id="AreaAtividade" style="stroke: #A80036; stroke-width: 1.5;" width="314" x="28" y="442"/><ellipse cx="140.25" cy="458" fill="#ADD1B2" rx="11" ry="11" style="stroke: #A80036; stroke-width: 1.0;"/><path d="M142.7231,464.1431 Q142.1421,464.4419 141.5029,464.5913 Q140.8638,464.7407 140.1582,464.7407 Q137.6514,464.7407 136.3315,463.0889 Q135.0117,461.437 135.0117,458.3159 Q135.0117,455.1865 136.3315,453.5347 Q137.6514,451.8828 140.1582,451.8828 Q140.8638,451.8828 141.5112,452.0322 Q142.1587,452.1816 142.7231,452.4805 L142.7231,455.2031 Q142.0923,454.6221 141.4988,454.3523 Q140.9053,454.0825 140.2744,454.0825 Q138.9297,454.0825 138.2449,455.1492 Q137.5601,456.2158 137.5601,458.3159 Q137.5601,460.4077 138.2449,461.4744 Q138.9297,462.541 140.2744,462.541 Q140.9053,462.541 141.4988,462.2712 Q142.0923,462.0015 142.7231,461.4204 Z "/><text fill="#000000" font-family="sans-serif" font-size="12" lengthAdjust="spacingAndGlyphs" textLength="81" x="160.75" y="462.5352">AreaAtividade</text><line style="stroke: #A80036; stroke-width: 1.5;" x1="29" x2="341" y1="474" y2="474"/><text fill="#000000" font-family="sans-serif" font-size="11" lengthAdjust="spacingAndGlyphs" textLength="78" x="34" y="488.6348">-String codigo</text><text fill="#000000" font-family="sans-serif" font-size="11" lengthAdjust="spacingAndGlyphs" textLength="95" x="34" y="501.5898">-String descBreve</text><text fill="#000000" font-family="sans-serif" font-size="11" lengthAdjust="spacingAndGlyphs" textLength="119" x="34" y="514.5449">-String descDetalhada</text><line style="stroke: #A80036; stroke-width: 1.5;" x1="29" x2="341" y1="520.8652" y2="520.8652"/><text fill="#000000" font-family="sans-serif" font-size="11" lengthAdjust="spacingAndGlyphs" textLength="302" x="34" y="535.5">+AreaAtividade(String cod, String dsBreve, String dsDet)</text><!--MD5=[ecaed46f78f8cfe1e9ce18477649be18]
class Plataforma--><rect fill="#FEFECE" filter="url(#f41t2w1lm1ll9)" height="112.7754" id="Plataforma" style="stroke: #A80036; stroke-width: 1.5;" width="418" x="209" y="252"/><ellipse cx="382.75" cy="268" fill="#ADD1B2" rx="11" ry="11" style="stroke: #A80036; stroke-width: 1.0;"/><path d="M385.2231,274.1431 Q384.6421,274.4419 384.0029,274.5913 Q383.3638,274.7407 382.6582,274.7407 Q380.1514,274.7407 378.8315,273.0889 Q377.5117,271.437 377.5117,268.3159 Q377.5117,265.1865 378.8315,263.5347 Q380.1514,261.8828 382.6582,261.8828 Q383.3638,261.8828 384.0112,262.0322 Q384.6587,262.1816 385.2231,262.4805 L385.2231,265.2031 Q384.5923,264.6221 383.9988,264.3523 Q383.4053,264.0825 382.7744,264.0825 Q381.4297,264.0825 380.7449,265.1492 Q380.0601,266.2158 380.0601,268.3159 Q380.0601,270.4077 380.7449,271.4744 Q381.4297,272.541 382.7744,272.541 Q383.4053,272.541 383.9988,272.2712 Q384.5923,272.0015 385.2231,271.4204 Z "/><text fill="#000000" font-family="sans-serif" font-size="12" lengthAdjust="spacingAndGlyphs" textLength="62" x="403.25" y="272.5352">Plataforma</text><line style="stroke: #A80036; stroke-width: 1.5;" x1="210" x2="626" y1="284" y2="284"/><text fill="#000000" font-family="sans-serif" font-size="11" lengthAdjust="spacingAndGlyphs" textLength="102" x="215" y="298.6348">-String designacao</text><line style="stroke: #A80036; stroke-width: 1.5;" x1="210" x2="626" y1="304.9551" y2="304.9551"/><text fill="#000000" font-family="sans-serif" font-size="11" lengthAdjust="spacingAndGlyphs" textLength="406" x="215" y="319.5898">+AreaAtividade novaAreaAtividade(String cod, String dsBreve, String dsDet)</text><text fill="#000000" font-family="sans-serif" font-size="11" lengthAdjust="spacingAndGlyphs" textLength="224" x="215" y="332.5449">+validaAreaAtividade(AreaAtividade area)</text><text fill="#000000" font-family="sans-serif" font-size="11" lengthAdjust="spacingAndGlyphs" textLength="230" x="215" y="345.5">+registaAreaAtividade(AreaAtividade area)</text><text fill="#000000" font-family="sans-serif" font-size="11" lengthAdjust="spacingAndGlyphs" textLength="210" x="215" y="358.4551">-addAreaAtividade(AreaAtividade area)</text><!--MD5=[52e4e871a42a73946b148d098b3e0767]
class DefinirAreaController--><rect fill="#FEFECE" filter="url(#f41t2w1lm1ll9)" height="73.9102" id="DefinirAreaController" style="stroke: #A80036; stroke-width: 1.5;" width="340" x="6" y="117"/><ellipse cx="111.25" cy="133" fill="#ADD1B2" rx="11" ry="11" style="stroke: #A80036; stroke-width: 1.0;"/><path d="M113.7231,139.1431 Q113.1421,139.4419 112.5029,139.5913 Q111.8638,139.7407 111.1582,139.7407 Q108.6514,139.7407 107.3315,138.0889 Q106.0117,136.437 106.0117,133.3159 Q106.0117,130.1865 107.3315,128.5347 Q108.6514,126.8828 111.1582,126.8828 Q111.8638,126.8828 112.5112,127.0322 Q113.1587,127.1816 113.7231,127.4805 L113.7231,130.2031 Q113.0923,129.6221 112.4988,129.3523 Q111.9053,129.0825 111.2744,129.0825 Q109.9297,129.0825 109.2449,130.1492 Q108.5601,131.2158 108.5601,133.3159 Q108.5601,135.4077 109.2449,136.4744 Q109.9297,137.541 111.2744,137.541 Q111.9053,137.541 112.4988,137.2712 Q113.0923,137.0015 113.7231,136.4204 Z "/><text fill="#000000" font-family="sans-serif" font-size="12" lengthAdjust="spacingAndGlyphs" textLength="121" x="131.75" y="137.5352">DefinirAreaController</text><line style="stroke: #A80036; stroke-width: 1.5;" x1="7" x2="345" y1="149" y2="149"/><line style="stroke: #A80036; stroke-width: 1.5;" x1="7" x2="345" y1="157" y2="157"/><text fill="#000000" font-family="sans-serif" font-size="11" lengthAdjust="spacingAndGlyphs" textLength="328" x="12" y="171.6348">+novaAreaAtividade(String cod, String dsBreve, String dsDet)</text><text fill="#000000" font-family="sans-serif" font-size="11" lengthAdjust="spacingAndGlyphs" textLength="129" x="12" y="184.5898">+registaAreaAtividade()</text><!--MD5=[a73238f1d13e652ec4ebc941dc1ac63d]
class DefinirAreaUI--><rect fill="#FEFECE" filter="url(#f41t2w1lm1ll9)" height="48" id="DefinirAreaUI" style="stroke: #A80036; stroke-width: 1.5;" width="108" x="122" y="8"/><ellipse cx="137" cy="24" fill="#ADD1B2" rx="11" ry="11" style="stroke: #A80036; stroke-width: 1.0;"/><path d="M139.4731,30.1431 Q138.8921,30.4419 138.2529,30.5913 Q137.6138,30.7407 136.9082,30.7407 Q134.4014,30.7407 133.0815,29.0889 Q131.7617,27.437 131.7617,24.3159 Q131.7617,21.1865 133.0815,19.5347 Q134.4014,17.8828 136.9082,17.8828 Q137.6138,17.8828 138.2612,18.0322 Q138.9087,18.1816 139.4731,18.4805 L139.4731,21.2031 Q138.8423,20.6221 138.2488,20.3523 Q137.6553,20.0825 137.0244,20.0825 Q135.6797,20.0825 134.9949,21.1492 Q134.3101,22.2158 134.3101,24.3159 Q134.3101,26.4077 134.9949,27.4744 Q135.6797,28.541 137.0244,28.541 Q137.6553,28.541 138.2488,28.2712 Q138.8423,28.0015 139.4731,27.4204 Z "/><text fill="#000000" font-family="sans-serif" font-size="12" lengthAdjust="spacingAndGlyphs" textLength="76" x="151" y="28.5352">DefinirAreaUI</text><line style="stroke: #A80036; stroke-width: 1.5;" x1="123" x2="229" y1="40" y2="40"/><line style="stroke: #A80036; stroke-width: 1.5;" x1="123" x2="229" y1="48" y2="48"/><!--MD5=[6b612a1e5e59cc8b145cfd6c9f06b931]
link DefinirAreaUI to DefinirAreaController--><path d="M176,56.14 C176,71.83 176,93 176,111.55 " fill="none" id="DefinirAreaUI-&gt;DefinirAreaController" style="stroke: #A80036; stroke-width: 1.0; stroke-dasharray: 7.0,7.0;"/><polygon fill="#A80036" points="176,116.71,180,107.71,176,111.71,172,107.71,176,116.71" style="stroke: #A80036; stroke-width: 1.0;"/><!--MD5=[d44f1c5ec820c81f12ff3f79e1965be9]
link DefinirAreaController to Plataforma--><path d="M233.35,191.14 C260.79,208.43 294.34,229.58 325.28,249.07 " fill="none" id="DefinirAreaController-&gt;Plataforma" style="stroke: #A80036; stroke-width: 1.0; stroke-dasharray: 7.0,7.0;"/><polygon fill="#A80036" points="329.82,251.94,324.3476,243.7514,325.5929,249.2695,320.0748,250.5148,329.82,251.94" style="stroke: #A80036; stroke-width: 1.0;"/><!--MD5=[8cc80a894aa07068b56dc5450933edc8]
link DefinirAreaController to AreaAtividade--><path d="M176.97,191.28 C178.55,250.32 181.69,367.53 183.54,436.58 " fill="none" id="DefinirAreaController-&gt;AreaAtividade" style="stroke: #A80036; stroke-width: 1.0; stroke-dasharray: 7.0,7.0;"/><polygon fill="#A80036" points="183.68,441.88,187.4473,432.7802,183.5515,436.8817,179.45,432.9858,183.68,441.88" style="stroke: #A80036; stroke-width: 1.0;"/><!--MD5=[718b46c9a1975c175f4073d63ce5ccba]
link Plataforma to AreaAtividade--><path d="M346.51,365.19 C316.42,388.63 281.61,415.75 252.02,438.8 " fill="none" id="Plataforma-&gt;AreaAtividade" style="stroke: #A80036; stroke-width: 1.0;"/><polygon fill="#A80036" points="248.06,441.87,257.6181,439.4948,252.0045,438.7973,252.7019,433.1836,248.06,441.87" style="stroke: #A80036; stroke-width: 1.0;"/><text fill="#000000" font-family="sans-serif" font-size="13" lengthAdjust="spacingAndGlyphs" textLength="42" x="302" y="408.5684">possui</text><text fill="#000000" font-family="sans-serif" font-size="13" lengthAdjust="spacingAndGlyphs" textLength="8" x="329.7815" y="385.2113">1</text><text fill="#000000" font-family="sans-serif" font-size="13" lengthAdjust="spacingAndGlyphs" textLength="6" x="250.5059" y="431.3686">*</text><!--MD5=[b246311000e67bbe001966e0bd9902d5]
@startuml
skinparam classAttributeIconSize 0
class AreaAtividade {
  -String codigo
  -String descBreve
  -String descDetalhada
  +AreaAtividade(String cod, String dsBreve, String dsDet)
}

class Plataforma {
  -String designacao
  
  +AreaAtividade novaAreaAtividade(String cod, String dsBreve, String dsDet)
  +validaAreaAtividade(AreaAtividade area)
  +registaAreaAtividade(AreaAtividade area)
  - addAreaAtividade(AreaAtividade area) 
}

class DefinirAreaController {
  +novaAreaAtividade(String cod, String dsBreve, String dsDet)
  +registaAreaAtividade()
}

class DefinirAreaUI {
  
}

DefinirAreaUI ..> DefinirAreaController
DefinirAreaController ..> Plataforma
DefinirAreaController ..> AreaAtividade
Plataforma "1" - -> "*" AreaAtividade : possui


@enduml

PlantUML version 1.2020.03beta6(Unknown compile time)
(GPL source distribution)
Java Runtime: OpenJDK Runtime Environment
JVM: OpenJDK 64-Bit Server VM
Java Version: 11.0.5+10-b520.38
Operating System: Mac OS X
Default Encoding: UTF-8
Language: en
Country: PT
--></g></svg>