<?xml version="1.0" encoding="UTF-8" standalone="no"?><svg xmlns="http://www.w3.org/2000/svg" xmlns:xlink="http://www.w3.org/1999/xlink" contentScriptType="application/ecmascript" contentStyleType="text/css" height="1321px" preserveAspectRatio="none" style="width:2013px;height:1321px;" version="1.1" viewBox="0 0 2013 1321" width="2013px" zoomAndPan="magnify"><defs><filter height="300%" id="f1fi3itq2meogb" width="300%" x="-1" y="-1"><feGaussianBlur result="blurOut" stdDeviation="2.0"/><feColorMatrix in="blurOut" result="blurOut2" type="matrix" values="0 0 0 0 0 0 0 0 0 0 0 0 0 0 0 0 0 0 .4 0"/><feOffset dx="4.0" dy="4.0" in="blurOut2" result="blurOut3"/><feBlend in="SourceGraphic" in2="blurOut3" mode="normal"/></filter></defs><g><rect fill="#FFFFFF" filter="url(#f1fi3itq2meogb)" height="1119.3379" style="stroke: #A80036; stroke-width: 1.0;" width="10" x="71" y="96.4883"/><rect fill="#FFFFFF" filter="url(#f1fi3itq2meogb)" height="29.3105" style="stroke: #A80036; stroke-width: 1.0;" width="10" x="522" y="117.7988"/><rect fill="#FFFFFF" filter="url(#f1fi3itq2meogb)" height="117.9316" style="stroke: #A80036; stroke-width: 1.0;" width="10" x="522" y="176.4199"/><rect fill="#FFFFFF" filter="url(#f1fi3itq2meogb)" height="335.1504" style="stroke: #A80036; stroke-width: 1.0;" width="10" x="522" y="323.6621"/><rect fill="#FFFFFF" filter="url(#f1fi3itq2meogb)" height="325.8398" style="stroke: #A80036; stroke-width: 1.0;" width="10" x="522" y="688.123"/><rect fill="#FFFFFF" filter="url(#f1fi3itq2meogb)" height="172.5527" style="stroke: #A80036; stroke-width: 1.0;" width="10" x="522" y="1043.2734"/><rect fill="#FFFFFF" filter="url(#f1fi3itq2meogb)" height="59.3105" style="stroke: #A80036; stroke-width: 1.0;" width="10" x="758" y="205.7305"/><rect fill="#FFFFFF" filter="url(#f1fi3itq2meogb)" height="252.2188" style="stroke: #A80036; stroke-width: 1.0;" width="10" x="758" y="352.9727"/><rect fill="#FFFFFF" filter="url(#f1fi3itq2meogb)" height="228.2188" style="stroke: #A80036; stroke-width: 1.0;" width="10" x="758" y="717.4336"/><rect fill="#FFFFFF" filter="url(#f1fi3itq2meogb)" height="143.2422" style="stroke: #A80036; stroke-width: 1.0;" width="10" x="758" y="1072.584"/><rect fill="#FFFFFF" filter="url(#f1fi3itq2meogb)" height="30" style="stroke: #A80036; stroke-width: 1.0;" width="10" x="981" y="235.041"/><rect fill="#FFFFFF" filter="url(#f1fi3itq2meogb)" height="30" style="stroke: #A80036; stroke-width: 1.0;" width="10" x="981" y="382.2832"/><rect fill="#FFFFFF" filter="url(#f1fi3itq2meogb)" height="71.6211" style="stroke: #A80036; stroke-width: 1.0;" width="10" x="981" y="441.5938"/><rect fill="#FFFFFF" filter="url(#f1fi3itq2meogb)" height="30" style="stroke: #A80036; stroke-width: 1.0;" width="10" x="981" y="575.1914"/><rect fill="#FFFFFF" filter="url(#f1fi3itq2meogb)" height="30" style="stroke: #A80036; stroke-width: 1.0;" width="10" x="981" y="746.7441"/><rect fill="#FFFFFF" filter="url(#f1fi3itq2meogb)" height="113.9316" style="stroke: #A80036; stroke-width: 1.0;" width="10" x="981" y="1101.8945"/><rect fill="#FFFFFF" filter="url(#f1fi3itq2meogb)" height="139.5977" style="stroke: #A80036; stroke-width: 1.0;" width="10" x="1439" y="806.0547"/><rect fill="#FFFFFF" filter="url(#f1fi3itq2meogb)" height="365.4609" style="stroke: #000000; stroke-width: 2.0;" width="1989.5" x="13" y="620.1914"/><line style="stroke: #A80036; stroke-width: 1.0; stroke-dasharray: 5.0,5.0;" x1="76" x2="76" y1="86.4883" y2="1233.8262"/><line style="stroke: #A80036; stroke-width: 1.0; stroke-dasharray: 5.0,5.0;" x1="526.5" x2="526.5" y1="86.4883" y2="1233.8262"/><line style="stroke: #A80036; stroke-width: 1.0; stroke-dasharray: 5.0,5.0;" x1="763" x2="763" y1="86.4883" y2="1233.8262"/><line style="stroke: #A80036; stroke-width: 1.0; stroke-dasharray: 5.0,5.0;" x1="986" x2="986" y1="86.4883" y2="1233.8262"/><line style="stroke: #A80036; stroke-width: 1.0; stroke-dasharray: 5.0,5.0;" x1="1179.5" x2="1179.5" y1="86.4883" y2="1233.8262"/><line style="stroke: #A80036; stroke-width: 1.0; stroke-dasharray: 5.0,5.0;" x1="1330.5" x2="1330.5" y1="86.4883" y2="1233.8262"/><line style="stroke: #A80036; stroke-width: 1.0; stroke-dasharray: 5.0,5.0;" x1="1443.5" x2="1443.5" y1="532.8926" y2="1233.8262"/><line style="stroke: #A80036; stroke-width: 1.0; stroke-dasharray: 5.0,5.0;" x1="1615.5" x2="1615.5" y1="86.4883" y2="1233.8262"/><line style="stroke: #A80036; stroke-width: 1.0; stroke-dasharray: 5.0,5.0;" x1="1810.5" x2="1810.5" y1="86.4883" y2="1233.8262"/><line style="stroke: #A80036; stroke-width: 1.0; stroke-dasharray: 5.0,5.0;" x1="1946.5" x2="1946.5" y1="855.043" y2="1233.8262"/><text fill="#000000" font-family="sans-serif" font-size="14" lengthAdjust="spacingAndGlyphs" textLength="100" x="23" y="83.5352">Administrativo</text><ellipse cx="76" cy="13" fill="#FEFECE" filter="url(#f1fi3itq2meogb)" rx="8" ry="8" style="stroke: #A80036; stroke-width: 2.0;"/><path d="M76,21 L76,48 M63,29 L89,29 M76,48 L63,63 M76,48 L89,63 " fill="none" filter="url(#f1fi3itq2meogb)" style="stroke: #A80036; stroke-width: 2.0;"/><text fill="#000000" font-family="sans-serif" font-size="14" lengthAdjust="spacingAndGlyphs" textLength="100" x="23" y="1246.3613">Administrativo</text><ellipse cx="76" cy="1259.3145" fill="#FEFECE" filter="url(#f1fi3itq2meogb)" rx="8" ry="8" style="stroke: #A80036; stroke-width: 2.0;"/><path d="M76,1267.3145 L76,1294.3145 M63,1275.3145 L89,1275.3145 M76,1294.3145 L63,1309.3145 M76,1294.3145 L89,1309.3145 " fill="none" filter="url(#f1fi3itq2meogb)" style="stroke: #A80036; stroke-width: 2.0;"/><rect fill="#FEFECE" filter="url(#f1fi3itq2meogb)" height="30.4883" style="stroke: #A80036; stroke-width: 1.5;" width="145" x="452.5" y="51"/><text fill="#000000" font-family="sans-serif" font-size="14" lengthAdjust="spacingAndGlyphs" textLength="131" x="459.5" y="71.5352">:DefinirCategoriaUI</text><rect fill="#FEFECE" filter="url(#f1fi3itq2meogb)" height="30.4883" style="stroke: #A80036; stroke-width: 1.5;" width="145" x="452.5" y="1232.8262"/><text fill="#000000" font-family="sans-serif" font-size="14" lengthAdjust="spacingAndGlyphs" textLength="131" x="459.5" y="1253.3613">:DefinirCategoriaUI</text><rect fill="#FEFECE" filter="url(#f1fi3itq2meogb)" height="30.4883" style="stroke: #A80036; stroke-width: 1.5;" width="198" x="662" y="51"/><text fill="#000000" font-family="sans-serif" font-size="14" lengthAdjust="spacingAndGlyphs" textLength="184" x="669" y="71.5352">:DefinircategoriaController</text><rect fill="#FEFECE" filter="url(#f1fi3itq2meogb)" height="30.4883" style="stroke: #A80036; stroke-width: 1.5;" width="198" x="662" y="1232.8262"/><text fill="#000000" font-family="sans-serif" font-size="14" lengthAdjust="spacingAndGlyphs" textLength="184" x="669" y="1253.3613">:DefinircategoriaController</text><rect fill="#FEFECE" filter="url(#f1fi3itq2meogb)" height="30.4883" style="stroke: #A80036; stroke-width: 1.5;" width="92" x="938" y="51"/><text fill="#000000" font-family="sans-serif" font-size="14" lengthAdjust="spacingAndGlyphs" textLength="78" x="945" y="71.5352">:Plataforma</text><rect fill="#FEFECE" filter="url(#f1fi3itq2meogb)" height="30.4883" style="stroke: #A80036; stroke-width: 1.5;" width="92" x="938" y="1232.8262"/><text fill="#000000" font-family="sans-serif" font-size="14" lengthAdjust="spacingAndGlyphs" textLength="78" x="945" y="1253.3613">:Plataforma</text><rect fill="#FEFECE" filter="url(#f1fi3itq2meogb)" height="46.9766" style="stroke: #A80036; stroke-width: 1.5;" width="159" x="1098.5" y="34.5117"/><text fill="#000000" font-family="sans-serif" font-size="14" lengthAdjust="spacingAndGlyphs" textLength="12" x="1172" y="55.0469">la</text><text fill="#000000" font-family="sans-serif" font-size="14" lengthAdjust="spacingAndGlyphs" textLength="145" x="1105.5" y="71.5352">:List&lt;AreaAtividade&gt;</text><rect fill="#FEFECE" filter="url(#f1fi3itq2meogb)" height="46.9766" style="stroke: #A80036; stroke-width: 1.5;" width="159" x="1098.5" y="1232.8262"/><text fill="#000000" font-family="sans-serif" font-size="14" lengthAdjust="spacingAndGlyphs" textLength="12" x="1172" y="1253.3613">la</text><text fill="#000000" font-family="sans-serif" font-size="14" lengthAdjust="spacingAndGlyphs" textLength="145" x="1105.5" y="1269.8496">:List&lt;AreaAtividade&gt;</text><rect fill="#FEFECE" filter="url(#f1fi3itq2meogb)" height="46.9766" style="stroke: #A80036; stroke-width: 1.5;" width="114" x="1271.5" y="34.5117"/><text fill="#000000" font-family="sans-serif" font-size="14" lengthAdjust="spacingAndGlyphs" textLength="13" x="1322" y="55.0469">at</text><text fill="#000000" font-family="sans-serif" font-size="14" lengthAdjust="spacingAndGlyphs" textLength="100" x="1278.5" y="71.5352">:AreaAtividade</text><rect fill="#FEFECE" filter="url(#f1fi3itq2meogb)" height="46.9766" style="stroke: #A80036; stroke-width: 1.5;" width="114" x="1271.5" y="1232.8262"/><text fill="#000000" font-family="sans-serif" font-size="14" lengthAdjust="spacingAndGlyphs" textLength="13" x="1322" y="1253.3613">at</text><text fill="#000000" font-family="sans-serif" font-size="14" lengthAdjust="spacingAndGlyphs" textLength="100" x="1278.5" y="1269.8496">:AreaAtividade</text><rect fill="#FEFECE" filter="url(#f1fi3itq2meogb)" height="46.9766" style="stroke: #A80036; stroke-width: 1.5;" width="85" x="1399.5" y="1232.8262"/><text fill="#000000" font-family="sans-serif" font-size="14" lengthAdjust="spacingAndGlyphs" textLength="20" x="1432" y="1253.3613">cat</text><text fill="#000000" font-family="sans-serif" font-size="14" lengthAdjust="spacingAndGlyphs" textLength="71" x="1406.5" y="1269.8496">:Categoria</text><rect fill="#FEFECE" filter="url(#f1fi3itq2meogb)" height="46.9766" style="stroke: #A80036; stroke-width: 1.5;" width="205" x="1511.5" y="34.5117"/><text fill="#000000" font-family="sans-serif" font-size="14" lengthAdjust="spacingAndGlyphs" textLength="16" x="1606" y="55.0469">lct</text><text fill="#000000" font-family="sans-serif" font-size="14" lengthAdjust="spacingAndGlyphs" textLength="191" x="1518.5" y="71.5352">:List&lt;CompetenciaTecnica&gt;</text><rect fill="#FEFECE" filter="url(#f1fi3itq2meogb)" height="46.9766" style="stroke: #A80036; stroke-width: 1.5;" width="205" x="1511.5" y="1232.8262"/><text fill="#000000" font-family="sans-serif" font-size="14" lengthAdjust="spacingAndGlyphs" textLength="16" x="1606" y="1253.3613">lct</text><text fill="#000000" font-family="sans-serif" font-size="14" lengthAdjust="spacingAndGlyphs" textLength="191" x="1518.5" y="1269.8496">:List&lt;CompetenciaTecnica&gt;</text><rect fill="#FEFECE" filter="url(#f1fi3itq2meogb)" height="46.9766" style="stroke: #A80036; stroke-width: 1.5;" width="156" x="1730.5" y="34.5117"/><text fill="#000000" font-family="sans-serif" font-size="14" lengthAdjust="spacingAndGlyphs" textLength="16" x="1800.5" y="55.0469">ct:</text><text fill="#000000" font-family="sans-serif" font-size="14" lengthAdjust="spacingAndGlyphs" textLength="142" x="1737.5" y="71.5352">CompetenciaTecnica</text><rect fill="#FEFECE" filter="url(#f1fi3itq2meogb)" height="46.9766" style="stroke: #A80036; stroke-width: 1.5;" width="156" x="1730.5" y="1232.8262"/><text fill="#000000" font-family="sans-serif" font-size="14" lengthAdjust="spacingAndGlyphs" textLength="16" x="1800.5" y="1253.3613">ct:</text><text fill="#000000" font-family="sans-serif" font-size="14" lengthAdjust="spacingAndGlyphs" textLength="142" x="1737.5" y="1269.8496">CompetenciaTecnica</text><rect fill="#FEFECE" filter="url(#f1fi3itq2meogb)" height="46.9766" style="stroke: #A80036; stroke-width: 1.5;" width="88" x="1900.5" y="1232.8262"/><text fill="#000000" font-family="sans-serif" font-size="14" lengthAdjust="spacingAndGlyphs" textLength="19" x="1935" y="1253.3613">cct</text><text fill="#000000" font-family="sans-serif" font-size="14" lengthAdjust="spacingAndGlyphs" textLength="74" x="1907.5" y="1269.8496">:CaraterCT</text><rect fill="#FFFFFF" filter="url(#f1fi3itq2meogb)" height="1119.3379" style="stroke: #A80036; stroke-width: 1.0;" width="10" x="71" y="96.4883"/><rect fill="#FFFFFF" filter="url(#f1fi3itq2meogb)" height="29.3105" style="stroke: #A80036; stroke-width: 1.0;" width="10" x="522" y="117.7988"/><rect fill="#FFFFFF" filter="url(#f1fi3itq2meogb)" height="117.9316" style="stroke: #A80036; stroke-width: 1.0;" width="10" x="522" y="176.4199"/><rect fill="#FFFFFF" filter="url(#f1fi3itq2meogb)" height="335.1504" style="stroke: #A80036; stroke-width: 1.0;" width="10" x="522" y="323.6621"/><rect fill="#FFFFFF" filter="url(#f1fi3itq2meogb)" height="325.8398" style="stroke: #A80036; stroke-width: 1.0;" width="10" x="522" y="688.123"/><rect fill="#FFFFFF" filter="url(#f1fi3itq2meogb)" height="172.5527" style="stroke: #A80036; stroke-width: 1.0;" width="10" x="522" y="1043.2734"/><rect fill="#FFFFFF" filter="url(#f1fi3itq2meogb)" height="59.3105" style="stroke: #A80036; stroke-width: 1.0;" width="10" x="758" y="205.7305"/><rect fill="#FFFFFF" filter="url(#f1fi3itq2meogb)" height="252.2188" style="stroke: #A80036; stroke-width: 1.0;" width="10" x="758" y="352.9727"/><rect fill="#FFFFFF" filter="url(#f1fi3itq2meogb)" height="228.2188" style="stroke: #A80036; stroke-width: 1.0;" width="10" x="758" y="717.4336"/><rect fill="#FFFFFF" filter="url(#f1fi3itq2meogb)" height="143.2422" style="stroke: #A80036; stroke-width: 1.0;" width="10" x="758" y="1072.584"/><rect fill="#FFFFFF" filter="url(#f1fi3itq2meogb)" height="30" style="stroke: #A80036; stroke-width: 1.0;" width="10" x="981" y="235.041"/><rect fill="#FFFFFF" filter="url(#f1fi3itq2meogb)" height="30" style="stroke: #A80036; stroke-width: 1.0;" width="10" x="981" y="382.2832"/><rect fill="#FFFFFF" filter="url(#f1fi3itq2meogb)" height="71.6211" style="stroke: #A80036; stroke-width: 1.0;" width="10" x="981" y="441.5938"/><rect fill="#FFFFFF" filter="url(#f1fi3itq2meogb)" height="30" style="stroke: #A80036; stroke-width: 1.0;" width="10" x="981" y="575.1914"/><rect fill="#FFFFFF" filter="url(#f1fi3itq2meogb)" height="30" style="stroke: #A80036; stroke-width: 1.0;" width="10" x="981" y="746.7441"/><rect fill="#FFFFFF" filter="url(#f1fi3itq2meogb)" height="113.9316" style="stroke: #A80036; stroke-width: 1.0;" width="10" x="981" y="1101.8945"/><rect fill="#FFFFFF" filter="url(#f1fi3itq2meogb)" height="139.5977" style="stroke: #A80036; stroke-width: 1.0;" width="10" x="1439" y="806.0547"/><polygon fill="#A80036" points="510,113.7988,520,117.7988,510,121.7988,514,117.7988" style="stroke: #A80036; stroke-width: 1.0;"/><line style="stroke: #A80036; stroke-width: 1.0;" x1="81" x2="516" y1="117.7988" y2="117.7988"/><text fill="#000000" font-family="sans-serif" font-size="13" font-weight="bold" lengthAdjust="spacingAndGlyphs" textLength="9" x="88" y="113.0566">1</text><text fill="#000000" font-family="sans-serif" font-size="13" lengthAdjust="spacingAndGlyphs" textLength="281" x="101" y="113.0566">inicia a definição de nova categoria de tarefa</text><polygon fill="#A80036" points="92,143.1094,82,147.1094,92,151.1094,88,147.1094" style="stroke: #A80036; stroke-width: 1.0;"/><line style="stroke: #A80036; stroke-width: 1.0; stroke-dasharray: 2.0,2.0;" x1="86" x2="526" y1="147.1094" y2="147.1094"/><text fill="#000000" font-family="sans-serif" font-size="13" font-weight="bold" lengthAdjust="spacingAndGlyphs" textLength="9" x="98" y="142.3672">2</text><text fill="#000000" font-family="sans-serif" font-size="13" lengthAdjust="spacingAndGlyphs" textLength="121" x="111" y="142.3672">solicita a descrição</text><polygon fill="#A80036" points="510,172.4199,520,176.4199,510,180.4199,514,176.4199" style="stroke: #A80036; stroke-width: 1.0;"/><line style="stroke: #A80036; stroke-width: 1.0;" x1="81" x2="516" y1="176.4199" y2="176.4199"/><text fill="#000000" font-family="sans-serif" font-size="13" font-weight="bold" lengthAdjust="spacingAndGlyphs" textLength="9" x="88" y="171.6777">3</text><text fill="#000000" font-family="sans-serif" font-size="13" lengthAdjust="spacingAndGlyphs" textLength="193" x="101" y="171.6777">introduz a descrição solicitada</text><polygon fill="#A80036" points="746,201.7305,756,205.7305,746,209.7305,750,205.7305" style="stroke: #A80036; stroke-width: 1.0;"/><line style="stroke: #A80036; stroke-width: 1.0;" x1="532" x2="752" y1="205.7305" y2="205.7305"/><text fill="#000000" font-family="sans-serif" font-size="13" font-weight="bold" lengthAdjust="spacingAndGlyphs" textLength="9" x="539" y="200.9883">4</text><text fill="#000000" font-family="sans-serif" font-size="13" lengthAdjust="spacingAndGlyphs" textLength="96" x="552" y="200.9883">la=getListaAT()</text><polygon fill="#A80036" points="969,231.041,979,235.041,969,239.041,973,235.041" style="stroke: #A80036; stroke-width: 1.0;"/><line style="stroke: #A80036; stroke-width: 1.0;" x1="768" x2="975" y1="235.041" y2="235.041"/><text fill="#000000" font-family="sans-serif" font-size="13" font-weight="bold" lengthAdjust="spacingAndGlyphs" textLength="9" x="775" y="230.2988">5</text><text fill="#000000" font-family="sans-serif" font-size="13" lengthAdjust="spacingAndGlyphs" textLength="96" x="788" y="230.2988">la=getListaAT()</text><polygon fill="#A80036" points="92,290.3516,82,294.3516,92,298.3516,88,294.3516" style="stroke: #A80036; stroke-width: 1.0;"/><line style="stroke: #A80036; stroke-width: 1.0; stroke-dasharray: 2.0,2.0;" x1="86" x2="526" y1="294.3516" y2="294.3516"/><text fill="#000000" font-family="sans-serif" font-size="13" font-weight="bold" lengthAdjust="spacingAndGlyphs" textLength="9" x="98" y="289.6094">6</text><text fill="#000000" font-family="sans-serif" font-size="13" lengthAdjust="spacingAndGlyphs" textLength="315" x="111" y="289.6094">mostra lista de AT e solicita escolha de uma delas</text><polygon fill="#A80036" points="510,319.6621,520,323.6621,510,327.6621,514,323.6621" style="stroke: #A80036; stroke-width: 1.0;"/><line style="stroke: #A80036; stroke-width: 1.0;" x1="81" x2="516" y1="323.6621" y2="323.6621"/><text fill="#000000" font-family="sans-serif" font-size="13" font-weight="bold" lengthAdjust="spacingAndGlyphs" textLength="9" x="88" y="318.9199">7</text><text fill="#000000" font-family="sans-serif" font-size="13" lengthAdjust="spacingAndGlyphs" textLength="111" x="101" y="318.9199">seleciona uma AT</text><polygon fill="#A80036" points="746,348.9727,756,352.9727,746,356.9727,750,352.9727" style="stroke: #A80036; stroke-width: 1.0;"/><line style="stroke: #A80036; stroke-width: 1.0;" x1="532" x2="752" y1="352.9727" y2="352.9727"/><text fill="#000000" font-family="sans-serif" font-size="13" font-weight="bold" lengthAdjust="spacingAndGlyphs" textLength="9" x="539" y="348.2305">8</text><text fill="#000000" font-family="sans-serif" font-size="13" lengthAdjust="spacingAndGlyphs" textLength="194" x="552" y="348.2305">lct=novaCategoria(desc,atCod)</text><polygon fill="#A80036" points="969,378.2832,979,382.2832,969,386.2832,973,382.2832" style="stroke: #A80036; stroke-width: 1.0;"/><line style="stroke: #A80036; stroke-width: 1.0;" x1="768" x2="975" y1="382.2832" y2="382.2832"/><text fill="#000000" font-family="sans-serif" font-size="13" font-weight="bold" lengthAdjust="spacingAndGlyphs" textLength="9" x="775" y="377.541">9</text><text fill="#000000" font-family="sans-serif" font-size="13" lengthAdjust="spacingAndGlyphs" textLength="104" x="788" y="377.541">at=getAT(atCod)</text><polygon fill="#A80036" points="969,437.5938,979,441.5938,969,445.5938,973,441.5938" style="stroke: #A80036; stroke-width: 1.0;"/><line style="stroke: #A80036; stroke-width: 1.0;" x1="768" x2="975" y1="441.5938" y2="441.5938"/><text fill="#000000" font-family="sans-serif" font-size="13" font-weight="bold" lengthAdjust="spacingAndGlyphs" textLength="18" x="775" y="436.8516">10</text><text fill="#000000" font-family="sans-serif" font-size="13" lengthAdjust="spacingAndGlyphs" textLength="172" x="797" y="436.8516">cat=novaCategoria(desc,at)</text><line style="stroke: #A80036; stroke-width: 1.0;" x1="991" x2="1033" y1="470.9043" y2="470.9043"/><line style="stroke: #A80036; stroke-width: 1.0;" x1="1033" x2="1033" y1="470.9043" y2="483.9043"/><line style="stroke: #A80036; stroke-width: 1.0;" x1="992" x2="1033" y1="483.9043" y2="483.9043"/><polygon fill="#A80036" points="1002,479.9043,992,483.9043,1002,487.9043,998,483.9043" style="stroke: #A80036; stroke-width: 1.0;"/><text fill="#000000" font-family="sans-serif" font-size="13" font-weight="bold" lengthAdjust="spacingAndGlyphs" textLength="18" x="998" y="466.1621">11</text><text fill="#000000" font-family="sans-serif" font-size="13" lengthAdjust="spacingAndGlyphs" textLength="148" x="1020" y="466.1621">catId=geraCategoriaId()</text><polygon fill="#A80036" points="1387.5,509.2148,1397.5,513.2148,1387.5,517.2148,1391.5,513.2148" style="stroke: #A80036; stroke-width: 1.0;"/><line style="stroke: #A80036; stroke-width: 1.0; stroke-dasharray: 2.0,2.0;" x1="986" x2="1393.5" y1="513.2148" y2="513.2148"/><text fill="#000000" font-family="sans-serif" font-size="13" font-weight="bold" lengthAdjust="spacingAndGlyphs" textLength="18" x="993" y="508.4727">12</text><text fill="#000000" font-family="sans-serif" font-size="13" lengthAdjust="spacingAndGlyphs" textLength="126" x="1015" y="508.4727">create(catId,desc,at)</text><rect fill="#FEFECE" filter="url(#f1fi3itq2meogb)" height="46.9766" style="stroke: #A80036; stroke-width: 1.5;" width="85" x="1399.5" y="491.9043"/><text fill="#000000" font-family="sans-serif" font-size="14" lengthAdjust="spacingAndGlyphs" textLength="20" x="1432" y="512.4395">cat</text><text fill="#000000" font-family="sans-serif" font-size="14" lengthAdjust="spacingAndGlyphs" textLength="71" x="1406.5" y="528.9277">:Categoria</text><polygon fill="#A80036" points="969,571.1914,979,575.1914,969,579.1914,973,575.1914" style="stroke: #A80036; stroke-width: 1.0;"/><line style="stroke: #A80036; stroke-width: 1.0;" x1="768" x2="975" y1="575.1914" y2="575.1914"/><text fill="#000000" font-family="sans-serif" font-size="13" font-weight="bold" lengthAdjust="spacingAndGlyphs" textLength="18" x="775" y="570.4492">13</text><text fill="#000000" font-family="sans-serif" font-size="13" lengthAdjust="spacingAndGlyphs" textLength="113" x="797" y="570.4492">lct=getListaCT(at)</text><path d="M13,620.1914 L87,620.1914 L87,627.1914 L77,637.1914 L13,637.1914 L13,620.1914 " fill="#EEEEEE" style="stroke: #000000; stroke-width: 1.0;"/><rect fill="none" height="365.4609" style="stroke: #000000; stroke-width: 2.0;" width="1989.5" x="13" y="620.1914"/><text fill="#000000" font-family="sans-serif" font-size="13" font-weight="bold" lengthAdjust="spacingAndGlyphs" textLength="29" x="28" y="633.7598">loop</text><polygon fill="#A80036" points="92,654.8125,82,658.8125,92,662.8125,88,658.8125" style="stroke: #A80036; stroke-width: 1.0;"/><line style="stroke: #A80036; stroke-width: 1.0; stroke-dasharray: 2.0,2.0;" x1="86" x2="526" y1="658.8125" y2="658.8125"/><text fill="#000000" font-family="sans-serif" font-size="13" font-weight="bold" lengthAdjust="spacingAndGlyphs" textLength="18" x="98" y="654.0703">14</text><text fill="#000000" font-family="sans-serif" font-size="13" lengthAdjust="spacingAndGlyphs" textLength="395" x="120" y="654.0703">mostra lista de CT e solicita escolha de CT e respectivo caráter</text><polygon fill="#A80036" points="510,684.123,520,688.123,510,692.123,514,688.123" style="stroke: #A80036; stroke-width: 1.0;"/><line style="stroke: #A80036; stroke-width: 1.0;" x1="81" x2="516" y1="688.123" y2="688.123"/><text fill="#000000" font-family="sans-serif" font-size="13" font-weight="bold" lengthAdjust="spacingAndGlyphs" textLength="18" x="88" y="683.3809">15</text><text fill="#000000" font-family="sans-serif" font-size="13" lengthAdjust="spacingAndGlyphs" textLength="238" x="110" y="683.3809">seleciona uma CT e respectivo caráter</text><polygon fill="#A80036" points="746,713.4336,756,717.4336,746,721.4336,750,717.4336" style="stroke: #A80036; stroke-width: 1.0;"/><line style="stroke: #A80036; stroke-width: 1.0;" x1="532" x2="752" y1="717.4336" y2="717.4336"/><text fill="#000000" font-family="sans-serif" font-size="13" font-weight="bold" lengthAdjust="spacingAndGlyphs" textLength="18" x="539" y="712.6914">16</text><text fill="#000000" font-family="sans-serif" font-size="13" lengthAdjust="spacingAndGlyphs" textLength="150" x="561" y="712.6914">addCaraterCT(ctCod,ob)</text><polygon fill="#A80036" points="969,742.7441,979,746.7441,969,750.7441,973,746.7441" style="stroke: #A80036; stroke-width: 1.0;"/><line style="stroke: #A80036; stroke-width: 1.0;" x1="768" x2="975" y1="746.7441" y2="746.7441"/><text fill="#000000" font-family="sans-serif" font-size="13" font-weight="bold" lengthAdjust="spacingAndGlyphs" textLength="18" x="775" y="742.002">17</text><text fill="#000000" font-family="sans-serif" font-size="13" lengthAdjust="spacingAndGlyphs" textLength="104" x="797" y="742.002">ct=getCT(ctCod)</text><polygon fill="#A80036" points="1427,802.0547,1437,806.0547,1427,810.0547,1431,806.0547" style="stroke: #A80036; stroke-width: 1.0;"/><line style="stroke: #A80036; stroke-width: 1.0;" x1="768" x2="1433" y1="806.0547" y2="806.0547"/><text fill="#000000" font-family="sans-serif" font-size="13" font-weight="bold" lengthAdjust="spacingAndGlyphs" textLength="18" x="775" y="801.3125">18</text><text fill="#000000" font-family="sans-serif" font-size="13" lengthAdjust="spacingAndGlyphs" textLength="125" x="797" y="801.3125">addCaraterCT(ct,ob)</text><polygon fill="#A80036" points="1888.5,831.3652,1898.5,835.3652,1888.5,839.3652,1892.5,835.3652" style="stroke: #A80036; stroke-width: 1.0;"/><line style="stroke: #A80036; stroke-width: 1.0; stroke-dasharray: 2.0,2.0;" x1="1449" x2="1894.5" y1="835.3652" y2="835.3652"/><text fill="#000000" font-family="sans-serif" font-size="13" font-weight="bold" lengthAdjust="spacingAndGlyphs" textLength="18" x="1456" y="830.623">19</text><text fill="#000000" font-family="sans-serif" font-size="13" lengthAdjust="spacingAndGlyphs" textLength="78" x="1478" y="830.623">create(ct,ob)</text><rect fill="#FEFECE" filter="url(#f1fi3itq2meogb)" height="46.9766" style="stroke: #A80036; stroke-width: 1.5;" width="88" x="1900.5" y="814.0547"/><text fill="#000000" font-family="sans-serif" font-size="14" lengthAdjust="spacingAndGlyphs" textLength="19" x="1935" y="834.5898">cct</text><text fill="#000000" font-family="sans-serif" font-size="14" lengthAdjust="spacingAndGlyphs" textLength="74" x="1907.5" y="851.0781">:CaraterCT</text><line style="stroke: #A80036; stroke-width: 1.0;" x1="1449" x2="1491" y1="897.3418" y2="897.3418"/><line style="stroke: #A80036; stroke-width: 1.0;" x1="1491" x2="1491" y1="897.3418" y2="910.3418"/><line style="stroke: #A80036; stroke-width: 1.0;" x1="1450" x2="1491" y1="910.3418" y2="910.3418"/><polygon fill="#A80036" points="1460,906.3418,1450,910.3418,1460,914.3418,1456,910.3418" style="stroke: #A80036; stroke-width: 1.0;"/><text fill="#000000" font-family="sans-serif" font-size="13" font-weight="bold" lengthAdjust="spacingAndGlyphs" textLength="18" x="1456" y="892.5996">20</text><text fill="#000000" font-family="sans-serif" font-size="13" lengthAdjust="spacingAndGlyphs" textLength="126" x="1478" y="892.5996">validaCaraterCT(cct)</text><line style="stroke: #A80036; stroke-width: 1.0;" x1="1449" x2="1491" y1="944.6523" y2="944.6523"/><line style="stroke: #A80036; stroke-width: 1.0;" x1="1491" x2="1491" y1="944.6523" y2="957.6523"/><line style="stroke: #A80036; stroke-width: 1.0;" x1="1444" x2="1491" y1="957.6523" y2="957.6523"/><polygon fill="#A80036" points="1454,953.6523,1444,957.6523,1454,961.6523,1450,957.6523" style="stroke: #A80036; stroke-width: 1.0;"/><text fill="#000000" font-family="sans-serif" font-size="13" font-weight="bold" lengthAdjust="spacingAndGlyphs" textLength="18" x="1456" y="939.9102">21</text><text fill="#000000" font-family="sans-serif" font-size="13" lengthAdjust="spacingAndGlyphs" textLength="112" x="1478" y="939.9102">addCaraterCT(cct)</text><polygon fill="#A80036" points="92,1009.9629,82,1013.9629,92,1017.9629,88,1013.9629" style="stroke: #A80036; stroke-width: 1.0;"/><line style="stroke: #A80036; stroke-width: 1.0; stroke-dasharray: 2.0,2.0;" x1="86" x2="526" y1="1013.9629" y2="1013.9629"/><text fill="#000000" font-family="sans-serif" font-size="13" font-weight="bold" lengthAdjust="spacingAndGlyphs" textLength="18" x="98" y="1009.2207">22</text><text fill="#000000" font-family="sans-serif" font-size="13" lengthAdjust="spacingAndGlyphs" textLength="246" x="120" y="1009.2207">apresenta dados e solicita confirmação</text><polygon fill="#A80036" points="510,1039.2734,520,1043.2734,510,1047.2734,514,1043.2734" style="stroke: #A80036; stroke-width: 1.0;"/><line style="stroke: #A80036; stroke-width: 1.0;" x1="81" x2="516" y1="1043.2734" y2="1043.2734"/><text fill="#000000" font-family="sans-serif" font-size="13" font-weight="bold" lengthAdjust="spacingAndGlyphs" textLength="18" x="88" y="1038.5313">23</text><text fill="#000000" font-family="sans-serif" font-size="13" lengthAdjust="spacingAndGlyphs" textLength="56" x="110" y="1038.5313">confirma</text><polygon fill="#A80036" points="746,1068.584,756,1072.584,746,1076.584,750,1072.584" style="stroke: #A80036; stroke-width: 1.0;"/><line style="stroke: #A80036; stroke-width: 1.0;" x1="532" x2="752" y1="1072.584" y2="1072.584"/><text fill="#000000" font-family="sans-serif" font-size="13" font-weight="bold" lengthAdjust="spacingAndGlyphs" textLength="18" x="539" y="1067.8418">24</text><text fill="#000000" font-family="sans-serif" font-size="13" lengthAdjust="spacingAndGlyphs" textLength="111" x="561" y="1067.8418">registaCategoria()</text><polygon fill="#A80036" points="969,1097.8945,979,1101.8945,969,1105.8945,973,1101.8945" style="stroke: #A80036; stroke-width: 1.0;"/><line style="stroke: #A80036; stroke-width: 1.0;" x1="768" x2="975" y1="1101.8945" y2="1101.8945"/><text fill="#000000" font-family="sans-serif" font-size="13" font-weight="bold" lengthAdjust="spacingAndGlyphs" textLength="18" x="775" y="1097.1523">25</text><text fill="#000000" font-family="sans-serif" font-size="13" lengthAdjust="spacingAndGlyphs" textLength="130" x="797" y="1097.1523">registaCategoria(cat)</text><line style="stroke: #A80036; stroke-width: 1.0;" x1="991" x2="1033" y1="1131.2051" y2="1131.2051"/><line style="stroke: #A80036; stroke-width: 1.0;" x1="1033" x2="1033" y1="1131.2051" y2="1144.2051"/><line style="stroke: #A80036; stroke-width: 1.0;" x1="992" x2="1033" y1="1144.2051" y2="1144.2051"/><polygon fill="#A80036" points="1002,1140.2051,992,1144.2051,1002,1148.2051,998,1144.2051" style="stroke: #A80036; stroke-width: 1.0;"/><text fill="#000000" font-family="sans-serif" font-size="13" font-weight="bold" lengthAdjust="spacingAndGlyphs" textLength="18" x="998" y="1126.4629">26</text><text fill="#000000" font-family="sans-serif" font-size="13" lengthAdjust="spacingAndGlyphs" textLength="124" x="1020" y="1126.4629">validaCategoria(cat)</text><line style="stroke: #A80036; stroke-width: 1.0;" x1="991" x2="1033" y1="1173.5156" y2="1173.5156"/><line style="stroke: #A80036; stroke-width: 1.0;" x1="1033" x2="1033" y1="1173.5156" y2="1186.5156"/><line style="stroke: #A80036; stroke-width: 1.0;" x1="992" x2="1033" y1="1186.5156" y2="1186.5156"/><polygon fill="#A80036" points="1002,1182.5156,992,1186.5156,1002,1190.5156,998,1186.5156" style="stroke: #A80036; stroke-width: 1.0;"/><text fill="#000000" font-family="sans-serif" font-size="13" font-weight="bold" lengthAdjust="spacingAndGlyphs" textLength="18" x="998" y="1168.7734">27</text><text fill="#000000" font-family="sans-serif" font-size="13" lengthAdjust="spacingAndGlyphs" textLength="110" x="1020" y="1168.7734">addCategoria(cat)</text><polygon fill="#A80036" points="87,1211.8262,77,1215.8262,87,1219.8262,83,1215.8262" style="stroke: #A80036; stroke-width: 1.0;"/><line style="stroke: #A80036; stroke-width: 1.0; stroke-dasharray: 2.0,2.0;" x1="81" x2="526" y1="1215.8262" y2="1215.8262"/><text fill="#000000" font-family="sans-serif" font-size="13" font-weight="bold" lengthAdjust="spacingAndGlyphs" textLength="18" x="93" y="1211.084">28</text><text fill="#000000" font-family="sans-serif" font-size="13" lengthAdjust="spacingAndGlyphs" textLength="184" x="115" y="1211.084">informa sucesso da operação</text><!--MD5=[07364cf4ad9289ff6002bee2aa0a225a]
@startuml
autonumber
actor "Administrativo" as ADM

participant ":DefinirCategoriaUI" as UI
participant ":DefinircategoriaController" as CTRL
participant ":Plataforma" as PLAT
participant "la\n:List<AreaAtividade>" as LIST_AT
participant "at\n:AreaAtividade" as AT
participant "cat\n:Categoria" as CAT
participant "lct\n:List<CompetenciaTecnica>" as LIST_CT
participant "ct:\nCompetenciaTecnica" as CT
participant "cct\n:CaraterCT" as CARACT_CT


activate ADM

ADM -> UI : inicia a definição de nova categoria de tarefa
activate UI
UI - -> ADM : solicita a descrição
deactivate UI

ADM -> UI : introduz a descrição solicitada
activate UI
UI -> CTRL : la=getListaAT()
activate CTRL
CTRL -> PLAT : la=getListaAT()
activate PLAT
deactivate PLAT
deactivate CTRL
UI - -> ADM : mostra lista de AT e solicita escolha de uma delas
deactivate UI

ADM -> UI : seleciona uma AT
activate UI
UI -> CTRL : lct=novaCategoria(desc,atCod)
activate CTRL
CTRL -> PLAT : at=getAT(atCod)
activate PLAT
deactivate PLAT
CTRL -> PLAT : cat=novaCategoria(desc,at)
activate PLAT
PLAT -> PLAT : catId=geraCategoriaId()
PLAT - -> CAT** : create(catId,desc,at)
deactivate PLAT
CTRL -> PLAT : lct=getListaCT(at)
activate PLAT
deactivate PLAT
deactivate CTRL
loop
UI - -> ADM : mostra lista de CT e solicita escolha de CT e respectivo caráter
deactivate UI

ADM -> UI : seleciona uma CT e respectivo caráter
activate UI
UI -> CTRL : addCaraterCT(ctCod,ob)
activate CTRL
CTRL -> PLAT : ct=getCT(ctCod)
activate PLAT
deactivate PLAT
CTRL -> CAT : addCaraterCT(ct,ob)
activate CAT
CAT - -> CARACT_CT** : create(ct,ob)
CAT -> CAT : validaCaraterCT(cct)
CAT -> CAT : addCaraterCT(cct)
deactivate CAT
|||
deactivate CTRL
end loop
UI - -> ADM : apresenta dados e solicita confirmação
deactivate UI

ADM -> UI : confirma
activate UI
UI -> CTRL : registaCategoria()
activate CTRL
CTRL -> PLAT : registaCategoria(cat)
activate PLAT
PLAT -> PLAT : validaCategoria(cat)
PLAT -> PLAT : addCategoria(cat)
UI - -> ADM : informa sucesso da operação
deactivate CTRL
deactivate PLAT
deactivate UI

deactivate ADM

@enduml

PlantUML version 1.2020.03beta6(Unknown compile time)
(GPL source distribution)
Java Runtime: OpenJDK Runtime Environment
JVM: OpenJDK 64-Bit Server VM
Java Version: 11.0.5+10-b520.38
Operating System: Mac OS X
Default Encoding: UTF-8
Language: en
Country: PT
--></g></svg>