<?xml version="1.0" encoding="UTF-8" standalone="no"?><svg xmlns="http://www.w3.org/2000/svg" xmlns:xlink="http://www.w3.org/1999/xlink" contentScriptType="application/ecmascript" contentStyleType="text/css" height="1498px" preserveAspectRatio="none" style="width:1864px;height:1498px;" version="1.1" viewBox="0 0 1864 1498" width="1864px" zoomAndPan="magnify"><defs><filter height="300%" id="f1n8hadj1nnrav" width="300%" x="-1" y="-1"><feGaussianBlur result="blurOut" stdDeviation="2.0"/><feColorMatrix in="blurOut" result="blurOut2" type="matrix" values="0 0 0 0 0 0 0 0 0 0 0 0 0 0 0 0 0 0 .4 0"/><feOffset dx="4.0" dy="4.0" in="blurOut2" result="blurOut3"/><feBlend in="SourceGraphic" in2="blurOut3" mode="normal"/></filter></defs><g><rect fill="#FFFFFF" filter="url(#f1n8hadj1nnrav)" height="1296.5801" style="stroke: #A80036; stroke-width: 1.0;" width="10" x="71" y="96.4883"/><rect fill="#FFFFFF" filter="url(#f1n8hadj1nnrav)" height="29.3105" style="stroke: #A80036; stroke-width: 1.0;" width="10" x="442" y="117.7988"/><rect fill="#FFFFFF" filter="url(#f1n8hadj1nnrav)" height="251.5293" style="stroke: #A80036; stroke-width: 1.0;" width="10" x="442" y="176.4199"/><rect fill="#FFFFFF" filter="url(#f1n8hadj1nnrav)" height="236.5527" style="stroke: #A80036; stroke-width: 1.0;" width="10" x="442" y="457.2598"/><rect fill="#FFFFFF" filter="url(#f1n8hadj1nnrav)" height="29.3105" style="stroke: #A80036; stroke-width: 1.0;" width="10" x="442" y="747.4336"/><rect fill="#FFFFFF" filter="url(#f1n8hadj1nnrav)" height="325.8398" style="stroke: #A80036; stroke-width: 1.0;" width="10" x="442" y="806.0547"/><rect fill="#FFFFFF" filter="url(#f1n8hadj1nnrav)" height="231.8633" style="stroke: #A80036; stroke-width: 1.0;" width="10" x="442" y="1161.2051"/><rect fill="#FFFFFF" filter="url(#f1n8hadj1nnrav)" height="192.9082" style="stroke: #A80036; stroke-width: 1.0;" width="10" x="643" y="205.7305"/><rect fill="#FFFFFF" filter="url(#f1n8hadj1nnrav)" height="177.9316" style="stroke: #A80036; stroke-width: 1.0;" width="10" x="643" y="486.5703"/><rect fill="#FFFFFF" filter="url(#f1n8hadj1nnrav)" height="228.2188" style="stroke: #A80036; stroke-width: 1.0;" width="10" x="643" y="835.3652"/><rect fill="#FFFFFF" filter="url(#f1n8hadj1nnrav)" height="202.5527" style="stroke: #A80036; stroke-width: 1.0;" width="10" x="643" y="1190.5156"/><rect fill="#FFFFFF" filter="url(#f1n8hadj1nnrav)" height="71.6211" style="stroke: #A80036; stroke-width: 1.0;" width="10" x="841" y="235.041"/><rect fill="#FFFFFF" filter="url(#f1n8hadj1nnrav)" height="30" style="stroke: #A80036; stroke-width: 1.0;" width="10" x="841" y="368.6387"/><rect fill="#FFFFFF" filter="url(#f1n8hadj1nnrav)" height="30" style="stroke: #A80036; stroke-width: 1.0;" width="10" x="841" y="515.8809"/><rect fill="#FFFFFF" filter="url(#f1n8hadj1nnrav)" height="30" style="stroke: #A80036; stroke-width: 1.0;" width="10" x="841" y="634.502"/><rect fill="#FFFFFF" filter="url(#f1n8hadj1nnrav)" height="30" style="stroke: #A80036; stroke-width: 1.0;" width="10" x="841" y="864.6758"/><rect fill="#FFFFFF" filter="url(#f1n8hadj1nnrav)" height="173.2422" style="stroke: #A80036; stroke-width: 1.0;" width="10" x="841" y="1219.8262"/><rect fill="#FFFFFF" filter="url(#f1n8hadj1nnrav)" height="30" style="stroke: #A80036; stroke-width: 1.0;" width="10" x="1290" y="575.1914"/><rect fill="#FFFFFF" filter="url(#f1n8hadj1nnrav)" height="139.5977" style="stroke: #A80036; stroke-width: 1.0;" width="10" x="1290" y="923.9863"/><rect fill="#FFFFFF" filter="url(#f1n8hadj1nnrav)" height="30" style="stroke: #A80036; stroke-width: 1.0;" width="10" x="1290" y="1249.1367"/><rect fill="#FFFFFF" filter="url(#f1n8hadj1nnrav)" height="394.7715" style="stroke: #000000; stroke-width: 2.0;" width="1840.5" x="13" y="708.8125"/><line style="stroke: #A80036; stroke-width: 1.0; stroke-dasharray: 5.0,5.0;" x1="76" x2="76" y1="86.4883" y2="1411.0684"/><line style="stroke: #A80036; stroke-width: 1.0; stroke-dasharray: 5.0,5.0;" x1="446.5" x2="446.5" y1="86.4883" y2="1411.0684"/><line style="stroke: #A80036; stroke-width: 1.0; stroke-dasharray: 5.0,5.0;" x1="648" x2="648" y1="86.4883" y2="1411.0684"/><line style="stroke: #A80036; stroke-width: 1.0; stroke-dasharray: 5.0,5.0;" x1="846" x2="846" y1="86.4883" y2="1411.0684"/><line style="stroke: #A80036; stroke-width: 1.0; stroke-dasharray: 5.0,5.0;" x1="1030.5" x2="1030.5" y1="86.4883" y2="1411.0684"/><line style="stroke: #A80036; stroke-width: 1.0; stroke-dasharray: 5.0,5.0;" x1="1181.5" x2="1181.5" y1="86.4883" y2="1411.0684"/><line style="stroke: #A80036; stroke-width: 1.0; stroke-dasharray: 5.0,5.0;" x1="1294.5" x2="1294.5" y1="326.3398" y2="1411.0684"/><line style="stroke: #A80036; stroke-width: 1.0; stroke-dasharray: 5.0,5.0;" x1="1466.5" x2="1466.5" y1="86.4883" y2="1411.0684"/><line style="stroke: #A80036; stroke-width: 1.0; stroke-dasharray: 5.0,5.0;" x1="1661.5" x2="1661.5" y1="86.4883" y2="1411.0684"/><line style="stroke: #A80036; stroke-width: 1.0; stroke-dasharray: 5.0,5.0;" x1="1797.5" x2="1797.5" y1="972.9746" y2="1411.0684"/><text fill="#000000" font-family="sans-serif" font-size="14" lengthAdjust="spacingAndGlyphs" textLength="100" x="23" y="83.5352">Administrativo</text><ellipse cx="76" cy="13" fill="#FEFECE" filter="url(#f1n8hadj1nnrav)" rx="8" ry="8" style="stroke: #A80036; stroke-width: 2.0;"/><path d="M76,21 L76,48 M63,29 L89,29 M76,48 L63,63 M76,48 L89,63 " fill="none" filter="url(#f1n8hadj1nnrav)" style="stroke: #A80036; stroke-width: 2.0;"/><text fill="#000000" font-family="sans-serif" font-size="14" lengthAdjust="spacingAndGlyphs" textLength="100" x="23" y="1423.6035">Administrativo</text><ellipse cx="76" cy="1436.5566" fill="#FEFECE" filter="url(#f1n8hadj1nnrav)" rx="8" ry="8" style="stroke: #A80036; stroke-width: 2.0;"/><path d="M76,1444.5566 L76,1471.5566 M63,1452.5566 L89,1452.5566 M76,1471.5566 L63,1486.5566 M76,1471.5566 L89,1486.5566 " fill="none" filter="url(#f1n8hadj1nnrav)" style="stroke: #A80036; stroke-width: 2.0;"/><rect fill="#FEFECE" filter="url(#f1n8hadj1nnrav)" height="30.4883" style="stroke: #A80036; stroke-width: 1.5;" width="145" x="372.5" y="51"/><text fill="#000000" font-family="sans-serif" font-size="14" lengthAdjust="spacingAndGlyphs" textLength="131" x="379.5" y="71.5352">:DefinirCategoriaUI</text><rect fill="#FEFECE" filter="url(#f1n8hadj1nnrav)" height="30.4883" style="stroke: #A80036; stroke-width: 1.5;" width="145" x="372.5" y="1410.0684"/><text fill="#000000" font-family="sans-serif" font-size="14" lengthAdjust="spacingAndGlyphs" textLength="131" x="379.5" y="1430.6035">:DefinirCategoriaUI</text><rect fill="#FEFECE" filter="url(#f1n8hadj1nnrav)" height="30.4883" style="stroke: #A80036; stroke-width: 1.5;" width="198" x="547" y="51"/><text fill="#000000" font-family="sans-serif" font-size="14" lengthAdjust="spacingAndGlyphs" textLength="184" x="554" y="71.5352">:DefinircategoriaController</text><rect fill="#FEFECE" filter="url(#f1n8hadj1nnrav)" height="30.4883" style="stroke: #A80036; stroke-width: 1.5;" width="198" x="547" y="1410.0684"/><text fill="#000000" font-family="sans-serif" font-size="14" lengthAdjust="spacingAndGlyphs" textLength="184" x="554" y="1430.6035">:DefinircategoriaController</text><rect fill="#FEFECE" filter="url(#f1n8hadj1nnrav)" height="30.4883" style="stroke: #A80036; stroke-width: 1.5;" width="92" x="798" y="51"/><text fill="#000000" font-family="sans-serif" font-size="14" lengthAdjust="spacingAndGlyphs" textLength="78" x="805" y="71.5352">:Plataforma</text><rect fill="#FEFECE" filter="url(#f1n8hadj1nnrav)" height="30.4883" style="stroke: #A80036; stroke-width: 1.5;" width="92" x="798" y="1410.0684"/><text fill="#000000" font-family="sans-serif" font-size="14" lengthAdjust="spacingAndGlyphs" textLength="78" x="805" y="1430.6035">:Plataforma</text><rect fill="#FEFECE" filter="url(#f1n8hadj1nnrav)" height="46.9766" style="stroke: #A80036; stroke-width: 1.5;" width="159" x="949.5" y="34.5117"/><text fill="#000000" font-family="sans-serif" font-size="14" lengthAdjust="spacingAndGlyphs" textLength="12" x="1023" y="55.0469">la</text><text fill="#000000" font-family="sans-serif" font-size="14" lengthAdjust="spacingAndGlyphs" textLength="145" x="956.5" y="71.5352">:List&lt;AreaAtividade&gt;</text><rect fill="#FEFECE" filter="url(#f1n8hadj1nnrav)" height="46.9766" style="stroke: #A80036; stroke-width: 1.5;" width="159" x="949.5" y="1410.0684"/><text fill="#000000" font-family="sans-serif" font-size="14" lengthAdjust="spacingAndGlyphs" textLength="12" x="1023" y="1430.6035">la</text><text fill="#000000" font-family="sans-serif" font-size="14" lengthAdjust="spacingAndGlyphs" textLength="145" x="956.5" y="1447.0918">:List&lt;AreaAtividade&gt;</text><rect fill="#FEFECE" filter="url(#f1n8hadj1nnrav)" height="46.9766" style="stroke: #A80036; stroke-width: 1.5;" width="114" x="1122.5" y="34.5117"/><text fill="#000000" font-family="sans-serif" font-size="14" lengthAdjust="spacingAndGlyphs" textLength="13" x="1173" y="55.0469">at</text><text fill="#000000" font-family="sans-serif" font-size="14" lengthAdjust="spacingAndGlyphs" textLength="100" x="1129.5" y="71.5352">:AreaAtividade</text><rect fill="#FEFECE" filter="url(#f1n8hadj1nnrav)" height="46.9766" style="stroke: #A80036; stroke-width: 1.5;" width="114" x="1122.5" y="1410.0684"/><text fill="#000000" font-family="sans-serif" font-size="14" lengthAdjust="spacingAndGlyphs" textLength="13" x="1173" y="1430.6035">at</text><text fill="#000000" font-family="sans-serif" font-size="14" lengthAdjust="spacingAndGlyphs" textLength="100" x="1129.5" y="1447.0918">:AreaAtividade</text><rect fill="#FEFECE" filter="url(#f1n8hadj1nnrav)" height="46.9766" style="stroke: #A80036; stroke-width: 1.5;" width="85" x="1250.5" y="1410.0684"/><text fill="#000000" font-family="sans-serif" font-size="14" lengthAdjust="spacingAndGlyphs" textLength="20" x="1283" y="1430.6035">cat</text><text fill="#000000" font-family="sans-serif" font-size="14" lengthAdjust="spacingAndGlyphs" textLength="71" x="1257.5" y="1447.0918">:Categoria</text><rect fill="#FEFECE" filter="url(#f1n8hadj1nnrav)" height="46.9766" style="stroke: #A80036; stroke-width: 1.5;" width="205" x="1362.5" y="34.5117"/><text fill="#000000" font-family="sans-serif" font-size="14" lengthAdjust="spacingAndGlyphs" textLength="16" x="1457" y="55.0469">lct</text><text fill="#000000" font-family="sans-serif" font-size="14" lengthAdjust="spacingAndGlyphs" textLength="191" x="1369.5" y="71.5352">:List&lt;CompetenciaTecnica&gt;</text><rect fill="#FEFECE" filter="url(#f1n8hadj1nnrav)" height="46.9766" style="stroke: #A80036; stroke-width: 1.5;" width="205" x="1362.5" y="1410.0684"/><text fill="#000000" font-family="sans-serif" font-size="14" lengthAdjust="spacingAndGlyphs" textLength="16" x="1457" y="1430.6035">lct</text><text fill="#000000" font-family="sans-serif" font-size="14" lengthAdjust="spacingAndGlyphs" textLength="191" x="1369.5" y="1447.0918">:List&lt;CompetenciaTecnica&gt;</text><rect fill="#FEFECE" filter="url(#f1n8hadj1nnrav)" height="46.9766" style="stroke: #A80036; stroke-width: 1.5;" width="156" x="1581.5" y="34.5117"/><text fill="#000000" font-family="sans-serif" font-size="14" lengthAdjust="spacingAndGlyphs" textLength="16" x="1651.5" y="55.0469">ct:</text><text fill="#000000" font-family="sans-serif" font-size="14" lengthAdjust="spacingAndGlyphs" textLength="142" x="1588.5" y="71.5352">CompetenciaTecnica</text><rect fill="#FEFECE" filter="url(#f1n8hadj1nnrav)" height="46.9766" style="stroke: #A80036; stroke-width: 1.5;" width="156" x="1581.5" y="1410.0684"/><text fill="#000000" font-family="sans-serif" font-size="14" lengthAdjust="spacingAndGlyphs" textLength="16" x="1651.5" y="1430.6035">ct:</text><text fill="#000000" font-family="sans-serif" font-size="14" lengthAdjust="spacingAndGlyphs" textLength="142" x="1588.5" y="1447.0918">CompetenciaTecnica</text><rect fill="#FEFECE" filter="url(#f1n8hadj1nnrav)" height="46.9766" style="stroke: #A80036; stroke-width: 1.5;" width="88" x="1751.5" y="1410.0684"/><text fill="#000000" font-family="sans-serif" font-size="14" lengthAdjust="spacingAndGlyphs" textLength="19" x="1786" y="1430.6035">cct</text><text fill="#000000" font-family="sans-serif" font-size="14" lengthAdjust="spacingAndGlyphs" textLength="74" x="1758.5" y="1447.0918">:CaraterCT</text><rect fill="#FFFFFF" filter="url(#f1n8hadj1nnrav)" height="1296.5801" style="stroke: #A80036; stroke-width: 1.0;" width="10" x="71" y="96.4883"/><rect fill="#FFFFFF" filter="url(#f1n8hadj1nnrav)" height="29.3105" style="stroke: #A80036; stroke-width: 1.0;" width="10" x="442" y="117.7988"/><rect fill="#FFFFFF" filter="url(#f1n8hadj1nnrav)" height="251.5293" style="stroke: #A80036; stroke-width: 1.0;" width="10" x="442" y="176.4199"/><rect fill="#FFFFFF" filter="url(#f1n8hadj1nnrav)" height="236.5527" style="stroke: #A80036; stroke-width: 1.0;" width="10" x="442" y="457.2598"/><rect fill="#FFFFFF" filter="url(#f1n8hadj1nnrav)" height="29.3105" style="stroke: #A80036; stroke-width: 1.0;" width="10" x="442" y="747.4336"/><rect fill="#FFFFFF" filter="url(#f1n8hadj1nnrav)" height="325.8398" style="stroke: #A80036; stroke-width: 1.0;" width="10" x="442" y="806.0547"/><rect fill="#FFFFFF" filter="url(#f1n8hadj1nnrav)" height="231.8633" style="stroke: #A80036; stroke-width: 1.0;" width="10" x="442" y="1161.2051"/><rect fill="#FFFFFF" filter="url(#f1n8hadj1nnrav)" height="192.9082" style="stroke: #A80036; stroke-width: 1.0;" width="10" x="643" y="205.7305"/><rect fill="#FFFFFF" filter="url(#f1n8hadj1nnrav)" height="177.9316" style="stroke: #A80036; stroke-width: 1.0;" width="10" x="643" y="486.5703"/><rect fill="#FFFFFF" filter="url(#f1n8hadj1nnrav)" height="228.2188" style="stroke: #A80036; stroke-width: 1.0;" width="10" x="643" y="835.3652"/><rect fill="#FFFFFF" filter="url(#f1n8hadj1nnrav)" height="202.5527" style="stroke: #A80036; stroke-width: 1.0;" width="10" x="643" y="1190.5156"/><rect fill="#FFFFFF" filter="url(#f1n8hadj1nnrav)" height="71.6211" style="stroke: #A80036; stroke-width: 1.0;" width="10" x="841" y="235.041"/><rect fill="#FFFFFF" filter="url(#f1n8hadj1nnrav)" height="30" style="stroke: #A80036; stroke-width: 1.0;" width="10" x="841" y="368.6387"/><rect fill="#FFFFFF" filter="url(#f1n8hadj1nnrav)" height="30" style="stroke: #A80036; stroke-width: 1.0;" width="10" x="841" y="515.8809"/><rect fill="#FFFFFF" filter="url(#f1n8hadj1nnrav)" height="30" style="stroke: #A80036; stroke-width: 1.0;" width="10" x="841" y="634.502"/><rect fill="#FFFFFF" filter="url(#f1n8hadj1nnrav)" height="30" style="stroke: #A80036; stroke-width: 1.0;" width="10" x="841" y="864.6758"/><rect fill="#FFFFFF" filter="url(#f1n8hadj1nnrav)" height="173.2422" style="stroke: #A80036; stroke-width: 1.0;" width="10" x="841" y="1219.8262"/><rect fill="#FFFFFF" filter="url(#f1n8hadj1nnrav)" height="30" style="stroke: #A80036; stroke-width: 1.0;" width="10" x="1290" y="575.1914"/><rect fill="#FFFFFF" filter="url(#f1n8hadj1nnrav)" height="139.5977" style="stroke: #A80036; stroke-width: 1.0;" width="10" x="1290" y="923.9863"/><rect fill="#FFFFFF" filter="url(#f1n8hadj1nnrav)" height="30" style="stroke: #A80036; stroke-width: 1.0;" width="10" x="1290" y="1249.1367"/><polygon fill="#A80036" points="430,113.7988,440,117.7988,430,121.7988,434,117.7988" style="stroke: #A80036; stroke-width: 1.0;"/><line style="stroke: #A80036; stroke-width: 1.0;" x1="81" x2="436" y1="117.7988" y2="117.7988"/><text fill="#000000" font-family="sans-serif" font-size="13" font-weight="bold" lengthAdjust="spacingAndGlyphs" textLength="9" x="88" y="113.0566">1</text><text fill="#000000" font-family="sans-serif" font-size="13" lengthAdjust="spacingAndGlyphs" textLength="281" x="101" y="113.0566">inicia a definição de nova categoria de tarefa</text><polygon fill="#A80036" points="92,143.1094,82,147.1094,92,151.1094,88,147.1094" style="stroke: #A80036; stroke-width: 1.0;"/><line style="stroke: #A80036; stroke-width: 1.0; stroke-dasharray: 2.0,2.0;" x1="86" x2="446" y1="147.1094" y2="147.1094"/><text fill="#000000" font-family="sans-serif" font-size="13" font-weight="bold" lengthAdjust="spacingAndGlyphs" textLength="9" x="98" y="142.3672">2</text><text fill="#000000" font-family="sans-serif" font-size="13" lengthAdjust="spacingAndGlyphs" textLength="121" x="111" y="142.3672">solicita a descrição</text><polygon fill="#A80036" points="430,172.4199,440,176.4199,430,180.4199,434,176.4199" style="stroke: #A80036; stroke-width: 1.0;"/><line style="stroke: #A80036; stroke-width: 1.0;" x1="81" x2="436" y1="176.4199" y2="176.4199"/><text fill="#000000" font-family="sans-serif" font-size="13" font-weight="bold" lengthAdjust="spacingAndGlyphs" textLength="9" x="88" y="171.6777">3</text><text fill="#000000" font-family="sans-serif" font-size="13" lengthAdjust="spacingAndGlyphs" textLength="193" x="101" y="171.6777">introduz a descrição solicitada</text><polygon fill="#A80036" points="631,201.7305,641,205.7305,631,209.7305,635,205.7305" style="stroke: #A80036; stroke-width: 1.0;"/><line style="stroke: #A80036; stroke-width: 1.0;" x1="452" x2="637" y1="205.7305" y2="205.7305"/><text fill="#000000" font-family="sans-serif" font-size="13" font-weight="bold" lengthAdjust="spacingAndGlyphs" textLength="9" x="459" y="200.9883">4</text><text fill="#000000" font-family="sans-serif" font-size="13" lengthAdjust="spacingAndGlyphs" textLength="148" x="472" y="200.9883">la=novaCategoria(desc)</text><polygon fill="#A80036" points="829,231.041,839,235.041,829,239.041,833,235.041" style="stroke: #A80036; stroke-width: 1.0;"/><line style="stroke: #A80036; stroke-width: 1.0;" x1="653" x2="835" y1="235.041" y2="235.041"/><text fill="#000000" font-family="sans-serif" font-size="13" font-weight="bold" lengthAdjust="spacingAndGlyphs" textLength="9" x="660" y="230.2988">5</text><text fill="#000000" font-family="sans-serif" font-size="13" lengthAdjust="spacingAndGlyphs" textLength="156" x="673" y="230.2988">cat=novaCategoria(desc)</text><line style="stroke: #A80036; stroke-width: 1.0;" x1="851" x2="893" y1="264.3516" y2="264.3516"/><line style="stroke: #A80036; stroke-width: 1.0;" x1="893" x2="893" y1="264.3516" y2="277.3516"/><line style="stroke: #A80036; stroke-width: 1.0;" x1="852" x2="893" y1="277.3516" y2="277.3516"/><polygon fill="#A80036" points="862,273.3516,852,277.3516,862,281.3516,858,277.3516" style="stroke: #A80036; stroke-width: 1.0;"/><text fill="#000000" font-family="sans-serif" font-size="13" font-weight="bold" lengthAdjust="spacingAndGlyphs" textLength="9" x="858" y="259.6094">6</text><text fill="#000000" font-family="sans-serif" font-size="13" lengthAdjust="spacingAndGlyphs" textLength="148" x="871" y="259.6094">catId=geraCategoriaId()</text><polygon fill="#A80036" points="1238.5,302.6621,1248.5,306.6621,1238.5,310.6621,1242.5,306.6621" style="stroke: #A80036; stroke-width: 1.0;"/><line style="stroke: #A80036; stroke-width: 1.0; stroke-dasharray: 2.0,2.0;" x1="846" x2="1244.5" y1="306.6621" y2="306.6621"/><text fill="#000000" font-family="sans-serif" font-size="13" font-weight="bold" lengthAdjust="spacingAndGlyphs" textLength="9" x="853" y="301.9199">7</text><text fill="#000000" font-family="sans-serif" font-size="13" lengthAdjust="spacingAndGlyphs" textLength="110" x="866" y="301.9199">create(catId,desc)</text><rect fill="#FEFECE" filter="url(#f1n8hadj1nnrav)" height="46.9766" style="stroke: #A80036; stroke-width: 1.5;" width="85" x="1250.5" y="285.3516"/><text fill="#000000" font-family="sans-serif" font-size="14" lengthAdjust="spacingAndGlyphs" textLength="20" x="1283" y="305.8867">cat</text><text fill="#000000" font-family="sans-serif" font-size="14" lengthAdjust="spacingAndGlyphs" textLength="71" x="1257.5" y="322.375">:Categoria</text><polygon fill="#A80036" points="829,364.6387,839,368.6387,829,372.6387,833,368.6387" style="stroke: #A80036; stroke-width: 1.0;"/><line style="stroke: #A80036; stroke-width: 1.0;" x1="653" x2="835" y1="368.6387" y2="368.6387"/><text fill="#000000" font-family="sans-serif" font-size="13" font-weight="bold" lengthAdjust="spacingAndGlyphs" textLength="9" x="660" y="363.8965">8</text><text fill="#000000" font-family="sans-serif" font-size="13" lengthAdjust="spacingAndGlyphs" textLength="96" x="673" y="363.8965">la=getListaAT()</text><polygon fill="#A80036" points="92,423.9492,82,427.9492,92,431.9492,88,427.9492" style="stroke: #A80036; stroke-width: 1.0;"/><line style="stroke: #A80036; stroke-width: 1.0; stroke-dasharray: 2.0,2.0;" x1="86" x2="446" y1="427.9492" y2="427.9492"/><text fill="#000000" font-family="sans-serif" font-size="13" font-weight="bold" lengthAdjust="spacingAndGlyphs" textLength="9" x="98" y="423.207">9</text><text fill="#000000" font-family="sans-serif" font-size="13" lengthAdjust="spacingAndGlyphs" textLength="315" x="111" y="423.207">mostra lista de AT e solicita escolha de uma delas</text><polygon fill="#A80036" points="430,453.2598,440,457.2598,430,461.2598,434,457.2598" style="stroke: #A80036; stroke-width: 1.0;"/><line style="stroke: #A80036; stroke-width: 1.0;" x1="81" x2="436" y1="457.2598" y2="457.2598"/><text fill="#000000" font-family="sans-serif" font-size="13" font-weight="bold" lengthAdjust="spacingAndGlyphs" textLength="18" x="88" y="452.5176">10</text><text fill="#000000" font-family="sans-serif" font-size="13" lengthAdjust="spacingAndGlyphs" textLength="111" x="110" y="452.5176">seleciona uma AT</text><polygon fill="#A80036" points="631,482.5703,641,486.5703,631,490.5703,635,486.5703" style="stroke: #A80036; stroke-width: 1.0;"/><line style="stroke: #A80036; stroke-width: 1.0;" x1="452" x2="637" y1="486.5703" y2="486.5703"/><text fill="#000000" font-family="sans-serif" font-size="13" font-weight="bold" lengthAdjust="spacingAndGlyphs" textLength="18" x="459" y="481.8281">11</text><text fill="#000000" font-family="sans-serif" font-size="13" lengthAdjust="spacingAndGlyphs" textLength="107" x="481" y="481.8281">lct=setAT(atCod)</text><polygon fill="#A80036" points="829,511.8809,839,515.8809,829,519.8809,833,515.8809" style="stroke: #A80036; stroke-width: 1.0;"/><line style="stroke: #A80036; stroke-width: 1.0;" x1="653" x2="835" y1="515.8809" y2="515.8809"/><text fill="#000000" font-family="sans-serif" font-size="13" font-weight="bold" lengthAdjust="spacingAndGlyphs" textLength="18" x="660" y="511.1387">12</text><text fill="#000000" font-family="sans-serif" font-size="13" lengthAdjust="spacingAndGlyphs" textLength="104" x="682" y="511.1387">at=getAT(atCod)</text><polygon fill="#A80036" points="1278,571.1914,1288,575.1914,1278,579.1914,1282,575.1914" style="stroke: #A80036; stroke-width: 1.0;"/><line style="stroke: #A80036; stroke-width: 1.0;" x1="653" x2="1284" y1="575.1914" y2="575.1914"/><text fill="#000000" font-family="sans-serif" font-size="13" font-weight="bold" lengthAdjust="spacingAndGlyphs" textLength="18" x="660" y="570.4492">13</text><text fill="#000000" font-family="sans-serif" font-size="13" lengthAdjust="spacingAndGlyphs" textLength="56" x="682" y="570.4492">setAT(at)</text><polygon fill="#A80036" points="829,630.502,839,634.502,829,638.502,833,634.502" style="stroke: #A80036; stroke-width: 1.0;"/><line style="stroke: #A80036; stroke-width: 1.0;" x1="653" x2="835" y1="634.502" y2="634.502"/><text fill="#000000" font-family="sans-serif" font-size="13" font-weight="bold" lengthAdjust="spacingAndGlyphs" textLength="18" x="660" y="629.7598">14</text><text fill="#000000" font-family="sans-serif" font-size="13" lengthAdjust="spacingAndGlyphs" textLength="101" x="682" y="629.7598">lct=getListaCT()</text><polygon fill="#A80036" points="92,689.8125,82,693.8125,92,697.8125,88,693.8125" style="stroke: #A80036; stroke-width: 1.0;"/><line style="stroke: #A80036; stroke-width: 1.0; stroke-dasharray: 2.0,2.0;" x1="86" x2="446" y1="693.8125" y2="693.8125"/><text fill="#000000" font-family="sans-serif" font-size="13" font-weight="bold" lengthAdjust="spacingAndGlyphs" textLength="18" x="98" y="689.0703">15</text><text fill="#000000" font-family="sans-serif" font-size="13" lengthAdjust="spacingAndGlyphs" textLength="315" x="120" y="689.0703">mostra lista de CT e solicita escolha de uma delas</text><path d="M13,708.8125 L87,708.8125 L87,715.8125 L77,725.8125 L13,725.8125 L13,708.8125 " fill="#EEEEEE" style="stroke: #000000; stroke-width: 1.0;"/><rect fill="none" height="394.7715" style="stroke: #000000; stroke-width: 2.0;" width="1840.5" x="13" y="708.8125"/><text fill="#000000" font-family="sans-serif" font-size="13" font-weight="bold" lengthAdjust="spacingAndGlyphs" textLength="29" x="28" y="722.3809">loop</text><polygon fill="#A80036" points="430,743.4336,440,747.4336,430,751.4336,434,747.4336" style="stroke: #A80036; stroke-width: 1.0;"/><line style="stroke: #A80036; stroke-width: 1.0;" x1="81" x2="436" y1="747.4336" y2="747.4336"/><text fill="#000000" font-family="sans-serif" font-size="13" font-weight="bold" lengthAdjust="spacingAndGlyphs" textLength="18" x="88" y="742.6914">16</text><text fill="#000000" font-family="sans-serif" font-size="13" lengthAdjust="spacingAndGlyphs" textLength="111" x="110" y="742.6914">seleciona uma CT</text><polygon fill="#A80036" points="92,772.7441,82,776.7441,92,780.7441,88,776.7441" style="stroke: #A80036; stroke-width: 1.0;"/><line style="stroke: #A80036; stroke-width: 1.0; stroke-dasharray: 2.0,2.0;" x1="86" x2="446" y1="776.7441" y2="776.7441"/><text fill="#000000" font-family="sans-serif" font-size="13" font-weight="bold" lengthAdjust="spacingAndGlyphs" textLength="18" x="98" y="772.002">17</text><text fill="#000000" font-family="sans-serif" font-size="13" lengthAdjust="spacingAndGlyphs" textLength="223" x="120" y="772.002">solicita o caráter da CT selecionada</text><polygon fill="#A80036" points="430,802.0547,440,806.0547,430,810.0547,434,806.0547" style="stroke: #A80036; stroke-width: 1.0;"/><line style="stroke: #A80036; stroke-width: 1.0;" x1="81" x2="436" y1="806.0547" y2="806.0547"/><text fill="#000000" font-family="sans-serif" font-size="13" font-weight="bold" lengthAdjust="spacingAndGlyphs" textLength="18" x="88" y="801.3125">18</text><text fill="#000000" font-family="sans-serif" font-size="13" lengthAdjust="spacingAndGlyphs" textLength="230" x="110" y="801.3125">introduz o caráter da CT selecionada</text><polygon fill="#A80036" points="631,831.3652,641,835.3652,631,839.3652,635,835.3652" style="stroke: #A80036; stroke-width: 1.0;"/><line style="stroke: #A80036; stroke-width: 1.0;" x1="452" x2="637" y1="835.3652" y2="835.3652"/><text fill="#000000" font-family="sans-serif" font-size="13" font-weight="bold" lengthAdjust="spacingAndGlyphs" textLength="18" x="459" y="830.623">19</text><text fill="#000000" font-family="sans-serif" font-size="13" lengthAdjust="spacingAndGlyphs" textLength="150" x="481" y="830.623">addCaraterCT(ctCod,ob)</text><polygon fill="#A80036" points="829,860.6758,839,864.6758,829,868.6758,833,864.6758" style="stroke: #A80036; stroke-width: 1.0;"/><line style="stroke: #A80036; stroke-width: 1.0;" x1="653" x2="835" y1="864.6758" y2="864.6758"/><text fill="#000000" font-family="sans-serif" font-size="13" font-weight="bold" lengthAdjust="spacingAndGlyphs" textLength="18" x="660" y="859.9336">20</text><text fill="#000000" font-family="sans-serif" font-size="13" lengthAdjust="spacingAndGlyphs" textLength="111" x="682" y="859.9336">ct=getCT(catCod)</text><polygon fill="#A80036" points="1278,919.9863,1288,923.9863,1278,927.9863,1282,923.9863" style="stroke: #A80036; stroke-width: 1.0;"/><line style="stroke: #A80036; stroke-width: 1.0;" x1="653" x2="1284" y1="923.9863" y2="923.9863"/><text fill="#000000" font-family="sans-serif" font-size="13" font-weight="bold" lengthAdjust="spacingAndGlyphs" textLength="18" x="660" y="919.2441">21</text><text fill="#000000" font-family="sans-serif" font-size="13" lengthAdjust="spacingAndGlyphs" textLength="125" x="682" y="919.2441">addCaraterCT(ct,ob)</text><polygon fill="#A80036" points="1739.5,949.2969,1749.5,953.2969,1739.5,957.2969,1743.5,953.2969" style="stroke: #A80036; stroke-width: 1.0;"/><line style="stroke: #A80036; stroke-width: 1.0; stroke-dasharray: 2.0,2.0;" x1="1300" x2="1745.5" y1="953.2969" y2="953.2969"/><text fill="#000000" font-family="sans-serif" font-size="13" font-weight="bold" lengthAdjust="spacingAndGlyphs" textLength="18" x="1307" y="948.5547">22</text><text fill="#000000" font-family="sans-serif" font-size="13" lengthAdjust="spacingAndGlyphs" textLength="78" x="1329" y="948.5547">create(ct,ob)</text><rect fill="#FEFECE" filter="url(#f1n8hadj1nnrav)" height="46.9766" style="stroke: #A80036; stroke-width: 1.5;" width="88" x="1751.5" y="931.9863"/><text fill="#000000" font-family="sans-serif" font-size="14" lengthAdjust="spacingAndGlyphs" textLength="19" x="1786" y="952.5215">cct</text><text fill="#000000" font-family="sans-serif" font-size="14" lengthAdjust="spacingAndGlyphs" textLength="74" x="1758.5" y="969.0098">:CaraterCT</text><line style="stroke: #A80036; stroke-width: 1.0;" x1="1300" x2="1342" y1="1015.2734" y2="1015.2734"/><line style="stroke: #A80036; stroke-width: 1.0;" x1="1342" x2="1342" y1="1015.2734" y2="1028.2734"/><line style="stroke: #A80036; stroke-width: 1.0;" x1="1301" x2="1342" y1="1028.2734" y2="1028.2734"/><polygon fill="#A80036" points="1311,1024.2734,1301,1028.2734,1311,1032.2734,1307,1028.2734" style="stroke: #A80036; stroke-width: 1.0;"/><text fill="#000000" font-family="sans-serif" font-size="13" font-weight="bold" lengthAdjust="spacingAndGlyphs" textLength="18" x="1307" y="1010.5313">23</text><text fill="#000000" font-family="sans-serif" font-size="13" lengthAdjust="spacingAndGlyphs" textLength="126" x="1329" y="1010.5313">validaCaraterCT(cct)</text><line style="stroke: #A80036; stroke-width: 1.0;" x1="1300" x2="1342" y1="1062.584" y2="1062.584"/><line style="stroke: #A80036; stroke-width: 1.0;" x1="1342" x2="1342" y1="1062.584" y2="1075.584"/><line style="stroke: #A80036; stroke-width: 1.0;" x1="1295" x2="1342" y1="1075.584" y2="1075.584"/><polygon fill="#A80036" points="1305,1071.584,1295,1075.584,1305,1079.584,1301,1075.584" style="stroke: #A80036; stroke-width: 1.0;"/><text fill="#000000" font-family="sans-serif" font-size="13" font-weight="bold" lengthAdjust="spacingAndGlyphs" textLength="18" x="1307" y="1057.8418">24</text><text fill="#000000" font-family="sans-serif" font-size="13" lengthAdjust="spacingAndGlyphs" textLength="112" x="1329" y="1057.8418">addCaraterCT(cct)</text><polygon fill="#A80036" points="92,1127.8945,82,1131.8945,92,1135.8945,88,1131.8945" style="stroke: #A80036; stroke-width: 1.0;"/><line style="stroke: #A80036; stroke-width: 1.0; stroke-dasharray: 2.0,2.0;" x1="86" x2="446" y1="1131.8945" y2="1131.8945"/><text fill="#000000" font-family="sans-serif" font-size="13" font-weight="bold" lengthAdjust="spacingAndGlyphs" textLength="18" x="98" y="1127.1523">25</text><text fill="#000000" font-family="sans-serif" font-size="13" lengthAdjust="spacingAndGlyphs" textLength="246" x="120" y="1127.1523">apresenta dados e solicita confirmação</text><polygon fill="#A80036" points="430,1157.2051,440,1161.2051,430,1165.2051,434,1161.2051" style="stroke: #A80036; stroke-width: 1.0;"/><line style="stroke: #A80036; stroke-width: 1.0;" x1="81" x2="436" y1="1161.2051" y2="1161.2051"/><text fill="#000000" font-family="sans-serif" font-size="13" font-weight="bold" lengthAdjust="spacingAndGlyphs" textLength="18" x="88" y="1156.4629">26</text><text fill="#000000" font-family="sans-serif" font-size="13" lengthAdjust="spacingAndGlyphs" textLength="56" x="110" y="1156.4629">confirma</text><polygon fill="#A80036" points="631,1186.5156,641,1190.5156,631,1194.5156,635,1190.5156" style="stroke: #A80036; stroke-width: 1.0;"/><line style="stroke: #A80036; stroke-width: 1.0;" x1="452" x2="637" y1="1190.5156" y2="1190.5156"/><text fill="#000000" font-family="sans-serif" font-size="13" font-weight="bold" lengthAdjust="spacingAndGlyphs" textLength="18" x="459" y="1185.7734">27</text><text fill="#000000" font-family="sans-serif" font-size="13" lengthAdjust="spacingAndGlyphs" textLength="111" x="481" y="1185.7734">registaCategoria()</text><polygon fill="#A80036" points="829,1215.8262,839,1219.8262,829,1223.8262,833,1219.8262" style="stroke: #A80036; stroke-width: 1.0;"/><line style="stroke: #A80036; stroke-width: 1.0;" x1="653" x2="835" y1="1219.8262" y2="1219.8262"/><text fill="#000000" font-family="sans-serif" font-size="13" font-weight="bold" lengthAdjust="spacingAndGlyphs" textLength="18" x="660" y="1215.084">28</text><text fill="#000000" font-family="sans-serif" font-size="13" lengthAdjust="spacingAndGlyphs" textLength="130" x="682" y="1215.084">registaCategoria(cat)</text><polygon fill="#A80036" points="1278,1245.1367,1288,1249.1367,1278,1253.1367,1282,1249.1367" style="stroke: #A80036; stroke-width: 1.0;"/><line style="stroke: #A80036; stroke-width: 1.0;" x1="851" x2="1284" y1="1249.1367" y2="1249.1367"/><text fill="#000000" font-family="sans-serif" font-size="13" font-weight="bold" lengthAdjust="spacingAndGlyphs" textLength="18" x="858" y="1244.3945">29</text><text fill="#000000" font-family="sans-serif" font-size="13" lengthAdjust="spacingAndGlyphs" textLength="45" x="880" y="1244.3945">valida()</text><line style="stroke: #A80036; stroke-width: 1.0;" x1="851" x2="893" y1="1308.4473" y2="1308.4473"/><line style="stroke: #A80036; stroke-width: 1.0;" x1="893" x2="893" y1="1308.4473" y2="1321.4473"/><line style="stroke: #A80036; stroke-width: 1.0;" x1="852" x2="893" y1="1321.4473" y2="1321.4473"/><polygon fill="#A80036" points="862,1317.4473,852,1321.4473,862,1325.4473,858,1321.4473" style="stroke: #A80036; stroke-width: 1.0;"/><text fill="#000000" font-family="sans-serif" font-size="13" font-weight="bold" lengthAdjust="spacingAndGlyphs" textLength="18" x="858" y="1303.7051">30</text><text fill="#000000" font-family="sans-serif" font-size="13" lengthAdjust="spacingAndGlyphs" textLength="124" x="880" y="1303.7051">validaCategoria(cat)</text><line style="stroke: #A80036; stroke-width: 1.0;" x1="851" x2="893" y1="1350.7578" y2="1350.7578"/><line style="stroke: #A80036; stroke-width: 1.0;" x1="893" x2="893" y1="1350.7578" y2="1363.7578"/><line style="stroke: #A80036; stroke-width: 1.0;" x1="852" x2="893" y1="1363.7578" y2="1363.7578"/><polygon fill="#A80036" points="862,1359.7578,852,1363.7578,862,1367.7578,858,1363.7578" style="stroke: #A80036; stroke-width: 1.0;"/><text fill="#000000" font-family="sans-serif" font-size="13" font-weight="bold" lengthAdjust="spacingAndGlyphs" textLength="18" x="858" y="1346.0156">31</text><text fill="#000000" font-family="sans-serif" font-size="13" lengthAdjust="spacingAndGlyphs" textLength="110" x="880" y="1346.0156">addCategoria(cat)</text><polygon fill="#A80036" points="87,1389.0684,77,1393.0684,87,1397.0684,83,1393.0684" style="stroke: #A80036; stroke-width: 1.0;"/><line style="stroke: #A80036; stroke-width: 1.0; stroke-dasharray: 2.0,2.0;" x1="81" x2="446" y1="1393.0684" y2="1393.0684"/><text fill="#000000" font-family="sans-serif" font-size="13" font-weight="bold" lengthAdjust="spacingAndGlyphs" textLength="18" x="93" y="1388.3262">32</text><text fill="#000000" font-family="sans-serif" font-size="13" lengthAdjust="spacingAndGlyphs" textLength="184" x="115" y="1388.3262">informa sucesso da operação</text><!--MD5=[b85531ef5a76f41e1fa5469d32f6774d]
@startuml
autonumber
actor "Administrativo" as ADM

participant ":DefinirCategoriaUI" as UI
participant ":DefinircategoriaController" as CTRL
participant ":Plataforma" as PLAT
participant "la\n:List<AreaAtividade>" as LIST_AT
participant "at\n:AreaAtividade" as AT
participant "cat\n:Categoria" as CAT
participant "lct\n:List<CompetenciaTecnica>" as LIST_CT
participant "ct:\nCompetenciaTecnica" as CT
participant "cct\n:CaraterCT" as CARACT_CT

activate ADM

ADM -> UI : inicia a definição de nova categoria de tarefa
activate UI
UI - -> ADM : solicita a descrição
deactivate UI

ADM -> UI : introduz a descrição solicitada
activate UI
UI -> CTRL : la=novaCategoria(desc)
activate CTRL
CTRL -> PLAT : cat=novaCategoria(desc)
activate PLAT
PLAT -> PLAT : catId=geraCategoriaId()
PLAT- -> CAT**: create(catId,desc)
deactivate PLAT
CTRL -> PLAT : la=getListaAT()
activate PLAT
deactivate PLAT
deactivate CTRL
UI - -> ADM : mostra lista de AT e solicita escolha de uma delas
deactivate UI

ADM -> UI : seleciona uma AT
activate UI
UI -> CTRL : lct=setAT(atCod)
activate CTRL
CTRL -> PLAT : at=getAT(atCod)
activate PLAT
deactivate PLAT
CTRL -> CAT : setAT(at)
activate CAT
deactivate CAT
CTRL -> PLAT : lct=getListaCT()
activate PLAT
deactivate PLAT
deactivate CTRL
UI - -> ADM : mostra lista de CT e solicita escolha de uma delas
deactivate UI

loop
ADM -> UI : seleciona uma CT
activate UI
UI - -> ADM : solicita o caráter da CT selecionada
deactivate UI

ADM -> UI : introduz o caráter da CT selecionada
activate UI
UI -> CTRL : addCaraterCT(ctCod,ob)
activate CTRL
CTRL -> PLAT : ct=getCT(catCod)
activate PLAT
deactivate PLAT
CTRL -> CAT : addCaraterCT(ct,ob)
activate CAT
CAT - -> CARACT_CT** : create(ct,ob)
CAT -> CAT : validaCaraterCT(cct)
CAT -> CAT : addCaraterCT(cct)
|||
deactivate CAT
deactivate CTRL
end loop
UI - -> ADM : apresenta dados e solicita confirmação
deactivate UI

ADM -> UI : confirma
activate UI
UI -> CTRL : registaCategoria()
activate CTRL
CTRL -> PLAT : registaCategoria(cat)
activate PLAT
PLAT -> CAT : valida()
activate CAT
deactivate CAT
PLAT -> PLAT : validaCategoria(cat)
PLAT -> PLAT : addCategoria(cat)
UI - -> ADM : informa sucesso da operação
deactivate CTRL
deactivate PLAT
deactivate UI

deactivate ADM

@enduml

PlantUML version 1.2020.03beta6(Unknown compile time)
(GPL source distribution)
Java Runtime: OpenJDK Runtime Environment
JVM: OpenJDK 64-Bit Server VM
Java Version: 11.0.5+10-b520.38
Operating System: Mac OS X
Default Encoding: UTF-8
Language: en
Country: PT
--></g></svg>