<?xml version="1.0" encoding="UTF-8" standalone="no"?><svg xmlns="http://www.w3.org/2000/svg" xmlns:xlink="http://www.w3.org/1999/xlink" contentScriptType="application/ecmascript" contentStyleType="text/css" height="549px" preserveAspectRatio="none" style="width:1109px;height:549px;" version="1.1" viewBox="0 0 1109 549" width="1109px" zoomAndPan="magnify"><defs><filter height="300%" id="f1aha5jsgpul1b" width="300%" x="-1" y="-1"><feGaussianBlur result="blurOut" stdDeviation="2.0"/><feColorMatrix in="blurOut" result="blurOut2" type="matrix" values="0 0 0 0 0 0 0 0 0 0 0 0 0 0 0 0 0 0 .4 0"/><feOffset dx="4.0" dy="4.0" in="blurOut2" result="blurOut3"/><feBlend in="SourceGraphic" in2="blurOut3" mode="normal"/></filter></defs><g><!--MD5=[d797b55806609526f9424c3f5fca1db9]
class DefinirCategoriaUI--><rect fill="#FEFECE" filter="url(#f1aha5jsgpul1b)" height="48" id="DefinirCategoriaUI" style="stroke: #A80036; stroke-width: 1.5;" width="136" x="6" y="212.34"/><ellipse cx="21" cy="228.34" fill="#ADD1B2" rx="11" ry="11" style="stroke: #A80036; stroke-width: 1.0;"/><path d="M23.4731,234.4831 Q22.8921,234.7819 22.2529,234.9313 Q21.6138,235.0807 20.9082,235.0807 Q18.4014,235.0807 17.0815,233.4289 Q15.7617,231.777 15.7617,228.6559 Q15.7617,225.5265 17.0815,223.8747 Q18.4014,222.2228 20.9082,222.2228 Q21.6138,222.2228 22.2612,222.3722 Q22.9087,222.5216 23.4731,222.8205 L23.4731,225.5431 Q22.8423,224.9621 22.2488,224.6923 Q21.6553,224.4225 21.0244,224.4225 Q19.6797,224.4225 18.9949,225.4892 Q18.3101,226.5558 18.3101,228.6559 Q18.3101,230.7477 18.9949,231.8144 Q19.6797,232.881 21.0244,232.881 Q21.6553,232.881 22.2488,232.6112 Q22.8423,232.3415 23.4731,231.7604 Z "/><text fill="#000000" font-family="sans-serif" font-size="12" lengthAdjust="spacingAndGlyphs" textLength="104" x="35" y="232.8752">DefinirCategoriaUI</text><line style="stroke: #A80036; stroke-width: 1.5;" x1="7" x2="141" y1="244.34" y2="244.34"/><line style="stroke: #A80036; stroke-width: 1.5;" x1="7" x2="141" y1="252.34" y2="252.34"/><!--MD5=[8153b488a8cbc44b7e7be39538dbc4fa]
class DefinirCategoriaController--><rect fill="#FEFECE" filter="url(#f1aha5jsgpul1b)" height="99.8203" id="DefinirCategoriaController" style="stroke: #A80036; stroke-width: 1.5;" width="181" x="203" y="186.34"/><ellipse cx="218" cy="202.34" fill="#ADD1B2" rx="11" ry="11" style="stroke: #A80036; stroke-width: 1.0;"/><path d="M220.4731,208.4831 Q219.8921,208.7819 219.2529,208.9313 Q218.6138,209.0807 217.9082,209.0807 Q215.4014,209.0807 214.0815,207.4289 Q212.7617,205.777 212.7617,202.6559 Q212.7617,199.5265 214.0815,197.8747 Q215.4014,196.2228 217.9082,196.2228 Q218.6138,196.2228 219.2612,196.3722 Q219.9087,196.5216 220.4731,196.8205 L220.4731,199.5431 Q219.8423,198.9621 219.2488,198.6923 Q218.6553,198.4225 218.0244,198.4225 Q216.6797,198.4225 215.9949,199.4892 Q215.3101,200.5558 215.3101,202.6559 Q215.3101,204.7477 215.9949,205.8144 Q216.6797,206.881 218.0244,206.881 Q218.6553,206.881 219.2488,206.6112 Q219.8423,206.3415 220.4731,205.7604 Z "/><text fill="#000000" font-family="sans-serif" font-size="12" lengthAdjust="spacingAndGlyphs" textLength="149" x="232" y="206.8752">DefinirCategoriaController</text><line style="stroke: #A80036; stroke-width: 1.5;" x1="204" x2="383" y1="218.34" y2="218.34"/><line style="stroke: #A80036; stroke-width: 1.5;" x1="204" x2="383" y1="226.34" y2="226.34"/><text fill="#000000" font-family="sans-serif" font-size="11" lengthAdjust="spacingAndGlyphs" textLength="120" x="209" y="240.9748">+novaCategoria(desc)</text><text fill="#000000" font-family="sans-serif" font-size="11" lengthAdjust="spacingAndGlyphs" textLength="80" x="209" y="253.9298">+setAT(atCod)</text><text fill="#000000" font-family="sans-serif" font-size="11" lengthAdjust="spacingAndGlyphs" textLength="141" x="209" y="266.8849">+addCaraterCT(ctCod,ob)</text><text fill="#000000" font-family="sans-serif" font-size="11" lengthAdjust="spacingAndGlyphs" textLength="106" x="209" y="279.84">+registaCategoria()</text><!--MD5=[ecaed46f78f8cfe1e9ce18477649be18]
class Plataforma--><rect fill="#FEFECE" filter="url(#f1aha5jsgpul1b)" height="177.5508" id="Plataforma" style="stroke: #A80036; stroke-width: 1.5;" width="134" x="445" y="253.34"/><ellipse cx="478" cy="269.34" fill="#ADD1B2" rx="11" ry="11" style="stroke: #A80036; stroke-width: 1.0;"/><path d="M480.4731,275.4831 Q479.8921,275.7819 479.2529,275.9313 Q478.6138,276.0807 477.9082,276.0807 Q475.4014,276.0807 474.0815,274.4289 Q472.7617,272.777 472.7617,269.6559 Q472.7617,266.5265 474.0815,264.8747 Q475.4014,263.2228 477.9082,263.2228 Q478.6138,263.2228 479.2612,263.3722 Q479.9087,263.5216 480.4731,263.8205 L480.4731,266.5431 Q479.8423,265.9621 479.2488,265.6923 Q478.6553,265.4225 478.0244,265.4225 Q476.6797,265.4225 475.9949,266.4892 Q475.3101,267.5558 475.3101,269.6559 Q475.3101,271.7477 475.9949,272.8144 Q476.6797,273.881 478.0244,273.881 Q478.6553,273.881 479.2488,273.6112 Q479.8423,273.3415 480.4731,272.7604 Z "/><text fill="#000000" font-family="sans-serif" font-size="12" lengthAdjust="spacingAndGlyphs" textLength="62" x="496" y="273.8752">Plataforma</text><line style="stroke: #A80036; stroke-width: 1.5;" x1="446" x2="578" y1="285.34" y2="285.34"/><text fill="#000000" font-family="sans-serif" font-size="11" lengthAdjust="spacingAndGlyphs" textLength="67" x="451" y="299.9748">-designacao</text><line style="stroke: #A80036; stroke-width: 1.5;" x1="446" x2="578" y1="306.2951" y2="306.2951"/><text fill="#000000" font-family="sans-serif" font-size="11" lengthAdjust="spacingAndGlyphs" textLength="81" x="451" y="320.9298">+getAT(atCod)</text><text fill="#000000" font-family="sans-serif" font-size="11" lengthAdjust="spacingAndGlyphs" textLength="87" x="451" y="333.8849">+getCT(catCod)</text><text fill="#000000" font-family="sans-serif" font-size="11" lengthAdjust="spacingAndGlyphs" textLength="74" x="451" y="346.84">+getListaCT()</text><text fill="#000000" font-family="sans-serif" font-size="11" lengthAdjust="spacingAndGlyphs" textLength="74" x="451" y="359.7951">+getListaAT()</text><text fill="#000000" font-family="sans-serif" font-size="11" lengthAdjust="spacingAndGlyphs" textLength="120" x="451" y="372.7502">+novaCategoria(desc)</text><text fill="#000000" font-family="sans-serif" font-size="11" lengthAdjust="spacingAndGlyphs" textLength="122" x="451" y="385.7052">+registaCategoria(cat)</text><text fill="#000000" font-family="sans-serif" font-size="11" lengthAdjust="spacingAndGlyphs" textLength="113" x="451" y="398.6603">-validaCategoria(cat)</text><text fill="#000000" font-family="sans-serif" font-size="11" lengthAdjust="spacingAndGlyphs" textLength="100" x="451" y="411.6154">-geraCategoriaId()</text><text fill="#000000" font-family="sans-serif" font-size="11" lengthAdjust="spacingAndGlyphs" textLength="102" x="451" y="424.5705">-addCategoria(cat)</text><!--MD5=[a322db5a7ec64d2ff8f2d6cf1831dcec]
class CompetenciaTecnica--><rect fill="#FEFECE" filter="url(#f1aha5jsgpul1b)" height="86.8652" id="CompetenciaTecnica" style="stroke: #A80036; stroke-width: 1.5;" width="151" x="947" y="184.84"/><ellipse cx="962" cy="200.84" fill="#ADD1B2" rx="11" ry="11" style="stroke: #A80036; stroke-width: 1.0;"/><path d="M964.4731,206.9831 Q963.8921,207.2819 963.2529,207.4313 Q962.6138,207.5807 961.9082,207.5807 Q959.4014,207.5807 958.0815,205.9289 Q956.7617,204.277 956.7617,201.1559 Q956.7617,198.0265 958.0815,196.3747 Q959.4014,194.7228 961.9082,194.7228 Q962.6138,194.7228 963.2612,194.8722 Q963.9087,195.0216 964.4731,195.3205 L964.4731,198.0431 Q963.8423,197.4621 963.2488,197.1923 Q962.6553,196.9225 962.0244,196.9225 Q960.6797,196.9225 959.9949,197.9892 Q959.3101,199.0558 959.3101,201.1559 Q959.3101,203.2477 959.9949,204.3144 Q960.6797,205.381 962.0244,205.381 Q962.6553,205.381 963.2488,205.1112 Q963.8423,204.8415 964.4731,204.2604 Z "/><text fill="#000000" font-family="sans-serif" font-size="12" lengthAdjust="spacingAndGlyphs" textLength="119" x="976" y="205.3752">CompetenciaTecnica</text><line style="stroke: #A80036; stroke-width: 1.5;" x1="948" x2="1097" y1="216.84" y2="216.84"/><text fill="#000000" font-family="sans-serif" font-size="11" lengthAdjust="spacingAndGlyphs" textLength="43" x="953" y="231.4748">-codigo</text><text fill="#000000" font-family="sans-serif" font-size="11" lengthAdjust="spacingAndGlyphs" textLength="60" x="953" y="244.4298">-descBreve</text><text fill="#000000" font-family="sans-serif" font-size="11" lengthAdjust="spacingAndGlyphs" textLength="84" x="953" y="257.3849">-descDetalhada</text><line style="stroke: #A80036; stroke-width: 1.5;" x1="948" x2="1097" y1="263.7052" y2="263.7052"/><!--MD5=[b0f240be72c8ea8a063442502d85fc08]
class CaraterCT--><rect fill="#FEFECE" filter="url(#f1aha5jsgpul1b)" height="73.9102" id="CaraterCT" style="stroke: #A80036; stroke-width: 1.5;" width="111" x="967" y="8.34"/><ellipse cx="991" cy="24.34" fill="#ADD1B2" rx="11" ry="11" style="stroke: #A80036; stroke-width: 1.0;"/><path d="M993.4731,30.4831 Q992.8921,30.7819 992.2529,30.9313 Q991.6138,31.0807 990.9082,31.0807 Q988.4014,31.0807 987.0815,29.4289 Q985.7617,27.777 985.7617,24.6559 Q985.7617,21.5265 987.0815,19.8747 Q988.4014,18.2228 990.9082,18.2228 Q991.6138,18.2228 992.2612,18.3722 Q992.9087,18.5216 993.4731,18.8205 L993.4731,21.5431 Q992.8423,20.9621 992.2488,20.6923 Q991.6553,20.4225 991.0244,20.4225 Q989.6797,20.4225 988.9949,21.4892 Q988.3101,22.5558 988.3101,24.6559 Q988.3101,26.7477 988.9949,27.8144 Q989.6797,28.881 991.0244,28.881 Q991.6553,28.881 992.2488,28.6112 Q992.8423,28.3415 993.4731,27.7604 Z "/><text fill="#000000" font-family="sans-serif" font-size="12" lengthAdjust="spacingAndGlyphs" textLength="59" x="1007" y="28.8752">CaraterCT</text><line style="stroke: #A80036; stroke-width: 1.5;" x1="968" x2="1077" y1="40.34" y2="40.34"/><text fill="#000000" font-family="sans-serif" font-size="11" lengthAdjust="spacingAndGlyphs" textLength="66" x="973" y="54.9748">-obrigatoria</text><line style="stroke: #A80036; stroke-width: 1.5;" x1="968" x2="1077" y1="61.2951" y2="61.2951"/><text fill="#000000" font-family="sans-serif" font-size="11" lengthAdjust="spacingAndGlyphs" textLength="99" x="973" y="75.9298">+CaraterCT(ct,ob)</text><!--MD5=[7e1ce8ab2bf669717f28e918f4971b9a]
class Categoria--><rect fill="#FEFECE" filter="url(#f1aha5jsgpul1b)" height="151.6406" id="Categoria" style="stroke: #A80036; stroke-width: 1.5;" width="131" x="683" y="131.34"/><ellipse cx="717.8" cy="147.34" fill="#ADD1B2" rx="11" ry="11" style="stroke: #A80036; stroke-width: 1.0;"/><path d="M720.2731,153.4831 Q719.6921,153.7819 719.0529,153.9313 Q718.4138,154.0807 717.7082,154.0807 Q715.2014,154.0807 713.8815,152.4289 Q712.5617,150.777 712.5617,147.6559 Q712.5617,144.5265 713.8815,142.8747 Q715.2014,141.2228 717.7082,141.2228 Q718.4138,141.2228 719.0612,141.3722 Q719.7087,141.5216 720.2731,141.8205 L720.2731,144.5431 Q719.6423,143.9621 719.0488,143.6923 Q718.4553,143.4225 717.8244,143.4225 Q716.4797,143.4225 715.7949,144.4892 Q715.1101,145.5558 715.1101,147.6559 Q715.1101,149.7477 715.7949,150.8144 Q716.4797,151.881 717.8244,151.881 Q718.4553,151.881 719.0488,151.6112 Q719.6423,151.3415 720.2731,150.7604 Z "/><text fill="#000000" font-family="sans-serif" font-size="12" lengthAdjust="spacingAndGlyphs" textLength="55" x="736.2" y="151.8752">Categoria</text><line style="stroke: #A80036; stroke-width: 1.5;" x1="684" x2="813" y1="163.34" y2="163.34"/><text fill="#000000" font-family="sans-serif" font-size="11" lengthAdjust="spacingAndGlyphs" textLength="16" x="689" y="177.9748">-id</text><text fill="#000000" font-family="sans-serif" font-size="11" lengthAdjust="spacingAndGlyphs" textLength="58" x="689" y="190.9298">-descricao</text><line style="stroke: #A80036; stroke-width: 1.5;" x1="684" x2="813" y1="197.2502" y2="197.2502"/><text fill="#000000" font-family="sans-serif" font-size="11" lengthAdjust="spacingAndGlyphs" textLength="107" x="689" y="211.8849">+Categoria(id,desc)</text><text fill="#000000" font-family="sans-serif" font-size="11" lengthAdjust="spacingAndGlyphs" textLength="58" x="689" y="224.84">+setAT(at)</text><text fill="#000000" font-family="sans-serif" font-size="11" lengthAdjust="spacingAndGlyphs" textLength="119" x="689" y="237.7951">+addCaraterCT(ct,ob)</text><text fill="#000000" font-family="sans-serif" font-size="11" lengthAdjust="spacingAndGlyphs" textLength="48" x="689" y="250.7502">+valida()</text><text fill="#000000" font-family="sans-serif" font-size="11" lengthAdjust="spacingAndGlyphs" textLength="116" x="689" y="263.7052">-validaCaraterCT(cct)</text><text fill="#000000" font-family="sans-serif" font-size="11" lengthAdjust="spacingAndGlyphs" textLength="105" x="689" y="276.6603">-addCaraterCT(cct)</text><!--MD5=[02456e6632d968d6f68141e5893c6991]
class AreaAtividade--><rect fill="#FEFECE" filter="url(#f1aha5jsgpul1b)" height="86.8652" id="AreaAtividade" style="stroke: #A80036; stroke-width: 1.5;" width="113" x="966" y="349.84"/><ellipse cx="981" cy="365.84" fill="#ADD1B2" rx="11" ry="11" style="stroke: #A80036; stroke-width: 1.0;"/><path d="M983.4731,371.9831 Q982.8921,372.2819 982.2529,372.4313 Q981.6138,372.5807 980.9082,372.5807 Q978.4014,372.5807 977.0815,370.9289 Q975.7617,369.277 975.7617,366.1559 Q975.7617,363.0265 977.0815,361.3747 Q978.4014,359.7228 980.9082,359.7228 Q981.6138,359.7228 982.2612,359.8722 Q982.9087,360.0216 983.4731,360.3205 L983.4731,363.0431 Q982.8423,362.4621 982.2488,362.1923 Q981.6553,361.9225 981.0244,361.9225 Q979.6797,361.9225 978.9949,362.9892 Q978.3101,364.0558 978.3101,366.1559 Q978.3101,368.2477 978.9949,369.3144 Q979.6797,370.381 981.0244,370.381 Q981.6553,370.381 982.2488,370.1112 Q982.8423,369.8415 983.4731,369.2604 Z "/><text fill="#000000" font-family="sans-serif" font-size="12" lengthAdjust="spacingAndGlyphs" textLength="81" x="995" y="370.3752">AreaAtividade</text><line style="stroke: #A80036; stroke-width: 1.5;" x1="967" x2="1078" y1="381.84" y2="381.84"/><text fill="#000000" font-family="sans-serif" font-size="11" lengthAdjust="spacingAndGlyphs" textLength="43" x="972" y="396.4748">-codigo</text><text fill="#000000" font-family="sans-serif" font-size="11" lengthAdjust="spacingAndGlyphs" textLength="60" x="972" y="409.4298">-descBreve</text><text fill="#000000" font-family="sans-serif" font-size="11" lengthAdjust="spacingAndGlyphs" textLength="84" x="972" y="422.3849">-descDetalhada</text><line style="stroke: #A80036; stroke-width: 1.5;" x1="967" x2="1078" y1="428.7052" y2="428.7052"/><!--MD5=[512502001ccce49054c9400db8cbc860]
link DefinirCategoriaUI to DefinirCategoriaController--><path d="M142.03,236.34 C159.6,236.34 178.88,236.34 197.61,236.34 " fill="none" id="DefinirCategoriaUI-&gt;DefinirCategoriaController" style="stroke: #A80036; stroke-width: 1.0; stroke-dasharray: 7.0,7.0;"/><polygon fill="#A80036" points="202.87,236.34,193.87,232.34,197.87,236.34,193.87,240.34,202.87,236.34" style="stroke: #A80036; stroke-width: 1.0;"/><!--MD5=[0fe5c28e463b2014fef6d172a2d489ec]
link DefinirCategoriaController to Plataforma--><path d="M384.12,280.22 C402.89,289.4 422.43,298.97 440.39,307.76 " fill="none" id="DefinirCategoriaController-&gt;Plataforma" style="stroke: #A80036; stroke-width: 1.0; stroke-dasharray: 7.0,7.0;"/><polygon fill="#A80036" points="444.92,309.98,438.5815,302.4419,440.4252,307.7899,435.0772,309.6336,444.92,309.98" style="stroke: #A80036; stroke-width: 1.0;"/><!--MD5=[666a00fbd91b646ca611c9d5fcd09542]
link DefinirCategoriaController to AreaAtividade--><path d="M313.71,286.81 C336.37,338.32 379.46,415.4 445,449.34 C615.03,537.39 851.08,463.47 960.86,419.81 " fill="none" id="DefinirCategoriaController-&gt;AreaAtividade" style="stroke: #A80036; stroke-width: 1.0; stroke-dasharray: 7.0,7.0;"/><polygon fill="#A80036" points="965.67,417.89,955.8281,417.5186,961.0276,419.747,958.7993,424.9464,965.67,417.89" style="stroke: #A80036; stroke-width: 1.0;"/><!--MD5=[bc75f439354c126562bc3903d6ab3dcd]
link DefinirCategoriaController to CompetenciaTecnica--><path d="M384.41,188.24 C488.2,138.93 663.92,74.53 814,113.34 C865.75,126.72 918.35,156.08 957.65,181.79 " fill="none" id="DefinirCategoriaController-&gt;CompetenciaTecnica" style="stroke: #A80036; stroke-width: 1.0; stroke-dasharray: 7.0,7.0;"/><polygon fill="#A80036" points="961.89,184.58,956.5874,176.2804,957.7188,181.823,952.1762,182.9544,961.89,184.58" style="stroke: #A80036; stroke-width: 1.0;"/><!--MD5=[22a0c411e8298196ee56fe1fb1fc231a]
link DefinirCategoriaController to Categoria--><path d="M384.27,230.59 C470.46,225.07 598.87,216.85 677.67,211.81 " fill="none" id="DefinirCategoriaController-&gt;Categoria" style="stroke: #A80036; stroke-width: 1.0; stroke-dasharray: 7.0,7.0;"/><polygon fill="#A80036" points="682.79,211.48,673.5562,208.0541,677.7999,211.7946,674.0595,216.0383,682.79,211.48" style="stroke: #A80036; stroke-width: 1.0;"/><!--MD5=[cb8556493ec2c94f9603162dd119feba]
link Plataforma to Categoria--><path d="M579.26,304.19 C610.11,286.43 646.81,265.3 678.05,247.32 " fill="none" id="Plataforma-&gt;Categoria" style="stroke: #A80036; stroke-width: 1.0;"/><polygon fill="#A80036" points="682.62,244.69,672.8245,245.7135,678.2867,247.1845,676.8157,252.6467,682.62,244.69" style="stroke: #A80036; stroke-width: 1.0;"/><text fill="#000000" font-family="sans-serif" font-size="13" lengthAdjust="spacingAndGlyphs" textLength="42" x="610" y="258.9084">possui</text><text fill="#000000" font-family="sans-serif" font-size="13" lengthAdjust="spacingAndGlyphs" textLength="8" x="587.0541" y="313.4476">1</text><text fill="#000000" font-family="sans-serif" font-size="13" lengthAdjust="spacingAndGlyphs" textLength="6" x="669.0863" y="262.2005">*</text><!--MD5=[718b46c9a1975c175f4073d63ce5ccba]
link Plataforma to AreaAtividade--><path d="M579.32,368.13 C610.31,378.84 648.01,390.01 683,395.34 C779.12,409.97 892.37,404.86 960.48,399.4 " fill="none" id="Plataforma-&gt;AreaAtividade" style="stroke: #A80036; stroke-width: 1.0;"/><polygon fill="#A80036" points="965.7,398.98,956.4089,395.7126,960.716,399.3799,957.0487,403.6869,965.7,398.98" style="stroke: #A80036; stroke-width: 1.0;"/><text fill="#000000" font-family="sans-serif" font-size="13" lengthAdjust="spacingAndGlyphs" textLength="42" x="727.5" y="391.9084">possui</text><text fill="#000000" font-family="sans-serif" font-size="13" lengthAdjust="spacingAndGlyphs" textLength="8" x="587.1206" y="384.381">1</text><text fill="#000000" font-family="sans-serif" font-size="13" lengthAdjust="spacingAndGlyphs" textLength="6" x="952.0381" y="413.2604">*</text><!--MD5=[a77d152358ce76c19672aacd9fb0ada1]
link Plataforma to CompetenciaTecnica--><path d="M579.18,343.26 C640.84,342.68 734.91,338.06 814,318.34 C857.93,307.38 904.39,288.03 942.18,270.08 " fill="none" id="Plataforma-&gt;CompetenciaTecnica" style="stroke: #A80036; stroke-width: 1.0;"/><polygon fill="#A80036" points="946.75,267.89,936.9049,268.1613,942.2386,270.0458,940.3541,275.3795,946.75,267.89" style="stroke: #A80036; stroke-width: 1.0;"/><text fill="#000000" font-family="sans-serif" font-size="13" lengthAdjust="spacingAndGlyphs" textLength="42" x="727.5" y="314.9084">possui</text><text fill="#000000" font-family="sans-serif" font-size="13" lengthAdjust="spacingAndGlyphs" textLength="8" x="586.9653" y="356.7908">1</text><text fill="#000000" font-family="sans-serif" font-size="13" lengthAdjust="spacingAndGlyphs" textLength="6" x="932.998" y="285.1118">*</text><!--MD5=[e538c9efa8de58386edc6206f3c58807]
link CompetenciaTecnica to AreaAtividade--><path d="M1022.5,272.04 C1022.5,294.3 1022.5,321.45 1022.5,344.42 " fill="none" id="CompetenciaTecnica-&gt;AreaAtividade" style="stroke: #A80036; stroke-width: 1.0;"/><polygon fill="#A80036" points="1022.5,349.55,1026.5,340.55,1022.5,344.55,1018.5,340.55,1022.5,349.55" style="stroke: #A80036; stroke-width: 1.0;"/><text fill="#000000" font-family="sans-serif" font-size="13" lengthAdjust="spacingAndGlyphs" textLength="67" x="977.5" y="315.9084">referente a</text><text fill="#000000" font-family="sans-serif" font-size="13" lengthAdjust="spacingAndGlyphs" textLength="6" x="1016.0594" y="292.1611">*</text><text fill="#000000" font-family="sans-serif" font-size="13" lengthAdjust="spacingAndGlyphs" textLength="8" x="1013.8625" y="338.9795">1</text><!--MD5=[333932e5e4606ec9852f0cecc179b212]
link Categoria to AreaAtividade--><path d="M814.31,251.65 C859.06,282.25 918.14,322.65 961.75,352.48 " fill="none" id="Categoria-&gt;AreaAtividade" style="stroke: #A80036; stroke-width: 1.0;"/><polygon fill="#A80036" points="965.92,355.33,960.7697,346.9351,961.7998,352.4974,956.2375,353.5274,965.92,355.33" style="stroke: #A80036; stroke-width: 1.0;"/><text fill="#000000" font-family="sans-serif" font-size="13" lengthAdjust="spacingAndGlyphs" textLength="71" x="845" y="268.9084">tem/requer</text><text fill="#000000" font-family="sans-serif" font-size="13" lengthAdjust="spacingAndGlyphs" textLength="6" x="821.8361" y="269.9217">*</text><text fill="#000000" font-family="sans-serif" font-size="13" lengthAdjust="spacingAndGlyphs" textLength="8" x="950.1582" y="364.0178">1</text><!--MD5=[356637b2f958ae72e05476dfd0749f83]
link Categoria to CaraterCT--><path d="M814.31,168.74 C859.27,141.96 918.7,106.56 962.38,80.55 " fill="none" id="Categoria-&gt;CaraterCT" style="stroke: #A80036; stroke-width: 1.0;"/><polygon fill="#A80036" points="966.82,77.9,957.0417,79.0765,962.5262,80.4619,961.1408,85.9465,966.82,77.9" style="stroke: #A80036; stroke-width: 1.0;"/><text fill="#000000" font-family="sans-serif" font-size="13" lengthAdjust="spacingAndGlyphs" textLength="71" x="845" y="108.9084">tem/requer</text><text fill="#000000" font-family="sans-serif" font-size="13" lengthAdjust="spacingAndGlyphs" textLength="8" x="821.9455" y="177.9434">1</text><text fill="#000000" font-family="sans-serif" font-size="13" lengthAdjust="spacingAndGlyphs" textLength="6" x="952.9349" y="95.8783">*</text><!--MD5=[c75634cbdcfa2b68969b4225848e5f92]
link CaraterCT to CompetenciaTecnica--><path d="M1022.5,82.63 C1022.5,110.53 1022.5,148.94 1022.5,179.31 " fill="none" id="CaraterCT-&gt;CompetenciaTecnica" style="stroke: #A80036; stroke-width: 1.0;"/><polygon fill="#A80036" points="1022.5,184.5,1026.5,175.5,1022.5,179.5,1018.5,175.5,1022.5,184.5" style="stroke: #A80036; stroke-width: 1.0;"/><text fill="#000000" font-family="sans-serif" font-size="13" lengthAdjust="spacingAndGlyphs" textLength="67" x="977.5" y="138.6584">referente a</text><text fill="#000000" font-family="sans-serif" font-size="13" lengthAdjust="spacingAndGlyphs" textLength="6" x="1015.9844" y="102.931">*</text><text fill="#000000" font-family="sans-serif" font-size="13" lengthAdjust="spacingAndGlyphs" textLength="8" x="1013.8875" y="174.241">1</text><!--MD5=[2eed6e496486b88ac5704c9bdc76cd69]
@startuml
skinparam classAttributeIconSize 0
left to right direction 
class DefinirCategoriaUI {
}

class DefinirCategoriaController {
  +novaCategoria(desc)
  +setAT(atCod)
  +addCaraterCT(ctCod,ob)
  +registaCategoria()
}

class Plataforma {
  -designacao
  +getAT(atCod)
  +getCT(catCod)
  +getListaCT()
  +getListaAT()
  +novaCategoria(desc)
  +registaCategoria(cat)
  -validaCategoria(cat)
  -geraCategoriaId()
  -addCategoria(cat)
}

class CompetenciaTecnica {
  -codigo
  -descBreve
  -descDetalhada
}

class CaraterCT {
  -obrigatoria
  +CaraterCT(ct,ob)
}


class Categoria {
  -id
  -descricao
  +Categoria(id,desc)
  +setAT(at)
  +addCaraterCT(ct,ob)
  +valida()
  -validaCaraterCT(cct)
  -addCaraterCT(cct)
}

class AreaAtividade {
  -codigo
  -descBreve
  -descDetalhada
}

DefinirCategoriaUI ..> DefinirCategoriaController
DefinirCategoriaController ..> Plataforma
DefinirCategoriaController ..> AreaAtividade
DefinirCategoriaController ..> CompetenciaTecnica
DefinirCategoriaController ..> Categoria
Plataforma "1" - -> "*" Categoria : possui
Plataforma "1" - -> "*" AreaAtividade : possui
Plataforma "1" - -> "*" CompetenciaTecnica : possui
CompetenciaTecnica "*" -> "1" AreaAtividade : referente a
Categoria "*" - -> "1" AreaAtividade : tem/requer
Categoria "1" - -> "*" CaraterCT : tem/requer
CaraterCT "*" -> "1" CompetenciaTecnica : referente a




@enduml

PlantUML version 1.2020.03beta6(Unknown compile time)
(GPL source distribution)
Java Runtime: OpenJDK Runtime Environment
JVM: OpenJDK 64-Bit Server VM
Java Version: 11.0.5+10-b520.38
Operating System: Mac OS X
Default Encoding: UTF-8
Language: en
Country: PT
--></g></svg>