<?xml version="1.0" encoding="UTF-8" standalone="no"?><svg xmlns="http://www.w3.org/2000/svg" xmlns:xlink="http://www.w3.org/1999/xlink" contentScriptType="application/ecmascript" contentStyleType="text/css" height="484.2px" preserveAspectRatio="none" style="width:512px;height:484px;" version="1.1" viewBox="0 0 512 484" width="512.4px" zoomAndPan="magnify"><defs><filter height="300%" id="fn53v4yyw1a4m" width="300%" x="-1" y="-1"><feGaussianBlur result="blurOut" stdDeviation="1.2"/><feColorMatrix in="blurOut" result="blurOut2" type="matrix" values="0 0 0 0 0 0 0 0 0 0 0 0 0 0 0 0 0 0 .4 0"/><feOffset dx="2.4" dy="2.4" in="blurOut2" result="blurOut3"/><feBlend in="SourceGraphic" in2="blurOut3" mode="normal"/></filter></defs><g><!--MD5=[380d12a68ed0046a60f31008a02875d0]
class AplicacaoPOT--><rect fill="#FEFECE" filter="url(#fn53v4yyw1a4m)" height="44.3461" id="AplicacaoPOT" style="stroke: #A80036; stroke-width: 0.8999999999999999;" width="73.8" x="3.6" y="151.2"/><ellipse cx="15.84" cy="160.8" fill="#ADD1B2" rx="6.6" ry="6.6" style="stroke: #A80036; stroke-width: 0.6;"/><path d="M17.3239,164.4858 Q16.9753,164.6651 16.5918,164.7548 Q16.2083,164.8444 15.7849,164.8444 Q14.2808,164.8444 13.4889,163.8533 Q12.697,162.8622 12.697,160.9896 Q12.697,159.1119 13.4889,158.1208 Q14.2808,157.1297 15.7849,157.1297 Q16.2083,157.1297 16.5967,157.2193 Q16.9852,157.309 17.3239,157.4883 L17.3239,159.1219 Q16.9454,158.7732 16.5893,158.6114 Q16.2332,158.4495 15.8546,158.4495 Q15.0478,158.4495 14.6369,159.0895 Q14.226,159.7295 14.226,160.9896 Q14.226,162.2446 14.6369,162.8846 Q15.0478,163.5246 15.8546,163.5246 Q16.2332,163.5246 16.5893,163.3627 Q16.9454,163.2009 17.3239,162.8522 Z "/><text fill="#000000" font-family="sans-serif" font-size="7.2" lengthAdjust="spacingAndGlyphs" textLength="47.4" x="24.96" y="163.5211">AplicacaoPOT</text><line style="stroke: #A80036; stroke-width: 0.8999999999999999;" x1="4.2" x2="76.8" y1="170.4" y2="170.4"/><line style="stroke: #A80036; stroke-width: 0.8999999999999999;" x1="4.2" x2="76.8" y1="175.2" y2="175.2"/><text fill="#000000" font-family="sans-serif" font-size="6.6" lengthAdjust="spacingAndGlyphs" textLength="66.6" x="7.2" y="183.9809">+static getInstance()</text><text fill="#000000" font-family="sans-serif" font-size="6.6" lengthAdjust="spacingAndGlyphs" textLength="59.4" x="7.2" y="191.7539">+getSessaoAtual()</text><!--MD5=[1e13576e8c070e32200b62ceaa1f39ec]
class SessaoUtilizador--><rect fill="#FEFECE" filter="url(#fn53v4yyw1a4m)" height="36.573" id="SessaoUtilizador" style="stroke: #A80036; stroke-width: 0.8999999999999999;" width="75.6" x="98.7" y="155.1"/><ellipse cx="107.7" cy="164.7" fill="#ADD1B2" rx="6.6" ry="6.6" style="stroke: #A80036; stroke-width: 0.6;"/><path d="M109.1839,168.3858 Q108.8353,168.5651 108.4518,168.6548 Q108.0683,168.7444 107.6449,168.7444 Q106.1408,168.7444 105.3489,167.7533 Q104.557,166.7622 104.557,164.8896 Q104.557,163.0119 105.3489,162.0208 Q106.1408,161.0297 107.6449,161.0297 Q108.0683,161.0297 108.4567,161.1193 Q108.8452,161.209 109.1839,161.3883 L109.1839,163.0219 Q108.8054,162.6732 108.4493,162.5114 Q108.0932,162.3495 107.7146,162.3495 Q106.9078,162.3495 106.4969,162.9895 Q106.086,163.6295 106.086,164.8896 Q106.086,166.1446 106.4969,166.7846 Q106.9078,167.4246 107.7146,167.4246 Q108.0932,167.4246 108.4493,167.2627 Q108.8054,167.1009 109.1839,166.7522 Z "/><text fill="#000000" font-family="sans-serif" font-size="7.2" lengthAdjust="spacingAndGlyphs" textLength="56.4" x="116.1" y="167.4211">SessaoUtilizador</text><line style="stroke: #A80036; stroke-width: 0.8999999999999999;" x1="99.3" x2="173.7" y1="174.3" y2="174.3"/><line style="stroke: #A80036; stroke-width: 0.8999999999999999;" x1="99.3" x2="173.7" y1="179.1" y2="179.1"/><text fill="#000000" font-family="sans-serif" font-size="6.6" lengthAdjust="spacingAndGlyphs" textLength="68.4" x="102.3" y="187.8809">+getEmailUtilizador()</text><!--MD5=[ac8682ea5466d223e49472789fb200d2]
class Colaborador--><rect fill="#FEFECE" filter="url(#fn53v4yyw1a4m)" height="83.2113" id="Colaborador" style="stroke: #A80036; stroke-width: 0.8999999999999999;" width="136.2" x="169.8" y="394.8"/><ellipse cx="213.75" cy="404.4" fill="#ADD1B2" rx="6.6" ry="6.6" style="stroke: #A80036; stroke-width: 0.6;"/><path d="M215.2339,408.0858 Q214.8853,408.2651 214.5018,408.3548 Q214.1183,408.4444 213.6949,408.4444 Q212.1908,408.4444 211.3989,407.4533 Q210.607,406.4622 210.607,404.5896 Q210.607,402.7119 211.3989,401.7208 Q212.1908,400.7297 213.6949,400.7297 Q214.1183,400.7297 214.5067,400.8193 Q214.8952,400.909 215.2339,401.0883 L215.2339,402.7219 Q214.8554,402.3732 214.4993,402.2114 Q214.1432,402.0495 213.7646,402.0495 Q212.9578,402.0495 212.5469,402.6895 Q212.136,403.3295 212.136,404.5896 Q212.136,405.8446 212.5469,406.4846 Q212.9578,407.1246 213.7646,407.1246 Q214.1432,407.1246 214.4993,406.9627 Q214.8554,406.8009 215.2339,406.4522 Z "/><text fill="#000000" font-family="sans-serif" font-size="7.2" lengthAdjust="spacingAndGlyphs" textLength="43.2" x="226.05" y="407.1211">Colaborador</text><line style="stroke: #A80036; stroke-width: 0.8999999999999999;" x1="170.4" x2="305.4" y1="414" y2="414"/><text fill="#000000" font-family="sans-serif" font-size="6.6" lengthAdjust="spacingAndGlyphs" textLength="42.6" x="173.4" y="422.7809">-String nome</text><text fill="#000000" font-family="sans-serif" font-size="6.6" lengthAdjust="spacingAndGlyphs" textLength="46.8" x="173.4" y="430.5539">-String funcao</text><text fill="#000000" font-family="sans-serif" font-size="6.6" lengthAdjust="spacingAndGlyphs" textLength="50.4" x="173.4" y="438.327">-String telefone</text><text fill="#000000" font-family="sans-serif" font-size="6.6" lengthAdjust="spacingAndGlyphs" textLength="41.4" x="173.4" y="446.1">-String email</text><line style="stroke: #A80036; stroke-width: 0.8999999999999999;" x1="170.4" x2="305.4" y1="449.8922" y2="449.8922"/><text fill="#000000" font-family="sans-serif" font-size="6.6" lengthAdjust="spacingAndGlyphs" textLength="129" x="173.4" y="458.673">+Colaborador(nome, funcao, telf, email)</text><text fill="#000000" font-family="sans-serif" font-size="6.6" lengthAdjust="spacingAndGlyphs" textLength="37.2" x="173.4" y="466.4461">+getEmail()</text><text fill="#000000" font-family="sans-serif" font-size="6.6" lengthAdjust="spacingAndGlyphs" textLength="39" x="173.4" y="474.2191">+getNome()</text><!--MD5=[807977ceb130c090ed5febfb6de2bdea]
class Organizacao--><rect fill="#FEFECE" filter="url(#fn53v4yyw1a4m)" height="106.5305" id="Organizacao" style="stroke: #A80036; stroke-width: 0.8999999999999999;" width="195" x="238.2" y="241.8"/><ellipse cx="311.55" cy="251.4" fill="#ADD1B2" rx="6.6" ry="6.6" style="stroke: #A80036; stroke-width: 0.6;"/><path d="M313.0339,255.0858 Q312.6853,255.2651 312.3018,255.3548 Q311.9183,255.4444 311.4949,255.4444 Q309.9908,255.4444 309.1989,254.4533 Q308.407,253.4622 308.407,251.5896 Q308.407,249.7119 309.1989,248.7208 Q309.9908,247.7297 311.4949,247.7297 Q311.9183,247.7297 312.3067,247.8193 Q312.6952,247.909 313.0339,248.0883 L313.0339,249.7219 Q312.6554,249.3732 312.2993,249.2114 Q311.9432,249.0495 311.5646,249.0495 Q310.7578,249.0495 310.3469,249.6895 Q309.936,250.3295 309.936,251.5896 Q309.936,252.8446 310.3469,253.4846 Q310.7578,254.1246 311.5646,254.1246 Q311.9432,254.1246 312.2993,253.9627 Q312.6554,253.8009 313.0339,253.4522 Z "/><text fill="#000000" font-family="sans-serif" font-size="7.2" lengthAdjust="spacingAndGlyphs" textLength="43.2" x="323.85" y="254.1211">Organizacao</text><line style="stroke: #A80036; stroke-width: 0.8999999999999999;" x1="238.8" x2="432.6" y1="261" y2="261"/><text fill="#000000" font-family="sans-serif" font-size="6.6" lengthAdjust="spacingAndGlyphs" textLength="42.6" x="241.8" y="269.7809">-String nome</text><text fill="#000000" font-family="sans-serif" font-size="6.6" lengthAdjust="spacingAndGlyphs" textLength="34.8" x="241.8" y="277.5539">-String NIF</text><text fill="#000000" font-family="sans-serif" font-size="6.6" lengthAdjust="spacingAndGlyphs" textLength="48.6" x="241.8" y="285.327">-String website</text><text fill="#000000" font-family="sans-serif" font-size="6.6" lengthAdjust="spacingAndGlyphs" textLength="50.4" x="241.8" y="293.1">-String telefone</text><text fill="#000000" font-family="sans-serif" font-size="6.6" lengthAdjust="spacingAndGlyphs" textLength="41.4" x="241.8" y="300.873">-String email</text><line style="stroke: #A80036; stroke-width: 0.8999999999999999;" x1="238.8" x2="432.6" y1="304.6652" y2="304.6652"/><text fill="#000000" font-family="sans-serif" font-size="6.6" lengthAdjust="spacingAndGlyphs" textLength="187.8" x="241.8" y="313.4461">+Colaborador novoColaborador(nome, funcao, telf, email)</text><text fill="#000000" font-family="sans-serif" font-size="6.6" lengthAdjust="spacingAndGlyphs" textLength="90.6" x="241.8" y="321.2191">+registaColaborador(colab)</text><text fill="#000000" font-family="sans-serif" font-size="6.6" lengthAdjust="spacingAndGlyphs" textLength="87" x="241.8" y="328.9922">+validaColaborador(colab)</text><text fill="#000000" font-family="sans-serif" font-size="6.6" lengthAdjust="spacingAndGlyphs" textLength="78.6" x="241.8" y="336.7652">-addColaborador(colab)</text><text fill="#000000" font-family="sans-serif" font-size="6.6" lengthAdjust="spacingAndGlyphs" textLength="35.4" x="241.8" y="344.5383">-geraPwd()</text><!--MD5=[ecaed46f78f8cfe1e9ce18477649be18]
class Plataforma--><rect fill="#FEFECE" filter="url(#fn53v4yyw1a4m)" height="44.3461" id="Plataforma" style="stroke: #A80036; stroke-width: 0.8999999999999999;" width="153" x="280.8" y="151.2"/><ellipse cx="336.15" cy="160.8" fill="#ADD1B2" rx="6.6" ry="6.6" style="stroke: #A80036; stroke-width: 0.6;"/><path d="M337.6339,164.4858 Q337.2853,164.6651 336.9018,164.7548 Q336.5183,164.8444 336.0949,164.8444 Q334.5908,164.8444 333.7989,163.8533 Q333.007,162.8622 333.007,160.9896 Q333.007,159.1119 333.7989,158.1208 Q334.5908,157.1297 336.0949,157.1297 Q336.5183,157.1297 336.9067,157.2193 Q337.2952,157.309 337.6339,157.4883 L337.6339,159.1219 Q337.2554,158.7732 336.8993,158.6114 Q336.5432,158.4495 336.1646,158.4495 Q335.3578,158.4495 334.9469,159.0895 Q334.536,159.7295 334.536,160.9896 Q334.536,162.2446 334.9469,162.8846 Q335.3578,163.5246 336.1646,163.5246 Q336.5432,163.5246 336.8993,163.3627 Q337.2554,163.2009 337.6339,162.8522 Z "/><text fill="#000000" font-family="sans-serif" font-size="7.2" lengthAdjust="spacingAndGlyphs" textLength="37.2" x="348.45" y="163.5211">Plataforma</text><line style="stroke: #A80036; stroke-width: 0.8999999999999999;" x1="281.4" x2="433.2" y1="170.4" y2="170.4"/><text fill="#000000" font-family="sans-serif" font-size="6.6" lengthAdjust="spacingAndGlyphs" textLength="61.2" x="284.4" y="179.1809">-String designacao</text><line style="stroke: #A80036; stroke-width: 0.8999999999999999;" x1="281.4" x2="433.2" y1="182.973" y2="182.973"/><text fill="#000000" font-family="sans-serif" font-size="6.6" lengthAdjust="spacingAndGlyphs" textLength="145.8" x="284.4" y="191.7539">+getOrganizacaoByEmailUtilizador(emailUtlz)</text><!--MD5=[ad1e0dfb7967d80be5dad4c9388df9ec]
class EspecificarColaboradorController--><rect fill="#FEFECE" filter="url(#fn53v4yyw1a4m)" height="44.3461" id="EspecificarColaboradorController" style="stroke: #A80036; stroke-width: 0.8999999999999999;" width="152.4" x="129.9" y="70.2"/><ellipse cx="147.54" cy="79.8" fill="#ADD1B2" rx="6.6" ry="6.6" style="stroke: #A80036; stroke-width: 0.6;"/><path d="M149.0239,83.4858 Q148.6753,83.6651 148.2918,83.7548 Q147.9083,83.8444 147.4849,83.8444 Q145.9808,83.8444 145.1889,82.8533 Q144.397,81.8622 144.397,79.9896 Q144.397,78.1119 145.1889,77.1208 Q145.9808,76.1297 147.4849,76.1297 Q147.9083,76.1297 148.2967,76.2193 Q148.6852,76.309 149.0239,76.4883 L149.0239,78.1219 Q148.6454,77.7732 148.2893,77.6114 Q147.9332,77.4495 147.5546,77.4495 Q146.7478,77.4495 146.3369,78.0895 Q145.926,78.7295 145.926,79.9896 Q145.926,81.2446 146.3369,81.8846 Q146.7478,82.5246 147.5546,82.5246 Q147.9332,82.5246 148.2893,82.3627 Q148.6454,82.2009 149.0239,81.8522 Z "/><text fill="#000000" font-family="sans-serif" font-size="7.2" lengthAdjust="spacingAndGlyphs" textLength="114" x="157.86" y="82.5211">EspecificarColaboradorController</text><line style="stroke: #A80036; stroke-width: 0.8999999999999999;" x1="130.5" x2="281.7" y1="89.4" y2="89.4"/><line style="stroke: #A80036; stroke-width: 0.8999999999999999;" x1="130.5" x2="281.7" y1="94.2" y2="94.2"/><text fill="#000000" font-family="sans-serif" font-size="6.6" lengthAdjust="spacingAndGlyphs" textLength="145.2" x="133.5" y="102.9809">+novoColaborador(nome, funcao, telf, email)</text><text fill="#000000" font-family="sans-serif" font-size="6.6" lengthAdjust="spacingAndGlyphs" textLength="73.2" x="133.5" y="110.7539">+registaColaborador()</text><!--MD5=[fdd143688dd4c22e6f2ee475119423ce]
class EspecificarColaboradorUI--><rect fill="#FEFECE" filter="url(#fn53v4yyw1a4m)" height="28.8" id="EspecificarColaboradorUI" style="stroke: #A80036; stroke-width: 0.8999999999999999;" width="106.2" x="153" y="4.8"/><ellipse cx="162" cy="14.4" fill="#ADD1B2" rx="6.6" ry="6.6" style="stroke: #A80036; stroke-width: 0.6;"/><path d="M163.4839,18.0858 Q163.1353,18.2651 162.7518,18.3548 Q162.3683,18.4444 161.9449,18.4444 Q160.4408,18.4444 159.6489,17.4533 Q158.857,16.4622 158.857,14.5896 Q158.857,12.7119 159.6489,11.7208 Q160.4408,10.7297 161.9449,10.7297 Q162.3683,10.7297 162.7567,10.8193 Q163.1452,10.909 163.4839,11.0883 L163.4839,12.7219 Q163.1054,12.3732 162.7493,12.2114 Q162.3932,12.0495 162.0146,12.0495 Q161.2078,12.0495 160.7969,12.6895 Q160.386,13.3295 160.386,14.5896 Q160.386,15.8446 160.7969,16.4846 Q161.2078,17.1246 162.0146,17.1246 Q162.3932,17.1246 162.7493,16.9627 Q163.1054,16.8009 163.4839,16.4522 Z "/><text fill="#000000" font-family="sans-serif" font-size="7.2" lengthAdjust="spacingAndGlyphs" textLength="87" x="170.4" y="17.1211">EspecificarColaboradorUI</text><line style="stroke: #A80036; stroke-width: 0.8999999999999999;" x1="153.6" x2="258.6" y1="24" y2="24"/><line style="stroke: #A80036; stroke-width: 0.8999999999999999;" x1="153.6" x2="258.6" y1="28.8" y2="28.8"/><!--MD5=[ed5c6b4e01c9b1c9efc043b411d08420]
class AutorizacaoFacade--><rect fill="#FEFECE" filter="url(#fn53v4yyw1a4m)" height="36.573" id="AutorizacaoFacade" style="stroke: #A80036; stroke-width: 0.8999999999999999;" width="178.8" x="327.3" y="418.2"/><ellipse cx="381.45" cy="427.8" fill="#ADD1B2" rx="6.6" ry="6.6" style="stroke: #A80036; stroke-width: 0.6;"/><path d="M382.9339,431.4858 Q382.5853,431.6651 382.2018,431.7548 Q381.8183,431.8444 381.3949,431.8444 Q379.8908,431.8444 379.0989,430.8533 Q378.307,429.8622 378.307,427.9896 Q378.307,426.1119 379.0989,425.1208 Q379.8908,424.1297 381.3949,424.1297 Q381.8183,424.1297 382.2067,424.2193 Q382.5952,424.309 382.9339,424.4883 L382.9339,426.1219 Q382.5554,425.7732 382.1993,425.6114 Q381.8432,425.4495 381.4646,425.4495 Q380.6578,425.4495 380.2469,426.0895 Q379.836,426.7295 379.836,427.9896 Q379.836,429.2446 380.2469,429.8846 Q380.6578,430.5246 381.4646,430.5246 Q381.8432,430.5246 382.1993,430.3627 Q382.5554,430.2009 382.9339,429.8522 Z "/><text fill="#000000" font-family="sans-serif" font-size="7.2" lengthAdjust="spacingAndGlyphs" textLength="65.4" x="393.75" y="430.5211">AutorizacaoFacade</text><line style="stroke: #A80036; stroke-width: 0.8999999999999999;" x1="327.9" x2="505.5" y1="437.4" y2="437.4"/><line style="stroke: #A80036; stroke-width: 0.8999999999999999;" x1="327.9" x2="505.5" y1="442.2" y2="442.2"/><text fill="#000000" font-family="sans-serif" font-size="6.6" lengthAdjust="spacingAndGlyphs" textLength="171.6" x="330.9" y="450.9809">+registaUtilizadorComPapel(nome, email, pwd, papel)</text><!--MD5=[efc07359af4002ede352d360e3e5f791]
link EspecificarColaboradorUI to EspecificarColaboradorController--><path d="M206.1,33.684 C206.1,43.098 206.1,55.8 206.1,66.93 " fill="none" id="EspecificarColaboradorUI-&gt;EspecificarColaboradorController" style="stroke: #A80036; stroke-width: 0.6; stroke-dasharray: 7.0,7.0;"/><polygon fill="#A80036" points="206.1,70.026,208.5,64.626,206.1,67.026,203.7,64.626,206.1,70.026" style="stroke: #A80036; stroke-width: 0.6;"/><!--MD5=[e749425d82a7a68558984fefba013df9]
link EspecificarColaboradorController to Plataforma--><path d="M247.218,114.702 C267.72,125.52 292.53,138.618 313.404,149.634 " fill="none" id="EspecificarColaboradorController-&gt;Plataforma" style="stroke: #A80036; stroke-width: 0.6; stroke-dasharray: 7.0,7.0;"/><polygon fill="#A80036" points="316.194,151.104,312.5376,146.4618,313.5406,149.7043,310.298,150.7073,316.194,151.104" style="stroke: #A80036; stroke-width: 0.6;"/><!--MD5=[3ea4a54878a3bfc205bf7413d5ce6eb6]
link EspecificarColaboradorController to Organizacao--><path d="M219.474,114.714 C232.356,135.552 252.456,167.85 270.3,195.6 C279.372,209.712 289.29,224.862 298.596,238.962 " fill="none" id="EspecificarColaboradorController-&gt;Organizacao" style="stroke: #A80036; stroke-width: 0.6; stroke-dasharray: 7.0,7.0;"/><polygon fill="#A80036" points="300.33,241.578,299.3546,235.7497,298.6758,239.0753,295.3503,238.3965,300.33,241.578" style="stroke: #A80036; stroke-width: 0.6;"/><!--MD5=[ea1c4a716374c6a44de667b4314b01f1]
link EspecificarColaboradorController to Colaborador--><path d="M207.702,114.732 C211.002,158.856 218.994,262.086 227.7,348.6 C229.104,362.574 230.82,377.784 232.44,391.536 " fill="none" id="EspecificarColaboradorController-&gt;Colaborador" style="stroke: #A80036; stroke-width: 0.6; stroke-dasharray: 7.0,7.0;"/><polygon fill="#A80036" points="232.806,394.632,234.5577,388.9883,232.455,391.6526,229.7906,389.5499,232.806,394.632" style="stroke: #A80036; stroke-width: 0.6;"/><!--MD5=[02d41b23cb35f939ef8b963b265ce2f7]
link EspecificarColaboradorController to AplicacaoPOT--><path d="M161.07,114.702 C135.852,126.852 104.682,141.87 80.358,153.594 " fill="none" id="EspecificarColaboradorController-&gt;AplicacaoPOT" style="stroke: #A80036; stroke-width: 0.6; stroke-dasharray: 7.0,7.0;"/><polygon fill="#A80036" points="77.424,155.004,83.3304,154.8187,80.1259,153.7002,81.2444,150.4957,77.424,155.004" style="stroke: #A80036; stroke-width: 0.6;"/><!--MD5=[c8a52fc0a4d9920b9d40f732a5d371b3]
link EspecificarColaboradorController to SessaoUtilizador--><path d="M187.08,114.804 C176.742,126.66 164.046,141.216 153.96,152.784 " fill="none" id="EspecificarColaboradorController-&gt;SessaoUtilizador" style="stroke: #A80036; stroke-width: 0.6; stroke-dasharray: 7.0,7.0;"/><polygon fill="#A80036" points="151.98,155.052,157.3414,152.5671,153.9549,152.7937,153.7282,149.4072,151.98,155.052" style="stroke: #A80036; stroke-width: 0.6;"/><!--MD5=[1c2ad462e362697fcdc859a6327d55c7]
link Plataforma to Organizacao--><path d="M353.388,195.84 C351.234,207.864 348.45,223.398 345.738,238.566 " fill="none" id="Plataforma-&gt;Organizacao" style="stroke: #A80036; stroke-width: 0.6;"/><polygon fill="#A80036" points="345.192,241.596,348.4955,236.6963,345.7143,238.6418,343.7689,235.8606,345.192,241.596" style="stroke: #A80036; stroke-width: 0.6;"/><text fill="#000000" font-family="sans-serif" font-size="7.8" lengthAdjust="spacingAndGlyphs" textLength="25.2" x="350.1" y="221.741">possui</text><text fill="#000000" font-family="sans-serif" font-size="7.8" lengthAdjust="spacingAndGlyphs" textLength="4.8" x="347.5426" y="207.8628">1</text><text fill="#000000" font-family="sans-serif" font-size="7.8" lengthAdjust="spacingAndGlyphs" textLength="3.6" x="342.229" y="235.3442">*</text><!--MD5=[567db691f9836c63f305bad1024cbc66]
link Organizacao to Colaborador--><path d="M266.598,348.816 C261.702,354.432 257.232,360.384 253.5,366.6 C248.94,374.202 245.706,382.992 243.42,391.716 " fill="none" id="Organizacao-&gt;Colaborador" style="stroke: #A80036; stroke-width: 0.6;"/><polygon fill="#A80036" points="242.682,394.668,246.3233,390.0138,243.4116,391.7581,241.6674,388.8464,242.682,394.668" style="stroke: #A80036; stroke-width: 0.6;"/><text fill="#000000" font-family="sans-serif" font-size="7.8" lengthAdjust="spacingAndGlyphs" textLength="40.8" x="254.1" y="374.741">tem gestor</text><text fill="#000000" font-family="sans-serif" font-size="7.8" lengthAdjust="spacingAndGlyphs" textLength="4.8" x="256.5471" y="360.6416">1</text><text fill="#000000" font-family="sans-serif" font-size="7.8" lengthAdjust="spacingAndGlyphs" textLength="4.8" x="238.1276" y="388.4504">1</text><!--MD5=[567db691f9836c63f305bad1024cbc66]
link Organizacao to Colaborador--><path d="M314.334,348.744 C309.504,358.422 303.984,368.178 297.9,376.8 C294.168,382.086 289.932,387.312 285.48,392.34 " fill="none" id="Organizacao-&gt;Colaborador-1" style="stroke: #A80036; stroke-width: 0.6;"/><polygon fill="#A80036" points="283.278,394.788,288.6743,392.3797,285.2849,392.5581,285.1065,389.1687,283.278,394.788" style="stroke: #A80036; stroke-width: 0.6;"/><text fill="#000000" font-family="sans-serif" font-size="7.8" lengthAdjust="spacingAndGlyphs" textLength="14.4" x="305.1" y="374.741">tem</text><text fill="#000000" font-family="sans-serif" font-size="7.8" lengthAdjust="spacingAndGlyphs" textLength="4.8" x="307.7144" y="360.7465">1</text><text fill="#000000" font-family="sans-serif" font-size="7.8" lengthAdjust="spacingAndGlyphs" textLength="13.2" x="274.3193" y="388.2951">1..*</text><!--MD5=[c36a6d25de7793c8fa73f7a418a2c527]
link Organizacao to AutorizacaoFacade--><path d="M366.324,348.768 C379.758,372.006 394.746,397.926 404.85,415.404 " fill="none" id="Organizacao-&gt;AutorizacaoFacade" style="stroke: #A80036; stroke-width: 0.6; stroke-dasharray: 7.0,7.0;"/><polygon fill="#A80036" points="406.428,418.134,405.8055,412.2576,404.9276,415.5362,401.649,414.6582,406.428,418.134" style="stroke: #A80036; stroke-width: 0.6;"/><!--MD5=[b708f0c6858112f5cc54cb3941f3d60d]
@startuml
skinparam classAttributeIconSize 0

class AplicacaoPOT
{
  +static getInstance()
  +getSessaoAtual()
}

class SessaoUtilizador
{
  +getEmailUtilizador()

}

class Colaborador {
  -String nome
  -String funcao
  -String telefone
  -String email
  +Colaborador(nome, funcao, telf, email)
  +getEmail()
  +getNome()
}

class Organizacao {
  -String nome
  -String NIF
  -String website
  -String telefone
  -String email
  +Colaborador novoColaborador(nome, funcao, telf, email)
  +registaColaborador(colab)
  +validaColaborador(colab)
  -addColaborador(colab)
  -geraPwd()
}

class Plataforma {
  -String designacao
  +getOrganizacaoByEmailUtilizador(emailUtlz)
}

class EspecificarColaboradorController {
  +novoColaborador(nome, funcao, telf, email)
  +registaColaborador()
}

class EspecificarColaboradorUI {

}

class AutorizacaoFacade {
  +registaUtilizadorComPapel(nome, email, pwd, papel)
}

EspecificarColaboradorUI ..> EspecificarColaboradorController
EspecificarColaboradorController ..> Plataforma
EspecificarColaboradorController ..> Organizacao
EspecificarColaboradorController ..> Colaborador
EspecificarColaboradorController ..> AplicacaoPOT
EspecificarColaboradorController ..> SessaoUtilizador
Plataforma "1" - -> "*" Organizacao : possui
Organizacao "1" - -> "1" Colaborador : tem gestor
Organizacao "1" - -> "1..*" Colaborador : tem
Organizacao ..> AutorizacaoFacade

@enduml

PlantUML version 1.2020.03beta6(Unknown compile time)
(GPL source distribution)
Java Runtime: OpenJDK Runtime Environment
JVM: OpenJDK 64-Bit Server VM
Java Version: 11.0.5+10-b520.38
Operating System: Mac OS X
Default Encoding: UTF-8
Language: en
Country: PT
--></g></svg>