<?xml version="1.0" encoding="UTF-8" standalone="no"?><svg xmlns="http://www.w3.org/2000/svg" xmlns:xlink="http://www.w3.org/1999/xlink" contentScriptType="application/ecmascript" contentStyleType="text/css" height="128px" preserveAspectRatio="none" style="width:853px;height:128px;" version="1.1" viewBox="0 0 853 128" width="853px" zoomAndPan="magnify">
    <defs>
        <filter height="300%" id="f1qqb6vx1vuu4e" width="300%" x="-1" y="-1">
            <feGaussianBlur result="blurOut" stdDeviation="2.0" />
            <feColorMatrix in="blurOut" result="blurOut2" type="matrix" values="0 0 0 0 0 0 0 0 0 0 0 0 0 0 0 0 0 0 .4 0" />
            <feOffset dx="4.0" dy="4.0" in="blurOut2" result="blurOut3" />
            <feBlend in="SourceGraphic" in2="blurOut3" mode="normal" />
        </filter>
    </defs>
    <g>
        <!--MD5=[ecaed46f78f8cfe1e9ce18477649be18]
class Plataforma-->
        <rect fill="#FEFECE" filter="url(#f1qqb6vx1vuu4e)" height="53.8359" id="Plataforma" style="stroke: #A80036; stroke-width: 1.5;" width="103" x="6" y="35.5" />
        <ellipse cx="25.95" cy="51.5" fill="#ADD1B2" rx="11" ry="11" style="stroke: #A80036; stroke-width: 1.0;" />
        <path d="M28.7156,47.375 Q28.8719,47.1563 29.0594,47.0469 Q29.2469,46.9375 29.4656,46.9375 Q29.8406,46.9375 30.075,47.2031 Q30.3094,47.4531 30.3094,48.0625 L30.3094,49.5156 Q30.3094,50.125 30.075,50.3906 Q29.8406,50.6563 29.4656,50.6563 Q29.1219,50.6563 28.9188,50.4531 Q28.7156,50.2656 28.6063,49.75 Q28.5594,49.3906 28.3719,49.2031 Q28.0438,48.8281 27.4344,48.6094 Q26.825,48.3906 26.2,48.3906 Q25.4344,48.3906 24.7938,48.7188 Q24.1688,49.0469 23.6688,49.7969 Q23.1844,50.5469 23.1844,51.5781 L23.1844,52.6719 Q23.1844,53.9063 24.075,54.7344 Q24.9656,55.5469 26.5594,55.5469 Q27.4969,55.5469 28.1531,55.2969 Q28.5438,55.1406 28.9656,54.7031 Q29.2313,54.4375 29.3719,54.3594 Q29.5281,54.2813 29.7313,54.2813 Q30.0594,54.2813 30.3094,54.5469 Q30.575,54.7969 30.575,55.1406 Q30.575,55.4844 30.2313,55.8906 Q29.7313,56.4688 28.9344,56.7969 Q27.8563,57.25 26.5594,57.25 Q25.0438,57.25 23.8406,56.625 Q22.8563,56.125 22.1688,55.0625 Q21.4813,53.9844 21.4813,52.7031 L21.4813,51.5469 Q21.4813,50.2188 22.0906,49.0781 Q22.7156,47.9219 23.8094,47.3125 Q24.9031,46.6875 26.1375,46.6875 Q26.8719,46.6875 27.5125,46.8594 Q28.1688,47.0156 28.7156,47.375 Z " /><text fill="#000000" font-family="sans-serif" font-size="12" lengthAdjust="spacingAndGlyphs" textLength="60" x="41.05" y="56.4102">Plataforma</text>
        <line style="stroke: #A80036; stroke-width: 1.5;" x1="7" x2="108" y1="67.5" y2="67.5" /><text fill="#000000" font-family="sans-serif" font-size="11" lengthAdjust="spacingAndGlyphs" textLength="91" x="12" y="82.9189">-String designacao</text>
        <!--MD5=[807977ceb130c090ed5febfb6de2bdea]
class Organizacao-->
        <rect fill="#FEFECE" filter="url(#f1qqb6vx1vuu4e)" height="109.1797" id="Organizacao" style="stroke: #A80036; stroke-width: 1.5;" width="101" x="270" y="8" />
        <ellipse cx="285" cy="24" fill="#ADD1B2" rx="11" ry="11" style="stroke: #A80036; stroke-width: 1.0;" />
        <path d="M287.7656,19.875 Q287.9219,19.6563 288.1094,19.5469 Q288.2969,19.4375 288.5156,19.4375 Q288.8906,19.4375 289.125,19.7031 Q289.3594,19.9531 289.3594,20.5625 L289.3594,22.0156 Q289.3594,22.625 289.125,22.8906 Q288.8906,23.1563 288.5156,23.1563 Q288.1719,23.1563 287.9688,22.9531 Q287.7656,22.7656 287.6563,22.25 Q287.6094,21.8906 287.4219,21.7031 Q287.0938,21.3281 286.4844,21.1094 Q285.875,20.8906 285.25,20.8906 Q284.4844,20.8906 283.8438,21.2188 Q283.2188,21.5469 282.7188,22.2969 Q282.2344,23.0469 282.2344,24.0781 L282.2344,25.1719 Q282.2344,26.4063 283.125,27.2344 Q284.0156,28.0469 285.6094,28.0469 Q286.5469,28.0469 287.2031,27.7969 Q287.5938,27.6406 288.0156,27.2031 Q288.2813,26.9375 288.4219,26.8594 Q288.5781,26.7813 288.7813,26.7813 Q289.1094,26.7813 289.3594,27.0469 Q289.625,27.2969 289.625,27.6406 Q289.625,27.9844 289.2813,28.3906 Q288.7813,28.9688 287.9844,29.2969 Q286.9063,29.75 285.6094,29.75 Q284.0938,29.75 282.8906,29.125 Q281.9063,28.625 281.2188,27.5625 Q280.5313,26.4844 280.5313,25.2031 L280.5313,24.0469 Q280.5313,22.7188 281.1406,21.5781 Q281.7656,20.4219 282.8594,19.8125 Q283.9531,19.1875 285.1875,19.1875 Q285.9219,19.1875 286.5625,19.3594 Q287.2188,19.5156 287.7656,19.875 Z " /><text fill="#000000" font-family="sans-serif" font-size="12" lengthAdjust="spacingAndGlyphs" textLength="69" x="299" y="28.9102">Organizacao</text>
        <line style="stroke: #A80036; stroke-width: 1.5;" x1="271" x2="370" y1="40" y2="40" /><text fill="#000000" font-family="sans-serif" font-size="11" lengthAdjust="spacingAndGlyphs" textLength="61" x="276" y="55.4189">-String nome</text><text fill="#000000" font-family="sans-serif" font-size="11" lengthAdjust="spacingAndGlyphs" textLength="50" x="276" y="69.2549">-String NIF</text><text fill="#000000" font-family="sans-serif" font-size="11" lengthAdjust="spacingAndGlyphs" textLength="74" x="276" y="83.0908">-String website</text><text fill="#000000" font-family="sans-serif" font-size="11" lengthAdjust="spacingAndGlyphs" textLength="74" x="276" y="96.9268">-String telefone</text><text fill="#000000" font-family="sans-serif" font-size="11" lengthAdjust="spacingAndGlyphs" textLength="59" x="276" y="110.7627">-String email</text>
        <!--MD5=[ac8682ea5466d223e49472789fb200d2]
class Colaborador-->
        <rect fill="#FEFECE" filter="url(#f1qqb6vx1vuu4e)" height="95.3438" id="Colaborador" style="stroke: #A80036; stroke-width: 1.5;" width="101" x="508" y="15" />
        <ellipse cx="523" cy="31" fill="#ADD1B2" rx="11" ry="11" style="stroke: #A80036; stroke-width: 1.0;" />
        <path d="M525.7656,26.875 Q525.9219,26.6563 526.1094,26.5469 Q526.2969,26.4375 526.5156,26.4375 Q526.8906,26.4375 527.125,26.7031 Q527.3594,26.9531 527.3594,27.5625 L527.3594,29.0156 Q527.3594,29.625 527.125,29.8906 Q526.8906,30.1563 526.5156,30.1563 Q526.1719,30.1563 525.9688,29.9531 Q525.7656,29.7656 525.6563,29.25 Q525.6094,28.8906 525.4219,28.7031 Q525.0938,28.3281 524.4844,28.1094 Q523.875,27.8906 523.25,27.8906 Q522.4844,27.8906 521.8438,28.2188 Q521.2188,28.5469 520.7188,29.2969 Q520.2344,30.0469 520.2344,31.0781 L520.2344,32.1719 Q520.2344,33.4063 521.125,34.2344 Q522.0156,35.0469 523.6094,35.0469 Q524.5469,35.0469 525.2031,34.7969 Q525.5938,34.6406 526.0156,34.2031 Q526.2813,33.9375 526.4219,33.8594 Q526.5781,33.7813 526.7813,33.7813 Q527.1094,33.7813 527.3594,34.0469 Q527.625,34.2969 527.625,34.6406 Q527.625,34.9844 527.2813,35.3906 Q526.7813,35.9688 525.9844,36.2969 Q524.9063,36.75 523.6094,36.75 Q522.0938,36.75 520.8906,36.125 Q519.9063,35.625 519.2188,34.5625 Q518.5313,33.4844 518.5313,32.2031 L518.5313,31.0469 Q518.5313,29.7188 519.1406,28.5781 Q519.7656,27.4219 520.8594,26.8125 Q521.9531,26.1875 523.1875,26.1875 Q523.9219,26.1875 524.5625,26.3594 Q525.2188,26.5156 525.7656,26.875 Z " /><text fill="#000000" font-family="sans-serif" font-size="12" lengthAdjust="spacingAndGlyphs" textLength="69" x="537" y="35.9102">Colaborador</text>
        <line style="stroke: #A80036; stroke-width: 1.5;" x1="509" x2="608" y1="47" y2="47" /><text fill="#000000" font-family="sans-serif" font-size="11" lengthAdjust="spacingAndGlyphs" textLength="61" x="514" y="62.4189">-String nome</text><text fill="#000000" font-family="sans-serif" font-size="11" lengthAdjust="spacingAndGlyphs" textLength="69" x="514" y="76.2549">-String funcao</text><text fill="#000000" font-family="sans-serif" font-size="11" lengthAdjust="spacingAndGlyphs" textLength="74" x="514" y="90.0908">-String telefone</text><text fill="#000000" font-family="sans-serif" font-size="11" lengthAdjust="spacingAndGlyphs" textLength="59" x="514" y="103.9268">-String email</text>
        <!--MD5=[5dd1d6732c071e710b9290b531f2fa3b]
class Utilizador-->
        <rect fill="#FEFECE" filter="url(#f1qqb6vx1vuu4e)" height="81.5078" id="Utilizador" style="stroke: #A80036; stroke-width: 1.5;" width="97" x="745" y="21.5" />
        <ellipse cx="766.3" cy="37.5" fill="#ADD1B2" rx="11" ry="11" style="stroke: #A80036; stroke-width: 1.0;" />
        <path d="M769.0656,33.375 Q769.2219,33.1563 769.4094,33.0469 Q769.5969,32.9375 769.8156,32.9375 Q770.1906,32.9375 770.425,33.2031 Q770.6594,33.4531 770.6594,34.0625 L770.6594,35.5156 Q770.6594,36.125 770.425,36.3906 Q770.1906,36.6563 769.8156,36.6563 Q769.4719,36.6563 769.2688,36.4531 Q769.0656,36.2656 768.9563,35.75 Q768.9094,35.3906 768.7219,35.2031 Q768.3938,34.8281 767.7844,34.6094 Q767.175,34.3906 766.55,34.3906 Q765.7844,34.3906 765.1438,34.7188 Q764.5188,35.0469 764.0188,35.7969 Q763.5344,36.5469 763.5344,37.5781 L763.5344,38.6719 Q763.5344,39.9063 764.425,40.7344 Q765.3156,41.5469 766.9094,41.5469 Q767.8469,41.5469 768.5031,41.2969 Q768.8938,41.1406 769.3156,40.7031 Q769.5813,40.4375 769.7219,40.3594 Q769.8781,40.2813 770.0813,40.2813 Q770.4094,40.2813 770.6594,40.5469 Q770.925,40.7969 770.925,41.1406 Q770.925,41.4844 770.5813,41.8906 Q770.0813,42.4688 769.2844,42.7969 Q768.2063,43.25 766.9094,43.25 Q765.3938,43.25 764.1906,42.625 Q763.2063,42.125 762.5188,41.0625 Q761.8313,39.9844 761.8313,38.7031 L761.8313,37.5469 Q761.8313,36.2188 762.4406,35.0781 Q763.0656,33.9219 764.1594,33.3125 Q765.2531,32.6875 766.4875,32.6875 Q767.2219,32.6875 767.8625,32.8594 Q768.5188,33.0156 769.0656,33.375 Z " /><text fill="#000000" font-family="sans-serif" font-size="12" lengthAdjust="spacingAndGlyphs" textLength="51" x="781.7" y="42.4102">Utilizador</text>
        <line style="stroke: #A80036; stroke-width: 1.5;" x1="746" x2="841" y1="53.5" y2="53.5" /><text fill="#000000" font-family="sans-serif" font-size="11" lengthAdjust="spacingAndGlyphs" textLength="61" x="751" y="68.9189">-String nome</text><text fill="#000000" font-family="sans-serif" font-size="11" lengthAdjust="spacingAndGlyphs" textLength="59" x="751" y="82.7549">-String email</text><text fill="#000000" font-family="sans-serif" font-size="11" lengthAdjust="spacingAndGlyphs" textLength="85" x="751" y="96.5908">-String password</text>
        <!--MD5=[1c2ad462e362697fcdc859a6327d55c7]
link Plataforma to Organizacao-->
        <path d="M109.133,62.5 C155.533,62.5 223.82,62.5 269.894,62.5 " fill="none" id="Plataforma-Organizacao" style="stroke: #A80036; stroke-width: 1.0;" /><text fill="#000000" font-family="sans-serif" font-size="13" lengthAdjust="spacingAndGlyphs" textLength="86" x="140" y="58.9951">tem registadas</text>
        <polygon fill="#000000" points="229,52.1758,235,55.1758,229,58.1758,229,52.1758" style="stroke: #000000; stroke-width: 1.0;" /><text fill="#000000" font-family="sans-serif" font-size="13" lengthAdjust="spacingAndGlyphs" textLength="7" x="116.8861" y="77.1564">1</text><text fill="#000000" font-family="sans-serif" font-size="13" lengthAdjust="spacingAndGlyphs" textLength="5" x="257.0941" y="77.1827">*</text>
        <!--MD5=[567db691f9836c63f305bad1024cbc66]
link Organizacao to Colaborador-->
        <path d="M371.261,62.5 C411.426,62.5 467.661,62.5 507.807,62.5 " fill="none" id="Organizacao-Colaborador" style="stroke: #A80036; stroke-width: 1.0;" /><text fill="#000000" font-family="sans-serif" font-size="13" lengthAdjust="spacingAndGlyphs" textLength="22" x="422" y="58.9951">tem</text>
        <polygon fill="#000000" points="447,52.1758,453,55.1758,447,58.1758,447,52.1758" style="stroke: #000000; stroke-width: 1.0;" /><text fill="#000000" font-family="sans-serif" font-size="13" lengthAdjust="spacingAndGlyphs" textLength="7" x="378.8915" y="77.1322">1</text><text fill="#000000" font-family="sans-serif" font-size="13" lengthAdjust="spacingAndGlyphs" textLength="20" x="480.0307" y="77.0206">1..*</text>
        <!--MD5=[567db691f9836c63f305bad1024cbc66]
link Organizacao to Colaborador-->
        <path d="M371.375,81.4568 C381.068,84.383 391.248,86.9459 401,88.5 C434.796,93.886 444.204,93.886 478,88.5 C487.752,86.9459 497.932,84.383 507.625,81.4568 " fill="none" id="Organizacao-Colaborador-1" style="stroke: #A80036; stroke-width: 1.0;" /><text fill="#000000" font-family="sans-serif" font-size="13" lengthAdjust="spacingAndGlyphs" textLength="62" x="402" y="84.9951">tem gestor</text>
        <polygon fill="#000000" points="467,78.1758,473,81.1758,467,84.1758,467,78.1758" style="stroke: #000000; stroke-width: 1.0;" /><text fill="#000000" font-family="sans-serif" font-size="13" lengthAdjust="spacingAndGlyphs" textLength="7" x="379.0215" y="98.7548">1</text><text fill="#000000" font-family="sans-serif" font-size="13" lengthAdjust="spacingAndGlyphs" textLength="7" x="492.9785" y="98.7433">1</text>
        <!--MD5=[bcb5794e8184ce78d304f04a5beabbc0]
link Colaborador to Utilizador-->
        <path d="M609.199,62.5 C649.294,62.5 705.334,62.5 744.868,62.5 " fill="none" id="Colaborador-Utilizador" style="stroke: #A80036; stroke-width: 1.0;" /><text fill="#000000" font-family="sans-serif" font-size="13" lengthAdjust="spacingAndGlyphs" textLength="61" x="640" y="58.9951">atua como</text>
        <polygon fill="#000000" points="704,52.1758,710,55.1758,704,58.1758,704,52.1758" style="stroke: #000000; stroke-width: 1.0;" /><text fill="#000000" font-family="sans-serif" font-size="13" lengthAdjust="spacingAndGlyphs" textLength="22" x="617.1042" y="77.0206">0..1</text><text fill="#000000" font-family="sans-serif" font-size="13" lengthAdjust="spacingAndGlyphs" textLength="7" x="729.8853" y="77.2847">1</text>
        <!--MD5=[fa61616b02714491f85e644bdf4b0a14]
@startuml
skinparam classAttributeIconSize 0

hide methods
left to right direction

class Plataforma {
  -String designacao
}

class Organizacao {
  -String nome
  -String NIF
  -String website
  -String telefone
  -String email
}

class Colaborador {
  -String nome
  -String funcao
  -String telefone
  -String email
}

class Utilizador {
  -String nome
  -String email
  -String password
}

Plataforma "1" - - "*" Organizacao : tem registadas >
Organizacao "1" - - "1..*" Colaborador: tem >
Organizacao "1" - - "1" Colaborador: tem gestor >
Colaborador "0..1" - - "1" Utilizador : atua como >
@enduml

PlantUML version 1.2020.01(Sun Feb 16 17:40:32 WET 2020)
(GPL source distribution)
Java Runtime: Java(TM) SE Runtime Environment
JVM: Java HotSpot(TM) 64-Bit Server VM
Java Version: 13.0.2+8
Operating System: Windows 10
Default Encoding: Cp1252
Language: pt
Country: PT
-->
    </g>
</svg>