<?xml version="1.0" encoding="UTF-8" standalone="no"?><svg xmlns="http://www.w3.org/2000/svg" xmlns:xlink="http://www.w3.org/1999/xlink" contentScriptType="application/ecmascript" contentStyleType="text/css" height="231px" preserveAspectRatio="none" style="width:831px;height:231px;" version="1.1" viewBox="0 0 831 231" width="831.6px" zoomAndPan="magnify"><defs><filter height="300%" id="fh86hhsue8f6l" width="300%" x="-1" y="-1"><feGaussianBlur result="blurOut" stdDeviation="1.2"/><feColorMatrix in="blurOut" result="blurOut2" type="matrix" values="0 0 0 0 0 0 0 0 0 0 0 0 0 0 0 0 0 0 .4 0"/><feOffset dx="2.4" dy="2.4" in="blurOut2" result="blurOut3"/><feBlend in="SourceGraphic" in2="blurOut3" mode="normal"/></filter></defs><g><!--MD5=[ecaed46f78f8cfe1e9ce18477649be18]
class Plataforma--><rect fill="#FEFECE" filter="url(#fh86hhsue8f6l)" height="31.773" id="Plataforma" style="stroke: #A80036; stroke-width: 0.8999999999999999;" width="68.4" x="3.6" y="52.2"/><ellipse cx="18" cy="61.8" fill="#ADD1B2" rx="6.6" ry="6.6" style="stroke: #A80036; stroke-width: 0.6;"/><path d="M19.4839,65.4858 Q19.1353,65.6651 18.7518,65.7548 Q18.3683,65.8444 17.9449,65.8444 Q16.4408,65.8444 15.6489,64.8533 Q14.857,63.8622 14.857,61.9896 Q14.857,60.1119 15.6489,59.1208 Q16.4408,58.1297 17.9449,58.1297 Q18.3683,58.1297 18.7567,58.2193 Q19.1452,58.309 19.4839,58.4883 L19.4839,60.1219 Q19.1054,59.7732 18.7493,59.6114 Q18.3932,59.4495 18.0146,59.4495 Q17.2078,59.4495 16.7969,60.0895 Q16.386,60.7295 16.386,61.9896 Q16.386,63.2446 16.7969,63.8846 Q17.2078,64.5246 18.0146,64.5246 Q18.3932,64.5246 18.7493,64.3627 Q19.1054,64.2009 19.4839,63.8522 Z "/><text fill="#000000" font-family="sans-serif" font-size="7.2" lengthAdjust="spacingAndGlyphs" textLength="37.2" x="27.6" y="64.5211">Plataforma</text><line style="stroke: #A80036; stroke-width: 0.8999999999999999;" x1="4.2" x2="71.4" y1="71.4" y2="71.4"/><text fill="#000000" font-family="sans-serif" font-size="6.6" lengthAdjust="spacingAndGlyphs" textLength="61.2" x="7.2" y="80.1809">-String designacao</text><!--MD5=[a322db5a7ec64d2ff8f2d6cf1831dcec]
class CompetenciaTecnica--><rect fill="#FEFECE" filter="url(#fh86hhsue8f6l)" height="47.3191" id="CompetenciaTecnica" style="stroke: #A80036; stroke-width: 0.8999999999999999;" width="90.6" x="419.4" y="142.8"/><ellipse cx="428.4" cy="152.4" fill="#ADD1B2" rx="6.6" ry="6.6" style="stroke: #A80036; stroke-width: 0.6;"/><path d="M429.8839,156.0858 Q429.5353,156.2651 429.1518,156.3548 Q428.7683,156.4444 428.3449,156.4444 Q426.8408,156.4444 426.0489,155.4533 Q425.257,154.4622 425.257,152.5896 Q425.257,150.7119 426.0489,149.7208 Q426.8408,148.7297 428.3449,148.7297 Q428.7683,148.7297 429.1567,148.8193 Q429.5452,148.909 429.8839,149.0883 L429.8839,150.7219 Q429.5054,150.3732 429.1493,150.2114 Q428.7932,150.0495 428.4146,150.0495 Q427.6078,150.0495 427.1969,150.6895 Q426.786,151.3295 426.786,152.5896 Q426.786,153.8446 427.1969,154.4846 Q427.6078,155.1246 428.4146,155.1246 Q428.7932,155.1246 429.1493,154.9627 Q429.5054,154.8009 429.8839,154.4522 Z "/><text fill="#000000" font-family="sans-serif" font-size="7.2" lengthAdjust="spacingAndGlyphs" textLength="71.4" x="436.8" y="155.1211">CompetenciaTecnica</text><line style="stroke: #A80036; stroke-width: 0.8999999999999999;" x1="420" x2="509.4" y1="162" y2="162"/><text fill="#000000" font-family="sans-serif" font-size="6.6" lengthAdjust="spacingAndGlyphs" textLength="46.8" x="423" y="170.7809">-String codigo</text><text fill="#000000" font-family="sans-serif" font-size="6.6" lengthAdjust="spacingAndGlyphs" textLength="57" x="423" y="178.5539">-String descBreve</text><text fill="#000000" font-family="sans-serif" font-size="6.6" lengthAdjust="spacingAndGlyphs" textLength="71.4" x="423" y="186.327">-String descDetalhada</text><!--MD5=[0d4fe674cc1d46ec0fc990086e50801a]
class GrauProficiencia--><rect fill="#FEFECE" filter="url(#fh86hhsue8f6l)" height="39.5461" id="GrauProficiencia" style="stroke: #A80036; stroke-width: 0.8999999999999999;" width="75" x="750" y="176.1"/><ellipse cx="759" cy="185.7" fill="#ADD1B2" rx="6.6" ry="6.6" style="stroke: #A80036; stroke-width: 0.6;"/><path d="M760.4839,189.3858 Q760.1353,189.5651 759.7518,189.6548 Q759.3683,189.7444 758.9449,189.7444 Q757.4408,189.7444 756.6489,188.7533 Q755.857,187.7622 755.857,185.8896 Q755.857,184.0119 756.6489,183.0208 Q757.4408,182.0297 758.9449,182.0297 Q759.3683,182.0297 759.7567,182.1193 Q760.1452,182.209 760.4839,182.3883 L760.4839,184.0219 Q760.1054,183.6732 759.7493,183.5114 Q759.3932,183.3495 759.0146,183.3495 Q758.2078,183.3495 757.7969,183.9895 Q757.386,184.6295 757.386,185.8896 Q757.386,187.1446 757.7969,187.7846 Q758.2078,188.4246 759.0146,188.4246 Q759.3932,188.4246 759.7493,188.2627 Q760.1054,188.1009 760.4839,187.7522 Z "/><text fill="#000000" font-family="sans-serif" font-size="7.2" lengthAdjust="spacingAndGlyphs" textLength="55.8" x="767.4" y="188.4211">GrauProficiencia</text><line style="stroke: #A80036; stroke-width: 0.8999999999999999;" x1="750.6" x2="824.4" y1="195.3" y2="195.3"/><text fill="#000000" font-family="sans-serif" font-size="6.6" lengthAdjust="spacingAndGlyphs" textLength="44.4" x="753.6" y="204.0809">-Integer valor</text><text fill="#000000" font-family="sans-serif" font-size="6.6" lengthAdjust="spacingAndGlyphs" textLength="61.2" x="753.6" y="211.8539">-String designacao</text><!--MD5=[7e1ce8ab2bf669717f28e918f4971b9a]
class Categoria--><rect fill="#FEFECE" filter="url(#fh86hhsue8f6l)" height="39.5461" id="Categoria" style="stroke: #A80036; stroke-width: 0.8999999999999999;" width="63" x="142.2" y="99.9"/><ellipse cx="156.06" cy="109.5" fill="#ADD1B2" rx="6.6" ry="6.6" style="stroke: #A80036; stroke-width: 0.6;"/><path d="M157.5439,113.1858 Q157.1953,113.3651 156.8118,113.4548 Q156.4283,113.5444 156.0049,113.5444 Q154.5008,113.5444 153.7089,112.5533 Q152.917,111.5622 152.917,109.6896 Q152.917,107.8119 153.7089,106.8208 Q154.5008,105.8297 156.0049,105.8297 Q156.4283,105.8297 156.8167,105.9193 Q157.2052,106.009 157.5439,106.1883 L157.5439,107.8219 Q157.1654,107.4732 156.8093,107.3114 Q156.4532,107.1495 156.0746,107.1495 Q155.2678,107.1495 154.8569,107.7895 Q154.446,108.4295 154.446,109.6896 Q154.446,110.9446 154.8569,111.5846 Q155.2678,112.2246 156.0746,112.2246 Q156.4532,112.2246 156.8093,112.0627 Q157.1654,111.9009 157.5439,111.5522 Z "/><text fill="#000000" font-family="sans-serif" font-size="7.2" lengthAdjust="spacingAndGlyphs" textLength="33" x="165.54" y="112.2211">Categoria</text><line style="stroke: #A80036; stroke-width: 0.8999999999999999;" x1="142.8" x2="204.6" y1="119.1" y2="119.1"/><text fill="#000000" font-family="sans-serif" font-size="6.6" lengthAdjust="spacingAndGlyphs" textLength="30.6" x="145.8" y="127.8809">-String id</text><text fill="#000000" font-family="sans-serif" font-size="6.6" lengthAdjust="spacingAndGlyphs" textLength="55.8" x="145.8" y="135.6539">-String descricao</text><!--MD5=[b0f240be72c8ea8a063442502d85fc08]
class CaraterCT--><rect fill="#FEFECE" filter="url(#fh86hhsue8f6l)" height="31.773" id="CaraterCT" style="stroke: #A80036; stroke-width: 0.8999999999999999;" width="73.8" x="327.6" y="193.2"/><ellipse cx="345.24" cy="202.8" fill="#ADD1B2" rx="6.6" ry="6.6" style="stroke: #A80036; stroke-width: 0.6;"/><path d="M346.7239,206.4858 Q346.3753,206.6651 345.9918,206.7548 Q345.6083,206.8444 345.1849,206.8444 Q343.6808,206.8444 342.8889,205.8533 Q342.097,204.8622 342.097,202.9896 Q342.097,201.1119 342.8889,200.1208 Q343.6808,199.1297 345.1849,199.1297 Q345.6083,199.1297 345.9967,199.2193 Q346.3852,199.309 346.7239,199.4883 L346.7239,201.1219 Q346.3454,200.7732 345.9893,200.6114 Q345.6332,200.4495 345.2546,200.4495 Q344.4478,200.4495 344.0369,201.0895 Q343.626,201.7295 343.626,202.9896 Q343.626,204.2446 344.0369,204.8846 Q344.4478,205.5246 345.2546,205.5246 Q345.6332,205.5246 345.9893,205.3627 Q346.3454,205.2009 346.7239,204.8522 Z "/><text fill="#000000" font-family="sans-serif" font-size="7.2" lengthAdjust="spacingAndGlyphs" textLength="35.4" x="355.56" y="205.5211">CaraterCT</text><line style="stroke: #A80036; stroke-width: 0.8999999999999999;" x1="328.2" x2="400.8" y1="212.4" y2="212.4"/><text fill="#000000" font-family="sans-serif" font-size="6.6" lengthAdjust="spacingAndGlyphs" textLength="66.6" x="331.2" y="221.1809">-Boolean obrigatoria</text><!--MD5=[02456e6632d968d6f68141e5893c6991]
class AreaAtividade--><rect fill="#FEFECE" filter="url(#fh86hhsue8f6l)" height="47.3191" id="AreaAtividade" style="stroke: #A80036; stroke-width: 0.8999999999999999;" width="78.6" x="634.8" y="87"/><ellipse cx="648.66" cy="96.6" fill="#ADD1B2" rx="6.6" ry="6.6" style="stroke: #A80036; stroke-width: 0.6;"/><path d="M650.1439,100.2858 Q649.7953,100.4651 649.4118,100.5548 Q649.0283,100.6444 648.6049,100.6444 Q647.1008,100.6444 646.3089,99.6533 Q645.517,98.6622 645.517,96.7896 Q645.517,94.9119 646.3089,93.9208 Q647.1008,92.9297 648.6049,92.9297 Q649.0283,92.9297 649.4167,93.0193 Q649.8052,93.109 650.1439,93.2883 L650.1439,94.9219 Q649.7654,94.5732 649.4093,94.4114 Q649.0532,94.2495 648.6746,94.2495 Q647.8678,94.2495 647.4569,94.8895 Q647.046,95.5295 647.046,96.7896 Q647.046,98.0446 647.4569,98.6846 Q647.8678,99.3246 648.6746,99.3246 Q649.0532,99.3246 649.4093,99.1627 Q649.7654,99.0009 650.1439,98.6522 Z "/><text fill="#000000" font-family="sans-serif" font-size="7.2" lengthAdjust="spacingAndGlyphs" textLength="48.6" x="658.14" y="99.3211">AreaAtividade</text><line style="stroke: #A80036; stroke-width: 0.8999999999999999;" x1="635.4" x2="712.8" y1="106.2" y2="106.2"/><text fill="#000000" font-family="sans-serif" font-size="6.6" lengthAdjust="spacingAndGlyphs" textLength="46.8" x="638.4" y="114.9809">-String codigo</text><text fill="#000000" font-family="sans-serif" font-size="6.6" lengthAdjust="spacingAndGlyphs" textLength="57" x="638.4" y="122.7539">-String descBreve</text><text fill="#000000" font-family="sans-serif" font-size="6.6" lengthAdjust="spacingAndGlyphs" textLength="71.4" x="638.4" y="130.527">-String descDetalhada</text><ellipse cx="292.5" cy="166.5" fill="#000000" rx="1.2" ry="1.2" style="stroke: none; stroke-width: 0.6;"/><!--MD5=[a77d152358ce76c19672aacd9fb0ada1]
link Plataforma to CompetenciaTecnica--><path d="M72.258,63.516 C139.008,56.052 290.73,47.04 401.4,100.5 C420.756,109.848 437.238,127.89 448.446,142.752 " fill="none" id="Plataforma-CompetenciaTecnica" style="stroke: #A80036; stroke-width: 0.6;"/><text fill="#000000" font-family="sans-serif" font-size="7.8" lengthAdjust="spacingAndGlyphs" textLength="25.2" x="223.8" y="57.041">possui</text><polygon fill="#000000" points="250.8,53.1932,254.4,54.9932,250.8,56.7932,250.8,53.1932" style="stroke: #000000; stroke-width: 0.6;"/><text fill="#000000" font-family="sans-serif" font-size="7.8" lengthAdjust="spacingAndGlyphs" textLength="4.8" x="76.7501" y="71.0598">1</text><text fill="#000000" font-family="sans-serif" font-size="7.8" lengthAdjust="spacingAndGlyphs" textLength="3.6" x="441.6301" y="136.2851">*</text><!--MD5=[cb8556493ec2c94f9603162dd119feba]
link Plataforma to Categoria--><path d="M68.31,84.084 C75.324,87.54 82.842,91.02 90,93.9 C106.89,100.692 126.288,106.806 142.098,111.378 " fill="none" id="Plataforma-Categoria" style="stroke: #A80036; stroke-width: 0.6;"/><text fill="#000000" font-family="sans-serif" font-size="7.8" lengthAdjust="spacingAndGlyphs" textLength="25.2" x="90.6" y="91.841">possui</text><polygon fill="#000000" points="117.6,87.9932,121.2,89.7932,117.6,91.5932,117.6,87.9932" style="stroke: #000000; stroke-width: 0.6;"/><text fill="#000000" font-family="sans-serif" font-size="7.8" lengthAdjust="spacingAndGlyphs" textLength="4.8" x="70.0104" y="96.3866">1</text><text fill="#000000" font-family="sans-serif" font-size="7.8" lengthAdjust="spacingAndGlyphs" textLength="3.6" x="133.8008" y="118.3984">*</text><!--MD5=[718b46c9a1975c175f4073d63ce5ccba]
link Plataforma to AreaAtividade--><path d="M62.844,52.116 C89.01,36.576 132.282,15.3 173.1,15.3 C173.1,15.3 173.1,15.3 465.3,15.3 C533.982,15.3 604.776,58.74 643.56,86.994 " fill="none" id="Plataforma-AreaAtividade" style="stroke: #A80036; stroke-width: 0.6;"/><text fill="#000000" font-family="sans-serif" font-size="7.8" lengthAdjust="spacingAndGlyphs" textLength="25.2" x="276" y="13.241">possui</text><polygon fill="#000000" points="303,9.3932,306.6,11.1932,303,12.9932,303,9.3932" style="stroke: #000000; stroke-width: 0.6;"/><text fill="#000000" font-family="sans-serif" font-size="7.8" lengthAdjust="spacingAndGlyphs" textLength="4.8" x="63.5635" y="45.69">1</text><text fill="#000000" font-family="sans-serif" font-size="7.8" lengthAdjust="spacingAndGlyphs" textLength="3.6" x="634.1994" y="80.5346">*</text><!--MD5=[e538c9efa8de58386edc6206f3c58807]
link CompetenciaTecnica to AreaAtividade--><path d="M510.072,160.422 C540.606,155.61 581.706,147.792 616.8,136.5 C622.722,134.598 628.842,132.246 634.776,129.744 " fill="none" id="CompetenciaTecnica-AreaAtividade" style="stroke: #A80036; stroke-width: 0.6;"/><text fill="#000000" font-family="sans-serif" font-size="7.8" lengthAdjust="spacingAndGlyphs" textLength="40.2" x="548.4" y="134.441">referente a</text><polygon fill="#000000" points="590.4,130.5932,594,132.3932,590.4,134.1932,590.4,130.5932" style="stroke: #000000; stroke-width: 0.6;"/><text fill="#000000" font-family="sans-serif" font-size="7.8" lengthAdjust="spacingAndGlyphs" textLength="3.6" x="514.9366" y="167.8141">*</text><text fill="#000000" font-family="sans-serif" font-size="7.8" lengthAdjust="spacingAndGlyphs" textLength="4.8" x="625.1517" y="140.0227">1</text><!--MD5=[0d731ff285a62a08178b23be6cceb109]
link CompetenciaTecnica to GrauProficiencia--><path d="M510.018,170.586 C573.96,176.436 690.348,187.074 749.796,192.51 " fill="none" id="CompetenciaTecnica-GrauProficiencia" style="stroke: #A80036; stroke-width: 0.6;"/><text fill="#000000" font-family="sans-serif" font-size="7.8" lengthAdjust="spacingAndGlyphs" textLength="22.2" x="659.1" y="179.441">aplica</text><polygon fill="#000000" points="683.1,175.5932,686.7,177.3932,683.1,179.1932,683.1,175.5932" style="stroke: #000000; stroke-width: 0.6;"/><text fill="#000000" font-family="sans-serif" font-size="7.8" lengthAdjust="spacingAndGlyphs" textLength="4.8" x="514.9389" y="179.0262">1</text><text fill="#000000" font-family="sans-serif" font-size="7.8" lengthAdjust="spacingAndGlyphs" textLength="3.6" x="741.6284" y="190.1526">*</text><!--MD5=[333932e5e4606ec9852f0cecc179b212]
link Categoria to AreaAtividade--><path d="M205.338,119.142 C292.41,117.57 538.836,113.13 634.686,111.402 " fill="none" id="Categoria-AreaAtividade" style="stroke: #A80036; stroke-width: 0.6;"/><text fill="#000000" font-family="sans-serif" font-size="7.8" lengthAdjust="spacingAndGlyphs" textLength="61.8" x="329.7" y="113.441">enquadra-se em</text><polygon fill="#000000" points="393.3,109.5932,396.9,111.3932,393.3,113.1932,393.3,109.5932" style="stroke: #000000; stroke-width: 0.6;"/><text fill="#000000" font-family="sans-serif" font-size="7.8" lengthAdjust="spacingAndGlyphs" textLength="3.6" x="210.0402" y="127.2543">*</text><text fill="#000000" font-family="sans-serif" font-size="7.8" lengthAdjust="spacingAndGlyphs" textLength="4.8" x="625.3126" y="119.5266">1</text><!--MD5=[139e7bc3ccab6c853df950518c66b598]
link Categoria to apoint45388--><path d="M205.35,132.06 C238.014,145.056 285.504,163.956 291.312,166.266 " fill="none" id="Categoria-apoint45388" style="stroke: #A80036; stroke-width: 0.6;"/><text fill="#000000" font-family="sans-serif" font-size="7.8" lengthAdjust="spacingAndGlyphs" textLength="24" x="224.4" y="138.041">requer</text><polygon fill="#000000" points="250.2,134.1932,253.8,135.9932,250.2,137.7932,250.2,134.1932" style="stroke: #000000; stroke-width: 0.6;"/><text fill="#000000" font-family="sans-serif" font-size="7.8" lengthAdjust="spacingAndGlyphs" textLength="3.6" x="210.0539" y="141.9888">*</text><!--MD5=[220b973de738f90919b1e9e253b7d81f]
link apoint45388 to CompetenciaTecnica--><path d="M293.718,166.5 C301.02,166.5 371.304,166.5 419.286,166.5 " fill="none" id="apoint45388-CompetenciaTecnica" style="stroke: #A80036; stroke-width: 0.6;"/><text fill="#000000" font-family="sans-serif" font-size="7.8" lengthAdjust="spacingAndGlyphs" textLength="3.6" x="411.0384" y="174.4971">*</text><!--MD5=[6d5297d941d8b4e818d2910064868bf2]
link apoint45388 to CaraterCT--><path d="M293.898,166.98 C298.224,169.584 319.428,182.34 337.374,193.14 " fill="none" id="apoint45388-CaraterCT" style="stroke: #A80036; stroke-width: 0.6; stroke-dasharray: 7.0,7.0;"/><!--MD5=[8c0835971d966be6a8d860f4ee2f4601]
link CaraterCT to GrauProficiencia--><path d="M401.43,207.966 C480.96,205.476 669.774,199.566 749.91,197.058 " fill="none" id="CaraterCT-GrauProficiencia" style="stroke: #A80036; stroke-width: 0.6;"/><text fill="#000000" font-family="sans-serif" font-size="7.8" lengthAdjust="spacingAndGlyphs" textLength="79.8" x="528.6" y="198.641">exige (como mínimo)</text><polygon fill="#000000" points="610.2,194.7932,613.8,196.5932,610.2,198.3932,610.2,194.7932" style="stroke: #000000; stroke-width: 0.6;"/><text fill="#000000" font-family="sans-serif" font-size="7.8" lengthAdjust="spacingAndGlyphs" textLength="3.6" x="406.1502" y="215.9302">*</text><text fill="#000000" font-family="sans-serif" font-size="7.8" lengthAdjust="spacingAndGlyphs" textLength="4.8" x="740.4862" y="205.2671">1</text><!--MD5=[d1aaed68fbadc4d96199037a3f655613]
@startuml
skinparam classAttributeIconSize 0
hide methods
left to right direction

class Plataforma {
  -String designacao
}

class CompetenciaTecnica {
  -String codigo
  -String descBreve
  -String descDetalhada
}

class GrauProficiencia {
  -Integer valor
  -String designacao
}

class Categoria {
  -String id
  -String descricao
}

class CaraterCT {
  -Boolean obrigatoria
}

class AreaAtividade {
  -String codigo
  -String descBreve
  -String descDetalhada
}


Plataforma "1" - - "*" CompetenciaTecnica : possui >
Plataforma "1" - - "*" Categoria : possui >
Plataforma "1" -r- "*" AreaAtividade : possui >

CompetenciaTecnica "*" - - "1" AreaAtividade : referente a >
CompetenciaTecnica "1" - - - "*" GrauProficiencia : aplica  >
Categoria "*" - - "1" AreaAtividade: enquadra-se em >
Categoria "*" - - "*" CompetenciaTecnica: requer >
(Categoria, CompetenciaTecnica) .. CaraterCT
CaraterCT "*" - - "1" GrauProficiencia: exige (como mínimo)  >


@enduml

PlantUML version 1.2020.03beta6(Unknown compile time)
(GPL source distribution)
Java Runtime: OpenJDK Runtime Environment
JVM: OpenJDK 64-Bit Server VM
Java Version: 11.0.5+10-b520.38
Operating System: Mac OS X
Default Encoding: UTF-8
Language: en
Country: PT
--></g></svg>