<?xml version="1.0" encoding="UTF-8" standalone="no"?><svg xmlns="http://www.w3.org/2000/svg" xmlns:xlink="http://www.w3.org/1999/xlink" contentScriptType="application/ecmascript" contentStyleType="text/css" height="285px" preserveAspectRatio="none" style="width:1341px;height:285px;" version="1.1" viewBox="0 0 1341 285" width="1341px" zoomAndPan="magnify"><defs><filter height="300%" id="f16pzqv77nlmow" width="300%" x="-1" y="-1"><feGaussianBlur result="blurOut" stdDeviation="1.2"/><feColorMatrix in="blurOut" result="blurOut2" type="matrix" values="0 0 0 0 0 0 0 0 0 0 0 0 0 0 0 0 0 0 .4 0"/><feOffset dx="2.4" dy="2.4" in="blurOut2" result="blurOut3"/><feBlend in="SourceGraphic" in2="blurOut3" mode="normal"/></filter></defs><g><!--MD5=[d797b55806609526f9424c3f5fca1db9]
class DefinirCategoriaUI--><rect fill="#FEFECE" filter="url(#f16pzqv77nlmow)" height="28.8" id="DefinirCategoriaUI" style="stroke: #A80036; stroke-width: 0.8999999999999999;" width="81.6" x="3.6" y="162"/><ellipse cx="12.6" cy="171.6" fill="#ADD1B2" rx="6.6" ry="6.6" style="stroke: #A80036; stroke-width: 0.6;"/><path d="M14.0839,175.2858 Q13.7353,175.4651 13.3518,175.5548 Q12.9683,175.6444 12.5449,175.6444 Q11.0408,175.6444 10.2489,174.6533 Q9.457,173.6622 9.457,171.7896 Q9.457,169.9119 10.2489,168.9208 Q11.0408,167.9297 12.5449,167.9297 Q12.9683,167.9297 13.3567,168.0193 Q13.7452,168.109 14.0839,168.2883 L14.0839,169.9219 Q13.7054,169.5732 13.3493,169.4114 Q12.9932,169.2495 12.6146,169.2495 Q11.8078,169.2495 11.3969,169.8895 Q10.986,170.5295 10.986,171.7896 Q10.986,173.0446 11.3969,173.6846 Q11.8078,174.3246 12.6146,174.3246 Q12.9932,174.3246 13.3493,174.1627 Q13.7054,174.0009 14.0839,173.6522 Z "/><text fill="#000000" font-family="sans-serif" font-size="7.2" lengthAdjust="spacingAndGlyphs" textLength="62.4" x="21" y="174.3211">DefinirCategoriaUI</text><line style="stroke: #A80036; stroke-width: 0.8999999999999999;" x1="4.2" x2="84.6" y1="181.2" y2="181.2"/><line style="stroke: #A80036; stroke-width: 0.8999999999999999;" x1="4.2" x2="84.6" y1="186" y2="186"/><!--MD5=[8153b488a8cbc44b7e7be39538dbc4fa]
class DefinirCategoriaController--><rect fill="#FEFECE" filter="url(#f16pzqv77nlmow)" height="59.8922" id="DefinirCategoriaController" style="stroke: #A80036; stroke-width: 0.8999999999999999;" width="108.6" x="121.8" y="146.4"/><ellipse cx="130.8" cy="156" fill="#ADD1B2" rx="6.6" ry="6.6" style="stroke: #A80036; stroke-width: 0.6;"/><path d="M132.2839,159.6858 Q131.9353,159.8651 131.5518,159.9548 Q131.1683,160.0444 130.7449,160.0444 Q129.2408,160.0444 128.4489,159.0533 Q127.657,158.0622 127.657,156.1896 Q127.657,154.3119 128.4489,153.3208 Q129.2408,152.3297 130.7449,152.3297 Q131.1683,152.3297 131.5567,152.4193 Q131.9452,152.509 132.2839,152.6883 L132.2839,154.3219 Q131.9054,153.9732 131.5493,153.8114 Q131.1932,153.6495 130.8146,153.6495 Q130.0078,153.6495 129.5969,154.2895 Q129.186,154.9295 129.186,156.1896 Q129.186,157.4446 129.5969,158.0846 Q130.0078,158.7246 130.8146,158.7246 Q131.1932,158.7246 131.5493,158.5627 Q131.9054,158.4009 132.2839,158.0522 Z "/><text fill="#000000" font-family="sans-serif" font-size="7.2" lengthAdjust="spacingAndGlyphs" textLength="89.4" x="139.2" y="158.7211">DefinirCategoriaController</text><line style="stroke: #A80036; stroke-width: 0.8999999999999999;" x1="122.4" x2="229.8" y1="165.6" y2="165.6"/><line style="stroke: #A80036; stroke-width: 0.8999999999999999;" x1="122.4" x2="229.8" y1="170.4" y2="170.4"/><text fill="#000000" font-family="sans-serif" font-size="6.6" lengthAdjust="spacingAndGlyphs" textLength="72" x="125.4" y="179.1809">+novaCategoria(desc)</text><text fill="#000000" font-family="sans-serif" font-size="6.6" lengthAdjust="spacingAndGlyphs" textLength="48" x="125.4" y="186.9539">+setAT(atCod)</text><text fill="#000000" font-family="sans-serif" font-size="6.6" lengthAdjust="spacingAndGlyphs" textLength="84.6" x="125.4" y="194.727">+addCaraterCT(ctCod,ob)</text><text fill="#000000" font-family="sans-serif" font-size="6.6" lengthAdjust="spacingAndGlyphs" textLength="63.6" x="125.4" y="202.5">+registaCategoria()</text><!--MD5=[ecaed46f78f8cfe1e9ce18477649be18]
class Plataforma--><rect fill="#FEFECE" filter="url(#f16pzqv77nlmow)" height="59.8922" id="Plataforma" style="stroke: #A80036; stroke-width: 0.8999999999999999;" width="167.4" x="267" y="109.2"/><ellipse cx="329.55" cy="118.8" fill="#ADD1B2" rx="6.6" ry="6.6" style="stroke: #A80036; stroke-width: 0.6;"/><path d="M331.0339,122.4858 Q330.6853,122.6651 330.3018,122.7548 Q329.9183,122.8444 329.4949,122.8444 Q327.9908,122.8444 327.1989,121.8533 Q326.407,120.8622 326.407,118.9896 Q326.407,117.1119 327.1989,116.1208 Q327.9908,115.1297 329.4949,115.1297 Q329.9183,115.1297 330.3067,115.2193 Q330.6952,115.309 331.0339,115.4883 L331.0339,117.1219 Q330.6554,116.7732 330.2993,116.6114 Q329.9432,116.4495 329.5646,116.4495 Q328.7578,116.4495 328.3469,117.0895 Q327.936,117.7295 327.936,118.9896 Q327.936,120.2446 328.3469,120.8846 Q328.7578,121.5246 329.5646,121.5246 Q329.9432,121.5246 330.2993,121.3627 Q330.6554,121.2009 331.0339,120.8522 Z "/><text fill="#000000" font-family="sans-serif" font-size="7.2" lengthAdjust="spacingAndGlyphs" textLength="37.2" x="341.85" y="121.5211">Plataforma</text><line style="stroke: #A80036; stroke-width: 0.8999999999999999;" x1="267.6" x2="433.8" y1="128.4" y2="128.4"/><text fill="#000000" font-family="sans-serif" font-size="6.6" lengthAdjust="spacingAndGlyphs" textLength="40.2" x="270.6" y="137.1809">-designacao</text><line style="stroke: #A80036; stroke-width: 0.8999999999999999;" x1="267.6" x2="433.8" y1="140.973" y2="140.973"/><text fill="#000000" font-family="sans-serif" font-size="6.6" lengthAdjust="spacingAndGlyphs" textLength="160.2" x="270.6" y="149.7539">+RegistoAreaAtividade getRegistoAreaAtividade()</text><text fill="#000000" font-family="sans-serif" font-size="6.6" lengthAdjust="spacingAndGlyphs" textLength="88.2" x="270.6" y="157.527">+RegistoCT getRegistoCT()</text><text fill="#000000" font-family="sans-serif" font-size="6.6" lengthAdjust="spacingAndGlyphs" textLength="139.8" x="270.6" y="165.3">+RegistoCategorias getRegistoCategorias()</text><!--MD5=[79475a910c20df31d8f6e5df82628fe3]
class RegistoAreaAtividade--><rect fill="#FEFECE" filter="url(#f16pzqv77nlmow)" height="44.3461" id="RegistoAreaAtividade" style="stroke: #A80036; stroke-width: 0.8999999999999999;" width="93" x="585" y="27"/><ellipse cx="594" cy="36.6" fill="#ADD1B2" rx="6.6" ry="6.6" style="stroke: #A80036; stroke-width: 0.6;"/><path d="M595.4839,40.2858 Q595.1353,40.4651 594.7518,40.5548 Q594.3683,40.6444 593.9449,40.6444 Q592.4408,40.6444 591.6489,39.6533 Q590.857,38.6622 590.857,36.7896 Q590.857,34.9119 591.6489,33.9208 Q592.4408,32.9297 593.9449,32.9297 Q594.3683,32.9297 594.7567,33.0193 Q595.1452,33.109 595.4839,33.2883 L595.4839,34.9219 Q595.1054,34.5732 594.7493,34.4114 Q594.3932,34.2495 594.0146,34.2495 Q593.2078,34.2495 592.7969,34.8895 Q592.386,35.5295 592.386,36.7896 Q592.386,38.0446 592.7969,38.6846 Q593.2078,39.3246 594.0146,39.3246 Q594.3932,39.3246 594.7493,39.1627 Q595.1054,39.0009 595.4839,38.6522 Z "/><text fill="#000000" font-family="sans-serif" font-size="7.2" lengthAdjust="spacingAndGlyphs" textLength="73.8" x="602.4" y="39.3211">RegistoAreaAtividade</text><line style="stroke: #A80036; stroke-width: 0.8999999999999999;" x1="585.6" x2="677.4" y1="46.2" y2="46.2"/><line style="stroke: #A80036; stroke-width: 0.8999999999999999;" x1="585.6" x2="677.4" y1="51" y2="51"/><text fill="#000000" font-family="sans-serif" font-size="6.6" lengthAdjust="spacingAndGlyphs" textLength="69.6" x="588.6" y="59.7809">+getAT(String atCod)</text><text fill="#000000" font-family="sans-serif" font-size="6.6" lengthAdjust="spacingAndGlyphs" textLength="44.4" x="588.6" y="67.5539">+getListaAT()</text><!--MD5=[a3d2cd28087633b4d29ef730f7304c83]
class RegistoCT--><rect fill="#FEFECE" filter="url(#f16pzqv77nlmow)" height="44.3461" id="RegistoCT" style="stroke: #A80036; stroke-width: 0.8999999999999999;" width="104.4" x="801.6" y="178.8"/><ellipse cx="833.85" cy="188.4" fill="#ADD1B2" rx="6.6" ry="6.6" style="stroke: #A80036; stroke-width: 0.6;"/><path d="M835.3339,192.0858 Q834.9853,192.2651 834.6018,192.3548 Q834.2183,192.4444 833.7949,192.4444 Q832.2908,192.4444 831.4989,191.4533 Q830.707,190.4622 830.707,188.5896 Q830.707,186.7119 831.4989,185.7208 Q832.2908,184.7297 833.7949,184.7297 Q834.2183,184.7297 834.6067,184.8193 Q834.9952,184.909 835.3339,185.0883 L835.3339,186.7219 Q834.9554,186.3732 834.5993,186.2114 Q834.2432,186.0495 833.8646,186.0495 Q833.0578,186.0495 832.6469,186.6895 Q832.236,187.3295 832.236,188.5896 Q832.236,189.8446 832.6469,190.4846 Q833.0578,191.1246 833.8646,191.1246 Q834.2432,191.1246 834.5993,190.9627 Q834.9554,190.8009 835.3339,190.4522 Z "/><text fill="#000000" font-family="sans-serif" font-size="7.2" lengthAdjust="spacingAndGlyphs" textLength="34.8" x="846.15" y="191.1211">RegistoCT</text><line style="stroke: #A80036; stroke-width: 0.8999999999999999;" x1="802.2" x2="905.4" y1="198" y2="198"/><line style="stroke: #A80036; stroke-width: 0.8999999999999999;" x1="802.2" x2="905.4" y1="202.8" y2="202.8"/><text fill="#000000" font-family="sans-serif" font-size="6.6" lengthAdjust="spacingAndGlyphs" textLength="52.2" x="805.2" y="211.5809">+getCT(catCod)</text><text fill="#000000" font-family="sans-serif" font-size="6.6" lengthAdjust="spacingAndGlyphs" textLength="97.2" x="805.2" y="219.3539">+getListaCT(AreaAtividade at)</text><!--MD5=[011eac86698250363ba056a5277fb87d]
class RegistoCategorias--><rect fill="#FEFECE" filter="url(#f16pzqv77nlmow)" height="67.6652" id="RegistoCategorias" style="stroke: #A80036; stroke-width: 0.8999999999999999;" width="81" x="486" y="83.1"/><ellipse cx="495" cy="92.7" fill="#ADD1B2" rx="6.6" ry="6.6" style="stroke: #A80036; stroke-width: 0.6;"/><path d="M496.4839,96.3858 Q496.1353,96.5651 495.7518,96.6548 Q495.3683,96.7444 494.9449,96.7444 Q493.4408,96.7444 492.6489,95.7533 Q491.857,94.7622 491.857,92.8896 Q491.857,91.0119 492.6489,90.0208 Q493.4408,89.0297 494.9449,89.0297 Q495.3683,89.0297 495.7567,89.1193 Q496.1452,89.209 496.4839,89.3883 L496.4839,91.0219 Q496.1054,90.6732 495.7493,90.5114 Q495.3932,90.3495 495.0146,90.3495 Q494.2078,90.3495 493.7969,90.9895 Q493.386,91.6295 493.386,92.8896 Q493.386,94.1446 493.7969,94.7846 Q494.2078,95.4246 495.0146,95.4246 Q495.3932,95.4246 495.7493,95.2627 Q496.1054,95.1009 496.4839,94.7522 Z "/><text fill="#000000" font-family="sans-serif" font-size="7.2" lengthAdjust="spacingAndGlyphs" textLength="61.8" x="503.4" y="95.4211">RegistoCategorias</text><line style="stroke: #A80036; stroke-width: 0.8999999999999999;" x1="486.6" x2="566.4" y1="102.3" y2="102.3"/><line style="stroke: #A80036; stroke-width: 0.8999999999999999;" x1="486.6" x2="566.4" y1="107.1" y2="107.1"/><text fill="#000000" font-family="sans-serif" font-size="6.6" lengthAdjust="spacingAndGlyphs" textLength="72" x="489.6" y="115.8809">+novaCategoria(desc)</text><text fill="#000000" font-family="sans-serif" font-size="6.6" lengthAdjust="spacingAndGlyphs" textLength="73.2" x="489.6" y="123.6539">+registaCategoria(cat)</text><text fill="#000000" font-family="sans-serif" font-size="6.6" lengthAdjust="spacingAndGlyphs" textLength="67.8" x="489.6" y="131.427">-validaCategoria(cat)</text><text fill="#000000" font-family="sans-serif" font-size="6.6" lengthAdjust="spacingAndGlyphs" textLength="60" x="489.6" y="139.2">-geraCategoriaId()</text><text fill="#000000" font-family="sans-serif" font-size="6.6" lengthAdjust="spacingAndGlyphs" textLength="61.2" x="489.6" y="146.973">-addCategoria(cat)</text><!--MD5=[a322db5a7ec64d2ff8f2d6cf1831dcec]
class CompetenciaTecnica--><rect fill="#FEFECE" filter="url(#f16pzqv77nlmow)" height="67.6652" id="CompetenciaTecnica" style="stroke: #A80036; stroke-width: 0.8999999999999999;" width="112.2" x="1069.8" y="184.5"/><ellipse cx="1088.52" cy="194.1" fill="#ADD1B2" rx="6.6" ry="6.6" style="stroke: #A80036; stroke-width: 0.6;"/><path d="M1090.0039,197.7858 Q1089.6553,197.9651 1089.2718,198.0548 Q1088.8883,198.1444 1088.4649,198.1444 Q1086.9608,198.1444 1086.1689,197.1533 Q1085.377,196.1622 1085.377,194.2896 Q1085.377,192.4119 1086.1689,191.4208 Q1086.9608,190.4297 1088.4649,190.4297 Q1088.8883,190.4297 1089.2767,190.5193 Q1089.6652,190.609 1090.0039,190.7883 L1090.0039,192.4219 Q1089.6254,192.0732 1089.2693,191.9114 Q1088.9132,191.7495 1088.5346,191.7495 Q1087.7278,191.7495 1087.3169,192.3895 Q1086.906,193.0295 1086.906,194.2896 Q1086.906,195.5446 1087.3169,196.1846 Q1087.7278,196.8246 1088.5346,196.8246 Q1088.9132,196.8246 1089.2693,196.6627 Q1089.6254,196.5009 1090.0039,196.1522 Z "/><text fill="#000000" font-family="sans-serif" font-size="7.2" lengthAdjust="spacingAndGlyphs" textLength="71.4" x="1099.08" y="196.8211">CompetenciaTecnica</text><line style="stroke: #A80036; stroke-width: 0.8999999999999999;" x1="1070.4" x2="1181.4" y1="203.7" y2="203.7"/><text fill="#000000" font-family="sans-serif" font-size="6.6" lengthAdjust="spacingAndGlyphs" textLength="25.8" x="1073.4" y="212.4809">-codigo</text><text fill="#000000" font-family="sans-serif" font-size="6.6" lengthAdjust="spacingAndGlyphs" textLength="36" x="1073.4" y="220.2539">-descBreve</text><text fill="#000000" font-family="sans-serif" font-size="6.6" lengthAdjust="spacingAndGlyphs" textLength="50.4" x="1073.4" y="228.027">-descDetalhada</text><line style="stroke: #A80036; stroke-width: 0.8999999999999999;" x1="1070.4" x2="1181.4" y1="231.8191" y2="231.8191"/><text fill="#000000" font-family="sans-serif" font-size="6.6" lengthAdjust="spacingAndGlyphs" textLength="39.6" x="1073.4" y="240.6">+getGraus()</text><text fill="#000000" font-family="sans-serif" font-size="6.6" lengthAdjust="spacingAndGlyphs" textLength="105" x="1073.4" y="248.373">+getGrauProficiencia(valorGrau)</text><!--MD5=[0d4fe674cc1d46ec0fc990086e50801a]
class GrauProficiencia--><rect fill="#FEFECE" filter="url(#f16pzqv77nlmow)" height="44.3461" id="GrauProficiencia" style="stroke: #A80036; stroke-width: 0.8999999999999999;" width="75" x="1259.4" y="141.6"/><ellipse cx="1268.4" cy="151.2" fill="#ADD1B2" rx="6.6" ry="6.6" style="stroke: #A80036; stroke-width: 0.6;"/><path d="M1269.8839,154.8858 Q1269.5353,155.0651 1269.1518,155.1548 Q1268.7683,155.2444 1268.3449,155.2444 Q1266.8408,155.2444 1266.0489,154.2533 Q1265.257,153.2622 1265.257,151.3896 Q1265.257,149.5119 1266.0489,148.5208 Q1266.8408,147.5297 1268.3449,147.5297 Q1268.7683,147.5297 1269.1567,147.6193 Q1269.5452,147.709 1269.8839,147.8883 L1269.8839,149.5219 Q1269.5054,149.1732 1269.1493,149.0114 Q1268.7932,148.8495 1268.4146,148.8495 Q1267.6078,148.8495 1267.1969,149.4895 Q1266.786,150.1295 1266.786,151.3896 Q1266.786,152.6446 1267.1969,153.2846 Q1267.6078,153.9246 1268.4146,153.9246 Q1268.7932,153.9246 1269.1493,153.7627 Q1269.5054,153.6009 1269.8839,153.2522 Z "/><text fill="#000000" font-family="sans-serif" font-size="7.2" lengthAdjust="spacingAndGlyphs" textLength="55.8" x="1276.8" y="153.9211">GrauProficiencia</text><line style="stroke: #A80036; stroke-width: 0.8999999999999999;" x1="1260" x2="1333.8" y1="160.8" y2="160.8"/><text fill="#000000" font-family="sans-serif" font-size="6.6" lengthAdjust="spacingAndGlyphs" textLength="44.4" x="1263" y="169.5809">-Integer valor</text><text fill="#000000" font-family="sans-serif" font-size="6.6" lengthAdjust="spacingAndGlyphs" textLength="61.2" x="1263" y="177.3539">-String designacao</text><line style="stroke: #A80036; stroke-width: 0.8999999999999999;" x1="1260" x2="1333.8" y1="181.1461" y2="181.1461"/><!--MD5=[b0f240be72c8ea8a063442502d85fc08]
class CaraterCT--><rect fill="#FEFECE" filter="url(#f16pzqv77nlmow)" height="44.3461" id="CaraterCT" style="stroke: #A80036; stroke-width: 0.8999999999999999;" width="83.4" x="968.4" y="124.2"/><ellipse cx="990.36" cy="133.8" fill="#ADD1B2" rx="6.6" ry="6.6" style="stroke: #A80036; stroke-width: 0.6;"/><path d="M991.8439,137.4858 Q991.4953,137.6651 991.1118,137.7548 Q990.7283,137.8444 990.3049,137.8444 Q988.8008,137.8444 988.0089,136.8533 Q987.217,135.8622 987.217,133.9896 Q987.217,132.1119 988.0089,131.1208 Q988.8008,130.1297 990.3049,130.1297 Q990.7283,130.1297 991.1167,130.2193 Q991.5052,130.309 991.8439,130.4883 L991.8439,132.1219 Q991.4654,131.7732 991.1093,131.6114 Q990.7532,131.4495 990.3746,131.4495 Q989.5678,131.4495 989.1569,132.0895 Q988.746,132.7295 988.746,133.9896 Q988.746,135.2446 989.1569,135.8846 Q989.5678,136.5246 990.3746,136.5246 Q990.7532,136.5246 991.1093,136.3627 Q991.4654,136.2009 991.8439,135.8522 Z "/><text fill="#000000" font-family="sans-serif" font-size="7.2" lengthAdjust="spacingAndGlyphs" textLength="35.4" x="1001.64" y="136.5211">CaraterCT</text><line style="stroke: #A80036; stroke-width: 0.8999999999999999;" x1="969" x2="1051.2" y1="143.4" y2="143.4"/><text fill="#000000" font-family="sans-serif" font-size="6.6" lengthAdjust="spacingAndGlyphs" textLength="39.6" x="972" y="152.1809">-obrigatoria</text><line style="stroke: #A80036; stroke-width: 0.8999999999999999;" x1="969" x2="1051.2" y1="155.973" y2="155.973"/><text fill="#000000" font-family="sans-serif" font-size="6.6" lengthAdjust="spacingAndGlyphs" textLength="76.2" x="972" y="164.7539">+CaraterCT(ct,grau,ob)</text><!--MD5=[7e1ce8ab2bf669717f28e918f4971b9a]
class Categoria--><rect fill="#FEFECE" filter="url(#f16pzqv77nlmow)" height="75.4383" id="Categoria" style="stroke: #A80036; stroke-width: 0.8999999999999999;" width="87.6" x="696" y="79.2"/><ellipse cx="720.93" cy="88.8" fill="#ADD1B2" rx="6.6" ry="6.6" style="stroke: #A80036; stroke-width: 0.6;"/><path d="M722.4139,92.4858 Q722.0653,92.6651 721.6818,92.7548 Q721.2983,92.8444 720.8749,92.8444 Q719.3708,92.8444 718.5789,91.8533 Q717.787,90.8622 717.787,88.9896 Q717.787,87.1119 718.5789,86.1208 Q719.3708,85.1297 720.8749,85.1297 Q721.2983,85.1297 721.6867,85.2193 Q722.0752,85.309 722.4139,85.4883 L722.4139,87.1219 Q722.0354,86.7732 721.6793,86.6114 Q721.3232,86.4495 720.9446,86.4495 Q720.1378,86.4495 719.7269,87.0895 Q719.316,87.7295 719.316,88.9896 Q719.316,90.2446 719.7269,90.8846 Q720.1378,91.5246 720.9446,91.5246 Q721.3232,91.5246 721.6793,91.3627 Q722.0354,91.2009 722.4139,90.8522 Z "/><text fill="#000000" font-family="sans-serif" font-size="7.2" lengthAdjust="spacingAndGlyphs" textLength="33" x="732.87" y="91.5211">Categoria</text><line style="stroke: #A80036; stroke-width: 0.8999999999999999;" x1="696.6" x2="783" y1="98.4" y2="98.4"/><text fill="#000000" font-family="sans-serif" font-size="6.6" lengthAdjust="spacingAndGlyphs" textLength="9.6" x="699.6" y="107.1809">-id</text><text fill="#000000" font-family="sans-serif" font-size="6.6" lengthAdjust="spacingAndGlyphs" textLength="34.8" x="699.6" y="114.9539">-descricao</text><line style="stroke: #A80036; stroke-width: 0.8999999999999999;" x1="696.6" x2="783" y1="118.7461" y2="118.7461"/><text fill="#000000" font-family="sans-serif" font-size="6.6" lengthAdjust="spacingAndGlyphs" textLength="72" x="699.6" y="127.527">+Categoria(id,desc,at)</text><text fill="#000000" font-family="sans-serif" font-size="6.6" lengthAdjust="spacingAndGlyphs" textLength="80.4" x="699.6" y="135.3">+addCaraterCT(ct,gr,ob)</text><text fill="#000000" font-family="sans-serif" font-size="6.6" lengthAdjust="spacingAndGlyphs" textLength="69.6" x="699.6" y="143.073">-validaCaraterCT(cct)</text><text fill="#000000" font-family="sans-serif" font-size="6.6" lengthAdjust="spacingAndGlyphs" textLength="63" x="699.6" y="150.8461">-addCaraterCT(cct)</text><!--MD5=[02456e6632d968d6f68141e5893c6991]
class AreaAtividade--><rect fill="#FEFECE" filter="url(#f16pzqv77nlmow)" height="52.1191" id="AreaAtividade" style="stroke: #A80036; stroke-width: 0.8999999999999999;" width="67.8" x="1263" y="53.1"/><ellipse cx="1272" cy="62.7" fill="#ADD1B2" rx="6.6" ry="6.6" style="stroke: #A80036; stroke-width: 0.6;"/><path d="M1273.4839,66.3858 Q1273.1353,66.5651 1272.7518,66.6548 Q1272.3683,66.7444 1271.9449,66.7444 Q1270.4408,66.7444 1269.6489,65.7533 Q1268.857,64.7622 1268.857,62.8896 Q1268.857,61.0119 1269.6489,60.0208 Q1270.4408,59.0297 1271.9449,59.0297 Q1272.3683,59.0297 1272.7567,59.1193 Q1273.1452,59.209 1273.4839,59.3883 L1273.4839,61.0219 Q1273.1054,60.6732 1272.7493,60.5114 Q1272.3932,60.3495 1272.0146,60.3495 Q1271.2078,60.3495 1270.7969,60.9895 Q1270.386,61.6295 1270.386,62.8896 Q1270.386,64.1446 1270.7969,64.7846 Q1271.2078,65.4246 1272.0146,65.4246 Q1272.3932,65.4246 1272.7493,65.2627 Q1273.1054,65.1009 1273.4839,64.7522 Z "/><text fill="#000000" font-family="sans-serif" font-size="7.2" lengthAdjust="spacingAndGlyphs" textLength="48.6" x="1280.4" y="65.4211">AreaAtividade</text><line style="stroke: #A80036; stroke-width: 0.8999999999999999;" x1="1263.6" x2="1330.2" y1="72.3" y2="72.3"/><text fill="#000000" font-family="sans-serif" font-size="6.6" lengthAdjust="spacingAndGlyphs" textLength="25.8" x="1266.6" y="81.0809">-codigo</text><text fill="#000000" font-family="sans-serif" font-size="6.6" lengthAdjust="spacingAndGlyphs" textLength="36" x="1266.6" y="88.8539">-descBreve</text><text fill="#000000" font-family="sans-serif" font-size="6.6" lengthAdjust="spacingAndGlyphs" textLength="50.4" x="1266.6" y="96.627">-descDetalhada</text><line style="stroke: #A80036; stroke-width: 0.8999999999999999;" x1="1263.6" x2="1330.2" y1="100.4191" y2="100.4191"/><ellipse cx="937.2" cy="146.4" fill="#000000" rx="1.2" ry="1.2" style="stroke: none; stroke-width: 0.6;"/><!--MD5=[512502001ccce49054c9400db8cbc860]
link DefinirCategoriaUI to DefinirCategoriaController--><path d="M85.218,176.4 C95.76,176.4 107.328,176.4 118.566,176.4 " fill="none" id="DefinirCategoriaUI-&gt;DefinirCategoriaController" style="stroke: #A80036; stroke-width: 0.6; stroke-dasharray: 7.0,7.0;"/><polygon fill="#A80036" points="121.722,176.4,116.322,174,118.722,176.4,116.322,178.8,121.722,176.4" style="stroke: #A80036; stroke-width: 0.6;"/><!--MD5=[0fe5c28e463b2014fef6d172a2d489ec]
link DefinirCategoriaController to Plataforma--><path d="M230.616,164.832 C241.158,162.57 252.456,160.146 263.748,157.728 " fill="none" id="DefinirCategoriaController-&gt;Plataforma" style="stroke: #A80036; stroke-width: 0.6; stroke-dasharray: 7.0,7.0;"/><polygon fill="#A80036" points="266.934,157.044,261.152,155.8241,264.0001,157.6702,262.154,160.5184,266.934,157.044" style="stroke: #A80036; stroke-width: 0.6;"/><!--MD5=[666a00fbd91b646ca611c9d5fcd09542]
link DefinirCategoriaController to AreaAtividade--><path d="M190.146,146.316 C214.434,97.098 270.582,4.8 350.1,4.8 C350.1,4.8 350.1,4.8 1126.5,4.8 C1175.982,4.8 1227.276,31.632 1260.354,53.07 " fill="none" id="DefinirCategoriaController-&gt;AreaAtividade" style="stroke: #A80036; stroke-width: 0.6; stroke-dasharray: 7.0,7.0;"/><polygon fill="#A80036" points="1262.898,54.738,1259.6968,49.7709,1260.3888,53.0937,1257.0659,53.7857,1262.898,54.738" style="stroke: #A80036; stroke-width: 0.6;"/><!--MD5=[bc75f439354c126562bc3903d6ab3dcd]
link DefinirCategoriaController to CompetenciaTecnica--><path d="M205.926,206.55 C238.164,236.436 293.082,277.8 350.1,277.8 C350.1,277.8 350.1,277.8 937.8,277.8 C982.56,277.8 1030.644,262.224 1066.908,247.026 " fill="none" id="DefinirCategoriaController-&gt;CompetenciaTecnica" style="stroke: #A80036; stroke-width: 0.6; stroke-dasharray: 7.0,7.0;"/><polygon fill="#A80036" points="1069.722,245.838,1063.8137,245.7281,1066.9584,247.0052,1065.6813,250.1499,1069.722,245.838" style="stroke: #A80036; stroke-width: 0.6;"/><!--MD5=[22a0c411e8298196ee56fe1fb1fc231a]
link DefinirCategoriaController to Categoria--><path d="M230.502,185.286 C306.354,196.14 448.674,210.39 567,187.2 C611.604,178.458 659.232,158.1 693.066,141.546 " fill="none" id="DefinirCategoriaController-&gt;Categoria" style="stroke: #A80036; stroke-width: 0.6; stroke-dasharray: 7.0,7.0;"/><polygon fill="#A80036" points="695.886,140.16,689.9809,140.383,693.1925,141.481,692.0945,144.6926,695.886,140.16" style="stroke: #A80036; stroke-width: 0.6;"/><!--MD5=[da2effc4092d80cc2c399afb8854d85a]
link Plataforma to RegistoAreaAtividade--><path d="M402.87,109.164 C427.344,96.108 457.428,81.744 486,72.6 C517.086,62.652 553.338,56.802 581.802,53.442 " fill="none" id="Plataforma-&gt;RegistoAreaAtividade" style="stroke: #A80036; stroke-width: 0.6;"/><polygon fill="#A80036" points="584.886,53.082,579.2467,51.3162,581.9057,53.4255,579.7964,56.0846,584.886,53.082" style="stroke: #A80036; stroke-width: 0.6;"/><text fill="#000000" font-family="sans-serif" font-size="7.8" lengthAdjust="spacingAndGlyphs" textLength="14.4" x="453" y="77.741">tem</text><text fill="#000000" font-family="sans-serif" font-size="7.8" lengthAdjust="spacingAndGlyphs" textLength="4.8" x="405.38" y="102.6541">1</text><text fill="#000000" font-family="sans-serif" font-size="7.8" lengthAdjust="spacingAndGlyphs" textLength="4.8" x="575.4144" y="61.4334">1</text><!--MD5=[4f06741411320007e7f35449f94268cd]
link Plataforma to RegistoCT--><path d="M434.424,161.34 C451.392,165.252 469.194,168.924 486,171.6 C595.998,189.12 726.282,196.41 798.336,199.278 " fill="none" id="Plataforma-&gt;RegistoCT" style="stroke: #A80036; stroke-width: 0.6;"/><polygon fill="#A80036" points="801.51,199.404,796.2031,196.8047,798.5121,199.2923,796.0244,201.6013,801.51,199.404" style="stroke: #A80036; stroke-width: 0.6;"/><text fill="#000000" font-family="sans-serif" font-size="7.8" lengthAdjust="spacingAndGlyphs" textLength="14.4" x="519.3" y="169.541">tem</text><text fill="#000000" font-family="sans-serif" font-size="7.8" lengthAdjust="spacingAndGlyphs" textLength="4.8" x="439.1339" y="170.3459">1</text><text fill="#000000" font-family="sans-serif" font-size="7.8" lengthAdjust="spacingAndGlyphs" textLength="4.8" x="792.0101" y="207.2049">1</text><!--MD5=[02f9e17834c31cd5073a7dac20ea5e44]
link Plataforma to RegistoCategorias--><path d="M434.508,128.622 C451.236,126.492 468.168,124.338 482.832,122.478 " fill="none" id="Plataforma-&gt;RegistoCategorias" style="stroke: #A80036; stroke-width: 0.6;"/><polygon fill="#A80036" points="485.928,122.082,480.2642,120.3964,482.9529,122.4678,480.8815,125.1565,485.928,122.082" style="stroke: #A80036; stroke-width: 0.6;"/><text fill="#000000" font-family="sans-serif" font-size="7.8" lengthAdjust="spacingAndGlyphs" textLength="14.4" x="453" y="123.341">tem</text><text fill="#000000" font-family="sans-serif" font-size="7.8" lengthAdjust="spacingAndGlyphs" textLength="4.8" x="439.2225" y="135.8387">1</text><text fill="#000000" font-family="sans-serif" font-size="7.8" lengthAdjust="spacingAndGlyphs" textLength="4.8" x="476.4279" y="130.6886">1</text><!--MD5=[ab7f4c8381bbec3d0b04adfd2d4b5002]
link RegistoAreaAtividade to AreaAtividade--><path d="M678.042,48.606 C722.766,48.084 792.642,47.4 853.2,47.4 C853.2,47.4 853.2,47.4 1126.5,47.4 C1173.156,47.4 1225.806,59.142 1259.94,68.352 " fill="none" id="RegistoAreaAtividade-&gt;AreaAtividade" style="stroke: #A80036; stroke-width: 0.6;"/><polygon fill="#A80036" points="1262.976,69.18,1258.3959,65.446,1260.0813,68.3921,1257.1352,70.0775,1262.976,69.18" style="stroke: #A80036; stroke-width: 0.6;"/><text fill="#000000" font-family="sans-serif" font-size="7.8" lengthAdjust="spacingAndGlyphs" textLength="25.2" x="924.6" y="45.341">possui</text><text fill="#000000" font-family="sans-serif" font-size="7.8" lengthAdjust="spacingAndGlyphs" textLength="4.8" x="682.8597" y="56.5433">1</text><text fill="#000000" font-family="sans-serif" font-size="7.8" lengthAdjust="spacingAndGlyphs" textLength="3.6" x="1254.5756" y="75.9972">*</text><!--MD5=[9e16af19542585777eaa8869a15e5907]
link RegistoCategorias to Categoria--><path d="M567.246,117 C602.988,117 655.284,117 692.808,117 " fill="none" id="RegistoCategorias-&gt;Categoria" style="stroke: #A80036; stroke-width: 0.6;"/><polygon fill="#A80036" points="695.94,117,690.54,114.6,692.94,117,690.54,119.4,695.94,117" style="stroke: #A80036; stroke-width: 0.6;"/><text fill="#000000" font-family="sans-serif" font-size="7.8" lengthAdjust="spacingAndGlyphs" textLength="25.2" x="618.9" y="114.941">possui</text><text fill="#000000" font-family="sans-serif" font-size="7.8" lengthAdjust="spacingAndGlyphs" textLength="4.8" x="571.6954" y="125.0216">1</text><text fill="#000000" font-family="sans-serif" font-size="7.8" lengthAdjust="spacingAndGlyphs" textLength="3.6" x="687.6313" y="125.023">*</text><!--MD5=[c2b02cfdb8aa70326365b04c36bb2b6f]
link RegistoCT to CompetenciaTecnica--><path d="M906.15,204.324 C951.984,207.27 1018.848,211.56 1066.65,214.632 " fill="none" id="RegistoCT-&gt;CompetenciaTecnica" style="stroke: #A80036; stroke-width: 0.6;"/><polygon fill="#A80036" points="1069.77,214.836,1064.5317,212.101,1066.7759,214.6473,1064.2297,216.8915,1069.77,214.836" style="stroke: #A80036; stroke-width: 0.6;"/><text fill="#000000" font-family="sans-serif" font-size="7.8" lengthAdjust="spacingAndGlyphs" textLength="25.2" x="924.6" y="203.141">possui</text><text fill="#000000" font-family="sans-serif" font-size="7.8" lengthAdjust="spacingAndGlyphs" textLength="4.8" x="910.8551" y="212.5477">1</text><text fill="#000000" font-family="sans-serif" font-size="7.8" lengthAdjust="spacingAndGlyphs" textLength="3.6" x="1061.3727" y="222.4678">*</text><!--MD5=[333932e5e4606ec9852f0cecc179b212]
link Categoria to AreaAtividade--><path d="M783.786,114.048 C889.956,106.83 1161.318,88.38 1259.85,81.678 " fill="none" id="Categoria-&gt;AreaAtividade" style="stroke: #A80036; stroke-width: 0.6;"/><polygon fill="#A80036" points="1263,81.462,1257.4481,79.4381,1260.0071,81.6678,1257.7774,84.2268,1263,81.462" style="stroke: #A80036; stroke-width: 0.6;"/><text fill="#000000" font-family="sans-serif" font-size="7.8" lengthAdjust="spacingAndGlyphs" textLength="61.8" x="979.2" y="93.941">enquadra-se em</text><text fill="#000000" font-family="sans-serif" font-size="7.8" lengthAdjust="spacingAndGlyphs" textLength="3.6" x="788.5077" y="121.7666">*</text><text fill="#000000" font-family="sans-serif" font-size="7.8" lengthAdjust="spacingAndGlyphs" textLength="4.8" x="1253.3222" y="89.9296">1</text><!--MD5=[762defaa8dc36db09f3ba34f362b08c2]
link Categoria to apoint8146--><path d="M783.702,123.486 C838.77,131.742 927.762,145.074 935.988,146.31 " fill="none" id="Categoria-apoint8146" style="stroke: #A80036; stroke-width: 0.6;"/><text fill="#000000" font-family="sans-serif" font-size="7.8" lengthAdjust="spacingAndGlyphs" textLength="24" x="841.8" y="124.541">requer</text><text fill="#000000" font-family="sans-serif" font-size="7.8" lengthAdjust="spacingAndGlyphs" textLength="3.6" x="788.415" y="132.1779">*</text><!--MD5=[dbd8f83ee9806b7317fbc02dec0342f9]
link apoint8146 to CompetenciaTecnica--><path d="M938.472,147.162 C941.544,150.606 954.69,164.826 968.4,172.2 C977.406,177.042 1025.952,191.064 1066.686,202.398 " fill="none" id="apoint8146-&gt;CompetenciaTecnica" style="stroke: #A80036; stroke-width: 0.6;"/><polygon fill="#A80036" points="1069.608,203.208,1065.0514,199.4454,1066.7183,202.402,1063.7617,204.0689,1069.608,203.208" style="stroke: #A80036; stroke-width: 0.6;"/><text fill="#000000" font-family="sans-serif" font-size="7.8" lengthAdjust="spacingAndGlyphs" textLength="3.6" x="1061.3788" y="209.9098">*</text><!--MD5=[301e08258f7f2cca0351f46f026616eb]
link apoint8146 to CaraterCT--><path d="M938.604,146.4 C941.868,146.4 954.582,146.4 968.364,146.4 " fill="none" id="apoint8146-CaraterCT" style="stroke: #A80036; stroke-width: 0.6; stroke-dasharray: 7.0,7.0;"/><!--MD5=[8c0835971d966be6a8d860f4ee2f4601]
link CaraterCT to GrauProficiencia--><path d="M1051.842,146.61 C1098.06,147.162 1175.268,149.07 1241.4,155.4 C1246.17,155.856 1251.156,156.45 1256.094,157.116 " fill="none" id="CaraterCT-&gt;GrauProficiencia" style="stroke: #A80036; stroke-width: 0.6;"/><polygon fill="#A80036" points="1259.16,157.536,1254.141,154.4167,1256.1885,157.1238,1253.4814,159.1712,1259.16,157.536" style="stroke: #A80036; stroke-width: 0.6;"/><text fill="#000000" font-family="sans-serif" font-size="7.8" lengthAdjust="spacingAndGlyphs" textLength="79.8" x="1086" y="144.941">exige (como mínimo)</text><text fill="#000000" font-family="sans-serif" font-size="7.8" lengthAdjust="spacingAndGlyphs" textLength="3.6" x="1056.6044" y="154.6793">*</text><text fill="#000000" font-family="sans-serif" font-size="7.8" lengthAdjust="spacingAndGlyphs" textLength="4.8" x="1249.7188" y="164.8869">1</text><!--MD5=[e538c9efa8de58386edc6206f3c58807]
link CompetenciaTecnica to AreaAtividade--><path d="M1169.298,184.464 C1191.018,167.118 1217.742,145.59 1241.4,126 C1248.594,120.042 1256.256,113.586 1263.498,107.424 " fill="none" id="CompetenciaTecnica-&gt;AreaAtividade" style="stroke: #A80036; stroke-width: 0.6;"/><polygon fill="#A80036" points="1265.94,105.348,1260.2745,107.0278,1263.658,107.2954,1263.3903,110.679,1265.94,105.348" style="stroke: #A80036; stroke-width: 0.6;"/><text fill="#000000" font-family="sans-serif" font-size="7.8" lengthAdjust="spacingAndGlyphs" textLength="40.2" x="1200.6" y="123.941">referente a</text><text fill="#000000" font-family="sans-serif" font-size="7.8" lengthAdjust="spacingAndGlyphs" textLength="3.6" x="1171.0277" y="178.101">*</text><text fill="#000000" font-family="sans-serif" font-size="7.8" lengthAdjust="spacingAndGlyphs" textLength="4.8" x="1256.0317" y="117.6024">1</text><!--MD5=[0d731ff285a62a08178b23be6cceb109]
link CompetenciaTecnica to GrauProficiencia--><path d="M1182.06,218.772 C1201.404,217.308 1222.884,213.84 1241.4,206.4 C1252.044,202.122 1262.352,195.15 1271.106,188.07 " fill="none" id="CompetenciaTecnica-&gt;GrauProficiencia" style="stroke: #A80036; stroke-width: 0.6;"/><polygon fill="#A80036" points="1273.536,186.072,1267.8441,187.6603,1271.2229,187.9824,1270.9008,191.3612,1273.536,186.072" style="stroke: #A80036; stroke-width: 0.6;"/><text fill="#000000" font-family="sans-serif" font-size="7.8" lengthAdjust="spacingAndGlyphs" textLength="22.2" x="1209.6" y="204.341">aplica</text><text fill="#000000" font-family="sans-serif" font-size="7.8" lengthAdjust="spacingAndGlyphs" textLength="4.8" x="1186.7265" y="226.714">1</text><text fill="#000000" font-family="sans-serif" font-size="7.8" lengthAdjust="spacingAndGlyphs" textLength="3.6" x="1265.6109" y="198.2351">*</text><!--MD5=[12582ead5fa786dad4dd888334f66742]
@startuml
skinparam classAttributeIconSize 0
left to right direction
class DefinirCategoriaUI {
}

class DefinirCategoriaController {
  +novaCategoria(desc)
  +setAT(atCod)
  +addCaraterCT(ctCod,ob)
  +registaCategoria()
}

class Plataforma {
  -designacao
  +RegistoAreaAtividade getRegistoAreaAtividade()
  +RegistoCT getRegistoCT()
  +RegistoCategorias getRegistoCategorias()
}

class RegistoAreaAtividade {
  +getAT(String atCod)
  +getListaAT()
}

class RegistoCT {
  +getCT(catCod)
  +getListaCT(AreaAtividade at)
}

class RegistoCategorias {
  +novaCategoria(desc)
  +registaCategoria(cat)
  -validaCategoria(cat)
  -geraCategoriaId()
  -addCategoria(cat)
}

class CompetenciaTecnica {
  -codigo
  -descBreve
  -descDetalhada
  +getGraus()
  +getGrauProficiencia(valorGrau)
}

class GrauProficiencia {
  -Integer valor
  -String designacao
}

class CaraterCT {
  -obrigatoria
  +CaraterCT(ct,grau,ob)
}


class Categoria {
  -id
  -descricao
  +Categoria(id,desc,at)
  +addCaraterCT(ct,gr,ob)
  -validaCaraterCT(cct)
  -addCaraterCT(cct)
}

class AreaAtividade {
  -codigo
  -descBreve
  -descDetalhada
}

DefinirCategoriaUI ..> DefinirCategoriaController
DefinirCategoriaController ..> Plataforma
DefinirCategoriaController ..> AreaAtividade
DefinirCategoriaController ..> CompetenciaTecnica
DefinirCategoriaController ..> Categoria
Plataforma "1" - -> "1" RegistoAreaAtividade : tem
Plataforma "1" - -> "1" RegistoCT : tem
Plataforma "1" - -> "1" RegistoCategorias : tem

RegistoAreaAtividade "1" - -> "*" AreaAtividade : possui
RegistoCategorias "1" - -> "*" Categoria : possui

RegistoCT "1" - -> "*" CompetenciaTecnica : possui

Categoria "*" - -> "1" AreaAtividade: enquadra-se em
Categoria "*" - -> "*" CompetenciaTecnica: requer
(Categoria, CompetenciaTecnica) .. CaraterCT
CaraterCT "*" -r-> "1" GrauProficiencia: exige (como mínimo)

CompetenciaTecnica "*" - -> "1" AreaAtividade : referente a
CompetenciaTecnica "1" - -> "*" GrauProficiencia : aplica






@enduml

PlantUML version 1.2020.07(Sun Apr 19 12:42:40 WEST 2020)
(GPL source distribution)
Java Runtime: OpenJDK Runtime Environment
JVM: OpenJDK 64-Bit Server VM
Java Version: 11.0.6+8-b765.25
Operating System: Mac OS X
Default Encoding: UTF-8
Language: en
Country: PT
--></g></svg>