<?xml version="1.0" encoding="UTF-8" standalone="no"?><svg xmlns="http://www.w3.org/2000/svg" xmlns:xlink="http://www.w3.org/1999/xlink" contentScriptType="application/ecmascript" contentStyleType="text/css" height="683.4px" preserveAspectRatio="none" style="width:841px;height:683px;" version="1.1" viewBox="0 0 841 683" width="841.2px" zoomAndPan="magnify"><defs><filter height="300%" id="f3m2s1uuoqinh" width="300%" x="-1" y="-1"><feGaussianBlur result="blurOut" stdDeviation="1.2"/><feColorMatrix in="blurOut" result="blurOut2" type="matrix" values="0 0 0 0 0 0 0 0 0 0 0 0 0 0 0 0 0 0 .4 0"/><feOffset dx="2.4" dy="2.4" in="blurOut2" result="blurOut3"/><feBlend in="SourceGraphic" in2="blurOut3" mode="normal"/></filter></defs><g><!--MD5=[380d12a68ed0046a60f31008a02875d0]
class AplicacaoPOT--><rect fill="#FEFECE" filter="url(#f3m2s1uuoqinh)" height="44.3461" id="AplicacaoPOT" style="stroke: #A80036; stroke-width: 0.8999999999999999;" width="73.8" x="4.8" y="16.5"/><ellipse cx="17.04" cy="26.1" fill="#ADD1B2" rx="6.6" ry="6.6" style="stroke: #A80036; stroke-width: 0.6;"/><path d="M18.5239,29.7858 Q18.1753,29.9651 17.7918,30.0548 Q17.4083,30.1444 16.9849,30.1444 Q15.4808,30.1444 14.6889,29.1533 Q13.897,28.1622 13.897,26.2896 Q13.897,24.4119 14.6889,23.4208 Q15.4808,22.4297 16.9849,22.4297 Q17.4083,22.4297 17.7967,22.5193 Q18.1852,22.609 18.5239,22.7883 L18.5239,24.4219 Q18.1454,24.0732 17.7893,23.9114 Q17.4332,23.7495 17.0546,23.7495 Q16.2478,23.7495 15.8369,24.3895 Q15.426,25.0295 15.426,26.2896 Q15.426,27.5446 15.8369,28.1846 Q16.2478,28.8246 17.0546,28.8246 Q17.4332,28.8246 17.7893,28.6627 Q18.1454,28.5009 18.5239,28.1522 Z "/><text fill="#000000" font-family="sans-serif" font-size="7.2" lengthAdjust="spacingAndGlyphs" textLength="47.4" x="26.16" y="28.8211">AplicacaoPOT</text><line style="stroke: #A80036; stroke-width: 0.8999999999999999;" x1="5.4" x2="78" y1="35.7" y2="35.7"/><line style="stroke: #A80036; stroke-width: 0.8999999999999999;" x1="5.4" x2="78" y1="40.5" y2="40.5"/><text fill="#000000" font-family="sans-serif" font-size="6.6" lengthAdjust="spacingAndGlyphs" textLength="66.6" x="8.4" y="49.2809">+static getInstance()</text><text fill="#000000" font-family="sans-serif" font-size="6.6" lengthAdjust="spacingAndGlyphs" textLength="59.4" x="8.4" y="57.0539">+getSessaoAtual()</text><!--MD5=[1e13576e8c070e32200b62ceaa1f39ec]
class SessaoUtilizador--><rect fill="#FEFECE" filter="url(#f3m2s1uuoqinh)" height="36.573" id="SessaoUtilizador" style="stroke: #A80036; stroke-width: 0.8999999999999999;" width="75.6" x="99.9" y="20.4"/><ellipse cx="108.9" cy="30" fill="#ADD1B2" rx="6.6" ry="6.6" style="stroke: #A80036; stroke-width: 0.6;"/><path d="M110.3839,33.6858 Q110.0353,33.8651 109.6518,33.9548 Q109.2683,34.0444 108.8449,34.0444 Q107.3408,34.0444 106.5489,33.0533 Q105.757,32.0622 105.757,30.1896 Q105.757,28.3119 106.5489,27.3208 Q107.3408,26.3297 108.8449,26.3297 Q109.2683,26.3297 109.6567,26.4193 Q110.0452,26.509 110.3839,26.6883 L110.3839,28.3219 Q110.0054,27.9732 109.6493,27.8114 Q109.2932,27.6495 108.9146,27.6495 Q108.1078,27.6495 107.6969,28.2895 Q107.286,28.9295 107.286,30.1896 Q107.286,31.4446 107.6969,32.0846 Q108.1078,32.7246 108.9146,32.7246 Q109.2932,32.7246 109.6493,32.5627 Q110.0054,32.4009 110.3839,32.0522 Z "/><text fill="#000000" font-family="sans-serif" font-size="7.2" lengthAdjust="spacingAndGlyphs" textLength="56.4" x="117.3" y="32.7211">SessaoUtilizador</text><line style="stroke: #A80036; stroke-width: 0.8999999999999999;" x1="100.5" x2="174.9" y1="39.6" y2="39.6"/><line style="stroke: #A80036; stroke-width: 0.8999999999999999;" x1="100.5" x2="174.9" y1="44.4" y2="44.4"/><text fill="#000000" font-family="sans-serif" font-size="6.6" lengthAdjust="spacingAndGlyphs" textLength="68.4" x="103.5" y="53.1809">+getEmailUtilizador()</text><!--MD5=[807977ceb130c090ed5febfb6de2bdea]
class Organizacao--><rect fill="#FEFECE" filter="url(#f3m2s1uuoqinh)" height="83.2113" id="Organizacao" style="stroke: #A80036; stroke-width: 0.8999999999999999;" width="151.8" x="315" y="259.2"/><ellipse cx="366.75" cy="268.8" fill="#ADD1B2" rx="6.6" ry="6.6" style="stroke: #A80036; stroke-width: 0.6;"/><path d="M368.2339,272.4858 Q367.8853,272.6651 367.5018,272.7548 Q367.1183,272.8444 366.6949,272.8444 Q365.1908,272.8444 364.3989,271.8533 Q363.607,270.8622 363.607,268.9896 Q363.607,267.1119 364.3989,266.1208 Q365.1908,265.1297 366.6949,265.1297 Q367.1183,265.1297 367.5067,265.2193 Q367.8952,265.309 368.2339,265.4883 L368.2339,267.1219 Q367.8554,266.7732 367.4993,266.6114 Q367.1432,266.4495 366.7646,266.4495 Q365.9578,266.4495 365.5469,267.0895 Q365.136,267.7295 365.136,268.9896 Q365.136,270.2446 365.5469,270.8846 Q365.9578,271.5246 366.7646,271.5246 Q367.1432,271.5246 367.4993,271.3627 Q367.8554,271.2009 368.2339,270.8522 Z "/><text fill="#000000" font-family="sans-serif" font-size="7.2" lengthAdjust="spacingAndGlyphs" textLength="43.2" x="379.05" y="271.5211">Organizacao</text><line style="stroke: #A80036; stroke-width: 0.8999999999999999;" x1="315.6" x2="466.2" y1="278.4" y2="278.4"/><text fill="#000000" font-family="sans-serif" font-size="6.6" lengthAdjust="spacingAndGlyphs" textLength="42.6" x="318.6" y="287.1809">-String nome</text><text fill="#000000" font-family="sans-serif" font-size="6.6" lengthAdjust="spacingAndGlyphs" textLength="34.8" x="318.6" y="294.9539">-String NIF</text><text fill="#000000" font-family="sans-serif" font-size="6.6" lengthAdjust="spacingAndGlyphs" textLength="48.6" x="318.6" y="302.727">-String website</text><text fill="#000000" font-family="sans-serif" font-size="6.6" lengthAdjust="spacingAndGlyphs" textLength="50.4" x="318.6" y="310.5">-String telefone</text><text fill="#000000" font-family="sans-serif" font-size="6.6" lengthAdjust="spacingAndGlyphs" textLength="41.4" x="318.6" y="318.273">-String email</text><line style="stroke: #A80036; stroke-width: 0.8999999999999999;" x1="315.6" x2="466.2" y1="322.0652" y2="322.0652"/><text fill="#000000" font-family="sans-serif" font-size="6.6" lengthAdjust="spacingAndGlyphs" textLength="100.2" x="318.6" y="330.8461">+ListaTarefas getListaTarefas()</text><text fill="#000000" font-family="sans-serif" font-size="6.6" lengthAdjust="spacingAndGlyphs" textLength="144.6" x="318.6" y="338.6191">+Colaborador getColaboradorByEmail(email)</text><!--MD5=[0b8c11e89e8561660fecfc719ed33ad4]
class ListaTarefas--><rect fill="#FEFECE" filter="url(#f3m2s1uuoqinh)" height="44.3461" id="ListaTarefas" style="stroke: #A80036; stroke-width: 0.8999999999999999;" width="143.4" x="329.4" y="408.3"/><ellipse cx="377.55" cy="417.9" fill="#ADD1B2" rx="6.6" ry="6.6" style="stroke: #A80036; stroke-width: 0.6;"/><path d="M379.0339,421.5858 Q378.6853,421.7651 378.3018,421.8548 Q377.9183,421.9444 377.4949,421.9444 Q375.9908,421.9444 375.1989,420.9533 Q374.407,419.9622 374.407,418.0896 Q374.407,416.2119 375.1989,415.2208 Q375.9908,414.2297 377.4949,414.2297 Q377.9183,414.2297 378.3067,414.3193 Q378.6952,414.409 379.0339,414.5883 L379.0339,416.2219 Q378.6554,415.8732 378.2993,415.7114 Q377.9432,415.5495 377.5646,415.5495 Q376.7578,415.5495 376.3469,416.1895 Q375.936,416.8295 375.936,418.0896 Q375.936,419.3446 376.3469,419.9846 Q376.7578,420.6246 377.5646,420.6246 Q377.9432,420.6246 378.2993,420.4627 Q378.6554,420.3009 379.0339,419.9522 Z "/><text fill="#000000" font-family="sans-serif" font-size="7.2" lengthAdjust="spacingAndGlyphs" textLength="42" x="389.85" y="420.6211">ListaTarefas</text><line style="stroke: #A80036; stroke-width: 0.8999999999999999;" x1="330" x2="472.2" y1="427.5" y2="427.5"/><line style="stroke: #A80036; stroke-width: 0.8999999999999999;" x1="330" x2="472.2" y1="432.3" y2="432.3"/><text fill="#000000" font-family="sans-serif" font-size="6.6" lengthAdjust="spacingAndGlyphs" textLength="128.4" x="333" y="441.0809">+List&lt;Tarefa&gt; getTarefaParaPublicar(c)</text><text fill="#000000" font-family="sans-serif" font-size="6.6" lengthAdjust="spacingAndGlyphs" textLength="136.2" x="333" y="448.8539">+Tarefa getTarefaParaPublicarByRef(ref, c)</text><!--MD5=[27c2d4bbe9f7b9d3b0ea2797cc54308a]
class Tarefa--><rect fill="#FEFECE" filter="url(#f3m2s1uuoqinh)" height="83.2113" id="Tarefa" style="stroke: #A80036; stroke-width: 0.8999999999999999;" width="73.8" x="481.8" y="518.4"/><ellipse cx="505.11" cy="528" fill="#ADD1B2" rx="6.6" ry="6.6" style="stroke: #A80036; stroke-width: 0.6;"/><path d="M506.5939,531.6858 Q506.2453,531.8651 505.8618,531.9548 Q505.4783,532.0444 505.0549,532.0444 Q503.5508,532.0444 502.7589,531.0533 Q501.967,530.0622 501.967,528.1896 Q501.967,526.3119 502.7589,525.3208 Q503.5508,524.3297 505.0549,524.3297 Q505.4783,524.3297 505.8667,524.4193 Q506.2552,524.509 506.5939,524.6883 L506.5939,526.3219 Q506.2154,525.9732 505.8593,525.8114 Q505.5032,525.6495 505.1246,525.6495 Q504.3178,525.6495 503.9069,526.2895 Q503.496,526.9295 503.496,528.1896 Q503.496,529.4446 503.9069,530.0846 Q504.3178,530.7246 505.1246,530.7246 Q505.5032,530.7246 505.8593,530.5627 Q506.2154,530.4009 506.5939,530.0522 Z "/><text fill="#000000" font-family="sans-serif" font-size="7.2" lengthAdjust="spacingAndGlyphs" textLength="22.8" x="516.69" y="530.7211">Tarefa</text><line style="stroke: #A80036; stroke-width: 0.8999999999999999;" x1="482.4" x2="555" y1="537.6" y2="537.6"/><text fill="#000000" font-family="sans-serif" font-size="6.6" lengthAdjust="spacingAndGlyphs" textLength="57" x="485.4" y="546.3809">-String referencia</text><text fill="#000000" font-family="sans-serif" font-size="6.6" lengthAdjust="spacingAndGlyphs" textLength="61.2" x="485.4" y="554.1539">-String designacao</text><text fill="#000000" font-family="sans-serif" font-size="6.6" lengthAdjust="spacingAndGlyphs" textLength="66.6" x="485.4" y="561.927">-String descInformal</text><text fill="#000000" font-family="sans-serif" font-size="6.6" lengthAdjust="spacingAndGlyphs" textLength="64.2" x="485.4" y="569.7">-String descTecnica</text><text fill="#000000" font-family="sans-serif" font-size="6.6" lengthAdjust="spacingAndGlyphs" textLength="64.2" x="485.4" y="577.473">-Integer duracaoEst</text><text fill="#000000" font-family="sans-serif" font-size="6.6" lengthAdjust="spacingAndGlyphs" textLength="55.8" x="485.4" y="585.2461">-Double custoEst</text><line style="stroke: #A80036; stroke-width: 0.8999999999999999;" x1="482.4" x2="555" y1="589.0383" y2="589.0383"/><text fill="#000000" font-family="sans-serif" font-size="6.6" lengthAdjust="spacingAndGlyphs" textLength="48.6" x="485.4" y="597.8191">+publicar(anu)</text><!--MD5=[ecaed46f78f8cfe1e9ce18477649be18]
class Plataforma--><rect fill="#FEFECE" filter="url(#f3m2s1uuoqinh)" height="59.8922" id="Plataforma" style="stroke: #A80036; stroke-width: 0.8999999999999999;" width="178.2" x="516" y="8.7"/><ellipse cx="583.95" cy="18.3" fill="#ADD1B2" rx="6.6" ry="6.6" style="stroke: #A80036; stroke-width: 0.6;"/><path d="M585.4339,21.9858 Q585.0853,22.1651 584.7018,22.2548 Q584.3183,22.3444 583.8949,22.3444 Q582.3908,22.3444 581.5989,21.3533 Q580.807,20.3622 580.807,18.4896 Q580.807,16.6119 581.5989,15.6208 Q582.3908,14.6297 583.8949,14.6297 Q584.3183,14.6297 584.7067,14.7193 Q585.0952,14.809 585.4339,14.9883 L585.4339,16.6219 Q585.0554,16.2732 584.6993,16.1114 Q584.3432,15.9495 583.9646,15.9495 Q583.1578,15.9495 582.7469,16.5895 Q582.336,17.2295 582.336,18.4896 Q582.336,19.7446 582.7469,20.3846 Q583.1578,21.0246 583.9646,21.0246 Q584.3432,21.0246 584.6993,20.8627 Q585.0554,20.7009 585.4339,20.3522 Z "/><text fill="#000000" font-family="sans-serif" font-size="7.2" lengthAdjust="spacingAndGlyphs" textLength="37.2" x="596.25" y="21.0211">Plataforma</text><line style="stroke: #A80036; stroke-width: 0.8999999999999999;" x1="516.6" x2="693.6" y1="27.9" y2="27.9"/><text fill="#000000" font-family="sans-serif" font-size="6.6" lengthAdjust="spacingAndGlyphs" textLength="61.2" x="519.6" y="36.6809">-String designacao</text><line style="stroke: #A80036; stroke-width: 0.8999999999999999;" x1="516.6" x2="693.6" y1="40.473" y2="40.473"/><text fill="#000000" font-family="sans-serif" font-size="6.6" lengthAdjust="spacingAndGlyphs" textLength="159" x="519.6" y="49.2539">+RegistoOrganizacoes getRegistoOrganizacoes()</text><text fill="#000000" font-family="sans-serif" font-size="6.6" lengthAdjust="spacingAndGlyphs" textLength="171" x="519.6" y="57.027">+RegistoTipoRegimento getRegistoTiposRegimento()</text><text fill="#000000" font-family="sans-serif" font-size="6.6" lengthAdjust="spacingAndGlyphs" textLength="131.4" x="519.6" y="64.8">+RegistoAnuncios getRegistoAnuncios()</text><!--MD5=[599021b52fcbb267fdd1ae8c4feac18d]
class RegistoTiposRegimento--><rect fill="#FEFECE" filter="url(#f3m2s1uuoqinh)" height="44.3461" id="RegistoTiposRegimento" style="stroke: #A80036; stroke-width: 0.8999999999999999;" width="169.2" x="665.7" y="196.8"/><ellipse cx="707.25" cy="206.4" fill="#ADD1B2" rx="6.6" ry="6.6" style="stroke: #A80036; stroke-width: 0.6;"/><path d="M708.7339,210.0858 Q708.3853,210.2651 708.0018,210.3548 Q707.6183,210.4444 707.1949,210.4444 Q705.6908,210.4444 704.8989,209.4533 Q704.107,208.4622 704.107,206.5896 Q704.107,204.7119 704.8989,203.7208 Q705.6908,202.7297 707.1949,202.7297 Q707.6183,202.7297 708.0067,202.8193 Q708.3952,202.909 708.7339,203.0883 L708.7339,204.7219 Q708.3554,204.3732 707.9993,204.2114 Q707.6432,204.0495 707.2646,204.0495 Q706.4578,204.0495 706.0469,204.6895 Q705.636,205.3295 705.636,206.5896 Q705.636,207.8446 706.0469,208.4846 Q706.4578,209.1246 707.2646,209.1246 Q707.6432,209.1246 707.9993,208.9627 Q708.3554,208.8009 708.7339,208.4522 Z "/><text fill="#000000" font-family="sans-serif" font-size="7.2" lengthAdjust="spacingAndGlyphs" textLength="81" x="719.55" y="209.1211">RegistoTiposRegimento</text><line style="stroke: #A80036; stroke-width: 0.8999999999999999;" x1="666.3" x2="834.3" y1="216" y2="216"/><line style="stroke: #A80036; stroke-width: 0.8999999999999999;" x1="666.3" x2="834.3" y1="220.8" y2="220.8"/><text fill="#000000" font-family="sans-serif" font-size="6.6" lengthAdjust="spacingAndGlyphs" textLength="145.2" x="669.3" y="229.5809">+List&lt;TipoRegimento&gt; getTiposRegimento()</text><text fill="#000000" font-family="sans-serif" font-size="6.6" lengthAdjust="spacingAndGlyphs" textLength="162" x="669.3" y="237.3539">+TipoRegimento getTipoRegimentoByDesc(desTR)</text><!--MD5=[548bd8e9f0dc9261535ca7b7174ac939]
class RegistoOrganizacoes--><rect fill="#FEFECE" filter="url(#f3m2s1uuoqinh)" height="36.573" id="RegistoOrganizacoes" style="stroke: #A80036; stroke-width: 0.8999999999999999;" width="183" x="284.4" y="130.5"/><ellipse cx="337.35" cy="140.1" fill="#ADD1B2" rx="6.6" ry="6.6" style="stroke: #A80036; stroke-width: 0.6;"/><path d="M338.8339,143.7858 Q338.4853,143.9651 338.1018,144.0548 Q337.7183,144.1444 337.2949,144.1444 Q335.7908,144.1444 334.9989,143.1533 Q334.207,142.1622 334.207,140.2896 Q334.207,138.4119 334.9989,137.4208 Q335.7908,136.4297 337.2949,136.4297 Q337.7183,136.4297 338.1067,136.5193 Q338.4952,136.609 338.8339,136.7883 L338.8339,138.4219 Q338.4554,138.0732 338.0993,137.9114 Q337.7432,137.7495 337.3646,137.7495 Q336.5578,137.7495 336.1469,138.3895 Q335.736,139.0295 335.736,140.2896 Q335.736,141.5446 336.1469,142.1846 Q336.5578,142.8246 337.3646,142.8246 Q337.7432,142.8246 338.0993,142.6627 Q338.4554,142.5009 338.8339,142.1522 Z "/><text fill="#000000" font-family="sans-serif" font-size="7.2" lengthAdjust="spacingAndGlyphs" textLength="72" x="349.65" y="142.8211">RegistoOrganizacoes</text><line style="stroke: #A80036; stroke-width: 0.8999999999999999;" x1="285" x2="466.8" y1="149.7" y2="149.7"/><line style="stroke: #A80036; stroke-width: 0.8999999999999999;" x1="285" x2="466.8" y1="154.5" y2="154.5"/><text fill="#000000" font-family="sans-serif" font-size="6.6" lengthAdjust="spacingAndGlyphs" textLength="175.8" x="288" y="163.2809">+Organizacao getOrganizacaoByEmailUtilizador(email)</text><!--MD5=[a7dddfa65532da486ef518ad0cedfd89]
class RegistoAnuncios--><rect fill="#FEFECE" filter="url(#f3m2s1uuoqinh)" height="59.8922" id="RegistoAnuncios" style="stroke: #A80036; stroke-width: 0.8999999999999999;" width="233.4" x="488.4" y="118.8"/><ellipse cx="574.65" cy="128.4" fill="#ADD1B2" rx="6.6" ry="6.6" style="stroke: #A80036; stroke-width: 0.6;"/><path d="M576.1339,132.0858 Q575.7853,132.2651 575.4018,132.3548 Q575.0183,132.4444 574.5949,132.4444 Q573.0908,132.4444 572.2989,131.4533 Q571.507,130.4622 571.507,128.5896 Q571.507,126.7119 572.2989,125.7208 Q573.0908,124.7297 574.5949,124.7297 Q575.0183,124.7297 575.4067,124.8193 Q575.7952,124.909 576.1339,125.0883 L576.1339,126.7219 Q575.7554,126.3732 575.3993,126.2114 Q575.0432,126.0495 574.6646,126.0495 Q573.8578,126.0495 573.4469,126.6895 Q573.036,127.3295 573.036,128.5896 Q573.036,129.8446 573.4469,130.4846 Q573.8578,131.1246 574.6646,131.1246 Q575.0432,131.1246 575.3993,130.9627 Q575.7554,130.8009 576.1339,130.4522 Z "/><text fill="#000000" font-family="sans-serif" font-size="7.2" lengthAdjust="spacingAndGlyphs" textLength="55.8" x="586.95" y="131.1211">RegistoAnuncios</text><line style="stroke: #A80036; stroke-width: 0.8999999999999999;" x1="489" x2="721.2" y1="138" y2="138"/><line style="stroke: #A80036; stroke-width: 0.8999999999999999;" x1="489" x2="721.2" y1="142.8" y2="142.8"/><text fill="#000000" font-family="sans-serif" font-size="6.6" lengthAdjust="spacingAndGlyphs" textLength="226.2" x="492" y="151.5809">+novoAnuncio(c,tarefa,dtIniP,dtFimP,dtIniC,dtFimC,dtIniS,dtFimS,regT)</text><text fill="#000000" font-family="sans-serif" font-size="6.6" lengthAdjust="spacingAndGlyphs" textLength="67.8" x="492" y="159.3539">+validaAnuncio(anu)</text><text fill="#000000" font-family="sans-serif" font-size="6.6" lengthAdjust="spacingAndGlyphs" textLength="71.4" x="492" y="167.127">+registaAnuncio(anu)</text><text fill="#000000" font-family="sans-serif" font-size="6.6" lengthAdjust="spacingAndGlyphs" textLength="59.4" x="492" y="174.9">-addAnuncio(anu)</text><!--MD5=[19db0db7353a4bf63eefc676e5ba9b80]
class Anuncio--><rect fill="#FEFECE" filter="url(#f3m2s1uuoqinh)" height="83.2113" id="Anuncio" style="stroke: #A80036; stroke-width: 0.8999999999999999;" width="219" x="495.6" y="388.8"/><ellipse cx="589.05" cy="398.4" fill="#ADD1B2" rx="6.6" ry="6.6" style="stroke: #A80036; stroke-width: 0.6;"/><path d="M590.5339,402.0858 Q590.1853,402.2651 589.8018,402.3548 Q589.4183,402.4444 588.9949,402.4444 Q587.4908,402.4444 586.6989,401.4533 Q585.907,400.4622 585.907,398.5896 Q585.907,396.7119 586.6989,395.7208 Q587.4908,394.7297 588.9949,394.7297 Q589.4183,394.7297 589.8067,394.8193 Q590.1952,394.909 590.5339,395.0883 L590.5339,396.7219 Q590.1554,396.3732 589.7993,396.2114 Q589.4432,396.0495 589.0646,396.0495 Q588.2578,396.0495 587.8469,396.6895 Q587.436,397.3295 587.436,398.5896 Q587.436,399.8446 587.8469,400.4846 Q588.2578,401.1246 589.0646,401.1246 Q589.4432,401.1246 589.7993,400.9627 Q590.1554,400.8009 590.5339,400.4522 Z "/><text fill="#000000" font-family="sans-serif" font-size="7.2" lengthAdjust="spacingAndGlyphs" textLength="27" x="601.35" y="401.1211">Anuncio</text><line style="stroke: #A80036; stroke-width: 0.8999999999999999;" x1="496.2" x2="714" y1="408" y2="408"/><text fill="#000000" font-family="sans-serif" font-size="6.6" lengthAdjust="spacingAndGlyphs" textLength="82.2" x="499.2" y="416.7809">-Date dtInicioPublicitacao</text><text fill="#000000" font-family="sans-serif" font-size="6.6" lengthAdjust="spacingAndGlyphs" textLength="76.2" x="499.2" y="424.5539">-Date dtFimPublicitacao</text><text fill="#000000" font-family="sans-serif" font-size="6.6" lengthAdjust="spacingAndGlyphs" textLength="83.4" x="499.2" y="432.327">-Date dtInicioCandidatura</text><text fill="#000000" font-family="sans-serif" font-size="6.6" lengthAdjust="spacingAndGlyphs" textLength="77.4" x="499.2" y="440.1">-Date dtFimCandidatura</text><text fill="#000000" font-family="sans-serif" font-size="6.6" lengthAdjust="spacingAndGlyphs" textLength="70.8" x="499.2" y="447.873">-Date dtInicioSeriacao</text><text fill="#000000" font-family="sans-serif" font-size="6.6" lengthAdjust="spacingAndGlyphs" textLength="64.8" x="499.2" y="455.6461">-Date dtFimSeriacao</text><line style="stroke: #A80036; stroke-width: 0.8999999999999999;" x1="496.2" x2="714" y1="459.4383" y2="459.4383"/><text fill="#000000" font-family="sans-serif" font-size="6.6" lengthAdjust="spacingAndGlyphs" textLength="211.8" x="499.2" y="468.2191">+Anuncio(c, tarefa,dtIniP,dtFimP,dtIniC,dtFimC,dtIniS,dtFimS,regT)</text><!--MD5=[49160b288b1e83d57ecadd2105b8a895]
class PublicarTarefaController--><rect fill="#FEFECE" filter="url(#f3m2s1uuoqinh)" height="67.6652" id="PublicarTarefaController" style="stroke: #A80036; stroke-width: 0.8999999999999999;" width="212.4" x="196.5" y="4.8"/><ellipse cx="258.15" cy="14.4" fill="#ADD1B2" rx="6.6" ry="6.6" style="stroke: #A80036; stroke-width: 0.6;"/><path d="M259.6339,18.0858 Q259.2853,18.2651 258.9018,18.3548 Q258.5183,18.4444 258.0949,18.4444 Q256.5908,18.4444 255.7989,17.4533 Q255.007,16.4622 255.007,14.5896 Q255.007,12.7119 255.7989,11.7208 Q256.5908,10.7297 258.0949,10.7297 Q258.5183,10.7297 258.9067,10.8193 Q259.2952,10.909 259.6339,11.0883 L259.6339,12.7219 Q259.2554,12.3732 258.8993,12.2114 Q258.5432,12.0495 258.1646,12.0495 Q257.3578,12.0495 256.9469,12.6895 Q256.536,13.3295 256.536,14.5896 Q256.536,15.8446 256.9469,16.4846 Q257.3578,17.1246 258.1646,17.1246 Q258.5432,17.1246 258.8993,16.9627 Q259.2554,16.8009 259.6339,16.4522 Z "/><text fill="#000000" font-family="sans-serif" font-size="7.2" lengthAdjust="spacingAndGlyphs" textLength="84" x="270.45" y="17.1211">PublicarTarefaController</text><line style="stroke: #A80036; stroke-width: 0.8999999999999999;" x1="197.1" x2="408.3" y1="24" y2="24"/><line style="stroke: #A80036; stroke-width: 0.8999999999999999;" x1="197.1" x2="408.3" y1="28.8" y2="28.8"/><text fill="#000000" font-family="sans-serif" font-size="6.6" lengthAdjust="spacingAndGlyphs" textLength="84" x="200.1" y="37.5809">+getTarefasParaPublicar()</text><text fill="#000000" font-family="sans-serif" font-size="6.6" lengthAdjust="spacingAndGlyphs" textLength="69.6" x="200.1" y="45.3539">+selecionaTarefa(ref)</text><text fill="#000000" font-family="sans-serif" font-size="6.6" lengthAdjust="spacingAndGlyphs" textLength="72.6" x="200.1" y="53.127">+getTiposRegimento()</text><text fill="#000000" font-family="sans-serif" font-size="6.6" lengthAdjust="spacingAndGlyphs" textLength="205.2" x="200.1" y="60.9">+novoAnuncio(dtIniP,dtFimP,dtIniC,dtFimC,dtIniS,dtFimS,desTR)</text><text fill="#000000" font-family="sans-serif" font-size="6.6" lengthAdjust="spacingAndGlyphs" textLength="59.4" x="200.1" y="68.673">+registaAnuncio()</text><!--MD5=[3e7906673e6ec71b773ae6790252fa25]
class PublicarTarefaUI--><rect fill="#FEFECE" filter="url(#f3m2s1uuoqinh)" height="28.8" id="PublicarTarefaUI" style="stroke: #A80036; stroke-width: 0.8999999999999999;" width="76.2" x="3.6" y="134.4"/><ellipse cx="12.6" cy="144" fill="#ADD1B2" rx="6.6" ry="6.6" style="stroke: #A80036; stroke-width: 0.6;"/><path d="M14.0839,147.6858 Q13.7353,147.8651 13.3518,147.9548 Q12.9683,148.0444 12.5449,148.0444 Q11.0408,148.0444 10.2489,147.0533 Q9.457,146.0622 9.457,144.1896 Q9.457,142.3119 10.2489,141.3208 Q11.0408,140.3297 12.5449,140.3297 Q12.9683,140.3297 13.3567,140.4193 Q13.7452,140.509 14.0839,140.6883 L14.0839,142.3219 Q13.7054,141.9732 13.3493,141.8114 Q12.9932,141.6495 12.6146,141.6495 Q11.8078,141.6495 11.3969,142.2895 Q10.986,142.9295 10.986,144.1896 Q10.986,145.4446 11.3969,146.0846 Q11.8078,146.7246 12.6146,146.7246 Q12.9932,146.7246 13.3493,146.5627 Q13.7054,146.4009 14.0839,146.0522 Z "/><text fill="#000000" font-family="sans-serif" font-size="7.2" lengthAdjust="spacingAndGlyphs" textLength="57" x="21" y="146.7211">PublicarTarefaUI</text><line style="stroke: #A80036; stroke-width: 0.8999999999999999;" x1="4.2" x2="79.2" y1="153.6" y2="153.6"/><line style="stroke: #A80036; stroke-width: 0.8999999999999999;" x1="4.2" x2="79.2" y1="158.4" y2="158.4"/><path d="M100.8,136.5 L100.8,160.8727 L263.4,160.8727 L263.4,142.5 L257.4,136.5 L100.8,136.5 " fill="#FBFB77" filter="url(#f3m2s1uuoqinh)" style="stroke: #A80036; stroke-width: 0.6;"/><path d="M257.4,136.5 L257.4,142.5 L263.4,142.5 L257.4,136.5 " fill="#FBFB77" style="stroke: #A80036; stroke-width: 0.6;"/><text fill="#000000" font-family="sans-serif" font-size="7.8" lengthAdjust="spacingAndGlyphs" textLength="108.6" x="104.4" y="147.041">Por questões de legibilidade,</text><text fill="#000000" font-family="sans-serif" font-size="7.8" lengthAdjust="spacingAndGlyphs" textLength="150" x="104.4" y="156.2273">omitiu-se as dependência entre classes</text><!--MD5=[d0e9f237fb3c72e1245c36c562ad52c4]
class TipoRegimento--><rect fill="#FEFECE" filter="url(#f3m2s1uuoqinh)" height="28.8" id="TipoRegimento" style="stroke: #A80036; stroke-width: 0.8999999999999999;" width="71.4" x="705.6" y="545.7"/><ellipse cx="714.6" cy="555.3" fill="#ADD1B2" rx="6.6" ry="6.6" style="stroke: #A80036; stroke-width: 0.6;"/><path d="M716.0839,558.9858 Q715.7353,559.1651 715.3518,559.2548 Q714.9683,559.3444 714.5449,559.3444 Q713.0408,559.3444 712.2489,558.3533 Q711.457,557.3622 711.457,555.4896 Q711.457,553.6119 712.2489,552.6208 Q713.0408,551.6297 714.5449,551.6297 Q714.9683,551.6297 715.3567,551.7193 Q715.7452,551.809 716.0839,551.9883 L716.0839,553.6219 Q715.7054,553.2732 715.3493,553.1114 Q714.9932,552.9495 714.6146,552.9495 Q713.8078,552.9495 713.3969,553.5895 Q712.986,554.2295 712.986,555.4896 Q712.986,556.7446 713.3969,557.3846 Q713.8078,558.0246 714.6146,558.0246 Q714.9932,558.0246 715.3493,557.8627 Q715.7054,557.7009 716.0839,557.3522 Z "/><text fill="#000000" font-family="sans-serif" font-size="7.2" lengthAdjust="spacingAndGlyphs" textLength="52.2" x="723" y="558.0211">TipoRegimento</text><line style="stroke: #A80036; stroke-width: 0.8999999999999999;" x1="706.2" x2="776.4" y1="564.9" y2="564.9"/><line style="stroke: #A80036; stroke-width: 0.8999999999999999;" x1="706.2" x2="776.4" y1="569.7" y2="569.7"/><!--MD5=[ac8682ea5466d223e49472789fb200d2]
class Colaborador--><rect fill="#FEFECE" filter="url(#f3m2s1uuoqinh)" height="28.8" id="Colaborador" style="stroke: #A80036; stroke-width: 0.8999999999999999;" width="62.4" x="542.7" y="648"/><ellipse cx="551.7" cy="657.6" fill="#ADD1B2" rx="6.6" ry="6.6" style="stroke: #A80036; stroke-width: 0.6;"/><path d="M553.1839,661.2858 Q552.8353,661.4651 552.4518,661.5548 Q552.0683,661.6444 551.6449,661.6444 Q550.1408,661.6444 549.3489,660.6533 Q548.557,659.6622 548.557,657.7896 Q548.557,655.9119 549.3489,654.9208 Q550.1408,653.9297 551.6449,653.9297 Q552.0683,653.9297 552.4567,654.0193 Q552.8452,654.109 553.1839,654.2883 L553.1839,655.9219 Q552.8054,655.5732 552.4493,655.4114 Q552.0932,655.2495 551.7146,655.2495 Q550.9078,655.2495 550.4969,655.8895 Q550.086,656.5295 550.086,657.7896 Q550.086,659.0446 550.4969,659.6846 Q550.9078,660.3246 551.7146,660.3246 Q552.0932,660.3246 552.4493,660.1627 Q552.8054,660.0009 553.1839,659.6522 Z "/><text fill="#000000" font-family="sans-serif" font-size="7.2" lengthAdjust="spacingAndGlyphs" textLength="43.2" x="560.1" y="660.3211">Colaborador</text><line style="stroke: #A80036; stroke-width: 0.8999999999999999;" x1="543.3" x2="604.5" y1="667.2" y2="667.2"/><line style="stroke: #A80036; stroke-width: 0.8999999999999999;" x1="543.3" x2="604.5" y1="672" y2="672"/><!--MD5=[463821f61fd53759657c2ac769a7e835]
link Plataforma to RegistoAnuncios--><path d="M605.1,68.772 C605.1,83.238 605.1,100.704 605.1,115.578 " fill="none" id="Plataforma-&gt;RegistoAnuncios" style="stroke: #A80036; stroke-width: 0.6;"/><polygon fill="#A80036" points="605.1,118.704,607.5,113.304,605.1,115.704,602.7,113.304,605.1,118.704" style="stroke: #A80036; stroke-width: 0.6;"/><text fill="#000000" font-family="sans-serif" font-size="7.8" lengthAdjust="spacingAndGlyphs" textLength="14.4" x="605.7" y="98.741">tem</text><text fill="#000000" font-family="sans-serif" font-size="7.8" lengthAdjust="spacingAndGlyphs" textLength="4.8" x="599.9775" y="80.9784">1</text><text fill="#000000" font-family="sans-serif" font-size="7.8" lengthAdjust="spacingAndGlyphs" textLength="4.8" x="599.9625" y="112.4006">1</text><!--MD5=[f32982808aff924d3e77e68c8e585416]
link Plataforma to RegistoTiposRegimento--><path d="M674.46,68.718 C696.102,81.156 718.02,97.728 732.3,118.8 C747.33,140.982 750.84,172.08 751.224,193.602 " fill="none" id="Plataforma-&gt;RegistoTiposRegimento" style="stroke: #A80036; stroke-width: 0.6;"/><polygon fill="#A80036" points="751.26,196.704,753.5981,191.2769,751.2257,193.7042,748.7984,191.3318,751.26,196.704" style="stroke: #A80036; stroke-width: 0.6;"/><text fill="#000000" font-family="sans-serif" font-size="7.8" lengthAdjust="spacingAndGlyphs" textLength="14.4" x="716.1" y="98.741">tem</text><text fill="#000000" font-family="sans-serif" font-size="7.8" lengthAdjust="spacingAndGlyphs" textLength="4.8" x="678.6577" y="80.9171">1</text><text fill="#000000" font-family="sans-serif" font-size="7.8" lengthAdjust="spacingAndGlyphs" textLength="4.8" x="746.1945" y="190.3266">1</text><!--MD5=[f474418f0299e5a3deeeaebedb6f44d3]
link Plataforma to RegistoOrganizacoes--><path d="M543.078,68.772 C502.716,87.948 451.242,112.404 416.148,129.078 " fill="none" id="Plataforma-&gt;RegistoOrganizacoes" style="stroke: #A80036; stroke-width: 0.6;"/><polygon fill="#A80036" points="413.226,130.464,419.1335,130.3165,415.9362,129.1775,417.0751,125.9802,413.226,130.464" style="stroke: #A80036; stroke-width: 0.6;"/><text fill="#000000" font-family="sans-serif" font-size="7.8" lengthAdjust="spacingAndGlyphs" textLength="14.4" x="491.1" y="98.741">tem</text><text fill="#000000" font-family="sans-serif" font-size="7.8" lengthAdjust="spacingAndGlyphs" textLength="4.8" x="529.6213" y="80.9784">1</text><text fill="#000000" font-family="sans-serif" font-size="7.8" lengthAdjust="spacingAndGlyphs" textLength="4.8" x="416.0661" y="124.033">1</text><!--MD5=[2903b91671052adea6f5e59eb6d59b42]
link RegistoAnuncios to Anuncio--><path d="M605.1,178.89 C605.1,228.222 605.1,327.75 605.1,385.56 " fill="none" id="RegistoAnuncios-&gt;Anuncio" style="stroke: #A80036; stroke-width: 0.6;"/><polygon fill="#A80036" points="605.1,388.62,607.5,383.22,605.1,385.62,602.7,383.22,605.1,388.62" style="stroke: #A80036; stroke-width: 0.6;"/><text fill="#000000" font-family="sans-serif" font-size="7.8" lengthAdjust="spacingAndGlyphs" textLength="33" x="605.7" y="303.941">publicita</text><text fill="#000000" font-family="sans-serif" font-size="7.8" lengthAdjust="spacingAndGlyphs" textLength="4.8" x="599.9775" y="191.0988">1</text><text fill="#000000" font-family="sans-serif" font-size="7.8" lengthAdjust="spacingAndGlyphs" textLength="3.6" x="601.3144" y="382.3974">*</text><!--MD5=[91ce51344d2c82f098c99e096ab9b054]
link RegistoTiposRegimento to TipoRegimento--><path d="M749.724,241.38 C748.056,304.44 743.238,486.252 741.744,542.628 " fill="none" id="RegistoTiposRegimento-&gt;TipoRegimento" style="stroke: #A80036; stroke-width: 0.6;"/><polygon fill="#A80036" points="741.666,545.688,744.2192,540.3587,741.7517,542.6892,739.4212,540.2217,741.666,545.688" style="stroke: #A80036; stroke-width: 0.6;"/><text fill="#000000" font-family="sans-serif" font-size="7.8" lengthAdjust="spacingAndGlyphs" textLength="28.8" x="746.7" y="368.741">suporta</text><text fill="#000000" font-family="sans-serif" font-size="7.8" lengthAdjust="spacingAndGlyphs" textLength="4.8" x="744.4125" y="253.5617">1</text><text fill="#000000" font-family="sans-serif" font-size="7.8" lengthAdjust="spacingAndGlyphs" textLength="3.6" x="737.6806" y="539.1715">*</text><!--MD5=[7846c904d139ffad2e5d1ca294d8e188]
link RegistoOrganizacoes to Organizacao--><path d="M377.682,167.304 C379.842,189.042 383.562,226.47 386.508,256.092 " fill="none" id="RegistoOrganizacoes-&gt;Organizacao" style="stroke: #A80036; stroke-width: 0.6;"/><polygon fill="#A80036" points="386.808,259.116,388.6556,253.5029,386.5078,256.1311,383.8797,253.9833,386.808,259.116" style="stroke: #A80036; stroke-width: 0.6;"/><text fill="#000000" font-family="sans-serif" font-size="7.8" lengthAdjust="spacingAndGlyphs" textLength="55.8" x="385.5" y="222.041">tem registadas</text><text fill="#000000" font-family="sans-serif" font-size="7.8" lengthAdjust="spacingAndGlyphs" textLength="4.8" x="372.7603" y="179.3949">1</text><text fill="#000000" font-family="sans-serif" font-size="7.8" lengthAdjust="spacingAndGlyphs" textLength="3.6" x="382.5636" y="252.6152">*</text><!--MD5=[fe36d68e6ccc9fbcf1b4b1ecbcfd2a3f]
link Organizacao to ListaTarefas--><path d="M394.17,342.654 C395.808,363.252 397.734,387.492 399.138,405.192 " fill="none" id="Organizacao-&gt;ListaTarefas" style="stroke: #A80036; stroke-width: 0.6;"/><polygon fill="#A80036" points="399.378,408.192,401.3372,402.6169,399.1374,405.2017,396.5526,403.0019,399.378,408.192" style="stroke: #A80036; stroke-width: 0.6;"/><text fill="#000000" font-family="sans-serif" font-size="7.8" lengthAdjust="spacingAndGlyphs" textLength="14.4" x="397.5" y="368.741">tem</text><text fill="#000000" font-family="sans-serif" font-size="7.8" lengthAdjust="spacingAndGlyphs" textLength="4.8" x="389.4556" y="354.7666">1</text><text fill="#000000" font-family="sans-serif" font-size="7.8" lengthAdjust="spacingAndGlyphs" textLength="4.8" x="393.818" y="401.8124">1</text><!--MD5=[d258da2d5a47e4c990d61ccbbbe86ed7]
link ListaTarefas to Tarefa--><path d="M421.05,452.88 C437.046,470.346 459.984,495.396 479.61,516.822 " fill="none" id="ListaTarefas-&gt;Tarefa" style="stroke: #A80036; stroke-width: 0.6;"/><polygon fill="#A80036" points="481.746,519.15,479.8722,513.5457,479.7212,516.9364,476.3304,516.7854,481.746,519.15" style="stroke: #A80036; stroke-width: 0.6;"/><text fill="#000000" font-family="sans-serif" font-size="7.8" lengthAdjust="spacingAndGlyphs" textLength="25.2" x="464.1" y="498.341">possui</text><text fill="#000000" font-family="sans-serif" font-size="7.8" lengthAdjust="spacingAndGlyphs" textLength="4.8" x="419.2664" y="465.0617">1</text><text fill="#000000" font-family="sans-serif" font-size="7.8" lengthAdjust="spacingAndGlyphs" textLength="3.6" x="473.4229" y="512.1746">*</text><!--MD5=[ebe0b2adceebb6ee2636cb1948c7c8a9]
link Tarefa to Colaborador--><path d="M523.674,601.86 C526.074,611.58 529.632,621.564 534.9,630 C538.668,636.03 543.978,641.442 549.474,646.014 " fill="none" id="Tarefa-&gt;Colaborador" style="stroke: #A80036; stroke-width: 0.6;"/><polygon fill="#A80036" points="551.838,647.922,549.1487,642.6601,549.5055,646.0354,546.1302,646.3921,551.838,647.922" style="stroke: #A80036; stroke-width: 0.6;"/><text fill="#000000" font-family="sans-serif" font-size="7.8" lengthAdjust="spacingAndGlyphs" textLength="61.8" x="535.5" y="627.941">especificada por</text><text fill="#000000" font-family="sans-serif" font-size="7.8" lengthAdjust="spacingAndGlyphs" textLength="3.6" x="520.3864" y="613.9732">*</text><text fill="#000000" font-family="sans-serif" font-size="7.8" lengthAdjust="spacingAndGlyphs" textLength="4.8" x="540.7696" y="641.6238">1</text><!--MD5=[439a6ad1de0b5aa57a973cae1bf36ce5]
link Anuncio to Tarefa--><path d="M515.136,472.236 C509.52,477.576 504.582,483.54 500.7,490.2 C496.266,497.802 495.666,506.502 497.112,515.106 " fill="none" id="Anuncio-&gt;Tarefa" style="stroke: #A80036; stroke-width: 0.6;"/><polygon fill="#A80036" points="497.73,518.274,499.0373,512.5111,497.1482,515.3309,494.3284,513.4419,497.73,518.274" style="stroke: #A80036; stroke-width: 0.6;"/><text fill="#000000" font-family="sans-serif" font-size="7.8" lengthAdjust="spacingAndGlyphs" textLength="33" x="501.3" y="498.341">publicita</text><text fill="#000000" font-family="sans-serif" font-size="7.8" lengthAdjust="spacingAndGlyphs" textLength="14.4" x="491.1714" y="484.3468">0..1</text><text fill="#000000" font-family="sans-serif" font-size="7.8" lengthAdjust="spacingAndGlyphs" textLength="4.8" x="490.52" y="512.057">1</text><!--MD5=[4eb4fec7757cdb084f5153b8189a0ca2]
reverse link Anuncio to Tarefa--><path d="M569.922,474.732 C566.1,479.868 562.35,485.1 558.9,490.2 C552.9,499.074 546.876,508.878 541.38,518.25 " fill="none" id="Anuncio&lt;-Tarefa" style="stroke: #A80036; stroke-width: 0.6;"/><polygon fill="#A80036" points="571.8,472.212,566.64,475.092,570,474.612,570.48,477.972,571.8,472.212" style="stroke: #A80036; stroke-width: 0.6;"/><text fill="#000000" font-family="sans-serif" font-size="7.8" lengthAdjust="spacingAndGlyphs" textLength="37.8" x="559.5" y="498.341">dá origem</text><text fill="#000000" font-family="sans-serif" font-size="7.8" lengthAdjust="spacingAndGlyphs" textLength="14.4" x="553.4133" y="484.3205">0..1</text><text fill="#000000" font-family="sans-serif" font-size="7.8" lengthAdjust="spacingAndGlyphs" textLength="4.8" x="538.6714" y="512.0305">1</text><!--MD5=[3fb03004f687adcfc695220fdd65ad26]
link Anuncio to TipoRegimento--><path d="M648.756,472.254 C674.478,496.506 705.564,525.81 724.362,543.534 " fill="none" id="Anuncio-&gt;TipoRegimento" style="stroke: #A80036; stroke-width: 0.6;"/><polygon fill="#A80036" points="726.594,545.634,724.3066,540.1854,724.4094,543.5779,721.0168,543.6807,726.594,545.634" style="stroke: #A80036; stroke-width: 0.6;"/><text fill="#000000" font-family="sans-serif" font-size="7.8" lengthAdjust="spacingAndGlyphs" textLength="44.4" x="677.7" y="498.341">rege-se por</text><text fill="#000000" font-family="sans-serif" font-size="7.8" lengthAdjust="spacingAndGlyphs" textLength="3.6" x="649.2762" y="484.3666">*</text><text fill="#000000" font-family="sans-serif" font-size="7.8" lengthAdjust="spacingAndGlyphs" textLength="4.8" x="717.4106" y="539.3389">1</text><!--MD5=[0a535575571876f6213287bf563a867d]
link Anuncio to Colaborador--><path d="M611.76,472.2 C616.716,513.492 619.692,578.25 600.3,630 C598.218,635.556 594.726,640.842 590.952,645.45 " fill="none" id="Anuncio-&gt;Colaborador" style="stroke: #A80036; stroke-width: 0.6;"/><polygon fill="#A80036" points="588.834,647.94,594.1602,645.3805,590.7772,645.6544,590.5033,642.2714,588.834,647.94" style="stroke: #A80036; stroke-width: 0.6;"/><text fill="#000000" font-family="sans-serif" font-size="7.8" lengthAdjust="spacingAndGlyphs" textLength="52.2" x="615.9" y="563.141">publicado por</text><text fill="#000000" font-family="sans-serif" font-size="7.8" lengthAdjust="spacingAndGlyphs" textLength="3.6" x="608.6384" y="484.3073">*</text><text fill="#000000" font-family="sans-serif" font-size="7.8" lengthAdjust="spacingAndGlyphs" textLength="4.8" x="587.2458" y="641.6464">1</text><!--MD5=[01d175ae3b9e282c6925e8b717808735]
link AplicacaoPOT to SessaoUtilizador--><!--MD5=[ff8748d0e3f605a25aa15a5b627abf1c]
link SessaoUtilizador to PublicarTarefaController--><!--MD5=[98c9c7d1b81ab94a71ad39589b0eb291]
link AplicacaoPOT to PublicarTarefaUI--><!--MD5=[a2117bbd801075da4fcf4c65408a8464]
link PublicarTarefaUI to N1--><!--MD5=[12665aa96e42548965662790d16b8928]
@startuml
skinparam classAttributeIconSize 0

class AplicacaoPOT
{
  +static getInstance()
  +getSessaoAtual()
}

class SessaoUtilizador
{
  +getEmailUtilizador()
}

class Organizacao {
  -String nome
  -String NIF
  -String website
  -String telefone
  -String email
  +ListaTarefas getListaTarefas()
  +Colaborador getColaboradorByEmail(email)
}

class ListaTarefas {
  +List<Tarefa> getTarefaParaPublicar(c)
  +Tarefa getTarefaParaPublicarByRef(ref, c)
}

class Tarefa {
  -String referencia
  -String designacao
  -String descInformal
  -String descTecnica
  -Integer duracaoEst
  -Double custoEst
  +publicar(anu)
}

class Plataforma {
  -String designacao
  +RegistoOrganizacoes getRegistoOrganizacoes()
  +RegistoTipoRegimento getRegistoTiposRegimento()
  +RegistoAnuncios getRegistoAnuncios()
}

class RegistoTiposRegimento {
  +List<TipoRegimento> getTiposRegimento()
  +TipoRegimento getTipoRegimentoByDesc(desTR)
}

class RegistoOrganizacoes {
  +Organizacao getOrganizacaoByEmailUtilizador(email)
}

class RegistoAnuncios {
  +novoAnuncio(c,tarefa,dtIniP,dtFimP,dtIniC,dtFimC,dtIniS,dtFimS,regT)
  +validaAnuncio(anu)
  +registaAnuncio(anu)
  -addAnuncio(anu)
}

class Anuncio {
  -Date dtInicioPublicitacao
  -Date dtFimPublicitacao
  -Date dtInicioCandidatura
  -Date dtFimCandidatura
  -Date dtInicioSeriacao
  -Date dtFimSeriacao
  +Anuncio(c, tarefa,dtIniP,dtFimP,dtIniC,dtFimC,dtIniS,dtFimS,regT)
}

class PublicarTarefaController {
  +getTarefasParaPublicar()
  +selecionaTarefa(ref)
  +getTiposRegimento()
  +novoAnuncio(dtIniP,dtFimP,dtIniC,dtFimC,dtIniS,dtFimS,desTR)
  +registaAnuncio()
}

class PublicarTarefaUI {
}

note "Por questões de legibilidade, \nomitiu-se as dependência entre classes" as N1

Plataforma "1" - -> "1" RegistoAnuncios : tem
Plataforma "1" - -> "1" RegistoTiposRegimento : tem
Plataforma "1" - -> "1" RegistoOrganizacoes : tem

RegistoAnuncios "1" - -> "*" Anuncio : publicita
RegistoTiposRegimento "1" - -> "*" TipoRegimento : suporta
RegistoOrganizacoes "1" - -> "*" Organizacao : tem registadas

Organizacao "1" - -> "1" ListaTarefas: tem
ListaTarefas "1" - -> "*" Tarefa: possui

Tarefa "*" - -> "1" Colaborador: especificada por

Anuncio "0..1" - -> "1" Tarefa: publicita
Anuncio "0..1" <- - "1" Tarefa: dá origem
Anuncio "*" - -> "1" TipoRegimento: rege-se por
Anuncio "*" - -> "1" Colaborador: publicado por

@enduml

PlantUML version 1.2020.07(Sun Apr 19 12:42:40 WEST 2020)
(GPL source distribution)
Java Runtime: OpenJDK Runtime Environment
JVM: OpenJDK 64-Bit Server VM
Java Version: 11.0.6+8-b765.25
Operating System: Mac OS X
Default Encoding: UTF-8
Language: en
Country: PT
--></g></svg>