<?xml version="1.0" encoding="UTF-8" standalone="no"?><svg xmlns="http://www.w3.org/2000/svg" xmlns:xlink="http://www.w3.org/1999/xlink" contentScriptType="application/ecmascript" contentStyleType="text/css" height="371px" preserveAspectRatio="none" style="width:1023px;height:371px;" version="1.1" viewBox="0 0 1023 371" width="1023px" zoomAndPan="magnify"><defs><filter height="300%" id="f114jerpy80320" width="300%" x="-1" y="-1"><feGaussianBlur result="blurOut" stdDeviation="2.0"/><feColorMatrix in="blurOut" result="blurOut2" type="matrix" values="0 0 0 0 0 0 0 0 0 0 0 0 0 0 0 0 0 0 .4 0"/><feOffset dx="4.0" dy="4.0" in="blurOut2" result="blurOut3"/><feBlend in="SourceGraphic" in2="blurOut3" mode="normal"/></filter></defs><g><!--class Plataforma--><rect fill="#FEFECE" filter="url(#f114jerpy80320)" height="52.9551" id="Plataforma" style="stroke: #A80036; stroke-width: 1.5;" width="114" x="6" y="135"/><ellipse cx="30" cy="151" fill="#ADD1B2" rx="11" ry="11" style="stroke: #A80036; stroke-width: 1.0;"/><path d="M32.4731,157.1431 Q31.8921,157.4419 31.2529,157.5913 Q30.6138,157.7407 29.9082,157.7407 Q27.4014,157.7407 26.0815,156.0889 Q24.7617,154.437 24.7617,151.3159 Q24.7617,148.1865 26.0815,146.5347 Q27.4014,144.8828 29.9082,144.8828 Q30.6138,144.8828 31.2612,145.0322 Q31.9087,145.1816 32.4731,145.4805 L32.4731,148.2031 Q31.8423,147.6221 31.2488,147.3523 Q30.6553,147.0825 30.0244,147.0825 Q28.6797,147.0825 27.9949,148.1492 Q27.3101,149.2158 27.3101,151.3159 Q27.3101,153.4077 27.9949,154.4744 Q28.6797,155.541 30.0244,155.541 Q30.6553,155.541 31.2488,155.2712 Q31.8423,155.0015 32.4731,154.4204 Z "/><text fill="#000000" font-family="sans-serif" font-size="12" lengthAdjust="spacingAndGlyphs" textLength="62" x="46" y="155.5352">Plataforma</text><line style="stroke: #A80036; stroke-width: 1.5;" x1="7" x2="119" y1="167" y2="167"/><text fill="#000000" font-family="sans-serif" font-size="11" lengthAdjust="spacingAndGlyphs" textLength="102" x="12" y="181.6348">-String designacao</text><!--class Colaborador--><rect fill="#FEFECE" filter="url(#f114jerpy80320)" height="91.8203" id="Colaborador" style="stroke: #A80036; stroke-width: 1.5;" width="104" x="908" y="150.5"/><ellipse cx="923" cy="166.5" fill="#ADD1B2" rx="11" ry="11" style="stroke: #A80036; stroke-width: 1.0;"/><path d="M925.4731,172.6431 Q924.8921,172.9419 924.2529,173.0913 Q923.6138,173.2407 922.9082,173.2407 Q920.4014,173.2407 919.0815,171.5889 Q917.7617,169.937 917.7617,166.8159 Q917.7617,163.6865 919.0815,162.0347 Q920.4014,160.3828 922.9082,160.3828 Q923.6138,160.3828 924.2612,160.5322 Q924.9087,160.6816 925.4731,160.9805 L925.4731,163.7031 Q924.8423,163.1221 924.2488,162.8523 Q923.6553,162.5825 923.0244,162.5825 Q921.6797,162.5825 920.9949,163.6492 Q920.3101,164.7158 920.3101,166.8159 Q920.3101,168.9077 920.9949,169.9744 Q921.6797,171.041 923.0244,171.041 Q923.6553,171.041 924.2488,170.7712 Q924.8423,170.5015 925.4731,169.9204 Z "/><text fill="#000000" font-family="sans-serif" font-size="12" lengthAdjust="spacingAndGlyphs" textLength="72" x="937" y="171.0352">Colaborador</text><line style="stroke: #A80036; stroke-width: 1.5;" x1="909" x2="1011" y1="182.5" y2="182.5"/><text fill="#000000" font-family="sans-serif" font-size="11" lengthAdjust="spacingAndGlyphs" textLength="71" x="914" y="197.1348">-String nome</text><text fill="#000000" font-family="sans-serif" font-size="11" lengthAdjust="spacingAndGlyphs" textLength="78" x="914" y="210.0898">-String funcao</text><text fill="#000000" font-family="sans-serif" font-size="11" lengthAdjust="spacingAndGlyphs" textLength="84" x="914" y="223.0449">-String telefone</text><text fill="#000000" font-family="sans-serif" font-size="11" lengthAdjust="spacingAndGlyphs" textLength="69" x="914" y="236">-String email</text><!--class Tarefa--><rect fill="#FEFECE" filter="url(#f114jerpy80320)" height="117.7305" id="Tarefa" style="stroke: #A80036; stroke-width: 1.5;" width="123" x="597.5" y="202.5"/><ellipse cx="636.35" cy="218.5" fill="#ADD1B2" rx="11" ry="11" style="stroke: #A80036; stroke-width: 1.0;"/><path d="M638.8231,224.6431 Q638.2421,224.9419 637.6029,225.0913 Q636.9638,225.2407 636.2582,225.2407 Q633.7514,225.2407 632.4315,223.5889 Q631.1117,221.937 631.1117,218.8159 Q631.1117,215.6865 632.4315,214.0347 Q633.7514,212.3828 636.2582,212.3828 Q636.9638,212.3828 637.6112,212.5322 Q638.2587,212.6816 638.8231,212.9805 L638.8231,215.7031 Q638.1923,215.1221 637.5988,214.8523 Q637.0053,214.5825 636.3744,214.5825 Q635.0297,214.5825 634.3449,215.6492 Q633.6601,216.7158 633.6601,218.8159 Q633.6601,220.9077 634.3449,221.9744 Q635.0297,223.041 636.3744,223.041 Q637.0053,223.041 637.5988,222.7712 Q638.1923,222.5015 638.8231,221.9204 Z "/><text fill="#000000" font-family="sans-serif" font-size="12" lengthAdjust="spacingAndGlyphs" textLength="38" x="655.65" y="223.0352">Tarefa</text><line style="stroke: #A80036; stroke-width: 1.5;" x1="598.5" x2="719.5" y1="234.5" y2="234.5"/><text fill="#000000" font-family="sans-serif" font-size="11" lengthAdjust="spacingAndGlyphs" textLength="95" x="603.5" y="249.1348">-String referencia</text><text fill="#000000" font-family="sans-serif" font-size="11" lengthAdjust="spacingAndGlyphs" textLength="102" x="603.5" y="262.0898">-String designacao</text><text fill="#000000" font-family="sans-serif" font-size="11" lengthAdjust="spacingAndGlyphs" textLength="111" x="603.5" y="275.0449">-String descInformal</text><text fill="#000000" font-family="sans-serif" font-size="11" lengthAdjust="spacingAndGlyphs" textLength="107" x="603.5" y="288">-String descTecnica</text><text fill="#000000" font-family="sans-serif" font-size="11" lengthAdjust="spacingAndGlyphs" textLength="107" x="603.5" y="300.9551">-Integer duracaoEst</text><text fill="#000000" font-family="sans-serif" font-size="11" lengthAdjust="spacingAndGlyphs" textLength="93" x="603.5" y="313.9102">-Double custoEst</text><!--class TipoRegimento--><rect fill="#FEFECE" filter="url(#f114jerpy80320)" height="65.9102" id="TipoRegimento" style="stroke: #A80036; stroke-width: 1.5;" width="142" x="588" y="8.5"/><ellipse cx="613.35" cy="24.5" fill="#ADD1B2" rx="11" ry="11" style="stroke: #A80036; stroke-width: 1.0;"/><path d="M615.8231,30.6431 Q615.2421,30.9419 614.6029,31.0913 Q613.9638,31.2407 613.2582,31.2407 Q610.7514,31.2407 609.4315,29.5889 Q608.1117,27.937 608.1117,24.8159 Q608.1117,21.6865 609.4315,20.0347 Q610.7514,18.3828 613.2582,18.3828 Q613.9638,18.3828 614.6112,18.5322 Q615.2587,18.6816 615.8231,18.9805 L615.8231,21.7031 Q615.1923,21.1221 614.5988,20.8523 Q614.0053,20.5825 613.3744,20.5825 Q612.0297,20.5825 611.3449,21.6492 Q610.6601,22.7158 610.6601,24.8159 Q610.6601,26.9077 611.3449,27.9744 Q612.0297,29.041 613.3744,29.041 Q614.0053,29.041 614.5988,28.7712 Q615.1923,28.5015 615.8231,27.9204 Z "/><text fill="#000000" font-family="sans-serif" font-size="12" lengthAdjust="spacingAndGlyphs" textLength="87" x="629.65" y="29.0352">TipoRegimento</text><line style="stroke: #A80036; stroke-width: 1.5;" x1="589" x2="729" y1="40.5" y2="40.5"/><text fill="#000000" font-family="sans-serif" font-size="11" lengthAdjust="spacingAndGlyphs" textLength="102" x="594" y="55.1348">-String designacao</text><text fill="#000000" font-family="sans-serif" font-size="11" lengthAdjust="spacingAndGlyphs" textLength="130" x="594" y="68.0898">-String descricaoRegras</text><!--class Anuncio--><rect fill="#FEFECE" filter="url(#f114jerpy80320)" height="117.7305" id="Anuncio" style="stroke: #A80036; stroke-width: 1.5;" width="151" x="288" y="102.5"/><ellipse cx="336.75" cy="118.5" fill="#ADD1B2" rx="11" ry="11" style="stroke: #A80036; stroke-width: 1.0;"/><path d="M339.2231,124.6431 Q338.6421,124.9419 338.0029,125.0913 Q337.3638,125.2407 336.6582,125.2407 Q334.1514,125.2407 332.8315,123.5889 Q331.5117,121.937 331.5117,118.8159 Q331.5117,115.6865 332.8315,114.0347 Q334.1514,112.3828 336.6582,112.3828 Q337.3638,112.3828 338.0112,112.5322 Q338.6587,112.6816 339.2231,112.9805 L339.2231,115.7031 Q338.5923,115.1221 337.9988,114.8523 Q337.4053,114.5825 336.7744,114.5825 Q335.4297,114.5825 334.7449,115.6492 Q334.0601,116.7158 334.0601,118.8159 Q334.0601,120.9077 334.7449,121.9744 Q335.4297,123.041 336.7744,123.041 Q337.4053,123.041 337.9988,122.7712 Q338.5923,122.5015 339.2231,121.9204 Z "/><text fill="#000000" font-family="sans-serif" font-size="12" lengthAdjust="spacingAndGlyphs" textLength="45" x="357.25" y="123.0352">Anuncio</text><line style="stroke: #A80036; stroke-width: 1.5;" x1="289" x2="438" y1="134.5" y2="134.5"/><text fill="#000000" font-family="sans-serif" font-size="11" lengthAdjust="spacingAndGlyphs" textLength="137" x="294" y="149.1348">-Date dtInicioPublicitacao</text><text fill="#000000" font-family="sans-serif" font-size="11" lengthAdjust="spacingAndGlyphs" textLength="127" x="294" y="162.0898">-Date dtFimPublicitacao</text><text fill="#000000" font-family="sans-serif" font-size="11" lengthAdjust="spacingAndGlyphs" textLength="139" x="294" y="175.0449">-Date dtInicioCandidatura</text><text fill="#000000" font-family="sans-serif" font-size="11" lengthAdjust="spacingAndGlyphs" textLength="129" x="294" y="188">-Date dtFimCandidatura</text><text fill="#000000" font-family="sans-serif" font-size="11" lengthAdjust="spacingAndGlyphs" textLength="118" x="294" y="200.9551">-Date dtInicioSeriacao</text><text fill="#000000" font-family="sans-serif" font-size="11" lengthAdjust="spacingAndGlyphs" textLength="108" x="294" y="213.9102">-Date dtFimSeriacao</text><!--class Organizacao--><rect fill="#FEFECE" filter="url(#f114jerpy80320)" height="104.7754" id="Organizacao" style="stroke: #A80036; stroke-width: 1.5;" width="104" x="311.5" y="256"/><ellipse cx="326.5" cy="272" fill="#ADD1B2" rx="11" ry="11" style="stroke: #A80036; stroke-width: 1.0;"/><path d="M328.9731,278.1431 Q328.3921,278.4419 327.7529,278.5913 Q327.1138,278.7407 326.4082,278.7407 Q323.9014,278.7407 322.5815,277.0889 Q321.2617,275.437 321.2617,272.3159 Q321.2617,269.1865 322.5815,267.5347 Q323.9014,265.8828 326.4082,265.8828 Q327.1138,265.8828 327.7612,266.0322 Q328.4087,266.1816 328.9731,266.4805 L328.9731,269.2031 Q328.3423,268.6221 327.7488,268.3523 Q327.1553,268.0825 326.5244,268.0825 Q325.1797,268.0825 324.4949,269.1492 Q323.8101,270.2158 323.8101,272.3159 Q323.8101,274.4077 324.4949,275.4744 Q325.1797,276.541 326.5244,276.541 Q327.1553,276.541 327.7488,276.2712 Q328.3423,276.0015 328.9731,275.4204 Z "/><text fill="#000000" font-family="sans-serif" font-size="12" lengthAdjust="spacingAndGlyphs" textLength="72" x="340.5" y="276.5352">Organizacao</text><line style="stroke: #A80036; stroke-width: 1.5;" x1="312.5" x2="414.5" y1="288" y2="288"/><text fill="#000000" font-family="sans-serif" font-size="11" lengthAdjust="spacingAndGlyphs" textLength="71" x="317.5" y="302.6348">-String nome</text><text fill="#000000" font-family="sans-serif" font-size="11" lengthAdjust="spacingAndGlyphs" textLength="58" x="317.5" y="315.5898">-String NIF</text><text fill="#000000" font-family="sans-serif" font-size="11" lengthAdjust="spacingAndGlyphs" textLength="81" x="317.5" y="328.5449">-String website</text><text fill="#000000" font-family="sans-serif" font-size="11" lengthAdjust="spacingAndGlyphs" textLength="84" x="317.5" y="341.5">-String telefone</text><text fill="#000000" font-family="sans-serif" font-size="11" lengthAdjust="spacingAndGlyphs" textLength="69" x="317.5" y="354.4551">-String email</text><!--link Plataforma to Anuncio--><path d="M120.15,161.5 C167.6,161.5 235.97,161.5 288,161.5 " fill="none" id="Plataforma-Anuncio" style="stroke: #A80036; stroke-width: 1.0;"/><text fill="#000000" font-family="sans-serif" font-size="13" lengthAdjust="spacingAndGlyphs" textLength="55" x="170" y="158.0684">publicita</text><polygon fill="#000000" points="228,151.6553,234,154.6553,228,157.6553,228,151.6553" style="stroke: #000000; stroke-width: 1.0;"/><text fill="#000000" font-family="sans-serif" font-size="13" lengthAdjust="spacingAndGlyphs" textLength="8" x="127.9848" y="175.0521">1</text><text fill="#000000" font-family="sans-serif" font-size="13" lengthAdjust="spacingAndGlyphs" textLength="6" x="273.9047" y="174.8717">*</text><!--link Plataforma to TipoRegimento--><path d="M120.29,139.22 C165.12,122.19 229.79,99.22 288,84.5 C367.05,64.51 388.01,63.98 469,54.5 C508.2,49.91 552.18,46.77 587.84,44.73 " fill="none" id="Plataforma-TipoRegimento" style="stroke: #A80036; stroke-width: 1.0;"/><text fill="#000000" font-family="sans-serif" font-size="13" lengthAdjust="spacingAndGlyphs" textLength="48" x="333" y="55.0684">suporta</text><polygon fill="#000000" points="384,48.6553,390,51.6553,384,54.6553,384,48.6553" style="stroke: #000000; stroke-width: 1.0;"/><text fill="#000000" font-family="sans-serif" font-size="13" lengthAdjust="spacingAndGlyphs" textLength="8" x="128.1428" y="149.9174">1</text><text fill="#000000" font-family="sans-serif" font-size="13" lengthAdjust="spacingAndGlyphs" textLength="6" x="574.1923" y="58.4255">*</text><!--link Plataforma to Organizacao--><path d="M118.06,188.12 C172.99,215.18 257.47,256.78 311.34,283.3 " fill="none" id="Plataforma-Organizacao" style="stroke: #A80036; stroke-width: 1.0;"/><text fill="#000000" font-family="sans-serif" font-size="13" lengthAdjust="spacingAndGlyphs" textLength="93" x="151" y="202.0684">tem registadas</text><polygon fill="#000000" points="247,195.6553,253,198.6553,247,201.6553,247,195.6553" style="stroke: #000000; stroke-width: 1.0;"/><text fill="#000000" font-family="sans-serif" font-size="13" lengthAdjust="spacingAndGlyphs" textLength="8" x="121.8676" y="208.6197">1</text><text fill="#000000" font-family="sans-serif" font-size="13" lengthAdjust="spacingAndGlyphs" textLength="6" x="297.5831" y="293.4169">*</text><!--link Organizacao to Tarefa--><path d="M415.55,310.04 C454.88,310.22 510.39,308.3 558,298.5 C570.96,295.83 584.49,291.77 597.25,287.3 " fill="none" id="Organizacao-Tarefa" style="stroke: #A80036; stroke-width: 1.0;"/><text fill="#000000" font-family="sans-serif" font-size="13" lengthAdjust="spacingAndGlyphs" textLength="42" x="486" y="295.0684">possui</text><polygon fill="#000000" points="531,288.6553,537,291.6553,531,294.6553,531,288.6553" style="stroke: #000000; stroke-width: 1.0;"/><text fill="#000000" font-family="sans-serif" font-size="13" lengthAdjust="spacingAndGlyphs" textLength="8" x="423.432" y="323.9172">1</text><text fill="#000000" font-family="sans-serif" font-size="13" lengthAdjust="spacingAndGlyphs" textLength="6" x="583.3586" y="303.9621">*</text><!--link Tarefa to Colaborador--><path d="M720.51,248.35 C775.45,236.4 855.62,218.97 907.55,207.69 " fill="none" id="Tarefa-Colaborador" style="stroke: #A80036; stroke-width: 1.0;"/><text fill="#000000" font-family="sans-serif" font-size="13" lengthAdjust="spacingAndGlyphs" textLength="103" x="761" y="213.0684">especificada por</text><polygon fill="#000000" points="867,206.6553,873,209.6553,867,212.6553,867,206.6553" style="stroke: #000000; stroke-width: 1.0;"/><text fill="#000000" font-family="sans-serif" font-size="13" lengthAdjust="spacingAndGlyphs" textLength="6" x="728.3722" y="260.2651">*</text><text fill="#000000" font-family="sans-serif" font-size="13" lengthAdjust="spacingAndGlyphs" textLength="8" x="891.9645" y="222.8028">1</text><!--link Anuncio to Tarefa--><path d="M439.41,178.82 C475.69,188.01 519.6,200.34 558,214.5 C570.96,219.28 584.54,225.09 597.36,230.97 " fill="none" id="Anuncio-Tarefa" style="stroke: #A80036; stroke-width: 1.0;"/><text fill="#000000" font-family="sans-serif" font-size="13" lengthAdjust="spacingAndGlyphs" textLength="55" x="479.5" y="185.0684">publicita</text><polygon fill="#000000" points="537.5,178.6553,543.5,181.6553,537.5,184.6553,537.5,178.6553" style="stroke: #000000; stroke-width: 1.0;"/><text fill="#000000" font-family="sans-serif" font-size="13" lengthAdjust="spacingAndGlyphs" textLength="24" x="446.9648" y="193.5463">0..1</text><text fill="#000000" font-family="sans-serif" font-size="13" lengthAdjust="spacingAndGlyphs" textLength="8" x="581.3601" y="240.7669">1</text><!--link Anuncio to Tarefa--><path d="M433.44,220.59 C444.76,227.99 456.8,234.65 469,239.5 C509.82,255.74 559.24,261.04 597.31,262.39 " fill="none" id="Anuncio-Tarefa-1" style="stroke: #A80036; stroke-width: 1.0;"/><polygon fill="#000000" points="482.5,229.6553,476.5,232.6553,482.5,235.6553,482.5,229.6553" style="stroke: #000000; stroke-width: 1.0;"/><text fill="#000000" font-family="sans-serif" font-size="13" lengthAdjust="spacingAndGlyphs" textLength="63" x="488.5" y="236.0684">dá origem</text><text fill="#000000" font-family="sans-serif" font-size="13" lengthAdjust="spacingAndGlyphs" textLength="24" x="416.1393" y="240.8914">0..1</text><text fill="#000000" font-family="sans-serif" font-size="13" lengthAdjust="spacingAndGlyphs" textLength="8" x="581.304" y="276.0162">1</text><!--link Anuncio to TipoRegimento--><path d="M439.24,125.58 C449.19,121.06 459.31,116.59 469,112.5 C507.92,96.09 552.08,79.4 587.92,66.33 " fill="none" id="Anuncio-TipoRegimento" style="stroke: #A80036; stroke-width: 1.0;"/><text fill="#000000" font-family="sans-serif" font-size="13" lengthAdjust="spacingAndGlyphs" textLength="74" x="470" y="75.0684">rege-se por</text><polygon fill="#000000" points="547,68.6553,553,71.6553,547,74.6553,547,68.6553" style="stroke: #000000; stroke-width: 1.0;"/><text fill="#000000" font-family="sans-serif" font-size="13" lengthAdjust="spacingAndGlyphs" textLength="6" x="446.991" y="135.3793">*</text><text fill="#000000" font-family="sans-serif" font-size="13" lengthAdjust="spacingAndGlyphs" textLength="8" x="572.1774" y="82.253">1</text><!--link Anuncio to Colaborador--><path d="M439.43,161.02 C475.32,161.11 518.9,161.69 558,163.5 C683.95,169.33 831.64,183.34 907.8,191.1 " fill="none" id="Anuncio-Colaborador" style="stroke: #A80036; stroke-width: 1.0;"/><text fill="#000000" font-family="sans-serif" font-size="13" lengthAdjust="spacingAndGlyphs" textLength="87" x="609" y="162.0684">publicado por</text><polygon fill="#000000" points="699,155.6553,705,158.6553,699,161.6553,699,155.6553" style="stroke: #000000; stroke-width: 1.0;"/><text fill="#000000" font-family="sans-serif" font-size="13" lengthAdjust="spacingAndGlyphs" textLength="6" x="446.953" y="174.2851">*</text><text fill="#000000" font-family="sans-serif" font-size="13" lengthAdjust="spacingAndGlyphs" textLength="8" x="891.8969" y="203.9981">1</text><!--
@startuml
skinparam classAttributeIconSize 0
hide methods
left to right direction

class Plataforma {
  -String designacao
}

class Colaborador {
  -String nome
  -String funcao
  -String telefone
  -String email
}

class Tarefa {
  -String referencia
  -String designacao
  -String descInformal
  -String descTecnica
  -Integer duracaoEst
  -Double custoEst
}

class TipoRegimento
{
    -String designacao
    -String descricaoRegras
}

class Anuncio
{
    -Date dtInicioPublicitacao
    -Date dtFimPublicitacao
    -Date dtInicioCandidatura
    -Date dtFimCandidatura
    -Date dtInicioSeriacao
    -Date dtFimSeriacao
}

class Organizacao {
  -String nome
  -String NIF
  -String website
  -String telefone
  -String email
}

Plataforma "1" - - "*" Anuncio : publicita >
Plataforma "1" - - "*" TipoRegimento : suporta >
Plataforma "1" - - "*" Organizacao : tem registadas >

Organizacao "1" - - "*" Tarefa: possui >

Tarefa "*" - - "1" Colaborador: especificada por >

Anuncio "0..1" - - "1" Tarefa: publicita >
Anuncio "0..1" - - "1" Tarefa: dá origem <
Anuncio "*" - - "1" TipoRegimento: rege-se por >
Anuncio "*" - - "1" Colaborador: publicado por >

@enduml

PlantUML version 1.2019.09(Mon Aug 26 17:19:51 WEST 2019)
(GPL source distribution)
Java Runtime: Java(TM) SE Runtime Environment
JVM: Java HotSpot(TM) 64-Bit Server VM
Java Version: 1.8.0_161-b12
Operating System: Mac OS X
OS Version: 10.15.4
Default Encoding: UTF-8
Language: pt
Country: PT
--></g></svg>