<?xml version="1.0" encoding="UTF-8" standalone="no"?><svg xmlns="http://www.w3.org/2000/svg" xmlns:xlink="http://www.w3.org/1999/xlink" contentScriptType="application/ecmascript" contentStyleType="text/css" height="168px" preserveAspectRatio="none" style="width:1686px;height:168px;" version="1.1" viewBox="0 0 1686 168" width="1686.6px" zoomAndPan="magnify"><defs><filter height="300%" id="f5a11k8gejn36" width="300%" x="-1" y="-1"><feGaussianBlur result="blurOut" stdDeviation="1.2"/><feColorMatrix in="blurOut" result="blurOut2" type="matrix" values="0 0 0 0 0 0 0 0 0 0 0 0 0 0 0 0 0 0 .4 0"/><feOffset dx="2.4" dy="2.4" in="blurOut2" result="blurOut3"/><feBlend in="SourceGraphic" in2="blurOut3" mode="normal"/></filter></defs><g><!--MD5=[1f40bbeea97bc4a9b030f6b2003c412e]
class EfectuarCandidaturaUI--><rect fill="#FEFECE" filter="url(#f5a11k8gejn36)" height="28.8" id="EfectuarCandidaturaUI" style="stroke: #A80036; stroke-width: 0.8999999999999999;" width="96.6" x="3.6" y="53.4"/><ellipse cx="12.6" cy="63" fill="#ADD1B2" rx="6.6" ry="6.6" style="stroke: #A80036; stroke-width: 0.6;"/><path d="M14.0839,66.6858 Q13.7353,66.8651 13.3518,66.9548 Q12.9683,67.0444 12.5449,67.0444 Q11.0408,67.0444 10.2489,66.0533 Q9.457,65.0622 9.457,63.1896 Q9.457,61.3119 10.2489,60.3208 Q11.0408,59.3297 12.5449,59.3297 Q12.9683,59.3297 13.3567,59.4193 Q13.7452,59.509 14.0839,59.6883 L14.0839,61.3219 Q13.7054,60.9732 13.3493,60.8114 Q12.9932,60.6495 12.6146,60.6495 Q11.8078,60.6495 11.3969,61.2895 Q10.986,61.9295 10.986,63.1896 Q10.986,64.4446 11.3969,65.0846 Q11.8078,65.7246 12.6146,65.7246 Q12.9932,65.7246 13.3493,65.5627 Q13.7054,65.4009 14.0839,65.0522 Z "/><text fill="#000000" font-family="sans-serif" font-size="7.2" lengthAdjust="spacingAndGlyphs" textLength="77.4" x="21" y="65.7211">EfectuarCandidaturaUI</text><line style="stroke: #A80036; stroke-width: 0.8999999999999999;" x1="4.2" x2="99.6" y1="72.6" y2="72.6"/><line style="stroke: #A80036; stroke-width: 0.8999999999999999;" x1="4.2" x2="99.6" y1="77.4" y2="77.4"/><!--MD5=[741f9b02387bdaf8378ac54065db160d]
class EfectuarCandidaturaController--><rect fill="#FEFECE" filter="url(#f5a11k8gejn36)" height="52.1191" id="EfectuarCandidaturaController" style="stroke: #A80036; stroke-width: 0.8999999999999999;" width="212.4" x="136.8" y="41.7"/><ellipse cx="188.25" cy="51.3" fill="#ADD1B2" rx="6.6" ry="6.6" style="stroke: #A80036; stroke-width: 0.6;"/><path d="M189.7339,54.9858 Q189.3853,55.1651 189.0018,55.2548 Q188.6183,55.3444 188.1949,55.3444 Q186.6908,55.3444 185.8989,54.3533 Q185.107,53.3622 185.107,51.4896 Q185.107,49.6119 185.8989,48.6208 Q186.6908,47.6297 188.1949,47.6297 Q188.6183,47.6297 189.0067,47.7193 Q189.3952,47.809 189.7339,47.9883 L189.7339,49.6219 Q189.3554,49.2732 188.9993,49.1114 Q188.6432,48.9495 188.2646,48.9495 Q187.4578,48.9495 187.0469,49.5895 Q186.636,50.2295 186.636,51.4896 Q186.636,52.7446 187.0469,53.3846 Q187.4578,54.0246 188.2646,54.0246 Q188.6432,54.0246 188.9993,53.8627 Q189.3554,53.7009 189.7339,53.3522 Z "/><text fill="#000000" font-family="sans-serif" font-size="7.2" lengthAdjust="spacingAndGlyphs" textLength="104.4" x="200.55" y="54.0211">EfectuarCandidaturaController</text><line style="stroke: #A80036; stroke-width: 0.8999999999999999;" x1="137.4" x2="348.6" y1="60.9" y2="60.9"/><line style="stroke: #A80036; stroke-width: 0.8999999999999999;" x1="137.4" x2="348.6" y1="65.7" y2="65.7"/><text fill="#000000" font-family="sans-serif" font-size="6.6" lengthAdjust="spacingAndGlyphs" textLength="121.2" x="140.4" y="74.4809">+getAnunciosElegiveisDoFreelancer()</text><text fill="#000000" font-family="sans-serif" font-size="6.6" lengthAdjust="spacingAndGlyphs" textLength="205.2" x="140.4" y="82.2539">+novaCandidatura(anuncioId,valorPrt,nrDias,txtApres,txtMotiv)</text><text fill="#000000" font-family="sans-serif" font-size="6.6" lengthAdjust="spacingAndGlyphs" textLength="72" x="140.4" y="90.027">+registaCandidatura()</text><!--MD5=[ecaed46f78f8cfe1e9ce18477649be18]
class Plataforma--><rect fill="#FEFECE" filter="url(#f5a11k8gejn36)" height="52.1191" id="Plataforma" style="stroke: #A80036; stroke-width: 0.8999999999999999;" width="84" x="385.8" y="41.7"/><ellipse cx="407.22" cy="51.3" fill="#ADD1B2" rx="6.6" ry="6.6" style="stroke: #A80036; stroke-width: 0.6;"/><path d="M408.7039,54.9858 Q408.3553,55.1651 407.9718,55.2548 Q407.5883,55.3444 407.1649,55.3444 Q405.6608,55.3444 404.8689,54.3533 Q404.077,53.3622 404.077,51.4896 Q404.077,49.6119 404.8689,48.6208 Q405.6608,47.6297 407.1649,47.6297 Q407.5883,47.6297 407.9767,47.7193 Q408.3652,47.809 408.7039,47.9883 L408.7039,49.6219 Q408.3254,49.2732 407.9693,49.1114 Q407.6132,48.9495 407.2346,48.9495 Q406.4278,48.9495 406.0169,49.5895 Q405.606,50.2295 405.606,51.4896 Q405.606,52.7446 406.0169,53.3846 Q406.4278,54.0246 407.2346,54.0246 Q407.6132,54.0246 407.9693,53.8627 Q408.3254,53.7009 408.7039,53.3522 Z "/><text fill="#000000" font-family="sans-serif" font-size="7.2" lengthAdjust="spacingAndGlyphs" textLength="37.2" x="418.38" y="54.0211">Plataforma</text><line style="stroke: #A80036; stroke-width: 0.8999999999999999;" x1="386.4" x2="469.2" y1="60.9" y2="60.9"/><text fill="#000000" font-family="sans-serif" font-size="6.6" lengthAdjust="spacingAndGlyphs" textLength="61.2" x="389.4" y="69.6809">-String designacao</text><text fill="#000000" font-family="sans-serif" font-size="6.6" lengthAdjust="spacingAndGlyphs" textLength="76.8" x="389.4" y="77.4539">+getRegistoFreelancers</text><line style="stroke: #A80036; stroke-width: 0.8999999999999999;" x1="386.4" x2="469.2" y1="81.2461" y2="81.2461"/><text fill="#000000" font-family="sans-serif" font-size="6.6" lengthAdjust="spacingAndGlyphs" textLength="75" x="389.4" y="90.027">+getRegistoAnuncios()</text><!--MD5=[5989a2e3174efcfc62cf38168ac2ffc8]
class RegistoFreelancer--><rect fill="#FEFECE" filter="url(#f5a11k8gejn36)" height="36.573" id="RegistoFreelancer" style="stroke: #A80036; stroke-width: 0.8999999999999999;" width="102" x="552.6" y="5.1"/><ellipse cx="571.32" cy="14.7" fill="#ADD1B2" rx="6.6" ry="6.6" style="stroke: #A80036; stroke-width: 0.6;"/><path d="M572.8039,18.3858 Q572.4553,18.5651 572.0718,18.6548 Q571.6883,18.7444 571.2649,18.7444 Q569.7608,18.7444 568.9689,17.7533 Q568.177,16.7622 568.177,14.8896 Q568.177,13.0119 568.9689,12.0208 Q569.7608,11.0297 571.2649,11.0297 Q571.6883,11.0297 572.0767,11.1193 Q572.4652,11.209 572.8039,11.3883 L572.8039,13.0219 Q572.4254,12.6732 572.0693,12.5114 Q571.7132,12.3495 571.3346,12.3495 Q570.5278,12.3495 570.1169,12.9895 Q569.706,13.6295 569.706,14.8896 Q569.706,16.1446 570.1169,16.7846 Q570.5278,17.4246 571.3346,17.4246 Q571.7132,17.4246 572.0693,17.2627 Q572.4254,17.1009 572.8039,16.7522 Z "/><text fill="#000000" font-family="sans-serif" font-size="7.2" lengthAdjust="spacingAndGlyphs" textLength="61.2" x="581.88" y="17.4211">RegistoFreelancer</text><line style="stroke: #A80036; stroke-width: 0.8999999999999999;" x1="553.2" x2="654" y1="24.3" y2="24.3"/><line style="stroke: #A80036; stroke-width: 0.8999999999999999;" x1="553.2" x2="654" y1="29.1" y2="29.1"/><text fill="#000000" font-family="sans-serif" font-size="6.6" lengthAdjust="spacingAndGlyphs" textLength="94.8" x="556.2" y="37.8809">+getFreelancerByEmail(email)</text><!--MD5=[a7dddfa65532da486ef518ad0cedfd89]
class RegistoAnuncios--><rect fill="#FEFECE" filter="url(#f5a11k8gejn36)" height="44.3461" id="RegistoAnuncios" style="stroke: #A80036; stroke-width: 0.8999999999999999;" width="142.8" x="532.2" y="86.4"/><ellipse cx="573.15" cy="96" fill="#ADD1B2" rx="6.6" ry="6.6" style="stroke: #A80036; stroke-width: 0.6;"/><path d="M574.6339,99.6858 Q574.2853,99.8651 573.9018,99.9548 Q573.5183,100.0444 573.0949,100.0444 Q571.5908,100.0444 570.7989,99.0533 Q570.007,98.0622 570.007,96.1896 Q570.007,94.3119 570.7989,93.3208 Q571.5908,92.3297 573.0949,92.3297 Q573.5183,92.3297 573.9067,92.4193 Q574.2952,92.509 574.6339,92.6883 L574.6339,94.3219 Q574.2554,93.9732 573.8993,93.8114 Q573.5432,93.6495 573.1646,93.6495 Q572.3578,93.6495 571.9469,94.2895 Q571.536,94.9295 571.536,96.1896 Q571.536,97.4446 571.9469,98.0846 Q572.3578,98.7246 573.1646,98.7246 Q573.5432,98.7246 573.8993,98.5627 Q574.2554,98.4009 574.6339,98.0522 Z "/><text fill="#000000" font-family="sans-serif" font-size="7.2" lengthAdjust="spacingAndGlyphs" textLength="55.8" x="585.45" y="98.7211">RegistoAnuncios</text><line style="stroke: #A80036; stroke-width: 0.8999999999999999;" x1="532.8" x2="674.4" y1="105.6" y2="105.6"/><line style="stroke: #A80036; stroke-width: 0.8999999999999999;" x1="532.8" x2="674.4" y1="110.4" y2="110.4"/><text fill="#000000" font-family="sans-serif" font-size="6.6" lengthAdjust="spacingAndGlyphs" textLength="135.6" x="535.8" y="119.1809">+getAnunciosElegiveisDoFreelancer(freel)</text><text fill="#000000" font-family="sans-serif" font-size="6.6" lengthAdjust="spacingAndGlyphs" textLength="92.4" x="535.8" y="126.9539">+getAnuncioById(anuncioId)</text><!--MD5=[1f687b5315377fe49fca59b457947463]
class Freelancer--><rect fill="#FEFECE" filter="url(#f5a11k8gejn36)" height="59.8922" id="Freelancer" style="stroke: #A80036; stroke-width: 0.8999999999999999;" width="57.6" x="1622.4" y="28.2"/><ellipse cx="1632.48" cy="37.8" fill="#ADD1B2" rx="6.6" ry="6.6" style="stroke: #A80036; stroke-width: 0.6;"/><path d="M1633.9639,41.4858 Q1633.6153,41.6651 1633.2318,41.7548 Q1632.8483,41.8444 1632.4249,41.8444 Q1630.9208,41.8444 1630.1289,40.8533 Q1629.337,39.8622 1629.337,37.9896 Q1629.337,36.1119 1630.1289,35.1208 Q1630.9208,34.1297 1632.4249,34.1297 Q1632.8483,34.1297 1633.2367,34.2193 Q1633.6252,34.309 1633.9639,34.4883 L1633.9639,36.1219 Q1633.5854,35.7732 1633.2293,35.6114 Q1632.8732,35.4495 1632.4946,35.4495 Q1631.6878,35.4495 1631.2769,36.0895 Q1630.866,36.7295 1630.866,37.9896 Q1630.866,39.2446 1631.2769,39.8846 Q1631.6878,40.5246 1632.4946,40.5246 Q1632.8732,40.5246 1633.2293,40.3627 Q1633.5854,40.2009 1633.9639,39.8522 Z "/><text fill="#000000" font-family="sans-serif" font-size="7.2" lengthAdjust="spacingAndGlyphs" textLength="36" x="1641.12" y="40.5211">Freelancer</text><line style="stroke: #A80036; stroke-width: 0.8999999999999999;" x1="1623" x2="1679.4" y1="47.4" y2="47.4"/><text fill="#000000" font-family="sans-serif" font-size="6.6" lengthAdjust="spacingAndGlyphs" textLength="42.6" x="1626" y="56.1809">-String nome</text><text fill="#000000" font-family="sans-serif" font-size="6.6" lengthAdjust="spacingAndGlyphs" textLength="34.8" x="1626" y="63.9539">-String NIF</text><text fill="#000000" font-family="sans-serif" font-size="6.6" lengthAdjust="spacingAndGlyphs" textLength="50.4" x="1626" y="71.727">-String telefone</text><text fill="#000000" font-family="sans-serif" font-size="6.6" lengthAdjust="spacingAndGlyphs" textLength="41.4" x="1626" y="79.5">-String email</text><line style="stroke: #A80036; stroke-width: 0.8999999999999999;" x1="1623" x2="1679.4" y1="83.2922" y2="83.2922"/><!--MD5=[19db0db7353a4bf63eefc676e5ba9b80]
class Anuncio--><rect fill="#FEFECE" filter="url(#f5a11k8gejn36)" height="106.5305" id="Anuncio" style="stroke: #A80036; stroke-width: 0.8999999999999999;" width="227.4" x="737.4" y="55.2"/><ellipse cx="835.05" cy="64.8" fill="#ADD1B2" rx="6.6" ry="6.6" style="stroke: #A80036; stroke-width: 0.6;"/><path d="M836.5339,68.4858 Q836.1853,68.6651 835.8018,68.7548 Q835.4183,68.8444 834.9949,68.8444 Q833.4908,68.8444 832.6989,67.8533 Q831.907,66.8622 831.907,64.9896 Q831.907,63.1119 832.6989,62.1208 Q833.4908,61.1297 834.9949,61.1297 Q835.4183,61.1297 835.8067,61.2193 Q836.1952,61.309 836.5339,61.4883 L836.5339,63.1219 Q836.1554,62.7732 835.7993,62.6114 Q835.4432,62.4495 835.0646,62.4495 Q834.2578,62.4495 833.8469,63.0895 Q833.436,63.7295 833.436,64.9896 Q833.436,66.2446 833.8469,66.8846 Q834.2578,67.5246 835.0646,67.5246 Q835.4432,67.5246 835.7993,67.3627 Q836.1554,67.2009 836.5339,66.8522 Z "/><text fill="#000000" font-family="sans-serif" font-size="7.2" lengthAdjust="spacingAndGlyphs" textLength="27" x="847.35" y="67.5211">Anuncio</text><line style="stroke: #A80036; stroke-width: 0.8999999999999999;" x1="738" x2="964.2" y1="74.4" y2="74.4"/><text fill="#000000" font-family="sans-serif" font-size="6.6" lengthAdjust="spacingAndGlyphs" textLength="82.2" x="741" y="83.1809">-Date dtInicioPublicitacao</text><text fill="#000000" font-family="sans-serif" font-size="6.6" lengthAdjust="spacingAndGlyphs" textLength="76.2" x="741" y="90.9539">-Date dtFimPublicitacao</text><text fill="#000000" font-family="sans-serif" font-size="6.6" lengthAdjust="spacingAndGlyphs" textLength="83.4" x="741" y="98.727">-Date dtInicioCandidatura</text><text fill="#000000" font-family="sans-serif" font-size="6.6" lengthAdjust="spacingAndGlyphs" textLength="77.4" x="741" y="106.5">-Date dtFimCandidatura</text><text fill="#000000" font-family="sans-serif" font-size="6.6" lengthAdjust="spacingAndGlyphs" textLength="70.8" x="741" y="114.273">-Date dtInicioSeriacao</text><text fill="#000000" font-family="sans-serif" font-size="6.6" lengthAdjust="spacingAndGlyphs" textLength="64.8" x="741" y="122.0461">-Date dtFimSeriacao</text><line style="stroke: #A80036; stroke-width: 0.8999999999999999;" x1="738" x2="964.2" y1="125.8383" y2="125.8383"/><text fill="#000000" font-family="sans-serif" font-size="6.6" lengthAdjust="spacingAndGlyphs" textLength="220.2" x="741" y="134.6191">+novaCandidatura(freel,dataCand,valorPrt,nrDias,txtApres,txtMotiv)</text><text fill="#000000" font-family="sans-serif" font-size="6.6" lengthAdjust="spacingAndGlyphs" textLength="72" x="741" y="142.3922">+aceitaCandidaturas()</text><text fill="#000000" font-family="sans-serif" font-size="6.6" lengthAdjust="spacingAndGlyphs" textLength="85.8" x="741" y="150.1652">+éFreelancerElegivel(freel)</text><text fill="#000000" font-family="sans-serif" font-size="6.6" lengthAdjust="spacingAndGlyphs" textLength="87.6" x="741" y="157.9383">+registaCandidatura(cand)</text><!--MD5=[ced2a86ae8bdfec1c757b7c305a75b1d]
class ListaCandidaturas--><rect fill="#FEFECE" filter="url(#f5a11k8gejn36)" height="59.8922" id="ListaCandidaturas" style="stroke: #A80036; stroke-width: 0.8999999999999999;" width="227.4" x="1027.2" y="68.4"/><ellipse cx="1107.45" cy="78" fill="#ADD1B2" rx="6.6" ry="6.6" style="stroke: #A80036; stroke-width: 0.6;"/><path d="M1108.9339,81.6858 Q1108.5853,81.8651 1108.2018,81.9548 Q1107.8183,82.0444 1107.3949,82.0444 Q1105.8908,82.0444 1105.0989,81.0533 Q1104.307,80.0622 1104.307,78.1896 Q1104.307,76.3119 1105.0989,75.3208 Q1105.8908,74.3297 1107.3949,74.3297 Q1107.8183,74.3297 1108.2067,74.4193 Q1108.5952,74.509 1108.9339,74.6883 L1108.9339,76.3219 Q1108.5554,75.9732 1108.1993,75.8114 Q1107.8432,75.6495 1107.4646,75.6495 Q1106.6578,75.6495 1106.2469,76.2895 Q1105.836,76.9295 1105.836,78.1896 Q1105.836,79.4446 1106.2469,80.0846 Q1106.6578,80.7246 1107.4646,80.7246 Q1107.8432,80.7246 1108.1993,80.5627 Q1108.5554,80.4009 1108.9339,80.0522 Z "/><text fill="#000000" font-family="sans-serif" font-size="7.2" lengthAdjust="spacingAndGlyphs" textLength="61.8" x="1119.75" y="80.7211">ListaCandidaturas</text><line style="stroke: #A80036; stroke-width: 0.8999999999999999;" x1="1027.8" x2="1254" y1="87.6" y2="87.6"/><line style="stroke: #A80036; stroke-width: 0.8999999999999999;" x1="1027.8" x2="1254" y1="92.4" y2="92.4"/><text fill="#000000" font-family="sans-serif" font-size="6.6" lengthAdjust="spacingAndGlyphs" textLength="220.2" x="1030.8" y="101.1809">+novaCandidatura(freel,dataCand,valorPrt,nrDias,txtApres,txtMotiv)</text><text fill="#000000" font-family="sans-serif" font-size="6.6" lengthAdjust="spacingAndGlyphs" textLength="87.6" x="1030.8" y="108.9539">+registaCandidatura(cand)</text><text fill="#000000" font-family="sans-serif" font-size="6.6" lengthAdjust="spacingAndGlyphs" textLength="82.2" x="1030.8" y="116.727">-validaCandidatura(cand)</text><text fill="#000000" font-family="sans-serif" font-size="6.6" lengthAdjust="spacingAndGlyphs" textLength="75.6" x="1030.8" y="124.5">-addCandidatura(cand)</text><!--MD5=[475c5b924ed41035684e2831311827d2]
class Candidatura--><rect fill="#FEFECE" filter="url(#f5a11k8gejn36)" height="75.4383" id="Candidatura" style="stroke: #A80036; stroke-width: 0.8999999999999999;" width="211.8" x="1317" y="55.8"/><ellipse cx="1399.05" cy="65.4" fill="#ADD1B2" rx="6.6" ry="6.6" style="stroke: #A80036; stroke-width: 0.6;"/><path d="M1400.5339,69.0858 Q1400.1853,69.2651 1399.8018,69.3548 Q1399.4183,69.4444 1398.9949,69.4444 Q1397.4908,69.4444 1396.6989,68.4533 Q1395.907,67.4622 1395.907,65.5896 Q1395.907,63.7119 1396.6989,62.7208 Q1397.4908,61.7297 1398.9949,61.7297 Q1399.4183,61.7297 1399.8067,61.8193 Q1400.1952,61.909 1400.5339,62.0883 L1400.5339,63.7219 Q1400.1554,63.3732 1399.7993,63.2114 Q1399.4432,63.0495 1399.0646,63.0495 Q1398.2578,63.0495 1397.8469,63.6895 Q1397.436,64.3295 1397.436,65.5896 Q1397.436,66.8446 1397.8469,67.4846 Q1398.2578,68.1246 1399.0646,68.1246 Q1399.4432,68.1246 1399.7993,67.9627 Q1400.1554,67.8009 1400.5339,67.4522 Z "/><text fill="#000000" font-family="sans-serif" font-size="7.2" lengthAdjust="spacingAndGlyphs" textLength="42.6" x="1411.35" y="68.1211">Candidatura</text><line style="stroke: #A80036; stroke-width: 0.8999999999999999;" x1="1317.6" x2="1528.2" y1="75" y2="75"/><text fill="#000000" font-family="sans-serif" font-size="6.6" lengthAdjust="spacingAndGlyphs" textLength="73.2" x="1320.6" y="83.7809">-Date dataCandidatura</text><text fill="#000000" font-family="sans-serif" font-size="6.6" lengthAdjust="spacingAndGlyphs" textLength="79.2" x="1320.6" y="91.5539">-Double valorPretendido</text><text fill="#000000" font-family="sans-serif" font-size="6.6" lengthAdjust="spacingAndGlyphs" textLength="49.2" x="1320.6" y="99.327">-Integer nrDias</text><text fill="#000000" font-family="sans-serif" font-size="6.6" lengthAdjust="spacingAndGlyphs" textLength="78" x="1320.6" y="107.1">-String txtApresentacao</text><text fill="#000000" font-family="sans-serif" font-size="6.6" lengthAdjust="spacingAndGlyphs" textLength="66" x="1320.6" y="114.873">-String txtMotivacao</text><line style="stroke: #A80036; stroke-width: 0.8999999999999999;" x1="1317.6" x2="1528.2" y1="118.6652" y2="118.6652"/><text fill="#000000" font-family="sans-serif" font-size="6.6" lengthAdjust="spacingAndGlyphs" textLength="204.6" x="1320.6" y="127.4461">+Candidatura(freel,dataCand,valorPrt,nrDias,txtApres,txtMotiv)</text><!--MD5=[259a2e34fbb33cfffdeac112ec04488e]
link EfectuarCandidaturaUI to EfectuarCandidaturaController--><path d="M100.422,67.8 C110.664,67.8 121.884,67.8 133.386,67.8 " fill="none" id="EfectuarCandidaturaUI-&gt;EfectuarCandidaturaController" style="stroke: #A80036; stroke-width: 0.6; stroke-dasharray: 7.0,7.0;"/><polygon fill="#A80036" points="136.638,67.8,131.238,65.4,133.638,67.8,131.238,70.2,136.638,67.8" style="stroke: #A80036; stroke-width: 0.6;"/><!--MD5=[ca61330cb81772f99543bb63e2d79cd3]
link EfectuarCandidaturaController to Plataforma--><path d="M349.338,67.8 C360.966,67.8 372.294,67.8 382.542,67.8 " fill="none" id="EfectuarCandidaturaController-&gt;Plataforma" style="stroke: #A80036; stroke-width: 0.6; stroke-dasharray: 7.0,7.0;"/><polygon fill="#A80036" points="385.686,67.8,380.286,65.4,382.686,67.8,380.286,70.2,385.686,67.8" style="stroke: #A80036; stroke-width: 0.6;"/><!--MD5=[a1da5051d7c67e9ee4054652bdf37115]
link EfectuarCandidaturaController to RegistoFreelancer--><path d="M332.892,41.688 C350.304,37.488 368.52,33.702 385.8,31.2 C441.138,23.178 505.194,21.834 549.33,22.116 " fill="none" id="EfectuarCandidaturaController-&gt;RegistoFreelancer" style="stroke: #A80036; stroke-width: 0.6; stroke-dasharray: 7.0,7.0;"/><polygon fill="#A80036" points="552.468,22.14,547.0888,19.6938,549.4681,22.1143,547.0476,24.4936,552.468,22.14" style="stroke: #A80036; stroke-width: 0.6;"/><!--MD5=[9aa08f69c391ba2eed8345dd9453e6ec]
link EfectuarCandidaturaController to RegistoAnuncios--><path d="M331.908,93.912 C349.608,98.184 368.184,101.994 385.8,104.4 C433.152,110.862 486.84,111.954 528.99,111.414 " fill="none" id="EfectuarCandidaturaController-&gt;RegistoAnuncios" style="stroke: #A80036; stroke-width: 0.6; stroke-dasharray: 7.0,7.0;"/><polygon fill="#A80036" points="532.002,111.372,526.5683,109.0494,529.0023,111.4149,526.6368,113.8489,532.002,111.372" style="stroke: #A80036; stroke-width: 0.6;"/><!--MD5=[463821f61fd53759657c2ac769a7e835]
link Plataforma to RegistoAnuncios--><path d="M469.998,77.52 C487.686,81.654 508.866,86.604 529.062,91.32 " fill="none" id="Plataforma-&gt;RegistoAnuncios" style="stroke: #A80036; stroke-width: 0.6;"/><polygon fill="#A80036" points="532.032,92.016,527.313,88.4592,529.1094,91.3389,526.2297,93.1353,532.032,92.016" style="stroke: #A80036; stroke-width: 0.6;"/><text fill="#000000" font-family="sans-serif" font-size="7.8" lengthAdjust="spacingAndGlyphs" textLength="25.2" x="488.4" y="79.541">possui</text><text fill="#000000" font-family="sans-serif" font-size="7.8" lengthAdjust="spacingAndGlyphs" textLength="4.8" x="474.5972" y="86.5412">1</text><text fill="#000000" font-family="sans-serif" font-size="7.8" lengthAdjust="spacingAndGlyphs" textLength="4.8" x="522.4934" y="98.7906">1</text><!--MD5=[957336f8f7652c1733534e96e2968a5f]
link Plataforma to RegistoFreelancer--><path d="M469.998,57.222 C493.842,51.156 524.022,43.482 549.6,36.978 " fill="none" id="Plataforma-&gt;RegistoFreelancer" style="stroke: #A80036; stroke-width: 0.6;"/><polygon fill="#A80036" points="552.54,36.234,546.7163,35.2315,549.6316,36.9697,547.8934,39.8849,552.54,36.234" style="stroke: #A80036; stroke-width: 0.6;"/><text fill="#000000" font-family="sans-serif" font-size="7.8" lengthAdjust="spacingAndGlyphs" textLength="25.2" x="488.4" y="44.741">possui</text><text fill="#000000" font-family="sans-serif" font-size="7.8" lengthAdjust="spacingAndGlyphs" textLength="4.8" x="474.5972" y="64.15">1</text><text fill="#000000" font-family="sans-serif" font-size="7.8" lengthAdjust="spacingAndGlyphs" textLength="4.8" x="542.9787" y="45.3283">1</text><!--MD5=[2903b91671052adea6f5e59eb6d59b42]
link RegistoAnuncios to Anuncio--><path d="M675.108,108.6 C693.588,108.6 714,108.6 734.16,108.6 " fill="none" id="RegistoAnuncios-&gt;Anuncio" style="stroke: #A80036; stroke-width: 0.6;"/><polygon fill="#A80036" points="737.394,108.6,731.994,106.2,734.394,108.6,731.994,111,737.394,108.6" style="stroke: #A80036; stroke-width: 0.6;"/><text fill="#000000" font-family="sans-serif" font-size="7.8" lengthAdjust="spacingAndGlyphs" textLength="25.2" x="693.6" y="106.541">agrega</text><text fill="#000000" font-family="sans-serif" font-size="7.8" lengthAdjust="spacingAndGlyphs" textLength="4.8" x="679.8427" y="116.437">1</text><text fill="#000000" font-family="sans-serif" font-size="7.8" lengthAdjust="spacingAndGlyphs" textLength="3.6" x="728.9211" y="116.3405">*</text><!--MD5=[936379bbb1fbe67f1148bc2fdcd3e3c1]
link Anuncio to ListaCandidaturas--><path d="M964.932,104.598 C984.348,103.914 1004.544,103.2 1024.032,102.51 " fill="none" id="Anuncio-&gt;ListaCandidaturas" style="stroke: #A80036; stroke-width: 0.6;"/><polygon fill="#A80036" points="1027.158,102.396,1021.6789,100.1824,1024.1598,102.4988,1021.8434,104.9796,1027.158,102.396" style="stroke: #A80036; stroke-width: 0.6;"/><text fill="#000000" font-family="sans-serif" font-size="7.8" lengthAdjust="spacingAndGlyphs" textLength="25.2" x="983.4" y="100.541">possui</text><text fill="#000000" font-family="sans-serif" font-size="7.8" lengthAdjust="spacingAndGlyphs" textLength="4.8" x="969.4723" y="112.1674">1</text><text fill="#000000" font-family="sans-serif" font-size="7.8" lengthAdjust="spacingAndGlyphs" textLength="4.8" x="1017.4583" y="110.3016">1</text><!--MD5=[b3c62d3bd372a34b7ee6d6af17619677]
link ListaCandidaturas to Candidatura--><path d="M1254.702,96.462 C1274.22,96.132 1294.464,95.784 1313.85,95.454 " fill="none" id="ListaCandidaturas-&gt;Candidatura" style="stroke: #A80036; stroke-width: 0.6;"/><polygon fill="#A80036" points="1316.958,95.4,1311.5177,93.0929,1313.9584,95.4514,1311.5999,97.8922,1316.958,95.4" style="stroke: #A80036; stroke-width: 0.6;"/><text fill="#000000" font-family="sans-serif" font-size="7.8" lengthAdjust="spacingAndGlyphs" textLength="25.2" x="1273.2" y="93.341">agrega</text><text fill="#000000" font-family="sans-serif" font-size="7.8" lengthAdjust="spacingAndGlyphs" textLength="4.8" x="1259.2411" y="104.1088">1</text><text fill="#000000" font-family="sans-serif" font-size="7.8" lengthAdjust="spacingAndGlyphs" textLength="3.6" x="1308.4759" y="103.2344">*</text><!--MD5=[a66e767a4304f5fa76db98d7839a7a61]
link Candidatura to Freelancer--><path d="M1528.908,77.172 C1561.746,72.048 1595.502,66.786 1619.106,63.108 " fill="none" id="Candidatura-&gt;Freelancer" style="stroke: #A80036; stroke-width: 0.6;"/><polygon fill="#A80036" points="1622.22,62.622,1616.5145,61.0834,1619.2559,63.0846,1617.2547,65.826,1622.22,62.622" style="stroke: #A80036; stroke-width: 0.6;"/><text fill="#000000" font-family="sans-serif" font-size="7.8" lengthAdjust="spacingAndGlyphs" textLength="48.6" x="1547.4" y="63.341">realizada por</text><polygon fill="#000000" points="1597.8,59.4932,1601.4,61.2932,1597.8,63.0932,1597.8,59.4932" style="stroke: #000000; stroke-width: 0.6;"/><text fill="#000000" font-family="sans-serif" font-size="7.8" lengthAdjust="spacingAndGlyphs" textLength="3.6" x="1533.4561" y="84.2171">*</text><text fill="#000000" font-family="sans-serif" font-size="7.8" lengthAdjust="spacingAndGlyphs" textLength="4.8" x="1612.8111" y="71.495">1</text><!--MD5=[95795e0b4ecb0b567ae2ce3910745252]
link RegistoFreelancer to Freelancer--><path d="M654.672,23.4 C704.46,23.4 782.724,23.4 850.5,23.4 C850.5,23.4 850.5,23.4 1423.5,23.4 C1494.102,23.4 1575.642,40.038 1619.238,50.304 " fill="none" id="RegistoFreelancer-&gt;Freelancer" style="stroke: #A80036; stroke-width: 0.6;"/><polygon fill="#A80036" points="1622.31,51.03,1617.6132,47.4439,1619.3917,50.3348,1616.5008,52.1132,1622.31,51.03" style="stroke: #A80036; stroke-width: 0.6;"/><text fill="#000000" font-family="sans-serif" font-size="7.8" lengthAdjust="spacingAndGlyphs" textLength="25.2" x="1128.3" y="21.341">agrega</text><text fill="#000000" font-family="sans-serif" font-size="7.8" lengthAdjust="spacingAndGlyphs" textLength="4.8" x="659.4343" y="31.3513">1</text><text fill="#000000" font-family="sans-serif" font-size="7.8" lengthAdjust="spacingAndGlyphs" textLength="3.6" x="1614.0106" y="58.1847">*</text><!--MD5=[083d9137d0234cb5471936c2b6b0664b]
@startuml
skinparam classAttributeIconSize 0
left to right direction

class EfectuarCandidaturaUI {
}

class EfectuarCandidaturaController {
  +getAnunciosElegiveisDoFreelancer()
  +novaCandidatura(anuncioId,valorPrt,nrDias,txtApres,txtMotiv)
  +registaCandidatura()
}

class Plataforma {
    -String designacao
    +getRegistoFreelancers
    +getRegistoAnuncios()
}

class RegistoFreelancer
{
 +getFreelancerByEmail(email)
}

class RegistoAnuncios
{
  +getAnunciosElegiveisDoFreelancer(freel)
  +getAnuncioById(anuncioId)
}

class Freelancer {
    -String nome
    -String NIF
    -String telefone
    -String email
}

class Anuncio
{
    -Date dtInicioPublicitacao
    -Date dtFimPublicitacao
    -Date dtInicioCandidatura
    -Date dtFimCandidatura
    -Date dtInicioSeriacao
    -Date dtFimSeriacao
    +novaCandidatura(freel,dataCand,valorPrt,nrDias,txtApres,txtMotiv)
    +aceitaCandidaturas()
    +éFreelancerElegivel(freel)
    +registaCandidatura(cand)
}

class ListaCandidaturas
{
  +novaCandidatura(freel,dataCand,valorPrt,nrDias,txtApres,txtMotiv)
  +registaCandidatura(cand)
  -validaCandidatura(cand)
  -addCandidatura(cand)
}

class Candidatura
{
    -Date dataCandidatura
    -Double valorPretendido
    -Integer nrDias
    -String txtApresentacao
    -String txtMotivacao
    +Candidatura(freel,dataCand,valorPrt,nrDias,txtApres,txtMotiv)
}

EfectuarCandidaturaUI ..> EfectuarCandidaturaController
EfectuarCandidaturaController ..> Plataforma
EfectuarCandidaturaController ..> RegistoFreelancer
EfectuarCandidaturaController ..> RegistoAnuncios

Plataforma "1" - -> "1" RegistoAnuncios : possui
Plataforma "1" - -> "1" RegistoFreelancer : possui

RegistoAnuncios "1" - -> "*" Anuncio : agrega
Anuncio "1" - -> "1" ListaCandidaturas : possui
ListaCandidaturas "1" - -> "*" Candidatura : agrega

Candidatura "*" - -> "1"  Freelancer: realizada por >

RegistoFreelancer "1" - -> "*" Freelancer: agrega


@enduml

PlantUML version 1.2020.07(Sun Apr 19 12:42:40 WEST 2020)
(GPL source distribution)
Java Runtime: OpenJDK Runtime Environment
JVM: OpenJDK 64-Bit Server VM
Java Version: 11.0.6+8-b765.25
Operating System: Mac OS X
Default Encoding: UTF-8
Language: en
Country: PT
--></g></svg>