<?xml version="1.0" encoding="UTF-8" standalone="no"?><svg xmlns="http://www.w3.org/2000/svg" xmlns:xlink="http://www.w3.org/1999/xlink" contentScriptType="application/ecmascript" contentStyleType="text/css" height="609.6px" preserveAspectRatio="none" style="width:943px;height:609px;" version="1.1" viewBox="0 0 943 609" width="943.2px" zoomAndPan="magnify"><defs><filter height="300%" id="fok5swdp8uln4" width="300%" x="-1" y="-1"><feGaussianBlur result="blurOut" stdDeviation="1.6"/><feColorMatrix in="blurOut" result="blurOut2" type="matrix" values="0 0 0 0 0 0 0 0 0 0 0 0 0 0 0 0 0 0 .4 0"/><feOffset dx="3.2" dy="3.2" in="blurOut2" result="blurOut3"/><feBlend in="SourceGraphic" in2="blurOut3" mode="normal"/></filter></defs><g><!--MD5=[fdd143688dd4c22e6f2ee475119423ce]
class EspecificarColaboradorUI--><rect fill="#FEFECE" filter="url(#fok5swdp8uln4)" height="38.4" id="EspecificarColaboradorUI" style="stroke: #A80036; stroke-width: 1.2000000000000002;" width="141.6" x="400.8" y="6.4"/><ellipse cx="412.8" cy="19.2" fill="#ADD1B2" rx="8.8" ry="8.8" style="stroke: #A80036; stroke-width: 0.8;"/><path d="M414.7785,24.1145 Q414.3137,24.3535 413.8023,24.473 Q413.291,24.5926 412.7266,24.5926 Q410.7211,24.5926 409.6652,23.2711 Q408.6094,21.9496 408.6094,19.4527 Q408.6094,16.9492 409.6652,15.6277 Q410.7211,14.3063 412.7266,14.3063 Q413.291,14.3063 413.809,14.4258 Q414.327,14.5453 414.7785,14.7844 L414.7785,16.9625 Q414.2738,16.4977 413.799,16.2818 Q413.3242,16.066 412.8195,16.066 Q411.7438,16.066 411.1959,16.9193 Q410.648,17.7727 410.648,19.4527 Q410.648,21.1262 411.1959,21.9795 Q411.7438,22.8328 412.8195,22.8328 Q413.3242,22.8328 413.799,22.617 Q414.2738,22.4012 414.7785,21.9363 Z "/><text fill="#000000" font-family="sans-serif" font-size="9.6" lengthAdjust="spacingAndGlyphs" textLength="116" x="424" y="22.8281">EspecificarColaboradorUI</text><line style="stroke: #A80036; stroke-width: 1.2000000000000002;" x1="401.6" x2="541.6" y1="32" y2="32"/><line style="stroke: #A80036; stroke-width: 1.2000000000000002;" x1="401.6" x2="541.6" y1="38.4" y2="38.4"/><!--MD5=[ad1e0dfb7967d80be5dad4c9388df9ec]
class EspecificarColaboradorController--><rect fill="#FEFECE" filter="url(#fok5swdp8uln4)" height="59.1281" id="EspecificarColaboradorController" style="stroke: #A80036; stroke-width: 1.2000000000000002;" width="198.4" x="372.4" y="93.6"/><ellipse cx="393.76" cy="106.4" fill="#ADD1B2" rx="8.8" ry="8.8" style="stroke: #A80036; stroke-width: 0.8;"/><path d="M395.7385,111.3145 Q395.2737,111.5535 394.7623,111.673 Q394.251,111.7926 393.6866,111.7926 Q391.6811,111.7926 390.6252,110.4711 Q389.5694,109.1496 389.5694,106.6527 Q389.5694,104.1492 390.6252,102.8277 Q391.6811,101.5063 393.6866,101.5063 Q394.251,101.5063 394.769,101.6258 Q395.287,101.7453 395.7385,101.9844 L395.7385,104.1625 Q395.2338,103.6977 394.759,103.4818 Q394.2842,103.266 393.7795,103.266 Q392.7038,103.266 392.1559,104.1193 Q391.608,104.9727 391.608,106.6527 Q391.608,108.3262 392.1559,109.1795 Q392.7038,110.0328 393.7795,110.0328 Q394.2842,110.0328 394.759,109.817 Q395.2338,109.6012 395.7385,109.1363 Z "/><text fill="#000000" font-family="sans-serif" font-size="9.6" lengthAdjust="spacingAndGlyphs" textLength="152" x="407.04" y="110.0281">EspecificarColaboradorController</text><line style="stroke: #A80036; stroke-width: 1.2000000000000002;" x1="373.2" x2="570" y1="119.2" y2="119.2"/><line style="stroke: #A80036; stroke-width: 1.2000000000000002;" x1="373.2" x2="570" y1="125.6" y2="125.6"/><text fill="#000000" font-family="sans-serif" font-size="8.8" lengthAdjust="spacingAndGlyphs" textLength="188.8" x="377.2" y="137.3078">+novoColaborador(nome, funcao, tlf, email)</text><text fill="#000000" font-family="sans-serif" font-size="8.8" lengthAdjust="spacingAndGlyphs" textLength="97.6" x="377.2" y="147.6719">+registaColaborador()</text><!--MD5=[380d12a68ed0046a60f31008a02875d0]
class AplicacaoPOT--><rect fill="#FEFECE" filter="url(#fok5swdp8uln4)" height="59.1281" id="AplicacaoPOT" style="stroke: #A80036; stroke-width: 1.2000000000000002;" width="88.8" x="427.2" y="245.6"/><ellipse cx="439.2" cy="258.4" fill="#ADD1B2" rx="8.8" ry="8.8" style="stroke: #A80036; stroke-width: 0.8;"/><path d="M441.1785,263.3145 Q440.7137,263.5535 440.2023,263.673 Q439.691,263.7926 439.1266,263.7926 Q437.1211,263.7926 436.0652,262.4711 Q435.0094,261.1496 435.0094,258.6527 Q435.0094,256.1492 436.0652,254.8277 Q437.1211,253.5063 439.1266,253.5063 Q439.691,253.5063 440.209,253.6258 Q440.727,253.7453 441.1785,253.9844 L441.1785,256.1625 Q440.6738,255.6977 440.199,255.4818 Q439.7242,255.266 439.2195,255.266 Q438.1438,255.266 437.5959,256.1193 Q437.048,256.9727 437.048,258.6527 Q437.048,260.3262 437.5959,261.1795 Q438.1438,262.0328 439.2195,262.0328 Q439.7242,262.0328 440.199,261.817 Q440.6738,261.6012 441.1785,261.1363 Z "/><text fill="#000000" font-family="sans-serif" font-size="9.6" lengthAdjust="spacingAndGlyphs" textLength="63.2" x="450.4" y="262.0281">AplicacaoPOT</text><line style="stroke: #A80036; stroke-width: 1.2000000000000002;" x1="428" x2="515.2" y1="271.2" y2="271.2"/><line style="stroke: #A80036; stroke-width: 1.2000000000000002;" x1="428" x2="515.2" y1="277.6" y2="277.6"/><text fill="#000000" font-family="sans-serif" font-size="8.8" lengthAdjust="spacingAndGlyphs" text-decoration="underline" textLength="63.2" x="432" y="289.3078">+getInstance()</text><text fill="#000000" font-family="sans-serif" font-size="8.8" lengthAdjust="spacingAndGlyphs" textLength="79.2" x="432" y="299.6719">+getSessaoAtual()</text><!--MD5=[1e13576e8c070e32200b62ceaa1f39ec]
class SessaoUtilizador--><rect fill="#FEFECE" filter="url(#fok5swdp8uln4)" height="48.7641" id="SessaoUtilizador" style="stroke: #A80036; stroke-width: 1.2000000000000002;" width="100.8" x="544.4" y="250.8"/><ellipse cx="556.4" cy="263.6" fill="#ADD1B2" rx="8.8" ry="8.8" style="stroke: #A80036; stroke-width: 0.8;"/><path d="M558.3785,268.5145 Q557.9137,268.7535 557.4023,268.873 Q556.891,268.9926 556.3266,268.9926 Q554.3211,268.9926 553.2652,267.6711 Q552.2094,266.3496 552.2094,263.8527 Q552.2094,261.3492 553.2652,260.0277 Q554.3211,258.7063 556.3266,258.7063 Q556.891,258.7063 557.409,258.8258 Q557.927,258.9453 558.3785,259.1844 L558.3785,261.3625 Q557.8738,260.8977 557.399,260.6818 Q556.9242,260.466 556.4195,260.466 Q555.3438,260.466 554.7959,261.3193 Q554.248,262.1727 554.248,263.8527 Q554.248,265.5262 554.7959,266.3795 Q555.3438,267.2328 556.4195,267.2328 Q556.9242,267.2328 557.399,267.017 Q557.8738,266.8012 558.3785,266.3363 Z "/><text fill="#000000" font-family="sans-serif" font-size="9.6" lengthAdjust="spacingAndGlyphs" textLength="75.2" x="567.6" y="267.2281">SessaoUtilizador</text><line style="stroke: #A80036; stroke-width: 1.2000000000000002;" x1="545.2" x2="644.4" y1="276.4" y2="276.4"/><line style="stroke: #A80036; stroke-width: 1.2000000000000002;" x1="545.2" x2="644.4" y1="282.8" y2="282.8"/><text fill="#000000" font-family="sans-serif" font-size="8.8" lengthAdjust="spacingAndGlyphs" textLength="91.2" x="549.2" y="294.5078">+getEmailUtilizador()</text><!--MD5=[ecaed46f78f8cfe1e9ce18477649be18]
class Plataforma--><rect fill="#FEFECE" filter="url(#fok5swdp8uln4)" height="79.8563" id="Plataforma" style="stroke: #A80036; stroke-width: 1.2000000000000002;" width="132" x="666.4" y="408"/><ellipse cx="704.2" cy="420.8" fill="#ADD1B2" rx="8.8" ry="8.8" style="stroke: #A80036; stroke-width: 0.8;"/><path d="M706.1785,425.7145 Q705.7137,425.9535 705.2023,426.073 Q704.691,426.1926 704.1266,426.1926 Q702.1211,426.1926 701.0652,424.8711 Q700.0094,423.5496 700.0094,421.0527 Q700.0094,418.5492 701.0652,417.2277 Q702.1211,415.9063 704.1266,415.9063 Q704.691,415.9063 705.209,416.0258 Q705.727,416.1453 706.1785,416.3844 L706.1785,418.5625 Q705.6738,418.0977 705.199,417.8818 Q704.7242,417.666 704.2195,417.666 Q703.1438,417.666 702.5959,418.5193 Q702.048,419.3727 702.048,421.0527 Q702.048,422.7262 702.5959,423.5795 Q703.1438,424.4328 704.2195,424.4328 Q704.7242,424.4328 705.199,424.217 Q705.6738,424.0012 706.1785,423.5363 Z "/><text fill="#000000" font-family="sans-serif" font-size="9.6" lengthAdjust="spacingAndGlyphs" textLength="49.6" x="720.6" y="424.4281">Plataforma</text><line style="stroke: #A80036; stroke-width: 1.2000000000000002;" x1="667.2" x2="797.6" y1="433.6" y2="433.6"/><text fill="#000000" font-family="sans-serif" font-size="8.8" lengthAdjust="spacingAndGlyphs" textLength="81.6" x="671.2" y="445.3078">-String designacao</text><line style="stroke: #A80036; stroke-width: 1.2000000000000002;" x1="667.2" x2="797.6" y1="450.3641" y2="450.3641"/><text fill="#000000" font-family="sans-serif" font-size="8.8" lengthAdjust="spacingAndGlyphs" textLength="113.6" x="671.2" y="462.0719">+getRegistoOrganizacao()</text><text fill="#000000" font-family="sans-serif" font-size="8.8" lengthAdjust="spacingAndGlyphs" textLength="122.4" x="671.2" y="472.4359">+getAlgoritmoGeradorPwd()</text><text fill="#000000" font-family="sans-serif" font-size="8.8" lengthAdjust="spacingAndGlyphs" textLength="108.8" x="671.2" y="482.8">+getAutorizacaoFacade()</text><!--MD5=[548bd8e9f0dc9261535ca7b7174ac939]
class RegistoOrganizacoes--><rect fill="#00BFFF" filter="url(#fok5swdp8uln4)" height="69.4922" id="RegistoOrganizacoes" style="stroke: #A80036; stroke-width: 1.2000000000000002;" width="204" x="730.4" y="240.4"/><rect fill="#00BFFF" height="25.6" style="stroke: #A80036; stroke-width: 1.2000000000000002;" width="204" x="730.4" y="240.4"/><ellipse cx="781" cy="253.2" fill="#ADD1B2" rx="8.8" ry="8.8" style="stroke: #A80036; stroke-width: 0.8;"/><path d="M782.9785,258.1145 Q782.5137,258.3535 782.0023,258.473 Q781.491,258.5926 780.9266,258.5926 Q778.9211,258.5926 777.8652,257.2711 Q776.8094,255.9496 776.8094,253.4527 Q776.8094,250.9492 777.8652,249.6277 Q778.9211,248.3063 780.9266,248.3063 Q781.491,248.3063 782.009,248.4258 Q782.527,248.5453 782.9785,248.7844 L782.9785,250.9625 Q782.4738,250.4977 781.999,250.2818 Q781.5242,250.066 781.0195,250.066 Q779.9438,250.066 779.3959,250.9193 Q778.848,251.7727 778.848,253.4527 Q778.848,255.1262 779.3959,255.9795 Q779.9438,256.8328 781.0195,256.8328 Q781.5242,256.8328 781.999,256.617 Q782.4738,256.4012 782.9785,255.9363 Z "/><text fill="#000000" font-family="sans-serif" font-size="9.6" lengthAdjust="spacingAndGlyphs" textLength="96" x="797.4" y="256.8281">RegistoOrganizacoes</text><line style="stroke: #A80036; stroke-width: 1.2000000000000002;" x1="731.2" x2="933.6" y1="266" y2="266"/><line style="stroke: #A80036; stroke-width: 1.2000000000000002;" x1="731.2" x2="933.6" y1="272.4" y2="272.4"/><text fill="#000000" font-family="sans-serif" font-size="8.8" lengthAdjust="spacingAndGlyphs" textLength="194.4" x="735.2" y="284.1078">+getOrganizacaoByEmailUtilizador(emailUtlz)</text><text fill="#000000" font-family="sans-serif" font-size="8.8" lengthAdjust="spacingAndGlyphs" textLength="122.4" x="735.2" y="294.4719">+getAlgoritmoGeradorPwd()</text><text fill="#000000" font-family="sans-serif" font-size="8.8" lengthAdjust="spacingAndGlyphs" textLength="108.8" x="735.2" y="304.8359">+getAutorizacaoFacade()</text><!--MD5=[b68e9dcbea6113d6a9f07fad964dd27a]
class ListaColaboradores--><rect fill="#00BFFF" filter="url(#fok5swdp8uln4)" height="100.5844" id="ListaColaboradores" style="stroke: #A80036; stroke-width: 1.2000000000000002;" width="198.4" x="176.4" y="397.6"/><rect fill="#00BFFF" height="25.6" style="stroke: #A80036; stroke-width: 1.2000000000000002;" width="198.4" x="176.4" y="397.6"/><ellipse cx="227.8" cy="410.4" fill="#ADD1B2" rx="8.8" ry="8.8" style="stroke: #A80036; stroke-width: 0.8;"/><path d="M229.7785,415.3145 Q229.3137,415.5535 228.8023,415.673 Q228.291,415.7926 227.7266,415.7926 Q225.7211,415.7926 224.6652,414.4711 Q223.6094,413.1496 223.6094,410.6527 Q223.6094,408.1492 224.6652,406.8277 Q225.7211,405.5063 227.7266,405.5063 Q228.291,405.5063 228.809,405.6258 Q229.327,405.7453 229.7785,405.9844 L229.7785,408.1625 Q229.2738,407.6977 228.799,407.4818 Q228.3242,407.266 227.8195,407.266 Q226.7438,407.266 226.1959,408.1193 Q225.648,408.9727 225.648,410.6527 Q225.648,412.3262 226.1959,413.1795 Q226.7438,414.0328 227.8195,414.0328 Q228.3242,414.0328 228.799,413.817 Q229.2738,413.6012 229.7785,413.1363 Z "/><text fill="#000000" font-family="sans-serif" font-size="9.6" lengthAdjust="spacingAndGlyphs" textLength="88.8" x="244.2" y="414.0281">ListaColaboradores</text><line style="stroke: #A80036; stroke-width: 1.2000000000000002;" x1="177.2" x2="374" y1="423.2" y2="423.2"/><line style="stroke: #A80036; stroke-width: 1.2000000000000002;" x1="177.2" x2="374" y1="429.6" y2="429.6"/><text fill="#000000" font-family="sans-serif" font-size="8.8" lengthAdjust="spacingAndGlyphs" textLength="188.8" x="181.2" y="441.3078">+novoColaborador(nome, funcao, tlf, email)</text><text fill="#000000" font-family="sans-serif" font-size="8.8" lengthAdjust="spacingAndGlyphs" textLength="116" x="181.2" y="451.6719">+validaColaborador(colab)</text><text fill="#000000" font-family="sans-serif" font-size="8.8" lengthAdjust="spacingAndGlyphs" textLength="120.8" x="181.2" y="462.0359">+registaColaborador(colab)</text><text fill="#000000" font-family="sans-serif" font-size="8.8" lengthAdjust="spacingAndGlyphs" textLength="185.6" x="181.2" y="472.4">-registaColaboradorComoUtilizador(colab)</text><text fill="#000000" font-family="sans-serif" font-size="8.8" lengthAdjust="spacingAndGlyphs" textLength="104.8" x="181.2" y="482.7641">-addColaborador(colab)</text><text fill="#000000" font-family="sans-serif" font-size="8.8" lengthAdjust="spacingAndGlyphs" textLength="100" x="181.2" y="493.1281">-enviaEmail(nome,pwd)</text><!--MD5=[ac8682ea5466d223e49472789fb200d2]
class Colaborador--><rect fill="#FEFECE" filter="url(#fok5swdp8uln4)" height="110.9484" id="Colaborador" style="stroke: #A80036; stroke-width: 1.2000000000000002;" width="176.8" x="4.8" y="219.6"/><ellipse cx="61" cy="232.4" fill="#ADD1B2" rx="8.8" ry="8.8" style="stroke: #A80036; stroke-width: 0.8;"/><path d="M62.9785,237.3145 Q62.5137,237.5535 62.0023,237.673 Q61.491,237.7926 60.9266,237.7926 Q58.9211,237.7926 57.8652,236.4711 Q56.8094,235.1496 56.8094,232.6527 Q56.8094,230.1492 57.8652,228.8277 Q58.9211,227.5063 60.9266,227.5063 Q61.491,227.5063 62.009,227.6258 Q62.527,227.7453 62.9785,227.9844 L62.9785,230.1625 Q62.4738,229.6977 61.999,229.4818 Q61.5242,229.266 61.0195,229.266 Q59.9438,229.266 59.3959,230.1193 Q58.848,230.9727 58.848,232.6527 Q58.848,234.3262 59.3959,235.1795 Q59.9438,236.0328 61.0195,236.0328 Q61.5242,236.0328 61.999,235.817 Q62.4738,235.6012 62.9785,235.1363 Z "/><text fill="#000000" font-family="sans-serif" font-size="9.6" lengthAdjust="spacingAndGlyphs" textLength="57.6" x="77.4" y="236.0281">Colaborador</text><line style="stroke: #A80036; stroke-width: 1.2000000000000002;" x1="5.6" x2="180.8" y1="245.2" y2="245.2"/><text fill="#000000" font-family="sans-serif" font-size="8.8" lengthAdjust="spacingAndGlyphs" textLength="56.8" x="9.6" y="256.9078">-String nome</text><text fill="#000000" font-family="sans-serif" font-size="8.8" lengthAdjust="spacingAndGlyphs" textLength="62.4" x="9.6" y="267.2719">-String funcao</text><text fill="#000000" font-family="sans-serif" font-size="8.8" lengthAdjust="spacingAndGlyphs" textLength="67.2" x="9.6" y="277.6359">-String telefone</text><text fill="#000000" font-family="sans-serif" font-size="8.8" lengthAdjust="spacingAndGlyphs" textLength="55.2" x="9.6" y="288">-String email</text><line style="stroke: #A80036; stroke-width: 1.2000000000000002;" x1="5.6" x2="180.8" y1="293.0563" y2="293.0563"/><text fill="#000000" font-family="sans-serif" font-size="8.8" lengthAdjust="spacingAndGlyphs" textLength="167.2" x="9.6" y="304.7641">+Colaborador(nome, funcao, tlf, email)</text><text fill="#000000" font-family="sans-serif" font-size="8.8" lengthAdjust="spacingAndGlyphs" textLength="49.6" x="9.6" y="315.1281">+getEmail()</text><text fill="#000000" font-family="sans-serif" font-size="8.8" lengthAdjust="spacingAndGlyphs" textLength="52" x="9.6" y="325.4922">+getNome()</text><!--MD5=[807977ceb130c090ed5febfb6de2bdea]
class Organizacao--><rect fill="#FEFECE" filter="url(#fok5swdp8uln4)" height="121.3125" id="Organizacao" style="stroke: #A80036; stroke-width: 1.2000000000000002;" width="132" x="209.6" y="214.4"/><ellipse cx="243.56" cy="227.2" fill="#ADD1B2" rx="8.8" ry="8.8" style="stroke: #A80036; stroke-width: 0.8;"/><path d="M245.5385,232.1145 Q245.0737,232.3535 244.5623,232.473 Q244.051,232.5926 243.4866,232.5926 Q241.4811,232.5926 240.4252,231.2711 Q239.3694,229.9496 239.3694,227.4527 Q239.3694,224.9492 240.4252,223.6277 Q241.4811,222.3063 243.4866,222.3063 Q244.051,222.3063 244.569,222.4258 Q245.087,222.5453 245.5385,222.7844 L245.5385,224.9625 Q245.0338,224.4977 244.559,224.2818 Q244.0842,224.066 243.5795,224.066 Q242.5038,224.066 241.9559,224.9193 Q241.408,225.7727 241.408,227.4527 Q241.408,229.1262 241.9559,229.9795 Q242.5038,230.8328 243.5795,230.8328 Q244.0842,230.8328 244.559,230.617 Q245.0338,230.4012 245.5385,229.9363 Z "/><text fill="#000000" font-family="sans-serif" font-size="9.6" lengthAdjust="spacingAndGlyphs" textLength="57.6" x="259.64" y="230.8281">Organizacao</text><line style="stroke: #A80036; stroke-width: 1.2000000000000002;" x1="210.4" x2="340.8" y1="240" y2="240"/><text fill="#000000" font-family="sans-serif" font-size="8.8" lengthAdjust="spacingAndGlyphs" textLength="56.8" x="214.4" y="251.7078">-String nome</text><text fill="#000000" font-family="sans-serif" font-size="8.8" lengthAdjust="spacingAndGlyphs" textLength="46.4" x="214.4" y="262.0719">-String NIF</text><text fill="#000000" font-family="sans-serif" font-size="8.8" lengthAdjust="spacingAndGlyphs" textLength="64.8" x="214.4" y="272.4359">-String website</text><text fill="#000000" font-family="sans-serif" font-size="8.8" lengthAdjust="spacingAndGlyphs" textLength="67.2" x="214.4" y="282.8">-String telefone</text><text fill="#000000" font-family="sans-serif" font-size="8.8" lengthAdjust="spacingAndGlyphs" textLength="55.2" x="214.4" y="293.1641">-String email</text><line style="stroke: #A80036; stroke-width: 1.2000000000000002;" x1="210.4" x2="340.8" y1="298.2203" y2="298.2203"/><text fill="#000000" font-family="sans-serif" font-size="8.8" lengthAdjust="spacingAndGlyphs" textLength="111.2" x="214.4" y="309.9281">+getListaColaboradores()</text><text fill="#000000" font-family="sans-serif" font-size="8.8" lengthAdjust="spacingAndGlyphs" textLength="122.4" x="214.4" y="320.2922">+getAlgoritmoGeradorPwd()</text><text fill="#000000" font-family="sans-serif" font-size="8.8" lengthAdjust="spacingAndGlyphs" textLength="108.8" x="214.4" y="330.6563">+getAutorizacaoFacade()</text><!--MD5=[ed5c6b4e01c9b1c9efc043b411d08420]
class AutorizacaoFacade--><rect fill="#FEFECE" filter="url(#fok5swdp8uln4)" height="48.7641" id="AutorizacaoFacade" style="stroke: #A80036; stroke-width: 1.2000000000000002;" width="231.2" x="48.8" y="549.6"/><ellipse cx="117.4" cy="562.4" fill="#ADD1B2" rx="8.8" ry="8.8" style="stroke: #A80036; stroke-width: 0.8;"/><path d="M119.3785,567.3145 Q118.9137,567.5535 118.4023,567.673 Q117.891,567.7926 117.3266,567.7926 Q115.3211,567.7926 114.2652,566.4711 Q113.2094,565.1496 113.2094,562.6527 Q113.2094,560.1492 114.2652,558.8277 Q115.3211,557.5063 117.3266,557.5063 Q117.891,557.5063 118.409,557.6258 Q118.927,557.7453 119.3785,557.9844 L119.3785,560.1625 Q118.8738,559.6977 118.399,559.4818 Q117.9242,559.266 117.4195,559.266 Q116.3438,559.266 115.7959,560.1193 Q115.248,560.9727 115.248,562.6527 Q115.248,564.3262 115.7959,565.1795 Q116.3438,566.0328 117.4195,566.0328 Q117.9242,566.0328 118.399,565.817 Q118.8738,565.6012 119.3785,565.1363 Z "/><text fill="#000000" font-family="sans-serif" font-size="9.6" lengthAdjust="spacingAndGlyphs" textLength="87.2" x="133.8" y="566.0281">AutorizacaoFacade</text><line style="stroke: #A80036; stroke-width: 1.2000000000000002;" x1="49.6" x2="279.2" y1="575.2" y2="575.2"/><line style="stroke: #A80036; stroke-width: 1.2000000000000002;" x1="49.6" x2="279.2" y1="581.6" y2="581.6"/><text fill="#000000" font-family="sans-serif" font-size="8.8" lengthAdjust="spacingAndGlyphs" textLength="221.6" x="53.6" y="593.3078">+registaUtilizadorComPapel(nome,email,pwd,papel)</text><!--MD5=[37bf6c08f758502d5d1a5531d651ab43]
class AlgoritmoGeradorPasswords--><rect fill="#00BFFF" filter="url(#fok5swdp8uln4)" height="53.7766" id="AlgoritmoGeradorPasswords" style="stroke: #A80036; stroke-width: 1.2000000000000002;" width="156.8" x="308.4" y="547.2"/><rect fill="#00BFFF" height="30.6125" style="stroke: #A80036; stroke-width: 1.2000000000000002;" width="156.8" x="308.4" y="547.2"/><ellipse cx="320.4" cy="562.5063" fill="#B4A7E5" rx="8.8" ry="8.8" style="stroke: #A80036; stroke-width: 0.8;"/><path d="M317.5422,559.5184 L317.5422,557.7918 L323.4457,557.7918 L323.4457,559.5184 L321.4734,559.5184 L321.4734,565.9797 L323.4457,565.9797 L323.4457,567.7063 L317.5422,567.7063 L317.5422,565.9797 L319.5145,565.9797 L319.5145,559.5184 Z "/><text fill="#000000" font-family="sans-serif" font-size="9.6" font-style="italic" lengthAdjust="spacingAndGlyphs" textLength="49.6" x="372.4" y="560.4813">«interface»</text><text fill="#000000" font-family="sans-serif" font-size="9.6" font-style="italic" lengthAdjust="spacingAndGlyphs" textLength="131.2" x="331.6" y="571.7875">AlgoritmoGeradorPasswords</text><line style="stroke: #A80036; stroke-width: 1.2000000000000002;" x1="309.2" x2="464.4" y1="577.8125" y2="577.8125"/><line style="stroke: #A80036; stroke-width: 1.2000000000000002;" x1="309.2" x2="464.4" y1="584.2125" y2="584.2125"/><text fill="#000000" font-family="sans-serif" font-size="8.8" lengthAdjust="spacingAndGlyphs" textLength="122.4" x="313.2" y="595.9203">+geraPassword(nome,email)</text><!--MD5=[efc07359af4002ede352d360e3e5f791]
link EspecificarColaboradorUI to EspecificarColaboradorController--><path d="M471.6,44.912 C471.6,57.464 471.6,74.4 471.6,89.24 " fill="none" id="EspecificarColaboradorUI-&gt;EspecificarColaboradorController" style="stroke: #A80036; stroke-width: 0.8; stroke-dasharray: 7.0,7.0;"/><polygon fill="#A80036" points="471.6,93.368,474.8,86.168,471.6,89.368,468.4,86.168,471.6,93.368" style="stroke: #A80036; stroke-width: 0.8;"/><!--MD5=[02d41b23cb35f939ef8b963b265ce2f7]
link EspecificarColaboradorController to AplicacaoPOT--><path d="M471.6,153 C471.6,178.28 471.6,214.928 471.6,241.344 " fill="none" id="EspecificarColaboradorController-&gt;AplicacaoPOT" style="stroke: #A80036; stroke-width: 0.8; stroke-dasharray: 7.0,7.0;"/><polygon fill="#A80036" points="471.6,245.488,474.8,238.288,471.6,241.488,468.4,238.288,471.6,245.488" style="stroke: #A80036; stroke-width: 0.8;"/><!--MD5=[c8a52fc0a4d9920b9d40f732a5d371b3]
link EspecificarColaboradorController to SessaoUtilizador--><path d="M530.016,152.824 C540.024,159.656 549.616,167.664 557.2,176.8 C574,197.032 583.824,225.616 589.192,246.624 " fill="none" id="EspecificarColaboradorController-&gt;SessaoUtilizador" style="stroke: #A80036; stroke-width: 0.8; stroke-dasharray: 7.0,7.0;"/><polygon fill="#A80036" points="590.208,250.72,591.5824,242.9617,589.2459,246.8374,585.3702,244.501,590.208,250.72" style="stroke: #A80036; stroke-width: 0.8;"/><!--MD5=[e749425d82a7a68558984fefba013df9]
link EspecificarColaboradorController to Plataforma--><path d="M568.944,152.864 C601.656,166.816 635.832,186.712 659.6,214.4 C684.176,243.032 709.816,344.632 723.128,403.72 " fill="none" id="EspecificarColaboradorController-&gt;Plataforma" style="stroke: #A80036; stroke-width: 0.8; stroke-dasharray: 7.0,7.0;"/><polygon fill="#A80036" points="724.064,407.904,725.6044,400.177,723.1854,404.0017,719.3607,401.5827,724.064,407.904" style="stroke: #A80036; stroke-width: 0.8;"/><!--MD5=[9c73233cbb6f579cf910689870d2b782]
link EspecificarColaboradorController to RegistoOrganizacoes--><path d="M571.048,136.024 C614.672,143.824 665.592,156.48 708.4,176.8 C740.376,191.976 771.664,216.696 794.808,237.456 " fill="none" id="EspecificarColaboradorController-&gt;RegistoOrganizacoes" style="stroke: #A80036; stroke-width: 0.8; stroke-dasharray: 7.0,7.0;"/><polygon fill="#A80036" points="797.872,240.224,794.6762,233.0221,794.9045,237.5418,790.3848,237.7701,797.872,240.224" style="stroke: #A80036; stroke-width: 0.8;"/><!--MD5=[3ea4a54878a3bfc205bf7413d5ce6eb6]
link EspecificarColaboradorController to Organizacao--><path d="M402.456,152.896 C389.008,159.848 375.432,167.88 363.6,176.8 C350.416,186.736 337.656,198.856 326.128,211.128 " fill="none" id="EspecificarColaboradorController-&gt;Organizacao" style="stroke: #A80036; stroke-width: 0.8; stroke-dasharray: 7.0,7.0;"/><polygon fill="#A80036" points="323.224,214.248,330.464,211.1396,325.9419,211.3132,325.7683,206.791,323.224,214.248" style="stroke: #A80036; stroke-width: 0.8;"/><!--MD5=[ea1c4a716374c6a44de667b4314b01f1]
link EspecificarColaboradorController to Colaborador--><path d="M372.28,150.928 C318.872,166.792 252.488,188.768 195.6,214.4 C192.216,215.92 188.808,217.528 185.392,219.2 " fill="none" id="EspecificarColaboradorController-&gt;Colaborador" style="stroke: #A80036; stroke-width: 0.8; stroke-dasharray: 7.0,7.0;"/><polygon fill="#A80036" points="181.672,221.032,189.5447,220.7144,185.2588,219.2614,186.7118,214.9756,181.672,221.032" style="stroke: #A80036; stroke-width: 0.8;"/><!--MD5=[e40ca22e350469c4c525ae24c159514d]
link EspecificarColaboradorController to ListaColaboradores--><path d="M451.536,152.92 C439.776,170.376 424.968,193.256 413.2,214.4 C384.112,266.648 385.984,284.496 355.6,336 C344,355.672 329.84,376.224 316.68,394.24 " fill="none" id="EspecificarColaboradorController-&gt;ListaColaboradores" style="stroke: #A80036; stroke-width: 0.8; stroke-dasharray: 7.0,7.0;"/><polygon fill="#A80036" points="314.24,397.576,321.0735,393.6539,316.6015,394.3475,315.9079,389.8755,314.24,397.576" style="stroke: #A80036; stroke-width: 0.8;"/><!--MD5=[847c2704e783791d97544b9bc69cf35e]
reverse link Organizacao to RegistoOrganizacoes--><path d="M345.424,241.104 C366.824,231.544 390.672,221.76 413.2,214.4 C457.488,199.936 469.28,197.008 515.6,192 C582.824,184.736 705.824,213.608 708.4,214.4 C729.48,220.888 751.424,230.568 770.888,240.304 " fill="none" id="Organizacao&lt;-RegistoOrganizacoes" style="stroke: #A80036; stroke-width: 0.8;"/><polygon fill="#A80036" points="341.736,242.76,349.615,242.7348,345.386,241.1238,346.9971,236.8948,341.736,242.76" style="stroke: #A80036; stroke-width: 0.8;"/><text fill="#000000" font-family="sans-serif" font-size="10.4" lengthAdjust="spacingAndGlyphs" textLength="33.6" x="516.4" y="187.6547">possui</text><text fill="#000000" font-family="sans-serif" font-size="10.4" lengthAdjust="spacingAndGlyphs" textLength="4.8" x="348.0542" y="237.2957">*</text><text fill="#000000" font-family="sans-serif" font-size="10.4" lengthAdjust="spacingAndGlyphs" textLength="6.4" x="754.1745" y="231.8693">1</text><!--MD5=[ebf28f708ced3fa17ddc18f977b4c30e]
link Organizacao to ListaColaboradores--><path d="M275.6,340.136 C275.6,357.672 275.6,376.496 275.6,393.392 " fill="none" id="Organizacao-ListaColaboradores" style="stroke: #A80036; stroke-width: 0.8;"/><polygon fill="#A80036" points="275.6,397.416,278.8,390.216,275.6,393.416,272.4,390.216,275.6,397.416" style="stroke: #A80036; stroke-width: 0.8;"/><polygon fill="#A80036" points="275.6,336.12,272.4,343.32,275.6,340.12,278.8,343.32,275.6,336.12" style="stroke: #A80036; stroke-width: 0.8;"/><text fill="#000000" font-family="sans-serif" font-size="10.4" lengthAdjust="spacingAndGlyphs" textLength="19.2" x="276.4" y="370.8547">tem</text><text fill="#000000" font-family="sans-serif" font-size="10.4" lengthAdjust="spacingAndGlyphs" textLength="6.4" x="268.915" y="352.1586">1</text><text fill="#000000" font-family="sans-serif" font-size="10.4" lengthAdjust="spacingAndGlyphs" textLength="6.4" x="268.83" y="388.955">1</text><!--MD5=[66e4bf9ce4dc0404ced20f3af6e41dfc]
reverse link Colaborador to ListaColaboradores--><path d="M154.624,333.656 C176.712,354.384 201.416,377.568 222.712,397.56 " fill="none" id="Colaborador&lt;-ListaColaboradores" style="stroke: #A80036; stroke-width: 0.8;"/><polygon fill="#A80036" points="151.664,330.872,154.729,338.1305,154.5825,333.6074,159.1056,333.4609,151.664,330.872" style="stroke: #A80036; stroke-width: 0.8;"/><text fill="#000000" font-family="sans-serif" font-size="10.4" lengthAdjust="spacingAndGlyphs" textLength="33.6" x="196.4" y="370.8547">possui</text><text fill="#000000" font-family="sans-serif" font-size="10.4" lengthAdjust="spacingAndGlyphs" textLength="17.6" x="138.9528" y="347.0221">1..*</text><text fill="#000000" font-family="sans-serif" font-size="10.4" lengthAdjust="spacingAndGlyphs" textLength="6.4" x="209.8268" y="389.1156">1</text><!--MD5=[52eb6dad81285278868c393829b8a51a]
link ListaColaboradores to AutorizacaoFacade--><path d="M231.008,498.68 C216.408,515.024 200.744,532.544 188.28,546.488 " fill="none" id="ListaColaboradores-&gt;AutorizacaoFacade" style="stroke: #A80036; stroke-width: 0.8; stroke-dasharray: 7.0,7.0;"/><polygon fill="#A80036" points="185.504,549.584,192.6861,546.344,188.1678,546.6,187.9117,542.0818,185.504,549.584" style="stroke: #A80036; stroke-width: 0.8;"/><!--MD5=[ed1b0a075c1fe8a14f344c291649482d]
link ListaColaboradores to AlgoritmoGeradorPasswords--><path d="M320.192,498.68 C333.896,514.016 348.528,530.392 360.584,543.872 " fill="none" id="ListaColaboradores-&gt;AlgoritmoGeradorPasswords" style="stroke: #A80036; stroke-width: 0.8; stroke-dasharray: 7.0,7.0;"/><polygon fill="#A80036" points="363.272,546.88,360.8643,539.3778,360.6082,543.896,356.0899,543.64,363.272,546.88" style="stroke: #A80036; stroke-width: 0.8;"/><!--MD5=[a774be99f5289ddf5cc1156e77f855c9]
link RegistoOrganizacoes to Plataforma--><path d="M812.52,310.032 C796.704,337.112 774.472,375.168 757.44,404.328 " fill="none" id="RegistoOrganizacoes-&gt;Plataforma" style="stroke: #A80036; stroke-width: 0.8; stroke-dasharray: 7.0,7.0;"/><polygon fill="#A80036" points="755.392,407.84,761.7934,403.2463,757.4146,404.389,756.2719,400.0102,755.392,407.84" style="stroke: #A80036; stroke-width: 0.8;"/><!--MD5=[16db71d396684e9a582830e0f7db1130]
@startuml
skinparam classAttributeIconSize 0

class EspecificarColaboradorUI {
}

class EspecificarColaboradorController {
  +novoColaborador(nome, funcao, tlf, email)
  +registaColaborador()
}

class AplicacaoPOT{
  +{static} getInstance()
  +getSessaoAtual()
}

class SessaoUtilizador{
  +getEmailUtilizador()
}

class Plataforma {
  -String designacao
  +getRegistoOrganizacao()
  +getAlgoritmoGeradorPwd()
  +getAutorizacaoFacade()
}

class RegistoOrganizacoes #DeepSkyBlue {
  +getOrganizacaoByEmailUtilizador(emailUtlz)
  +getAlgoritmoGeradorPwd()
  +getAutorizacaoFacade()
}

class ListaColaboradores #DeepSkyBlue {
  + novoColaborador(nome, funcao, tlf, email)
  +validaColaborador(colab)
  +registaColaborador(colab)
  -registaColaboradorComoUtilizador(colab)
  -addColaborador(colab)
  -enviaEmail(nome,pwd)
}

class Colaborador {
  -String nome
  -String funcao
  -String telefone
  -String email
  +Colaborador(nome, funcao, tlf, email)
  +getEmail()
  +getNome()
}

class Organizacao {
  -String nome
  -String NIF
  -String website
  -String telefone
  -String email
  +getListaColaboradores()
  +getAlgoritmoGeradorPwd()
  +getAutorizacaoFacade()
}

class AutorizacaoFacade {
  +registaUtilizadorComPapel(nome,email,pwd,papel)
}

interface AlgoritmoGeradorPasswords <<interface>> #DeepSkyBlue {
  +geraPassword(nome,email)
}


EspecificarColaboradorUI ..> EspecificarColaboradorController

EspecificarColaboradorController ..> AplicacaoPOT
EspecificarColaboradorController ..> SessaoUtilizador
EspecificarColaboradorController ..> Plataforma
EspecificarColaboradorController ..> RegistoOrganizacoes
EspecificarColaboradorController ..> Organizacao
EspecificarColaboradorController ..> Colaborador
EspecificarColaboradorController ..> ListaColaboradores

RegistoOrganizacoes "1" -l> "*" Organizacao : possui

Organizacao "1" <- -> "1" ListaColaboradores: tem



ListaColaboradores "1" - -u> "1..*" Colaborador : possui

ListaColaboradores ..> AutorizacaoFacade
ListaColaboradores ..> AlgoritmoGeradorPasswords
RegistoOrganizacoes ..> Plataforma




@enduml

PlantUML version 1.2020.03beta6(Unknown compile time)
(GPL source distribution)
Java Runtime: OpenJDK Runtime Environment
JVM: OpenJDK 64-Bit Server VM
Java Version: 11.0.5+10-b520.38
Operating System: Mac OS X
Default Encoding: UTF-8
Language: en
Country: PT
--></g></svg>