<?xml version="1.0" encoding="UTF-8" standalone="no"?><svg xmlns="http://www.w3.org/2000/svg" xmlns:xlink="http://www.w3.org/1999/xlink" contentScriptType="application/ecmascript" contentStyleType="text/css" height="198px" preserveAspectRatio="none" style="width:1011px;height:198px;" version="1.1" viewBox="0 0 1011 198" width="1011px" zoomAndPan="magnify"><defs><filter height="300%" id="fee7l9uvensbe" width="300%" x="-1" y="-1"><feGaussianBlur result="blurOut" stdDeviation="2.0"/><feColorMatrix in="blurOut" result="blurOut2" type="matrix" values="0 0 0 0 0 0 0 0 0 0 0 0 0 0 0 0 0 0 .4 0"/><feOffset dx="4.0" dy="4.0" in="blurOut2" result="blurOut3"/><feBlend in="SourceGraphic" in2="blurOut3" mode="normal"/></filter></defs><g><!--MD5=[ecaed46f78f8cfe1e9ce18477649be18]
class Plataforma--><rect fill="#FEFECE" filter="url(#fee7l9uvensbe)" height="52.9551" id="Plataforma" style="stroke: #A80036; stroke-width: 1.5;" width="114" x="6" y="112.5"/><ellipse cx="30" cy="128.5" fill="#ADD1B2" rx="11" ry="11" style="stroke: #A80036; stroke-width: 1.0;"/><path d="M32.4731,134.6431 Q31.8921,134.9419 31.2529,135.0913 Q30.6138,135.2407 29.9082,135.2407 Q27.4014,135.2407 26.0815,133.5889 Q24.7617,131.937 24.7617,128.8159 Q24.7617,125.6865 26.0815,124.0347 Q27.4014,122.3828 29.9082,122.3828 Q30.6138,122.3828 31.2612,122.5322 Q31.9087,122.6816 32.4731,122.9805 L32.4731,125.7031 Q31.8423,125.1221 31.2488,124.8523 Q30.6553,124.5825 30.0244,124.5825 Q28.6797,124.5825 27.9949,125.6492 Q27.3101,126.7158 27.3101,128.8159 Q27.3101,130.9077 27.9949,131.9744 Q28.6797,133.041 30.0244,133.041 Q30.6553,133.041 31.2488,132.7712 Q31.8423,132.5015 32.4731,131.9204 Z "/><text fill="#000000" font-family="sans-serif" font-size="12" lengthAdjust="spacingAndGlyphs" textLength="62" x="46" y="133.0352">Plataforma</text><line style="stroke: #A80036; stroke-width: 1.5;" x1="7" x2="119" y1="144.5" y2="144.5"/><text fill="#000000" font-family="sans-serif" font-size="11" lengthAdjust="spacingAndGlyphs" textLength="102" x="12" y="159.1348">-String designacao</text><!--MD5=[807977ceb130c090ed5febfb6de2bdea]
class Organizacao--><rect fill="#FEFECE" filter="url(#fee7l9uvensbe)" height="104.7754" id="Organizacao" style="stroke: #A80036; stroke-width: 1.5;" width="104" x="288" y="8.5"/><ellipse cx="303" cy="24.5" fill="#ADD1B2" rx="11" ry="11" style="stroke: #A80036; stroke-width: 1.0;"/><path d="M305.4731,30.6431 Q304.8921,30.9419 304.2529,31.0913 Q303.6138,31.2407 302.9082,31.2407 Q300.4014,31.2407 299.0815,29.5889 Q297.7617,27.937 297.7617,24.8159 Q297.7617,21.6865 299.0815,20.0347 Q300.4014,18.3828 302.9082,18.3828 Q303.6138,18.3828 304.2612,18.5322 Q304.9087,18.6816 305.4731,18.9805 L305.4731,21.7031 Q304.8423,21.1221 304.2488,20.8523 Q303.6553,20.5825 303.0244,20.5825 Q301.6797,20.5825 300.9949,21.6492 Q300.3101,22.7158 300.3101,24.8159 Q300.3101,26.9077 300.9949,27.9744 Q301.6797,29.041 303.0244,29.041 Q303.6553,29.041 304.2488,28.7712 Q304.8423,28.5015 305.4731,27.9204 Z "/><text fill="#000000" font-family="sans-serif" font-size="12" lengthAdjust="spacingAndGlyphs" textLength="72" x="317" y="29.0352">Organizacao</text><line style="stroke: #A80036; stroke-width: 1.5;" x1="289" x2="391" y1="40.5" y2="40.5"/><text fill="#000000" font-family="sans-serif" font-size="11" lengthAdjust="spacingAndGlyphs" textLength="71" x="294" y="55.1348">-String nome</text><text fill="#000000" font-family="sans-serif" font-size="11" lengthAdjust="spacingAndGlyphs" textLength="58" x="294" y="68.0898">-String NIF</text><text fill="#000000" font-family="sans-serif" font-size="11" lengthAdjust="spacingAndGlyphs" textLength="81" x="294" y="81.0449">-String website</text><text fill="#000000" font-family="sans-serif" font-size="11" lengthAdjust="spacingAndGlyphs" textLength="84" x="294" y="94">-String telefone</text><text fill="#000000" font-family="sans-serif" font-size="11" lengthAdjust="spacingAndGlyphs" textLength="69" x="294" y="106.9551">-String email</text><!--MD5=[ac8682ea5466d223e49472789fb200d2]
class Colaborador--><rect fill="#FEFECE" filter="url(#fee7l9uvensbe)" height="91.8203" id="Colaborador" style="stroke: #A80036; stroke-width: 1.5;" width="104" x="649" y="23"/><ellipse cx="664" cy="39" fill="#ADD1B2" rx="11" ry="11" style="stroke: #A80036; stroke-width: 1.0;"/><path d="M666.4731,45.1431 Q665.8921,45.4419 665.2529,45.5913 Q664.6138,45.7407 663.9082,45.7407 Q661.4014,45.7407 660.0815,44.0889 Q658.7617,42.437 658.7617,39.3159 Q658.7617,36.1865 660.0815,34.5347 Q661.4014,32.8828 663.9082,32.8828 Q664.6138,32.8828 665.2612,33.0322 Q665.9087,33.1816 666.4731,33.4805 L666.4731,36.2031 Q665.8423,35.6221 665.2488,35.3523 Q664.6553,35.0825 664.0244,35.0825 Q662.6797,35.0825 661.9949,36.1492 Q661.3101,37.2158 661.3101,39.3159 Q661.3101,41.4077 661.9949,42.4744 Q662.6797,43.541 664.0244,43.541 Q664.6553,43.541 665.2488,43.2712 Q665.8423,43.0015 666.4731,42.4204 Z "/><text fill="#000000" font-family="sans-serif" font-size="12" lengthAdjust="spacingAndGlyphs" textLength="72" x="678" y="43.5352">Colaborador</text><line style="stroke: #A80036; stroke-width: 1.5;" x1="650" x2="752" y1="55" y2="55"/><text fill="#000000" font-family="sans-serif" font-size="11" lengthAdjust="spacingAndGlyphs" textLength="71" x="655" y="69.6348">-String nome</text><text fill="#000000" font-family="sans-serif" font-size="11" lengthAdjust="spacingAndGlyphs" textLength="78" x="655" y="82.5898">-String funcao</text><text fill="#000000" font-family="sans-serif" font-size="11" lengthAdjust="spacingAndGlyphs" textLength="84" x="655" y="95.5449">-String telefone</text><text fill="#000000" font-family="sans-serif" font-size="11" lengthAdjust="spacingAndGlyphs" textLength="69" x="655" y="108.5">-String email</text><!--MD5=[5dd1d6732c071e710b9290b531f2fa3b]
class Utilizador--><rect fill="#FEFECE" filter="url(#fee7l9uvensbe)" height="78.8652" id="Utilizador" style="stroke: #A80036; stroke-width: 1.5;" width="105" x="895" y="98.5"/><ellipse cx="918.1" cy="114.5" fill="#ADD1B2" rx="11" ry="11" style="stroke: #A80036; stroke-width: 1.0;"/><path d="M920.5731,120.6431 Q919.9921,120.9419 919.3529,121.0913 Q918.7138,121.2407 918.0082,121.2407 Q915.5014,121.2407 914.1815,119.5889 Q912.8617,117.937 912.8617,114.8159 Q912.8617,111.6865 914.1815,110.0347 Q915.5014,108.3828 918.0082,108.3828 Q918.7138,108.3828 919.3612,108.5322 Q920.0087,108.6816 920.5731,108.9805 L920.5731,111.7031 Q919.9423,111.1221 919.3488,110.8523 Q918.7553,110.5825 918.1244,110.5825 Q916.7797,110.5825 916.0949,111.6492 Q915.4101,112.7158 915.4101,114.8159 Q915.4101,116.9077 916.0949,117.9744 Q916.7797,119.041 918.1244,119.041 Q918.7553,119.041 919.3488,118.7712 Q919.9423,118.5015 920.5731,117.9204 Z "/><text fill="#000000" font-family="sans-serif" font-size="12" lengthAdjust="spacingAndGlyphs" textLength="55" x="933.9" y="119.0352">Utilizador</text><line style="stroke: #A80036; stroke-width: 1.5;" x1="896" x2="999" y1="130.5" y2="130.5"/><text fill="#000000" font-family="sans-serif" font-size="11" lengthAdjust="spacingAndGlyphs" textLength="71" x="901" y="145.1348">-String nome</text><text fill="#000000" font-family="sans-serif" font-size="11" lengthAdjust="spacingAndGlyphs" textLength="69" x="901" y="158.0898">-String email</text><text fill="#000000" font-family="sans-serif" font-size="11" lengthAdjust="spacingAndGlyphs" textLength="93" x="901" y="171.0449">-String password</text><!--MD5=[37bf6c08f758502d5d1a5531d651ab43]
class AlgoritmoGeradorPasswords--><rect fill="#00BFFF" filter="url(#fee7l9uvensbe)" height="40" id="AlgoritmoGeradorPasswords" style="stroke: #A80036; stroke-width: 1.5;" width="196" x="422" y="147"/><rect fill="#00BFFF" height="32" style="stroke: #A80036; stroke-width: 1.5;" width="196" x="422" y="147"/><ellipse cx="437" cy="163" fill="#ADD1B2" rx="11" ry="11" style="stroke: #A80036; stroke-width: 1.0;"/><path d="M439.4731,169.1431 Q438.8921,169.4419 438.2529,169.5913 Q437.6138,169.7407 436.9082,169.7407 Q434.4014,169.7407 433.0815,168.0889 Q431.7617,166.437 431.7617,163.3159 Q431.7617,160.1865 433.0815,158.5347 Q434.4014,156.8828 436.9082,156.8828 Q437.6138,156.8828 438.2612,157.0322 Q438.9087,157.1816 439.4731,157.4805 L439.4731,160.2031 Q438.8423,159.6221 438.2488,159.3523 Q437.6553,159.0825 437.0244,159.0825 Q435.6797,159.0825 434.9949,160.1492 Q434.3101,161.2158 434.3101,163.3159 Q434.3101,165.4077 434.9949,166.4744 Q435.6797,167.541 437.0244,167.541 Q437.6553,167.541 438.2488,167.2712 Q438.8423,167.0015 439.4731,166.4204 Z "/><text fill="#000000" font-family="sans-serif" font-size="12" lengthAdjust="spacingAndGlyphs" textLength="164" x="451" y="167.5352">AlgoritmoGeradorPasswords</text><line style="stroke: #A80036; stroke-width: 1.5;" x1="423" x2="617" y1="179" y2="179"/><!--MD5=[1c2ad462e362697fcdc859a6327d55c7]
link Plataforma to Organizacao--><path d="M120.31,123.03 C169.5,109.08 240.27,89 287.86,75.5 " fill="none" id="Plataforma-Organizacao" style="stroke: #A80036; stroke-width: 1.0;"/><text fill="#000000" font-family="sans-serif" font-size="13" lengthAdjust="spacingAndGlyphs" textLength="93" x="151" y="81.5684">tem registadas</text><polygon fill="#000000" points="247,75.1553,253,78.1553,247,81.1553,247,75.1553" style="stroke: #000000; stroke-width: 1.0;"/><text fill="#000000" font-family="sans-serif" font-size="13" lengthAdjust="spacingAndGlyphs" textLength="8" x="128.1653" y="134.5359">1</text><text fill="#000000" font-family="sans-serif" font-size="13" lengthAdjust="spacingAndGlyphs" textLength="6" x="274.1059" y="91.1997">*</text><!--MD5=[567db691f9836c63f305bad1024cbc66]
link Organizacao to Colaborador--><path d="M392.05,62.14 C460.29,63.66 580.54,66.34 648.83,67.86 " fill="none" id="Organizacao-Colaborador" style="stroke: #A80036; stroke-width: 1.0;"/><text fill="#000000" font-family="sans-serif" font-size="13" lengthAdjust="spacingAndGlyphs" textLength="24" x="501.5" y="59.5684">tem</text><polygon fill="#000000" points="528.5,53.1553,534.5,56.1553,528.5,59.1553,528.5,53.1553" style="stroke: #000000; stroke-width: 1.0;"/><text fill="#000000" font-family="sans-serif" font-size="13" lengthAdjust="spacingAndGlyphs" textLength="8" x="399.932" y="75.961">1</text><text fill="#000000" font-family="sans-serif" font-size="13" lengthAdjust="spacingAndGlyphs" textLength="22" x="619.1312" y="81.2334">1..*</text><!--MD5=[567db691f9836c63f305bad1024cbc66]
link Organizacao to Colaborador--><path d="M392.42,84.63 C402.06,88.1 412.2,91.13 422,93 C507.57,109.29 531.77,105.36 618,93 C628.13,91.55 638.76,89.13 648.88,86.38 " fill="none" id="Organizacao-Colaborador-1" style="stroke: #A80036; stroke-width: 1.0;"/><text fill="#000000" font-family="sans-serif" font-size="13" lengthAdjust="spacingAndGlyphs" textLength="68" x="479.5" y="89.5684">tem gestor</text><polygon fill="#000000" points="550.5,83.1553,556.5,86.1553,550.5,89.1553,550.5,83.1553" style="stroke: #000000; stroke-width: 1.0;"/><text fill="#000000" font-family="sans-serif" font-size="13" lengthAdjust="spacingAndGlyphs" textLength="8" x="400.0014" y="101.4174">1</text><text fill="#000000" font-family="sans-serif" font-size="13" lengthAdjust="spacingAndGlyphs" textLength="8" x="632.9881" y="102.4816">1</text><!--MD5=[bcb5794e8184ce78d304f04a5beabbc0]
link Colaborador to Utilizador--><path d="M753.26,83.46 C794.84,95.2 853.21,111.67 894.89,123.44 " fill="none" id="Colaborador-Utilizador" style="stroke: #A80036; stroke-width: 1.0;"/><text fill="#000000" font-family="sans-serif" font-size="13" lengthAdjust="spacingAndGlyphs" textLength="66" x="785" y="90.5684">atua como</text><polygon fill="#000000" points="854,84.1553,860,87.1553,854,90.1553,854,84.1553" style="stroke: #000000; stroke-width: 1.0;"/><text fill="#000000" font-family="sans-serif" font-size="13" lengthAdjust="spacingAndGlyphs" textLength="24" x="761.0917" y="98.7346">0..1</text><text fill="#000000" font-family="sans-serif" font-size="13" lengthAdjust="spacingAndGlyphs" textLength="8" x="878.9292" y="135.0469">1</text><!--MD5=[49996cf4319f45f78007483382b2a228]
link Plataforma to AlgoritmoGeradorPasswords--><path d="M120.25,142.46 C195.5,147.09 330.09,155.37 421.9,161.02 " fill="none" id="Plataforma-AlgoritmoGeradorPasswords" style="stroke: #00BFFF; stroke-width: 1.0;"/><text fill="#000000" font-family="sans-serif" font-size="13" lengthAdjust="spacingAndGlyphs" textLength="55" x="170" y="141.5684">recorre a</text><polygon fill="#000000" points="228,135.1553,234,138.1553,228,141.1553,228,135.1553" style="stroke: #000000; stroke-width: 1.0;"/><text fill="#000000" font-family="sans-serif" font-size="13" lengthAdjust="spacingAndGlyphs" textLength="8" x="128.0977" y="156.4554">1</text><text fill="#000000" font-family="sans-serif" font-size="13" lengthAdjust="spacingAndGlyphs" textLength="8" x="406.083" y="173.7166">1</text><!--MD5=[4aa6a936df4ad7b844bdcf1457a2ad73]
link AlgoritmoGeradorPasswords to Utilizador--><path d="M618.08,160.38 C704.05,154.52 826.23,146.2 894.75,141.53 " fill="none" id="AlgoritmoGeradorPasswords-Utilizador" style="stroke: #00BFFF; stroke-width: 1.0;"/><text fill="#000000" font-family="sans-serif" font-size="13" lengthAdjust="spacingAndGlyphs" textLength="91" x="649" y="147.5684">gera password</text><polygon fill="#000000" points="743,141.1553,749,144.1553,743,147.1553,743,141.1553" style="stroke: #000000; stroke-width: 1.0;"/><text fill="#000000" font-family="sans-serif" font-size="13" lengthAdjust="spacingAndGlyphs" textLength="8" x="625.8955" y="173.0276">1</text><text fill="#000000" font-family="sans-serif" font-size="13" lengthAdjust="spacingAndGlyphs" textLength="6" x="880.9102" y="155.6808">*</text><!--MD5=[75ea008e1ad20afd58f72eb5f82281e2]
@startuml
skinparam classAttributeIconSize 0

hide methods
left to right direction

class Plataforma {
  -String designacao
}

class Organizacao {
  -String nome
  -String NIF
  -String website
  -String telefone
  -String email
}

class Colaborador {
  -String nome
  -String funcao
  -String telefone
  -String email
}

class Utilizador {
  -String nome
  -String email
  -String password
}

class AlgoritmoGeradorPasswords #DeepSkyBlue {
}

Plataforma "1" - - "*" Organizacao : tem registadas >
Organizacao "1" - - "1..*" Colaborador: tem >
Organizacao "1" - - "1" Colaborador: tem gestor >
Colaborador "0..1" - - "1" Utilizador : atua como >
Plataforma "1" - - "1" AlgoritmoGeradorPasswords #DeepSkyBlue : recorre a >
AlgoritmoGeradorPasswords "1" - - "*" Utilizador #DeepSkyBlue : gera password >

@enduml

PlantUML version 1.2020.03beta6(Unknown compile time)
(GPL source distribution)
Java Runtime: OpenJDK Runtime Environment
JVM: OpenJDK 64-Bit Server VM
Java Version: 11.0.5+10-b520.38
Operating System: Mac OS X
Default Encoding: UTF-8
Language: en
Country: PT
--></g></svg>