<?xml version="1.0" encoding="UTF-8" standalone="no"?><svg xmlns="http://www.w3.org/2000/svg" xmlns:xlink="http://www.w3.org/1999/xlink" contentScriptType="application/ecmascript" contentStyleType="text/css" height="288px" preserveAspectRatio="none" style="width:1032px;height:288px;" version="1.1" viewBox="0 0 1032 288" width="1032px" zoomAndPan="magnify"><defs><filter height="300%" id="f10sr0z55zyb0s" width="300%" x="-1" y="-1"><feGaussianBlur result="blurOut" stdDeviation="2.0"/><feColorMatrix in="blurOut" result="blurOut2" type="matrix" values="0 0 0 0 0 0 0 0 0 0 0 0 0 0 0 0 0 0 .4 0"/><feOffset dx="4.0" dy="4.0" in="blurOut2" result="blurOut3"/><feBlend in="SourceGraphic" in2="blurOut3" mode="normal"/></filter></defs><g><!--MD5=[ecaed46f78f8cfe1e9ce18477649be18]
class Plataforma--><rect fill="#FEFECE" filter="url(#f10sr0z55zyb0s)" height="52.9551" id="Plataforma" style="stroke: #A80036; stroke-width: 1.5;" width="114" x="6" y="192"/><ellipse cx="30" cy="208" fill="#ADD1B2" rx="11" ry="11" style="stroke: #A80036; stroke-width: 1.0;"/><path d="M32.4731,214.1431 Q31.8921,214.4419 31.2529,214.5913 Q30.6138,214.7407 29.9082,214.7407 Q27.4014,214.7407 26.0815,213.0889 Q24.7617,211.437 24.7617,208.3159 Q24.7617,205.1865 26.0815,203.5347 Q27.4014,201.8828 29.9082,201.8828 Q30.6138,201.8828 31.2612,202.0322 Q31.9087,202.1816 32.4731,202.4805 L32.4731,205.2031 Q31.8423,204.6221 31.2488,204.3523 Q30.6553,204.0825 30.0244,204.0825 Q28.6797,204.0825 27.9949,205.1492 Q27.3101,206.2158 27.3101,208.3159 Q27.3101,210.4077 27.9949,211.4744 Q28.6797,212.541 30.0244,212.541 Q30.6553,212.541 31.2488,212.2712 Q31.8423,212.0015 32.4731,211.4204 Z "/><text fill="#000000" font-family="sans-serif" font-size="12" lengthAdjust="spacingAndGlyphs" textLength="62" x="46" y="212.5352">Plataforma</text><line style="stroke: #A80036; stroke-width: 1.5;" x1="7" x2="119" y1="224" y2="224"/><text fill="#000000" font-family="sans-serif" font-size="11" lengthAdjust="spacingAndGlyphs" textLength="102" x="12" y="238.6348">-String designacao</text><!--MD5=[807977ceb130c090ed5febfb6de2bdea]
class Organizacao--><rect fill="#FEFECE" filter="url(#f10sr0z55zyb0s)" height="104.7754" id="Organizacao" style="stroke: #A80036; stroke-width: 1.5;" width="104" x="288" y="76"/><ellipse cx="303" cy="92" fill="#ADD1B2" rx="11" ry="11" style="stroke: #A80036; stroke-width: 1.0;"/><path d="M305.4731,98.1431 Q304.8921,98.4419 304.2529,98.5913 Q303.6138,98.7407 302.9082,98.7407 Q300.4014,98.7407 299.0815,97.0889 Q297.7617,95.437 297.7617,92.3159 Q297.7617,89.1865 299.0815,87.5347 Q300.4014,85.8828 302.9082,85.8828 Q303.6138,85.8828 304.2612,86.0322 Q304.9087,86.1816 305.4731,86.4805 L305.4731,89.2031 Q304.8423,88.6221 304.2488,88.3523 Q303.6553,88.0825 303.0244,88.0825 Q301.6797,88.0825 300.9949,89.1492 Q300.3101,90.2158 300.3101,92.3159 Q300.3101,94.4077 300.9949,95.4744 Q301.6797,96.541 303.0244,96.541 Q303.6553,96.541 304.2488,96.2712 Q304.8423,96.0015 305.4731,95.4204 Z "/><text fill="#000000" font-family="sans-serif" font-size="12" lengthAdjust="spacingAndGlyphs" textLength="72" x="317" y="96.5352">Organizacao</text><line style="stroke: #A80036; stroke-width: 1.5;" x1="289" x2="391" y1="108" y2="108"/><text fill="#000000" font-family="sans-serif" font-size="11" lengthAdjust="spacingAndGlyphs" textLength="71" x="294" y="122.6348">-String nome</text><text fill="#000000" font-family="sans-serif" font-size="11" lengthAdjust="spacingAndGlyphs" textLength="58" x="294" y="135.5898">-String NIF</text><text fill="#000000" font-family="sans-serif" font-size="11" lengthAdjust="spacingAndGlyphs" textLength="81" x="294" y="148.5449">-String website</text><text fill="#000000" font-family="sans-serif" font-size="11" lengthAdjust="spacingAndGlyphs" textLength="84" x="294" y="161.5">-String telefone</text><text fill="#000000" font-family="sans-serif" font-size="11" lengthAdjust="spacingAndGlyphs" textLength="69" x="294" y="174.4551">-String email</text><!--MD5=[ac8682ea5466d223e49472789fb200d2]
class Colaborador--><rect fill="#FEFECE" filter="url(#f10sr0z55zyb0s)" height="91.8203" id="Colaborador" style="stroke: #A80036; stroke-width: 1.5;" width="104" x="663" y="8.5"/><ellipse cx="678" cy="24.5" fill="#ADD1B2" rx="11" ry="11" style="stroke: #A80036; stroke-width: 1.0;"/><path d="M680.4731,30.6431 Q679.8921,30.9419 679.2529,31.0913 Q678.6138,31.2407 677.9082,31.2407 Q675.4014,31.2407 674.0815,29.5889 Q672.7617,27.937 672.7617,24.8159 Q672.7617,21.6865 674.0815,20.0347 Q675.4014,18.3828 677.9082,18.3828 Q678.6138,18.3828 679.2612,18.5322 Q679.9087,18.6816 680.4731,18.9805 L680.4731,21.7031 Q679.8423,21.1221 679.2488,20.8523 Q678.6553,20.5825 678.0244,20.5825 Q676.6797,20.5825 675.9949,21.6492 Q675.3101,22.7158 675.3101,24.8159 Q675.3101,26.9077 675.9949,27.9744 Q676.6797,29.041 678.0244,29.041 Q678.6553,29.041 679.2488,28.7712 Q679.8423,28.5015 680.4731,27.9204 Z "/><text fill="#000000" font-family="sans-serif" font-size="12" lengthAdjust="spacingAndGlyphs" textLength="72" x="692" y="29.0352">Colaborador</text><line style="stroke: #A80036; stroke-width: 1.5;" x1="664" x2="766" y1="40.5" y2="40.5"/><text fill="#000000" font-family="sans-serif" font-size="11" lengthAdjust="spacingAndGlyphs" textLength="71" x="669" y="55.1348">-String nome</text><text fill="#000000" font-family="sans-serif" font-size="11" lengthAdjust="spacingAndGlyphs" textLength="78" x="669" y="68.0898">-String funcao</text><text fill="#000000" font-family="sans-serif" font-size="11" lengthAdjust="spacingAndGlyphs" textLength="84" x="669" y="81.0449">-String telefone</text><text fill="#000000" font-family="sans-serif" font-size="11" lengthAdjust="spacingAndGlyphs" textLength="69" x="669" y="94">-String email</text><!--MD5=[dcda844062f930f807532403427d3023]
class EnderecoPostal--><rect fill="#FEFECE" filter="url(#f10sr0z55zyb0s)" height="78.8652" id="EnderecoPostal" style="stroke: #A80036; stroke-width: 1.5;" width="120" x="655" y="136"/><ellipse cx="670" cy="152" fill="#ADD1B2" rx="11" ry="11" style="stroke: #A80036; stroke-width: 1.0;"/><path d="M672.4731,158.1431 Q671.8921,158.4419 671.2529,158.5913 Q670.6138,158.7407 669.9082,158.7407 Q667.4014,158.7407 666.0815,157.0889 Q664.7617,155.437 664.7617,152.3159 Q664.7617,149.1865 666.0815,147.5347 Q667.4014,145.8828 669.9082,145.8828 Q670.6138,145.8828 671.2612,146.0322 Q671.9087,146.1816 672.4731,146.4805 L672.4731,149.2031 Q671.8423,148.6221 671.2488,148.3523 Q670.6553,148.0825 670.0244,148.0825 Q668.6797,148.0825 667.9949,149.1492 Q667.3101,150.2158 667.3101,152.3159 Q667.3101,154.4077 667.9949,155.4744 Q668.6797,156.541 670.0244,156.541 Q670.6553,156.541 671.2488,156.2712 Q671.8423,156.0015 672.4731,155.4204 Z "/><text fill="#000000" font-family="sans-serif" font-size="12" lengthAdjust="spacingAndGlyphs" textLength="88" x="684" y="156.5352">EnderecoPostal</text><line style="stroke: #A80036; stroke-width: 1.5;" x1="656" x2="774" y1="168" y2="168"/><text fill="#000000" font-family="sans-serif" font-size="11" lengthAdjust="spacingAndGlyphs" textLength="66" x="661" y="182.6348">-String local</text><text fill="#000000" font-family="sans-serif" font-size="11" lengthAdjust="spacingAndGlyphs" textLength="93" x="661" y="195.5898">-String codPostal</text><text fill="#000000" font-family="sans-serif" font-size="11" lengthAdjust="spacingAndGlyphs" textLength="95" x="661" y="208.5449">-String localidade</text><!--MD5=[5dd1d6732c071e710b9290b531f2fa3b]
class Utilizador--><rect fill="#FEFECE" filter="url(#f10sr0z55zyb0s)" height="78.8652" id="Utilizador" style="stroke: #A80036; stroke-width: 1.5;" width="105" x="916" y="199"/><ellipse cx="939.1" cy="215" fill="#ADD1B2" rx="11" ry="11" style="stroke: #A80036; stroke-width: 1.0;"/><path d="M941.5731,221.1431 Q940.9921,221.4419 940.3529,221.5913 Q939.7138,221.7407 939.0082,221.7407 Q936.5014,221.7407 935.1815,220.0889 Q933.8617,218.437 933.8617,215.3159 Q933.8617,212.1865 935.1815,210.5347 Q936.5014,208.8828 939.0082,208.8828 Q939.7138,208.8828 940.3612,209.0322 Q941.0087,209.1816 941.5731,209.4805 L941.5731,212.2031 Q940.9423,211.6221 940.3488,211.3523 Q939.7553,211.0825 939.1244,211.0825 Q937.7797,211.0825 937.0949,212.1492 Q936.4101,213.2158 936.4101,215.3159 Q936.4101,217.4077 937.0949,218.4744 Q937.7797,219.541 939.1244,219.541 Q939.7553,219.541 940.3488,219.2712 Q940.9423,219.0015 941.5731,218.4204 Z "/><text fill="#000000" font-family="sans-serif" font-size="12" lengthAdjust="spacingAndGlyphs" textLength="55" x="954.9" y="219.5352">Utilizador</text><line style="stroke: #A80036; stroke-width: 1.5;" x1="917" x2="1020" y1="231" y2="231"/><text fill="#000000" font-family="sans-serif" font-size="11" lengthAdjust="spacingAndGlyphs" textLength="71" x="922" y="245.6348">-String nome</text><text fill="#000000" font-family="sans-serif" font-size="11" lengthAdjust="spacingAndGlyphs" textLength="69" x="922" y="258.5898">-String email</text><text fill="#000000" font-family="sans-serif" font-size="11" lengthAdjust="spacingAndGlyphs" textLength="93" x="922" y="271.5449">-String password</text><!--MD5=[903d5889f30e0ecbfd34509022c6ca12]
class AlgoritmoExternoGeracaoPwd--><rect fill="#FEFECE" filter="url(#f10sr0z55zyb0s)" height="40" id="AlgoritmoExternoGeracaoPwd" style="stroke: #A80036; stroke-width: 1.5;" width="203" x="422" y="231.5"/><ellipse cx="437" cy="247.5" fill="#ADD1B2" rx="11" ry="11" style="stroke: #A80036; stroke-width: 1.0;"/><path d="M439.4731,253.6431 Q438.8921,253.9419 438.2529,254.0913 Q437.6138,254.2407 436.9082,254.2407 Q434.4014,254.2407 433.0815,252.5889 Q431.7617,250.937 431.7617,247.8159 Q431.7617,244.6865 433.0815,243.0347 Q434.4014,241.3828 436.9082,241.3828 Q437.6138,241.3828 438.2612,241.5322 Q438.9087,241.6816 439.4731,241.9805 L439.4731,244.7031 Q438.8423,244.1221 438.2488,243.8523 Q437.6553,243.5825 437.0244,243.5825 Q435.6797,243.5825 434.9949,244.6492 Q434.3101,245.7158 434.3101,247.8159 Q434.3101,249.9077 434.9949,250.9744 Q435.6797,252.041 437.0244,252.041 Q437.6553,252.041 438.2488,251.7712 Q438.8423,251.5015 439.4731,250.9204 Z "/><text fill="#000000" font-family="sans-serif" font-size="12" lengthAdjust="spacingAndGlyphs" textLength="171" x="451" y="252.0352">AlgoritmoExternoGeracaoPwd</text><line style="stroke: #A80036; stroke-width: 1.5;" x1="423" x2="624" y1="263.5" y2="263.5"/><!--MD5=[1c2ad462e362697fcdc859a6327d55c7]
link Plataforma to Organizacao--><path d="M120.31,200.07 C169.5,183.97 240.27,160.81 287.86,145.24 " fill="none" id="Plataforma-Organizacao" style="stroke: #A80036; stroke-width: 1.0;"/><text fill="#000000" font-family="sans-serif" font-size="13" lengthAdjust="spacingAndGlyphs" textLength="93" x="151" y="151.0684">tem registadas</text><polygon fill="#000000" points="247,144.6553,253,147.6553,247,150.6553,247,144.6553" style="stroke: #000000; stroke-width: 1.0;"/><text fill="#000000" font-family="sans-serif" font-size="13" lengthAdjust="spacingAndGlyphs" textLength="8" x="128.1653" y="211.2607">1</text><text fill="#000000" font-family="sans-serif" font-size="13" lengthAdjust="spacingAndGlyphs" textLength="6" x="274.1059" y="161.2547">*</text><!--MD5=[efc446191a09ada4a3c0b8b4c7fafebe]
link Plataforma to AlgoritmoExternoGeracaoPwd--><path d="M120.22,222.55 C195.19,227.94 329.17,237.59 421.79,244.25 " fill="none" id="Plataforma-AlgoritmoExternoGeracaoPwd" style="stroke: #A80036; stroke-width: 1.0;"/><text fill="#000000" font-family="sans-serif" font-size="13" lengthAdjust="spacingAndGlyphs" textLength="55" x="170" y="221.0684">recorre a</text><polygon fill="#000000" points="228,214.6553,234,217.6553,228,220.6553,228,214.6553" style="stroke: #000000; stroke-width: 1.0;"/><text fill="#000000" font-family="sans-serif" font-size="13" lengthAdjust="spacingAndGlyphs" textLength="8" x="128.0638" y="236.621">1</text><text fill="#000000" font-family="sans-serif" font-size="13" lengthAdjust="spacingAndGlyphs" textLength="8" x="406.0269" y="256.8481">1</text><!--MD5=[567db691f9836c63f305bad1024cbc66]
link Organizacao to Colaborador--><path d="M392.2,105.43 C401.95,101.67 412.18,98.15 422,95.5 C504.67,73.23 603.95,62.56 662.86,57.84 " fill="none" id="Organizacao-Colaborador" style="stroke: #A80036; stroke-width: 1.0;"/><text fill="#000000" font-family="sans-serif" font-size="13" lengthAdjust="spacingAndGlyphs" textLength="24" x="505" y="59.0684">tem</text><polygon fill="#000000" points="532,52.6553,538,55.6553,532,58.6553,532,52.6553" style="stroke: #000000; stroke-width: 1.0;"/><text fill="#000000" font-family="sans-serif" font-size="13" lengthAdjust="spacingAndGlyphs" textLength="8" x="400.1031" y="115.8465">1</text><text fill="#000000" font-family="sans-serif" font-size="13" lengthAdjust="spacingAndGlyphs" textLength="22" x="633.1648" y="71.7594">1..*</text><!--MD5=[567db691f9836c63f305bad1024cbc66]
link Organizacao to Colaborador--><path d="M392.15,136.07 C450.31,142.65 547.27,147.4 625,120.5 C638.27,115.91 651.21,108.57 662.93,100.42 " fill="none" id="Organizacao-Colaborador-1" style="stroke: #A80036; stroke-width: 1.0;"/><text fill="#000000" font-family="sans-serif" font-size="13" lengthAdjust="spacingAndGlyphs" textLength="68" x="483" y="117.0684">tem gestor</text><polygon fill="#000000" points="554,110.6553,560,113.6553,554,116.6553,554,110.6553" style="stroke: #000000; stroke-width: 1.0;"/><text fill="#000000" font-family="sans-serif" font-size="13" lengthAdjust="spacingAndGlyphs" textLength="8" x="400.0461" y="150.7952">1</text><text fill="#000000" font-family="sans-serif" font-size="13" lengthAdjust="spacingAndGlyphs" textLength="8" x="647.0452" y="120.535">1</text><!--MD5=[ca49ec1e86bb5e8c049c02c54bfc3088]
link Organizacao to EnderecoPostal--><path d="M392.39,163.59 C401.87,168.51 411.95,172.8 422,175.5 C500.45,196.61 595.1,191.29 654.93,184.36 " fill="none" id="Organizacao-EnderecoPostal" style="stroke: #A80036; stroke-width: 1.0;"/><text fill="#000000" font-family="sans-serif" font-size="13" lengthAdjust="spacingAndGlyphs" textLength="86" x="474" y="172.0684">localizada em</text><polygon fill="#000000" points="563,165.6553,569,168.6553,563,171.6553,563,165.6553" style="stroke: #000000; stroke-width: 1.0;"/><text fill="#000000" font-family="sans-serif" font-size="13" lengthAdjust="spacingAndGlyphs" textLength="24" x="399.8351" y="181.1138">0..1</text><text fill="#000000" font-family="sans-serif" font-size="13" lengthAdjust="spacingAndGlyphs" textLength="8" x="639.1215" y="198.9494">1</text><!--MD5=[bcb5794e8184ce78d304f04a5beabbc0]
link Colaborador to Utilizador--><path d="M767.2,91.96 C810.57,123.69 872.47,168.97 915.94,200.78 " fill="none" id="Colaborador-Utilizador" style="stroke: #A80036; stroke-width: 1.0;"/><text fill="#000000" font-family="sans-serif" font-size="13" lengthAdjust="spacingAndGlyphs" textLength="66" x="806" y="121.0684">atua como</text><polygon fill="#000000" points="875,114.6553,881,117.6553,875,120.6553,875,114.6553" style="stroke: #000000; stroke-width: 1.0;"/><text fill="#000000" font-family="sans-serif" font-size="13" lengthAdjust="spacingAndGlyphs" textLength="24" x="775.0244" y="110.0377">0..1</text><text fill="#000000" font-family="sans-serif" font-size="13" lengthAdjust="spacingAndGlyphs" textLength="8" x="899.9863" y="209.13">1</text><!--MD5=[647426b90ecdde9ada25b13bffe67ced]
link AlgoritmoExternoGeracaoPwd to Utilizador--><path d="M625.08,251.82 C670.83,251.68 725.66,251.11 775,249.5 C822.68,247.95 876.92,244.72 915.65,242.15 " fill="none" id="AlgoritmoExternoGeracaoPwd-Utilizador" style="stroke: #A80036; stroke-width: 1.0;"/><text fill="#000000" font-family="sans-serif" font-size="13" lengthAdjust="spacingAndGlyphs" textLength="91" x="663" y="246.0684">gera password</text><polygon fill="#000000" points="757,239.6553,763,242.6553,757,245.6553,757,239.6553" style="stroke: #000000; stroke-width: 1.0;"/><text fill="#000000" font-family="sans-serif" font-size="13" lengthAdjust="spacingAndGlyphs" textLength="8" x="633.1635" y="264.999">1</text><text fill="#000000" font-family="sans-serif" font-size="13" lengthAdjust="spacingAndGlyphs" textLength="6" x="902.1452" y="256.2466">*</text><!--MD5=[8d16e78a36f00984d821ec57aa2ba117]
@startuml
skinparam classAttributeIconSize 0
hide methods
left to right direction

class Plataforma {
  -String designacao
}

class Organizacao {
  -String nome
  -String NIF
  -String website
  -String telefone
  -String email
}

class Colaborador {
  -String nome
  -String funcao
  -String telefone
  -String email
}

class EnderecoPostal {
  -String local
  -String codPostal
  -String localidade
}

class Utilizador {
  -String nome
  -String email
  -String password
}

class AlgoritmoExternoGeracaoPwd {
}

Plataforma "1" - - "*" Organizacao : tem registadas >
Plataforma "1" - - "1" AlgoritmoExternoGeracaoPwd : recorre a >

Organizacao "1" - - "1..*" Colaborador: tem >
Organizacao "1" - - "1" Colaborador: tem gestor >
Organizacao "0..1" - - "1" EnderecoPostal: localizada em >

Colaborador "0..1" - - "1" Utilizador: atua como >

AlgoritmoExternoGeracaoPwd "1" - - "*" Utilizador : gera password >
@enduml

PlantUML version 1.2020.03beta6(Unknown compile time)
(GPL source distribution)
Java Runtime: OpenJDK Runtime Environment
JVM: OpenJDK 64-Bit Server VM
Java Version: 11.0.5+10-b520.38
Operating System: Mac OS X
Default Encoding: UTF-8
Language: en
Country: PT
--></g></svg>