<?xml version="1.0" encoding="UTF-8" standalone="no"?><svg xmlns="http://www.w3.org/2000/svg" xmlns:xlink="http://www.w3.org/1999/xlink" contentScriptType="application/ecmascript" contentStyleType="text/css" height="846px" preserveAspectRatio="none" style="width:1374px;height:846px;" version="1.1" viewBox="0 0 1374 846" width="1374px" zoomAndPan="magnify"><defs><filter height="300%" id="fee1m6e15gnkw" width="300%" x="-1" y="-1"><feGaussianBlur result="blurOut" stdDeviation="2.0"/><feColorMatrix in="blurOut" result="blurOut2" type="matrix" values="0 0 0 0 0 0 0 0 0 0 0 0 0 0 0 0 0 0 .4 0"/><feOffset dx="4.0" dy="4.0" in="blurOut2" result="blurOut3"/><feBlend in="SourceGraphic" in2="blurOut3" mode="normal"/></filter></defs><g><!--MD5=[ac8682ea5466d223e49472789fb200d2]
class Colaborador--><rect fill="#FEFECE" filter="url(#fee1m6e15gnkw)" height="138.6855" id="Colaborador" style="stroke: #A80036; stroke-width: 1.5;" width="215" x="180.5" y="697"/><ellipse cx="247.75" cy="713" fill="#ADD1B2" rx="11" ry="11" style="stroke: #A80036; stroke-width: 1.0;"/><path d="M250.2231,719.1431 Q249.6421,719.4419 249.0029,719.5913 Q248.3638,719.7407 247.6582,719.7407 Q245.1514,719.7407 243.8315,718.0889 Q242.5117,716.437 242.5117,713.3159 Q242.5117,710.1865 243.8315,708.5347 Q245.1514,706.8828 247.6582,706.8828 Q248.3638,706.8828 249.0112,707.0322 Q249.6587,707.1816 250.2231,707.4805 L250.2231,710.2031 Q249.5923,709.6221 248.9988,709.3523 Q248.4053,709.0825 247.7744,709.0825 Q246.4297,709.0825 245.7449,710.1492 Q245.0601,711.2158 245.0601,713.3159 Q245.0601,715.4077 245.7449,716.4744 Q246.4297,717.541 247.7744,717.541 Q248.4053,717.541 248.9988,717.2712 Q249.5923,717.0015 250.2231,716.4204 Z "/><text fill="#000000" font-family="sans-serif" font-size="12" lengthAdjust="spacingAndGlyphs" textLength="72" x="268.25" y="717.5352">Colaborador</text><line style="stroke: #A80036; stroke-width: 1.5;" x1="181.5" x2="394.5" y1="729" y2="729"/><text fill="#000000" font-family="sans-serif" font-size="11" lengthAdjust="spacingAndGlyphs" textLength="71" x="186.5" y="743.6348">-String nome</text><text fill="#000000" font-family="sans-serif" font-size="11" lengthAdjust="spacingAndGlyphs" textLength="78" x="186.5" y="756.5898">-String funcao</text><text fill="#000000" font-family="sans-serif" font-size="11" lengthAdjust="spacingAndGlyphs" textLength="84" x="186.5" y="769.5449">-String telefone</text><text fill="#000000" font-family="sans-serif" font-size="11" lengthAdjust="spacingAndGlyphs" textLength="69" x="186.5" y="782.5">-String email</text><line style="stroke: #A80036; stroke-width: 1.5;" x1="181.5" x2="394.5" y1="788.8203" y2="788.8203"/><text fill="#000000" font-family="sans-serif" font-size="11" lengthAdjust="spacingAndGlyphs" textLength="203" x="186.5" y="803.4551">+Colaborador(nome,função,tlf, email)</text><text fill="#000000" font-family="sans-serif" font-size="11" lengthAdjust="spacingAndGlyphs" textLength="100" x="186.5" y="816.4102">+String getNome()</text><text fill="#000000" font-family="sans-serif" font-size="11" lengthAdjust="spacingAndGlyphs" textLength="97" x="186.5" y="829.3652">+String getEmail()</text><!--MD5=[dcda844062f930f807532403427d3023]
class EnderecoPostal--><rect fill="#FEFECE" filter="url(#fee1m6e15gnkw)" height="99.8203" id="EnderecoPostal" style="stroke: #A80036; stroke-width: 1.5;" width="248" x="735" y="716.5"/><ellipse cx="810.75" cy="732.5" fill="#ADD1B2" rx="11" ry="11" style="stroke: #A80036; stroke-width: 1.0;"/><path d="M813.2231,738.6431 Q812.6421,738.9419 812.0029,739.0913 Q811.3638,739.2407 810.6582,739.2407 Q808.1514,739.2407 806.8315,737.5889 Q805.5117,735.937 805.5117,732.8159 Q805.5117,729.6865 806.8315,728.0347 Q808.1514,726.3828 810.6582,726.3828 Q811.3638,726.3828 812.0112,726.5322 Q812.6587,726.6816 813.2231,726.9805 L813.2231,729.7031 Q812.5923,729.1221 811.9988,728.8523 Q811.4053,728.5825 810.7744,728.5825 Q809.4297,728.5825 808.7449,729.6492 Q808.0601,730.7158 808.0601,732.8159 Q808.0601,734.9077 808.7449,735.9744 Q809.4297,737.041 810.7744,737.041 Q811.4053,737.041 811.9988,736.7712 Q812.5923,736.5015 813.2231,735.9204 Z "/><text fill="#000000" font-family="sans-serif" font-size="12" lengthAdjust="spacingAndGlyphs" textLength="88" x="831.25" y="737.0352">EnderecoPostal</text><line style="stroke: #A80036; stroke-width: 1.5;" x1="736" x2="982" y1="748.5" y2="748.5"/><text fill="#000000" font-family="sans-serif" font-size="11" lengthAdjust="spacingAndGlyphs" textLength="66" x="741" y="763.1348">-String local</text><text fill="#000000" font-family="sans-serif" font-size="11" lengthAdjust="spacingAndGlyphs" textLength="93" x="741" y="776.0898">-String codPostal</text><text fill="#000000" font-family="sans-serif" font-size="11" lengthAdjust="spacingAndGlyphs" textLength="95" x="741" y="789.0449">-String localidade</text><line style="stroke: #A80036; stroke-width: 1.5;" x1="736" x2="982" y1="795.3652" y2="795.3652"/><text fill="#000000" font-family="sans-serif" font-size="11" lengthAdjust="spacingAndGlyphs" textLength="236" x="741" y="810">+EnderecoPostal(local,codPostal,localidade)</text><!--MD5=[807977ceb130c090ed5febfb6de2bdea]
class Organizacao--><rect fill="#FEFECE" filter="url(#fee1m6e15gnkw)" height="151.6406" id="Organizacao" style="stroke: #A80036; stroke-width: 1.5;" width="432" x="6" y="468"/><ellipse cx="181.75" cy="484" fill="#ADD1B2" rx="11" ry="11" style="stroke: #A80036; stroke-width: 1.0;"/><path d="M184.2231,490.1431 Q183.6421,490.4419 183.0029,490.5913 Q182.3638,490.7407 181.6582,490.7407 Q179.1514,490.7407 177.8315,489.0889 Q176.5117,487.437 176.5117,484.3159 Q176.5117,481.1865 177.8315,479.5347 Q179.1514,477.8828 181.6582,477.8828 Q182.3638,477.8828 183.0112,478.0322 Q183.6587,478.1816 184.2231,478.4805 L184.2231,481.2031 Q183.5923,480.6221 182.9988,480.3523 Q182.4053,480.0825 181.7744,480.0825 Q180.4297,480.0825 179.7449,481.1492 Q179.0601,482.2158 179.0601,484.3159 Q179.0601,486.4077 179.7449,487.4744 Q180.4297,488.541 181.7744,488.541 Q182.4053,488.541 182.9988,488.2712 Q183.5923,488.0015 184.2231,487.4204 Z "/><text fill="#000000" font-family="sans-serif" font-size="12" lengthAdjust="spacingAndGlyphs" textLength="72" x="202.25" y="488.5352">Organizacao</text><line style="stroke: #A80036; stroke-width: 1.5;" x1="7" x2="437" y1="500" y2="500"/><text fill="#000000" font-family="sans-serif" font-size="11" lengthAdjust="spacingAndGlyphs" textLength="71" x="12" y="514.6348">-String nome</text><text fill="#000000" font-family="sans-serif" font-size="11" lengthAdjust="spacingAndGlyphs" textLength="58" x="12" y="527.5898">-String NIF</text><text fill="#000000" font-family="sans-serif" font-size="11" lengthAdjust="spacingAndGlyphs" textLength="81" x="12" y="540.5449">-String website</text><text fill="#000000" font-family="sans-serif" font-size="11" lengthAdjust="spacingAndGlyphs" textLength="84" x="12" y="553.5">-String telefone</text><text fill="#000000" font-family="sans-serif" font-size="11" lengthAdjust="spacingAndGlyphs" textLength="69" x="12" y="566.4551">-String email</text><line style="stroke: #A80036; stroke-width: 1.5;" x1="7" x2="437" y1="572.7754" y2="572.7754"/><text fill="#000000" font-family="sans-serif" font-size="11" lengthAdjust="spacingAndGlyphs" textLength="420" x="12" y="587.4102">+Organizacao(nome, NIF,webSite,telefone, email,endereco,gestorColaborador)</text><text fill="#000000" font-family="sans-serif" font-size="11" lengthAdjust="spacingAndGlyphs" text-decoration="underline" textLength="316" x="12" y="600.3652">+EnderecoPostal novoEndereco(local,codPostal,localidade)</text><text fill="#000000" font-family="sans-serif" font-size="11" lengthAdjust="spacingAndGlyphs" text-decoration="underline" textLength="301" x="12" y="613.3203">+Colaborador novoColaborador(nome,funcao,tlf, email)</text><!--MD5=[ecaed46f78f8cfe1e9ce18477649be18]
class Plataforma--><rect fill="#FEFECE" filter="url(#fee1m6e15gnkw)" height="99.8203" id="Plataforma" style="stroke: #A80036; stroke-width: 1.5;" width="323" x="1040.5" y="271.5"/><ellipse cx="1166.75" cy="287.5" fill="#ADD1B2" rx="11" ry="11" style="stroke: #A80036; stroke-width: 1.0;"/><path d="M1169.2231,293.6431 Q1168.6421,293.9419 1168.0029,294.0913 Q1167.3638,294.2407 1166.6582,294.2407 Q1164.1514,294.2407 1162.8315,292.5889 Q1161.5117,290.937 1161.5117,287.8159 Q1161.5117,284.6865 1162.8315,283.0347 Q1164.1514,281.3828 1166.6582,281.3828 Q1167.3638,281.3828 1168.0112,281.5322 Q1168.6587,281.6816 1169.2231,281.9805 L1169.2231,284.7031 Q1168.5923,284.1221 1167.9988,283.8523 Q1167.4053,283.5825 1166.7744,283.5825 Q1165.4297,283.5825 1164.7449,284.6492 Q1164.0601,285.7158 1164.0601,287.8159 Q1164.0601,289.9077 1164.7449,290.9744 Q1165.4297,292.041 1166.7744,292.041 Q1167.4053,292.041 1167.9988,291.7712 Q1168.5923,291.5015 1169.2231,290.9204 Z "/><text fill="#000000" font-family="sans-serif" font-size="12" lengthAdjust="spacingAndGlyphs" textLength="62" x="1187.25" y="292.0352">Plataforma</text><line style="stroke: #A80036; stroke-width: 1.5;" x1="1041.5" x2="1362.5" y1="303.5" y2="303.5"/><text fill="#000000" font-family="sans-serif" font-size="11" lengthAdjust="spacingAndGlyphs" textLength="102" x="1046.5" y="318.1348">-String designacao</text><line style="stroke: #A80036; stroke-width: 1.5;" x1="1041.5" x2="1362.5" y1="324.4551" y2="324.4551"/><text fill="#000000" font-family="sans-serif" font-size="11" lengthAdjust="spacingAndGlyphs" textLength="265" x="1046.5" y="339.0898">+RegistoOrganizacoes getRegistoOrganizacoes()</text><text fill="#000000" font-family="sans-serif" font-size="11" lengthAdjust="spacingAndGlyphs" textLength="241" x="1046.5" y="352.0449">+AutorizacaoFacade getAutorizacaoFacade()</text><text fill="#000000" font-family="sans-serif" font-size="11" lengthAdjust="spacingAndGlyphs" textLength="311" x="1046.5" y="365">+AlgoritmoGeradorPasswords getAlgoritmoGeradorPwd()</text><!--MD5=[548bd8e9f0dc9261535ca7b7174ac939]
class RegistoOrganizacoes--><rect fill="#FEFECE" filter="url(#fee1m6e15gnkw)" height="138.6855" id="RegistoOrganizacoes" style="stroke: #A80036; stroke-width: 1.5;" width="371" x="634.5" y="252"/><ellipse cx="755.75" cy="268" fill="#ADD1B2" rx="11" ry="11" style="stroke: #A80036; stroke-width: 1.0;"/><path d="M758.2231,274.1431 Q757.6421,274.4419 757.0029,274.5913 Q756.3638,274.7407 755.6582,274.7407 Q753.1514,274.7407 751.8315,273.0889 Q750.5117,271.437 750.5117,268.3159 Q750.5117,265.1865 751.8315,263.5347 Q753.1514,261.8828 755.6582,261.8828 Q756.3638,261.8828 757.0112,262.0322 Q757.6587,262.1816 758.2231,262.4805 L758.2231,265.2031 Q757.5923,264.6221 756.9988,264.3523 Q756.4053,264.0825 755.7744,264.0825 Q754.4297,264.0825 753.7449,265.1492 Q753.0601,266.2158 753.0601,268.3159 Q753.0601,270.4077 753.7449,271.4744 Q754.4297,272.541 755.7744,272.541 Q756.4053,272.541 756.9988,272.2712 Q757.5923,272.0015 758.2231,271.4204 Z "/><text fill="#000000" font-family="sans-serif" font-size="12" lengthAdjust="spacingAndGlyphs" textLength="120" x="776.25" y="272.5352">RegistoOrganizacoes</text><line style="stroke: #A80036; stroke-width: 1.5;" x1="635.5" x2="1004.5" y1="284" y2="284"/><line style="stroke: #A80036; stroke-width: 1.5;" x1="635.5" x2="1004.5" y1="292" y2="292"/><text fill="#000000" font-family="sans-serif" font-size="11" lengthAdjust="spacingAndGlyphs" textLength="359" x="640.5" y="306.6348">+Organizacao novaOrganizacao(nome,NIF,endLocal,endCodPostal,</text><text fill="#000000" font-family="sans-serif" font-size="11" lengthAdjust="spacingAndGlyphs" textLength="293" x="640.5" y="319.5898">endLocalidade,tlf,site,email,nomeG,função,tlfG, emailG)</text><text fill="#000000" font-family="sans-serif" font-size="11" lengthAdjust="spacingAndGlyphs" textLength="206" x="640.5" y="332.5449">+validaOrganizacao(Organizacao org)</text><text fill="#000000" font-family="sans-serif" font-size="11" lengthAdjust="spacingAndGlyphs" textLength="212" x="640.5" y="345.5">+registaOrganizacao(Organizacao org)</text><text fill="#000000" font-family="sans-serif" font-size="11" lengthAdjust="spacingAndGlyphs" textLength="192" x="640.5" y="358.4551">-addOrganizacao(Organizacao org)</text><text fill="#000000" font-family="sans-serif" font-size="11" lengthAdjust="spacingAndGlyphs" textLength="271" x="640.5" y="371.4102">-registaGestorComoUtilizador(Colaborador colab)</text><text fill="#000000" font-family="sans-serif" font-size="11" lengthAdjust="spacingAndGlyphs" textLength="197" x="640.5" y="384.3652">-enviaPwd(String emailG, String pwd)</text><!--MD5=[ed5c6b4e01c9b1c9efc043b411d08420]
class AutorizacaoFacade--><rect fill="#FEFECE" filter="url(#fee1m6e15gnkw)" height="60.9551" id="AutorizacaoFacade" style="stroke: #A80036; stroke-width: 1.5;" width="332" x="473" y="513.5"/><ellipse cx="580.25" cy="529.5" fill="#ADD1B2" rx="11" ry="11" style="stroke: #A80036; stroke-width: 1.0;"/><path d="M582.7231,535.6431 Q582.1421,535.9419 581.5029,536.0913 Q580.8638,536.2407 580.1582,536.2407 Q577.6514,536.2407 576.3315,534.5889 Q575.0117,532.937 575.0117,529.8159 Q575.0117,526.6865 576.3315,525.0347 Q577.6514,523.3828 580.1582,523.3828 Q580.8638,523.3828 581.5112,523.5322 Q582.1587,523.6816 582.7231,523.9805 L582.7231,526.7031 Q582.0923,526.1221 581.4988,525.8523 Q580.9053,525.5825 580.2744,525.5825 Q578.9297,525.5825 578.2449,526.6492 Q577.5601,527.7158 577.5601,529.8159 Q577.5601,531.9077 578.2449,532.9744 Q578.9297,534.041 580.2744,534.041 Q580.9053,534.041 581.4988,533.7712 Q582.0923,533.5015 582.7231,532.9204 Z "/><text fill="#000000" font-family="sans-serif" font-size="12" lengthAdjust="spacingAndGlyphs" textLength="109" x="600.75" y="534.0352">AutorizacaoFacade</text><line style="stroke: #A80036; stroke-width: 1.5;" x1="474" x2="804" y1="545.5" y2="545.5"/><line style="stroke: #A80036; stroke-width: 1.5;" x1="474" x2="804" y1="553.5" y2="553.5"/><text fill="#000000" font-family="sans-serif" font-size="11" lengthAdjust="spacingAndGlyphs" textLength="320" x="479" y="568.1348">+registaUtilizadorComPapeis(nomeG,emailG,pwd,listaPapel)</text><!--MD5=[37bf6c08f758502d5d1a5531d651ab43]
class AlgoritmoGeradorPasswords--><rect fill="#FEFECE" filter="url(#fee1m6e15gnkw)" height="67.2207" id="AlgoritmoGeradorPasswords" style="stroke: #A80036; stroke-width: 1.5;" width="289" x="840.5" y="510.5"/><ellipse cx="898.75" cy="529.6328" fill="#B4A7E5" rx="11" ry="11" style="stroke: #A80036; stroke-width: 1.0;"/><path d="M895.1777,525.8979 L895.1777,523.7397 L902.5571,523.7397 L902.5571,525.8979 L900.0918,525.8979 L900.0918,533.9746 L902.5571,533.9746 L902.5571,536.1328 L895.1777,536.1328 L895.1777,533.9746 L897.6431,533.9746 L897.6431,525.8979 Z "/><text fill="#000000" font-family="sans-serif" font-size="12" font-style="italic" lengthAdjust="spacingAndGlyphs" textLength="62" x="970.25" y="527.1016">«interface»</text><text fill="#000000" font-family="sans-serif" font-size="12" font-style="italic" lengthAdjust="spacingAndGlyphs" textLength="164" x="919.25" y="541.2344">AlgoritmoGeradorPasswords</text><line style="stroke: #A80036; stroke-width: 1.5;" x1="841.5" x2="1128.5" y1="548.7656" y2="548.7656"/><line style="stroke: #A80036; stroke-width: 1.5;" x1="841.5" x2="1128.5" y1="556.7656" y2="556.7656"/><text fill="#000000" font-family="sans-serif" font-size="11" lengthAdjust="spacingAndGlyphs" textLength="277" x="846.5" y="571.4004">+String geraPassword(String nomeG, String emailG)</text><!--MD5=[dd5ad71b12dabe0adbc098c60a8c9669]
class RegistarOrganizacaoController--><rect fill="#FEFECE" filter="url(#fee1m6e15gnkw)" height="73.9102" id="RegistarOrganizacaoController" style="stroke: #A80036; stroke-width: 1.5;" width="618" x="511" y="117"/><ellipse cx="728.25" cy="133" fill="#ADD1B2" rx="11" ry="11" style="stroke: #A80036; stroke-width: 1.0;"/><path d="M730.7231,139.1431 Q730.1421,139.4419 729.5029,139.5913 Q728.8638,139.7407 728.1582,139.7407 Q725.6514,139.7407 724.3315,138.0889 Q723.0117,136.437 723.0117,133.3159 Q723.0117,130.1865 724.3315,128.5347 Q725.6514,126.8828 728.1582,126.8828 Q728.8638,126.8828 729.5112,127.0322 Q730.1587,127.1816 730.7231,127.4805 L730.7231,130.2031 Q730.0923,129.6221 729.4988,129.3523 Q728.9053,129.0825 728.2744,129.0825 Q726.9297,129.0825 726.2449,130.1492 Q725.5601,131.2158 725.5601,133.3159 Q725.5601,135.4077 726.2449,136.4744 Q726.9297,137.541 728.2744,137.541 Q728.9053,137.541 729.4988,137.2712 Q730.0923,137.0015 730.7231,136.4204 Z "/><text fill="#000000" font-family="sans-serif" font-size="12" lengthAdjust="spacingAndGlyphs" textLength="175" x="748.75" y="137.5352">RegistarOrganizacaoController</text><line style="stroke: #A80036; stroke-width: 1.5;" x1="512" x2="1128" y1="149" y2="149"/><line style="stroke: #A80036; stroke-width: 1.5;" x1="512" x2="1128" y1="157" y2="157"/><text fill="#000000" font-family="sans-serif" font-size="11" lengthAdjust="spacingAndGlyphs" textLength="606" x="517" y="171.6348">+novaOrganizacao(nome,NIF,endLocal,endCodPostal,endLocalidade,tlf,site,email,nomeG,função,tlfG, emailG,pwd)</text><text fill="#000000" font-family="sans-serif" font-size="11" lengthAdjust="spacingAndGlyphs" textLength="122" x="517" y="184.5898">+registaOrganizacao()</text><!--MD5=[26c5f3be5170126d62449270b7dc8f97]
class RegistarOrganizacaoUI--><rect fill="#FEFECE" filter="url(#fee1m6e15gnkw)" height="48" id="RegistarOrganizacaoUI" style="stroke: #A80036; stroke-width: 1.5;" width="162" x="739" y="8"/><ellipse cx="754" cy="24" fill="#ADD1B2" rx="11" ry="11" style="stroke: #A80036; stroke-width: 1.0;"/><path d="M756.4731,30.1431 Q755.8921,30.4419 755.2529,30.5913 Q754.6138,30.7407 753.9082,30.7407 Q751.4014,30.7407 750.0815,29.0889 Q748.7617,27.437 748.7617,24.3159 Q748.7617,21.1865 750.0815,19.5347 Q751.4014,17.8828 753.9082,17.8828 Q754.6138,17.8828 755.2612,18.0322 Q755.9087,18.1816 756.4731,18.4805 L756.4731,21.2031 Q755.8423,20.6221 755.2488,20.3523 Q754.6553,20.0825 754.0244,20.0825 Q752.6797,20.0825 751.9949,21.1492 Q751.3101,22.2158 751.3101,24.3159 Q751.3101,26.4077 751.9949,27.4744 Q752.6797,28.541 754.0244,28.541 Q754.6553,28.541 755.2488,28.2712 Q755.8423,28.0015 756.4731,27.4204 Z "/><text fill="#000000" font-family="sans-serif" font-size="12" lengthAdjust="spacingAndGlyphs" textLength="130" x="768" y="28.5352">RegistarOrganizacaoUI</text><line style="stroke: #A80036; stroke-width: 1.5;" x1="740" x2="900" y1="40" y2="40"/><line style="stroke: #A80036; stroke-width: 1.5;" x1="740" x2="900" y1="48" y2="48"/><!--MD5=[5968e6aa320025ed2619ac26e0f01233]
link RegistarOrganizacaoUI to RegistarOrganizacaoController--><path d="M820,56.14 C820,71.83 820,93 820,111.55 " fill="none" id="RegistarOrganizacaoUI-&gt;RegistarOrganizacaoController" style="stroke: #A80036; stroke-width: 1.0; stroke-dasharray: 7.0,7.0;"/><polygon fill="#A80036" points="820,116.71,824,107.71,820,111.71,816,107.71,820,116.71" style="stroke: #A80036; stroke-width: 1.0;"/><!--MD5=[070ebfe6f744f37053d6e1e171d02a8b]
link RegistarOrganizacaoController to Plataforma--><path d="M903.36,191.12 C956.21,214.01 1025.38,243.98 1083.84,269.31 " fill="none" id="RegistarOrganizacaoController-&gt;Plataforma" style="stroke: #A80036; stroke-width: 1.0; stroke-dasharray: 7.0,7.0;"/><polygon fill="#A80036" points="1088.75,271.43,1082.0805,264.1831,1084.1617,269.4432,1078.9016,271.5243,1088.75,271.43" style="stroke: #A80036; stroke-width: 1.0;"/><!--MD5=[35b989c5d7ca8b09d8ca855f18139f3a]
link RegistarOrganizacaoController to RegistoOrganizacoes--><path d="M820,191.32 C820,207.58 820,227.39 820,246.55 " fill="none" id="RegistarOrganizacaoController-&gt;RegistoOrganizacoes" style="stroke: #A80036; stroke-width: 1.0; stroke-dasharray: 7.0,7.0;"/><polygon fill="#A80036" points="820,251.94,824,242.94,820,246.94,816,242.94,820,251.94" style="stroke: #A80036; stroke-width: 1.0;"/><!--MD5=[989fd8e1df01efc14a26ec70914d6dfa]
link RegistarOrganizacaoController to Organizacao--><path d="M735.18,191.18 C698.06,208.12 654.51,229.5 617,252 C509.72,316.36 395.52,402.65 317.66,464.53 " fill="none" id="RegistarOrganizacaoController-&gt;Organizacao" style="stroke: #A80036; stroke-width: 1.0; stroke-dasharray: 7.0,7.0;"/><polygon fill="#A80036" points="313.51,467.83,323.0433,465.3567,317.4227,464.717,318.0624,459.0964,313.51,467.83" style="stroke: #A80036; stroke-width: 1.0;"/><!--MD5=[7846c904d139ffad2e5d1ca294d8e188]
link RegistoOrganizacoes to Organizacao--><path d="M634.48,390.91 C569.76,414.77 496.71,441.71 430.26,466.21 " fill="none" id="RegistoOrganizacoes-&gt;Organizacao" style="stroke: #A80036; stroke-width: 1.0;"/><polygon fill="#A80036" points="425.49,467.97,435.3182,468.6079,430.181,466.2395,432.5494,461.1023,425.49,467.97" style="stroke: #A80036; stroke-width: 1.0;"/><text fill="#000000" font-family="sans-serif" font-size="13" lengthAdjust="spacingAndGlyphs" textLength="93" x="540" y="434.5684">tem registadas</text><text fill="#000000" font-family="sans-serif" font-size="13" lengthAdjust="spacingAndGlyphs" textLength="8" x="618.4846" y="391.1034">1</text><text fill="#000000" font-family="sans-serif" font-size="13" lengthAdjust="spacingAndGlyphs" textLength="6" x="439.2257" y="457.3488">*</text><!--MD5=[6813f6b6d5984798ad897268579cad27]
link RegistoOrganizacoes to Colaborador--><path d="M1005.87,385.02 C1069.35,410.41 1128.98,440.25 1147,468 C1183.8,524.65 1190.6,568.4 1147,620 C1140.97,627.13 632.76,709.89 400.98,747.32 " fill="none" id="RegistoOrganizacoes-&gt;Colaborador" style="stroke: #A80036; stroke-width: 1.0; stroke-dasharray: 7.0,7.0;"/><polygon fill="#A80036" points="395.89,748.14,405.4146,750.6463,400.8254,747.3389,404.1328,742.7497,395.89,748.14" style="stroke: #A80036; stroke-width: 1.0;"/><!--MD5=[97d4ebd15be5005f1f0f3804d7c2b6a2]
link RegistoOrganizacoes to EnderecoPostal--><path d="M1005.76,386.53 C1011.56,388.1 1017.31,389.59 1023,391 C1063.64,401.06 1181.85,389.13 1209,421 C1279.89,504.24 1275.01,579.84 1209,667 C1181.83,702.87 1076.39,729.33 988.28,745.74 " fill="none" id="RegistoOrganizacoes-&gt;EnderecoPostal" style="stroke: #A80036; stroke-width: 1.0; stroke-dasharray: 7.0,7.0;"/><polygon fill="#A80036" points="983.3,746.66,992.8721,748.9782,988.2187,745.7618,991.435,741.1083,983.3,746.66" style="stroke: #A80036; stroke-width: 1.0;"/><!--MD5=[f214507cc45b523183507945f122534d]
link RegistoOrganizacoes to AutorizacaoFacade--><path d="M763.72,391.06 C731.44,430.38 692.36,478 666.64,509.32 " fill="none" id="RegistoOrganizacoes-&gt;AutorizacaoFacade" style="stroke: #A80036; stroke-width: 1.0; stroke-dasharray: 7.0,7.0;"/><polygon fill="#A80036" points="663.26,513.44,672.0576,509.0126,666.4285,509.5721,665.869,503.943,663.26,513.44" style="stroke: #A80036; stroke-width: 1.0;"/><!--MD5=[af5da22baa9471e875a121efafac6d26]
link RegistoOrganizacoes to AlgoritmoGeradorPasswords--><path d="M871.3,391.06 C899.73,429.05 933.96,474.79 957.38,506.09 " fill="none" id="RegistoOrganizacoes-&gt;AlgoritmoGeradorPasswords" style="stroke: #A80036; stroke-width: 1.0; stroke-dasharray: 7.0,7.0;"/><polygon fill="#A80036" points="960.47,510.22,958.27,500.62,957.47,506.22,951.87,505.42,960.47,510.22" style="stroke: #A80036; stroke-width: 1.0;"/><!--MD5=[567db691f9836c63f305bad1024cbc66]
link Organizacao to Colaborador--><path d="M212.46,620.28 C212.59,635.99 214.35,652.25 219,667 C221.73,675.65 225.52,684.21 229.93,692.44 " fill="none" id="Organizacao-&gt;Colaborador" style="stroke: #A80036; stroke-width: 1.0;"/><polygon fill="#A80036" points="232.45,696.99,231.5894,687.1788,230.0278,692.6159,224.5908,691.0543,232.45,696.99" style="stroke: #A80036; stroke-width: 1.0;"/><text fill="#000000" font-family="sans-serif" font-size="13" lengthAdjust="spacingAndGlyphs" textLength="24" x="220" y="663.5684">tem</text><text fill="#000000" font-family="sans-serif" font-size="13" lengthAdjust="spacingAndGlyphs" textLength="8" x="203.2541" y="640.3398">1</text><text fill="#000000" font-family="sans-serif" font-size="13" lengthAdjust="spacingAndGlyphs" textLength="22" x="203.1711" y="686.1696">1..*</text><!--MD5=[567db691f9836c63f305bad1024cbc66]
link Organizacao to Colaborador--><path d="M244.53,620.27 C251.47,643.45 259.09,668.93 266,691.98 " fill="none" id="Organizacao-&gt;Colaborador-1" style="stroke: #A80036; stroke-width: 1.0;"/><polygon fill="#A80036" points="267.46,696.87,268.7186,687.1019,266.0298,692.0789,261.0528,689.3902,267.46,696.87" style="stroke: #A80036; stroke-width: 1.0;"/><text fill="#000000" font-family="sans-serif" font-size="13" lengthAdjust="spacingAndGlyphs" textLength="68" x="258" y="663.5684">tem gestor</text><text fill="#000000" font-family="sans-serif" font-size="13" lengthAdjust="spacingAndGlyphs" textLength="8" x="238.1803" y="640.329">1</text><text fill="#000000" font-family="sans-serif" font-size="13" lengthAdjust="spacingAndGlyphs" textLength="8" x="256.7759" y="686.0364">1</text><!--MD5=[ca49ec1e86bb5e8c049c02c54bfc3088]
link Organizacao to EnderecoPostal--><path d="M438.1,619.81 C535.03,653.36 646.12,691.81 729.83,720.79 " fill="none" id="Organizacao-&gt;EnderecoPostal" style="stroke: #A80036; stroke-width: 1.0;"/><polygon fill="#A80036" points="734.8,722.51,727.5994,715.7906,730.074,720.8774,724.9872,723.3521,734.8,722.51" style="stroke: #A80036; stroke-width: 1.0;"/><text fill="#000000" font-family="sans-serif" font-size="13" lengthAdjust="spacingAndGlyphs" textLength="86" x="561" y="663.5684">localizada em</text><text fill="#000000" font-family="sans-serif" font-size="13" lengthAdjust="spacingAndGlyphs" textLength="8" x="445.6761" y="638.521">1</text><text fill="#000000" font-family="sans-serif" font-size="13" lengthAdjust="spacingAndGlyphs" textLength="8" x="718.9878" y="716.9556">1</text><!--MD5=[15af85ffaa9fb98a74ed6e08a2ff8a2b]
@startuml
skinparam classAttributeIconSize 0

class Colaborador {
  -String nome
  -String funcao
  -String telefone
  -String email
  +Colaborador(nome,função,tlf, email)
  +String getNome()
  +String getEmail()
}

class EnderecoPostal {
  -String local
  -String codPostal
  -String localidade
  +EnderecoPostal(local,codPostal,localidade)
}

class Organizacao {
  -String nome
  -String NIF
  -String website
  -String telefone
  -String email
  +Organizacao(nome, NIF,webSite,telefone, email,endereco,gestorColaborador)
  +{static} EnderecoPostal novoEndereco(local,codPostal,localidade)
  +{static} Colaborador novoColaborador(nome,funcao,tlf, email)
}

class Plataforma {
  -String designacao
  + RegistoOrganizacoes getRegistoOrganizacoes()
  + AutorizacaoFacade getAutorizacaoFacade()
  + AlgoritmoGeradorPasswords getAlgoritmoGeradorPwd()
}

class RegistoOrganizacoes {
  +Organizacao novaOrganizacao(nome,NIF,endLocal,endCodPostal,\nendLocalidade,tlf,site,email,nomeG,função,tlfG, emailG)
  +validaOrganizacao(Organizacao org)
  +registaOrganizacao(Organizacao org)
  -addOrganizacao(Organizacao org)
  -registaGestorComoUtilizador(Colaborador colab)
  -enviaPwd(String emailG, String pwd)
}

class AutorizacaoFacade {
   +registaUtilizadorComPapeis(nomeG,emailG,pwd,listaPapel)
}

interface AlgoritmoGeradorPasswords <<interface>>{
   +String geraPassword(String nomeG, String emailG)
}

class RegistarOrganizacaoController {
    +novaOrganizacao(nome,NIF,endLocal,endCodPostal,endLocalidade,tlf,site,email,nomeG,função,tlfG, emailG,pwd)
    +registaOrganizacao()
}

class RegistarOrganizacaoUI {
}

RegistarOrganizacaoUI ..> RegistarOrganizacaoController
RegistarOrganizacaoController ..> Plataforma
RegistarOrganizacaoController ..> RegistoOrganizacoes
RegistarOrganizacaoController ..> Organizacao

RegistoOrganizacoes "1" - -> "*" Organizacao : tem registadas
RegistoOrganizacoes ..> Colaborador
RegistoOrganizacoes ..> EnderecoPostal
RegistoOrganizacoes ..> AutorizacaoFacade
RegistoOrganizacoes ..> AlgoritmoGeradorPasswords
Organizacao "1" - -> "1..*" Colaborador: tem
Organizacao "1" - -> "1" Colaborador: tem gestor
Organizacao "1" - -> "1" EnderecoPostal: localizada em

@enduml

PlantUML version 1.2020.03beta6(Unknown compile time)
(GPL source distribution)
Java Runtime: OpenJDK Runtime Environment
JVM: OpenJDK 64-Bit Server VM
Java Version: 11.0.5+10-b520.38
Operating System: Mac OS X
Default Encoding: UTF-8
Language: en
Country: PT
--></g></svg>