<?xml version="1.0" encoding="UTF-8" standalone="no"?><svg xmlns="http://www.w3.org/2000/svg" xmlns:xlink="http://www.w3.org/1999/xlink" contentScriptType="application/ecmascript" contentStyleType="text/css" height="552px" preserveAspectRatio="none" style="width:492px;height:552px;" version="1.1" viewBox="0 0 492 552" width="492.8px" zoomAndPan="magnify"><defs><filter height="300%" id="f8ym0e3qvyqmu" width="300%" x="-1" y="-1"><feGaussianBlur result="blurOut" stdDeviation="1.6"/><feColorMatrix in="blurOut" result="blurOut2" type="matrix" values="0 0 0 0 0 0 0 0 0 0 0 0 0 0 0 0 0 0 .4 0"/><feOffset dx="3.2" dy="3.2" in="blurOut2" result="blurOut3"/><feBlend in="SourceGraphic" in2="blurOut3" mode="normal"/></filter></defs><g><!--MD5=[02456e6632d968d6f68141e5893c6991]
class AreaAtividade--><rect fill="#FEFECE" filter="url(#f8ym0e3qvyqmu)" height="79.8563" id="AreaAtividade" style="stroke: #A80036; stroke-width: 1.2000000000000002;" width="251.2" x="4.8" y="464"/><ellipse cx="94.6" cy="476.8" fill="#ADD1B2" rx="8.8" ry="8.8" style="stroke: #A80036; stroke-width: 0.8;"/><path d="M96.5785,481.7145 Q96.1137,481.9535 95.6023,482.073 Q95.091,482.1926 94.5266,482.1926 Q92.5211,482.1926 91.4652,480.8711 Q90.4094,479.5496 90.4094,477.0527 Q90.4094,474.5492 91.4652,473.2277 Q92.5211,471.9063 94.5266,471.9063 Q95.091,471.9063 95.609,472.0258 Q96.127,472.1453 96.5785,472.3844 L96.5785,474.5625 Q96.0738,474.0977 95.599,473.8818 Q95.1242,473.666 94.6195,473.666 Q93.5438,473.666 92.9959,474.5193 Q92.448,475.3727 92.448,477.0527 Q92.448,478.7262 92.9959,479.5795 Q93.5438,480.4328 94.6195,480.4328 Q95.1242,480.4328 95.599,480.217 Q96.0738,480.0012 96.5785,479.5363 Z "/><text fill="#000000" font-family="sans-serif" font-size="9.6" lengthAdjust="spacingAndGlyphs" textLength="64.8" x="111" y="480.4281">AreaAtividade</text><line style="stroke: #A80036; stroke-width: 1.2000000000000002;" x1="5.6" x2="255.2" y1="489.6" y2="489.6"/><text fill="#000000" font-family="sans-serif" font-size="8.8" lengthAdjust="spacingAndGlyphs" textLength="62.4" x="9.6" y="501.3078">-String codigo</text><text fill="#000000" font-family="sans-serif" font-size="8.8" lengthAdjust="spacingAndGlyphs" textLength="76" x="9.6" y="511.6719">-String descBreve</text><text fill="#000000" font-family="sans-serif" font-size="8.8" lengthAdjust="spacingAndGlyphs" textLength="95.2" x="9.6" y="522.0359">-String descDetalhada</text><line style="stroke: #A80036; stroke-width: 1.2000000000000002;" x1="5.6" x2="255.2" y1="527.0922" y2="527.0922"/><text fill="#000000" font-family="sans-serif" font-size="8.8" lengthAdjust="spacingAndGlyphs" textLength="241.6" x="9.6" y="538.8">+AreaAtividade(String cod, String dsBreve, String dsDet)</text><!--MD5=[ecaed46f78f8cfe1e9ce18477649be18]
class Plataforma--><rect fill="#FEFECE" filter="url(#f8ym0e3qvyqmu)" height="59.1281" id="Plataforma" style="stroke: #A80036; stroke-width: 1.2000000000000002;" width="232.8" x="150" y="201.6"/><ellipse cx="238.2" cy="214.4" fill="#ADD1B2" rx="8.8" ry="8.8" style="stroke: #A80036; stroke-width: 0.8;"/><path d="M240.1785,219.3145 Q239.7137,219.5535 239.2023,219.673 Q238.691,219.7926 238.1266,219.7926 Q236.1211,219.7926 235.0652,218.4711 Q234.0094,217.1496 234.0094,214.6527 Q234.0094,212.1492 235.0652,210.8277 Q236.1211,209.5063 238.1266,209.5063 Q238.691,209.5063 239.209,209.6258 Q239.727,209.7453 240.1785,209.9844 L240.1785,212.1625 Q239.6738,211.6977 239.199,211.4818 Q238.7242,211.266 238.2195,211.266 Q237.1438,211.266 236.5959,212.1193 Q236.048,212.9727 236.048,214.6527 Q236.048,216.3262 236.5959,217.1795 Q237.1438,218.0328 238.2195,218.0328 Q238.7242,218.0328 239.199,217.817 Q239.6738,217.6012 240.1785,217.1363 Z "/><text fill="#000000" font-family="sans-serif" font-size="9.6" lengthAdjust="spacingAndGlyphs" textLength="49.6" x="254.6" y="218.0281">Plataforma</text><line style="stroke: #A80036; stroke-width: 1.2000000000000002;" x1="150.8" x2="382" y1="227.2" y2="227.2"/><text fill="#000000" font-family="sans-serif" font-size="8.8" lengthAdjust="spacingAndGlyphs" textLength="81.6" x="154.8" y="238.9078">-String designacao</text><line style="stroke: #A80036; stroke-width: 1.2000000000000002;" x1="150.8" x2="382" y1="243.9641" y2="243.9641"/><text fill="#000000" font-family="sans-serif" font-size="8.8" lengthAdjust="spacingAndGlyphs" textLength="223.2" x="154.8" y="255.6719">+RegistoAreasAtividade getRegistoAreasAtividade()</text><!--MD5=[13ace1d44b5c68581d5429ed2c7901cf]
class RegistoAreasAtividade--><rect fill="#FEFECE" filter="url(#f8ym0e3qvyqmu)" height="79.8563" id="RegistoAreasAtividade" style="stroke: #A80036; stroke-width: 1.2000000000000002;" width="334.4" x="149.6" y="322.4"/><ellipse cx="261.8" cy="335.2" fill="#ADD1B2" rx="8.8" ry="8.8" style="stroke: #A80036; stroke-width: 0.8;"/><path d="M263.7785,340.1145 Q263.3137,340.3535 262.8023,340.473 Q262.291,340.5926 261.7266,340.5926 Q259.7211,340.5926 258.6652,339.2711 Q257.6094,337.9496 257.6094,335.4527 Q257.6094,332.9492 258.6652,331.6277 Q259.7211,330.3063 261.7266,330.3063 Q262.291,330.3063 262.809,330.4258 Q263.327,330.5453 263.7785,330.7844 L263.7785,332.9625 Q263.2738,332.4977 262.799,332.2818 Q262.3242,332.066 261.8195,332.066 Q260.7438,332.066 260.1959,332.9193 Q259.648,333.7727 259.648,335.4527 Q259.648,337.1262 260.1959,337.9795 Q260.7438,338.8328 261.8195,338.8328 Q262.3242,338.8328 262.799,338.617 Q263.2738,338.4012 263.7785,337.9363 Z "/><text fill="#000000" font-family="sans-serif" font-size="9.6" lengthAdjust="spacingAndGlyphs" textLength="103.2" x="278.2" y="338.8281">RegistoAreasAtividade</text><line style="stroke: #A80036; stroke-width: 1.2000000000000002;" x1="150.4" x2="483.2" y1="348" y2="348"/><line style="stroke: #A80036; stroke-width: 1.2000000000000002;" x1="150.4" x2="483.2" y1="354.4" y2="354.4"/><text fill="#000000" font-family="sans-serif" font-size="8.8" lengthAdjust="spacingAndGlyphs" textLength="324.8" x="154.4" y="366.1078">+AreaAtividade novaAreaAtividade(String cod, String dsBreve, String dsDet)</text><text fill="#000000" font-family="sans-serif" font-size="8.8" lengthAdjust="spacingAndGlyphs" textLength="179.2" x="154.4" y="376.4719">+validaAreaAtividade(AreaAtividade area)</text><text fill="#000000" font-family="sans-serif" font-size="8.8" lengthAdjust="spacingAndGlyphs" textLength="184" x="154.4" y="386.8359">+registaAreaAtividade(AreaAtividade area)</text><text fill="#000000" font-family="sans-serif" font-size="8.8" lengthAdjust="spacingAndGlyphs" textLength="168" x="154.4" y="397.2">-addAreaAtividade(AreaAtividade area)</text><!--MD5=[52e4e871a42a73946b148d098b3e0767]
class DefinirAreaController--><rect fill="#FEFECE" filter="url(#f8ym0e3qvyqmu)" height="59.1281" id="DefinirAreaController" style="stroke: #A80036; stroke-width: 1.2000000000000002;" width="272" x="130.4" y="93.6"/><ellipse cx="214.6" cy="106.4" fill="#ADD1B2" rx="8.8" ry="8.8" style="stroke: #A80036; stroke-width: 0.8;"/><path d="M216.5785,111.3145 Q216.1137,111.5535 215.6023,111.673 Q215.091,111.7926 214.5266,111.7926 Q212.5211,111.7926 211.4652,110.4711 Q210.4094,109.1496 210.4094,106.6527 Q210.4094,104.1492 211.4652,102.8277 Q212.5211,101.5063 214.5266,101.5063 Q215.091,101.5063 215.609,101.6258 Q216.127,101.7453 216.5785,101.9844 L216.5785,104.1625 Q216.0738,103.6977 215.599,103.4818 Q215.1242,103.266 214.6195,103.266 Q213.5438,103.266 212.9959,104.1193 Q212.448,104.9727 212.448,106.6527 Q212.448,108.3262 212.9959,109.1795 Q213.5438,110.0328 214.6195,110.0328 Q215.1242,110.0328 215.599,109.817 Q216.0738,109.6012 216.5785,109.1363 Z "/><text fill="#000000" font-family="sans-serif" font-size="9.6" lengthAdjust="spacingAndGlyphs" textLength="96.8" x="231" y="110.0281">DefinirAreaController</text><line style="stroke: #A80036; stroke-width: 1.2000000000000002;" x1="131.2" x2="401.6" y1="119.2" y2="119.2"/><line style="stroke: #A80036; stroke-width: 1.2000000000000002;" x1="131.2" x2="401.6" y1="125.6" y2="125.6"/><text fill="#000000" font-family="sans-serif" font-size="8.8" lengthAdjust="spacingAndGlyphs" textLength="262.4" x="135.2" y="137.3078">+novaAreaAtividade(String cod, String dsBreve, String dsDet)</text><text fill="#000000" font-family="sans-serif" font-size="8.8" lengthAdjust="spacingAndGlyphs" textLength="103.2" x="135.2" y="147.6719">+registaAreaAtividade()</text><!--MD5=[a73238f1d13e652ec4ebc941dc1ac63d]
class DefinirAreaUI--><rect fill="#FEFECE" filter="url(#f8ym0e3qvyqmu)" height="38.4" id="DefinirAreaUI" style="stroke: #A80036; stroke-width: 1.2000000000000002;" width="86.4" x="223.2" y="6.4"/><ellipse cx="235.2" cy="19.2" fill="#ADD1B2" rx="8.8" ry="8.8" style="stroke: #A80036; stroke-width: 0.8;"/><path d="M237.1785,24.1145 Q236.7137,24.3535 236.2023,24.473 Q235.691,24.5926 235.1266,24.5926 Q233.1211,24.5926 232.0652,23.2711 Q231.0094,21.9496 231.0094,19.4527 Q231.0094,16.9492 232.0652,15.6277 Q233.1211,14.3063 235.1266,14.3063 Q235.691,14.3063 236.209,14.4258 Q236.727,14.5453 237.1785,14.7844 L237.1785,16.9625 Q236.6738,16.4977 236.199,16.2818 Q235.7242,16.066 235.2195,16.066 Q234.1438,16.066 233.5959,16.9193 Q233.048,17.7727 233.048,19.4527 Q233.048,21.1262 233.5959,21.9795 Q234.1438,22.8328 235.2195,22.8328 Q235.7242,22.8328 236.199,22.617 Q236.6738,22.4012 237.1785,21.9363 Z "/><text fill="#000000" font-family="sans-serif" font-size="9.6" lengthAdjust="spacingAndGlyphs" textLength="60.8" x="246.4" y="22.8281">DefinirAreaUI</text><line style="stroke: #A80036; stroke-width: 1.2000000000000002;" x1="224" x2="308.8" y1="32" y2="32"/><line style="stroke: #A80036; stroke-width: 1.2000000000000002;" x1="224" x2="308.8" y1="38.4" y2="38.4"/><!--MD5=[6b612a1e5e59cc8b145cfd6c9f06b931]
link DefinirAreaUI to DefinirAreaController--><path d="M266.4,44.912 C266.4,57.464 266.4,74.4 266.4,89.24 " fill="none" id="DefinirAreaUI-&gt;DefinirAreaController" style="stroke: #A80036; stroke-width: 0.8; stroke-dasharray: 7.0,7.0;"/><polygon fill="#A80036" points="266.4,93.368,269.6,86.168,266.4,89.368,263.2,86.168,266.4,93.368" style="stroke: #A80036; stroke-width: 0.8;"/><!--MD5=[d44f1c5ec820c81f12ff3f79e1965be9]
link DefinirAreaController to Plataforma--><path d="M266.4,153.072 C266.4,166.68 266.4,182.96 266.4,197.056 " fill="none" id="DefinirAreaController-&gt;Plataforma" style="stroke: #A80036; stroke-width: 0.8; stroke-dasharray: 7.0,7.0;"/><polygon fill="#A80036" points="266.4,201.36,269.6,194.16,266.4,197.36,263.2,194.16,266.4,201.36" style="stroke: #A80036; stroke-width: 0.8;"/><!--MD5=[a85cf8503d1f9c8c824a34920c5a5086]
link DefinirAreaController to RegistoAreasAtividade--><path d="M343.976,152.992 C364.832,164.76 384.888,180.648 396.8,201.6 C418.96,240.568 390.696,286.464 361.824,319.08 " fill="none" id="DefinirAreaController-&gt;RegistoAreasAtividade" style="stroke: #A80036; stroke-width: 0.8; stroke-dasharray: 7.0,7.0;"/><polygon fill="#A80036" points="359.032,322.192,366.2271,318.981,361.7079,319.2188,361.47,314.6996,359.032,322.192" style="stroke: #A80036; stroke-width: 0.8;"/><!--MD5=[8cc80a894aa07068b56dc5450933edc8]
link DefinirAreaController to AreaAtividade--><path d="M189.408,152.936 C168.44,164.728 148.176,180.64 136,201.6 C88.896,282.688 104.944,397.904 118.848,459.824 " fill="none" id="DefinirAreaController-&gt;AreaAtividade" style="stroke: #A80036; stroke-width: 0.8; stroke-dasharray: 7.0,7.0;"/><polygon fill="#A80036" points="119.76,463.832,121.274,456.0997,118.8681,459.9327,115.0351,457.5268,119.76,463.832" style="stroke: #A80036; stroke-width: 0.8;"/><!--MD5=[727f7e9b0d39f0a1e7c7e190346316ff]
link Plataforma to RegistoAreasAtividade--><path d="M277.712,261.088 C284.296,278.016 292.72,299.68 300.064,318.552 " fill="none" id="Plataforma-&gt;RegistoAreasAtividade" style="stroke: #A80036; stroke-width: 0.8;"/><polygon fill="#A80036" points="301.512,322.288,301.8801,314.4175,300.06,318.5608,295.9167,316.7407,301.512,322.288" style="stroke: #A80036; stroke-width: 0.8;"/><text fill="#000000" font-family="sans-serif" font-size="10.4" lengthAdjust="spacingAndGlyphs" textLength="19.2" x="292.8" y="295.6547">tem</text><text fill="#000000" font-family="sans-serif" font-size="10.4" lengthAdjust="spacingAndGlyphs" textLength="6.4" x="272.6556" y="277.1132">1</text><text fill="#000000" font-family="sans-serif" font-size="10.4" lengthAdjust="spacingAndGlyphs" textLength="6.4" x="292.5121" y="313.8858">1</text><!--MD5=[f832e5114c0a2f3b6fd1ddd795993084]
link RegistoAreasAtividade to AreaAtividade--><path d="M264.384,402.568 C239.96,420.912 210.88,442.752 186.064,461.392 " fill="none" id="RegistoAreasAtividade-&gt;AreaAtividade" style="stroke: #A80036; stroke-width: 0.8;"/><polygon fill="#A80036" points="182.752,463.88,190.432,462.12,185.952,461.48,186.592,457,182.752,463.88" style="stroke: #A80036; stroke-width: 0.8;"/><text fill="#000000" font-family="sans-serif" font-size="10.4" lengthAdjust="spacingAndGlyphs" textLength="33.6" x="230.4" y="437.2547">possui</text><text fill="#000000" font-family="sans-serif" font-size="10.4" lengthAdjust="spacingAndGlyphs" textLength="6.4" x="250.5106" y="418.8529">1</text><text fill="#000000" font-family="sans-serif" font-size="10.4" lengthAdjust="spacingAndGlyphs" textLength="4.8" x="184.9765" y="455.4766">*</text><!--MD5=[dc6bd6308688c9d9f78d6c2ec716a449]
@startuml
skinparam classAttributeIconSize 0
class AreaAtividade {
  -String codigo
  -String descBreve
  -String descDetalhada
  +AreaAtividade(String cod, String dsBreve, String dsDet)
}

class Plataforma {
  -String designacao
  
  +RegistoAreasAtividade getRegistoAreasAtividade()
}

class RegistoAreasAtividade {
  +AreaAtividade novaAreaAtividade(String cod, String dsBreve, String dsDet)
  +validaAreaAtividade(AreaAtividade area)
  +registaAreaAtividade(AreaAtividade area)
  -addAreaAtividade(AreaAtividade area)
}

class DefinirAreaController {
  +novaAreaAtividade(String cod, String dsBreve, String dsDet)
  +registaAreaAtividade()
}

class DefinirAreaUI {
  
}

DefinirAreaUI ..> DefinirAreaController
DefinirAreaController ..> Plataforma
DefinirAreaController ..> RegistoAreasAtividade
DefinirAreaController ..> AreaAtividade

Plataforma "1" - -> "1" RegistoAreasAtividade : tem
RegistoAreasAtividade "1" - -> "*" AreaAtividade : possui


@enduml

PlantUML version 1.2020.03beta6(Unknown compile time)
(GPL source distribution)
Java Runtime: OpenJDK Runtime Environment
JVM: OpenJDK 64-Bit Server VM
Java Version: 11.0.5+10-b520.38
Operating System: Mac OS X
Default Encoding: UTF-8
Language: en
Country: PT
--></g></svg>