<?xml version="1.0" encoding="UTF-8" standalone="no"?><svg xmlns="http://www.w3.org/2000/svg" xmlns:xlink="http://www.w3.org/1999/xlink" contentScriptType="application/ecmascript" contentStyleType="text/css" height="97px" preserveAspectRatio="none" style="width:379px;height:97px;" version="1.1" viewBox="0 0 379 97" width="379px" zoomAndPan="magnify"><defs><filter height="300%" id="fo2117ja05oum" width="300%" x="-1" y="-1"><feGaussianBlur result="blurOut" stdDeviation="2.0"/><feColorMatrix in="blurOut" result="blurOut2" type="matrix" values="0 0 0 0 0 0 0 0 0 0 0 0 0 0 0 0 0 0 .4 0"/><feOffset dx="4.0" dy="4.0" in="blurOut2" result="blurOut3"/><feBlend in="SourceGraphic" in2="blurOut3" mode="normal"/></filter></defs><g><!--MD5=[02456e6632d968d6f68141e5893c6991]
class AreaAtividade--><rect fill="#FEFECE" filter="url(#fo2117ja05oum)" height="78.8652" id="AreaAtividade" style="stroke: #A80036; stroke-width: 1.5;" width="131" x="237" y="8"/><ellipse cx="260.1" cy="24" fill="#ADD1B2" rx="11" ry="11" style="stroke: #A80036; stroke-width: 1.0;"/><path d="M262.5731,30.1431 Q261.9921,30.4419 261.3529,30.5913 Q260.7138,30.7407 260.0082,30.7407 Q257.5014,30.7407 256.1815,29.0889 Q254.8617,27.437 254.8617,24.3159 Q254.8617,21.1865 256.1815,19.5347 Q257.5014,17.8828 260.0082,17.8828 Q260.7138,17.8828 261.3612,18.0322 Q262.0087,18.1816 262.5731,18.4805 L262.5731,21.2031 Q261.9423,20.6221 261.3488,20.3523 Q260.7553,20.0825 260.1244,20.0825 Q258.7797,20.0825 258.0949,21.1492 Q257.4101,22.2158 257.4101,24.3159 Q257.4101,26.4077 258.0949,27.4744 Q258.7797,28.541 260.1244,28.541 Q260.7553,28.541 261.3488,28.2712 Q261.9423,28.0015 262.5731,27.4204 Z "/><text fill="#000000" font-family="sans-serif" font-size="12" lengthAdjust="spacingAndGlyphs" textLength="81" x="275.9" y="28.5352">AreaAtividade</text><line style="stroke: #A80036; stroke-width: 1.5;" x1="238" x2="367" y1="40" y2="40"/><text fill="#000000" font-family="sans-serif" font-size="11" lengthAdjust="spacingAndGlyphs" textLength="78" x="243" y="54.6348">-String codigo</text><text fill="#000000" font-family="sans-serif" font-size="11" lengthAdjust="spacingAndGlyphs" textLength="95" x="243" y="67.5898">-String descBreve</text><text fill="#000000" font-family="sans-serif" font-size="11" lengthAdjust="spacingAndGlyphs" textLength="119" x="243" y="80.5449">-String descDetalhada</text><!--MD5=[ecaed46f78f8cfe1e9ce18477649be18]
class Plataforma--><rect fill="#FEFECE" filter="url(#fo2117ja05oum)" height="52.9551" id="Plataforma" style="stroke: #A80036; stroke-width: 1.5;" width="114" x="6" y="21"/><ellipse cx="30" cy="37" fill="#ADD1B2" rx="11" ry="11" style="stroke: #A80036; stroke-width: 1.0;"/><path d="M32.4731,43.1431 Q31.8921,43.4419 31.2529,43.5913 Q30.6138,43.7407 29.9082,43.7407 Q27.4014,43.7407 26.0815,42.0889 Q24.7617,40.437 24.7617,37.3159 Q24.7617,34.1865 26.0815,32.5347 Q27.4014,30.8828 29.9082,30.8828 Q30.6138,30.8828 31.2612,31.0322 Q31.9087,31.1816 32.4731,31.4805 L32.4731,34.2031 Q31.8423,33.6221 31.2488,33.3523 Q30.6553,33.0825 30.0244,33.0825 Q28.6797,33.0825 27.9949,34.1492 Q27.3101,35.2158 27.3101,37.3159 Q27.3101,39.4077 27.9949,40.4744 Q28.6797,41.541 30.0244,41.541 Q30.6553,41.541 31.2488,41.2712 Q31.8423,41.0015 32.4731,40.4204 Z "/><text fill="#000000" font-family="sans-serif" font-size="12" lengthAdjust="spacingAndGlyphs" textLength="62" x="46" y="41.5352">Plataforma</text><line style="stroke: #A80036; stroke-width: 1.5;" x1="7" x2="119" y1="53" y2="53"/><text fill="#000000" font-family="sans-serif" font-size="11" lengthAdjust="spacingAndGlyphs" textLength="102" x="12" y="67.6348">-String designacao</text><!--MD5=[718b46c9a1975c175f4073d63ce5ccba]
link Plataforma to AreaAtividade--><path d="M120.28,47.5 C155.26,47.5 200.35,47.5 236.8,47.5 " fill="none" id="Plataforma-AreaAtividade" style="stroke: #A80036; stroke-width: 1.0;"/><text fill="#000000" font-family="sans-serif" font-size="13" lengthAdjust="spacingAndGlyphs" textLength="42" x="151" y="44.0684">possui</text><polygon fill="#000000" points="196,37.6553,202,40.6553,196,43.6553,196,37.6553" style="stroke: #000000; stroke-width: 1.0;"/><text fill="#000000" font-family="sans-serif" font-size="13" lengthAdjust="spacingAndGlyphs" textLength="8" x="128.1315" y="61.0521">1</text><text fill="#000000" font-family="sans-serif" font-size="13" lengthAdjust="spacingAndGlyphs" textLength="6" x="222.8566" y="60.9613">*</text><!--MD5=[a11e50f4dc2ef63d6d2b46b2e0f9b917]
@startuml
skinparam classAttributeIconSize 0
hide methods
left to right direction

class AreaAtividade {
  -String codigo
  -String descBreve
  -String descDetalhada
 
}

class Plataforma {
  -String designacao
}

Plataforma "1" - - "*" AreaAtividade : possui >
@enduml

PlantUML version 1.2020.03beta6(Unknown compile time)
(GPL source distribution)
Java Runtime: OpenJDK Runtime Environment
JVM: OpenJDK 64-Bit Server VM
Java Version: 11.0.5+10-b520.38
Operating System: Mac OS X
Default Encoding: UTF-8
Language: en
Country: PT
--></g></svg>