<?xml version="1.0" encoding="UTF-8" standalone="no"?><svg xmlns="http://www.w3.org/2000/svg" xmlns:xlink="http://www.w3.org/1999/xlink" contentScriptType="application/ecmascript" contentStyleType="text/css" height="593.6px" preserveAspectRatio="none" style="width:789px;height:593px;" version="1.1" viewBox="0 0 789 593" width="789.6px" zoomAndPan="magnify"><defs><filter height="300%" id="frze7cj5apfwg" width="300%" x="-1" y="-1"><feGaussianBlur result="blurOut" stdDeviation="1.6"/><feColorMatrix in="blurOut" result="blurOut2" type="matrix" values="0 0 0 0 0 0 0 0 0 0 0 0 0 0 0 0 0 0 .4 0"/><feOffset dx="3.2" dy="3.2" in="blurOut2" result="blurOut3"/><feBlend in="SourceGraphic" in2="blurOut3" mode="normal"/></filter></defs><g><!--MD5=[a322db5a7ec64d2ff8f2d6cf1831dcec]
class CompetenciaTecnica--><rect fill="#FEFECE" filter="url(#frze7cj5apfwg)" height="90.2203" id="CompetenciaTecnica" style="stroke: #A80036; stroke-width: 1.2000000000000002;" width="355.2" x="4.8" y="495.2"/><ellipse cx="131.4" cy="508" fill="#ADD1B2" rx="8.8" ry="8.8" style="stroke: #A80036; stroke-width: 0.8;"/><path d="M133.3785,512.9145 Q132.9137,513.1535 132.4023,513.273 Q131.891,513.3926 131.3266,513.3926 Q129.3211,513.3926 128.2652,512.0711 Q127.2094,510.7496 127.2094,508.2527 Q127.2094,505.7492 128.2652,504.4277 Q129.3211,503.1063 131.3266,503.1063 Q131.891,503.1063 132.409,503.2258 Q132.927,503.3453 133.3785,503.5844 L133.3785,505.7625 Q132.8738,505.2977 132.399,505.0818 Q131.9242,504.866 131.4195,504.866 Q130.3438,504.866 129.7959,505.7193 Q129.248,506.5727 129.248,508.2527 Q129.248,509.9262 129.7959,510.7795 Q130.3438,511.6328 131.4195,511.6328 Q131.9242,511.6328 132.399,511.417 Q132.8738,511.2012 133.3785,510.7363 Z "/><text fill="#000000" font-family="sans-serif" font-size="9.6" lengthAdjust="spacingAndGlyphs" textLength="95.2" x="147.8" y="511.6281">CompetenciaTecnica</text><line style="stroke: #A80036; stroke-width: 1.2000000000000002;" x1="5.6" x2="359.2" y1="520.8" y2="520.8"/><text fill="#000000" font-family="sans-serif" font-size="8.8" lengthAdjust="spacingAndGlyphs" textLength="62.4" x="9.6" y="532.5078">-String codigo</text><text fill="#000000" font-family="sans-serif" font-size="8.8" lengthAdjust="spacingAndGlyphs" textLength="76" x="9.6" y="542.8719">-String descBreve</text><text fill="#000000" font-family="sans-serif" font-size="8.8" lengthAdjust="spacingAndGlyphs" textLength="95.2" x="9.6" y="553.2359">-String descDetalhada</text><line style="stroke: #A80036; stroke-width: 1.2000000000000002;" x1="5.6" x2="359.2" y1="558.2922" y2="558.2922"/><text fill="#000000" font-family="sans-serif" font-size="8.8" lengthAdjust="spacingAndGlyphs" textLength="345.6" x="9.6" y="570">+CompetenciaTecnica(String cod, String dsBreve, String dsDet, AreaAtividade at)</text><text fill="#000000" font-family="sans-serif" font-size="8.8" lengthAdjust="spacingAndGlyphs" textLength="256.8" x="9.6" y="580.3641">+void addGrauProficiencia(Integer valor, String designacao)</text><!--MD5=[0d4fe674cc1d46ec0fc990086e50801a]
class GrauProficiencia--><rect fill="#FEFECE" filter="url(#frze7cj5apfwg)" height="69.4922" id="GrauProficiencia" style="stroke: #A80036; stroke-width: 1.2000000000000002;" width="229.6" x="418.8" y="505.6"/><ellipse cx="493" cy="518.4" fill="#ADD1B2" rx="8.8" ry="8.8" style="stroke: #A80036; stroke-width: 0.8;"/><path d="M494.9785,523.3145 Q494.5137,523.5535 494.0023,523.673 Q493.491,523.7926 492.9266,523.7926 Q490.9211,523.7926 489.8652,522.4711 Q488.8094,521.1496 488.8094,518.6527 Q488.8094,516.1492 489.8652,514.8277 Q490.9211,513.5063 492.9266,513.5063 Q493.491,513.5063 494.009,513.6258 Q494.527,513.7453 494.9785,513.9844 L494.9785,516.1625 Q494.4738,515.6977 493.999,515.4818 Q493.5242,515.266 493.0195,515.266 Q491.9438,515.266 491.3959,516.1193 Q490.848,516.9727 490.848,518.6527 Q490.848,520.3262 491.3959,521.1795 Q491.9438,522.0328 493.0195,522.0328 Q493.5242,522.0328 493.999,521.817 Q494.4738,521.6012 494.9785,521.1363 Z "/><text fill="#000000" font-family="sans-serif" font-size="9.6" lengthAdjust="spacingAndGlyphs" textLength="74.4" x="509.4" y="522.0281">GrauProficiencia</text><line style="stroke: #A80036; stroke-width: 1.2000000000000002;" x1="419.6" x2="647.6" y1="531.2" y2="531.2"/><text fill="#000000" font-family="sans-serif" font-size="8.8" lengthAdjust="spacingAndGlyphs" textLength="59.2" x="423.6" y="542.9078">-Integer valor</text><text fill="#000000" font-family="sans-serif" font-size="8.8" lengthAdjust="spacingAndGlyphs" textLength="81.6" x="423.6" y="553.2719">-String designacao</text><line style="stroke: #A80036; stroke-width: 1.2000000000000002;" x1="419.6" x2="647.6" y1="558.3281" y2="558.3281"/><text fill="#000000" font-family="sans-serif" font-size="8.8" lengthAdjust="spacingAndGlyphs" textLength="220" x="423.6" y="570.0359">+GrauProficiencia(Integer valor, String designacao)</text><!--MD5=[02456e6632d968d6f68141e5893c6991]
class AreaAtividade--><rect fill="#FEFECE" filter="url(#frze7cj5apfwg)" height="69.4922" id="AreaAtividade" style="stroke: #A80036; stroke-width: 1.2000000000000002;" width="104.8" x="676.4" y="505.6"/><ellipse cx="694.88" cy="518.4" fill="#ADD1B2" rx="8.8" ry="8.8" style="stroke: #A80036; stroke-width: 0.8;"/><path d="M696.8585,523.3145 Q696.3937,523.5535 695.8823,523.673 Q695.371,523.7926 694.8066,523.7926 Q692.8011,523.7926 691.7452,522.4711 Q690.6894,521.1496 690.6894,518.6527 Q690.6894,516.1492 691.7452,514.8277 Q692.8011,513.5063 694.8066,513.5063 Q695.371,513.5063 695.889,513.6258 Q696.407,513.7453 696.8585,513.9844 L696.8585,516.1625 Q696.3538,515.6977 695.879,515.4818 Q695.4042,515.266 694.8995,515.266 Q693.8238,515.266 693.2759,516.1193 Q692.728,516.9727 692.728,518.6527 Q692.728,520.3262 693.2759,521.1795 Q693.8238,522.0328 694.8995,522.0328 Q695.4042,522.0328 695.879,521.817 Q696.3538,521.6012 696.8585,521.1363 Z "/><text fill="#000000" font-family="sans-serif" font-size="9.6" lengthAdjust="spacingAndGlyphs" textLength="64.8" x="707.52" y="522.0281">AreaAtividade</text><line style="stroke: #A80036; stroke-width: 1.2000000000000002;" x1="677.2" x2="780.4" y1="531.2" y2="531.2"/><text fill="#000000" font-family="sans-serif" font-size="8.8" lengthAdjust="spacingAndGlyphs" textLength="62.4" x="681.2" y="542.9078">-String codigo</text><text fill="#000000" font-family="sans-serif" font-size="8.8" lengthAdjust="spacingAndGlyphs" textLength="76" x="681.2" y="553.2719">-String descBreve</text><text fill="#000000" font-family="sans-serif" font-size="8.8" lengthAdjust="spacingAndGlyphs" textLength="95.2" x="681.2" y="563.6359">-String descDetalhada</text><line style="stroke: #A80036; stroke-width: 1.2000000000000002;" x1="677.2" x2="780.4" y1="568.6922" y2="568.6922"/><!--MD5=[ecaed46f78f8cfe1e9ce18477649be18]
class Plataforma--><rect fill="#FEFECE" filter="url(#frze7cj5apfwg)" height="69.4922" id="Plataforma" style="stroke: #A80036; stroke-width: 1.2000000000000002;" width="232.8" x="330" y="222.4"/><ellipse cx="418.2" cy="235.2" fill="#ADD1B2" rx="8.8" ry="8.8" style="stroke: #A80036; stroke-width: 0.8;"/><path d="M420.1785,240.1145 Q419.7137,240.3535 419.2023,240.473 Q418.691,240.5926 418.1266,240.5926 Q416.1211,240.5926 415.0652,239.2711 Q414.0094,237.9496 414.0094,235.4527 Q414.0094,232.9492 415.0652,231.6277 Q416.1211,230.3063 418.1266,230.3063 Q418.691,230.3063 419.209,230.4258 Q419.727,230.5453 420.1785,230.7844 L420.1785,232.9625 Q419.6738,232.4977 419.199,232.2818 Q418.7242,232.066 418.2195,232.066 Q417.1438,232.066 416.5959,232.9193 Q416.048,233.7727 416.048,235.4527 Q416.048,237.1262 416.5959,237.9795 Q417.1438,238.8328 418.2195,238.8328 Q418.7242,238.8328 419.199,238.617 Q419.6738,238.4012 420.1785,237.9363 Z "/><text fill="#000000" font-family="sans-serif" font-size="9.6" lengthAdjust="spacingAndGlyphs" textLength="49.6" x="434.6" y="238.8281">Plataforma</text><line style="stroke: #A80036; stroke-width: 1.2000000000000002;" x1="330.8" x2="562" y1="248" y2="248"/><text fill="#000000" font-family="sans-serif" font-size="8.8" lengthAdjust="spacingAndGlyphs" textLength="81.6" x="334.8" y="259.7078">-String designacao</text><line style="stroke: #A80036; stroke-width: 1.2000000000000002;" x1="330.8" x2="562" y1="264.7641" y2="264.7641"/><text fill="#000000" font-family="sans-serif" font-size="8.8" lengthAdjust="spacingAndGlyphs" textLength="223.2" x="334.8" y="276.4719">+RegistoAreasAtividade getRegistoAreasAtividade()</text><text fill="#000000" font-family="sans-serif" font-size="8.8" lengthAdjust="spacingAndGlyphs" textLength="117.6" x="334.8" y="286.8359">+RegistoCT getRegistoCT()</text><!--MD5=[13ace1d44b5c68581d5429ed2c7901cf]
class RegistoAreasAtividade--><rect fill="#FEFECE" filter="url(#frze7cj5apfwg)" height="59.1281" id="RegistoAreasAtividade" style="stroke: #A80036; stroke-width: 1.2000000000000002;" width="240" x="500" y="364"/><ellipse cx="565" cy="376.8" fill="#ADD1B2" rx="8.8" ry="8.8" style="stroke: #A80036; stroke-width: 0.8;"/><path d="M566.9785,381.7145 Q566.5137,381.9535 566.0023,382.073 Q565.491,382.1926 564.9266,382.1926 Q562.9211,382.1926 561.8652,380.8711 Q560.8094,379.5496 560.8094,377.0527 Q560.8094,374.5492 561.8652,373.2277 Q562.9211,371.9063 564.9266,371.9063 Q565.491,371.9063 566.009,372.0258 Q566.527,372.1453 566.9785,372.3844 L566.9785,374.5625 Q566.4738,374.0977 565.999,373.8818 Q565.5242,373.666 565.0195,373.666 Q563.9438,373.666 563.3959,374.5193 Q562.848,375.3727 562.848,377.0527 Q562.848,378.7262 563.3959,379.5795 Q563.9438,380.4328 565.0195,380.4328 Q565.5242,380.4328 565.999,380.217 Q566.4738,380.0012 566.9785,379.5363 Z "/><text fill="#000000" font-family="sans-serif" font-size="9.6" lengthAdjust="spacingAndGlyphs" textLength="103.2" x="581.4" y="380.4281">RegistoAreasAtividade</text><line style="stroke: #A80036; stroke-width: 1.2000000000000002;" x1="500.8" x2="739.2" y1="389.6" y2="389.6"/><line style="stroke: #A80036; stroke-width: 1.2000000000000002;" x1="500.8" x2="739.2" y1="396" y2="396"/><text fill="#000000" font-family="sans-serif" font-size="8.8" lengthAdjust="spacingAndGlyphs" textLength="184" x="504.8" y="407.7078">+List&lt;AreaAtividade&gt; getAreasAtividade()</text><text fill="#000000" font-family="sans-serif" font-size="8.8" lengthAdjust="spacingAndGlyphs" textLength="230.4" x="504.8" y="418.0719">+AreaAtividade getAreaAtividadeByCod(String atCod)</text><!--MD5=[a3d2cd28087633b4d29ef730f7304c83]
class RegistoCT--><rect fill="#FEFECE" filter="url(#frze7cj5apfwg)" height="79.8563" id="RegistoCT" style="stroke: #A80036; stroke-width: 1.2000000000000002;" width="417.6" x="54.4" y="353.6"/><ellipse cx="236.6" cy="366.4" fill="#ADD1B2" rx="8.8" ry="8.8" style="stroke: #A80036; stroke-width: 0.8;"/><path d="M238.5785,371.3145 Q238.1137,371.5535 237.6023,371.673 Q237.091,371.7926 236.5266,371.7926 Q234.5211,371.7926 233.4652,370.4711 Q232.4094,369.1496 232.4094,366.6527 Q232.4094,364.1492 233.4652,362.8277 Q234.5211,361.5063 236.5266,361.5063 Q237.091,361.5063 237.609,361.6258 Q238.127,361.7453 238.5785,361.9844 L238.5785,364.1625 Q238.0738,363.6977 237.599,363.4818 Q237.1242,363.266 236.6195,363.266 Q235.5438,363.266 234.9959,364.1193 Q234.448,364.9727 234.448,366.6527 Q234.448,368.3262 234.9959,369.1795 Q235.5438,370.0328 236.6195,370.0328 Q237.1242,370.0328 237.599,369.817 Q238.0738,369.6012 238.5785,369.1363 Z "/><text fill="#000000" font-family="sans-serif" font-size="9.6" lengthAdjust="spacingAndGlyphs" textLength="46.4" x="253" y="370.0281">RegistoCT</text><line style="stroke: #A80036; stroke-width: 1.2000000000000002;" x1="55.2" x2="471.2" y1="379.2" y2="379.2"/><line style="stroke: #A80036; stroke-width: 1.2000000000000002;" x1="55.2" x2="471.2" y1="385.6" y2="385.6"/><text fill="#000000" font-family="sans-serif" font-size="8.8" lengthAdjust="spacingAndGlyphs" textLength="408" x="59.2" y="397.3078">+CompetenciaTecnica novaCompetencia(String cod, String dsBreve, String dsDet, String atCod)</text><text fill="#000000" font-family="sans-serif" font-size="8.8" lengthAdjust="spacingAndGlyphs" textLength="219.2" x="59.2" y="407.6719">+void registaCompetencia(CompetenciaTecnica ct)</text><text fill="#000000" font-family="sans-serif" font-size="8.8" lengthAdjust="spacingAndGlyphs" textLength="212" x="59.2" y="418.0359">-void validaCompetencia(CompetenciaTecnica ct)</text><text fill="#000000" font-family="sans-serif" font-size="8.8" lengthAdjust="spacingAndGlyphs" textLength="203.2" x="59.2" y="428.4">-void addCompetencia(CompetenciaTecnica ct)</text><!--MD5=[0d5f2a91845a226f1d20639596950880]
class EspecificarCompetenciaTecnicaController--><rect fill="#FEFECE" filter="url(#frze7cj5apfwg)" height="79.8563" id="EspecificarCompetenciaTecnicaController" style="stroke: #A80036; stroke-width: 1.2000000000000002;" width="347.2" x="272.8" y="93.6"/><ellipse cx="348.2" cy="106.4" fill="#ADD1B2" rx="8.8" ry="8.8" style="stroke: #A80036; stroke-width: 0.8;"/><path d="M350.1785,111.3145 Q349.7137,111.5535 349.2023,111.673 Q348.691,111.7926 348.1266,111.7926 Q346.1211,111.7926 345.0652,110.4711 Q344.0094,109.1496 344.0094,106.6527 Q344.0094,104.1492 345.0652,102.8277 Q346.1211,101.5063 348.1266,101.5063 Q348.691,101.5063 349.209,101.6258 Q349.727,101.7453 350.1785,101.9844 L350.1785,104.1625 Q349.6738,103.6977 349.199,103.4818 Q348.7242,103.266 348.2195,103.266 Q347.1438,103.266 346.5959,104.1193 Q346.048,104.9727 346.048,106.6527 Q346.048,108.3262 346.5959,109.1795 Q347.1438,110.0328 348.2195,110.0328 Q348.7242,110.0328 349.199,109.817 Q349.6738,109.6012 350.1785,109.1363 Z "/><text fill="#000000" font-family="sans-serif" font-size="9.6" lengthAdjust="spacingAndGlyphs" textLength="189.6" x="364.6" y="110.0281">EspecificarCompetenciaTecnicaController</text><line style="stroke: #A80036; stroke-width: 1.2000000000000002;" x1="273.6" x2="619.2" y1="119.2" y2="119.2"/><line style="stroke: #A80036; stroke-width: 1.2000000000000002;" x1="273.6" x2="619.2" y1="125.6" y2="125.6"/><text fill="#000000" font-family="sans-serif" font-size="8.8" lengthAdjust="spacingAndGlyphs" textLength="184" x="277.6" y="137.3078">+List&lt;AreaAtividade&gt; getAreasAtividade()</text><text fill="#000000" font-family="sans-serif" font-size="8.8" lengthAdjust="spacingAndGlyphs" textLength="337.6" x="277.6" y="147.6719">+void novaCompetencia(String cod, String dsBreve, String dsDet, String atCod)</text><text fill="#000000" font-family="sans-serif" font-size="8.8" lengthAdjust="spacingAndGlyphs" textLength="256.8" x="277.6" y="158.0359">+void addGrauProficiencia(Integer valor, String designacao)</text><text fill="#000000" font-family="sans-serif" font-size="8.8" lengthAdjust="spacingAndGlyphs" textLength="120" x="277.6" y="168.4">+void registaCompetencia()</text><!--MD5=[cca5c0c62c63b169373ee46a261b760e]
class EspecificarCompetenciaTecnicaUI--><rect fill="#FEFECE" filter="url(#frze7cj5apfwg)" height="38.4" id="EspecificarCompetenciaTecnicaUI" style="stroke: #A80036; stroke-width: 1.2000000000000002;" width="179.2" x="356.8" y="6.4"/><ellipse cx="368.8" cy="19.2" fill="#ADD1B2" rx="8.8" ry="8.8" style="stroke: #A80036; stroke-width: 0.8;"/><path d="M370.7785,24.1145 Q370.3137,24.3535 369.8023,24.473 Q369.291,24.5926 368.7266,24.5926 Q366.7211,24.5926 365.6652,23.2711 Q364.6094,21.9496 364.6094,19.4527 Q364.6094,16.9492 365.6652,15.6277 Q366.7211,14.3063 368.7266,14.3063 Q369.291,14.3063 369.809,14.4258 Q370.327,14.5453 370.7785,14.7844 L370.7785,16.9625 Q370.2738,16.4977 369.799,16.2818 Q369.3242,16.066 368.8195,16.066 Q367.7438,16.066 367.1959,16.9193 Q366.648,17.7727 366.648,19.4527 Q366.648,21.1262 367.1959,21.9795 Q367.7438,22.8328 368.8195,22.8328 Q369.3242,22.8328 369.799,22.617 Q370.2738,22.4012 370.7785,21.9363 Z "/><text fill="#000000" font-family="sans-serif" font-size="9.6" lengthAdjust="spacingAndGlyphs" textLength="153.6" x="380" y="22.8281">EspecificarCompetenciaTecnicaUI</text><line style="stroke: #A80036; stroke-width: 1.2000000000000002;" x1="357.6" x2="535.2" y1="32" y2="32"/><line style="stroke: #A80036; stroke-width: 1.2000000000000002;" x1="357.6" x2="535.2" y1="38.4" y2="38.4"/><!--MD5=[ec1590f5037d4575896a6eee2fffbf21]
link EspecificarCompetenciaTecnicaUI to EspecificarCompetenciaTecnicaController--><path d="M446.4,44.936 C446.4,57.176 446.4,73.76 446.4,89.224 " fill="none" id="EspecificarCompetenciaTecnicaUI-&gt;EspecificarCompetenciaTecnicaController" style="stroke: #A80036; stroke-width: 0.8; stroke-dasharray: 7.0,7.0;"/><polygon fill="#A80036" points="446.4,93.552,449.6,86.352,446.4,89.552,443.2,86.352,446.4,93.552" style="stroke: #A80036; stroke-width: 0.8;"/><!--MD5=[fc91edec5b88a5673f73ea82f88e9dd8]
link EspecificarCompetenciaTecnicaController to Plataforma--><path d="M446.4,173.672 C446.4,187.88 446.4,203.888 446.4,218.016 " fill="none" id="EspecificarCompetenciaTecnicaController-&gt;Plataforma" style="stroke: #A80036; stroke-width: 0.8; stroke-dasharray: 7.0,7.0;"/><polygon fill="#A80036" points="446.4,222.336,449.6,215.136,446.4,218.336,443.2,215.136,446.4,222.336" style="stroke: #A80036; stroke-width: 0.8;"/><!--MD5=[932bbdd228c5ddbd9e7adab16665b123]
link EspecificarCompetenciaTecnicaController to RegistoAreasAtividade--><path d="M524.328,173.632 C543.92,186.76 563.216,203.072 576.8,222.4 C605.952,263.872 615.464,323.264 618.544,359.856 " fill="none" id="EspecificarCompetenciaTecnicaController-&gt;RegistoAreasAtividade" style="stroke: #A80036; stroke-width: 0.8; stroke-dasharray: 7.0,7.0;"/><polygon fill="#A80036" points="618.872,363.984,621.486,356.5511,618.5521,359.9968,615.1064,357.063,618.872,363.984" style="stroke: #A80036; stroke-width: 0.8;"/><!--MD5=[0ea6cb159a8397673281d3785bbec0b3]
link EspecificarCompetenciaTecnicaController to RegistoCT--><path d="M369.808,173.648 C349.992,186.864 330.248,203.216 316,222.4 C288.024,260.064 274.672,312.816 268.432,349.616 " fill="none" id="EspecificarCompetenciaTecnicaController-&gt;RegistoCT" style="stroke: #A80036; stroke-width: 0.8; stroke-dasharray: 7.0,7.0;"/><polygon fill="#A80036" points="267.776,353.576,272.1069,346.9939,268.428,349.6295,265.7925,345.9507,267.776,353.576" style="stroke: #A80036; stroke-width: 0.8;"/><!--MD5=[8bfcfcfc4e9f14c2e08d5fccd7a4f6a1]
link EspecificarCompetenciaTecnicaController to AreaAtividade--><path d="M549.504,173.672 C623.424,208.304 716.392,266.896 754.4,353.6 C775.464,401.656 759.92,462.816 745.472,501.608 " fill="none" id="EspecificarCompetenciaTecnicaController-&gt;AreaAtividade" style="stroke: #A80036; stroke-width: 0.8; stroke-dasharray: 7.0,7.0;"/><polygon fill="#A80036" points="743.992,505.52,749.537,499.9224,745.4103,501.7799,743.5528,497.6532,743.992,505.52" style="stroke: #A80036; stroke-width: 0.8;"/><!--MD5=[21d74c9f8b811b3fdf1d939be954ed01]
link EspecificarCompetenciaTecnicaController to CompetenciaTecnica--><path d="M293.608,173.6 C202.512,205.744 94.328,261.392 40,353.6 C21.952,384.232 24.04,401.824 40,433.6 C51.816,457.128 71.608,476.76 92.728,492.472 " fill="none" id="EspecificarCompetenciaTecnicaController-&gt;CompetenciaTecnica" style="stroke: #A80036; stroke-width: 0.8; stroke-dasharray: 7.0,7.0;"/><polygon fill="#A80036" points="96.128,494.96,92.2059,488.1265,92.8995,492.5985,88.4275,493.2921,96.128,494.96" style="stroke: #A80036; stroke-width: 0.8;"/><!--MD5=[e538c9efa8de58386edc6206f3c58807]
link CompetenciaTecnica to AreaAtividade--><path d="M313.864,495.184 C390.784,474.16 489.896,456.416 578.4,469.6 C617,475.352 627.2,478.336 662.4,495.2 C667.512,497.648 672.672,500.456 677.736,503.448 " fill="none" id="CompetenciaTecnica-&gt;AreaAtividade" style="stroke: #A80036; stroke-width: 0.8;"/><polygon fill="#A80036" points="681.224,505.552,676.7122,499.0926,677.7991,503.4856,673.406,504.5725,681.224,505.552" style="stroke: #A80036; stroke-width: 0.8;"/><text fill="#000000" font-family="sans-serif" font-size="10.4" lengthAdjust="spacingAndGlyphs" textLength="44.8" x="532.8" y="468.4547">referente</text><text fill="#000000" font-family="sans-serif" font-size="10.4" lengthAdjust="spacingAndGlyphs" textLength="4.8" x="325.6003" y="486.7041">*</text><text fill="#000000" font-family="sans-serif" font-size="10.4" lengthAdjust="spacingAndGlyphs" textLength="6.4" x="666.7316" y="497.1249">1</text><!--MD5=[0d731ff285a62a08178b23be6cceb109]
link CompetenciaTecnica to GrauProficiencia--><path d="M360.056,540.4 C378.488,540.4 396.888,540.4 414.44,540.4 " fill="none" id="CompetenciaTecnica-&gt;GrauProficiencia" style="stroke: #A80036; stroke-width: 0.8;"/><polygon fill="#A80036" points="418.648,540.4,411.448,537.2,414.648,540.4,411.448,543.6,418.648,540.4" style="stroke: #A80036; stroke-width: 0.8;"/><text fill="#000000" font-family="sans-serif" font-size="10.4" lengthAdjust="spacingAndGlyphs" textLength="29.6" x="374.6" y="535.2547">aplica</text><text fill="#000000" font-family="sans-serif" font-size="10.4" lengthAdjust="spacingAndGlyphs" textLength="6.4" x="366.5555" y="538.2468">1</text><text fill="#000000" font-family="sans-serif" font-size="10.4" lengthAdjust="spacingAndGlyphs" textLength="4.8" x="407.4303" y="538.1363">*</text><!--MD5=[727f7e9b0d39f0a1e7c7e190346316ff]
link Plataforma to RegistoAreasAtividade--><path d="M490.208,292.016 C517.616,313.304 552.68,340.528 579.456,361.32 " fill="none" id="Plataforma-&gt;RegistoAreasAtividade" style="stroke: #A80036; stroke-width: 0.8;"/><polygon fill="#A80036" points="582.68,363.816,578.9508,356.8753,579.5189,361.365,575.0292,361.9331,582.68,363.816" style="stroke: #A80036; stroke-width: 0.8;"/><text fill="#000000" font-family="sans-serif" font-size="10.4" lengthAdjust="spacingAndGlyphs" textLength="33.6" x="539.2" y="326.8547">possui</text><text fill="#000000" font-family="sans-serif" font-size="10.4" lengthAdjust="spacingAndGlyphs" textLength="6.4" x="490.0261" y="308.3479">1</text><text fill="#000000" font-family="sans-serif" font-size="10.4" lengthAdjust="spacingAndGlyphs" textLength="6.4" x="568.8091" y="355.3025">1</text><!--MD5=[4f06741411320007e7f35449f94268cd]
link Plataforma to RegistoCT--><path d="M400.168,292.016 C375.824,309.928 345.76,332.056 320,351.008 " fill="none" id="Plataforma-&gt;RegistoCT" style="stroke: #A80036; stroke-width: 0.8;"/><polygon fill="#A80036" points="316.56,353.536,324.2577,351.8551,319.7845,351.1691,320.4706,346.6959,316.56,353.536" style="stroke: #A80036; stroke-width: 0.8;"/><text fill="#000000" font-family="sans-serif" font-size="10.4" lengthAdjust="spacingAndGlyphs" textLength="33.6" x="367.2" y="326.8547">possui</text><text fill="#000000" font-family="sans-serif" font-size="10.4" lengthAdjust="spacingAndGlyphs" textLength="6.4" x="386.1987" y="308.3479">1</text><text fill="#000000" font-family="sans-serif" font-size="10.4" lengthAdjust="spacingAndGlyphs" textLength="6.4" x="317.2138" y="345.1405">1</text><!--MD5=[f832e5114c0a2f3b6fd1ddd795993084]
link RegistoAreasAtividade to AreaAtividade--><path d="M641.752,423.432 C658.728,446.088 682.432,477.72 700.816,502.256 " fill="none" id="RegistoAreasAtividade-&gt;AreaAtividade" style="stroke: #A80036; stroke-width: 0.8;"/><polygon fill="#A80036" points="703.264,505.512,701.504,497.832,700.864,502.312,696.384,501.672,703.264,505.512" style="stroke: #A80036; stroke-width: 0.8;"/><text fill="#000000" font-family="sans-serif" font-size="10.4" lengthAdjust="spacingAndGlyphs" textLength="33.6" x="675.2" y="468.4547">possui</text><text fill="#000000" font-family="sans-serif" font-size="10.4" lengthAdjust="spacingAndGlyphs" textLength="6.4" x="638.5406" y="439.6728">1</text><text fill="#000000" font-family="sans-serif" font-size="10.4" lengthAdjust="spacingAndGlyphs" textLength="4.8" x="694.0117" y="497.0786">*</text><!--MD5=[c2b02cfdb8aa70326365b04c36bb2b6f]
link RegistoCT to CompetenciaTecnica--><path d="M241.336,433.696 C231.432,451.488 219.632,472.688 209.2,491.432 " fill="none" id="RegistoCT-&gt;CompetenciaTecnica" style="stroke: #A80036; stroke-width: 0.8;"/><polygon fill="#A80036" points="207.136,495.152,213.4299,490.4121,209.0786,491.6554,207.8353,487.304,207.136,495.152" style="stroke: #A80036; stroke-width: 0.8;"/><text fill="#000000" font-family="sans-serif" font-size="10.4" lengthAdjust="spacingAndGlyphs" textLength="33.6" x="228.8" y="468.4547">possui</text><text fill="#000000" font-family="sans-serif" font-size="10.4" lengthAdjust="spacingAndGlyphs" textLength="6.4" x="231.568" y="449.9712">1</text><text fill="#000000" font-family="sans-serif" font-size="10.4" lengthAdjust="spacingAndGlyphs" textLength="4.8" x="205.1978" y="486.668">*</text><!--MD5=[74df22e4ed061183d7f0a5f0c57d5134]
@startuml
skinparam classAttributeIconSize 0

class CompetenciaTecnica {
  -String codigo
  -String descBreve
  -String descDetalhada
  +CompetenciaTecnica(String cod, String dsBreve, String dsDet, AreaAtividade at)
  +void addGrauProficiencia(Integer valor, String designacao)
}

class GrauProficiencia {
  -Integer valor
  -String designacao
 
  +GrauProficiencia(Integer valor, String designacao)
}

class AreaAtividade {
  -String codigo
  -String descBreve
  -String descDetalhada
}

class Plataforma {
  -String designacao
  +RegistoAreasAtividade getRegistoAreasAtividade()
  +RegistoCT getRegistoCT()
}

class RegistoAreasAtividade {
  +List<AreaAtividade> getAreasAtividade()
  +AreaAtividade getAreaAtividadeByCod(String atCod)
}

class RegistoCT {
  +CompetenciaTecnica novaCompetencia(String cod, String dsBreve, String dsDet, String atCod)
  +void registaCompetencia(CompetenciaTecnica ct)
  -void validaCompetencia(CompetenciaTecnica ct)
  -void addCompetencia(CompetenciaTecnica ct)
}


class EspecificarCompetenciaTecnicaController {
  +List<AreaAtividade> getAreasAtividade()
  +void novaCompetencia(String cod, String dsBreve, String dsDet, String atCod)
  +void addGrauProficiencia(Integer valor, String designacao)
  +void registaCompetencia()
}

class EspecificarCompetenciaTecnicaUI {

}

EspecificarCompetenciaTecnicaUI ..> EspecificarCompetenciaTecnicaController
EspecificarCompetenciaTecnicaController ..> Plataforma
EspecificarCompetenciaTecnicaController ..> RegistoAreasAtividade
EspecificarCompetenciaTecnicaController ..> RegistoCT
EspecificarCompetenciaTecnicaController ..> AreaAtividade
EspecificarCompetenciaTecnicaController ..> CompetenciaTecnica
CompetenciaTecnica "*" -> "1" AreaAtividade : referente
CompetenciaTecnica "1" -> "*" GrauProficiencia : aplica

Plataforma "1" - -> "1" RegistoAreasAtividade : possui
Plataforma "1" - -> "1" RegistoCT : possui

RegistoAreasAtividade "1" - -> "*" AreaAtividade : possui
RegistoCT "1" - -> "*" CompetenciaTecnica : possui


@enduml

PlantUML version 1.2020.03beta6(Unknown compile time)
(GPL source distribution)
Java Runtime: OpenJDK Runtime Environment
JVM: OpenJDK 64-Bit Server VM
Java Version: 11.0.5+10-b520.38
Operating System: Mac OS X
Default Encoding: UTF-8
Language: en
Country: PT
--></g></svg>