<?xml version="1.0" encoding="UTF-8" standalone="no"?><svg xmlns="http://www.w3.org/2000/svg" xmlns:xlink="http://www.w3.org/1999/xlink" contentScriptType="application/ecmascript" contentStyleType="text/css" height="160.8px" preserveAspectRatio="none" style="width:686px;height:160px;" version="1.1" viewBox="0 0 686 160" width="686.4px" zoomAndPan="magnify"><defs><filter height="300%" id="f4bdy2obua0yv" width="300%" x="-1" y="-1"><feGaussianBlur result="blurOut" stdDeviation="1.6"/><feColorMatrix in="blurOut" result="blurOut2" type="matrix" values="0 0 0 0 0 0 0 0 0 0 0 0 0 0 0 0 0 0 .4 0"/><feOffset dx="3.2" dy="3.2" in="blurOut2" result="blurOut3"/><feBlend in="SourceGraphic" in2="blurOut3" mode="normal"/></filter></defs><g><!--MD5=[ecaed46f78f8cfe1e9ce18477649be18]
class Plataforma--><rect fill="#FEFECE" filter="url(#f4bdy2obua0yv)" height="42.3641" id="Plataforma" style="stroke: #A80036; stroke-width: 1.2000000000000002;" width="91.2" x="4.8" y="76.8"/><ellipse cx="24" cy="89.6" fill="#ADD1B2" rx="8.8" ry="8.8" style="stroke: #A80036; stroke-width: 0.8;"/><path d="M25.9785,94.5145 Q25.5137,94.7535 25.0023,94.873 Q24.491,94.9926 23.9266,94.9926 Q21.9211,94.9926 20.8652,93.6711 Q19.8094,92.3496 19.8094,89.8527 Q19.8094,87.3492 20.8652,86.0277 Q21.9211,84.7063 23.9266,84.7063 Q24.491,84.7063 25.009,84.8258 Q25.527,84.9453 25.9785,85.1844 L25.9785,87.3625 Q25.4738,86.8977 24.999,86.6818 Q24.5242,86.466 24.0195,86.466 Q22.9438,86.466 22.3959,87.3193 Q21.848,88.1727 21.848,89.8527 Q21.848,91.5262 22.3959,92.3795 Q22.9438,93.2328 24.0195,93.2328 Q24.5242,93.2328 24.999,93.017 Q25.4738,92.8012 25.9785,92.3363 Z "/><text fill="#000000" font-family="sans-serif" font-size="9.6" lengthAdjust="spacingAndGlyphs" textLength="49.6" x="36.8" y="93.2281">Plataforma</text><line style="stroke: #A80036; stroke-width: 1.2000000000000002;" x1="5.6" x2="95.2" y1="102.4" y2="102.4"/><text fill="#000000" font-family="sans-serif" font-size="8.8" lengthAdjust="spacingAndGlyphs" textLength="81.6" x="9.6" y="114.1078">-String designacao</text><!--MD5=[a322db5a7ec64d2ff8f2d6cf1831dcec]
class CompetenciaTecnica--><rect fill="#FEFECE" filter="url(#f4bdy2obua0yv)" height="63.0922" id="CompetenciaTecnica" style="stroke: #A80036; stroke-width: 1.2000000000000002;" width="120.8" x="189.6" y="16"/><ellipse cx="201.6" cy="28.8" fill="#ADD1B2" rx="8.8" ry="8.8" style="stroke: #A80036; stroke-width: 0.8;"/><path d="M203.5785,33.7145 Q203.1137,33.9535 202.6023,34.073 Q202.091,34.1926 201.5266,34.1926 Q199.5211,34.1926 198.4652,32.8711 Q197.4094,31.5496 197.4094,29.0527 Q197.4094,26.5492 198.4652,25.2277 Q199.5211,23.9063 201.5266,23.9063 Q202.091,23.9063 202.609,24.0258 Q203.127,24.1453 203.5785,24.3844 L203.5785,26.5625 Q203.0738,26.0977 202.599,25.8818 Q202.1242,25.666 201.6195,25.666 Q200.5438,25.666 199.9959,26.5193 Q199.448,27.3727 199.448,29.0527 Q199.448,30.7262 199.9959,31.5795 Q200.5438,32.4328 201.6195,32.4328 Q202.1242,32.4328 202.599,32.217 Q203.0738,32.0012 203.5785,31.5363 Z "/><text fill="#000000" font-family="sans-serif" font-size="9.6" lengthAdjust="spacingAndGlyphs" textLength="95.2" x="212.8" y="32.4281">CompetenciaTecnica</text><line style="stroke: #A80036; stroke-width: 1.2000000000000002;" x1="190.4" x2="309.6" y1="41.6" y2="41.6"/><text fill="#000000" font-family="sans-serif" font-size="8.8" lengthAdjust="spacingAndGlyphs" textLength="62.4" x="194.4" y="53.3078">-String codigo</text><text fill="#000000" font-family="sans-serif" font-size="8.8" lengthAdjust="spacingAndGlyphs" textLength="76" x="194.4" y="63.6719">-String descBreve</text><text fill="#000000" font-family="sans-serif" font-size="8.8" lengthAdjust="spacingAndGlyphs" textLength="95.2" x="194.4" y="74.0359">-String descDetalhada</text><!--MD5=[0d4fe674cc1d46ec0fc990086e50801a]
class GrauProficiencia--><rect fill="#FEFECE" filter="url(#f4bdy2obua0yv)" height="52.7281" id="GrauProficiencia" style="stroke: #A80036; stroke-width: 1.2000000000000002;" width="100" x="577.6" y="6.8"/><ellipse cx="589.6" cy="19.6" fill="#ADD1B2" rx="8.8" ry="8.8" style="stroke: #A80036; stroke-width: 0.8;"/><path d="M591.5785,24.5145 Q591.1137,24.7535 590.6023,24.873 Q590.091,24.9926 589.5266,24.9926 Q587.5211,24.9926 586.4652,23.6711 Q585.4094,22.3496 585.4094,19.8527 Q585.4094,17.3492 586.4652,16.0277 Q587.5211,14.7063 589.5266,14.7063 Q590.091,14.7063 590.609,14.8258 Q591.127,14.9453 591.5785,15.1844 L591.5785,17.3625 Q591.0738,16.8977 590.599,16.6818 Q590.1242,16.466 589.6195,16.466 Q588.5438,16.466 587.9959,17.3193 Q587.448,18.1727 587.448,19.8527 Q587.448,21.5262 587.9959,22.3795 Q588.5438,23.2328 589.6195,23.2328 Q590.1242,23.2328 590.599,23.017 Q591.0738,22.8012 591.5785,22.3363 Z "/><text fill="#000000" font-family="sans-serif" font-size="9.6" lengthAdjust="spacingAndGlyphs" textLength="74.4" x="600.8" y="23.2281">GrauProficiencia</text><line style="stroke: #A80036; stroke-width: 1.2000000000000002;" x1="578.4" x2="676.8" y1="32.4" y2="32.4"/><text fill="#000000" font-family="sans-serif" font-size="8.8" lengthAdjust="spacingAndGlyphs" textLength="59.2" x="582.4" y="44.1078">-Integer valor</text><text fill="#000000" font-family="sans-serif" font-size="8.8" lengthAdjust="spacingAndGlyphs" textLength="81.6" x="582.4" y="54.4719">-String designacao</text><!--MD5=[02456e6632d968d6f68141e5893c6991]
class AreaAtividade--><rect fill="#FEFECE" filter="url(#f4bdy2obua0yv)" height="63.0922" id="AreaAtividade" style="stroke: #A80036; stroke-width: 1.2000000000000002;" width="104.8" x="424" y="89.6"/><ellipse cx="442.48" cy="102.4" fill="#ADD1B2" rx="8.8" ry="8.8" style="stroke: #A80036; stroke-width: 0.8;"/><path d="M444.4585,107.3145 Q443.9937,107.5535 443.4823,107.673 Q442.971,107.7926 442.4066,107.7926 Q440.4011,107.7926 439.3452,106.4711 Q438.2894,105.1496 438.2894,102.6527 Q438.2894,100.1492 439.3452,98.8277 Q440.4011,97.5063 442.4066,97.5063 Q442.971,97.5063 443.489,97.6258 Q444.007,97.7453 444.4585,97.9844 L444.4585,100.1625 Q443.9538,99.6977 443.479,99.4818 Q443.0042,99.266 442.4995,99.266 Q441.4238,99.266 440.8759,100.1193 Q440.328,100.9727 440.328,102.6527 Q440.328,104.3262 440.8759,105.1795 Q441.4238,106.0328 442.4995,106.0328 Q443.0042,106.0328 443.479,105.817 Q443.9538,105.6012 444.4585,105.1363 Z "/><text fill="#000000" font-family="sans-serif" font-size="9.6" lengthAdjust="spacingAndGlyphs" textLength="64.8" x="455.12" y="106.0281">AreaAtividade</text><line style="stroke: #A80036; stroke-width: 1.2000000000000002;" x1="424.8" x2="528" y1="115.2" y2="115.2"/><text fill="#000000" font-family="sans-serif" font-size="8.8" lengthAdjust="spacingAndGlyphs" textLength="62.4" x="428.8" y="126.9078">-String codigo</text><text fill="#000000" font-family="sans-serif" font-size="8.8" lengthAdjust="spacingAndGlyphs" textLength="76" x="428.8" y="137.2719">-String descBreve</text><text fill="#000000" font-family="sans-serif" font-size="8.8" lengthAdjust="spacingAndGlyphs" textLength="95.2" x="428.8" y="147.6359">-String descDetalhada</text><!--MD5=[a77d152358ce76c19672aacd9fb0ada1]
link Plataforma to CompetenciaTecnica--><path d="M96.128,86.56 C123.744,79.536 159.448,70.448 189.432,62.816 " fill="none" id="Plataforma-CompetenciaTecnica" style="stroke: #A80036; stroke-width: 0.8;"/><text fill="#000000" font-family="sans-serif" font-size="10.4" lengthAdjust="spacingAndGlyphs" textLength="33.6" x="120.8" y="66.4547">possui</text><polygon fill="#000000" points="156.8,61.3242,161.6,63.7242,156.8,66.1242,156.8,61.3242" style="stroke: #000000; stroke-width: 0.8;"/><text fill="#000000" font-family="sans-serif" font-size="10.4" lengthAdjust="spacingAndGlyphs" textLength="6.4" x="102.3969" y="95.9359">1</text><text fill="#000000" font-family="sans-serif" font-size="10.4" lengthAdjust="spacingAndGlyphs" textLength="4.8" x="178.4336" y="74.9767">*</text><!--MD5=[e538c9efa8de58386edc6206f3c58807]
link CompetenciaTecnica to AreaAtividade--><path d="M310.456,67.128 C345.704,78.672 389.904,93.144 423.704,104.208 " fill="none" id="CompetenciaTecnica-AreaAtividade" style="stroke: #A80036; stroke-width: 0.8;"/><text fill="#000000" font-family="sans-serif" font-size="10.4" lengthAdjust="spacingAndGlyphs" textLength="53.6" x="335.2" y="72.8547">referente a</text><polygon fill="#000000" points="391.2,67.7242,396,70.1242,391.2,72.5242,391.2,67.7242" style="stroke: #000000; stroke-width: 0.8;"/><text fill="#000000" font-family="sans-serif" font-size="10.4" lengthAdjust="spacingAndGlyphs" textLength="4.8" x="316.938" y="79.8336">*</text><text fill="#000000" font-family="sans-serif" font-size="10.4" lengthAdjust="spacingAndGlyphs" textLength="6.4" x="411.1904" y="113.0799">1</text><!--MD5=[0d731ff285a62a08178b23be6cceb109]
link CompetenciaTecnica to GrauProficiencia--><path d="M310.584,45.312 C384.456,42.48 508.76,37.72 577.456,35.088 " fill="none" id="CompetenciaTecnica-GrauProficiencia" style="stroke: #A80036; stroke-width: 0.8;"/><text fill="#000000" font-family="sans-serif" font-size="10.4" lengthAdjust="spacingAndGlyphs" textLength="29.6" x="456.4" y="33.6547">aplica</text><polygon fill="#000000" points="488.4,28.5242,493.2,30.9242,488.4,33.3242,488.4,28.5242" style="stroke: #000000; stroke-width: 0.8;"/><text fill="#000000" font-family="sans-serif" font-size="10.4" lengthAdjust="spacingAndGlyphs" textLength="6.4" x="316.8627" y="55.7496">1</text><text fill="#000000" font-family="sans-serif" font-size="10.4" lengthAdjust="spacingAndGlyphs" textLength="4.8" x="566.2522" y="46.1236">*</text><!--MD5=[718b46c9a1975c175f4073d63ce5ccba]
link Plataforma to AreaAtividade--><path d="M96.072,101 C123.152,102.776 158.352,105.016 189.6,106.8 C271.496,111.464 366.632,116.096 423.92,118.8 " fill="none" id="Plataforma-AreaAtividade" style="stroke: #A80036; stroke-width: 0.8;"/><text fill="#000000" font-family="sans-serif" font-size="10.4" lengthAdjust="spacingAndGlyphs" textLength="33.6" x="228" y="104.0547">possui</text><polygon fill="#000000" points="264,98.9242,268.8,101.3242,264,103.7242,264,98.9242" style="stroke: #000000; stroke-width: 0.8;"/><text fill="#000000" font-family="sans-serif" font-size="10.4" lengthAdjust="spacingAndGlyphs" textLength="6.4" x="102.3337" y="112.226">1</text><text fill="#000000" font-family="sans-serif" font-size="10.4" lengthAdjust="spacingAndGlyphs" textLength="4.8" x="412.7745" y="129.2915">*</text><!--MD5=[afaae9dee7543e4faf82caeaf22cf5e5]
@startuml
hide methods
left to right direction
skinparam classAttributeIconSize 0


class Plataforma {
  -String designacao
}

class CompetenciaTecnica {
  -String codigo
  -String descBreve
  -String descDetalhada
}

class GrauProficiencia {
  -Integer valor
  -String designacao
}

class AreaAtividade {
  -String codigo
  -String descBreve
  -String descDetalhada
}


Plataforma "1" - - "*" CompetenciaTecnica : possui >
CompetenciaTecnica "*" - - "1" AreaAtividade : referente a >
CompetenciaTecnica "1" - - - "*" GrauProficiencia : aplica  >
Plataforma "1" - - "*" AreaAtividade : possui >

@enduml

PlantUML version 1.2020.03beta6(Unknown compile time)
(GPL source distribution)
Java Runtime: OpenJDK Runtime Environment
JVM: OpenJDK 64-Bit Server VM
Java Version: 11.0.5+10-b520.38
Operating System: Mac OS X
Default Encoding: UTF-8
Language: en
Country: PT
--></g></svg>